<?xml version="1.0" encoding="UTF-8"?>
<svg width="100" height="100" viewBox="0 0 100 100" xmlns="http://www.w3.org/2000/svg">
    <circle cx="50" cy="50" r="45" fill="#9b59b6" opacity="0.1"/>
    <path d="M65 30H35c-2.8 0-5 2.2-5 5v30c0 2.8 2.2 5 5 5h30c2.8 0 5-2.2 5-5V35c0-2.8-2.2-5-5-5zm-5 25H40c-.6 0-1-.4-1-1s.4-1 1-1h20c.6 0 1 .4 1 1s-.4 1-1 1zm0-8H40c-.6 0-1-.4-1-1s.4-1 1-1h20c.6 0 1 .4 1 1s-.4 1-1 1zm0-8H40c-.6 0-1-.4-1-1s.4-1 1-1h20c.6 0 1 .4 1 1s-.4 1-1 1z" fill="#9b59b6"/>
    <path d="M75 50c-.6 0-1 .4-1 1 0 13.2-10.8 24-24 24S26 64.2 26 51s10.8-24 24-24c6.1 0 11.8 2.3 16.2 6.4l-3.2 3.2c-.4.4-.1 1.2.5 1.2h9c.4 0 .7-.3.7-.7v-9c0-.6-.7-.9-1.2-.5l-3.2 3.2C64.4 27.3 57.5 25 50 25c-14.4 0-26 11.6-26 26s11.6 26 26 26 26-11.6 26-26c0-.6-.4-1-1-1z" fill="#9b59b6"/>
</svg> 