<svg xmlns="http://www.w3.org/2000/svg" xmlns:xlink="http://www.w3.org/1999/xlink" width="1090" height="903.12" viewBox="0 0 1090 903.12">
  <defs>
    <linearGradient id="linear-gradient" x1="-0.124" y1="1" x2="1.556" y2="0.829" gradientUnits="objectBoundingBox">
      <stop offset="0" stop-color="#94e6cf"/>
      <stop offset="1" stop-color="#fff"/>
      <stop offset="1"/>
    </linearGradient>
    <filter id="Path_9" x="212.12" y="74.121" width="858.396" height="736.515" filterUnits="userSpaceOnUse">
      <feOffset dx="3" dy="3" input="SourceAlpha"/>
      <feGaussianBlur stdDeviation="9.5" result="blur"/>
      <feFlood flood-color="#03060d" flood-opacity="0.141"/>
      <feComposite operator="in" in2="blur"/>
      <feComposite in="SourceGraphic"/>
    </filter>
    <filter id="Path_110" x="250.227" y="110.427" width="352.463" height="261.245" filterUnits="userSpaceOnUse">
      <feOffset dy="3" input="SourceAlpha"/>
      <feGaussianBlur stdDeviation="7" result="blur-2"/>
      <feFlood flood-opacity="0.059"/>
      <feComposite operator="in" in2="blur-2"/>
      <feComposite in="SourceGraphic"/>
    </filter>
    <filter id="Path_112" x="573.493" y="110.427" width="451.587" height="261.245" filterUnits="userSpaceOnUse">
      <feOffset dy="3" input="SourceAlpha"/>
      <feGaussianBlur stdDeviation="7" result="blur-3"/>
      <feFlood flood-opacity="0.059"/>
      <feComposite operator="in" in2="blur-3"/>
      <feComposite in="SourceGraphic"/>
    </filter>
    <clipPath id="clip-path">
      <circle id="Ellipse_1" data-name="Ellipse 1" cx="29" cy="29" r="29" transform="translate(-0.105 0.198)" fill="#29cc9e"/>
    </clipPath>
    <clipPath id="clip-path-2">
      <ellipse id="Ellipse_37" data-name="Ellipse 37" cx="29" cy="28.5" rx="29" ry="28.5" transform="translate(-0.105 0.468)" fill="#29cc9e"/>
    </clipPath>
    <filter id="Rectangle_95" x="610" y="66" width="476" height="275" filterUnits="userSpaceOnUse">
      <feOffset dy="3" input="SourceAlpha"/>
      <feGaussianBlur stdDeviation="7" result="blur-4"/>
      <feFlood flood-opacity="0.059"/>
      <feComposite operator="in" in2="blur-4"/>
      <feComposite in="SourceGraphic"/>
    </filter>
    <clipPath id="clip-Image_10">
      <rect width="1090" height="903.12"/>
    </clipPath>
  </defs>
  <g id="Image_10" data-name="Image 10" clip-path="url(#clip-Image_10)">
    <rect width="1090" height="903.12" fill="rgba(255,255,255,0)"/>
    <g id="Group_72" data-name="Group 72" transform="translate(-922.977 -320.383)">
      <g id="Group_25" data-name="Group 25" transform="translate(948.411 465.603)" opacity="0.149">
        <circle id="Ellipse_2" data-name="Ellipse 2" cx="183.237" cy="183.237" r="183.237" fill="url(#linear-gradient)"/>
        <circle id="Ellipse_3" data-name="Ellipse 3" cx="161.633" cy="161.633" r="161.633" transform="translate(280.356 390.241)" fill="url(#linear-gradient)"/>
        <circle id="Ellipse_4" data-name="Ellipse 4" cx="56.812" cy="56.812" r="56.812" transform="translate(83.217 428.888)" fill="url(#linear-gradient)"/>
        <circle id="Ellipse_21" data-name="Ellipse 21" cx="75.215" cy="75.215" r="75.215" transform="translate(828.215 12.243)" fill="url(#linear-gradient)"/>
      </g>
      <g transform="matrix(1, 0, 0, 1, 922.98, 320.38)" filter="url(#Path_9)">
        <g id="Path_9-2" data-name="Path 9" transform="translate(237.62 99.62)" fill="#fafbff">
          <path d="M 775.5443725585938 679.0148315429688 L 25.85149765014648 679.0148315429688 C 22.43669891357422 679.0148315429688 19.12359809875488 678.2597045898438 16.00439834594727 676.7703857421875 C 12.98669815063477 675.32958984375 10.27549839019775 673.2658081054688 7.945998191833496 670.63623046875 C 5.612597942352295 668.002197265625 3.780198097229004 664.9338989257812 2.499698162078857 661.5166015625 C 1.172798037528992 657.9752197265625 0.4999980330467224 654.2125854492188 0.4999980330467224 650.3331909179688 L 0.4999980330467224 29.18161582946777 C 0.4999980330467224 25.30221557617188 1.172798037528992 21.53961563110352 2.499698162078857 17.99831581115723 C 3.780198097229004 14.5809154510498 5.612597942352295 11.51261615753174 7.945998191833496 8.878715515136719 C 10.27549839019775 6.249115943908691 12.98669815063477 4.185215950012207 16.00439834594727 2.744515657424927 C 19.12369728088379 1.255115747451782 22.43669891357422 0.5000157952308655 25.85149765014648 0.5000157952308655 L 775.5443725585938 0.5000157952308655 C 778.959228515625 0.5000157952308655 782.2722778320312 1.255115747451782 785.3916015625 2.744515657424927 C 788.4091796875 4.185215950012207 791.1204833984375 6.249115943908691 793.4500122070312 8.878715515136719 C 795.7833862304688 11.51261615753174 797.6157836914062 14.5809154510498 798.8961791992188 17.99831581115723 C 800.2232055664062 21.53961563110352 800.89599609375 25.30221557617188 800.89599609375 29.18161582946777 L 800.89599609375 650.3331909179688 C 800.89599609375 654.2125854492188 800.2232055664062 657.9752197265625 798.8961791992188 661.5166015625 C 797.6157836914062 664.9338989257812 795.7833862304688 668.002197265625 793.4500122070312 670.63623046875 C 791.1204833984375 673.2658081054688 788.4091796875 675.32958984375 785.3916015625 676.7703857421875 C 782.2722778320312 678.2597045898438 778.959228515625 679.0148315429688 775.5443725585938 679.0148315429688 Z" stroke="none"/>
          <path d="M 25.85150146484375 1 C 22.51177978515625 1 19.27130126953125 1.73870849609375 16.21978759765625 3.19561767578125 C 13.26287841796875 4.607421875 10.6051025390625 6.63104248046875 8.3203125 9.210205078125 C 6.027587890625 11.798095703125 4.22686767578125 14.81390380859375 2.968017578125 18.1737060546875 C 1.662109375 21.65869140625 1 25.3623046875 1 29.181640625 L 1 650.3331909179688 C 1 654.1525268554688 1.662109375 657.8561401367188 2.968017578125 661.3411254882812 C 4.22686767578125 664.700927734375 6.027587890625 667.7167358398438 8.3203125 670.3046264648438 C 10.6051025390625 672.8837890625 13.26287841796875 674.9074096679688 16.21978759765625 676.3192138671875 C 19.27130126953125 677.776123046875 22.51177978515625 678.5148315429688 25.85150146484375 678.5148315429688 L 775.5443725585938 678.5148315429688 C 778.8840942382812 678.5148315429688 782.1246948242188 677.776123046875 785.1762084960938 676.3192138671875 C 788.1331176757812 674.9074096679688 790.7908935546875 672.8837890625 793.07568359375 670.3046264648438 C 795.368408203125 667.7167358398438 797.1690673828125 664.700927734375 798.427978515625 661.3411254882812 C 799.73388671875 657.8561401367188 800.39599609375 654.1525268554688 800.39599609375 650.3331909179688 L 800.39599609375 29.181640625 C 800.39599609375 25.3623046875 799.73388671875 21.65869140625 798.427978515625 18.1737060546875 C 797.1690673828125 14.81390380859375 795.368408203125 11.798095703125 793.07568359375 9.210205078125 C 790.7908935546875 6.63104248046875 788.1331176757812 4.607421875 785.1762084960938 3.19561767578125 C 782.1246948242188 1.73870849609375 778.8840942382812 1 775.5443725585938 1 L 25.85150146484375 1 M 25.85150146484375 0 L 775.5443725585938 0 C 789.8218994140625 0 801.39599609375 13.06500244140625 801.39599609375 29.181640625 L 801.39599609375 650.3331909179688 C 801.39599609375 666.4498291015625 789.8218994140625 679.5148315429688 775.5443725585938 679.5148315429688 L 25.85150146484375 679.5148315429688 C 11.5740966796875 679.5148315429688 0 666.4498291015625 0 650.3331909179688 L 0 29.181640625 C 0 13.06500244140625 11.5740966796875 0 25.85150146484375 0 Z" stroke="none" fill="#fafbff"/>
        </g>
      </g>
      <rect id="Rectangle_86" data-name="Rectangle 86" width="743" height="89" rx="8" transform="translate(1193.977 863.383)" fill="#fff"/>
      <rect id="Rectangle_362" data-name="Rectangle 362" width="743" height="90" rx="8" transform="translate(1193.977 760.383)" fill="#fff"/>
      <g id="Group_1" data-name="Group 1" transform="translate(1194.223 682.909)">
        <rect id="Rectangle_2" data-name="Rectangle 2" width="733" height="65" rx="8" transform="translate(-0.246 0.474)" fill="#e9f1fc"/>
        <path id="error-24px" d="M12.869,2A10.869,10.869,0,1,0,23.739,12.869,10.873,10.873,0,0,0,12.869,2Zm0,11.956a1.09,1.09,0,0,1-1.087-1.087V8.522a1.087,1.087,0,1,1,2.174,0v4.348A1.09,1.09,0,0,1,12.869,13.956ZM13.956,18.3H11.782V16.13h2.174Z" transform="translate(24.757 20.044)" fill="#2272e2"/>
        <rect id="Rectangle_93" data-name="Rectangle 93" width="137" height="13" rx="4" transform="translate(73.754 20.474)" fill="#2272e2"/>
        <rect id="Rectangle_94" data-name="Rectangle 94" width="96" height="6" rx="3" transform="translate(73.754 41.474)" fill="#2272e2"/>
      </g>
      <g transform="matrix(1, 0, 0, 1, 922.98, 320.38)" filter="url(#Path_110)">
        <path id="Path_110-2" data-name="Path 110" d="M12.8,0H297.661a12.8,12.8,0,0,1,12.8,12.8v193.64a12.8,12.8,0,0,1-12.8,12.8H12.8A12.8,12.8,0,0,1,0,206.442V12.8A12.8,12.8,0,0,1,12.8,0Z" transform="translate(271.23 128.43)" fill="#fff"/>
      </g>
      <g transform="matrix(1, 0, 0, 1, 922.98, 320.38)" filter="url(#Path_112)">
        <path id="Path_112-2" data-name="Path 112" d="M16.89,0H392.7c9.328,0,16.89,5.732,16.89,12.8v193.64c0,7.071-7.562,12.8-16.89,12.8H16.89c-9.328,0-16.89-5.732-16.89-12.8V12.8C0,5.732,7.562,0,16.89,0Z" transform="translate(594.49 128.43)" fill="#fff"/>
      </g>
      <rect id="Rectangle_92" data-name="Rectangle 92" width="259" height="35" rx="17.5" transform="translate(1219.977 602.383)" fill="#2272e2"/>
      <rect id="Rectangle_395" data-name="Rectangle 395" width="259" height="64" rx="32" transform="translate(1430.977 995.383)" fill="#2272e2"/>
      <path id="Path_135" data-name="Path 135" d="M8.88-6.336a9.108,9.108,0,0,1-.366,2.664,5.629,5.629,0,0,1-1.1,2.058A4.959,4.959,0,0,1,5.556-.282,6.688,6.688,0,0,1,2.928.192,12.552,12.552,0,0,1,1.578.12,11.591,11.591,0,0,1,.192-.12L.408-2.484a.711.711,0,0,1,.246-.5.915.915,0,0,1,.618-.192,2.42,2.42,0,0,1,.5.066,3.4,3.4,0,0,0,.72.066A2.954,2.954,0,0,0,3.522-3.21a1.59,1.59,0,0,0,.726-.54,2.6,2.6,0,0,0,.432-.99,6.726,6.726,0,0,0,.144-1.512V-17.484H8.88ZM20.352,0a1.743,1.743,0,0,1-.8-.144,1.1,1.1,0,0,1-.45-.6l-.264-.684q-.468.4-.9.7a5.7,5.7,0,0,1-.894.51,4.415,4.415,0,0,1-.984.312,6.056,6.056,0,0,1-1.158.1A5.078,5.078,0,0,1,13.356-.03a3.23,3.23,0,0,1-1.182-.654,2.876,2.876,0,0,1-.75-1.074A3.873,3.873,0,0,1,11.16-3.24,3.108,3.108,0,0,1,11.5-4.6,3.345,3.345,0,0,1,12.66-5.862a7.4,7.4,0,0,1,2.232-.954,14.976,14.976,0,0,1,3.54-.432v-.528a2.282,2.282,0,0,0-.45-1.578A1.655,1.655,0,0,0,16.7-9.84a3.39,3.39,0,0,0-1.08.144,4.855,4.855,0,0,0-.75.324q-.33.18-.642.324a1.763,1.763,0,0,1-.744.144,1.125,1.125,0,0,1-.654-.186,1.381,1.381,0,0,1-.426-.462l-.672-1.164a7.564,7.564,0,0,1,2.5-1.482,8.771,8.771,0,0,1,2.946-.486,5.388,5.388,0,0,1,2.034.366,4.377,4.377,0,0,1,1.536,1.02,4.457,4.457,0,0,1,.966,1.554,5.585,5.585,0,0,1,.336,1.968V0ZM16.08-2.268a2.952,2.952,0,0,0,1.26-.252,3.839,3.839,0,0,0,1.092-.816V-5.064a12.35,12.35,0,0,0-1.836.192,4.46,4.46,0,0,0-1.14.36,1.38,1.38,0,0,0-.582.492,1.164,1.164,0,0,0-.162.6,1.043,1.043,0,0,0,.348.894A1.7,1.7,0,0,0,16.08-2.268ZM24.7,0V-12.444H27a1.027,1.027,0,0,1,.582.156.833.833,0,0,1,.33.468l.2.672a6.9,6.9,0,0,1,.648-.594,4.167,4.167,0,0,1,.726-.468,4.041,4.041,0,0,1,.84-.312,4.029,4.029,0,0,1,.99-.114,2.921,2.921,0,0,1,1.866.582A3.626,3.626,0,0,1,34.308-10.5a3.679,3.679,0,0,1,.762-.984,4.092,4.092,0,0,1,.972-.66,4.722,4.722,0,0,1,1.1-.372,5.722,5.722,0,0,1,1.158-.12,5.263,5.263,0,0,1,1.9.318,3.61,3.61,0,0,1,1.386.924,3.99,3.99,0,0,1,.846,1.488,6.424,6.424,0,0,1,.288,2V0H39V-7.908Q39-9.84,37.344-9.84a1.7,1.7,0,0,0-1.254.5,1.941,1.941,0,0,0-.5,1.434V0h-3.72V-7.908a2.128,2.128,0,0,0-.42-1.5,1.648,1.648,0,0,0-1.236-.432,2.082,2.082,0,0,0-.954.228A3.467,3.467,0,0,0,28.416-9V0ZM50.688-12.636a6.407,6.407,0,0,1,2.262.384,4.917,4.917,0,0,1,1.764,1.116,5.094,5.094,0,0,1,1.152,1.794,6.583,6.583,0,0,1,.414,2.406,5.251,5.251,0,0,1-.036.684,1.083,1.083,0,0,1-.132.42.5.5,0,0,1-.258.216,1.208,1.208,0,0,1-.414.06H48.264a3.508,3.508,0,0,0,.948,2.262,2.821,2.821,0,0,0,1.98.7,3.544,3.544,0,0,0,1.116-.156,5.63,5.63,0,0,0,.834-.348q.366-.192.672-.348a1.4,1.4,0,0,1,.642-.156.769.769,0,0,1,.672.324l1.08,1.332A5.53,5.53,0,0,1,54.966-.87,6.454,6.454,0,0,1,53.6-.222a7.415,7.415,0,0,1-1.4.324,10.536,10.536,0,0,1-1.338.09A6.986,6.986,0,0,1,48.4-.234a5.639,5.639,0,0,1-2-1.266,5.974,5.974,0,0,1-1.356-2.088,7.8,7.8,0,0,1-.5-2.9,6.572,6.572,0,0,1,.426-2.364,5.822,5.822,0,0,1,1.224-1.956,5.828,5.828,0,0,1,1.932-1.332A6.377,6.377,0,0,1,50.688-12.636Zm.072,2.568a2.242,2.242,0,0,0-1.668.606A3.157,3.157,0,0,0,48.3-7.716h4.644a3.284,3.284,0,0,0-.114-.864,2.1,2.1,0,0,0-.372-.75,1.893,1.893,0,0,0-.678-.534A2.319,2.319,0,0,0,50.76-10.068Zm15.264.348a.962.962,0,0,1-.306.324.8.8,0,0,1-.414.1,1.323,1.323,0,0,1-.528-.114l-.57-.246a6.211,6.211,0,0,0-.69-.246,3.08,3.08,0,0,0-.876-.114,1.853,1.853,0,0,0-1.086.27.87.87,0,0,0-.378.75.752.752,0,0,0,.246.576,2.257,2.257,0,0,0,.654.4,9.02,9.02,0,0,0,.924.33q.516.156,1.056.348a9.4,9.4,0,0,1,1.056.45,3.95,3.95,0,0,1,.924.636,2.839,2.839,0,0,1,.654.918,3.109,3.109,0,0,1,.246,1.3,4.261,4.261,0,0,1-.336,1.7A3.618,3.618,0,0,1,65.6-1a4.739,4.739,0,0,1-1.644.876A7.405,7.405,0,0,1,61.7.192a6.847,6.847,0,0,1-1.272-.12A8.811,8.811,0,0,1,59.2-.252a6.7,6.7,0,0,1-1.1-.486,4.762,4.762,0,0,1-.864-.606L58.1-2.712a1.244,1.244,0,0,1,.372-.378,1.033,1.033,0,0,1,.564-.138,1.174,1.174,0,0,1,.582.144l.558.312a4.651,4.651,0,0,0,.7.312,3.044,3.044,0,0,0,1.014.144,2.576,2.576,0,0,0,.732-.09,1.29,1.29,0,0,0,.48-.246A.982.982,0,0,0,63.372-3a.978.978,0,0,0,.084-.4.808.808,0,0,0-.252-.612,2.2,2.2,0,0,0-.66-.414,8.047,8.047,0,0,0-.93-.324q-.522-.15-1.062-.342A8.53,8.53,0,0,1,59.49-5.55a3.653,3.653,0,0,1-.93-.684,3.178,3.178,0,0,1-.66-1.014A3.745,3.745,0,0,1,57.648-8.7a3.783,3.783,0,0,1,.306-1.506,3.5,3.5,0,0,1,.918-1.254,4.507,4.507,0,0,1,1.536-.858,6.641,6.641,0,0,1,2.16-.318,6.944,6.944,0,0,1,1.3.12,6.654,6.654,0,0,1,1.182.336,5.661,5.661,0,0,1,1.008.51,4.841,4.841,0,0,1,.8.642Zm23.448.972a9.168,9.168,0,0,1-.654,3.5,8.184,8.184,0,0,1-1.842,2.772A8.354,8.354,0,0,1,84.114-.654,10.127,10.127,0,0,1,80.4,0H73.608V-17.484H80.4a10.045,10.045,0,0,1,3.714.66A8.475,8.475,0,0,1,86.976-15a8.12,8.12,0,0,1,1.842,2.766A9.136,9.136,0,0,1,89.472-8.748Zm-4.152,0a7.617,7.617,0,0,0-.336-2.34,5,5,0,0,0-.966-1.77,4.2,4.2,0,0,0-1.542-1.116,5.235,5.235,0,0,0-2.076-.39H77.688V-3.12H80.4a5.235,5.235,0,0,0,2.076-.39,4.2,4.2,0,0,0,1.542-1.116,5,5,0,0,0,.966-1.77A7.66,7.66,0,0,0,85.32-8.748Zm11.424-3.888a6.407,6.407,0,0,1,2.262.384,4.917,4.917,0,0,1,1.764,1.116,5.094,5.094,0,0,1,1.152,1.794,6.583,6.583,0,0,1,.414,2.406,5.251,5.251,0,0,1-.036.684,1.083,1.083,0,0,1-.132.42.5.5,0,0,1-.258.216,1.208,1.208,0,0,1-.414.06H94.32a3.508,3.508,0,0,0,.948,2.262,2.821,2.821,0,0,0,1.98.7,3.544,3.544,0,0,0,1.116-.156A5.63,5.63,0,0,0,99.2-3.1q.366-.192.672-.348a1.4,1.4,0,0,1,.642-.156.769.769,0,0,1,.672.324l1.08,1.332A5.53,5.53,0,0,1,101.022-.87a6.454,6.454,0,0,1-1.368.648A7.415,7.415,0,0,1,98.25.1a10.536,10.536,0,0,1-1.338.09,6.986,6.986,0,0,1-2.454-.426,5.639,5.639,0,0,1-2-1.266A5.974,5.974,0,0,1,91.1-3.588a7.8,7.8,0,0,1-.5-2.9,6.572,6.572,0,0,1,.426-2.364,5.822,5.822,0,0,1,1.224-1.956,5.828,5.828,0,0,1,1.932-1.332A6.377,6.377,0,0,1,96.744-12.636Zm.072,2.568a2.242,2.242,0,0,0-1.668.606,3.157,3.157,0,0,0-.792,1.746H99a3.284,3.284,0,0,0-.114-.864,2.1,2.1,0,0,0-.372-.75,1.893,1.893,0,0,0-.678-.534A2.319,2.319,0,0,0,96.816-10.068Zm6.216-2.376h2.976a1.264,1.264,0,0,1,.684.18.717.717,0,0,1,.348.468l1.248,5.58q.144.636.264,1.236t.216,1.188q.168-.588.354-1.182t.366-1.242l1.56-5.592a.8.8,0,0,1,.348-.462,1.111,1.111,0,0,1,.636-.186h1.656a1.2,1.2,0,0,1,.678.186.791.791,0,0,1,.354.462l1.488,5.592q.168.636.342,1.236t.33,1.212q.1-.6.234-1.194t.294-1.254l1.32-5.58a.721.721,0,0,1,.342-.468,1.167,1.167,0,0,1,.642-.18h2.832L118.68,0h-3.024a.606.606,0,0,1-.408-.144.97.97,0,0,1-.264-.48l-1.776-6.2q-.12-.42-.228-.828t-.192-.816q-.084.42-.186.834t-.234.834l-1.8,6.18a.765.765,0,0,1-.792.624H106.9Z" transform="translate(1296.977 917.383)" fill="#394049"/>
      <path id="Path_136" data-name="Path 136" d="M10.38-7.992q.24.456.462.948t.426,1.008q.2-.528.432-1.026t.468-.966l4.488-8.832a1.467,1.467,0,0,1,.246-.354.806.806,0,0,1,.282-.186,1.182,1.182,0,0,1,.354-.072q.2-.012.462-.012h3.1V0H17.52V-10.056q0-.732.072-1.584L12.96-2.652a1.526,1.526,0,0,1-.582.636,1.61,1.61,0,0,1-.834.216h-.552a1.61,1.61,0,0,1-.834-.216,1.526,1.526,0,0,1-.582-.636l-4.656-9q.048.42.072.834t.024.762V0H1.44V-17.484h3.1q.264,0,.462.012a1.182,1.182,0,0,1,.354.072.806.806,0,0,1,.282.186,1.467,1.467,0,0,1,.246.354ZM29.3-12.636a6.407,6.407,0,0,1,2.262.384,4.917,4.917,0,0,1,1.764,1.116,5.094,5.094,0,0,1,1.152,1.794A6.583,6.583,0,0,1,34.9-6.936a5.252,5.252,0,0,1-.036.684,1.083,1.083,0,0,1-.132.42.5.5,0,0,1-.258.216,1.208,1.208,0,0,1-.414.06H26.88a3.508,3.508,0,0,0,.948,2.262,2.821,2.821,0,0,0,1.98.7,3.544,3.544,0,0,0,1.116-.156,5.63,5.63,0,0,0,.834-.348q.366-.192.672-.348a1.4,1.4,0,0,1,.642-.156.769.769,0,0,1,.672.324l1.08,1.332A5.53,5.53,0,0,1,33.582-.87a6.454,6.454,0,0,1-1.368.648A7.415,7.415,0,0,1,30.81.1a10.536,10.536,0,0,1-1.338.09,6.986,6.986,0,0,1-2.454-.426,5.639,5.639,0,0,1-2-1.266,5.974,5.974,0,0,1-1.356-2.088,7.8,7.8,0,0,1-.5-2.9,6.572,6.572,0,0,1,.426-2.364,5.822,5.822,0,0,1,1.224-1.956,5.828,5.828,0,0,1,1.932-1.332A6.377,6.377,0,0,1,29.3-12.636Zm.072,2.568a2.242,2.242,0,0,0-1.668.606,3.157,3.157,0,0,0-.792,1.746H31.56a3.284,3.284,0,0,0-.114-.864,2.1,2.1,0,0,0-.372-.75,1.893,1.893,0,0,0-.678-.534A2.319,2.319,0,0,0,29.376-10.068Zm11.5-7.9V0h-3.72V-17.964Zm6.84,5.52V0h-3.72V-12.444Zm.432-3.408a1.966,1.966,0,0,1-.18.834,2.2,2.2,0,0,1-.492.684,2.409,2.409,0,0,1-.726.468,2.253,2.253,0,0,1-.882.174,2.094,2.094,0,0,1-.852-.174,2.4,2.4,0,0,1-.7-.468,2.16,2.16,0,0,1-.48-.684,2.024,2.024,0,0,1-.174-.834,2.094,2.094,0,0,1,.174-.852,2.211,2.211,0,0,1,.48-.7,2.248,2.248,0,0,1,.7-.468,2.159,2.159,0,0,1,.852-.168,2.323,2.323,0,0,1,.882.168,2.265,2.265,0,0,1,.726.468,2.246,2.246,0,0,1,.492.7A2.035,2.035,0,0,1,48.144-15.852ZM58.32-9.72a.962.962,0,0,1-.306.324.8.8,0,0,1-.414.1,1.323,1.323,0,0,1-.528-.114L56.5-9.66a6.21,6.21,0,0,0-.69-.246,3.08,3.08,0,0,0-.876-.114,1.853,1.853,0,0,0-1.086.27.87.87,0,0,0-.378.75.752.752,0,0,0,.246.576,2.257,2.257,0,0,0,.654.4,9.02,9.02,0,0,0,.924.33q.516.156,1.056.348a9.4,9.4,0,0,1,1.056.45,3.95,3.95,0,0,1,.924.636,2.839,2.839,0,0,1,.654.918,3.109,3.109,0,0,1,.246,1.3,4.261,4.261,0,0,1-.336,1.7,3.618,3.618,0,0,1-1,1.344A4.738,4.738,0,0,1,56.25-.12,7.405,7.405,0,0,1,54,.192a6.847,6.847,0,0,1-1.272-.12A8.811,8.811,0,0,1,51.5-.252a6.7,6.7,0,0,1-1.1-.486,4.762,4.762,0,0,1-.864-.606L50.4-2.712a1.244,1.244,0,0,1,.372-.378,1.033,1.033,0,0,1,.564-.138,1.174,1.174,0,0,1,.582.144l.558.312a4.651,4.651,0,0,0,.7.312,3.044,3.044,0,0,0,1.014.144,2.576,2.576,0,0,0,.732-.09,1.29,1.29,0,0,0,.48-.246A.982.982,0,0,0,55.668-3a.978.978,0,0,0,.084-.4.808.808,0,0,0-.252-.612,2.2,2.2,0,0,0-.66-.414,8.047,8.047,0,0,0-.93-.324q-.522-.15-1.062-.342a8.53,8.53,0,0,1-1.062-.462,3.653,3.653,0,0,1-.93-.684,3.178,3.178,0,0,1-.66-1.014A3.745,3.745,0,0,1,49.944-8.7a3.783,3.783,0,0,1,.306-1.506,3.5,3.5,0,0,1,.918-1.254,4.507,4.507,0,0,1,1.536-.858,6.641,6.641,0,0,1,2.16-.318,6.944,6.944,0,0,1,1.3.12,6.654,6.654,0,0,1,1.182.336,5.661,5.661,0,0,1,1.008.51,4.841,4.841,0,0,1,.8.642Zm10.56,0a.962.962,0,0,1-.306.324.8.8,0,0,1-.414.1,1.323,1.323,0,0,1-.528-.114l-.57-.246a6.21,6.21,0,0,0-.69-.246,3.08,3.08,0,0,0-.876-.114,1.853,1.853,0,0,0-1.086.27.87.87,0,0,0-.378.75.752.752,0,0,0,.246.576,2.257,2.257,0,0,0,.654.4,9.02,9.02,0,0,0,.924.33q.516.156,1.056.348a9.4,9.4,0,0,1,1.056.45,3.95,3.95,0,0,1,.924.636,2.839,2.839,0,0,1,.654.918,3.109,3.109,0,0,1,.246,1.3,4.261,4.261,0,0,1-.336,1.7,3.618,3.618,0,0,1-1,1.344A4.739,4.739,0,0,1,66.81-.12a7.405,7.405,0,0,1-2.25.312,6.847,6.847,0,0,1-1.272-.12,8.811,8.811,0,0,1-1.23-.324,6.7,6.7,0,0,1-1.1-.486,4.762,4.762,0,0,1-.864-.606l.864-1.368a1.244,1.244,0,0,1,.372-.378,1.033,1.033,0,0,1,.564-.138,1.174,1.174,0,0,1,.582.144l.558.312a4.652,4.652,0,0,0,.7.312,3.044,3.044,0,0,0,1.014.144,2.576,2.576,0,0,0,.732-.09,1.29,1.29,0,0,0,.48-.246A.982.982,0,0,0,66.228-3a.978.978,0,0,0,.084-.4.808.808,0,0,0-.252-.612,2.2,2.2,0,0,0-.66-.414,8.046,8.046,0,0,0-.93-.324q-.522-.15-1.062-.342a8.53,8.53,0,0,1-1.062-.462,3.653,3.653,0,0,1-.93-.684,3.178,3.178,0,0,1-.66-1.014A3.745,3.745,0,0,1,60.5-8.7a3.783,3.783,0,0,1,.306-1.506,3.5,3.5,0,0,1,.918-1.254,4.507,4.507,0,0,1,1.536-.858,6.641,6.641,0,0,1,2.16-.318,6.944,6.944,0,0,1,1.3.12,6.654,6.654,0,0,1,1.182.336,5.661,5.661,0,0,1,1.008.51,4.841,4.841,0,0,1,.8.642ZM80.424,0a1.743,1.743,0,0,1-.8-.144,1.1,1.1,0,0,1-.45-.6l-.264-.684q-.468.4-.9.7a5.7,5.7,0,0,1-.894.51,4.415,4.415,0,0,1-.984.312,6.056,6.056,0,0,1-1.158.1A5.077,5.077,0,0,1,73.428-.03a3.23,3.23,0,0,1-1.182-.654,2.876,2.876,0,0,1-.75-1.074,3.873,3.873,0,0,1-.264-1.482A3.108,3.108,0,0,1,71.568-4.6a3.345,3.345,0,0,1,1.164-1.266,7.4,7.4,0,0,1,2.232-.954,14.976,14.976,0,0,1,3.54-.432v-.528a2.282,2.282,0,0,0-.45-1.578,1.655,1.655,0,0,0-1.278-.486A3.39,3.39,0,0,0,75.7-9.7a4.855,4.855,0,0,0-.75.324q-.33.18-.642.324a1.763,1.763,0,0,1-.744.144,1.125,1.125,0,0,1-.654-.186,1.382,1.382,0,0,1-.426-.462l-.672-1.164a7.564,7.564,0,0,1,2.5-1.482,8.771,8.771,0,0,1,2.946-.486,5.388,5.388,0,0,1,2.034.366,4.377,4.377,0,0,1,1.536,1.02,4.457,4.457,0,0,1,.966,1.554,5.585,5.585,0,0,1,.336,1.968V0ZM76.152-2.268a2.952,2.952,0,0,0,1.26-.252A3.839,3.839,0,0,0,78.5-3.336V-5.064a12.35,12.35,0,0,0-1.836.192,4.46,4.46,0,0,0-1.14.36,1.38,1.38,0,0,0-.582.492,1.164,1.164,0,0,0-.162.6,1.043,1.043,0,0,0,.348.894A1.7,1.7,0,0,0,76.152-2.268ZM105.672,0h-3.144a1.453,1.453,0,0,1-.87-.246,1.271,1.271,0,0,1-.474-.63l-1.032-3.048H93.5L92.472-.876A1.351,1.351,0,0,1,92-.27a1.348,1.348,0,0,1-.852.27H87.984l6.768-17.484H98.9ZM94.44-6.684h4.776l-1.608-4.788q-.156-.456-.366-1.074t-.414-1.338q-.192.732-.4,1.356t-.384,1.08ZM107.088,0V-12.444h2.3a1.027,1.027,0,0,1,.582.156.833.833,0,0,1,.33.468l.216.72a9.038,9.038,0,0,1,.744-.624,4.357,4.357,0,0,1,.822-.486,4.879,4.879,0,0,1,.948-.312,5.087,5.087,0,0,1,1.11-.114,4.357,4.357,0,0,1,1.806.354,3.748,3.748,0,0,1,1.326.984,4.247,4.247,0,0,1,.816,1.5,6.22,6.22,0,0,1,.276,1.89V0h-3.72V-7.908a2.176,2.176,0,0,0-.42-1.422,1.509,1.509,0,0,0-1.236-.51,2.589,2.589,0,0,0-1.152.264,4.48,4.48,0,0,0-1.032.708V0Zm22.656,0a1.027,1.027,0,0,1-.582-.156.833.833,0,0,1-.33-.468l-.288-.948a7.3,7.3,0,0,1-.78.72,4.905,4.905,0,0,1-.882.558,4.665,4.665,0,0,1-1.02.36,5.251,5.251,0,0,1-1.182.126,3.833,3.833,0,0,1-1.8-.432,4.148,4.148,0,0,1-1.428-1.248,6.3,6.3,0,0,1-.942-2,9.7,9.7,0,0,1-.342-2.694,8.4,8.4,0,0,1,.384-2.586,6.34,6.34,0,0,1,1.086-2.064,5.043,5.043,0,0,1,1.686-1.362,4.788,4.788,0,0,1,2.172-.492,4.17,4.17,0,0,1,1.626.282,4.693,4.693,0,0,1,1.206.738v-6.3h3.72V0Zm-3.768-2.664a3.214,3.214,0,0,0,.738-.078,2.594,2.594,0,0,0,.606-.222,2.644,2.644,0,0,0,.522-.36,4.517,4.517,0,0,0,.486-.5v-5.28a2.46,2.46,0,0,0-.918-.654,2.846,2.846,0,0,0-1.026-.186,2.192,2.192,0,0,0-.948.2,1.932,1.932,0,0,0-.75.654,3.483,3.483,0,0,0-.5,1.17,7.268,7.268,0,0,0-.18,1.74,8.06,8.06,0,0,0,.144,1.656,3.411,3.411,0,0,0,.4,1.086,1.561,1.561,0,0,0,.618.594A1.773,1.773,0,0,0,125.976-2.664ZM134.928,0V-12.444h2.208a1.883,1.883,0,0,1,.462.048.81.81,0,0,1,.312.15.64.64,0,0,1,.192.27,2.435,2.435,0,0,1,.114.408l.2,1.164a6.1,6.1,0,0,1,1.536-1.668,3.121,3.121,0,0,1,1.86-.612,2.143,2.143,0,0,1,1.368.408L142.7-9.54a.534.534,0,0,1-.192.354.652.652,0,0,1-.384.1,2.547,2.547,0,0,1-.48-.054,3.721,3.721,0,0,0-.7-.054,2.555,2.555,0,0,0-2.3,1.56V0Zm15.24-12.636a6.407,6.407,0,0,1,2.262.384,4.917,4.917,0,0,1,1.764,1.116,5.094,5.094,0,0,1,1.152,1.794,6.583,6.583,0,0,1,.414,2.406,5.252,5.252,0,0,1-.036.684,1.083,1.083,0,0,1-.132.42.5.5,0,0,1-.258.216,1.208,1.208,0,0,1-.414.06h-7.176a3.508,3.508,0,0,0,.948,2.262,2.821,2.821,0,0,0,1.98.7,3.544,3.544,0,0,0,1.116-.156,5.63,5.63,0,0,0,.834-.348q.366-.192.672-.348a1.4,1.4,0,0,1,.642-.156.769.769,0,0,1,.672.324l1.08,1.332A5.529,5.529,0,0,1,154.446-.87a6.454,6.454,0,0,1-1.368.648,7.415,7.415,0,0,1-1.4.324,10.536,10.536,0,0,1-1.338.09,6.986,6.986,0,0,1-2.454-.426,5.639,5.639,0,0,1-2-1.266,5.974,5.974,0,0,1-1.356-2.088,7.8,7.8,0,0,1-.5-2.9,6.572,6.572,0,0,1,.426-2.364,5.822,5.822,0,0,1,1.224-1.956,5.828,5.828,0,0,1,1.932-1.332A6.377,6.377,0,0,1,150.168-12.636Zm.072,2.568a2.242,2.242,0,0,0-1.668.606,3.158,3.158,0,0,0-.792,1.746h4.644a3.283,3.283,0,0,0-.114-.864,2.1,2.1,0,0,0-.372-.75,1.893,1.893,0,0,0-.678-.534A2.319,2.319,0,0,0,150.24-10.068Zm6.216-2.376h2.976a1.264,1.264,0,0,1,.684.18.717.717,0,0,1,.348.468l1.248,5.58q.144.636.264,1.236t.216,1.188q.168-.588.354-1.182t.366-1.242l1.56-5.592a.8.8,0,0,1,.348-.462,1.111,1.111,0,0,1,.636-.186h1.656a1.2,1.2,0,0,1,.678.186.791.791,0,0,1,.354.462l1.488,5.592q.168.636.342,1.236t.33,1.212q.1-.6.234-1.194t.294-1.254l1.32-5.58a.721.721,0,0,1,.342-.468,1.167,1.167,0,0,1,.642-.18h2.832L172.1,0H169.08a.606.606,0,0,1-.408-.144.97.97,0,0,1-.264-.48l-1.776-6.2q-.12-.42-.228-.828t-.192-.816q-.084.42-.186.834t-.234.834l-1.8,6.18A.765.765,0,0,1,163.2,0h-2.88Zm28.56,2.724a.962.962,0,0,1-.306.324.8.8,0,0,1-.414.1,1.322,1.322,0,0,1-.528-.114l-.57-.246a6.21,6.21,0,0,0-.69-.246,3.08,3.08,0,0,0-.876-.114,1.853,1.853,0,0,0-1.086.27.87.87,0,0,0-.378.75.752.752,0,0,0,.246.576,2.257,2.257,0,0,0,.654.4,9.018,9.018,0,0,0,.924.33q.516.156,1.056.348a9.4,9.4,0,0,1,1.056.45,3.95,3.95,0,0,1,.924.636,2.839,2.839,0,0,1,.654.918,3.109,3.109,0,0,1,.246,1.3,4.261,4.261,0,0,1-.336,1.7,3.618,3.618,0,0,1-1,1.344,4.739,4.739,0,0,1-1.644.876,7.405,7.405,0,0,1-2.25.312,6.847,6.847,0,0,1-1.272-.12,8.811,8.811,0,0,1-1.23-.324,6.7,6.7,0,0,1-1.1-.486,4.761,4.761,0,0,1-.864-.606l.864-1.368a1.243,1.243,0,0,1,.372-.378,1.033,1.033,0,0,1,.564-.138,1.174,1.174,0,0,1,.582.144l.558.312a4.651,4.651,0,0,0,.7.312,3.044,3.044,0,0,0,1.014.144,2.576,2.576,0,0,0,.732-.09,1.29,1.29,0,0,0,.48-.246A.982.982,0,0,0,182.364-3a.978.978,0,0,0,.084-.4.808.808,0,0,0-.252-.612,2.2,2.2,0,0,0-.66-.414,8.045,8.045,0,0,0-.93-.324q-.522-.15-1.062-.342a8.531,8.531,0,0,1-1.062-.462,3.654,3.654,0,0,1-.93-.684,3.178,3.178,0,0,1-.66-1.014A3.745,3.745,0,0,1,176.64-8.7a3.783,3.783,0,0,1,.306-1.506,3.5,3.5,0,0,1,.918-1.254,4.507,4.507,0,0,1,1.536-.858,6.641,6.641,0,0,1,2.16-.318,6.944,6.944,0,0,1,1.3.12,6.654,6.654,0,0,1,1.182.336,5.661,5.661,0,0,1,1.008.51,4.841,4.841,0,0,1,.8.642Z" transform="translate(1296.977 815.383)" fill="#394049"/>
      <path id="Path_134" data-name="Path 134" d="M-84.024.06a10.455,10.455,0,0,1-2.634-.8,7.839,7.839,0,0,1-2.118-1.374l1.152-1.668a1.165,1.165,0,0,1,.39-.342,1.051,1.051,0,0,1,.522-.138,1.309,1.309,0,0,1,.588.15q.3.15.654.366t.774.438a4.571,4.571,0,0,0,.96.366l.444-4.536q-.864-.24-1.716-.564a5.593,5.593,0,0,1-1.536-.876,4.17,4.17,0,0,1-1.11-1.4,4.757,4.757,0,0,1-.426-2.136A4.666,4.666,0,0,1-87.7-14.3a4.983,4.983,0,0,1,1.122-1.62,5.882,5.882,0,0,1,1.818-1.182,7.2,7.2,0,0,1,2.472-.534l.132-1.332a1.007,1.007,0,0,1,.3-.606.914.914,0,0,1,.684-.27H-79.8l-.24,2.364a7.083,7.083,0,0,1,2.232.774,8.248,8.248,0,0,1,1.584,1.146l-.912,1.332a1.571,1.571,0,0,1-.414.438.886.886,0,0,1-.5.138,1.324,1.324,0,0,1-.432-.084q-.24-.084-.528-.21l-.618-.27a5.79,5.79,0,0,0-.7-.252l-.42,4.26q.576.168,1.152.366a10.084,10.084,0,0,1,1.11.456,6.486,6.486,0,0,1,1,.594,3.774,3.774,0,0,1,.8.792,3.558,3.558,0,0,1,.534,1.05A4.383,4.383,0,0,1-75.96-5.6a5.934,5.934,0,0,1-.384,2.142,5.184,5.184,0,0,1-1.128,1.77A5.844,5.844,0,0,1-79.3-.438a7.38,7.38,0,0,1-2.472.594l-.144,1.5a1.007,1.007,0,0,1-.3.606.914.914,0,0,1-.684.27h-1.368Zm4.536-5.112a1.421,1.421,0,0,0-.438-1.092,3.535,3.535,0,0,0-1.158-.684l-.384,3.96A2.068,2.068,0,0,0-79.488-5.052Zm-5.088-7.764a1.527,1.527,0,0,0,.45,1.146,3.665,3.665,0,0,0,1.182.738l.36-3.624a3.851,3.851,0,0,0-.93.246,1.989,1.989,0,0,0-.612.39,1.416,1.416,0,0,0-.342.51A1.647,1.647,0,0,0-84.576-12.816Zm16.536-4.86a6.786,6.786,0,0,1,2.334.378,5.225,5.225,0,0,1,1.77,1.05,4.521,4.521,0,0,1,1.122,1.6,5.239,5.239,0,0,1,.39,2.046,5.623,5.623,0,0,1-.27,1.776,7,7,0,0,1-.738,1.554,10.857,10.857,0,0,1-1.086,1.428q-.618.69-1.314,1.4l-3.42,3.5a12.461,12.461,0,0,1,1.3-.306,6.916,6.916,0,0,1,1.206-.114h3.264a1.321,1.321,0,0,1,.948.33,1.143,1.143,0,0,1,.348.87V0H-74.472V-1.2a2.182,2.182,0,0,1,.144-.744,1.8,1.8,0,0,1,.5-.72l5.04-5.076a16.711,16.711,0,0,0,1.128-1.236,7.662,7.662,0,0,0,.792-1.158,5.277,5.277,0,0,0,.468-1.14,4.55,4.55,0,0,0,.156-1.206,2.329,2.329,0,0,0-.5-1.6,1.932,1.932,0,0,0-1.518-.558,2.343,2.343,0,0,0-.768.12,2.307,2.307,0,0,0-.624.324,2.158,2.158,0,0,0-.474.48,2.534,2.534,0,0,0-.318.6,1.733,1.733,0,0,1-.486.78,1.225,1.225,0,0,1-.8.24q-.12,0-.258-.012t-.282-.036l-1.968-.348a6.565,6.565,0,0,1,.738-2.28,5.487,5.487,0,0,1,1.356-1.62,5.5,5.5,0,0,1,1.854-.966A7.665,7.665,0,0,1-68.04-17.676ZM-47.9-8.748A14.218,14.218,0,0,1-48.4-4.776a8.152,8.152,0,0,1-1.362,2.784A5.493,5.493,0,0,1-51.822-.348a6.2,6.2,0,0,1-2.586.54,6.12,6.12,0,0,1-2.574-.54,5.469,5.469,0,0,1-2.046-1.644,8.141,8.141,0,0,1-1.35-2.784,14.384,14.384,0,0,1-.486-3.972,14.384,14.384,0,0,1,.486-3.972,8.141,8.141,0,0,1,1.35-2.784,5.414,5.414,0,0,1,2.046-1.638,6.179,6.179,0,0,1,2.574-.534,6.261,6.261,0,0,1,2.586.534A5.437,5.437,0,0,1-49.758-15.5,8.152,8.152,0,0,1-48.4-12.72,14.218,14.218,0,0,1-47.9-8.748Zm-3.84,0a15.847,15.847,0,0,0-.228-2.97,6.088,6.088,0,0,0-.606-1.818,2.2,2.2,0,0,0-.858-.906,2.111,2.111,0,0,0-.972-.246,2.075,2.075,0,0,0-.966.246,2.144,2.144,0,0,0-.84.906,6.247,6.247,0,0,0-.588,1.818,16.266,16.266,0,0,0-.222,2.97A16.247,16.247,0,0,0-56.8-5.772a6.33,6.33,0,0,0,.588,1.818,2.139,2.139,0,0,0,.84.912,2.075,2.075,0,0,0,.966.246,2.111,2.111,0,0,0,.972-.246,2.192,2.192,0,0,0,.858-.912,6.169,6.169,0,0,0,.606-1.818A15.828,15.828,0,0,0-51.744-8.748Zm17.76,0a14.218,14.218,0,0,1-.492,3.972,8.152,8.152,0,0,1-1.362,2.784A5.493,5.493,0,0,1-37.9-.348a6.2,6.2,0,0,1-2.586.54,6.12,6.12,0,0,1-2.574-.54,5.469,5.469,0,0,1-2.046-1.644,8.141,8.141,0,0,1-1.35-2.784,14.384,14.384,0,0,1-.486-3.972,14.384,14.384,0,0,1,.486-3.972,8.141,8.141,0,0,1,1.35-2.784,5.414,5.414,0,0,1,2.046-1.638,6.179,6.179,0,0,1,2.574-.534,6.261,6.261,0,0,1,2.586.534A5.437,5.437,0,0,1-35.838-15.5a8.152,8.152,0,0,1,1.362,2.784A14.218,14.218,0,0,1-33.984-8.748Zm-3.84,0a15.847,15.847,0,0,0-.228-2.97,6.088,6.088,0,0,0-.606-1.818,2.2,2.2,0,0,0-.858-.906,2.111,2.111,0,0,0-.972-.246,2.075,2.075,0,0,0-.966.246,2.144,2.144,0,0,0-.84.906,6.247,6.247,0,0,0-.588,1.818,16.266,16.266,0,0,0-.222,2.97,16.247,16.247,0,0,0,.222,2.976,6.33,6.33,0,0,0,.588,1.818,2.139,2.139,0,0,0,.84.912,2.075,2.075,0,0,0,.966.246,2.111,2.111,0,0,0,.972-.246,2.192,2.192,0,0,0,.858-.912,6.169,6.169,0,0,0,.606-1.818A15.828,15.828,0,0,0-37.824-8.748Zm5.04,6.864a1.992,1.992,0,0,1,.162-.8,2.032,2.032,0,0,1,.444-.648,2.118,2.118,0,0,1,.666-.438,2.139,2.139,0,0,1,.84-.162,2.108,2.108,0,0,1,.828.162,2.193,2.193,0,0,1,.672.438,1.986,1.986,0,0,1,.45.648,1.992,1.992,0,0,1,.162.8,2.034,2.034,0,0,1-.162.81,1.97,1.97,0,0,1-.45.654,2.107,2.107,0,0,1-.672.432,2.179,2.179,0,0,1-.828.156,2.211,2.211,0,0,1-.84-.156,2.037,2.037,0,0,1-.666-.432,2.015,2.015,0,0,1-.444-.654A2.034,2.034,0,0,1-32.784-1.884ZM-14.4-8.748a14.218,14.218,0,0,1-.492,3.972,8.152,8.152,0,0,1-1.362,2.784A5.493,5.493,0,0,1-18.318-.348,6.2,6.2,0,0,1-20.9.192a6.12,6.12,0,0,1-2.574-.54,5.469,5.469,0,0,1-2.046-1.644,8.141,8.141,0,0,1-1.35-2.784,14.384,14.384,0,0,1-.486-3.972,14.384,14.384,0,0,1,.486-3.972,8.141,8.141,0,0,1,1.35-2.784,5.414,5.414,0,0,1,2.046-1.638,6.179,6.179,0,0,1,2.574-.534,6.261,6.261,0,0,1,2.586.534A5.437,5.437,0,0,1-16.254-15.5a8.152,8.152,0,0,1,1.362,2.784A14.218,14.218,0,0,1-14.4-8.748Zm-3.84,0a15.847,15.847,0,0,0-.228-2.97,6.088,6.088,0,0,0-.606-1.818,2.2,2.2,0,0,0-.858-.906,2.111,2.111,0,0,0-.972-.246,2.075,2.075,0,0,0-.966.246,2.144,2.144,0,0,0-.84.906,6.247,6.247,0,0,0-.588,1.818,16.266,16.266,0,0,0-.222,2.97A16.247,16.247,0,0,0-23.3-5.772a6.33,6.33,0,0,0,.588,1.818,2.139,2.139,0,0,0,.84.912A2.075,2.075,0,0,0-20.9-2.8a2.111,2.111,0,0,0,.972-.246,2.192,2.192,0,0,0,.858-.912,6.169,6.169,0,0,0,.606-1.818A15.829,15.829,0,0,0-18.24-8.748ZM-6.7-17.676a6.786,6.786,0,0,1,2.334.378,5.225,5.225,0,0,1,1.77,1.05,4.521,4.521,0,0,1,1.122,1.6A5.239,5.239,0,0,1-1.08-12.6a5.623,5.623,0,0,1-.27,1.776A7,7,0,0,1-2.088-9.27,10.857,10.857,0,0,1-3.174-7.842q-.618.69-1.314,1.4l-3.42,3.5a12.462,12.462,0,0,1,1.3-.306A6.916,6.916,0,0,1-5.4-3.36h3.264a1.321,1.321,0,0,1,.948.33,1.143,1.143,0,0,1,.348.87V0H-13.128V-1.2a2.182,2.182,0,0,1,.144-.744,1.8,1.8,0,0,1,.5-.72L-7.44-7.74A16.711,16.711,0,0,0-6.312-8.976a7.662,7.662,0,0,0,.792-1.158,5.277,5.277,0,0,0,.468-1.14A4.55,4.55,0,0,0-4.9-12.48a2.329,2.329,0,0,0-.5-1.6,1.932,1.932,0,0,0-1.518-.558,2.343,2.343,0,0,0-.768.12A2.307,2.307,0,0,0-8.3-14.2a2.158,2.158,0,0,0-.474.48,2.534,2.534,0,0,0-.318.6,1.733,1.733,0,0,1-.486.78,1.225,1.225,0,0,1-.8.24q-.12,0-.258-.012t-.282-.036l-1.968-.348a6.565,6.565,0,0,1,.738-2.28,5.487,5.487,0,0,1,1.356-1.62,5.5,5.5,0,0,1,1.854-.966A7.665,7.665,0,0,1-6.7-17.676Z" transform="translate(1876.977 917.383)" fill="#394049"/>
      <path id="Path_137" data-name="Path 137" d="M-84.024.06a10.455,10.455,0,0,1-2.634-.8,7.839,7.839,0,0,1-2.118-1.374l1.152-1.668a1.165,1.165,0,0,1,.39-.342,1.051,1.051,0,0,1,.522-.138,1.309,1.309,0,0,1,.588.15q.3.15.654.366t.774.438a4.571,4.571,0,0,0,.96.366l.444-4.536q-.864-.24-1.716-.564a5.593,5.593,0,0,1-1.536-.876,4.17,4.17,0,0,1-1.11-1.4,4.757,4.757,0,0,1-.426-2.136A4.666,4.666,0,0,1-87.7-14.3a4.983,4.983,0,0,1,1.122-1.62,5.882,5.882,0,0,1,1.818-1.182,7.2,7.2,0,0,1,2.472-.534l.132-1.332a1.007,1.007,0,0,1,.3-.606.914.914,0,0,1,.684-.27H-79.8l-.24,2.364a7.083,7.083,0,0,1,2.232.774,8.248,8.248,0,0,1,1.584,1.146l-.912,1.332a1.571,1.571,0,0,1-.414.438.886.886,0,0,1-.5.138,1.324,1.324,0,0,1-.432-.084q-.24-.084-.528-.21l-.618-.27a5.79,5.79,0,0,0-.7-.252l-.42,4.26q.576.168,1.152.366a10.084,10.084,0,0,1,1.11.456,6.486,6.486,0,0,1,1,.594,3.774,3.774,0,0,1,.8.792,3.558,3.558,0,0,1,.534,1.05A4.383,4.383,0,0,1-75.96-5.6a5.934,5.934,0,0,1-.384,2.142,5.184,5.184,0,0,1-1.128,1.77A5.844,5.844,0,0,1-79.3-.438a7.38,7.38,0,0,1-2.472.594l-.144,1.5a1.007,1.007,0,0,1-.3.606.914.914,0,0,1-.684.27h-1.368Zm4.536-5.112a1.421,1.421,0,0,0-.438-1.092,3.535,3.535,0,0,0-1.158-.684l-.384,3.96A2.068,2.068,0,0,0-79.488-5.052Zm-5.088-7.764a1.527,1.527,0,0,0,.45,1.146,3.665,3.665,0,0,0,1.182.738l.36-3.624a3.851,3.851,0,0,0-.93.246,1.989,1.989,0,0,0-.612.39,1.416,1.416,0,0,0-.342.51A1.647,1.647,0,0,0-84.576-12.816ZM-68.3.192A8.245,8.245,0,0,1-70.848-.18a5.926,5.926,0,0,1-1.974-1.05,4.666,4.666,0,0,1-1.272-1.638A4.971,4.971,0,0,1-74.544-5a5.355,5.355,0,0,1,.162-1.338,3.659,3.659,0,0,1,.516-1.152,3.789,3.789,0,0,1,.912-.93,5.139,5.139,0,0,1,1.35-.684,3.855,3.855,0,0,1-1.782-1.5,4.362,4.362,0,0,1-.582-2.3,4.29,4.29,0,0,1,.42-1.89,4.516,4.516,0,0,1,1.176-1.506,5.7,5.7,0,0,1,1.794-1,6.8,6.8,0,0,1,2.274-.366,6.8,6.8,0,0,1,2.274.366,5.7,5.7,0,0,1,1.794,1A4.516,4.516,0,0,1-63.06-14.8a4.29,4.29,0,0,1,.42,1.89,4.327,4.327,0,0,1-.588,2.3A3.9,3.9,0,0,1-65-9.108a5.182,5.182,0,0,1,1.338.684,3.789,3.789,0,0,1,.912.93,3.764,3.764,0,0,1,.522,1.152A5.174,5.174,0,0,1-62.064-5a4.971,4.971,0,0,1-.45,2.136A4.666,4.666,0,0,1-63.786-1.23,5.926,5.926,0,0,1-65.76-.18,8.245,8.245,0,0,1-68.3.192Zm0-2.808a2.772,2.772,0,0,0,1.08-.192,2.053,2.053,0,0,0,.75-.522,2.066,2.066,0,0,0,.432-.78,3.279,3.279,0,0,0,.138-.966,4.152,4.152,0,0,0-.12-1.032,2,2,0,0,0-.4-.8,1.831,1.831,0,0,0-.738-.516A3.082,3.082,0,0,0-68.3-7.608a3.082,3.082,0,0,0-1.146.186,1.831,1.831,0,0,0-.738.516,2,2,0,0,0-.4.8,4.152,4.152,0,0,0-.12,1.032,3.279,3.279,0,0,0,.138.966,2.066,2.066,0,0,0,.432.78,2.063,2.063,0,0,0,.744.522A2.761,2.761,0,0,0-68.3-2.616Zm0-7.824a2.224,2.224,0,0,0,1.02-.2,1.649,1.649,0,0,0,.624-.54,2.047,2.047,0,0,0,.312-.768,4.642,4.642,0,0,0,.084-.888,2.911,2.911,0,0,0-.108-.792,1.8,1.8,0,0,0-.354-.678,1.793,1.793,0,0,0-.636-.474,2.236,2.236,0,0,0-.942-.18,2.227,2.227,0,0,0-.948.18,1.806,1.806,0,0,0-.63.474,1.8,1.8,0,0,0-.354.678,2.911,2.911,0,0,0-.108.792,4.642,4.642,0,0,0,.084.888,2.047,2.047,0,0,0,.312.768,1.649,1.649,0,0,0,.624.54A2.224,2.224,0,0,0-68.3-10.44Zm14.184-7.236a6.786,6.786,0,0,1,2.334.378,5.225,5.225,0,0,1,1.77,1.05,4.521,4.521,0,0,1,1.122,1.6A5.239,5.239,0,0,1-48.5-12.6a5.623,5.623,0,0,1-.27,1.776,7,7,0,0,1-.738,1.554A10.857,10.857,0,0,1-50.6-7.842q-.618.69-1.314,1.4l-3.42,3.5a12.462,12.462,0,0,1,1.3-.306,6.916,6.916,0,0,1,1.206-.114h3.264a1.321,1.321,0,0,1,.948.33,1.143,1.143,0,0,1,.348.87V0H-60.552V-1.2a2.182,2.182,0,0,1,.144-.744,1.8,1.8,0,0,1,.5-.72l5.04-5.076a16.711,16.711,0,0,0,1.128-1.236,7.662,7.662,0,0,0,.792-1.158,5.276,5.276,0,0,0,.468-1.14,4.55,4.55,0,0,0,.156-1.206,2.329,2.329,0,0,0-.5-1.6,1.932,1.932,0,0,0-1.518-.558,2.343,2.343,0,0,0-.768.12,2.307,2.307,0,0,0-.624.324,2.158,2.158,0,0,0-.474.48,2.534,2.534,0,0,0-.318.6,1.733,1.733,0,0,1-.486.78,1.225,1.225,0,0,1-.8.24q-.12,0-.258-.012t-.282-.036l-1.968-.348a6.565,6.565,0,0,1,.738-2.28,5.487,5.487,0,0,1,1.356-1.62,5.5,5.5,0,0,1,1.854-.966A7.665,7.665,0,0,1-54.12-17.676Zm13.92,0a6.786,6.786,0,0,1,2.334.378,5.225,5.225,0,0,1,1.77,1.05,4.521,4.521,0,0,1,1.122,1.6,5.239,5.239,0,0,1,.39,2.046,5.623,5.623,0,0,1-.27,1.776,7,7,0,0,1-.738,1.554,10.857,10.857,0,0,1-1.086,1.428q-.618.69-1.314,1.4l-3.42,3.5a12.462,12.462,0,0,1,1.3-.306A6.916,6.916,0,0,1-38.9-3.36h3.264a1.321,1.321,0,0,1,.948.33,1.143,1.143,0,0,1,.348.87V0H-46.632V-1.2a2.182,2.182,0,0,1,.144-.744,1.8,1.8,0,0,1,.5-.72l5.04-5.076a16.711,16.711,0,0,0,1.128-1.236,7.662,7.662,0,0,0,.792-1.158,5.276,5.276,0,0,0,.468-1.14A4.55,4.55,0,0,0-38.4-12.48a2.329,2.329,0,0,0-.5-1.6,1.932,1.932,0,0,0-1.518-.558,2.343,2.343,0,0,0-.768.12,2.307,2.307,0,0,0-.624.324,2.158,2.158,0,0,0-.474.48,2.534,2.534,0,0,0-.318.6,1.733,1.733,0,0,1-.486.78,1.225,1.225,0,0,1-.8.24q-.12,0-.258-.012t-.282-.036l-1.968-.348a6.565,6.565,0,0,1,.738-2.28,5.487,5.487,0,0,1,1.356-1.62,5.5,5.5,0,0,1,1.854-.966A7.665,7.665,0,0,1-40.2-17.676Zm7.416,15.792a1.992,1.992,0,0,1,.162-.8,2.032,2.032,0,0,1,.444-.648,2.118,2.118,0,0,1,.666-.438,2.139,2.139,0,0,1,.84-.162,2.108,2.108,0,0,1,.828.162,2.193,2.193,0,0,1,.672.438,1.986,1.986,0,0,1,.45.648,1.992,1.992,0,0,1,.162.8,2.034,2.034,0,0,1-.162.81,1.97,1.97,0,0,1-.45.654,2.107,2.107,0,0,1-.672.432,2.179,2.179,0,0,1-.828.156,2.211,2.211,0,0,1-.84-.156,2.037,2.037,0,0,1-.666-.432,2.015,2.015,0,0,1-.444-.654A2.034,2.034,0,0,1-32.784-1.884ZM-14.4-8.748a14.218,14.218,0,0,1-.492,3.972,8.152,8.152,0,0,1-1.362,2.784A5.493,5.493,0,0,1-18.318-.348,6.2,6.2,0,0,1-20.9.192a6.12,6.12,0,0,1-2.574-.54,5.469,5.469,0,0,1-2.046-1.644,8.141,8.141,0,0,1-1.35-2.784,14.384,14.384,0,0,1-.486-3.972,14.384,14.384,0,0,1,.486-3.972,8.141,8.141,0,0,1,1.35-2.784,5.414,5.414,0,0,1,2.046-1.638,6.179,6.179,0,0,1,2.574-.534,6.261,6.261,0,0,1,2.586.534A5.437,5.437,0,0,1-16.254-15.5a8.152,8.152,0,0,1,1.362,2.784A14.218,14.218,0,0,1-14.4-8.748Zm-3.84,0a15.847,15.847,0,0,0-.228-2.97,6.088,6.088,0,0,0-.606-1.818,2.2,2.2,0,0,0-.858-.906,2.111,2.111,0,0,0-.972-.246,2.075,2.075,0,0,0-.966.246,2.144,2.144,0,0,0-.84.906,6.247,6.247,0,0,0-.588,1.818,16.266,16.266,0,0,0-.222,2.97A16.247,16.247,0,0,0-23.3-5.772a6.33,6.33,0,0,0,.588,1.818,2.139,2.139,0,0,0,.84.912A2.075,2.075,0,0,0-20.9-2.8a2.111,2.111,0,0,0,.972-.246,2.192,2.192,0,0,0,.858-.912,6.169,6.169,0,0,0,.606-1.818A15.829,15.829,0,0,0-18.24-8.748ZM-6.7-17.676a6.786,6.786,0,0,1,2.334.378,5.225,5.225,0,0,1,1.77,1.05,4.521,4.521,0,0,1,1.122,1.6A5.239,5.239,0,0,1-1.08-12.6a5.623,5.623,0,0,1-.27,1.776A7,7,0,0,1-2.088-9.27,10.857,10.857,0,0,1-3.174-7.842q-.618.69-1.314,1.4l-3.42,3.5a12.462,12.462,0,0,1,1.3-.306A6.916,6.916,0,0,1-5.4-3.36h3.264a1.321,1.321,0,0,1,.948.33,1.143,1.143,0,0,1,.348.87V0H-13.128V-1.2a2.182,2.182,0,0,1,.144-.744,1.8,1.8,0,0,1,.5-.72L-7.44-7.74A16.711,16.711,0,0,0-6.312-8.976a7.662,7.662,0,0,0,.792-1.158,5.277,5.277,0,0,0,.468-1.14A4.55,4.55,0,0,0-4.9-12.48a2.329,2.329,0,0,0-.5-1.6,1.932,1.932,0,0,0-1.518-.558,2.343,2.343,0,0,0-.768.12A2.307,2.307,0,0,0-8.3-14.2a2.158,2.158,0,0,0-.474.48,2.534,2.534,0,0,0-.318.6,1.733,1.733,0,0,1-.486.78,1.225,1.225,0,0,1-.8.24q-.12,0-.258-.012t-.282-.036l-1.968-.348a6.565,6.565,0,0,1,.738-2.28,5.487,5.487,0,0,1,1.356-1.62,5.5,5.5,0,0,1,1.854-.966A7.665,7.665,0,0,1-6.7-17.676Z" transform="translate(1876.977 815.383)" fill="#394049"/>
      <g id="Mask_Group_1" data-name="Mask Group 1" transform="translate(1221.082 879.185)" clip-path="url(#clip-path)">
        <g id="account_circle-24px" transform="translate(0.577 0.253)">
          <path id="Path_5" data-name="Path 5" d="M0,0H57.744V57.744H0Z" fill="none"/>
          <path id="Path_6" data-name="Path 6" d="M31.143,7.083A24.06,24.06,0,1,0,55.2,31.143,24.069,24.069,0,0,0,31.143,7.083Zm0,7.218a7.218,7.218,0,1,1-7.218,7.218A7.208,7.208,0,0,1,31.143,14.3Zm0,34.165a17.324,17.324,0,0,1-14.436-7.747c.072-4.788,9.624-7.41,14.436-7.41,4.788,0,14.364,2.623,14.436,7.41A17.324,17.324,0,0,1,31.143,48.466Z" transform="translate(-2.271 -2.271)" fill="#29cc9e"/>
        </g>
      </g>
      <g id="Mask_Group_4" data-name="Mask Group 4" transform="translate(1221.082 776.914)" clip-path="url(#clip-path-2)">
        <g id="account_circle-24px-2" data-name="account_circle-24px" transform="translate(0.577 0.102)">
          <path id="Path_48" data-name="Path 48" d="M0,0H57.744V57.744H0Z" fill="none"/>
          <path id="Path_49" data-name="Path 49" d="M31.143,7.083A24.06,24.06,0,1,0,55.2,31.143,24.069,24.069,0,0,0,31.143,7.083Zm0,7.218a7.218,7.218,0,1,1-7.218,7.218A7.208,7.208,0,0,1,31.143,14.3Zm0,34.165a17.324,17.324,0,0,1-14.436-7.747c.072-4.788,9.624-7.41,14.436-7.41,4.788,0,14.364,2.623,14.436,7.41A17.324,17.324,0,0,1,31.143,48.466Z" transform="translate(-2.271 -2.271)" fill="#29cc9e"/>
        </g>
      </g>
      <g id="home-24px" transform="translate(1219.693 480.296)">
        <path id="Path_1" data-name="Path 1" d="M0,0H47.969V47.969H0Z" transform="translate(0 0)" fill="none"/>
        <path id="Path_2" data-name="Path 2" d="M17.175,34.734V24.709h7.987V34.734a2.007,2.007,0,0,0,2,2.005h5.99a2.007,2.007,0,0,0,2-2.005V20.7h3.395a1,1,0,0,0,.659-1.744L22.506,3.856a2.006,2.006,0,0,0-2.676,0L3.137,18.954A1,1,0,0,0,3.8,20.7H7.191V34.734a2.007,2.007,0,0,0,2,2.005h5.99A2.007,2.007,0,0,0,17.175,34.734Z" transform="translate(2.816 3.362)" fill="#afb5bd"/>
      </g>
      <rect id="Rectangle_113" data-name="Rectangle 113" width="157" height="18" rx="4" transform="translate(1286.977 491.383)" fill="#afb5bd"/>
      <rect id="Rectangle_108" data-name="Rectangle 108" width="111" height="11" rx="4" transform="translate(1286.977 515.383)" fill="#afb5bd"/>
      <rect id="Rectangle_366" data-name="Rectangle 366" width="102" height="7" rx="3.5" transform="translate(1286.977 533.383)" fill="#afb5bd"/>
      <path id="Path_111" data-name="Path 111" d="M4.8,0H84.817a4.8,4.8,0,0,1,0,9.6H4.8A4.8,4.8,0,0,1,4.8,0Z" transform="translate(1304.626 615.243)" fill="#fff"/>
      <rect id="Rectangle_365" data-name="Rectangle 365" width="36" height="7" rx="3.5" transform="translate(1286.977 552.383)" fill="#afb5bd"/>
      <g transform="matrix(1, 0, 0, 1, 922.98, 320.38)" filter="url(#Rectangle_95)">
        <rect id="Rectangle_95-2" data-name="Rectangle 95" width="434" height="233" rx="8" transform="translate(631 84)" fill="#2272e2"/>
      </g>
      <rect id="Rectangle_369" data-name="Rectangle 369" width="190" height="6" rx="3" transform="translate(1670.977 517.383)" fill="#fff"/>
      <rect id="Rectangle_370" data-name="Rectangle 370" width="140" height="6" rx="3" transform="translate(1670.977 535.383)" fill="#fff"/>
      <rect id="Rectangle_396" data-name="Rectangle 396" width="154" height="7" rx="3.5" transform="translate(1670.977 551.383)" fill="#fff"/>
      <path id="Path_132" data-name="Path 132" d="M5.661-2.553V3.788H1.26V-15.183H7.952a11.037,11.037,0,0,1,3.444.475,6.609,6.609,0,0,1,2.37,1.309,5.1,5.1,0,0,1,1.374,1.966,6.666,6.666,0,0,1,.443,2.448,7.2,7.2,0,0,1-.456,2.6A5.226,5.226,0,0,1,13.733-4.35a6.565,6.565,0,0,1-2.376,1.322,10.892,10.892,0,0,1-3.4.475Zm0-3.32H7.952a3.229,3.229,0,0,0,2.474-.82,3.257,3.257,0,0,0,.755-2.292,3.427,3.427,0,0,0-.2-1.185,2.411,2.411,0,0,0-.592-.918,2.663,2.663,0,0,0-1-.592,4.435,4.435,0,0,0-1.439-.208H5.661ZM26.546,3.788a1.891,1.891,0,0,1-.866-.156,1.194,1.194,0,0,1-.488-.651L24.9,2.239q-.508.43-.977.755a6.189,6.189,0,0,1-.97.553,4.79,4.79,0,0,1-1.068.339A6.571,6.571,0,0,1,20.634,4a5.509,5.509,0,0,1-1.68-.241,3.5,3.5,0,0,1-1.283-.71,3.12,3.12,0,0,1-.814-1.165A4.2,4.2,0,0,1,16.572.273,3.372,3.372,0,0,1,16.936-1.2,3.63,3.63,0,0,1,18.2-2.572a8.027,8.027,0,0,1,2.422-1.035,16.25,16.25,0,0,1,3.841-.469v-.573a2.476,2.476,0,0,0-.488-1.712,1.8,1.8,0,0,0-1.387-.527,3.679,3.679,0,0,0-1.172.156,5.268,5.268,0,0,0-.814.352q-.358.2-.7.352a1.913,1.913,0,0,1-.807.156,1.22,1.22,0,0,1-.71-.2,1.5,1.5,0,0,1-.462-.5L17.2-7.839a8.208,8.208,0,0,1,2.715-1.608,9.517,9.517,0,0,1,3.2-.527,5.846,5.846,0,0,1,2.207.4,4.749,4.749,0,0,1,1.667,1.107A4.836,4.836,0,0,1,28.03-6.784a6.06,6.06,0,0,1,.365,2.135V3.788ZM21.91,1.327a3.2,3.2,0,0,0,1.367-.273A4.165,4.165,0,0,0,24.462.168V-1.707A13.4,13.4,0,0,0,22.47-1.5a4.839,4.839,0,0,0-1.237.391,1.5,1.5,0,0,0-.631.534,1.263,1.263,0,0,0-.176.651,1.131,1.131,0,0,0,.378.97A1.842,1.842,0,0,0,21.91,1.327ZM36.259,7.291a1.444,1.444,0,0,1-.443.592,1.441,1.441,0,0,1-.833.189H31.962l2.6-5.469L29.176-9.714h3.568a1.139,1.139,0,0,1,.729.208,1.118,1.118,0,0,1,.365.495l2.213,5.82a12.825,12.825,0,0,1,.508,1.615q.13-.417.286-.82t.3-.82l2.005-5.794a.988.988,0,0,1,.41-.5,1.172,1.172,0,0,1,.658-.2h3.255Zm8.88-3.5v-13.5h2.5a1.114,1.114,0,0,1,.631.169.9.9,0,0,1,.358.508l.221.729a7.49,7.49,0,0,1,.7-.645,4.521,4.521,0,0,1,.788-.508,4.384,4.384,0,0,1,.911-.339,4.371,4.371,0,0,1,1.074-.124,3.169,3.169,0,0,1,2.025.631A3.935,3.935,0,0,1,55.568-7.6a3.992,3.992,0,0,1,.827-1.068,4.44,4.44,0,0,1,1.055-.716,5.124,5.124,0,0,1,1.2-.4,6.208,6.208,0,0,1,1.256-.13,5.71,5.71,0,0,1,2.057.345,3.917,3.917,0,0,1,1.5,1,4.329,4.329,0,0,1,.918,1.615A6.97,6.97,0,0,1,64.7-4.792v8.58H60.659v-8.58q0-2.1-1.8-2.1a1.845,1.845,0,0,0-1.361.54,2.106,2.106,0,0,0-.54,1.556v8.58H52.925v-8.58a2.309,2.309,0,0,0-.456-1.628,1.788,1.788,0,0,0-1.341-.469,2.259,2.259,0,0,0-1.035.247,3.762,3.762,0,0,0-.918.664V3.788Zm28.2-13.71a6.952,6.952,0,0,1,2.454.417,5.335,5.335,0,0,1,1.914,1.211,5.527,5.527,0,0,1,1.25,1.947,7.143,7.143,0,0,1,.449,2.611A5.7,5.7,0,0,1,79.369-3a1.175,1.175,0,0,1-.143.456.545.545,0,0,1-.28.234,1.311,1.311,0,0,1-.449.065H70.711A3.806,3.806,0,0,0,71.739.214a3.06,3.06,0,0,0,2.148.762A3.846,3.846,0,0,0,75.1.806,6.109,6.109,0,0,0,76,.429q.4-.208.729-.378a1.514,1.514,0,0,1,.7-.169.834.834,0,0,1,.729.352L79.33,1.679a6,6,0,0,1-1.348,1.165,7,7,0,0,1-1.484.7,8.046,8.046,0,0,1-1.523.352,11.432,11.432,0,0,1-1.452.1,7.58,7.58,0,0,1-2.663-.462,6.118,6.118,0,0,1-2.174-1.374A6.482,6.482,0,0,1,67.215-.105a8.465,8.465,0,0,1-.54-3.151,7.131,7.131,0,0,1,.462-2.565,6.318,6.318,0,0,1,1.328-2.122,6.323,6.323,0,0,1,2.1-1.445A6.919,6.919,0,0,1,73.341-9.922Zm.078,2.786a2.432,2.432,0,0,0-1.81.658,3.426,3.426,0,0,0-.859,1.894h5.039a3.563,3.563,0,0,0-.124-.937,2.273,2.273,0,0,0-.4-.814,2.054,2.054,0,0,0-.736-.579A2.516,2.516,0,0,0,73.419-7.136ZM81.726,3.788v-13.5h2.5a1.114,1.114,0,0,1,.631.169.9.9,0,0,1,.358.508l.234.781a9.807,9.807,0,0,1,.807-.677,4.728,4.728,0,0,1,.892-.527A5.294,5.294,0,0,1,88.177-9.8a5.519,5.519,0,0,1,1.2-.124,4.727,4.727,0,0,1,1.96.384A4.066,4.066,0,0,1,92.78-8.471a4.608,4.608,0,0,1,.885,1.628,6.749,6.749,0,0,1,.3,2.051v8.58H89.929v-8.58a2.361,2.361,0,0,0-.456-1.543,1.637,1.637,0,0,0-1.341-.553,2.809,2.809,0,0,0-1.25.286,4.861,4.861,0,0,0-1.12.768V3.788ZM101.569,4a4.76,4.76,0,0,1-1.7-.28,3.375,3.375,0,0,1-1.237-.794,3.386,3.386,0,0,1-.762-1.243,4.814,4.814,0,0,1-.26-1.628V-6.928H96.465a.764.764,0,0,1-.534-.2.761.761,0,0,1-.221-.592V-9.3l2.148-.417.794-3.294a.8.8,0,0,1,.885-.625h2.109v3.945h3.281v2.76h-3.281V-.222a1.262,1.262,0,0,0,.228.775.77.77,0,0,0,.658.306A1.292,1.292,0,0,0,102.9.813a1.478,1.478,0,0,0,.26-.1q.111-.059.208-.1A.534.534,0,0,1,103.6.559a.47.47,0,0,1,.293.085,1.048,1.048,0,0,1,.228.267l1.224,1.914a5.57,5.57,0,0,1-1.758.879A6.985,6.985,0,0,1,101.569,4Zm20.182-.208a1.114,1.114,0,0,1-.631-.169.9.9,0,0,1-.358-.508l-.312-1.029a7.915,7.915,0,0,1-.846.781,5.323,5.323,0,0,1-.957.605,5.061,5.061,0,0,1-1.107.391A5.7,5.7,0,0,1,116.256,4a4.159,4.159,0,0,1-1.953-.469,4.5,4.5,0,0,1-1.549-1.354A6.833,6.833,0,0,1,111.731.006a10.529,10.529,0,0,1-.371-2.923,9.117,9.117,0,0,1,.417-2.806,6.879,6.879,0,0,1,1.178-2.24,5.472,5.472,0,0,1,1.829-1.478,5.2,5.2,0,0,1,2.357-.534,4.524,4.524,0,0,1,1.764.306,5.093,5.093,0,0,1,1.309.8V-15.7h4.036V3.788ZM117.662.9a3.488,3.488,0,0,0,.8-.085,2.815,2.815,0,0,0,.658-.241,2.869,2.869,0,0,0,.566-.391,4.9,4.9,0,0,0,.527-.547V-6.094a2.669,2.669,0,0,0-1-.71,3.088,3.088,0,0,0-1.113-.2,2.378,2.378,0,0,0-1.029.221,2.1,2.1,0,0,0-.814.71,3.779,3.779,0,0,0-.54,1.269,7.886,7.886,0,0,0-.2,1.888,8.745,8.745,0,0,0,.156,1.8,3.7,3.7,0,0,0,.436,1.178A1.693,1.693,0,0,0,116.79.7,1.923,1.923,0,0,0,117.662.9ZM131.151-9.714v8.567A2.356,2.356,0,0,0,131.607.4a1.646,1.646,0,0,0,1.341.547,2.877,2.877,0,0,0,1.243-.273,4.638,4.638,0,0,0,1.126-.768V-9.714h4.036v13.5h-2.5a.949.949,0,0,1-.99-.677l-.247-.781a7.834,7.834,0,0,1-.807.684,4.94,4.94,0,0,1-.892.521,5.328,5.328,0,0,1-1.022.339A5.431,5.431,0,0,1,131.7,4a4.727,4.727,0,0,1-1.96-.384A4.031,4.031,0,0,1,128.3,2.538a4.685,4.685,0,0,1-.885-1.628,6.731,6.731,0,0,1-.3-2.057V-9.714Zm17.109-.208a6.952,6.952,0,0,1,2.454.417,5.335,5.335,0,0,1,1.914,1.211,5.527,5.527,0,0,1,1.25,1.947,7.143,7.143,0,0,1,.449,2.611,5.7,5.7,0,0,1-.039.742,1.175,1.175,0,0,1-.143.456.545.545,0,0,1-.28.234,1.311,1.311,0,0,1-.449.065H145.63A3.806,3.806,0,0,0,146.658.214a3.06,3.06,0,0,0,2.148.762,3.846,3.846,0,0,0,1.211-.169,6.108,6.108,0,0,0,.9-.378q.4-.208.729-.378a1.514,1.514,0,0,1,.7-.169.834.834,0,0,1,.729.352l1.172,1.445A6,6,0,0,1,152.9,2.844a7,7,0,0,1-1.484.7,8.046,8.046,0,0,1-1.523.352,11.432,11.432,0,0,1-1.452.1,7.58,7.58,0,0,1-2.663-.462A6.118,6.118,0,0,1,143.6,2.161a6.482,6.482,0,0,1-1.471-2.266,8.465,8.465,0,0,1-.54-3.151,7.131,7.131,0,0,1,.462-2.565,6.317,6.317,0,0,1,1.328-2.122,6.323,6.323,0,0,1,2.1-1.445A6.919,6.919,0,0,1,148.26-9.922Zm.078,2.786a2.432,2.432,0,0,0-1.81.658,3.426,3.426,0,0,0-.859,1.894h5.039a3.562,3.562,0,0,0-.124-.937,2.273,2.273,0,0,0-.4-.814,2.054,2.054,0,0,0-.736-.579A2.516,2.516,0,0,0,148.338-7.136Zm17.5-2.578v13.5H161.8v-13.5Zm.469-3.7a2.133,2.133,0,0,1-.2.9,2.382,2.382,0,0,1-.534.742,2.614,2.614,0,0,1-.788.508,2.445,2.445,0,0,1-.957.189,2.272,2.272,0,0,1-.924-.189,2.6,2.6,0,0,1-.762-.508,2.343,2.343,0,0,1-.521-.742,2.2,2.2,0,0,1-.189-.9,2.272,2.272,0,0,1,.189-.924,2.4,2.4,0,0,1,.521-.755,2.439,2.439,0,0,1,.762-.508,2.342,2.342,0,0,1,.924-.182,2.521,2.521,0,0,1,.957.182,2.458,2.458,0,0,1,.788.508,2.437,2.437,0,0,1,.534.755A2.208,2.208,0,0,1,166.306-13.412Zm2.786,17.2v-13.5h2.5a1.114,1.114,0,0,1,.631.169.9.9,0,0,1,.358.508l.234.781a9.808,9.808,0,0,1,.807-.677,4.727,4.727,0,0,1,.892-.527,5.293,5.293,0,0,1,1.029-.339,5.52,5.52,0,0,1,1.2-.124,4.727,4.727,0,0,1,1.96.384,4.066,4.066,0,0,1,1.439,1.068,4.608,4.608,0,0,1,.885,1.628,6.749,6.749,0,0,1,.3,2.051v8.58H177.3v-8.58a2.361,2.361,0,0,0-.456-1.543,1.637,1.637,0,0,0-1.341-.553,2.809,2.809,0,0,0-1.25.286,4.861,4.861,0,0,0-1.12.768V3.788ZM196.617-8.23a6.311,6.311,0,0,1,2.031.339,5.189,5.189,0,0,1,1.8,1.042,5.216,5.216,0,0,1,1.282,1.777,6.075,6.075,0,0,1,.488,2.532,6.5,6.5,0,0,1-.495,2.519,6.27,6.27,0,0,1-1.4,2.083,6.64,6.64,0,0,1-2.181,1.413A7.411,7.411,0,0,1,195.315,4a7.676,7.676,0,0,1-2.851-.5,6.1,6.1,0,0,1-2.142-1.4,6.01,6.01,0,0,1-1.341-2.148,7.865,7.865,0,0,1-.462-2.747,7.743,7.743,0,0,1,.547-2.825A12.654,12.654,0,0,1,190.68-8.49l4.271-5.768a2.174,2.174,0,0,1,.859-.658,3.049,3.049,0,0,1,1.3-.267h3.594l-5.625,6.719q-.13.143-.254.293l-.241.293a5.642,5.642,0,0,1,.957-.26A6.005,6.005,0,0,1,196.617-8.23ZM192.4-2.253a4.361,4.361,0,0,0,.169,1.263,2.584,2.584,0,0,0,.521.964,2.282,2.282,0,0,0,.885.618,3.374,3.374,0,0,0,1.263.215A2.9,2.9,0,0,0,196.4.572a2.819,2.819,0,0,0,.931-.645,3.084,3.084,0,0,0,.618-.964,3.133,3.133,0,0,0,.228-1.2,3.69,3.69,0,0,0-.215-1.3,2.663,2.663,0,0,0-.605-.964,2.621,2.621,0,0,0-.944-.6,3.469,3.469,0,0,0-1.23-.208,2.845,2.845,0,0,0-1.12.215,2.507,2.507,0,0,0-.879.618,2.9,2.9,0,0,0-.579.964A3.6,3.6,0,0,0,192.4-2.253ZM218.83,3.788a1.114,1.114,0,0,1-.632-.169.9.9,0,0,1-.358-.508l-.312-1.029a7.913,7.913,0,0,1-.846.781,5.322,5.322,0,0,1-.957.605,5.062,5.062,0,0,1-1.107.391A5.7,5.7,0,0,1,213.335,4a4.159,4.159,0,0,1-1.953-.469,4.5,4.5,0,0,1-1.549-1.354A6.833,6.833,0,0,1,208.811.006a10.528,10.528,0,0,1-.371-2.923,9.117,9.117,0,0,1,.417-2.806,6.879,6.879,0,0,1,1.178-2.24,5.472,5.472,0,0,1,1.829-1.478,5.2,5.2,0,0,1,2.357-.534,4.524,4.524,0,0,1,1.764.306,5.092,5.092,0,0,1,1.309.8V-15.7h4.036V3.788ZM214.742.9a3.488,3.488,0,0,0,.8-.085A2.815,2.815,0,0,0,216.2.572a2.869,2.869,0,0,0,.566-.391,4.9,4.9,0,0,0,.527-.547V-6.094a2.669,2.669,0,0,0-1-.71,3.088,3.088,0,0,0-1.113-.2,2.378,2.378,0,0,0-1.029.221,2.1,2.1,0,0,0-.814.71,3.779,3.779,0,0,0-.54,1.269,7.888,7.888,0,0,0-.2,1.888,8.745,8.745,0,0,0,.156,1.8A3.7,3.7,0,0,0,213.2.058a1.693,1.693,0,0,0,.671.645A1.923,1.923,0,0,0,214.742.9Zm19.036,2.891a1.891,1.891,0,0,1-.866-.156,1.194,1.194,0,0,1-.488-.651l-.286-.742q-.508.43-.977.755a6.189,6.189,0,0,1-.97.553,4.79,4.79,0,0,1-1.068.339A6.57,6.57,0,0,1,227.866,4a5.509,5.509,0,0,1-1.68-.241,3.5,3.5,0,0,1-1.282-.71,3.12,3.12,0,0,1-.814-1.165A4.2,4.2,0,0,1,223.8.273a3.373,3.373,0,0,1,.365-1.471,3.63,3.63,0,0,1,1.263-1.374,8.027,8.027,0,0,1,2.422-1.035,16.25,16.25,0,0,1,3.841-.469v-.573a2.476,2.476,0,0,0-.488-1.712,1.8,1.8,0,0,0-1.387-.527,3.679,3.679,0,0,0-1.172.156,5.267,5.267,0,0,0-.814.352q-.358.2-.7.352a1.913,1.913,0,0,1-.807.156,1.22,1.22,0,0,1-.71-.2,1.5,1.5,0,0,1-.462-.5l-.729-1.263a8.208,8.208,0,0,1,2.715-1.608,9.517,9.517,0,0,1,3.2-.527,5.846,5.846,0,0,1,2.207.4,4.749,4.749,0,0,1,1.667,1.107,4.836,4.836,0,0,1,1.048,1.686,6.06,6.06,0,0,1,.365,2.135V3.788Zm-4.635-2.461a3.2,3.2,0,0,0,1.367-.273,4.165,4.165,0,0,0,1.185-.885V-1.707A13.4,13.4,0,0,0,229.7-1.5a4.839,4.839,0,0,0-1.237.391,1.5,1.5,0,0,0-.631.534,1.264,1.264,0,0,0-.176.651,1.131,1.131,0,0,0,.378.97A1.842,1.842,0,0,0,229.142,1.327Zm14.348,5.963a1.444,1.444,0,0,1-.443.592,1.441,1.441,0,0,1-.833.189h-3.021L241.8,2.6l-5.39-12.317h3.568a1.139,1.139,0,0,1,.729.208,1.118,1.118,0,0,1,.365.495l2.213,5.82a12.825,12.825,0,0,1,.508,1.615q.13-.417.286-.82t.3-.82l2.005-5.794a.988.988,0,0,1,.41-.5,1.172,1.172,0,0,1,.658-.2H250.7ZM260.625-6.758a1.044,1.044,0,0,1-.332.352.871.871,0,0,1-.449.1,1.435,1.435,0,0,1-.573-.124l-.618-.267a6.738,6.738,0,0,0-.749-.267,3.342,3.342,0,0,0-.951-.124,2.01,2.01,0,0,0-1.178.293.944.944,0,0,0-.41.814.816.816,0,0,0,.267.625,2.449,2.449,0,0,0,.71.436,9.79,9.79,0,0,0,1,.358q.56.169,1.146.378a10.2,10.2,0,0,1,1.146.488,4.286,4.286,0,0,1,1,.69,3.08,3.08,0,0,1,.71,1A3.373,3.373,0,0,1,261.615-.6a4.624,4.624,0,0,1-.365,1.849,3.926,3.926,0,0,1-1.087,1.458,5.142,5.142,0,0,1-1.784.95A8.035,8.035,0,0,1,255.938,4a7.429,7.429,0,0,1-1.38-.13,9.559,9.559,0,0,1-1.335-.352,7.27,7.27,0,0,1-1.191-.527,5.167,5.167,0,0,1-.937-.658l.937-1.484a1.35,1.35,0,0,1,.4-.41,1.121,1.121,0,0,1,.612-.15,1.273,1.273,0,0,1,.631.156l.605.339a5.047,5.047,0,0,0,.762.339,3.3,3.3,0,0,0,1.1.156,2.8,2.8,0,0,0,.794-.1,1.4,1.4,0,0,0,.521-.267,1.066,1.066,0,0,0,.286-.378,1.062,1.062,0,0,0,.091-.43.877.877,0,0,0-.273-.664,2.381,2.381,0,0,0-.716-.449,8.731,8.731,0,0,0-1.009-.352q-.566-.163-1.152-.371a9.255,9.255,0,0,1-1.152-.5,3.964,3.964,0,0,1-1.009-.742,3.449,3.449,0,0,1-.716-1.1,4.064,4.064,0,0,1-.273-1.575,4.1,4.1,0,0,1,.332-1.634,3.794,3.794,0,0,1,1-1.361,4.891,4.891,0,0,1,1.667-.931,7.205,7.205,0,0,1,2.344-.345,7.535,7.535,0,0,1,1.413.13,7.219,7.219,0,0,1,1.283.365,6.143,6.143,0,0,1,1.094.553,5.252,5.252,0,0,1,.872.7Z" transform="translate(1670.977 479.383)" fill="#fff"/>
      <path id="Path_133" data-name="Path 133" d="M5.5-3.24h6.48V0H1.44V-17.484H5.5Zm13.464-9.4a7.187,7.187,0,0,1,2.58.444,5.659,5.659,0,0,1,2,1.272,5.73,5.73,0,0,1,1.3,2.01A7.251,7.251,0,0,1,25.3-6.252a7.383,7.383,0,0,1-.462,2.682,5.77,5.77,0,0,1-1.3,2.028,5.686,5.686,0,0,1-2,1.284,7.1,7.1,0,0,1-2.58.45,7.184,7.184,0,0,1-2.6-.45,5.8,5.8,0,0,1-2.016-1.284A5.686,5.686,0,0,1,13.038-3.57a7.383,7.383,0,0,1-.462-2.682,7.251,7.251,0,0,1,.462-2.658,5.647,5.647,0,0,1,1.308-2.01,5.77,5.77,0,0,1,2.016-1.272A7.271,7.271,0,0,1,18.96-12.636Zm0,10.068a2.113,2.113,0,0,0,1.89-.906,5.011,5.011,0,0,0,.606-2.754,4.979,4.979,0,0,0-.606-2.748,2.118,2.118,0,0,0-1.89-.9,2.17,2.17,0,0,0-1.932.9,4.939,4.939,0,0,0-.612,2.748,4.971,4.971,0,0,0,.612,2.754A2.165,2.165,0,0,0,18.96-2.568ZM31.728-12.66a6.875,6.875,0,0,1,1.494.156,6.011,6.011,0,0,1,1.3.444H38.28V-10.7a.678.678,0,0,1-.174.492,1.192,1.192,0,0,1-.594.276l-.912.2a3.735,3.735,0,0,1,.168,1.116,3.563,3.563,0,0,1-.39,1.68A3.821,3.821,0,0,1,35.31-5.67a4.981,4.981,0,0,1-1.6.8,6.75,6.75,0,0,1-1.98.282,8,8,0,0,1-1.1-.072.672.672,0,0,0-.408.552.467.467,0,0,0,.33.45,3.1,3.1,0,0,0,.87.192q.54.054,1.236.072t1.416.084a11.1,11.1,0,0,1,1.416.222,3.791,3.791,0,0,1,1.236.5,2.628,2.628,0,0,1,.87.93,2.977,2.977,0,0,1,.33,1.482,3.6,3.6,0,0,1-.408,1.644,4.293,4.293,0,0,1-1.2,1.428,6.269,6.269,0,0,1-1.944,1,8.461,8.461,0,0,1-2.64.378A10.138,10.138,0,0,1,29.2,4.008a6.115,6.115,0,0,1-1.764-.726A3.059,3.059,0,0,1,26.4,2.244a2.434,2.434,0,0,1-.336-1.224,2.035,2.035,0,0,1,.5-1.4,3.349,3.349,0,0,1,1.38-.894,2.107,2.107,0,0,1-.672-.708,2.142,2.142,0,0,1-.252-1.092,1.945,1.945,0,0,1,.1-.582,2.13,2.13,0,0,1,.3-.594,3,3,0,0,1,.516-.552,3.377,3.377,0,0,1,.744-.468,4.065,4.065,0,0,1-1.53-1.368,3.532,3.532,0,0,1-.558-1.98,3.555,3.555,0,0,1,.4-1.686,3.81,3.81,0,0,1,1.086-1.272,5.11,5.11,0,0,1,1.626-.8A7,7,0,0,1,31.728-12.66ZM34.488.456a.637.637,0,0,0-.186-.48,1.326,1.326,0,0,0-.5-.288,3.569,3.569,0,0,0-.744-.156q-.426-.048-.918-.072t-1.02-.042Q30.588-.6,30.072-.66a2.442,2.442,0,0,0-.57.534A1.077,1.077,0,0,0,29.28.54a1.012,1.012,0,0,0,.114.48.939.939,0,0,0,.4.372,2.671,2.671,0,0,0,.774.246,6.945,6.945,0,0,0,1.23.09,7.44,7.44,0,0,0,1.32-.1,2.794,2.794,0,0,0,.822-.264.993.993,0,0,0,.426-.4A1.1,1.1,0,0,0,34.488.456Zm-2.76-7.332a1.716,1.716,0,0,0,1.338-.462,1.721,1.721,0,0,0,.414-1.194,1.646,1.646,0,0,0-.414-1.188,1.787,1.787,0,0,0-1.338-.432,1.787,1.787,0,0,0-1.338.432,1.646,1.646,0,0,0-.414,1.188,2.04,2.04,0,0,0,.1.66,1.371,1.371,0,0,0,.318.522A1.49,1.49,0,0,0,30.942-7,2.2,2.2,0,0,0,31.728-6.876ZM48.576-5.844V0H44.52V-17.484h6.168a10.172,10.172,0,0,1,3.174.438,6.091,6.091,0,0,1,2.184,1.206,4.7,4.7,0,0,1,1.266,1.812,6.143,6.143,0,0,1,.408,2.256,6.633,6.633,0,0,1-.42,2.4A4.816,4.816,0,0,1,56.016-7.5a6.051,6.051,0,0,1-2.19,1.218,10.038,10.038,0,0,1-3.138.438Zm0-3.06h2.112a2.976,2.976,0,0,0,2.28-.756,3,3,0,0,0,.7-2.112,3.159,3.159,0,0,0-.18-1.092,2.222,2.222,0,0,0-.546-.846,2.455,2.455,0,0,0-.924-.546,4.087,4.087,0,0,0-1.326-.192H48.576ZM67.824,0a1.743,1.743,0,0,1-.8-.144,1.1,1.1,0,0,1-.45-.6l-.264-.684q-.468.4-.9.7a5.7,5.7,0,0,1-.894.51,4.415,4.415,0,0,1-.984.312,6.056,6.056,0,0,1-1.158.1A5.078,5.078,0,0,1,60.828-.03a3.23,3.23,0,0,1-1.182-.654,2.876,2.876,0,0,1-.75-1.074,3.873,3.873,0,0,1-.264-1.482A3.108,3.108,0,0,1,58.968-4.6a3.345,3.345,0,0,1,1.164-1.266,7.4,7.4,0,0,1,2.232-.954,14.976,14.976,0,0,1,3.54-.432v-.528a2.282,2.282,0,0,0-.45-1.578,1.655,1.655,0,0,0-1.278-.486A3.39,3.39,0,0,0,63.1-9.7a4.855,4.855,0,0,0-.75.324q-.33.18-.642.324a1.763,1.763,0,0,1-.744.144,1.125,1.125,0,0,1-.654-.186,1.381,1.381,0,0,1-.426-.462l-.672-1.164a7.564,7.564,0,0,1,2.5-1.482,8.771,8.771,0,0,1,2.946-.486,5.388,5.388,0,0,1,2.034.366,4.377,4.377,0,0,1,1.536,1.02,4.457,4.457,0,0,1,.966,1.554,5.585,5.585,0,0,1,.336,1.968V0ZM63.552-2.268a2.952,2.952,0,0,0,1.26-.252A3.839,3.839,0,0,0,65.9-3.336V-5.064a12.35,12.35,0,0,0-1.836.192,4.46,4.46,0,0,0-1.14.36,1.38,1.38,0,0,0-.582.492,1.164,1.164,0,0,0-.162.6,1.043,1.043,0,0,0,.348.894A1.7,1.7,0,0,0,63.552-2.268Zm13.224,5.5a1.331,1.331,0,0,1-.408.546,1.328,1.328,0,0,1-.768.174H72.816l2.4-5.04L70.248-12.444h3.288a1.05,1.05,0,0,1,.672.192,1.031,1.031,0,0,1,.336.456l2.04,5.364a11.821,11.821,0,0,1,.468,1.488q.12-.384.264-.756t.276-.756L79.44-11.8a.91.91,0,0,1,.378-.462,1.08,1.08,0,0,1,.606-.186h3ZM84.96,0V-12.444h2.3a1.027,1.027,0,0,1,.582.156.833.833,0,0,1,.33.468l.2.672a6.9,6.9,0,0,1,.648-.594,4.166,4.166,0,0,1,.726-.468,4.041,4.041,0,0,1,.84-.312,4.029,4.029,0,0,1,.99-.114,2.921,2.921,0,0,1,1.866.582A3.626,3.626,0,0,1,94.572-10.5a3.679,3.679,0,0,1,.762-.984,4.092,4.092,0,0,1,.972-.66,4.722,4.722,0,0,1,1.1-.372,5.722,5.722,0,0,1,1.158-.12,5.263,5.263,0,0,1,1.9.318,3.61,3.61,0,0,1,1.386.924,3.99,3.99,0,0,1,.846,1.488,6.424,6.424,0,0,1,.288,2V0h-3.72V-7.908q0-1.932-1.656-1.932a1.7,1.7,0,0,0-1.254.5,1.941,1.941,0,0,0-.5,1.434V0h-3.72V-7.908a2.128,2.128,0,0,0-.42-1.5A1.648,1.648,0,0,0,90.48-9.84a2.082,2.082,0,0,0-.954.228A3.467,3.467,0,0,0,88.68-9V0Zm25.992-12.636a6.407,6.407,0,0,1,2.262.384,4.917,4.917,0,0,1,1.764,1.116,5.094,5.094,0,0,1,1.152,1.794,6.583,6.583,0,0,1,.414,2.406,5.251,5.251,0,0,1-.036.684,1.083,1.083,0,0,1-.132.42.5.5,0,0,1-.258.216,1.208,1.208,0,0,1-.414.06h-7.176a3.508,3.508,0,0,0,.948,2.262,2.821,2.821,0,0,0,1.98.7,3.544,3.544,0,0,0,1.116-.156,5.63,5.63,0,0,0,.834-.348q.366-.192.672-.348a1.4,1.4,0,0,1,.642-.156.769.769,0,0,1,.672.324l1.08,1.332A5.53,5.53,0,0,1,115.23-.87a6.454,6.454,0,0,1-1.368.648,7.415,7.415,0,0,1-1.4.324,10.536,10.536,0,0,1-1.338.09,6.986,6.986,0,0,1-2.454-.426,5.639,5.639,0,0,1-2-1.266,5.974,5.974,0,0,1-1.356-2.088,7.8,7.8,0,0,1-.5-2.9,6.572,6.572,0,0,1,.426-2.364,5.822,5.822,0,0,1,1.224-1.956,5.828,5.828,0,0,1,1.932-1.332A6.377,6.377,0,0,1,110.952-12.636Zm.072,2.568a2.242,2.242,0,0,0-1.668.606,3.157,3.157,0,0,0-.792,1.746h4.644a3.283,3.283,0,0,0-.114-.864,2.1,2.1,0,0,0-.372-.75,1.893,1.893,0,0,0-.678-.534A2.319,2.319,0,0,0,111.024-10.068ZM118.68,0V-12.444h2.3a1.027,1.027,0,0,1,.582.156.833.833,0,0,1,.33.468l.216.72a9.038,9.038,0,0,1,.744-.624,4.357,4.357,0,0,1,.822-.486,4.879,4.879,0,0,1,.948-.312,5.087,5.087,0,0,1,1.11-.114,4.357,4.357,0,0,1,1.806.354,3.748,3.748,0,0,1,1.326.984,4.247,4.247,0,0,1,.816,1.5,6.22,6.22,0,0,1,.276,1.89V0h-3.72V-7.908a2.176,2.176,0,0,0-.42-1.422,1.509,1.509,0,0,0-1.236-.51,2.589,2.589,0,0,0-1.152.264,4.48,4.48,0,0,0-1.032.708V0Zm18.288.192A4.387,4.387,0,0,1,135.4-.066a3.11,3.11,0,0,1-1.14-.732,3.12,3.12,0,0,1-.7-1.146,4.437,4.437,0,0,1-.24-1.5V-9.876h-1.056a.7.7,0,0,1-.492-.186.7.7,0,0,1-.2-.546V-12.06l1.98-.384.732-3.036a.739.739,0,0,1,.816-.576h1.944v3.636h3.024v2.544H137.04V-3.7a1.163,1.163,0,0,0,.21.714.709.709,0,0,0,.606.282,1.191,1.191,0,0,0,.342-.042,1.362,1.362,0,0,0,.24-.1q.1-.054.192-.1a.492.492,0,0,1,.21-.042.433.433,0,0,1,.27.078.966.966,0,0,1,.21.246l1.128,1.764a5.134,5.134,0,0,1-1.62.81A6.438,6.438,0,0,1,136.968.192Z" transform="translate(1494.977 1036.383)" fill="#fff"/>
      <g id="notifications-24px" transform="translate(1596.769 457.285)">
        <path id="Path_3" data-name="Path 3" d="M0,0H47.854V52.34H0Z" fill="none"/>
        <path id="Path_4" data-name="Path 4" d="M24.538,50.961a5.161,5.161,0,0,0,5.305-4.97H19.233A5.144,5.144,0,0,0,24.538,50.961ZM40.454,36.05V23.624c0-7.63-4.35-14.016-11.937-15.706V6.228A3.854,3.854,0,0,0,24.538,2.5a3.854,3.854,0,0,0-3.979,3.728v1.69C12.946,9.608,8.622,15.97,8.622,23.624V36.05L5.2,39.256a2.469,2.469,0,0,0,1.857,4.25H41.993a2.476,2.476,0,0,0,1.883-4.25Z" transform="translate(-0.609 -0.345)" fill="#fefefe"/>
      </g>
    </g>
  </g>
</svg>
