<svg xmlns="http://www.w3.org/2000/svg" xmlns:xlink="http://www.w3.org/1999/xlink" width="1090" height="903.12" viewBox="0 0 1090 903.12">
  <defs>
    <linearGradient id="linear-gradient" x1="0.5" x2="0.542" y2="0.795" gradientUnits="objectBoundingBox">
      <stop offset="0" stop-color="#91b9f1"/>
      <stop offset="1" stop-color="#f4f4f4"/>
    </linearGradient>
    <filter id="Rectangle_95" x="55" y="154" width="750" height="520" filterUnits="userSpaceOnUse">
      <feOffset dy="3" input="SourceAlpha"/>
      <feGaussianBlur stdDeviation="7" result="blur"/>
      <feFlood flood-opacity="0.114"/>
      <feComposite operator="in" in2="blur"/>
      <feComposite in="SourceGraphic"/>
    </filter>
    <filter id="Rectangle_174" x="604" y="290" width="373" height="509" filterUnits="userSpaceOnUse">
      <feOffset dx="-2" dy="2" input="SourceAlpha"/>
      <feGaussianBlur stdDeviation="6" result="blur-2"/>
      <feFlood flood-opacity="0.102"/>
      <feComposite operator="in" in2="blur-2"/>
      <feComposite in="SourceGraphic"/>
    </filter>
    <filter id="Rectangle_175" x="584" y="448" width="410" height="142" filterUnits="userSpaceOnUse">
      <feOffset input="SourceAlpha"/>
      <feGaussianBlur stdDeviation="3" result="blur-3"/>
      <feFlood flood-opacity="0.071"/>
      <feComposite operator="in" in2="blur-3"/>
      <feComposite in="SourceGraphic"/>
    </filter>
    <filter id="Path_18" x="603.308" y="603.732" width="419.647" height="119.458" filterUnits="userSpaceOnUse">
      <feOffset input="SourceAlpha"/>
      <feGaussianBlur stdDeviation="3" result="blur-4"/>
      <feFlood flood-opacity="0.071"/>
      <feComposite operator="in" in2="blur-4"/>
      <feComposite in="SourceGraphic"/>
    </filter>
    <filter id="Rectangle_175-2" x="659" y="244" width="401" height="191" filterUnits="userSpaceOnUse">
      <feOffset input="SourceAlpha"/>
      <feGaussianBlur stdDeviation="3" result="blur-5"/>
      <feFlood flood-opacity="0.071"/>
      <feComposite operator="in" in2="blur-5"/>
      <feComposite in="SourceGraphic"/>
    </filter>
    <clipPath id="clip-Image_03">
      <rect width="1090" height="903.12"/>
    </clipPath>
  </defs>
  <g id="Image_03" data-name="Image 03" clip-path="url(#clip-Image_03)">
    <rect width="1090" height="903.12" fill="rgba(255,255,255,0)"/>
    <g id="Group_39" data-name="Group 39" transform="translate(-953.616 -1826.081)">
      <circle id="Ellipse_8" data-name="Ellipse 8" cx="203.5" cy="203.5" r="203.5" transform="translate(962.616 1839.081)" opacity="0.152" fill="url(#linear-gradient)"/>
      <circle id="Ellipse_9" data-name="Ellipse 9" cx="121.945" cy="121.945" r="121.945" transform="translate(1949.078 1873.231) rotate(60)" opacity="0.152" fill="url(#linear-gradient)"/>
      <ellipse id="Ellipse_14" data-name="Ellipse 14" cx="61" cy="60.5" rx="61" ry="60.5" transform="translate(1507.616 1834.081)" opacity="0.152" fill="url(#linear-gradient)"/>
      <circle id="Ellipse_10" data-name="Ellipse 10" cx="176.576" cy="176.576" r="176.576" transform="translate(1712.598 2523.827) rotate(131)" opacity="0.152" fill="url(#linear-gradient)"/>
      <g transform="matrix(1, 0, 0, 1, 953.62, 1826.08)" filter="url(#Rectangle_95)">
        <rect id="Rectangle_95-2" data-name="Rectangle 95" width="708" height="478" rx="8" transform="translate(76 172)" fill="#fafbff"/>
      </g>
      <path id="Path_30" data-name="Path 30" d="M12.117,0H333.23c6.692,0,12.117,3.494,12.117,7.8V70.24c0,4.31-5.425,7.8-12.117,7.8H12.117C5.425,78.045,0,74.55,0,70.24V7.8C0,3.494,5.425,0,12.117,0Z" transform="translate(1306.426 2187.119)" fill="#eafaf5"/>
      <rect id="Rectangle_182" data-name="Rectangle 182" width="281" height="14" rx="4" transform="translate(1350.616 2207.081)" fill="#29cc9e"/>
      <rect id="Rectangle_184" data-name="Rectangle 184" width="145" height="10" rx="4" transform="translate(1486.616 2233.081)" fill="#29cc9e"/>
      <g id="star-24px" transform="translate(1421.541 2122.732)">
        <path id="Path_15" data-name="Path 15" d="M0,0H46.827V46.827H0Z" fill="none"/>
        <path id="Path_16" data-name="Path 16" d="M0,0H46.827V46.827H0Z" fill="none"/>
        <path id="Path_17" data-name="Path 17" d="M21.511,31.794l12.058,7.278-3.2-13.716,10.653-9.229-14.029-1.19L21.511,2,16.029,14.936,2,16.126l10.653,9.229-3.2,13.716Z" transform="translate(1.902 1.902)" fill="#fff"/>
      </g>
      <g id="Group_21" data-name="Group 21" transform="translate(1546.213 2079.577)">
        <g transform="matrix(1, 0, 0, 1, -592.6, -253.5)" filter="url(#Rectangle_174)">
          <rect id="Rectangle_174-2" data-name="Rectangle 174" width="337" height="473" rx="8" transform="translate(624 306)" fill="#fafbff"/>
        </g>
        <g id="Group_19" data-name="Group 19" transform="translate(0 203.503)">
          <g transform="matrix(1, 0, 0, 1, -592.6, -457)" filter="url(#Rectangle_175)">
            <rect id="Rectangle_175-3" data-name="Rectangle 175" width="392" height="124" rx="8" transform="translate(593 457)" fill="#fff"/>
          </g>
          <g id="account_circle-24px" transform="translate(27.939 28.019)">
            <path id="Path_5" data-name="Path 5" d="M0,0H67.116V67.116H0Z" fill="none"/>
            <path id="Path_6" data-name="Path 6" d="M35.048,7.083A27.965,27.965,0,1,0,63.013,35.048,27.975,27.975,0,0,0,35.048,7.083Zm0,8.389a8.389,8.389,0,1,1-8.389,8.389A8.378,8.378,0,0,1,35.048,15.473Zm0,39.71a20.136,20.136,0,0,1-16.779-9c.084-5.565,11.186-8.613,16.779-8.613,5.565,0,16.695,3.048,16.779,8.613A20.136,20.136,0,0,1,35.048,55.183Z" transform="translate(-1.49 -1.49)" fill="#f5647e"/>
          </g>
        </g>
        <g id="Group_20" data-name="Group 20" transform="translate(19.711 359.236)">
          <g transform="matrix(1, 0, 0, 1, -612.31, -612.73)" filter="url(#Path_18)">
            <path id="Path_18-2" data-name="Path 18" d="M19.834,0H381.813c10.954,0,19.834,6.988,19.834,15.609v70.24c0,8.621-8.88,15.609-19.834,15.609H19.834C8.88,101.458,0,94.47,0,85.849V15.609C0,6.988,8.88,0,19.834,0Z" transform="translate(612.31 612.73)" fill="#fff"/>
          </g>
          <g id="account_circle-24px-2" data-name="account_circle-24px" transform="translate(22.553 24.963)">
            <path id="Path_5-2" data-name="Path 5" d="M0,0H54.587V54.587H0Z" fill="none"/>
            <path id="Path_6-2" data-name="Path 6" d="M29.828,7.083A22.745,22.745,0,1,0,52.573,29.828,22.753,22.753,0,0,0,29.828,7.083Zm0,6.823A6.823,6.823,0,1,1,23,20.73,6.814,6.814,0,0,1,29.828,13.907Zm0,32.3A16.377,16.377,0,0,1,16.181,38.88c.068-4.526,9.1-7.005,13.647-7.005,4.526,0,13.579,2.479,13.647,7.005A16.377,16.377,0,0,1,29.828,46.2Z" transform="translate(-2.534 -2.534)" fill="#f5647e"/>
          </g>
        </g>
        <g id="Group_18" data-name="Group 18" transform="translate(75.372 0)">
          <g transform="matrix(1, 0, 0, 1, -667.97, -253.5)" filter="url(#Rectangle_175-2)">
            <rect id="Rectangle_175-4" data-name="Rectangle 175" width="383" height="173" rx="8" transform="translate(668 253)" fill="#2272e2"/>
          </g>
          <g id="account_circle-24px-3" data-name="account_circle-24px" transform="translate(33.363 26.573)">
            <path id="Path_5-3" data-name="Path 5" d="M0,0H78.544V78.544H0Z" fill="none"/>
            <path id="Path_6-3" data-name="Path 6" d="M39.81,7.083A32.727,32.727,0,1,0,72.537,39.81,32.739,32.739,0,0,0,39.81,7.083Zm0,9.818a9.818,9.818,0,1,1-9.818,9.818A9.8,9.8,0,0,1,39.81,16.9Zm0,46.472A23.565,23.565,0,0,1,20.174,52.835c.1-6.513,13.091-10.08,19.636-10.08,6.513,0,19.538,3.567,19.636,10.08A23.565,23.565,0,0,1,39.81,63.373Z" transform="translate(-0.538 -0.538)" fill="#fff"/>
          </g>
        </g>
        <path id="Path_70" data-name="Path 70" d="M10.73-7.656a11.005,11.005,0,0,1-.442,3.219A6.8,6.8,0,0,1,8.954-1.95,5.992,5.992,0,0,1,6.714-.341,8.082,8.082,0,0,1,3.538.232,15.167,15.167,0,0,1,1.907.145,14.006,14.006,0,0,1,.232-.145L.493-3a.859.859,0,0,1,.3-.609,1.105,1.105,0,0,1,.747-.232,2.924,2.924,0,0,1,.609.08,4.105,4.105,0,0,0,.87.08,3.569,3.569,0,0,0,1.24-.2,1.921,1.921,0,0,0,.877-.652,3.143,3.143,0,0,0,.522-1.2,8.127,8.127,0,0,0,.174-1.827V-21.127h4.9ZM24.592,0a2.106,2.106,0,0,1-.964-.174A1.329,1.329,0,0,1,23.084-.9l-.319-.826q-.565.478-1.087.841a6.893,6.893,0,0,1-1.08.616,5.335,5.335,0,0,1-1.189.377,7.317,7.317,0,0,1-1.4.123,6.135,6.135,0,0,1-1.871-.268,3.9,3.9,0,0,1-1.428-.79,3.475,3.475,0,0,1-.906-1.3,4.68,4.68,0,0,1-.319-1.791,3.756,3.756,0,0,1,.406-1.638A4.042,4.042,0,0,1,15.3-7.083a8.939,8.939,0,0,1,2.7-1.153,18.1,18.1,0,0,1,4.277-.522V-9.4a2.757,2.757,0,0,0-.544-1.907,2,2,0,0,0-1.544-.587,4.1,4.1,0,0,0-1.305.174,5.867,5.867,0,0,0-.906.392q-.4.218-.776.391a2.131,2.131,0,0,1-.9.174,1.359,1.359,0,0,1-.79-.225,1.669,1.669,0,0,1-.515-.558l-.812-1.406A9.14,9.14,0,0,1,17.2-14.739a10.6,10.6,0,0,1,3.56-.587,6.51,6.51,0,0,1,2.458.442,5.289,5.289,0,0,1,1.856,1.232,5.385,5.385,0,0,1,1.167,1.878A6.748,6.748,0,0,1,26.651-9.4V0ZM19.43-2.74a3.567,3.567,0,0,0,1.522-.3,4.638,4.638,0,0,0,1.319-.986V-6.119a14.923,14.923,0,0,0-2.218.232,5.389,5.389,0,0,0-1.378.435,1.667,1.667,0,0,0-.7.594,1.407,1.407,0,0,0-.2.725,1.26,1.26,0,0,0,.42,1.08A2.052,2.052,0,0,0,19.43-2.74ZM29.841,0V-15.036h2.784a1.241,1.241,0,0,1,.7.188,1.007,1.007,0,0,1,.4.566l.246.812a8.341,8.341,0,0,1,.783-.718,5.035,5.035,0,0,1,.877-.566,4.883,4.883,0,0,1,1.015-.377,4.868,4.868,0,0,1,1.2-.138,3.529,3.529,0,0,1,2.255.7,4.382,4.382,0,0,1,1.356,1.878,4.445,4.445,0,0,1,.921-1.189,4.945,4.945,0,0,1,1.174-.8,5.706,5.706,0,0,1,1.334-.45,6.914,6.914,0,0,1,1.4-.145,6.359,6.359,0,0,1,2.291.384,4.362,4.362,0,0,1,1.675,1.116,4.821,4.821,0,0,1,1.022,1.8,7.762,7.762,0,0,1,.348,2.414V0H47.125V-9.556q0-2.335-2-2.335a2.054,2.054,0,0,0-1.515.6,2.346,2.346,0,0,0-.6,1.733V0H38.512V-9.556A2.571,2.571,0,0,0,38-11.368a1.991,1.991,0,0,0-1.493-.522,2.516,2.516,0,0,0-1.153.276,4.19,4.19,0,0,0-1.022.74V0ZM61.248-15.268a7.742,7.742,0,0,1,2.733.464,5.942,5.942,0,0,1,2.131,1.349A6.155,6.155,0,0,1,67.5-11.288,7.955,7.955,0,0,1,68-8.381a6.346,6.346,0,0,1-.043.826,1.308,1.308,0,0,1-.16.508.607.607,0,0,1-.312.261,1.46,1.46,0,0,1-.5.072H58.319A4.239,4.239,0,0,0,59.465-3.98a3.408,3.408,0,0,0,2.392.848,4.283,4.283,0,0,0,1.348-.189,6.8,6.8,0,0,0,1.008-.42q.442-.232.812-.421A1.686,1.686,0,0,1,65.8-4.35a.929.929,0,0,1,.812.392l1.305,1.609a6.682,6.682,0,0,1-1.5,1.3,7.8,7.8,0,0,1-1.653.783,8.96,8.96,0,0,1-1.7.391,12.731,12.731,0,0,1-1.617.109,8.442,8.442,0,0,1-2.965-.515,6.814,6.814,0,0,1-2.421-1.53,7.218,7.218,0,0,1-1.639-2.523,9.427,9.427,0,0,1-.6-3.509,7.941,7.941,0,0,1,.515-2.856,7.035,7.035,0,0,1,1.479-2.364,7.042,7.042,0,0,1,2.334-1.609A7.705,7.705,0,0,1,61.248-15.268Zm.087,3.1a2.709,2.709,0,0,0-2.015.732,3.815,3.815,0,0,0-.957,2.11h5.611a3.968,3.968,0,0,0-.138-1.044,2.531,2.531,0,0,0-.45-.906,2.287,2.287,0,0,0-.819-.645A2.8,2.8,0,0,0,61.335-12.165Zm18.444.42a1.163,1.163,0,0,1-.37.391.97.97,0,0,1-.5.116,1.6,1.6,0,0,1-.638-.138l-.689-.3a7.5,7.5,0,0,0-.834-.3,3.722,3.722,0,0,0-1.059-.138,2.239,2.239,0,0,0-1.312.326,1.052,1.052,0,0,0-.457.906.908.908,0,0,0,.3.7,2.727,2.727,0,0,0,.79.486,10.9,10.9,0,0,0,1.117.4q.624.188,1.276.42a11.363,11.363,0,0,1,1.276.544,4.773,4.773,0,0,1,1.117.769,3.43,3.43,0,0,1,.79,1.109,3.757,3.757,0,0,1,.3,1.566,5.149,5.149,0,0,1-.406,2.059A4.372,4.372,0,0,1,79.264-1.2,5.726,5.726,0,0,1,77.278-.145a8.948,8.948,0,0,1-2.719.377A8.273,8.273,0,0,1,73.022.087,10.646,10.646,0,0,1,71.536-.3a8.1,8.1,0,0,1-1.327-.587,5.754,5.754,0,0,1-1.044-.732l1.044-1.653a1.5,1.5,0,0,1,.45-.457A1.248,1.248,0,0,1,71.34-3.9a1.418,1.418,0,0,1,.7.174l.674.377a5.621,5.621,0,0,0,.848.377,3.678,3.678,0,0,0,1.225.174,3.112,3.112,0,0,0,.884-.109,1.558,1.558,0,0,0,.58-.3,1.187,1.187,0,0,0,.319-.421,1.182,1.182,0,0,0,.1-.478.977.977,0,0,0-.3-.74,2.653,2.653,0,0,0-.8-.5,9.723,9.723,0,0,0-1.124-.392q-.631-.181-1.283-.413a10.308,10.308,0,0,1-1.283-.558,4.415,4.415,0,0,1-1.124-.826,3.84,3.84,0,0,1-.8-1.225,4.526,4.526,0,0,1-.3-1.755,4.571,4.571,0,0,1,.37-1.82,4.225,4.225,0,0,1,1.109-1.515,5.446,5.446,0,0,1,1.856-1.037,8.024,8.024,0,0,1,2.61-.384,8.391,8.391,0,0,1,1.573.145,8.04,8.04,0,0,1,1.428.406,6.841,6.841,0,0,1,1.218.616,5.849,5.849,0,0,1,.971.776Zm28.333,1.175a11.078,11.078,0,0,1-.79,4.227,9.889,9.889,0,0,1-2.226,3.35,10.1,10.1,0,0,1-3.458,2.2A12.237,12.237,0,0,1,97.15,0H88.943V-21.127H97.15a12.138,12.138,0,0,1,4.488.8,10.24,10.24,0,0,1,3.458,2.2,9.812,9.812,0,0,1,2.226,3.342A11.039,11.039,0,0,1,108.112-10.57Zm-5.017,0a9.2,9.2,0,0,0-.406-2.828,6.041,6.041,0,0,0-1.167-2.139,5.069,5.069,0,0,0-1.863-1.349,6.326,6.326,0,0,0-2.508-.471H93.873V-3.77H97.15a6.326,6.326,0,0,0,2.508-.471,5.069,5.069,0,0,0,1.863-1.349,6.041,6.041,0,0,0,1.167-2.139A9.256,9.256,0,0,0,103.1-10.57Zm13.8-4.7a7.742,7.742,0,0,1,2.733.464,5.942,5.942,0,0,1,2.132,1.349,6.155,6.155,0,0,1,1.392,2.168,7.955,7.955,0,0,1,.5,2.907,6.346,6.346,0,0,1-.043.826,1.308,1.308,0,0,1-.16.508.607.607,0,0,1-.312.261,1.46,1.46,0,0,1-.5.072H113.97a4.239,4.239,0,0,0,1.146,2.733,3.408,3.408,0,0,0,2.393.848,4.283,4.283,0,0,0,1.348-.189,6.8,6.8,0,0,0,1.008-.42q.442-.232.812-.421a1.686,1.686,0,0,1,.776-.189.929.929,0,0,1,.812.392l1.305,1.609a6.682,6.682,0,0,1-1.5,1.3,7.8,7.8,0,0,1-1.653.783,8.96,8.96,0,0,1-1.7.391A12.731,12.731,0,0,1,117.1.232a8.442,8.442,0,0,1-2.965-.515,6.814,6.814,0,0,1-2.422-1.53,7.218,7.218,0,0,1-1.638-2.523,9.427,9.427,0,0,1-.6-3.509,7.941,7.941,0,0,1,.515-2.856,7.035,7.035,0,0,1,1.479-2.364,7.042,7.042,0,0,1,2.335-1.609A7.7,7.7,0,0,1,116.9-15.268Zm.087,3.1a2.709,2.709,0,0,0-2.016.732,3.815,3.815,0,0,0-.957,2.11h5.611a3.968,3.968,0,0,0-.138-1.044,2.531,2.531,0,0,0-.45-.906,2.287,2.287,0,0,0-.819-.645A2.8,2.8,0,0,0,116.986-12.165Zm7.511-2.871h3.6a1.527,1.527,0,0,1,.826.217.867.867,0,0,1,.421.565l1.508,6.742q.174.769.319,1.494t.261,1.435q.2-.711.428-1.428t.442-1.5l1.885-6.757a.962.962,0,0,1,.421-.558,1.343,1.343,0,0,1,.769-.225h2a1.454,1.454,0,0,1,.819.225.956.956,0,0,1,.428.558l1.8,6.757q.2.769.413,1.494t.4,1.464q.116-.725.283-1.443t.355-1.515l1.6-6.742a.871.871,0,0,1,.413-.565,1.411,1.411,0,0,1,.776-.217h3.422L143.4,0h-3.654a.732.732,0,0,1-.493-.174,1.172,1.172,0,0,1-.319-.58l-2.146-7.5q-.145-.507-.275-1t-.232-.986q-.1.507-.225,1.008t-.283,1.008L133.6-.754a.925.925,0,0,1-.957.754h-3.48Z" transform="translate(210.403 63.504)" fill="#fff"/>
        <path id="Path_71" data-name="Path 71" d="M12.543-9.657q.29.551.558,1.146t.515,1.218q.246-.638.522-1.24T14.7-9.7l5.423-10.672a1.773,1.773,0,0,1,.3-.428.973.973,0,0,1,.341-.225,1.429,1.429,0,0,1,.428-.087q.239-.015.558-.015h3.741V0H21.17V-12.151q0-.884.087-1.914L15.66-3.2a1.844,1.844,0,0,1-.7.769,1.945,1.945,0,0,1-1.008.261h-.667a1.945,1.945,0,0,1-1.008-.261,1.844,1.844,0,0,1-.7-.769L5.945-14.08q.058.508.087,1.008t.029.921V0H1.74V-21.127H5.481q.319,0,.558.015a1.429,1.429,0,0,1,.428.087.973.973,0,0,1,.341.225,1.773,1.773,0,0,1,.3.428ZM39.353,0a2.106,2.106,0,0,1-.964-.174A1.329,1.329,0,0,1,37.845-.9l-.319-.826q-.565.478-1.088.841a6.892,6.892,0,0,1-1.08.616,5.335,5.335,0,0,1-1.189.377,7.317,7.317,0,0,1-1.4.123A6.135,6.135,0,0,1,30.9-.036a3.9,3.9,0,0,1-1.428-.79,3.475,3.475,0,0,1-.906-1.3,4.68,4.68,0,0,1-.319-1.791,3.756,3.756,0,0,1,.406-1.638,4.042,4.042,0,0,1,1.406-1.53,8.939,8.939,0,0,1,2.7-1.153,18.1,18.1,0,0,1,4.278-.522V-9.4a2.757,2.757,0,0,0-.544-1.907,2,2,0,0,0-1.544-.587,4.1,4.1,0,0,0-1.305.174,5.867,5.867,0,0,0-.906.392q-.4.218-.776.391a2.131,2.131,0,0,1-.9.174,1.359,1.359,0,0,1-.79-.225,1.669,1.669,0,0,1-.515-.558l-.812-1.406a9.14,9.14,0,0,1,3.023-1.791,10.6,10.6,0,0,1,3.56-.587,6.51,6.51,0,0,1,2.458.442,5.289,5.289,0,0,1,1.856,1.232,5.386,5.386,0,0,1,1.167,1.878A6.748,6.748,0,0,1,41.412-9.4V0ZM34.191-2.74a3.567,3.567,0,0,0,1.522-.3,4.638,4.638,0,0,0,1.319-.986V-6.119a14.923,14.923,0,0,0-2.219.232,5.389,5.389,0,0,0-1.377.435,1.667,1.667,0,0,0-.7.594,1.407,1.407,0,0,0-.2.725,1.26,1.26,0,0,0,.42,1.08A2.052,2.052,0,0,0,34.191-2.74ZM44.6,0V-15.036H47.27a2.275,2.275,0,0,1,.558.058.979.979,0,0,1,.377.181.774.774,0,0,1,.232.326,2.942,2.942,0,0,1,.138.493l.246,1.406a7.368,7.368,0,0,1,1.856-2.016,3.771,3.771,0,0,1,2.248-.74,2.589,2.589,0,0,1,1.653.493L54-11.528a.645.645,0,0,1-.232.428.787.787,0,0,1-.464.123,3.077,3.077,0,0,1-.58-.065,4.5,4.5,0,0,0-.841-.065A3.087,3.087,0,0,0,49.1-9.222V0ZM62.727,3.9a1.609,1.609,0,0,1-.493.66,1.6,1.6,0,0,1-.928.21H57.942l2.9-6.09-6-13.717h3.973a1.269,1.269,0,0,1,.812.232,1.245,1.245,0,0,1,.406.551L62.5-7.772a14.283,14.283,0,0,1,.565,1.8q.145-.464.319-.913t.333-.913l2.233-6.453a1.1,1.1,0,0,1,.457-.558,1.305,1.305,0,0,1,.732-.225H70.76ZM83.114-3.915h7.83V0H78.213V-21.127h4.9ZM99.383-15.268a8.684,8.684,0,0,1,3.118.536,6.837,6.837,0,0,1,2.414,1.537,6.923,6.923,0,0,1,1.566,2.429,8.762,8.762,0,0,1,.558,3.212,8.921,8.921,0,0,1-.558,3.241,6.972,6.972,0,0,1-1.566,2.451A6.87,6.87,0,0,1,102.5-.312a8.581,8.581,0,0,1-3.118.544,8.681,8.681,0,0,1-3.139-.544,7.006,7.006,0,0,1-2.436-1.551,6.87,6.87,0,0,1-1.58-2.451,8.921,8.921,0,0,1-.558-3.241,8.762,8.762,0,0,1,.558-3.212,6.823,6.823,0,0,1,1.58-2.429,6.972,6.972,0,0,1,2.436-1.537A8.786,8.786,0,0,1,99.383-15.268Zm0,12.165A2.553,2.553,0,0,0,101.667-4.2a6.055,6.055,0,0,0,.732-3.328,6.016,6.016,0,0,0-.732-3.321,2.559,2.559,0,0,0-2.284-1.087,2.622,2.622,0,0,0-2.335,1.087,5.968,5.968,0,0,0-.74,3.321,6.007,6.007,0,0,0,.74,3.328A2.616,2.616,0,0,0,99.383-3.1Zm14.326-11.933V-5.5a2.624,2.624,0,0,0,.507,1.726,1.833,1.833,0,0,0,1.493.609,3.2,3.2,0,0,0,1.385-.3,5.165,5.165,0,0,0,1.254-.856V-15.036h4.5V0H120.06a1.057,1.057,0,0,1-1.1-.754l-.275-.87a8.725,8.725,0,0,1-.9.761,5.5,5.5,0,0,1-.993.58,5.934,5.934,0,0,1-1.138.377,6.048,6.048,0,0,1-1.334.138A5.264,5.264,0,0,1,112.136-.2a4.49,4.49,0,0,1-1.6-1.2,5.217,5.217,0,0,1-.986-1.813,7.5,7.5,0,0,1-.334-2.291v-9.541Zm17.255,0V0h-4.5V-15.036Zm.522-4.118a2.376,2.376,0,0,1-.217,1.008,2.653,2.653,0,0,1-.594.826,2.91,2.91,0,0,1-.877.565,2.722,2.722,0,0,1-1.066.21,2.531,2.531,0,0,1-1.03-.21,2.894,2.894,0,0,1-.848-.565,2.61,2.61,0,0,1-.58-.826,2.445,2.445,0,0,1-.21-1.008,2.531,2.531,0,0,1,.21-1.03,2.672,2.672,0,0,1,.58-.841,2.716,2.716,0,0,1,.848-.565,2.608,2.608,0,0,1,1.03-.2,2.807,2.807,0,0,1,1.066.2,2.737,2.737,0,0,1,.877.565,2.714,2.714,0,0,1,.594.841A2.458,2.458,0,0,1,131.486-19.154Zm12.3,7.409a1.163,1.163,0,0,1-.37.391.97.97,0,0,1-.5.116,1.6,1.6,0,0,1-.638-.138l-.689-.3a7.5,7.5,0,0,0-.834-.3,3.722,3.722,0,0,0-1.059-.138,2.239,2.239,0,0,0-1.312.326,1.052,1.052,0,0,0-.457.906.908.908,0,0,0,.3.7,2.727,2.727,0,0,0,.79.486,10.9,10.9,0,0,0,1.117.4q.623.188,1.276.42a11.361,11.361,0,0,1,1.276.544,4.773,4.773,0,0,1,1.117.769,3.43,3.43,0,0,1,.79,1.109,3.757,3.757,0,0,1,.3,1.566,5.149,5.149,0,0,1-.406,2.059A4.372,4.372,0,0,1,143.267-1.2a5.726,5.726,0,0,1-1.986,1.058,8.948,8.948,0,0,1-2.719.377,8.273,8.273,0,0,1-1.537-.145A10.646,10.646,0,0,1,135.539-.3a8.1,8.1,0,0,1-1.327-.587,5.754,5.754,0,0,1-1.044-.732l1.044-1.653a1.5,1.5,0,0,1,.449-.457,1.248,1.248,0,0,1,.682-.167,1.418,1.418,0,0,1,.7.174l.674.377a5.62,5.62,0,0,0,.848.377,3.678,3.678,0,0,0,1.225.174,3.112,3.112,0,0,0,.884-.109,1.559,1.559,0,0,0,.58-.3,1.187,1.187,0,0,0,.319-.421,1.182,1.182,0,0,0,.1-.478.977.977,0,0,0-.3-.74,2.653,2.653,0,0,0-.8-.5,9.722,9.722,0,0,0-1.124-.392q-.631-.181-1.283-.413a10.308,10.308,0,0,1-1.283-.558,4.414,4.414,0,0,1-1.124-.826,3.841,3.841,0,0,1-.8-1.225,4.526,4.526,0,0,1-.3-1.755,4.571,4.571,0,0,1,.37-1.82,4.225,4.225,0,0,1,1.109-1.515A5.446,5.446,0,0,1,137-14.884a8.024,8.024,0,0,1,2.61-.384,8.391,8.391,0,0,1,1.573.145,8.04,8.04,0,0,1,1.428.406,6.84,6.84,0,0,1,1.218.616,5.849,5.849,0,0,1,.971.776Z" transform="translate(117.403 275.503)" fill="#394049"/>
        <path id="Path_72" data-name="Path 72" d="M13.225-18.212v3.25H5.75v4.25h5.725v3.125H5.75V-3.25h7.475V0H1.5V-18.212ZM15.625,0V-12.962h2.3a1.961,1.961,0,0,1,.481.05.844.844,0,0,1,.325.156.667.667,0,0,1,.2.281,2.536,2.536,0,0,1,.119.425l.213,1.213a6.352,6.352,0,0,1,1.6-1.738,3.251,3.251,0,0,1,1.938-.637,2.232,2.232,0,0,1,1.425.425l-.5,2.85a.556.556,0,0,1-.2.369.679.679,0,0,1-.4.106,2.653,2.653,0,0,1-.5-.056,3.876,3.876,0,0,0-.725-.056A2.662,2.662,0,0,0,19.5-7.95V0ZM25.95,0V-12.962h2.4a1.069,1.069,0,0,1,.606.162.868.868,0,0,1,.344.488l.225.75a9.414,9.414,0,0,1,.775-.65,4.539,4.539,0,0,1,.856-.506,5.082,5.082,0,0,1,.987-.325,5.3,5.3,0,0,1,1.156-.119,4.538,4.538,0,0,1,1.881.369,3.9,3.9,0,0,1,1.381,1.025,4.424,4.424,0,0,1,.85,1.563A6.479,6.479,0,0,1,37.7-8.238V0H33.825V-8.238a2.267,2.267,0,0,0-.437-1.481A1.571,1.571,0,0,0,32.1-10.25a2.7,2.7,0,0,0-1.2.275,4.666,4.666,0,0,0-1.075.737V0ZM46-13.162a6.674,6.674,0,0,1,2.356.4A5.122,5.122,0,0,1,50.194-11.6a5.306,5.306,0,0,1,1.2,1.869,6.858,6.858,0,0,1,.431,2.506,5.47,5.47,0,0,1-.038.712,1.128,1.128,0,0,1-.137.438.523.523,0,0,1-.269.225,1.259,1.259,0,0,1-.431.063H43.475a3.654,3.654,0,0,0,.988,2.356,2.938,2.938,0,0,0,2.063.731,3.692,3.692,0,0,0,1.162-.162,5.865,5.865,0,0,0,.869-.362q.381-.2.7-.363a1.453,1.453,0,0,1,.669-.163.8.8,0,0,1,.7.338L51.75-2.025A5.76,5.76,0,0,1,50.456-.906a6.723,6.723,0,0,1-1.425.675,7.724,7.724,0,0,1-1.463.338A10.975,10.975,0,0,1,46.175.2a7.277,7.277,0,0,1-2.556-.444,5.874,5.874,0,0,1-2.088-1.319,6.222,6.222,0,0,1-1.412-2.175A8.127,8.127,0,0,1,39.6-6.763a6.846,6.846,0,0,1,.444-2.462,6.065,6.065,0,0,1,1.275-2.038,6.071,6.071,0,0,1,2.012-1.387A6.642,6.642,0,0,1,46-13.162Zm.075,2.675a2.335,2.335,0,0,0-1.737.631,3.289,3.289,0,0,0-.825,1.819H48.35a3.42,3.42,0,0,0-.119-.9,2.182,2.182,0,0,0-.388-.781,1.972,1.972,0,0,0-.706-.556A2.415,2.415,0,0,0,46.075-10.488Zm15.9.363a1,1,0,0,1-.319.337.836.836,0,0,1-.431.1,1.378,1.378,0,0,1-.55-.119l-.594-.256a6.469,6.469,0,0,0-.719-.256,3.209,3.209,0,0,0-.912-.119,1.93,1.93,0,0,0-1.131.281.906.906,0,0,0-.394.781.783.783,0,0,0,.256.6,2.351,2.351,0,0,0,.681.419,9.4,9.4,0,0,0,.962.344q.538.162,1.1.363a9.8,9.8,0,0,1,1.1.469,4.114,4.114,0,0,1,.963.663,2.957,2.957,0,0,1,.681.956,3.239,3.239,0,0,1,.256,1.35,4.439,4.439,0,0,1-.35,1.775,3.769,3.769,0,0,1-1.044,1.4,4.936,4.936,0,0,1-1.713.912A7.714,7.714,0,0,1,57.475.2,7.132,7.132,0,0,1,56.15.075a9.178,9.178,0,0,1-1.281-.337,6.98,6.98,0,0,1-1.144-.506,4.96,4.96,0,0,1-.9-.631l.9-1.425a1.3,1.3,0,0,1,.388-.394,1.076,1.076,0,0,1,.588-.144,1.222,1.222,0,0,1,.606.15l.581.325a4.845,4.845,0,0,0,.731.325,3.171,3.171,0,0,0,1.056.15,2.683,2.683,0,0,0,.763-.094,1.344,1.344,0,0,0,.5-.256,1.023,1.023,0,0,0,.275-.362,1.019,1.019,0,0,0,.088-.412.842.842,0,0,0-.263-.637,2.287,2.287,0,0,0-.687-.431,8.382,8.382,0,0,0-.969-.338Q56.837-5.1,56.275-5.3a8.886,8.886,0,0,1-1.106-.481,3.806,3.806,0,0,1-.969-.713,3.311,3.311,0,0,1-.687-1.056,3.9,3.9,0,0,1-.263-1.513,3.941,3.941,0,0,1,.319-1.569,3.642,3.642,0,0,1,.956-1.306,4.7,4.7,0,0,1,1.6-.894,6.918,6.918,0,0,1,2.25-.331,7.234,7.234,0,0,1,1.356.125,6.931,6.931,0,0,1,1.231.35,5.9,5.9,0,0,1,1.05.531,5.042,5.042,0,0,1,.837.669ZM69.6.2a4.57,4.57,0,0,1-1.631-.269,3.24,3.24,0,0,1-1.187-.763,3.25,3.25,0,0,1-.731-1.194,4.621,4.621,0,0,1-.25-1.562v-6.7H64.7a.734.734,0,0,1-.512-.194.731.731,0,0,1-.213-.569v-1.512l2.063-.4.763-3.163a.77.77,0,0,1,.85-.6h2.025v3.788h3.15v2.65h-3.15V-3.85a1.211,1.211,0,0,0,.219.744.739.739,0,0,0,.631.294,1.24,1.24,0,0,0,.356-.044,1.418,1.418,0,0,0,.25-.1q.106-.056.2-.1A.512.512,0,0,1,71.55-3.1a.451.451,0,0,1,.281.081,1.006,1.006,0,0,1,.219.256L73.225-.925a5.348,5.348,0,0,1-1.687.844A6.706,6.706,0,0,1,69.6.2ZM88.45-3.05A7.189,7.189,0,0,0,90-3.2a7.588,7.588,0,0,0,1.275-.4V-6.363h-1.8a.874.874,0,0,1-.625-.213.708.708,0,0,1-.225-.537V-9.437H95.1V-1.75a9.542,9.542,0,0,1-1.456.881,9.407,9.407,0,0,1-1.613.606,12.005,12.005,0,0,1-1.825.35A18.082,18.082,0,0,1,88.125.2a9.549,9.549,0,0,1-3.7-.706,8.991,8.991,0,0,1-2.944-1.95,8.975,8.975,0,0,1-1.95-2.95,9.6,9.6,0,0,1-.706-3.706,10.09,10.09,0,0,1,.675-3.744A8.432,8.432,0,0,1,81.431-15.8a8.762,8.762,0,0,1,3.037-1.925,10.98,10.98,0,0,1,3.981-.687,11.6,11.6,0,0,1,2.138.188,10.516,10.516,0,0,1,1.844.512,8.485,8.485,0,0,1,1.544.775,8.314,8.314,0,0,1,1.25.975L94-14.1a1.361,1.361,0,0,1-.419.413,1,1,0,0,1-.531.15,1.464,1.464,0,0,1-.775-.25q-.5-.3-.944-.519a5.759,5.759,0,0,0-.906-.356,5.939,5.939,0,0,0-.975-.2,9.567,9.567,0,0,0-1.15-.062,5.246,5.246,0,0,0-2.138.419,4.583,4.583,0,0,0-1.619,1.181,5.343,5.343,0,0,0-1.031,1.831,7.382,7.382,0,0,0-.362,2.381,7.664,7.664,0,0,0,.4,2.575,5.532,5.532,0,0,0,1.106,1.9,4.7,4.7,0,0,0,1.675,1.181A5.424,5.424,0,0,0,88.45-3.05Zm15-10.112a7.486,7.486,0,0,1,2.688.462,5.894,5.894,0,0,1,2.081,1.325,5.969,5.969,0,0,1,1.35,2.094,7.554,7.554,0,0,1,.481,2.769,7.69,7.69,0,0,1-.481,2.794,6.01,6.01,0,0,1-1.35,2.113,5.923,5.923,0,0,1-2.081,1.338A7.4,7.4,0,0,1,103.45.2a7.484,7.484,0,0,1-2.706-.469,6.039,6.039,0,0,1-2.1-1.338,5.923,5.923,0,0,1-1.363-2.113A7.69,7.69,0,0,1,96.8-6.513a7.554,7.554,0,0,1,.481-2.769,5.882,5.882,0,0,1,1.363-2.094,6.011,6.011,0,0,1,2.1-1.325A7.574,7.574,0,0,1,103.45-13.162Zm0,10.487a2.2,2.2,0,0,0,1.969-.944,5.219,5.219,0,0,0,.631-2.869,5.186,5.186,0,0,0-.631-2.863,2.206,2.206,0,0,0-1.969-.938,2.261,2.261,0,0,0-2.013.938,5.145,5.145,0,0,0-.637,2.863,5.178,5.178,0,0,0,.637,2.869A2.255,2.255,0,0,0,103.45-2.675Zm14.5-10.487a7.486,7.486,0,0,1,2.688.462,5.894,5.894,0,0,1,2.081,1.325,5.969,5.969,0,0,1,1.35,2.094,7.554,7.554,0,0,1,.481,2.769,7.69,7.69,0,0,1-.481,2.794,6.01,6.01,0,0,1-1.35,2.113,5.923,5.923,0,0,1-2.081,1.338A7.4,7.4,0,0,1,117.95.2a7.484,7.484,0,0,1-2.706-.469,6.039,6.039,0,0,1-2.1-1.338,5.923,5.923,0,0,1-1.363-2.113,7.69,7.69,0,0,1-.481-2.794,7.554,7.554,0,0,1,.481-2.769,5.882,5.882,0,0,1,1.363-2.094,6.011,6.011,0,0,1,2.1-1.325A7.574,7.574,0,0,1,117.95-13.162Zm0,10.487a2.2,2.2,0,0,0,1.969-.944,5.219,5.219,0,0,0,.631-2.869,5.186,5.186,0,0,0-.631-2.863,2.206,2.206,0,0,0-1.969-.938,2.261,2.261,0,0,0-2.013.938,5.145,5.145,0,0,0-.637,2.863,5.178,5.178,0,0,0,.637,2.869A2.255,2.255,0,0,0,117.95-2.675ZM135.775,0a1.07,1.07,0,0,1-.606-.163.868.868,0,0,1-.344-.488l-.3-.987a7.6,7.6,0,0,1-.812.75,5.11,5.11,0,0,1-.919.581,4.859,4.859,0,0,1-1.062.375A5.47,5.47,0,0,1,130.5.2a3.992,3.992,0,0,1-1.875-.45,4.321,4.321,0,0,1-1.487-1.3,6.56,6.56,0,0,1-.981-2.081,10.108,10.108,0,0,1-.356-2.806,8.752,8.752,0,0,1,.4-2.694,6.6,6.6,0,0,1,1.131-2.15,5.253,5.253,0,0,1,1.756-1.419,4.988,4.988,0,0,1,2.262-.512,4.343,4.343,0,0,1,1.694.294,4.889,4.889,0,0,1,1.256.769v-6.562h3.875V0ZM131.85-2.775a3.348,3.348,0,0,0,.769-.081,2.7,2.7,0,0,0,.631-.231,2.754,2.754,0,0,0,.544-.375,4.7,4.7,0,0,0,.506-.525v-5.5a2.562,2.562,0,0,0-.956-.681,2.964,2.964,0,0,0-1.069-.194,2.283,2.283,0,0,0-.988.213,2.012,2.012,0,0,0-.781.681,3.628,3.628,0,0,0-.519,1.219,7.571,7.571,0,0,0-.187,1.813,8.4,8.4,0,0,0,.15,1.725,3.554,3.554,0,0,0,.419,1.131,1.626,1.626,0,0,0,.644.619A1.846,1.846,0,0,0,131.85-2.775Zm14.875-10.387a6.674,6.674,0,0,1,2.356.4,5.122,5.122,0,0,1,1.837,1.163,5.306,5.306,0,0,1,1.2,1.869,6.858,6.858,0,0,1,.431,2.506,5.469,5.469,0,0,1-.038.712,1.128,1.128,0,0,1-.137.438.523.523,0,0,1-.269.225,1.259,1.259,0,0,1-.431.063H144.2a3.654,3.654,0,0,0,.988,2.356,2.938,2.938,0,0,0,2.063.731,3.692,3.692,0,0,0,1.163-.162,5.865,5.865,0,0,0,.869-.362q.381-.2.7-.363a1.453,1.453,0,0,1,.669-.163.8.8,0,0,1,.7.338l1.125,1.387a5.76,5.76,0,0,1-1.294,1.119,6.723,6.723,0,0,1-1.425.675,7.724,7.724,0,0,1-1.463.338A10.975,10.975,0,0,1,146.9.2a7.277,7.277,0,0,1-2.556-.444,5.874,5.874,0,0,1-2.087-1.319,6.222,6.222,0,0,1-1.413-2.175,8.127,8.127,0,0,1-.519-3.025,6.846,6.846,0,0,1,.444-2.462,6.065,6.065,0,0,1,1.275-2.038,6.071,6.071,0,0,1,2.013-1.387A6.642,6.642,0,0,1,146.725-13.162Zm.075,2.675a2.335,2.335,0,0,0-1.738.631,3.289,3.289,0,0,0-.825,1.819h4.837a3.421,3.421,0,0,0-.119-.9,2.182,2.182,0,0,0-.387-.781,1.972,1.972,0,0,0-.706-.556A2.415,2.415,0,0,0,146.8-10.488Zm11.975-8.225V0H154.9V-18.712Zm7.125,0V0h-3.875V-18.712Z" transform="translate(119.403 419.504)" fill="#394049"/>
      </g>
      <path id="Path_54" data-name="Path 54" d="M7.8,0H302.423a7.8,7.8,0,0,1,7.8,7.8V70.24a7.8,7.8,0,0,1-7.8,7.8H7.8A7.8,7.8,0,0,1,0,70.24V7.8A7.8,7.8,0,0,1,7.8,0Z" transform="translate(1126.923 2091.515)" fill="#e9f1fc"/>
      <rect id="Rectangle_180" data-name="Rectangle 180" width="172" height="12" rx="4" transform="translate(1147.616 2112.081)" fill="#2272e2"/>
      <rect id="Rectangle_181" data-name="Rectangle 181" width="144" height="9" rx="4" transform="translate(1147.616 2139.081)" fill="#2272e2"/>
      <g id="Group_22" data-name="Group 22" transform="translate(1127.362 2288.465)">
        <rect id="Rectangle_187" data-name="Rectangle 187" width="358" height="99" rx="4" transform="translate(0.254 -0.384)" fill="#e9f1fc"/>
        <rect id="Rectangle_186" data-name="Rectangle 186" width="303" height="14" rx="4" transform="translate(20.254 19.616)" fill="#2272e2"/>
        <rect id="Rectangle_185" data-name="Rectangle 185" width="237" height="9" rx="4" transform="translate(20.254 47.616)" fill="#2272e2"/>
        <rect id="Rectangle_188" data-name="Rectangle 188" width="112" height="10" rx="4" transform="translate(20.254 69.616)" fill="#2272e2"/>
      </g>
      <path id="Path_53" data-name="Path 53" d="M5.853,0H702.4a5.853,5.853,0,0,1,5.853,5.853V52.68H0V5.853A5.853,5.853,0,0,1,5.853,0Z" transform="translate(1029.367 1997.861)" fill="#2272e2"/>
      <ellipse id="Ellipse_12" data-name="Ellipse 12" cx="15.5" cy="15" rx="15.5" ry="15" transform="translate(1080.616 2139.081)" fill="#e9f1fc"/>
      <ellipse id="Ellipse_16" data-name="Ellipse 16" cx="10" cy="9.5" rx="10" ry="9.5" transform="translate(1048.616 2014.081)" fill="#fafbff"/>
      <ellipse id="Ellipse_17" data-name="Ellipse 17" cx="10" cy="9.5" rx="10" ry="9.5" transform="translate(1076.616 2014.081)" fill="#fafbff"/>
      <circle id="Ellipse_18" data-name="Ellipse 18" cx="9.5" cy="9.5" r="9.5" transform="translate(1103.616 2014.081)" fill="#fafbff"/>
      <ellipse id="Ellipse_13" data-name="Ellipse 13" cx="15.5" cy="15" rx="15.5" ry="15" transform="translate(1080.616 2357.081)" fill="#e9f1fc"/>
      <rect id="Rectangle_371" data-name="Rectangle 371" width="172" height="14" rx="4" transform="translate(1756.616 2173.081)" fill="#fff"/>
      <rect id="Rectangle_372" data-name="Rectangle 372" width="144" height="10" rx="4" transform="translate(1756.616 2201.081)" fill="#fff"/>
    </g>
  </g>
</svg>
