<svg xmlns="http://www.w3.org/2000/svg" xmlns:xlink="http://www.w3.org/1999/xlink" width="1090" height="903.119" viewBox="0 0 1090 903.119">
  <defs>
    <linearGradient id="linear-gradient" x1="-0.456" y1="-0.272" x2="1" y2="0.826" gradientUnits="objectBoundingBox">
      <stop offset="0" stop-color="#f58597"/>
      <stop offset="1" stop-color="#fff"/>
    </linearGradient>
    <filter id="Path_9" x="496.303" y="139.451" width="392.987" height="602.057" filterUnits="userSpaceOnUse">
      <feOffset dx="3" dy="3" input="SourceAlpha"/>
      <feGaussianBlur stdDeviation="9.5" result="blur"/>
      <feFlood flood-color="#03060d" flood-opacity="0.141"/>
      <feComposite operator="in" in2="blur"/>
      <feComposite in="SourceGraphic"/>
    </filter>
    <filter id="Rectangle_125" x="524" y="180" width="327" height="213" filterUnits="userSpaceOnUse">
      <feOffset input="SourceAlpha"/>
      <feGaussianBlur stdDeviation="3" result="blur-2"/>
      <feFlood flood-opacity="0.071"/>
      <feComposite operator="in" in2="blur-2"/>
      <feComposite in="SourceGraphic"/>
    </filter>
    <filter id="Rectangle_133" x="536" y="550" width="151" height="68" filterUnits="userSpaceOnUse">
      <feOffset input="SourceAlpha"/>
      <feGaussianBlur stdDeviation="3" result="blur-3"/>
      <feFlood flood-opacity="0.071"/>
      <feComposite operator="in" in2="blur-3"/>
      <feComposite in="SourceGraphic"/>
    </filter>
    <filter id="Rectangle_134" x="679" y="550" width="152" height="68" filterUnits="userSpaceOnUse">
      <feOffset input="SourceAlpha"/>
      <feGaussianBlur stdDeviation="3" result="blur-4"/>
      <feFlood flood-opacity="0.071"/>
      <feComposite operator="in" in2="blur-4"/>
      <feComposite in="SourceGraphic"/>
    </filter>
    <linearGradient id="linear-gradient-6" x1="0.5" x2="0.5" y2="1" gradientUnits="objectBoundingBox">
      <stop offset="0" stop-color="#68d8b6"/>
      <stop offset="0.759" stop-color="#c0efe0" stop-opacity="0.255"/>
      <stop offset="1" stop-color="#fff" stop-opacity="0"/>
    </linearGradient>
    <filter id="Path_11" x="93.131" y="360.533" width="422.201" height="552.598" filterUnits="userSpaceOnUse">
      <feOffset dx="3" dy="3" input="SourceAlpha"/>
      <feGaussianBlur stdDeviation="9.5" result="blur-5"/>
      <feFlood flood-color="#03060d" flood-opacity="0.141"/>
      <feComposite operator="in" in2="blur-5"/>
      <feComposite in="SourceGraphic"/>
    </filter>
    <filter id="Rectangle_157" x="127" y="539" width="346" height="172" filterUnits="userSpaceOnUse">
      <feOffset input="SourceAlpha"/>
      <feGaussianBlur stdDeviation="3" result="blur-6"/>
      <feFlood flood-opacity="0.071"/>
      <feComposite operator="in" in2="blur-6"/>
      <feComposite in="SourceGraphic"/>
    </filter>
    <filter id="Rectangle_162" x="127" y="706" width="346" height="166" filterUnits="userSpaceOnUse">
      <feOffset input="SourceAlpha"/>
      <feGaussianBlur stdDeviation="3" result="blur-7"/>
      <feFlood flood-opacity="0.071"/>
      <feComposite operator="in" in2="blur-7"/>
      <feComposite in="SourceGraphic"/>
    </filter>
    <filter id="Rectangle_142" x="79" y="300" width="490" height="275" filterUnits="userSpaceOnUse">
      <feOffset input="SourceAlpha"/>
      <feGaussianBlur stdDeviation="8" result="blur-8"/>
      <feFlood flood-opacity="0.2"/>
      <feComposite operator="in" in2="blur-8"/>
      <feComposite in="SourceGraphic"/>
    </filter>
    <clipPath id="clip-Image_06">
      <rect width="1090" height="903.12"/>
    </clipPath>
  </defs>
  <g id="Image_06" data-name="Image 06" clip-path="url(#clip-Image_06)">
    <rect width="1090" height="903.12" fill="rgba(255,255,255,0)"/>
    <g id="Group_71" data-name="Group 71" transform="translate(-831.071 -5589.338)">
      <g id="Group_9" data-name="Group 9" transform="translate(900.291 5589.338)" opacity="0.184">
        <ellipse id="Ellipse_2" data-name="Ellipse 2" cx="178" cy="179" rx="178" ry="179" transform="translate(65.78 65)" fill="url(#linear-gradient)"/>
        <ellipse id="Ellipse_3" data-name="Ellipse 3" cx="157.5" cy="157" rx="157.5" ry="157" transform="translate(637.78 87)" fill="url(#linear-gradient)"/>
        <ellipse id="Ellipse_5" data-name="Ellipse 5" cx="131.5" cy="131" rx="131.5" ry="131" transform="translate(555.78 586)" fill="url(#linear-gradient)"/>
        <ellipse id="Ellipse_4" data-name="Ellipse 4" cx="55.5" cy="55" rx="55.5" ry="55" transform="translate(-0.22 643)" fill="url(#linear-gradient)"/>
        <circle id="Ellipse_6" data-name="Ellipse 6" cx="32.5" cy="32.5" r="32.5" transform="translate(760.78 0)" fill="url(#linear-gradient)"/>
      </g>
      <g id="Group_10" data-name="Group 10" transform="translate(1309.737 5754.289)">
        <g transform="matrix(1, 0, 0, 1, -478.67, -164.95)" filter="url(#Path_9)">
          <g id="Path_9-2" data-name="Path 9" transform="translate(521.8 164.95)" fill="#fafbff">
            <path d="M 325.1491088867188 544.5576171875 L 10.83829784393311 544.5576171875 C 9.503897666931152 544.5576171875 8.197964668273926 543.9827270507812 6.956764698028564 542.8489379882812 C 5.715431690216064 541.7150268554688 4.595564842224121 540.080810546875 3.628231525421143 537.99169921875 C 1.610964775085449 533.635009765625 0.5000314712524414 527.83154296875 0.5000314712524414 521.6502075195312 L 0.5000314712524414 23.40740776062012 C 0.5000314712524414 17.22607612609863 1.610964775085449 11.42254161834717 3.628231525421143 7.06594181060791 C 4.595564842224121 4.976808547973633 5.715431690216064 3.342541933059692 6.956764698028564 2.208608627319336 C 8.197964668273926 1.074875235557556 9.503897666931152 0.5000085830688477 10.83829784393311 0.5000085830688477 L 325.1491088867188 0.5000085830688477 C 326.4834899902344 0.5000085830688477 327.7894897460938 1.074875235557556 329.0306396484375 2.208608627319336 C 330.27197265625 3.342541933059692 331.3919067382812 4.976808547973633 332.3592224121094 7.06594181060791 C 334.3764953613281 11.42254161834717 335.4874267578125 17.22607612609863 335.4874267578125 23.40740776062012 L 335.4874267578125 521.6502075195312 C 335.4874267578125 527.83154296875 334.3764953613281 533.635009765625 332.3592224121094 537.99169921875 C 331.3919067382812 540.080810546875 330.27197265625 541.7150268554688 329.0306396484375 542.8489379882812 C 327.7894287109375 543.9827270507812 326.4834899902344 544.5576171875 325.1491088867188 544.5576171875 Z" stroke="none"/>
            <path d="M 10.83828735351562 1 C 9.632568359375 1 8.440093994140625 1.5308837890625 7.293975830078125 2.57781982421875 C 6.101898193359375 3.666748046875 5.021240234375 5.24749755859375 4.0819091796875 7.27606201171875 C 2.094512939453125 11.56829833984375 0.999969482421875 17.297119140625 0.999969482421875 23.40740966796875 L 0.999969482421875 521.6502075195312 C 0.999969482421875 527.760498046875 2.094512939453125 533.4893188476562 4.0819091796875 537.7815551757812 C 5.021240234375 539.8101196289062 6.101898193359375 541.390869140625 7.293975830078125 542.4797973632812 C 8.440093994140625 543.5267333984375 9.632568359375 544.0576171875 10.83828735351562 544.0576171875 L 325.1491088867188 544.0576171875 C 326.3548278808594 544.0576171875 327.5473022460938 543.5267333984375 328.693359375 542.4797973632812 C 329.885498046875 541.390869140625 330.9661560058594 539.8101196289062 331.9054260253906 537.7815551757812 C 333.892822265625 533.4893798828125 334.9873657226562 527.760498046875 334.9873657226562 521.6502075195312 L 334.9873657226562 23.40740966796875 C 334.9873657226562 17.297119140625 333.892822265625 11.5682373046875 331.9054260253906 7.27606201171875 C 330.9661560058594 5.24749755859375 329.885498046875 3.666748046875 328.693359375 2.57781982421875 C 327.5473022460938 1.5308837890625 326.3548278808594 1 325.1491088867188 1 L 10.83828735351562 1 M 10.83828735351562 0 L 325.1491088867188 0 C 331.1348876953125 0 335.9873657226562 10.4798583984375 335.9873657226562 23.40740966796875 L 335.9873657226562 521.6502075195312 C 335.9873657226562 534.5777587890625 331.1348876953125 545.0576171875 325.1491088867188 545.0576171875 L 10.83828735351562 545.0576171875 C 4.852508544921875 545.0576171875 -3.0517578125e-05 534.5777587890625 -3.0517578125e-05 521.6502075195312 L -3.0517578125e-05 23.40740966796875 C -3.0517578125e-05 10.4798583984375 4.852508544921875 0 10.83828735351562 0 Z" stroke="none" fill="#fafbff"/>
          </g>
        </g>
        <g transform="matrix(1, 0, 0, 1, -478.67, -164.95)" filter="url(#Rectangle_125)">
          <rect id="Rectangle_125-2" data-name="Rectangle 125" width="309" height="195" rx="8" transform="translate(533 189)" fill="#fff"/>
        </g>
        <g transform="matrix(1, 0, 0, 1, -478.67, -164.95)" filter="url(#Rectangle_133)">
          <rect id="Rectangle_133-2" data-name="Rectangle 133" width="133" height="50" rx="8" transform="translate(545 559)" fill="#2271e2"/>
        </g>
        <g transform="matrix(1, 0, 0, 1, -478.67, -164.95)" filter="url(#Rectangle_134)">
          <rect id="Rectangle_134-2" data-name="Rectangle 134" width="134" height="50" rx="8" transform="translate(688 559)" fill="#2271e2"/>
        </g>
        <rect id="Rectangle_126" data-name="Rectangle 126" width="72" height="16" rx="4" transform="translate(77.334 61.049)" fill="#68d8b6"/>
        <rect id="Rectangle_127" data-name="Rectangle 127" width="73" height="16" rx="4" transform="translate(174.334 61.049)" fill="#f5647e"/>
        <rect id="Rectangle_128" data-name="Rectangle 128" width="71" height="16" rx="4" transform="translate(270.334 61.049)" fill="#2272e2"/>
        <rect id="Rectangle_129" data-name="Rectangle 129" width="203" height="9" rx="4" transform="translate(79.334 105.049)" fill="#afb5bd"/>
        <rect id="Rectangle_130" data-name="Rectangle 130" width="141" height="9" rx="4" transform="translate(79.334 125.049)" fill="#afb5bd"/>
        <rect id="Rectangle_131" data-name="Rectangle 131" width="141" height="8" rx="4" transform="translate(79.334 149.049)" fill="#afb5bd"/>
        <rect id="Rectangle_135" data-name="Rectangle 135" width="101" height="6" rx="3" transform="translate(82.334 418.049)" fill="#fff"/>
        <rect id="Rectangle_137" data-name="Rectangle 137" width="101" height="18" rx="4" transform="translate(80.334 469.049)" fill="#afb5bd"/>
        <rect id="Rectangle_138" data-name="Rectangle 138" width="263" height="10" rx="4" transform="translate(80.334 500.049)" fill="#afb5bd"/>
        <rect id="Rectangle_136" data-name="Rectangle 136" width="100" height="6" rx="3" transform="translate(228.334 418.049)" fill="#fff"/>
        <rect id="Rectangle_132" data-name="Rectangle 132" width="187" height="9" rx="4" transform="translate(79.334 172.049)" fill="#afb5bd"/>
        <path id="Path_10" data-name="Path 10" d="M3161.986,5740.93s61.777,12.08,95.495-11.807,43.2-74.076,61.729-103.881,41.153-36.631,56.6-28.078,27.222,43.683,46.241,91.19,41.191,40.053,49.789,30.75,13.175-18.805,25.557-55.646,40.729-27.506,47.532-7.1,29.567,64.657,71.36,84.568" transform="translate(-3161.986 -5388.485)" stroke="#68d8b6" stroke-linecap="round" stroke-width="2" fill="url(#linear-gradient-6)"/>
      </g>
      <g id="Group_8" data-name="Group 8" transform="translate(934.212 5913.582)">
        <g transform="matrix(1, 0, 0, 1, -103.14, -324.24)" filter="url(#Path_11)">
          <g id="Path_11-2" data-name="Path 11" transform="translate(118.63 386.03)" fill="#fafbff">
            <path d="M 353.42041015625 495.0969848632812 L 11.78071212768555 495.0969848632812 C 10.30258750915527 495.0969848632812 8.861900329589844 494.5688171386719 7.498712539672852 493.5271911621094 C 6.151087284088135 492.4973754882812 4.936212539672852 491.0149841308594 3.887962341308594 489.1211242675781 C 1.703212380409241 485.1741027832031 0.5000249147415161 479.9154357910156 0.5000249147415161 474.3136901855469 L 0.5000249147415161 21.28330421447754 C 0.5000249147415161 15.68161773681641 1.703212380409241 10.42286777496338 3.887962341308594 6.47586727142334 C 4.936212539672852 4.58205509185791 6.151087284088135 3.099617481231689 7.498712539672852 2.069804906845093 C 8.861900329589844 1.028179883956909 10.30258750915527 0.4999924302101135 11.78071212768555 0.4999924302101135 L 353.42041015625 0.4999924302101135 C 354.8985290527344 0.4999924302101135 356.3392028808594 1.028179883956909 357.702392578125 2.069804906845093 C 359.0500183105469 3.099617481231689 360.2648315429688 4.58205509185791 361.3131408691406 6.47586727142334 C 363.4978942871094 10.42292976379395 364.7010803222656 15.68161773681641 364.7010803222656 21.28330421447754 L 364.7010803222656 474.3136901855469 C 364.7010803222656 479.9153747558594 363.4978942871094 485.1741027832031 361.3131408691406 489.1211242675781 C 360.2648315429688 491.0149841308594 359.0500183105469 492.4973754882812 357.702392578125 493.5271911621094 C 356.3392028808594 494.5688171386719 354.8985290527344 495.0969848632812 353.42041015625 495.0969848632812 Z" stroke="none"/>
            <path d="M 11.7806396484375 1 C 10.41476440429688 1 9.076263427734375 1.493621826171875 7.802276611328125 2.467132568359375 C 6.50982666015625 3.454742431640625 5.34002685546875 4.884918212890625 4.325408935546875 6.717987060546875 C 2.18096923828125 10.59219360351562 0.999969482421875 15.76492309570312 0.999969482421875 21.28329467773438 L 0.999969482421875 474.3136901855469 C 0.999969482421875 479.8321228027344 2.18096923828125 485.0047912597656 4.325408935546875 488.8789978027344 C 5.34002685546875 490.7120666503906 6.50982666015625 492.1422424316406 7.802276611328125 493.1298522949219 C 9.076263427734375 494.1033630371094 10.41476440429688 494.5969848632812 11.7806396484375 494.5969848632812 L 353.42041015625 494.5969848632812 C 354.7862854003906 494.5969848632812 356.1247863769531 494.1033630371094 357.3987731933594 493.1298522949219 C 358.6912231445312 492.1422424316406 359.8610229492188 490.7120666503906 360.8756408691406 488.8789978027344 C 363.02001953125 485.0048828125 364.2010192871094 479.8321228027344 364.2010192871094 474.3136901855469 L 364.2010192871094 21.28329467773438 C 364.2010192871094 15.76486206054688 363.02001953125 10.59219360351562 360.8756408691406 6.717987060546875 C 359.8610229492188 4.884918212890625 358.6912231445312 3.454742431640625 357.3987731933594 2.467132568359375 C 356.1247863769531 1.493621826171875 354.7862854003906 1 353.42041015625 1 L 11.7806396484375 1 M 11.7806396484375 0 L 353.42041015625 0 C 359.9266357421875 0 365.2010192871094 9.52886962890625 365.2010192871094 21.28329467773438 L 365.2010192871094 474.3136901855469 C 365.2010192871094 486.0681762695312 359.9266357421875 495.5969848632812 353.42041015625 495.5969848632812 L 11.7806396484375 495.5969848632812 C 5.2744140625 495.5969848632812 -3.0517578125e-05 486.0681762695312 -3.0517578125e-05 474.3136901855469 L -3.0517578125e-05 21.28329467773438 C -3.0517578125e-05 9.52886962890625 5.2744140625 0 11.7806396484375 0 Z" stroke="none" fill="#fafbff"/>
          </g>
        </g>
        <g transform="matrix(1, 0, 0, 1, -103.14, -324.24)" filter="url(#Rectangle_157)">
          <rect id="Rectangle_157-2" data-name="Rectangle 157" width="328" height="154" rx="8" transform="translate(136 548)" fill="#fff"/>
        </g>
        <path id="Path_85" data-name="Path 85" d="M8.14-5.808A8.349,8.349,0,0,1,7.8-3.366,5.16,5.16,0,0,1,6.793-1.479a4.546,4.546,0,0,1-1.7,1.221A6.131,6.131,0,0,1,2.684.176,11.506,11.506,0,0,1,1.447.11,10.625,10.625,0,0,1,.176-.11l.2-2.167A.651.651,0,0,1,.6-2.739a.838.838,0,0,1,.567-.176,2.218,2.218,0,0,1,.462.06,3.114,3.114,0,0,0,.66.06,2.708,2.708,0,0,0,.941-.148,1.458,1.458,0,0,0,.665-.495,2.384,2.384,0,0,0,.4-.908,6.165,6.165,0,0,0,.132-1.386v-10.3H8.14Zm5.83-5.6v7.238a1.99,1.99,0,0,0,.385,1.309,1.391,1.391,0,0,0,1.133.462,2.43,2.43,0,0,0,1.05-.231,3.918,3.918,0,0,0,.952-.649v-8.129H20.9V0H18.788a.8.8,0,0,1-.836-.572l-.209-.66a6.619,6.619,0,0,1-.682.577,4.174,4.174,0,0,1-.754.44,4.5,4.5,0,0,1-.863.286,4.588,4.588,0,0,1-1.012.1,3.994,3.994,0,0,1-1.656-.325,3.406,3.406,0,0,1-1.215-.907,3.958,3.958,0,0,1-.748-1.375,5.687,5.687,0,0,1-.253-1.738v-7.238ZM31.416,0a1.6,1.6,0,0,1-.732-.132,1.008,1.008,0,0,1-.413-.55l-.242-.627q-.429.363-.825.638a5.229,5.229,0,0,1-.819.468,4.047,4.047,0,0,1-.9.286,5.551,5.551,0,0,1-1.062.094A4.654,4.654,0,0,1,25-.027a2.96,2.96,0,0,1-1.083-.6,2.636,2.636,0,0,1-.687-.985A3.55,3.55,0,0,1,22.99-2.97,2.849,2.849,0,0,1,23.3-4.213a3.066,3.066,0,0,1,1.067-1.161,6.781,6.781,0,0,1,2.046-.875,13.728,13.728,0,0,1,3.245-.4v-.484a2.091,2.091,0,0,0-.412-1.446,1.517,1.517,0,0,0-1.172-.445,3.108,3.108,0,0,0-.99.132,4.451,4.451,0,0,0-.687.3q-.3.165-.588.3a1.616,1.616,0,0,1-.682.132,1.031,1.031,0,0,1-.6-.17,1.266,1.266,0,0,1-.391-.424l-.616-1.067a6.934,6.934,0,0,1,2.293-1.358,8.04,8.04,0,0,1,2.7-.446,4.939,4.939,0,0,1,1.865.336,4.012,4.012,0,0,1,1.408.935,4.086,4.086,0,0,1,.885,1.424,5.119,5.119,0,0,1,.308,1.8V0ZM27.5-2.079a2.706,2.706,0,0,0,1.155-.231,3.519,3.519,0,0,0,1-.748V-4.642a11.321,11.321,0,0,0-1.683.176,4.088,4.088,0,0,0-1.045.33,1.265,1.265,0,0,0-.534.451,1.067,1.067,0,0,0-.149.55.956.956,0,0,0,.319.819A1.556,1.556,0,0,0,27.5-2.079ZM35.4,0V-11.407H37.51a.941.941,0,0,1,.534.143.764.764,0,0,1,.3.429l.2.66a8.285,8.285,0,0,1,.682-.572,3.994,3.994,0,0,1,.754-.446,4.472,4.472,0,0,1,.869-.286,4.663,4.663,0,0,1,1.017-.1,3.994,3.994,0,0,1,1.656.325,3.435,3.435,0,0,1,1.215.9,3.893,3.893,0,0,1,.748,1.375,5.7,5.7,0,0,1,.253,1.733V0h-3.41V-7.249a2,2,0,0,0-.385-1.3A1.383,1.383,0,0,0,40.81-9.02a2.373,2.373,0,0,0-1.056.242,4.106,4.106,0,0,0-.946.649V0ZM61.336-12.771a1.4,1.4,0,0,1-.346.4.775.775,0,0,1-.468.132,1.144,1.144,0,0,1-.544-.16q-.291-.159-.66-.357a5.477,5.477,0,0,0-.841-.358,3.367,3.367,0,0,0-1.078-.16,2.32,2.32,0,0,0-1.556.446,1.516,1.516,0,0,0-.511,1.2,1.11,1.11,0,0,0,.308.8,2.655,2.655,0,0,0,.808.55,8.666,8.666,0,0,0,1.144.424q.644.192,1.314.429a11.755,11.755,0,0,1,1.314.556,4.384,4.384,0,0,1,1.144.814,3.8,3.8,0,0,1,.809,1.2,4.283,4.283,0,0,1,.308,1.71A5.574,5.574,0,0,1,62.1-3.058,4.868,4.868,0,0,1,60.979-1.37a5.182,5.182,0,0,1-1.8,1.133,6.749,6.749,0,0,1-2.437.413A7.81,7.81,0,0,1,55.215.022a9.048,9.048,0,0,1-1.5-.435,8.707,8.707,0,0,1-1.364-.665,5.8,5.8,0,0,1-1.111-.858l1.1-1.738a.9.9,0,0,1,.341-.319.966.966,0,0,1,.473-.121,1.252,1.252,0,0,1,.666.209q.336.209.759.462a6.177,6.177,0,0,0,.973.462,3.65,3.65,0,0,0,1.3.209,2.471,2.471,0,0,0,1.573-.445,1.7,1.7,0,0,0,.561-1.414,1.336,1.336,0,0,0-.308-.913,2.379,2.379,0,0,0-.808-.583,7.449,7.449,0,0,0-1.139-.407q-.638-.176-1.309-.39a9.577,9.577,0,0,1-1.309-.528,4.131,4.131,0,0,1-1.139-.825,3.861,3.861,0,0,1-.809-1.276,5.066,5.066,0,0,1-.308-1.886,4.476,4.476,0,0,1,.363-1.76,4.543,4.543,0,0,1,1.067-1.529A5.246,5.246,0,0,1,55.011-15.8a6.378,6.378,0,0,1,2.343-.4,8.786,8.786,0,0,1,1.436.116,7.546,7.546,0,0,1,1.325.341,7.279,7.279,0,0,1,1.172.539,5.4,5.4,0,0,1,.974.71Zm1.672,1.364h2.728a1.159,1.159,0,0,1,.627.165.657.657,0,0,1,.319.429L67.826-5.7q.132.583.242,1.133t.2,1.089q.154-.539.325-1.083T68.926-5.7l1.43-5.126a.73.73,0,0,1,.319-.424,1.018,1.018,0,0,1,.583-.17h1.518a1.1,1.1,0,0,1,.621.17.725.725,0,0,1,.325.424L75.086-5.7q.154.583.313,1.133t.3,1.111q.088-.55.215-1.095t.27-1.149l1.21-5.115a.661.661,0,0,1,.314-.429,1.07,1.07,0,0,1,.588-.165h2.6L77.352,0H74.58a.555.555,0,0,1-.374-.132.889.889,0,0,1-.242-.44L72.336-6.259q-.11-.385-.209-.759t-.176-.748q-.077.385-.17.764t-.215.765L69.916-.572A.7.7,0,0,1,69.19,0H66.55Zm24.09-.176a5.873,5.873,0,0,1,2.073.352,4.507,4.507,0,0,1,1.617,1.023,4.669,4.669,0,0,1,1.056,1.644,6.035,6.035,0,0,1,.38,2.206,4.813,4.813,0,0,1-.033.627.992.992,0,0,1-.121.385.461.461,0,0,1-.237.2,1.108,1.108,0,0,1-.38.055H84.876a3.216,3.216,0,0,0,.869,2.073,2.586,2.586,0,0,0,1.815.644,3.249,3.249,0,0,0,1.023-.143,5.161,5.161,0,0,0,.764-.319q.336-.176.616-.319a1.279,1.279,0,0,1,.588-.143.7.7,0,0,1,.616.3l.99,1.221A5.069,5.069,0,0,1,91.02-.8,5.916,5.916,0,0,1,89.765-.2a6.8,6.8,0,0,1-1.287.3,9.658,9.658,0,0,1-1.227.083A6.4,6.4,0,0,1,85-.215a5.169,5.169,0,0,1-1.837-1.16,5.476,5.476,0,0,1-1.243-1.914,7.152,7.152,0,0,1-.457-2.662,6.024,6.024,0,0,1,.391-2.167,5.337,5.337,0,0,1,1.122-1.793,5.342,5.342,0,0,1,1.771-1.221A5.845,5.845,0,0,1,87.1-11.583Zm.066,2.354a2.055,2.055,0,0,0-1.529.556,2.894,2.894,0,0,0-.726,1.6h4.257a3.01,3.01,0,0,0-.1-.792,1.92,1.92,0,0,0-.341-.687,1.735,1.735,0,0,0-.621-.49A2.125,2.125,0,0,0,87.164-9.229ZM94.182,0V-11.407h2.112a.941.941,0,0,1,.534.143.764.764,0,0,1,.3.429l.2.66a8.283,8.283,0,0,1,.682-.572,3.994,3.994,0,0,1,.753-.446,4.472,4.472,0,0,1,.869-.286,4.663,4.663,0,0,1,1.018-.1,3.994,3.994,0,0,1,1.655.325,3.435,3.435,0,0,1,1.215.9,3.893,3.893,0,0,1,.748,1.375,5.7,5.7,0,0,1,.253,1.733V0h-3.41V-7.249a2,2,0,0,0-.385-1.3,1.383,1.383,0,0,0-1.133-.467,2.373,2.373,0,0,0-1.056.242,4.106,4.106,0,0,0-.946.649V0Zm19.734-8.91a.882.882,0,0,1-.281.3.736.736,0,0,1-.379.088,1.212,1.212,0,0,1-.484-.1l-.522-.226a5.693,5.693,0,0,0-.632-.225,2.824,2.824,0,0,0-.8-.1,1.7,1.7,0,0,0-1,.247.8.8,0,0,0-.347.688.689.689,0,0,0,.226.528,2.069,2.069,0,0,0,.6.369,8.269,8.269,0,0,0,.847.3q.473.143.968.319a8.62,8.62,0,0,1,.968.412,3.621,3.621,0,0,1,.847.583,2.6,2.6,0,0,1,.6.841,2.85,2.85,0,0,1,.225,1.188,3.906,3.906,0,0,1-.308,1.562,3.317,3.317,0,0,1-.918,1.232,4.344,4.344,0,0,1-1.507.8,6.788,6.788,0,0,1-2.062.286,6.276,6.276,0,0,1-1.166-.11,8.077,8.077,0,0,1-1.128-.3,6.143,6.143,0,0,1-1.007-.446,4.365,4.365,0,0,1-.792-.555l.792-1.254A1.14,1.14,0,0,1,107-2.832a.947.947,0,0,1,.517-.126,1.076,1.076,0,0,1,.534.132l.511.286a4.264,4.264,0,0,0,.644.286,2.79,2.79,0,0,0,.93.132,2.361,2.361,0,0,0,.671-.082,1.182,1.182,0,0,0,.44-.226.9.9,0,0,0,.242-.319.9.9,0,0,0,.077-.363.741.741,0,0,0-.231-.561,2.013,2.013,0,0,0-.605-.38,7.375,7.375,0,0,0-.852-.3q-.479-.138-.974-.313a7.82,7.82,0,0,1-.974-.424,3.349,3.349,0,0,1-.852-.627,2.913,2.913,0,0,1-.605-.929,3.433,3.433,0,0,1-.231-1.331,3.468,3.468,0,0,1,.281-1.38,3.205,3.205,0,0,1,.841-1.149,4.132,4.132,0,0,1,1.408-.786,6.087,6.087,0,0,1,1.98-.292,6.366,6.366,0,0,1,1.194.11,6.1,6.1,0,0,1,1.083.308,5.19,5.19,0,0,1,.924.467,4.437,4.437,0,0,1,.737.589Zm7.788-2.673a6.588,6.588,0,0,1,2.365.407A5.187,5.187,0,0,1,125.9-10.01a5.252,5.252,0,0,1,1.188,1.842,6.647,6.647,0,0,1,.424,2.437,6.767,6.767,0,0,1-.424,2.459A5.289,5.289,0,0,1,125.9-1.413a5.212,5.212,0,0,1-1.832,1.177A6.509,6.509,0,0,1,121.7.176a6.586,6.586,0,0,1-2.382-.413,5.314,5.314,0,0,1-1.848-1.177,5.212,5.212,0,0,1-1.2-1.859,6.767,6.767,0,0,1-.424-2.459,6.647,6.647,0,0,1,.424-2.437,5.176,5.176,0,0,1,1.2-1.842,5.289,5.289,0,0,1,1.848-1.166A6.665,6.665,0,0,1,121.7-11.583Zm0,9.229a1.937,1.937,0,0,0,1.732-.83,4.593,4.593,0,0,0,.556-2.525,4.564,4.564,0,0,0-.556-2.519,1.941,1.941,0,0,0-1.732-.825,1.989,1.989,0,0,0-1.771.825,4.528,4.528,0,0,0-.561,2.519,4.557,4.557,0,0,0,.561,2.525A1.985,1.985,0,0,0,121.7-2.354ZM129.382,0V-11.407h2.112a.941.941,0,0,1,.533.143.764.764,0,0,1,.3.429l.2.66a8.285,8.285,0,0,1,.682-.572,3.994,3.994,0,0,1,.754-.446,4.472,4.472,0,0,1,.869-.286,4.663,4.663,0,0,1,1.018-.1,3.994,3.994,0,0,1,1.656.325,3.436,3.436,0,0,1,1.215.9,3.893,3.893,0,0,1,.748,1.375,5.7,5.7,0,0,1,.253,1.733V0h-3.41V-7.249a2,2,0,0,0-.385-1.3,1.383,1.383,0,0,0-1.133-.467,2.373,2.373,0,0,0-1.056.242,4.106,4.106,0,0,0-.946.649V0Z" transform="translate(124.859 278.755)" fill="#394049"/>
        <g transform="matrix(1, 0, 0, 1, -103.14, -324.24)" filter="url(#Rectangle_162)">
          <rect id="Rectangle_162-2" data-name="Rectangle 162" width="328" height="148" rx="8" transform="translate(136 715)" fill="#fff"/>
        </g>
        <rect id="Rectangle_159" data-name="Rectangle 159" width="133" height="12" rx="4" transform="translate(124.859 303.756)" fill="#afb5bd"/>
        <rect id="Rectangle_164" data-name="Rectangle 164" width="133" height="12" rx="4" transform="translate(124.859 469.756)" fill="#afb5bd"/>
        <rect id="Rectangle_158" data-name="Rectangle 158" width="107" height="12" rx="4" transform="translate(124.859 324.756)" fill="#afb5bd"/>
        <rect id="Rectangle_163" data-name="Rectangle 163" width="107" height="12" rx="4" transform="translate(124.859 491.756)" fill="#afb5bd"/>
        <g id="account_circle-24px" transform="translate(56.276 241.59)">
          <path id="Path_5" data-name="Path 5" d="M0,0H56.264V56.264H0Z" fill="none"/>
          <path id="Path_6" data-name="Path 6" d="M30.527,7.083A23.443,23.443,0,1,0,53.97,30.527,23.452,23.452,0,0,0,30.527,7.083Zm0,7.033a7.033,7.033,0,1,1-7.033,7.033A7.024,7.024,0,0,1,30.527,14.116Zm0,33.29a16.88,16.88,0,0,1-14.066-7.549c.07-4.665,9.377-7.221,14.066-7.221,4.665,0,14,2.555,14.066,7.221A16.88,16.88,0,0,1,30.527,47.406Z" transform="translate(-2.395 -2.395)" fill="#f5647e"/>
        </g>
        <g id="account_circle-24px-2" data-name="account_circle-24px" transform="translate(56.276 409.996)">
          <path id="Path_5-2" data-name="Path 5" d="M0,0H56.264V56.264H0Z" fill="none"/>
          <path id="Path_6-2" data-name="Path 6" d="M30.527,7.083A23.443,23.443,0,1,0,53.97,30.527,23.452,23.452,0,0,0,30.527,7.083Zm0,7.033a7.033,7.033,0,1,1-7.033,7.033A7.024,7.024,0,0,1,30.527,14.116Zm0,33.29a16.88,16.88,0,0,1-14.066-7.549c.07-4.665,9.377-7.221,14.066-7.221,4.665,0,14,2.555,14.066,7.221A16.88,16.88,0,0,1,30.527,47.406Z" transform="translate(-2.395 -2.395)" fill="#f5647e"/>
        </g>
        <g id="Group_7" data-name="Group 7" transform="translate(0 0)">
          <g transform="matrix(1, 0, 0, 1, -103.14, -324.24)" filter="url(#Rectangle_142)">
            <rect id="Rectangle_142-2" data-name="Rectangle 142" width="442" height="227" rx="8" transform="translate(103 324)" fill="#2271e2"/>
          </g>
          <g id="account_circle-24px-3" data-name="account_circle-24px" transform="translate(38.042 28.671)">
            <path id="Path_5-3" data-name="Path 5" d="M0,0H88.9V88.9H0Z" fill="none"/>
            <path id="Path_6-3" data-name="Path 6" d="M44.124,7.083a37.04,37.04,0,1,0,37.04,37.04A37.054,37.054,0,0,0,44.124,7.083Zm0,11.112A11.112,11.112,0,1,1,33.011,29.307,11.1,11.1,0,0,1,44.124,18.2Zm0,52.6A26.671,26.671,0,0,1,21.9,58.866c.111-7.371,14.816-11.408,22.224-11.408,7.371,0,22.113,4.037,22.224,11.408A26.671,26.671,0,0,1,44.124,70.793Z" transform="translate(0.325 0.325)" fill="#fafbff"/>
          </g>
        </g>
        <path id="Path_84" data-name="Path 84" d="M18.746-9.477a9.932,9.932,0,0,1-.708,3.789,8.866,8.866,0,0,1-2,3,9.051,9.051,0,0,1-3.1,1.976A10.971,10.971,0,0,1,8.918,0H1.56V-18.941H8.918a10.883,10.883,0,0,1,4.024.715,9.181,9.181,0,0,1,3.1,1.976,8.8,8.8,0,0,1,2,3A9.9,9.9,0,0,1,18.746-9.477Zm-4.5,0a8.252,8.252,0,0,0-.364-2.535,5.416,5.416,0,0,0-1.046-1.917,4.545,4.545,0,0,0-1.67-1.209,5.672,5.672,0,0,0-2.249-.423H5.98V-3.38H8.918A5.672,5.672,0,0,0,11.167-3.8a4.545,4.545,0,0,0,1.67-1.209,5.416,5.416,0,0,0,1.046-1.917A8.3,8.3,0,0,0,14.248-9.477Zm12.61-4.212a7.786,7.786,0,0,1,2.8.481,6.13,6.13,0,0,1,2.165,1.378,6.207,6.207,0,0,1,1.4,2.177,7.856,7.856,0,0,1,.5,2.879,8,8,0,0,1-.5,2.905,6.251,6.251,0,0,1-1.4,2.2A6.16,6.16,0,0,1,29.653-.28a7.693,7.693,0,0,1-2.8.488A7.783,7.783,0,0,1,24.043-.28,6.281,6.281,0,0,1,21.86-1.671a6.16,6.16,0,0,1-1.417-2.2,8,8,0,0,1-.5-2.905,7.856,7.856,0,0,1,.5-2.879A6.117,6.117,0,0,1,21.86-11.83a6.251,6.251,0,0,1,2.184-1.378A7.877,7.877,0,0,1,26.858-13.689Zm0,10.907a2.289,2.289,0,0,0,2.047-.981,5.428,5.428,0,0,0,.657-2.983,5.394,5.394,0,0,0-.657-2.977,2.294,2.294,0,0,0-2.047-.975,2.351,2.351,0,0,0-2.093.975A5.351,5.351,0,0,0,24.1-6.747a5.385,5.385,0,0,0,.663,2.983A2.345,2.345,0,0,0,26.858-2.782ZM35.932,0V-13.481h2.5a1.112,1.112,0,0,1,.631.169.9.9,0,0,1,.357.507l.234.78a9.791,9.791,0,0,1,.806-.676,4.72,4.72,0,0,1,.89-.527,5.286,5.286,0,0,1,1.027-.338,5.511,5.511,0,0,1,1.2-.123,4.72,4.72,0,0,1,1.956.383,4.06,4.06,0,0,1,1.437,1.066,4.6,4.6,0,0,1,.884,1.625,6.738,6.738,0,0,1,.3,2.048V0h-4.03V-8.567a2.357,2.357,0,0,0-.455-1.541,1.634,1.634,0,0,0-1.339-.552,2.8,2.8,0,0,0-1.248.286,4.853,4.853,0,0,0-1.118.767V0ZM60.32,0a1.888,1.888,0,0,1-.865-.156,1.192,1.192,0,0,1-.487-.65l-.286-.741q-.507.429-.975.754a6.179,6.179,0,0,1-.969.552A4.783,4.783,0,0,1,55.673.1a6.56,6.56,0,0,1-1.255.111,5.5,5.5,0,0,1-1.677-.241A3.5,3.5,0,0,1,51.46-.741,3.115,3.115,0,0,1,50.648-1.9a4.2,4.2,0,0,1-.286-1.606,3.367,3.367,0,0,1,.364-1.469,3.624,3.624,0,0,1,1.261-1.372A8.014,8.014,0,0,1,54.4-7.384a16.224,16.224,0,0,1,3.835-.468v-.572a2.472,2.472,0,0,0-.487-1.71,1.793,1.793,0,0,0-1.384-.526,3.673,3.673,0,0,0-1.17.156,5.26,5.26,0,0,0-.812.351q-.357.2-.7.351a1.91,1.91,0,0,1-.806.156,1.218,1.218,0,0,1-.708-.2,1.5,1.5,0,0,1-.461-.5l-.728-1.261a8.2,8.2,0,0,1,2.71-1.606,9.5,9.5,0,0,1,3.192-.526,5.837,5.837,0,0,1,2.2.4,4.742,4.742,0,0,1,1.664,1.1A4.828,4.828,0,0,1,61.8-10.556a6.05,6.05,0,0,1,.364,2.132V0ZM55.692-2.457a3.2,3.2,0,0,0,1.365-.273,4.158,4.158,0,0,0,1.183-.884V-5.486a13.379,13.379,0,0,0-1.989.208,4.831,4.831,0,0,0-1.235.39,1.5,1.5,0,0,0-.631.533,1.261,1.261,0,0,0-.175.65,1.13,1.13,0,0,0,.377.968A1.839,1.839,0,0,0,55.692-2.457Zm13.494-17V0h-4.03V-19.461ZM81.9,0a1.112,1.112,0,0,1-.631-.169.9.9,0,0,1-.357-.507L80.6-1.7a7.9,7.9,0,0,1-.845.78,5.314,5.314,0,0,1-.955.6,5.054,5.054,0,0,1-1.105.39,5.689,5.689,0,0,1-1.28.137,4.152,4.152,0,0,1-1.95-.468,4.494,4.494,0,0,1-1.547-1.352A6.823,6.823,0,0,1,71.9-3.776a10.512,10.512,0,0,1-.37-2.918,9.1,9.1,0,0,1,.416-2.8,6.869,6.869,0,0,1,1.176-2.236,5.463,5.463,0,0,1,1.826-1.476,5.187,5.187,0,0,1,2.353-.533,4.517,4.517,0,0,1,1.762.306,5.084,5.084,0,0,1,1.306.8v-6.825H84.4V0ZM77.818-2.886a3.482,3.482,0,0,0,.8-.084,2.811,2.811,0,0,0,.657-.24,2.864,2.864,0,0,0,.565-.39,4.892,4.892,0,0,0,.526-.546v-5.72a2.665,2.665,0,0,0-.994-.708,3.083,3.083,0,0,0-1.111-.2,2.374,2.374,0,0,0-1.027.221,2.093,2.093,0,0,0-.812.708,3.773,3.773,0,0,0-.54,1.267,7.874,7.874,0,0,0-.195,1.885A8.731,8.731,0,0,0,75.842-4.9a3.7,3.7,0,0,0,.435,1.176,1.691,1.691,0,0,0,.67.644A1.92,1.92,0,0,0,77.818-2.886Zm17.03-16.055a3.73,3.73,0,0,1,.481.026,1.228,1.228,0,0,1,.351.1,1.171,1.171,0,0,1,.3.2,3.416,3.416,0,0,1,.325.351l9,11.375q-.052-.546-.078-1.06t-.026-.969V-18.941h3.874V0h-2.288a2.108,2.108,0,0,1-.858-.156,1.836,1.836,0,0,1-.676-.572L96.317-12.012q.039.494.065.969t.026.891V0H92.534V-18.941ZM133.744,0h-4.42V-8.008h-7.7V0h-4.42V-18.941h4.42v7.917h7.7v-7.917h4.42Zm7.28-13.481V0h-4.03V-13.481Zm.468-3.692a2.13,2.13,0,0,1-.2.9,2.378,2.378,0,0,1-.533.741,2.609,2.609,0,0,1-.786.507,2.441,2.441,0,0,1-.956.189,2.269,2.269,0,0,1-.923-.189,2.6,2.6,0,0,1-.76-.507,2.34,2.34,0,0,1-.52-.741,2.192,2.192,0,0,1-.188-.9,2.269,2.269,0,0,1,.188-.923,2.4,2.4,0,0,1,.52-.754,2.435,2.435,0,0,1,.76-.507,2.339,2.339,0,0,1,.923-.182,2.517,2.517,0,0,1,.956.182,2.454,2.454,0,0,1,.786.507,2.433,2.433,0,0,1,.533.754A2.2,2.2,0,0,1,141.492-17.173Zm6.942-2.288V0H144.4V-19.461Zm7.41,0V0h-4.03V-19.461Z" transform="translate(152.859 80.755)" fill="#fff"/>
        <path id="Path_86" data-name="Path 86" d="M12.089-4.147a.747.747,0,0,1,.264.049.718.718,0,0,1,.253.17L14.08-2.376A6.119,6.119,0,0,1,11.655-.468,8.487,8.487,0,0,1,8.206.176,8.215,8.215,0,0,1,4.934-.446,7.082,7.082,0,0,1,2.48-2.161a7.557,7.557,0,0,1-1.545-2.6A9.586,9.586,0,0,1,.4-8.019a8.6,8.6,0,0,1,.616-3.294A7.684,7.684,0,0,1,2.734-13.9,7.765,7.765,0,0,1,5.379-15.6a9.22,9.22,0,0,1,3.4-.605,8.658,8.658,0,0,1,1.7.16,8.306,8.306,0,0,1,1.491.44,7.012,7.012,0,0,1,1.276.671,6.15,6.15,0,0,1,1.034.863l-1.254,1.683a1.6,1.6,0,0,1-.286.281.744.744,0,0,1-.462.127.825.825,0,0,1-.374-.088,4.135,4.135,0,0,1-.374-.214l-.434-.275a3.334,3.334,0,0,0-.561-.275,4.636,4.636,0,0,0-.759-.214,5.179,5.179,0,0,0-1.017-.088,4.653,4.653,0,0,0-1.848.358,4.052,4.052,0,0,0-1.436,1.023,4.744,4.744,0,0,0-.935,1.611A6.322,6.322,0,0,0,4.2-8.019,6.6,6.6,0,0,0,4.537-5.83a4.807,4.807,0,0,0,.913,1.611,3.874,3.874,0,0,0,1.347,1,4.029,4.029,0,0,0,1.65.341,7.9,7.9,0,0,0,.924-.049,3.814,3.814,0,0,0,.776-.171,3.587,3.587,0,0,0,.682-.313,4.553,4.553,0,0,0,.655-.479,1.3,1.3,0,0,1,.286-.181A.749.749,0,0,1,12.089-4.147ZM15.774,0V-16.467h3.41v6.061a5.545,5.545,0,0,1,1.337-.852,4.169,4.169,0,0,1,1.722-.325,3.994,3.994,0,0,1,1.656.325,3.435,3.435,0,0,1,1.215.9,3.893,3.893,0,0,1,.748,1.375,5.7,5.7,0,0,1,.253,1.733V0H22.7V-7.249a2,2,0,0,0-.385-1.3,1.383,1.383,0,0,0-1.133-.467,2.373,2.373,0,0,0-1.056.242,4.106,4.106,0,0,0-.946.649V0ZM36.41,0a1.6,1.6,0,0,1-.731-.132,1.008,1.008,0,0,1-.413-.55l-.242-.627q-.429.363-.825.638A5.229,5.229,0,0,1,33.38-.2a4.047,4.047,0,0,1-.9.286,5.551,5.551,0,0,1-1.062.094A4.654,4.654,0,0,1,30-.027a2.96,2.96,0,0,1-1.084-.6,2.636,2.636,0,0,1-.687-.985,3.55,3.55,0,0,1-.242-1.359,2.849,2.849,0,0,1,.308-1.243,3.066,3.066,0,0,1,1.067-1.161,6.781,6.781,0,0,1,2.046-.875,13.728,13.728,0,0,1,3.245-.4v-.484a2.091,2.091,0,0,0-.413-1.446,1.517,1.517,0,0,0-1.171-.445,3.108,3.108,0,0,0-.99.132,4.451,4.451,0,0,0-.687.3q-.3.165-.588.3a1.616,1.616,0,0,1-.682.132,1.031,1.031,0,0,1-.6-.17,1.266,1.266,0,0,1-.391-.424l-.616-1.067a6.934,6.934,0,0,1,2.293-1.358,8.04,8.04,0,0,1,2.7-.446,4.939,4.939,0,0,1,1.864.336,4.012,4.012,0,0,1,1.408.935,4.086,4.086,0,0,1,.886,1.424,5.119,5.119,0,0,1,.308,1.8V0ZM32.494-2.079a2.706,2.706,0,0,0,1.155-.231,3.519,3.519,0,0,0,1-.748V-4.642a11.321,11.321,0,0,0-1.683.176,4.088,4.088,0,0,0-1.045.33,1.265,1.265,0,0,0-.534.451,1.067,1.067,0,0,0-.148.55.956.956,0,0,0,.319.819A1.556,1.556,0,0,0,32.494-2.079ZM40.392,0V-11.407h2.024a1.726,1.726,0,0,1,.424.044.743.743,0,0,1,.286.138.587.587,0,0,1,.176.247,2.232,2.232,0,0,1,.1.374l.187,1.067A5.59,5.59,0,0,1,45-11.066a2.861,2.861,0,0,1,1.7-.561,1.964,1.964,0,0,1,1.254.374l-.44,2.508a.49.49,0,0,1-.176.325.6.6,0,0,1-.352.093,2.335,2.335,0,0,1-.44-.049,3.411,3.411,0,0,0-.638-.049A2.342,2.342,0,0,0,43.8-7V0ZM53-16.467V0h-3.41V-16.467Zm7.634,4.884a5.873,5.873,0,0,1,2.074.352,4.508,4.508,0,0,1,1.617,1.023,4.669,4.669,0,0,1,1.056,1.644,6.035,6.035,0,0,1,.38,2.206,4.813,4.813,0,0,1-.033.627.992.992,0,0,1-.121.385.461.461,0,0,1-.237.2,1.108,1.108,0,0,1-.38.055H58.41a3.216,3.216,0,0,0,.869,2.073,2.586,2.586,0,0,0,1.815.644,3.249,3.249,0,0,0,1.023-.143,5.161,5.161,0,0,0,.764-.319q.336-.176.616-.319a1.279,1.279,0,0,1,.588-.143A.7.7,0,0,1,64.7-3l.99,1.221A5.069,5.069,0,0,1,64.553-.8,5.916,5.916,0,0,1,63.3-.2a6.8,6.8,0,0,1-1.287.3,9.658,9.658,0,0,1-1.226.083,6.4,6.4,0,0,1-2.25-.391A5.169,5.169,0,0,1,56.7-1.375a5.476,5.476,0,0,1-1.243-1.914A7.152,7.152,0,0,1,55-5.951a6.024,6.024,0,0,1,.391-2.167,5.337,5.337,0,0,1,1.122-1.793,5.342,5.342,0,0,1,1.771-1.221A5.845,5.845,0,0,1,60.632-11.583ZM60.7-9.229a2.055,2.055,0,0,0-1.529.556,2.894,2.894,0,0,0-.726,1.6H62.7a3.01,3.01,0,0,0-.1-.792,1.92,1.92,0,0,0-.341-.687,1.735,1.735,0,0,0-.621-.49A2.125,2.125,0,0,0,60.7-9.229ZM74.69-8.91a.882.882,0,0,1-.281.3.736.736,0,0,1-.379.088,1.212,1.212,0,0,1-.484-.1l-.522-.226a5.693,5.693,0,0,0-.632-.225,2.824,2.824,0,0,0-.8-.1,1.7,1.7,0,0,0-1,.247.8.8,0,0,0-.347.688.689.689,0,0,0,.226.528,2.069,2.069,0,0,0,.6.369,8.269,8.269,0,0,0,.847.3q.473.143.968.319a8.62,8.62,0,0,1,.968.412,3.621,3.621,0,0,1,.847.583,2.6,2.6,0,0,1,.6.841,2.85,2.85,0,0,1,.225,1.188,3.906,3.906,0,0,1-.308,1.562A3.317,3.317,0,0,1,74.3-.913a4.344,4.344,0,0,1-1.507.8A6.788,6.788,0,0,1,70.73.176a6.276,6.276,0,0,1-1.166-.11,8.077,8.077,0,0,1-1.128-.3A6.143,6.143,0,0,1,67.43-.677a4.365,4.365,0,0,1-.792-.555l.792-1.254a1.14,1.14,0,0,1,.341-.346.947.947,0,0,1,.517-.126,1.076,1.076,0,0,1,.534.132l.511.286a4.264,4.264,0,0,0,.644.286,2.79,2.79,0,0,0,.93.132,2.361,2.361,0,0,0,.671-.082,1.182,1.182,0,0,0,.44-.226.9.9,0,0,0,.242-.319.9.9,0,0,0,.077-.363.741.741,0,0,0-.231-.561,2.013,2.013,0,0,0-.605-.38,7.375,7.375,0,0,0-.852-.3q-.479-.138-.974-.313a7.82,7.82,0,0,1-.974-.424,3.349,3.349,0,0,1-.852-.627,2.913,2.913,0,0,1-.605-.929,3.433,3.433,0,0,1-.231-1.331,3.468,3.468,0,0,1,.281-1.38,3.205,3.205,0,0,1,.841-1.149,4.132,4.132,0,0,1,1.408-.786,6.087,6.087,0,0,1,1.98-.292,6.366,6.366,0,0,1,1.194.11,6.1,6.1,0,0,1,1.083.308,5.19,5.19,0,0,1,.924.467,4.437,4.437,0,0,1,.737.589Zm5.742-7.117h3.124a1.409,1.409,0,0,1,.809.22,1.007,1.007,0,0,1,.424.583l2.2,8.36q.11.407.22.869a7.831,7.831,0,0,1,.165.968q.11-.517.242-.973t.253-.864l2.6-8.36a1.152,1.152,0,0,1,.424-.556,1.259,1.259,0,0,1,.786-.248h1.1a1.382,1.382,0,0,1,.8.215,1.1,1.1,0,0,1,.435.589l2.574,8.36q.121.385.253.82t.231.929q.088-.484.182-.924t.192-.825l2.2-8.36a1.046,1.046,0,0,1,.418-.561,1.3,1.3,0,0,1,.792-.242h2.926L98.824,0H95.458L92.444-9.933q-.077-.231-.16-.506t-.16-.583q-.077.308-.16.583t-.16.506L88.748,0H85.382Zm29.3,4.444a6.588,6.588,0,0,1,2.365.407,5.187,5.187,0,0,1,1.832,1.166,5.252,5.252,0,0,1,1.188,1.842,6.647,6.647,0,0,1,.424,2.437,6.767,6.767,0,0,1-.424,2.459,5.289,5.289,0,0,1-1.188,1.859A5.212,5.212,0,0,1,112.1-.237a6.509,6.509,0,0,1-2.365.413,6.586,6.586,0,0,1-2.382-.413,5.314,5.314,0,0,1-1.848-1.177,5.212,5.212,0,0,1-1.2-1.859,6.767,6.767,0,0,1-.424-2.459,6.647,6.647,0,0,1,.424-2.437,5.176,5.176,0,0,1,1.2-1.842,5.289,5.289,0,0,1,1.848-1.166A6.665,6.665,0,0,1,109.736-11.583Zm0,9.229a1.937,1.937,0,0,0,1.732-.83,4.593,4.593,0,0,0,.556-2.525,4.564,4.564,0,0,0-.556-2.519,1.941,1.941,0,0,0-1.732-.825,1.989,1.989,0,0,0-1.771.825,4.528,4.528,0,0,0-.561,2.519,4.557,4.557,0,0,0,.561,2.525A1.985,1.985,0,0,0,109.736-2.354Zm12.76-9.229a6.588,6.588,0,0,1,2.365.407,5.187,5.187,0,0,1,1.832,1.166,5.252,5.252,0,0,1,1.188,1.842,6.647,6.647,0,0,1,.424,2.437,6.767,6.767,0,0,1-.424,2.459,5.289,5.289,0,0,1-1.188,1.859,5.212,5.212,0,0,1-1.832,1.177A6.509,6.509,0,0,1,122.5.176a6.586,6.586,0,0,1-2.382-.413,5.314,5.314,0,0,1-1.848-1.177,5.212,5.212,0,0,1-1.2-1.859,6.767,6.767,0,0,1-.424-2.459,6.647,6.647,0,0,1,.424-2.437,5.176,5.176,0,0,1,1.2-1.842,5.289,5.289,0,0,1,1.848-1.166A6.665,6.665,0,0,1,122.5-11.583Zm0,9.229a1.937,1.937,0,0,0,1.732-.83,4.593,4.593,0,0,0,.556-2.525,4.564,4.564,0,0,0-.556-2.519,1.941,1.941,0,0,0-1.732-.825,1.989,1.989,0,0,0-1.771.825,4.528,4.528,0,0,0-.561,2.519,4.557,4.557,0,0,0,.561,2.525A1.985,1.985,0,0,0,122.5-2.354ZM138.182,0a.941.941,0,0,1-.534-.143.764.764,0,0,1-.3-.429l-.264-.869a6.688,6.688,0,0,1-.715.66,4.5,4.5,0,0,1-.809.512,4.276,4.276,0,0,1-.935.33,4.814,4.814,0,0,1-1.083.116,3.513,3.513,0,0,1-1.65-.4,3.8,3.8,0,0,1-1.309-1.144,5.773,5.773,0,0,1-.864-1.831,8.9,8.9,0,0,1-.313-2.47,7.7,7.7,0,0,1,.352-2.37,5.812,5.812,0,0,1,1-1.892,4.623,4.623,0,0,1,1.545-1.249,4.389,4.389,0,0,1,1.991-.451,3.822,3.822,0,0,1,1.49.259,4.3,4.3,0,0,1,1.105.676v-5.775h3.41V0Zm-3.454-2.442a2.947,2.947,0,0,0,.677-.072,2.378,2.378,0,0,0,.555-.2,2.424,2.424,0,0,0,.479-.33,4.14,4.14,0,0,0,.445-.462v-4.84a2.255,2.255,0,0,0-.841-.6,2.609,2.609,0,0,0-.941-.17,2.009,2.009,0,0,0-.869.187,1.771,1.771,0,0,0-.687.6,3.193,3.193,0,0,0-.456,1.072,6.663,6.663,0,0,0-.165,1.6,7.388,7.388,0,0,0,.132,1.518,3.127,3.127,0,0,0,.368,1,1.431,1.431,0,0,0,.566.544A1.625,1.625,0,0,0,134.728-2.442ZM150.81,0a1.6,1.6,0,0,1-.732-.132,1.008,1.008,0,0,1-.412-.55l-.242-.627q-.429.363-.825.638a5.228,5.228,0,0,1-.82.468,4.047,4.047,0,0,1-.9.286,5.551,5.551,0,0,1-1.062.094,4.654,4.654,0,0,1-1.419-.2,2.961,2.961,0,0,1-1.084-.6,2.636,2.636,0,0,1-.687-.985,3.55,3.55,0,0,1-.242-1.359,2.849,2.849,0,0,1,.308-1.243,3.067,3.067,0,0,1,1.067-1.161,6.781,6.781,0,0,1,2.046-.875,13.728,13.728,0,0,1,3.245-.4v-.484a2.091,2.091,0,0,0-.413-1.446,1.517,1.517,0,0,0-1.171-.445,3.108,3.108,0,0,0-.99.132,4.451,4.451,0,0,0-.687.3q-.3.165-.589.3a1.616,1.616,0,0,1-.682.132,1.031,1.031,0,0,1-.6-.17,1.266,1.266,0,0,1-.391-.424l-.616-1.067a6.934,6.934,0,0,1,2.294-1.358,8.04,8.04,0,0,1,2.7-.446,4.939,4.939,0,0,1,1.864.336,4.012,4.012,0,0,1,1.408.935,4.086,4.086,0,0,1,.885,1.424,5.119,5.119,0,0,1,.308,1.8V0Zm-3.916-2.079a2.706,2.706,0,0,0,1.155-.231,3.519,3.519,0,0,0,1-.748V-4.642a11.321,11.321,0,0,0-1.683.176,4.088,4.088,0,0,0-1.045.33,1.265,1.265,0,0,0-.533.451,1.067,1.067,0,0,0-.148.55.956.956,0,0,0,.319.819A1.556,1.556,0,0,0,146.894-2.079ZM154.792,0V-11.407h2.024a1.726,1.726,0,0,1,.424.044.743.743,0,0,1,.286.138.587.587,0,0,1,.176.247,2.233,2.233,0,0,1,.1.374l.187,1.067a5.59,5.59,0,0,1,1.408-1.529,2.861,2.861,0,0,1,1.705-.561,1.964,1.964,0,0,1,1.254.374l-.44,2.508a.49.49,0,0,1-.176.325.6.6,0,0,1-.352.093,2.335,2.335,0,0,1-.44-.049,3.411,3.411,0,0,0-.638-.049A2.342,2.342,0,0,0,158.2-7V0Zm17.094,0a.941.941,0,0,1-.534-.143.764.764,0,0,1-.3-.429l-.264-.869a6.688,6.688,0,0,1-.715.66,4.5,4.5,0,0,1-.809.512,4.276,4.276,0,0,1-.935.33,4.814,4.814,0,0,1-1.083.116,3.513,3.513,0,0,1-1.65-.4,3.8,3.8,0,0,1-1.309-1.144,5.773,5.773,0,0,1-.864-1.831,8.9,8.9,0,0,1-.313-2.47,7.7,7.7,0,0,1,.352-2.37,5.812,5.812,0,0,1,1-1.892A4.623,4.623,0,0,1,166-11.176a4.389,4.389,0,0,1,1.991-.451,3.822,3.822,0,0,1,1.49.259,4.3,4.3,0,0,1,1.105.676v-5.775H174V0Zm-3.454-2.442a2.947,2.947,0,0,0,.677-.072,2.378,2.378,0,0,0,.555-.2,2.424,2.424,0,0,0,.479-.33,4.14,4.14,0,0,0,.445-.462v-4.84a2.255,2.255,0,0,0-.841-.6,2.609,2.609,0,0,0-.941-.17,2.009,2.009,0,0,0-.869.187,1.771,1.771,0,0,0-.687.6,3.193,3.193,0,0,0-.456,1.072,6.663,6.663,0,0,0-.165,1.6,7.388,7.388,0,0,0,.132,1.518,3.127,3.127,0,0,0,.368,1,1.431,1.431,0,0,0,.566.544A1.625,1.625,0,0,0,168.432-2.442Z" transform="translate(124.859 444.755)" fill="#394049"/>
        <rect id="Rectangle_378" data-name="Rectangle 378" width="175" height="11" rx="4" transform="translate(152.859 115.756)" fill="#fff"/>
        <rect id="Rectangle_376" data-name="Rectangle 376" width="217" height="12" rx="4" transform="translate(152.859 136.756)" fill="#fff"/>
        <rect id="Rectangle_377" data-name="Rectangle 377" width="131" height="12" rx="4" transform="translate(152.859 158.756)" fill="#fff"/>
      </g>
    </g>
  </g>
</svg>
