<svg xmlns="http://www.w3.org/2000/svg" xmlns:xlink="http://www.w3.org/1999/xlink" width="701.26" height="1051.88" viewBox="0 0 701.26 1051.88">
  <defs>
    <filter id="Path_20" x="146" y="217" width="410.125" height="246.677" filterUnits="userSpaceOnUse">
      <feOffset dy="3" input="SourceAlpha"/>
      <feGaussianBlur stdDeviation="7" result="blur"/>
      <feFlood flood-opacity="0.059"/>
      <feComposite operator="in" in2="blur"/>
      <feComposite in="SourceGraphic"/>
    </filter>
    <clipPath id="clip-Image_11_3">
      <rect width="701.26" height="1051.88"/>
    </clipPath>
  </defs>
  <g id="Image_11_3" data-name="Image 11 – 3" clip-path="url(#clip-Image_11_3)">
    <rect width="701.26" height="1051.88" fill="rgba(255,255,255,0)"/>
    <g id="Group_105" data-name="Group 105" transform="translate(114.488 40)">
      <g id="Path_138" data-name="Path 138" fill="#eff0f2">
        <path d="M64,0H409a64,64,0,0,1,64,64V909a64,64,0,0,1-64,64H64A64,64,0,0,1,0,909V64A64,64,0,0,1,64,0Z" stroke="none"/>
        <path d="M 64 1 C 55.49462890625 1 47.24411010742188 2.6656494140625 39.47787475585938 5.95050048828125 C 35.7449951171875 7.52923583984375 32.14474487304688 9.4835205078125 28.77676391601562 11.75872802734375 C 25.44061279296875 14.01263427734375 22.30337524414062 16.60113525390625 19.45223999023438 19.4522705078125 C 16.60113525390625 22.3033447265625 14.01263427734375 25.44061279296875 11.75875854492188 28.7767333984375 C 9.483489990234375 32.144775390625 7.52923583984375 35.7449951171875 5.95050048828125 39.4779052734375 C 2.665618896484375 47.244140625 1 55.49462890625 1 64 L 1 909 C 1 917.50537109375 2.665618896484375 925.755859375 5.95050048828125 933.5220947265625 C 7.52923583984375 937.2550048828125 9.483489990234375 940.855224609375 11.75875854492188 944.2232666015625 C 14.01263427734375 947.5593872070312 16.60113525390625 950.6966552734375 19.45223999023438 953.5477294921875 C 22.30337524414062 956.3988647460938 25.44061279296875 958.9873657226562 28.77676391601562 961.2412719726562 C 32.14474487304688 963.5164794921875 35.7449951171875 965.4707641601562 39.47787475585938 967.0494995117188 C 47.24411010742188 970.3343505859375 55.49462890625 972 64 972 L 409 972 C 417.50537109375 972 425.755859375 970.3343505859375 433.5221252441406 967.0494995117188 C 437.2550048828125 965.4707641601562 440.8552551269531 963.5164794921875 444.2232360839844 961.2412719726562 C 447.5593872070312 958.9873657226562 450.6966247558594 956.3988647460938 453.5477600097656 953.5477294921875 C 456.3988647460938 950.6966552734375 458.9873657226562 947.5593872070312 461.2412414550781 944.2232666015625 C 463.5165100097656 940.855224609375 465.4707641601562 937.2550048828125 467.0494995117188 933.5220947265625 C 470.3343811035156 925.755859375 472 917.50537109375 472 909 L 472 64 C 472 55.49462890625 470.3343811035156 47.244140625 467.0494995117188 39.4779052734375 C 465.4707641601562 35.7449951171875 463.5165100097656 32.144775390625 461.2412414550781 28.7767333984375 C 458.9873657226562 25.44061279296875 456.3988647460938 22.3033447265625 453.5477600097656 19.4522705078125 C 450.6966247558594 16.60113525390625 447.5593872070312 14.01263427734375 444.2232360839844 11.75872802734375 C 440.8552551269531 9.4835205078125 437.2550048828125 7.52923583984375 433.5221252441406 5.95050048828125 C 425.755859375 2.6656494140625 417.50537109375 1 409 1 L 64 1 M 64 0 L 409 0 C 444.3462524414062 0 473 28.65374755859375 473 64 L 473 909 C 473 944.3462524414062 444.3462524414062 973 409 973 L 64 973 C 28.65374755859375 973 0 944.3462524414062 0 909 L 0 64 C 0 28.65374755859375 28.65374755859375 0 64 0 Z" stroke="none" fill="rgba(207,211,215,0.7)"/>
      </g>
      <g id="Group_91" data-name="Group 91" transform="translate(20 20.879)">
        <g id="Subtraction_2" data-name="Subtraction 2" transform="translate(0 0)" fill="#fff">
          <path d="M380.4,926.241H52a51.956,51.956,0,0,1-52-52V52A51.956,51.956,0,0,1,52,0H83.072V13.685a28.976,28.976,0,0,0,29,29H320.327a28.912,28.912,0,0,0,20.507-8.494,28.91,28.91,0,0,0,8.494-20.506V0H380.4a51.957,51.957,0,0,1,52,52V874.242a51.957,51.957,0,0,1-52,52Z" stroke="none"/>
          <path d="M 380.3994445800781 925.2415161132812 C 387.2845153808594 925.2415161132812 393.9634399414062 923.8931884765625 400.250732421875 921.2340087890625 C 406.3235778808594 918.6654052734375 411.7778015136719 914.9879760742188 416.4620361328125 910.3040161132812 C 421.1461486816406 905.619873046875 424.8235778808594 900.1656494140625 427.3921508789062 894.0928344726562 C 430.0513305664062 887.8056640625 431.3996887207031 881.126953125 431.3996887207031 874.2420043945312 L 431.3996887207031 52.00022506713867 C 431.3996887207031 45.11516571044922 430.0513305664062 38.43622589111328 427.3921508789062 32.14893341064453 C 424.8234558105469 26.07587432861328 421.1460266113281 20.62163734436035 416.4620361328125 15.93752098083496 C 411.7778015136719 11.25340270996094 406.3235778808594 7.575991153717041 400.250732421875 5.00752067565918 C 393.9640197753906 2.348344087600708 387.2850952148438 1.00010883808136 380.3994445800781 1.00010883808136 L 350.3279113769531 0.9999949336051941 L 350.3279113769531 13.68457984924316 C 350.3279113769531 17.7339916229248 349.5345153808594 21.66281509399414 347.9696960449219 25.36187362670898 C 346.458740234375 28.93422698974609 344.2956848144531 32.1423454284668 341.5407409667969 34.89752197265625 C 338.7857971191406 37.65234375 335.5775756835938 39.81528472900391 332.0049743652344 41.32622528076172 C 328.3056945800781 42.89104843139648 324.3766174316406 43.68446350097656 320.3270874023438 43.68446350097656 L 112.0715637207031 43.68446350097656 C 108.0220336914062 43.68446350097656 104.0930938720703 42.89104843139648 100.393913269043 41.32634353637695 C 96.82144927978516 39.81528472900391 93.61332702636719 37.65234375 90.85850524902344 34.89740371704102 C 88.10368347167969 32.14269638061523 85.94074249267578 28.93446159362793 84.42967987060547 25.36187362670898 C 82.86521148681641 21.66304969787598 82.07191467285156 17.73422622680664 82.07180023193359 13.68457984924316 L 82.07180023193359 1.00010883808136 L 51.99932861328125 1.00010883808136 C 45.11368179321289 1.00010883808136 38.43473815917969 2.348344087600708 32.14815139770508 5.00752067565918 C 26.07521057128906 7.576108932495117 20.62109184265137 11.25352096557617 15.93709278106689 15.93752098083496 C 11.25321006774902 20.62163734436035 7.575916290283203 26.07587432861328 5.007328033447266 32.14893341064453 C 2.348151445388794 38.43610763549805 0.9999162554740906 45.11505126953125 1.000151515007019 52.00022506713867 L 1.000151515007019 874.2420043945312 C 1.000151515007019 881.1276245117188 2.348386764526367 887.8063354492188 5.007328033447266 894.0928344726562 C 7.575916290283203 900.1658935546875 11.25321006774902 905.6201171875 15.93709278106689 910.3040161132812 C 20.62109184265137 914.9878540039062 26.07521057128906 918.665283203125 32.14815139770508 921.2340087890625 C 38.43544387817383 923.8931884765625 45.1142692565918 925.2415161132812 51.99932861328125 925.2415161132812 L 380.3994445800781 925.2415161132812 M 380.3994445800781 926.2415161132812 L 51.99932861328125 926.2415161132812 C 44.97956466674805 926.2415161132812 38.16968154907227 924.8665771484375 31.75862121582031 922.155029296875 C 25.56650352478027 919.535888671875 20.00544548034668 915.7864379882812 15.23003387451172 911.0110473632812 C 10.45462226867676 906.2356567382812 6.705327987670898 900.674560546875 4.086269378662109 894.4823608398438 C 1.374857425689697 888.0718994140625 0.0001515251642558724 881.261962890625 0.0001515251642558724 874.2420043945312 L 0.0001515251642558724 52.00022506713867 C -8.376895857509226e-05 44.98034286499023 1.374739766120911 38.17034530639648 4.086269378662109 31.75940322875977 C 6.705327987670898 25.56704902648926 10.45462226867676 20.00599098205566 15.23003387451172 15.23046207427979 C 20.00544548034668 10.45493221282959 25.56650352478027 6.705520629882812 31.75862121582031 4.086461544036865 C 38.16920852661133 1.374932289123535 44.97920989990234 0.0001087861892301589 51.99932861328125 0.0001087861892301589 L 83.07180023193359 0.0001087861892301589 L 83.07180023193359 13.68457984924316 C 83.07191467285156 17.59951972961426 83.838623046875 21.39728546142578 85.35073852539062 24.97234344482422 C 86.81132507324219 28.42563819885254 88.90226745605469 31.52705001831055 91.56556701660156 34.19034576416016 C 94.22885894775391 36.8536376953125 97.33026885986328 38.94469833374023 100.783447265625 40.4052848815918 C 104.3587417602539 41.91763687133789 108.156623840332 42.68446350097656 112.0715637207031 42.68446350097656 L 320.3270874023438 42.68446350097656 C 324.2420349121094 42.68446350097656 328.0400390625 41.91763687133789 331.6154479980469 40.4052848815918 C 335.0687255859375 38.94469833374023 338.1702575683594 36.8536376953125 340.8336791992188 34.19034576416016 C 343.4972229003906 31.52669715881348 345.5881652832031 28.4254035949707 347.0487365722656 24.97234344482422 C 348.5610961914062 21.39716720581055 349.3279113769531 17.59940338134766 349.3279113769531 13.68457984924316 L 349.3279113769531 -8.86086854734458e-06 L 380.3994445800781 0.0001087861892301589 C 387.4195556640625 0.0001087861892301589 394.2295532226562 1.374932289123535 400.6402587890625 4.086461544036865 C 406.8323974609375 6.705402851104736 412.3934326171875 10.45481491088867 417.1690979003906 15.23046207427979 C 421.9446105957031 20.00599098205566 425.6940307617188 25.56704902648926 428.3132019042969 31.75940322875977 C 431.0247497558594 38.17046356201172 432.3996887207031 44.98046112060547 432.3996887207031 52.00022506713867 L 432.3996887207031 874.2420043945312 C 432.3996887207031 881.2616577148438 431.0247497558594 888.0714111328125 428.3132019042969 894.4823608398438 C 425.6941528320312 900.67431640625 421.9447326660156 906.2354125976562 417.1690979003906 911.0110473632812 C 412.3934326171875 915.7865600585938 406.8323974609375 919.5360107421875 400.6402587890625 922.155029296875 C 394.2292175292969 924.8665771484375 387.4192199707031 926.2415161132812 380.3994445800781 926.2415161132812 Z" stroke="none" fill="rgba(207,211,215,0.47)"/>
        </g>
        <g id="check_box-24px" transform="translate(343.053 242.299)">
          <path id="Path_24" data-name="Path 24" d="M0,0H30.07V30.07H0Z" fill="none"/>
          <path id="Path_25" data-name="Path 25" d="M21.71,3H5.339A2.338,2.338,0,0,0,3,5.339V21.71a2.338,2.338,0,0,0,2.339,2.339H21.71a2.338,2.338,0,0,0,2.339-2.339V5.339A2.338,2.338,0,0,0,21.71,3ZM11.186,19.371,5.339,13.524l1.649-1.649,4.2,4.186,8.876-8.876L21.71,8.847Z" transform="translate(1.51 1.51)" fill="#fff"/>
        </g>
        <text id="Recipts" transform="translate(50.511 96.121)" fill="#fff" font-size="14" font-family="Lato-Black, Lato" font-weight="800"><tspan x="0" y="0">Recipts</tspan></text>
      </g>
      <g id="Rectangle_418" data-name="Rectangle 418" transform="translate(171.512 31)" fill="rgba(207,211,216,0.27)" stroke="#cfd3d7" stroke-width="1">
        <rect width="129" height="17" rx="8.5" stroke="none"/>
        <rect x="0.5" y="0.5" width="128" height="16" rx="8" fill="none"/>
      </g>
    </g>
    <path id="Path_152" data-name="Path 152" d="M6.183-7.276V0H1.62V-19.67h6.4a13.132,13.132,0,0,1,3.638.439,6.831,6.831,0,0,1,2.457,1.222A4.624,4.624,0,0,1,15.5-16.16a6.127,6.127,0,0,1,.432,2.322,6.234,6.234,0,0,1-.256,1.809,5.478,5.478,0,0,1-.763,1.573,5.9,5.9,0,0,1-1.242,1.289,6.6,6.6,0,0,1-1.694.931,4.289,4.289,0,0,1,.857.567,3.374,3.374,0,0,1,.7.823L17.712,0H13.581a1.753,1.753,0,0,1-1.647-.864L8.667-6.575a1.375,1.375,0,0,0-.506-.54,1.694,1.694,0,0,0-.817-.162Zm0-3.146H8.019a4.7,4.7,0,0,0,1.586-.236,2.866,2.866,0,0,0,1.073-.655,2.493,2.493,0,0,0,.608-.979,3.757,3.757,0,0,0,.189-1.208,2.534,2.534,0,0,0-.844-2.025,3.927,3.927,0,0,0-2.612-.729H6.183Zm19.386-3.793a7.208,7.208,0,0,1,2.545.432A5.532,5.532,0,0,1,30.1-12.528a5.73,5.73,0,0,1,1.3,2.018A7.406,7.406,0,0,1,31.86-7.8a5.908,5.908,0,0,1-.041.769,1.218,1.218,0,0,1-.148.473.565.565,0,0,1-.29.243,1.359,1.359,0,0,1-.466.067H22.842a3.947,3.947,0,0,0,1.067,2.545,3.173,3.173,0,0,0,2.227.79,3.987,3.987,0,0,0,1.255-.175,6.334,6.334,0,0,0,.938-.391q.412-.216.756-.392a1.57,1.57,0,0,1,.722-.176.865.865,0,0,1,.756.365l1.215,1.5a6.221,6.221,0,0,1-1.4,1.208,7.261,7.261,0,0,1-1.539.729,8.342,8.342,0,0,1-1.58.365,11.853,11.853,0,0,1-1.505.1A7.86,7.86,0,0,1,23-.263a6.344,6.344,0,0,1-2.254-1.424,6.72,6.72,0,0,1-1.525-2.349,8.777,8.777,0,0,1-.56-3.267,7.393,7.393,0,0,1,.479-2.659,6.55,6.55,0,0,1,1.377-2.2,6.556,6.556,0,0,1,2.174-1.5A7.174,7.174,0,0,1,25.569-14.215Zm.081,2.889a2.522,2.522,0,0,0-1.876.682,3.552,3.552,0,0,0-.891,1.964h5.224a3.694,3.694,0,0,0-.128-.972,2.356,2.356,0,0,0-.419-.844,2.129,2.129,0,0,0-.763-.6A2.608,2.608,0,0,0,25.65-11.326ZM34.263,0V-14h2.592a1.155,1.155,0,0,1,.655.175.937.937,0,0,1,.371.526l.229.756a7.766,7.766,0,0,1,.729-.668,4.688,4.688,0,0,1,.817-.527,4.546,4.546,0,0,1,.945-.351,4.532,4.532,0,0,1,1.114-.128,3.286,3.286,0,0,1,2.1.655,4.08,4.08,0,0,1,1.262,1.748,4.139,4.139,0,0,1,.857-1.107,4.6,4.6,0,0,1,1.094-.742,5.312,5.312,0,0,1,1.242-.418,6.437,6.437,0,0,1,1.3-.135,5.921,5.921,0,0,1,2.133.358,4.062,4.062,0,0,1,1.559,1.039,4.489,4.489,0,0,1,.952,1.674A7.227,7.227,0,0,1,54.54-8.9V0H50.355V-8.9q0-2.174-1.863-2.174a1.913,1.913,0,0,0-1.411.56,2.184,2.184,0,0,0-.56,1.613V0H42.336V-8.9a2.394,2.394,0,0,0-.472-1.687,1.854,1.854,0,0,0-1.391-.486,2.343,2.343,0,0,0-1.073.256,3.9,3.9,0,0,0-.952.689V0ZM61.83-14V0H57.645V-14Zm.486-3.834a2.212,2.212,0,0,1-.2.938,2.47,2.47,0,0,1-.554.77,2.71,2.71,0,0,1-.817.526,2.535,2.535,0,0,1-.992.2,2.356,2.356,0,0,1-.958-.2,2.694,2.694,0,0,1-.79-.526,2.43,2.43,0,0,1-.54-.77,2.276,2.276,0,0,1-.2-.938,2.356,2.356,0,0,1,.2-.958,2.487,2.487,0,0,1,.54-.783,2.529,2.529,0,0,1,.79-.526,2.429,2.429,0,0,1,.958-.189,2.613,2.613,0,0,1,.992.189,2.548,2.548,0,0,1,.817.526,2.527,2.527,0,0,1,.554.783A2.289,2.289,0,0,1,62.316-17.833ZM65.205,0V-14H67.8a1.155,1.155,0,0,1,.655.175.937.937,0,0,1,.371.526l.243.81a10.167,10.167,0,0,1,.837-.7,4.9,4.9,0,0,1,.925-.547,5.489,5.489,0,0,1,1.066-.351,5.723,5.723,0,0,1,1.249-.128,4.9,4.9,0,0,1,2.032.4,4.216,4.216,0,0,1,1.492,1.107,4.778,4.778,0,0,1,.918,1.688A7,7,0,0,1,77.895-8.9V0H73.71V-8.9a2.448,2.448,0,0,0-.473-1.6,1.7,1.7,0,0,0-1.39-.574,2.912,2.912,0,0,0-1.3.3,5.039,5.039,0,0,0-1.161.8V0ZM90.693,0a1.155,1.155,0,0,1-.655-.176A.937.937,0,0,1,89.667-.7l-.324-1.066a8.207,8.207,0,0,1-.878.81,5.519,5.519,0,0,1-.992.628,5.248,5.248,0,0,1-1.147.4A5.908,5.908,0,0,1,85,.216,4.312,4.312,0,0,1,82.971-.27a4.666,4.666,0,0,1-1.606-1.4A7.085,7.085,0,0,1,80.3-3.922a10.916,10.916,0,0,1-.385-3.031,9.453,9.453,0,0,1,.432-2.909,7.133,7.133,0,0,1,1.222-2.322,5.673,5.673,0,0,1,1.9-1.532,5.386,5.386,0,0,1,2.443-.554,4.691,4.691,0,0,1,1.829.317,5.28,5.28,0,0,1,1.357.83v-7.087h4.185V0ZM86.454-3a3.616,3.616,0,0,0,.83-.088,2.919,2.919,0,0,0,.682-.25,2.974,2.974,0,0,0,.587-.405,5.08,5.08,0,0,0,.547-.567v-5.94a2.767,2.767,0,0,0-1.033-.736,3.2,3.2,0,0,0-1.154-.209,2.466,2.466,0,0,0-1.066.229,2.173,2.173,0,0,0-.844.736,3.918,3.918,0,0,0-.56,1.316,8.177,8.177,0,0,0-.2,1.958A9.068,9.068,0,0,0,84.4-5.089a3.838,3.838,0,0,0,.452,1.222,1.756,1.756,0,0,0,.7.668A1.994,1.994,0,0,0,86.454-3Zm16.065-11.218a7.208,7.208,0,0,1,2.545.432,5.532,5.532,0,0,1,1.984,1.256,5.73,5.73,0,0,1,1.3,2.018A7.406,7.406,0,0,1,108.81-7.8a5.908,5.908,0,0,1-.04.769,1.218,1.218,0,0,1-.148.473.565.565,0,0,1-.29.243,1.359,1.359,0,0,1-.466.067H99.792a3.947,3.947,0,0,0,1.066,2.545,3.173,3.173,0,0,0,2.228.79,3.987,3.987,0,0,0,1.256-.175,6.334,6.334,0,0,0,.938-.391q.412-.216.756-.392a1.57,1.57,0,0,1,.722-.176.865.865,0,0,1,.756.365l1.215,1.5a6.221,6.221,0,0,1-1.4,1.208,7.261,7.261,0,0,1-1.539.729,8.342,8.342,0,0,1-1.579.365,11.853,11.853,0,0,1-1.505.1,7.86,7.86,0,0,1-2.761-.479,6.344,6.344,0,0,1-2.255-1.424,6.72,6.72,0,0,1-1.525-2.349,8.777,8.777,0,0,1-.56-3.267,7.394,7.394,0,0,1,.479-2.659,6.55,6.55,0,0,1,1.377-2.2,6.556,6.556,0,0,1,2.174-1.5A7.174,7.174,0,0,1,102.519-14.215Zm.081,2.889a2.522,2.522,0,0,0-1.877.682,3.552,3.552,0,0,0-.891,1.964h5.225a3.694,3.694,0,0,0-.128-.972,2.356,2.356,0,0,0-.419-.844,2.129,2.129,0,0,0-.763-.6A2.608,2.608,0,0,0,102.6-11.326ZM111.213,0V-14H113.7a2.118,2.118,0,0,1,.52.054.912.912,0,0,1,.351.169.72.72,0,0,1,.216.3,2.739,2.739,0,0,1,.128.459l.229,1.309a6.86,6.86,0,0,1,1.728-1.877,3.511,3.511,0,0,1,2.093-.689,2.411,2.411,0,0,1,1.539.459l-.54,3.078a.6.6,0,0,1-.216.4.733.733,0,0,1-.432.115,2.865,2.865,0,0,1-.54-.061,4.186,4.186,0,0,0-.783-.061A2.874,2.874,0,0,0,115.4-8.586V0Zm19.71-10.935a1.082,1.082,0,0,1-.344.365.9.9,0,0,1-.466.108,1.488,1.488,0,0,1-.594-.128l-.641-.277a6.985,6.985,0,0,0-.776-.277,3.465,3.465,0,0,0-.985-.128,2.084,2.084,0,0,0-1.222.3.979.979,0,0,0-.425.844.846.846,0,0,0,.277.648,2.539,2.539,0,0,0,.736.452,10.147,10.147,0,0,0,1.039.371q.581.175,1.188.391a10.58,10.58,0,0,1,1.188.506,4.443,4.443,0,0,1,1.04.716,3.194,3.194,0,0,1,.736,1.033,3.5,3.5,0,0,1,.277,1.458,4.794,4.794,0,0,1-.378,1.917,4.071,4.071,0,0,1-1.127,1.512,5.331,5.331,0,0,1-1.85.985,8.331,8.331,0,0,1-2.531.351,7.7,7.7,0,0,1-1.431-.135,9.912,9.912,0,0,1-1.384-.364,7.538,7.538,0,0,1-1.235-.547,5.357,5.357,0,0,1-.972-.682l.972-1.539a1.4,1.4,0,0,1,.419-.425,1.162,1.162,0,0,1,.634-.155,1.32,1.32,0,0,1,.655.162l.628.351a5.233,5.233,0,0,0,.79.351,3.424,3.424,0,0,0,1.141.162,2.9,2.9,0,0,0,.823-.1,1.451,1.451,0,0,0,.54-.277,1.105,1.105,0,0,0,.3-.391,1.1,1.1,0,0,0,.094-.445.909.909,0,0,0-.283-.688,2.47,2.47,0,0,0-.743-.466,9.052,9.052,0,0,0-1.046-.365q-.587-.169-1.195-.385a9.6,9.6,0,0,1-1.195-.52,4.11,4.11,0,0,1-1.046-.77,3.576,3.576,0,0,1-.743-1.141,4.214,4.214,0,0,1-.284-1.634,4.256,4.256,0,0,1,.344-1.694,3.934,3.934,0,0,1,1.033-1.411,5.071,5.071,0,0,1,1.728-.965,7.471,7.471,0,0,1,2.43-.358,7.813,7.813,0,0,1,1.465.135,7.486,7.486,0,0,1,1.33.378,6.369,6.369,0,0,1,1.134.574,5.446,5.446,0,0,1,.9.722Z" transform="translate(167 193)" fill="#394049"/>
    <g transform="matrix(1, 0, 0, 1, 0, 0)" filter="url(#Path_20)">
      <g id="Path_20-2" data-name="Path 20" transform="translate(167 235)" fill="#2272e2">
        <path d="M 352.6245422363281 204.1768951416016 L 15.4999828338623 204.1768951416016 C 11.48621082305908 204.1768951416016 7.714528560638428 202.7301788330078 4.879664897918701 200.103271484375 C 2.055392265319824 197.486083984375 0.4999831318855286 194.0093994140625 0.4999831318855286 190.3136291503906 L 0.4999831318855286 14.36331081390381 C 0.4999831318855286 10.6675386428833 2.055392265319824 7.190811157226562 4.879664897918701 4.57367467880249 C 7.714528560638428 1.946720242500305 11.48621082305908 0.4999930262565613 15.4999828338623 0.4999930262565613 L 352.6245422363281 0.4999930262565613 C 356.6383056640625 0.4999930262565613 360.4099731445312 1.946720242500305 363.2448425292969 4.57367467880249 C 366.0691223144531 7.190811157226562 367.6245422363281 10.6675386428833 367.6245422363281 14.36331081390381 L 367.6245422363281 106.0606307983398 L 367.6245422363281 190.3136291503906 C 367.6245422363281 194.0093994140625 366.0691223144531 197.486083984375 363.2448425292969 200.103271484375 C 360.4099731445312 202.7301788330078 356.6383056640625 204.1768951416016 352.6245422363281 204.1768951416016 Z" stroke="none"/>
        <path d="M 15.49996948242188 1 C 11.61260986328125 1 7.96160888671875 2.399398803710938 5.21954345703125 4.940399169921875 C 2.49853515625 7.46185302734375 0.999969482421875 10.80830383300781 0.999969482421875 14.36331176757812 L 0.999969482421875 190.3136291503906 C 0.999969482421875 193.8685913085938 2.49853515625 197.2150421142578 5.21954345703125 199.7364959716797 C 7.96160888671875 202.2774963378906 11.61260986328125 203.6768951416016 15.49996948242188 203.6768951416016 L 352.6245422363281 203.6768951416016 C 356.5119018554688 203.6768951416016 360.1629028320312 202.2774963378906 362.9049682617188 199.7364959716797 C 365.6259765625 197.2150421142578 367.1245422363281 193.8685913085938 367.1245422363281 190.3136291503906 L 367.1245422363281 106.0606307983398 L 367.1245422363281 14.36331176757812 C 367.1245422363281 10.80830383300781 365.6259765625 7.46185302734375 362.9049682617188 4.940399169921875 C 360.1629028320312 2.399398803710938 356.5119018554688 1 352.6245422363281 1 L 15.49996948242188 1 M 15.49996948242188 0 L 352.6245422363281 0 C 361.1849365234375 0 368.1245422363281 6.430679321289062 368.1245422363281 14.36331176757812 L 368.1245422363281 106.0606307983398 L 368.1245422363281 190.3136291503906 C 368.1245422363281 198.2462158203125 361.1849365234375 204.6768951416016 352.6245422363281 204.6768951416016 L 15.49996948242188 204.6768951416016 C 6.9395751953125 204.6768951416016 -3.0517578125e-05 198.2462158203125 -3.0517578125e-05 190.3136291503906 L -3.0517578125e-05 14.36331176757812 C -3.0517578125e-05 6.430679321289062 6.9395751953125 0 15.49996948242188 0 Z" stroke="none" fill="#2272e2"/>
      </g>
    </g>
    <g id="notifications-24px" transform="translate(318.125 300.875)">
      <path id="Path_3" data-name="Path 3" d="M0,0H66.269V72.481H0Z" transform="translate(0)" fill="none"/>
      <path id="Path_4" data-name="Path 4" d="M32.981,70.322c4.142,0,7.531-3.13,7.531-6.956H25.45A7.258,7.258,0,0,0,32.981,70.322ZM55.575,49.454V32.063c0-10.678-6.176-19.616-16.945-21.981V7.717A5.438,5.438,0,0,0,32.981,2.5a5.438,5.438,0,0,0-5.648,5.217v2.365C16.526,12.447,10.388,21.351,10.388,32.063v17.39L5.53,53.94c-2.372,2.191-.715,5.947,2.636,5.947H57.759c3.351,0,5.046-3.756,2.674-5.947Z" transform="translate(0.156 0.089)" fill="#fff"/>
    </g>
    <g id="Rectangle_434" data-name="Rectangle 434" transform="translate(167 469)" fill="#fff" stroke="#eff0f2" stroke-width="1">
      <rect width="368" height="79" rx="12" stroke="none"/>
      <rect x="0.5" y="0.5" width="367" height="78" rx="11.5" fill="none"/>
    </g>
    <g id="Rectangle_437" data-name="Rectangle 437" transform="translate(167 564)" fill="#fff" stroke="#eff0f2" stroke-width="1">
      <rect width="368" height="79" rx="12" stroke="none"/>
      <rect x="0.5" y="0.5" width="367" height="78" rx="11.5" fill="none"/>
    </g>
    <g id="Rectangle_440" data-name="Rectangle 440" transform="translate(167 659)" fill="#fff" stroke="#eff0f2" stroke-width="1">
      <rect width="368" height="79" rx="12" stroke="none"/>
      <rect x="0.5" y="0.5" width="367" height="78" rx="11.5" fill="none"/>
    </g>
    <g id="Rectangle_443" data-name="Rectangle 443" transform="translate(167 754)" fill="#fff" stroke="#eff0f2" stroke-width="1">
      <rect width="368" height="79" rx="12" stroke="none"/>
      <rect x="0.5" y="0.5" width="367" height="78" rx="11.5" fill="none"/>
    </g>
    <g id="Rectangle_444" data-name="Rectangle 444" transform="translate(167 849)" fill="#fff" stroke="#eff0f2" stroke-width="1">
      <rect width="368" height="79" rx="12" stroke="none"/>
      <rect x="0.5" y="0.5" width="367" height="78" rx="11.5" fill="none"/>
    </g>
    <rect id="Rectangle_198" data-name="Rectangle 198" width="8" height="79" rx="2" transform="translate(167 469)" fill="#2272e2"/>
    <rect id="Rectangle_436" data-name="Rectangle 436" width="8" height="79" rx="2" transform="translate(167 564)" fill="#f5647e"/>
    <rect id="Rectangle_439" data-name="Rectangle 439" width="8" height="79" rx="2" transform="translate(167 659)" fill="#29cc9e"/>
    <rect id="Rectangle_442" data-name="Rectangle 442" width="8" height="79" rx="2" transform="translate(167 754)" fill="#2272e2"/>
    <rect id="Rectangle_446" data-name="Rectangle 446" width="8" height="79" rx="2" transform="translate(167 849)" fill="#2272e2"/>
    <g id="check_box-24px-2" data-name="check_box-24px" transform="translate(190.25 488.688)">
      <path id="Path_24-2" data-name="Path 24" d="M0,0H38.75V38.75H0Z" fill="none"/>
      <path id="Path_25-2" data-name="Path 25" d="M27.111,3H6.014A3.013,3.013,0,0,0,3,6.014v21.1a3.013,3.013,0,0,0,3.014,3.014h21.1a3.013,3.013,0,0,0,3.014-3.014V6.014A3.013,3.013,0,0,0,27.111,3ZM13.549,24.1,6.014,16.562l2.125-2.125,5.41,5.395L24.986,8.395l2.125,2.14Z" transform="translate(2.812 2.812)" fill="#2272e2"/>
    </g>
    <g id="check_box-24px-3" data-name="check_box-24px" transform="translate(190.25 583.688)">
      <path id="Path_24-3" data-name="Path 24" d="M0,0H38.75V38.75H0Z" fill="none"/>
      <path id="Path_25-3" data-name="Path 25" d="M27.111,3H6.014A3.013,3.013,0,0,0,3,6.014v21.1a3.013,3.013,0,0,0,3.014,3.014h21.1a3.013,3.013,0,0,0,3.014-3.014V6.014A3.013,3.013,0,0,0,27.111,3ZM13.549,24.1,6.014,16.562l2.125-2.125,5.41,5.395L24.986,8.395l2.125,2.14Z" transform="translate(2.812 2.812)" fill="#f5647e"/>
    </g>
    <g id="check_box-24px-4" data-name="check_box-24px" transform="translate(190.25 678.688)">
      <path id="Path_24-4" data-name="Path 24" d="M0,0H38.75V38.75H0Z" fill="none"/>
      <path id="Path_25-4" data-name="Path 25" d="M27.111,3H6.014A3.013,3.013,0,0,0,3,6.014v21.1a3.013,3.013,0,0,0,3.014,3.014h21.1a3.013,3.013,0,0,0,3.014-3.014V6.014A3.013,3.013,0,0,0,27.111,3ZM13.549,24.1,6.014,16.562l2.125-2.125,5.41,5.395L24.986,8.395l2.125,2.14Z" transform="translate(2.812 2.812)" fill="#29cc9e"/>
    </g>
    <g id="check_box-24px-5" data-name="check_box-24px" transform="translate(190.25 773.688)">
      <path id="Path_24-5" data-name="Path 24" d="M0,0H38.75V38.75H0Z" fill="none"/>
      <path id="Path_25-5" data-name="Path 25" d="M27.111,3H6.014A3.013,3.013,0,0,0,3,6.014v21.1a3.013,3.013,0,0,0,3.014,3.014h21.1a3.013,3.013,0,0,0,3.014-3.014V6.014A3.013,3.013,0,0,0,27.111,3ZM13.549,24.1,6.014,16.562l2.125-2.125,5.41,5.395L24.986,8.395l2.125,2.14Z" transform="translate(2.812 2.812)" fill="#2272e2"/>
    </g>
    <g id="check_box-24px-6" data-name="check_box-24px" transform="translate(190.25 868.688)">
      <path id="Path_24-6" data-name="Path 24" d="M0,0H38.75V38.75H0Z" fill="none"/>
      <path id="Path_25-6" data-name="Path 25" d="M27.111,3H6.014A3.013,3.013,0,0,0,3,6.014v21.1a3.013,3.013,0,0,0,3.014,3.014h21.1a3.013,3.013,0,0,0,3.014-3.014V6.014A3.013,3.013,0,0,0,27.111,3ZM13.549,24.1,6.014,16.562l2.125-2.125,5.41,5.395L24.986,8.395l2.125,2.14Z" transform="translate(2.812 2.812)" fill="#2272e2"/>
    </g>
    <rect id="Rectangle_367" data-name="Rectangle 367" width="241" height="8" rx="4" transform="translate(245 504)" fill="#afb5bd"/>
    <rect id="Rectangle_435" data-name="Rectangle 435" width="201" height="8" rx="4" transform="translate(245 599)" fill="#afb5bd"/>
    <rect id="Rectangle_438" data-name="Rectangle 438" width="241" height="8" rx="4" transform="translate(245 694)" fill="#afb5bd"/>
    <rect id="Rectangle_441" data-name="Rectangle 441" width="241" height="8" rx="4" transform="translate(245 789)" fill="#afb5bd"/>
    <rect id="Rectangle_445" data-name="Rectangle 445" width="241" height="8" rx="4" transform="translate(245 884)" fill="#afb5bd"/>
  </g>
</svg>
