<svg xmlns="http://www.w3.org/2000/svg" xmlns:xlink="http://www.w3.org/1999/xlink" width="701.26" height="1051.88" viewBox="0 0 701.26 1051.88">
  <defs>
    <clipPath id="clip-Image_11_2">
      <rect width="701.26" height="1051.88"/>
    </clipPath>
  </defs>
  <g id="Image_11_2" data-name="Image 11 – 2" clip-path="url(#clip-Image_11_2)">
    <rect width="701.26" height="1051.88" fill="rgba(255,255,255,0)"/>
    <g id="Group_95" data-name="Group 95" transform="translate(114.488 40)">
      <g id="Path_138" data-name="Path 138" fill="#eff0f2">
        <path d="M64,0H409a64,64,0,0,1,64,64V909a64,64,0,0,1-64,64H64A64,64,0,0,1,0,909V64A64,64,0,0,1,64,0Z" stroke="none"/>
        <path d="M 64 1 C 55.49462890625 1 47.24411010742188 2.6656494140625 39.47787475585938 5.95050048828125 C 35.7449951171875 7.52923583984375 32.14474487304688 9.4835205078125 28.77676391601562 11.75872802734375 C 25.44061279296875 14.01263427734375 22.30337524414062 16.60113525390625 19.45223999023438 19.4522705078125 C 16.60113525390625 22.3033447265625 14.01263427734375 25.44061279296875 11.75875854492188 28.7767333984375 C 9.483489990234375 32.144775390625 7.52923583984375 35.7449951171875 5.95050048828125 39.4779052734375 C 2.665618896484375 47.244140625 1 55.49462890625 1 64 L 1 909 C 1 917.50537109375 2.665618896484375 925.755859375 5.95050048828125 933.5220947265625 C 7.52923583984375 937.2550048828125 9.483489990234375 940.855224609375 11.75875854492188 944.2232666015625 C 14.01263427734375 947.5593872070312 16.60113525390625 950.6966552734375 19.45223999023438 953.5477294921875 C 22.30337524414062 956.3988647460938 25.44061279296875 958.9873657226562 28.77676391601562 961.2412719726562 C 32.14474487304688 963.5164794921875 35.7449951171875 965.4707641601562 39.47787475585938 967.0494995117188 C 47.24411010742188 970.3343505859375 55.49462890625 972 64 972 L 409 972 C 417.50537109375 972 425.755859375 970.3343505859375 433.5221252441406 967.0494995117188 C 437.2550048828125 965.4707641601562 440.8552551269531 963.5164794921875 444.2232360839844 961.2412719726562 C 447.5593872070312 958.9873657226562 450.6966247558594 956.3988647460938 453.5477600097656 953.5477294921875 C 456.3988647460938 950.6966552734375 458.9873657226562 947.5593872070312 461.2412414550781 944.2232666015625 C 463.5165100097656 940.855224609375 465.4707641601562 937.2550048828125 467.0494995117188 933.5220947265625 C 470.3343811035156 925.755859375 472 917.50537109375 472 909 L 472 64 C 472 55.49462890625 470.3343811035156 47.244140625 467.0494995117188 39.4779052734375 C 465.4707641601562 35.7449951171875 463.5165100097656 32.144775390625 461.2412414550781 28.7767333984375 C 458.9873657226562 25.44061279296875 456.3988647460938 22.3033447265625 453.5477600097656 19.4522705078125 C 450.6966247558594 16.60113525390625 447.5593872070312 14.01263427734375 444.2232360839844 11.75872802734375 C 440.8552551269531 9.4835205078125 437.2550048828125 7.52923583984375 433.5221252441406 5.95050048828125 C 425.755859375 2.6656494140625 417.50537109375 1 409 1 L 64 1 M 64 0 L 409 0 C 444.3462524414062 0 473 28.65374755859375 473 64 L 473 909 C 473 944.3462524414062 444.3462524414062 973 409 973 L 64 973 C 28.65374755859375 973 0 944.3462524414062 0 909 L 0 64 C 0 28.65374755859375 28.65374755859375 0 64 0 Z" stroke="none" fill="rgba(207,211,215,0.7)"/>
      </g>
      <g id="Group_91" data-name="Group 91" transform="translate(20 20.879)">
        <g id="Subtraction_2" data-name="Subtraction 2" transform="translate(0 0)" fill="#fff">
          <path d="M380.4,926.241H52a51.956,51.956,0,0,1-52-52V52A51.956,51.956,0,0,1,52,0H83.072V13.685a28.976,28.976,0,0,0,29,29H320.327a28.912,28.912,0,0,0,20.507-8.494,28.91,28.91,0,0,0,8.494-20.506V0H380.4a51.957,51.957,0,0,1,52,52V874.242a51.957,51.957,0,0,1-52,52Z" stroke="none"/>
          <path d="M 380.3994445800781 925.2415161132812 C 387.2845153808594 925.2415161132812 393.9634399414062 923.8931884765625 400.250732421875 921.2340087890625 C 406.3235778808594 918.6654052734375 411.7778015136719 914.9879760742188 416.4620361328125 910.3040161132812 C 421.1461486816406 905.619873046875 424.8235778808594 900.1656494140625 427.3921508789062 894.0928344726562 C 430.0513305664062 887.8056640625 431.3996887207031 881.126953125 431.3996887207031 874.2420043945312 L 431.3996887207031 52.00022506713867 C 431.3996887207031 45.11516571044922 430.0513305664062 38.43622589111328 427.3921508789062 32.14893341064453 C 424.8234558105469 26.07587432861328 421.1460266113281 20.62163734436035 416.4620361328125 15.93752098083496 C 411.7778015136719 11.25340270996094 406.3235778808594 7.575991153717041 400.250732421875 5.00752067565918 C 393.9640197753906 2.348344087600708 387.2850952148438 1.00010883808136 380.3994445800781 1.00010883808136 L 350.3279113769531 0.9999949336051941 L 350.3279113769531 13.68457984924316 C 350.3279113769531 17.7339916229248 349.5345153808594 21.66281509399414 347.9696960449219 25.36187362670898 C 346.458740234375 28.93422698974609 344.2956848144531 32.1423454284668 341.5407409667969 34.89752197265625 C 338.7857971191406 37.65234375 335.5775756835938 39.81528472900391 332.0049743652344 41.32622528076172 C 328.3056945800781 42.89104843139648 324.3766174316406 43.68446350097656 320.3270874023438 43.68446350097656 L 112.0715637207031 43.68446350097656 C 108.0220336914062 43.68446350097656 104.0930938720703 42.89104843139648 100.393913269043 41.32634353637695 C 96.82144927978516 39.81528472900391 93.61332702636719 37.65234375 90.85850524902344 34.89740371704102 C 88.10368347167969 32.14269638061523 85.94074249267578 28.93446159362793 84.42967987060547 25.36187362670898 C 82.86521148681641 21.66304969787598 82.07191467285156 17.73422622680664 82.07180023193359 13.68457984924316 L 82.07180023193359 1.00010883808136 L 51.99932861328125 1.00010883808136 C 45.11368179321289 1.00010883808136 38.43473815917969 2.348344087600708 32.14815139770508 5.00752067565918 C 26.07521057128906 7.576108932495117 20.62109184265137 11.25352096557617 15.93709278106689 15.93752098083496 C 11.25321006774902 20.62163734436035 7.575916290283203 26.07587432861328 5.007328033447266 32.14893341064453 C 2.348151445388794 38.43610763549805 0.9999162554740906 45.11505126953125 1.000151515007019 52.00022506713867 L 1.000151515007019 874.2420043945312 C 1.000151515007019 881.1276245117188 2.348386764526367 887.8063354492188 5.007328033447266 894.0928344726562 C 7.575916290283203 900.1658935546875 11.25321006774902 905.6201171875 15.93709278106689 910.3040161132812 C 20.62109184265137 914.9878540039062 26.07521057128906 918.665283203125 32.14815139770508 921.2340087890625 C 38.43544387817383 923.8931884765625 45.1142692565918 925.2415161132812 51.99932861328125 925.2415161132812 L 380.3994445800781 925.2415161132812 M 380.3994445800781 926.2415161132812 L 51.99932861328125 926.2415161132812 C 44.97956466674805 926.2415161132812 38.16968154907227 924.8665771484375 31.75862121582031 922.155029296875 C 25.56650352478027 919.535888671875 20.00544548034668 915.7864379882812 15.23003387451172 911.0110473632812 C 10.45462226867676 906.2356567382812 6.705327987670898 900.674560546875 4.086269378662109 894.4823608398438 C 1.374857425689697 888.0718994140625 0.0001515251642558724 881.261962890625 0.0001515251642558724 874.2420043945312 L 0.0001515251642558724 52.00022506713867 C -8.376895857509226e-05 44.98034286499023 1.374739766120911 38.17034530639648 4.086269378662109 31.75940322875977 C 6.705327987670898 25.56704902648926 10.45462226867676 20.00599098205566 15.23003387451172 15.23046207427979 C 20.00544548034668 10.45493221282959 25.56650352478027 6.705520629882812 31.75862121582031 4.086461544036865 C 38.16920852661133 1.374932289123535 44.97920989990234 0.0001087861892301589 51.99932861328125 0.0001087861892301589 L 83.07180023193359 0.0001087861892301589 L 83.07180023193359 13.68457984924316 C 83.07191467285156 17.59951972961426 83.838623046875 21.39728546142578 85.35073852539062 24.97234344482422 C 86.81132507324219 28.42563819885254 88.90226745605469 31.52705001831055 91.56556701660156 34.19034576416016 C 94.22885894775391 36.8536376953125 97.33026885986328 38.94469833374023 100.783447265625 40.4052848815918 C 104.3587417602539 41.91763687133789 108.156623840332 42.68446350097656 112.0715637207031 42.68446350097656 L 320.3270874023438 42.68446350097656 C 324.2420349121094 42.68446350097656 328.0400390625 41.91763687133789 331.6154479980469 40.4052848815918 C 335.0687255859375 38.94469833374023 338.1702575683594 36.8536376953125 340.8336791992188 34.19034576416016 C 343.4972229003906 31.52669715881348 345.5881652832031 28.4254035949707 347.0487365722656 24.97234344482422 C 348.5610961914062 21.39716720581055 349.3279113769531 17.59940338134766 349.3279113769531 13.68457984924316 L 349.3279113769531 -8.86086854734458e-06 L 380.3994445800781 0.0001087861892301589 C 387.4195556640625 0.0001087861892301589 394.2295532226562 1.374932289123535 400.6402587890625 4.086461544036865 C 406.8323974609375 6.705402851104736 412.3934326171875 10.45481491088867 417.1690979003906 15.23046207427979 C 421.9446105957031 20.00599098205566 425.6940307617188 25.56704902648926 428.3132019042969 31.75940322875977 C 431.0247497558594 38.17046356201172 432.3996887207031 44.98046112060547 432.3996887207031 52.00022506713867 L 432.3996887207031 874.2420043945312 C 432.3996887207031 881.2616577148438 431.0247497558594 888.0714111328125 428.3132019042969 894.4823608398438 C 425.6941528320312 900.67431640625 421.9447326660156 906.2354125976562 417.1690979003906 911.0110473632812 C 412.3934326171875 915.7865600585938 406.8323974609375 919.5360107421875 400.6402587890625 922.155029296875 C 394.2292175292969 924.8665771484375 387.4192199707031 926.2415161132812 380.3994445800781 926.2415161132812 Z" stroke="none" fill="rgba(207,211,215,0.47)"/>
        </g>
        <g id="check_box-24px" transform="translate(343.053 242.299)">
          <path id="Path_24" data-name="Path 24" d="M0,0H30.07V30.07H0Z" fill="none"/>
          <path id="Path_25" data-name="Path 25" d="M21.71,3H5.339A2.338,2.338,0,0,0,3,5.339V21.71a2.338,2.338,0,0,0,2.339,2.339H21.71a2.338,2.338,0,0,0,2.339-2.339V5.339A2.338,2.338,0,0,0,21.71,3ZM11.186,19.371,5.339,13.524l1.649-1.649,4.2,4.186,8.876-8.876L21.71,8.847Z" transform="translate(1.51 1.51)" fill="#fff"/>
        </g>
        <text id="Recipts" transform="translate(50.511 96.121)" fill="#fff" font-size="14" font-family="Lato-Black, Lato" font-weight="800"><tspan x="0" y="0">Recipts</tspan></text>
      </g>
      <g id="Rectangle_418" data-name="Rectangle 418" transform="translate(171.512 31)" fill="rgba(207,211,216,0.27)" stroke="#cfd3d7" stroke-width="1">
        <rect width="129" height="17" rx="8.5" stroke="none"/>
        <rect x="0.5" y="0.5" width="128" height="16" rx="8" fill="none"/>
      </g>
    </g>
    <path id="Path_151" data-name="Path 151" d="M11.677-8.991q.27.513.52,1.067t.479,1.134q.229-.594.486-1.154t.527-1.087l5.049-9.936a1.65,1.65,0,0,1,.277-.4.906.906,0,0,1,.317-.209,1.33,1.33,0,0,1,.4-.081q.223-.014.52-.014h3.483V0H19.71V-11.313q0-.823.081-1.782L14.58-2.984a1.717,1.717,0,0,1-.655.716,1.811,1.811,0,0,1-.938.243h-.621a1.811,1.811,0,0,1-.938-.243,1.717,1.717,0,0,1-.655-.716L5.535-13.109q.054.473.081.938t.027.857V0H1.62V-19.67H5.1q.3,0,.52.014a1.33,1.33,0,0,1,.4.081.906.906,0,0,1,.317.209,1.65,1.65,0,0,1,.277.4ZM32.7,3.632a1.5,1.5,0,0,1-.459.614,1.494,1.494,0,0,1-.864.2H28.242l2.7-5.67L25.353-14h3.7a1.181,1.181,0,0,1,.756.216,1.159,1.159,0,0,1,.378.513l2.295,6.035a13.3,13.3,0,0,1,.527,1.674q.135-.432.3-.851t.311-.851l2.079-6.008a1.024,1.024,0,0,1,.425-.52A1.215,1.215,0,0,1,36.8-14h3.375ZM51.678-7.276V0H47.115V-19.67h6.4a13.131,13.131,0,0,1,3.638.439,6.831,6.831,0,0,1,2.457,1.222,4.624,4.624,0,0,1,1.384,1.85,6.127,6.127,0,0,1,.432,2.322,6.233,6.233,0,0,1-.257,1.809,5.478,5.478,0,0,1-.763,1.573,5.9,5.9,0,0,1-1.242,1.289,6.6,6.6,0,0,1-1.694.931,4.289,4.289,0,0,1,.857.567,3.374,3.374,0,0,1,.7.823L63.207,0H59.076a1.753,1.753,0,0,1-1.647-.864L54.162-6.575a1.375,1.375,0,0,0-.506-.54,1.694,1.694,0,0,0-.817-.162Zm0-3.146h1.836a4.7,4.7,0,0,0,1.586-.236,2.866,2.866,0,0,0,1.073-.655,2.493,2.493,0,0,0,.607-.979A3.756,3.756,0,0,0,56.97-13.5a2.534,2.534,0,0,0-.844-2.025,3.927,3.927,0,0,0-2.612-.729H51.678Zm19.386-3.793a7.208,7.208,0,0,1,2.545.432,5.532,5.532,0,0,1,1.985,1.256,5.73,5.73,0,0,1,1.3,2.018A7.406,7.406,0,0,1,77.355-7.8a5.908,5.908,0,0,1-.041.769,1.218,1.218,0,0,1-.148.473.565.565,0,0,1-.29.243,1.359,1.359,0,0,1-.466.067H68.337A3.947,3.947,0,0,0,69.4-3.706a3.173,3.173,0,0,0,2.227.79,3.987,3.987,0,0,0,1.256-.175,6.333,6.333,0,0,0,.938-.391q.412-.216.756-.392A1.57,1.57,0,0,1,75.3-4.05a.865.865,0,0,1,.756.365l1.215,1.5a6.221,6.221,0,0,1-1.4,1.208,7.261,7.261,0,0,1-1.539.729,8.342,8.342,0,0,1-1.58.365,11.853,11.853,0,0,1-1.505.1,7.86,7.86,0,0,1-2.761-.479,6.344,6.344,0,0,1-2.255-1.424,6.72,6.72,0,0,1-1.525-2.349,8.777,8.777,0,0,1-.56-3.267,7.394,7.394,0,0,1,.479-2.659,6.55,6.55,0,0,1,1.377-2.2,6.556,6.556,0,0,1,2.174-1.5A7.174,7.174,0,0,1,71.064-14.215Zm.081,2.889a2.522,2.522,0,0,0-1.877.682,3.552,3.552,0,0,0-.891,1.964H73.6a3.694,3.694,0,0,0-.128-.972,2.356,2.356,0,0,0-.419-.844,2.129,2.129,0,0,0-.763-.6A2.608,2.608,0,0,0,71.145-11.326Zm18.711.648a2.314,2.314,0,0,1-.365.365.8.8,0,0,1-.5.135,1.075,1.075,0,0,1-.56-.148l-.56-.331a4.249,4.249,0,0,0-.729-.331,3.138,3.138,0,0,0-1.04-.148,2.912,2.912,0,0,0-1.33.283,2.463,2.463,0,0,0-.925.81,3.7,3.7,0,0,0-.54,1.289,7.7,7.7,0,0,0-.175,1.721,5.246,5.246,0,0,0,.776,3.092,2.491,2.491,0,0,0,2.14,1.08A2.991,2.991,0,0,0,87.2-3.044a3.5,3.5,0,0,0,.722-.4l.547-.412A1.011,1.011,0,0,1,89.1-4.05a.865.865,0,0,1,.756.365l1.215,1.5A6.611,6.611,0,0,1,89.708-.979a6.84,6.84,0,0,1-1.465.729,7.56,7.56,0,0,1-1.505.365,11.083,11.083,0,0,1-1.472.1,6.314,6.314,0,0,1-2.45-.486,6,6,0,0,1-2.052-1.411,6.757,6.757,0,0,1-1.4-2.275,8.521,8.521,0,0,1-.52-3.078,8.646,8.646,0,0,1,.452-2.828,6.421,6.421,0,0,1,1.337-2.282,6.214,6.214,0,0,1,2.187-1.519,7.664,7.664,0,0,1,3.017-.554,7.356,7.356,0,0,1,2.889.526,6.932,6.932,0,0,1,2.241,1.539Zm9.018-3.537a7.208,7.208,0,0,1,2.545.432,5.532,5.532,0,0,1,1.984,1.256,5.73,5.73,0,0,1,1.3,2.018,7.406,7.406,0,0,1,.466,2.707,5.908,5.908,0,0,1-.04.769,1.218,1.218,0,0,1-.148.473.565.565,0,0,1-.29.243,1.359,1.359,0,0,1-.466.067H96.147a3.947,3.947,0,0,0,1.066,2.545,3.173,3.173,0,0,0,2.228.79,3.987,3.987,0,0,0,1.256-.175,6.334,6.334,0,0,0,.938-.391q.412-.216.756-.392a1.57,1.57,0,0,1,.722-.176.865.865,0,0,1,.756.365l1.215,1.5a6.221,6.221,0,0,1-1.4,1.208,7.261,7.261,0,0,1-1.539.729,8.342,8.342,0,0,1-1.579.365,11.853,11.853,0,0,1-1.505.1A7.86,7.86,0,0,1,96.3-.263a6.344,6.344,0,0,1-2.255-1.424,6.72,6.72,0,0,1-1.525-2.349,8.777,8.777,0,0,1-.56-3.267,7.394,7.394,0,0,1,.479-2.659,6.55,6.55,0,0,1,1.377-2.2,6.556,6.556,0,0,1,2.174-1.5A7.174,7.174,0,0,1,98.874-14.215Zm.081,2.889a2.522,2.522,0,0,0-1.877.682,3.552,3.552,0,0,0-.891,1.964h5.225a3.694,3.694,0,0,0-.128-.972,2.356,2.356,0,0,0-.419-.844,2.129,2.129,0,0,0-.763-.6A2.608,2.608,0,0,0,98.955-11.326ZM111.888-14V0H107.7V-14Zm.486-3.834a2.212,2.212,0,0,1-.2.938,2.47,2.47,0,0,1-.554.77,2.71,2.71,0,0,1-.817.526,2.535,2.535,0,0,1-.992.2,2.356,2.356,0,0,1-.959-.2,2.694,2.694,0,0,1-.79-.526,2.43,2.43,0,0,1-.54-.77,2.276,2.276,0,0,1-.2-.938,2.356,2.356,0,0,1,.2-.958,2.487,2.487,0,0,1,.54-.783,2.529,2.529,0,0,1,.79-.526,2.429,2.429,0,0,1,.959-.189,2.613,2.613,0,0,1,.992.189,2.548,2.548,0,0,1,.817.526,2.527,2.527,0,0,1,.554.783A2.289,2.289,0,0,1,112.374-17.833Zm2.889,22.275V-14h2.592a1.155,1.155,0,0,1,.655.175.937.937,0,0,1,.371.526l.311,1.026a7.036,7.036,0,0,1,.871-.81,5.737,5.737,0,0,1,1-.628,5.506,5.506,0,0,1,1.147-.412,5.713,5.713,0,0,1,1.343-.149,4.312,4.312,0,0,1,2.025.486,4.666,4.666,0,0,1,1.607,1.4,7.085,7.085,0,0,1,1.06,2.248,10.863,10.863,0,0,1,.385,3.017,9.3,9.3,0,0,1-.439,2.916,7.327,7.327,0,0,1-1.228,2.322,5.659,5.659,0,0,1-1.89,1.539,5.345,5.345,0,0,1-2.437.554A4.77,4.77,0,0,1,120.8-.095a4.984,4.984,0,0,1-1.35-.837V4.441Zm6.831-15.511a3.616,3.616,0,0,0-.83.088,3.05,3.05,0,0,0-.688.25,2.611,2.611,0,0,0-.587.412,6.1,6.1,0,0,0-.54.574v5.94a2.646,2.646,0,0,0,1.026.736,3.256,3.256,0,0,0,1.161.209,2.466,2.466,0,0,0,1.067-.23,2.173,2.173,0,0,0,.844-.736,3.918,3.918,0,0,0,.56-1.316,8.245,8.245,0,0,0,.2-1.971,9.067,9.067,0,0,0-.162-1.863,3.838,3.838,0,0,0-.452-1.222,1.756,1.756,0,0,0-.7-.668A1.994,1.994,0,0,0,122.094-11.07ZM135.783.216a4.935,4.935,0,0,1-1.762-.29A3.5,3.5,0,0,1,132.739-.9a3.511,3.511,0,0,1-.79-1.289,4.991,4.991,0,0,1-.27-1.687v-7.236h-1.188a.793.793,0,0,1-.553-.209.79.79,0,0,1-.23-.614v-1.634L131.935-14l.824-3.415a.832.832,0,0,1,.918-.648h2.187v4.091h3.4v2.862h-3.4v6.953a1.308,1.308,0,0,0,.236.8.8.8,0,0,0,.682.317,1.34,1.34,0,0,0,.385-.047,1.532,1.532,0,0,0,.27-.108q.115-.061.216-.108a.553.553,0,0,1,.236-.047.487.487,0,0,1,.3.088,1.086,1.086,0,0,1,.236.277L139.7-1a5.775,5.775,0,0,1-1.823.911A7.243,7.243,0,0,1,135.783.216Zm14.445-11.151a1.082,1.082,0,0,1-.344.365.9.9,0,0,1-.466.108,1.488,1.488,0,0,1-.594-.128l-.641-.277a6.985,6.985,0,0,0-.776-.277,3.465,3.465,0,0,0-.986-.128,2.084,2.084,0,0,0-1.222.3.979.979,0,0,0-.425.844.846.846,0,0,0,.277.648,2.539,2.539,0,0,0,.736.452,10.148,10.148,0,0,0,1.039.371q.581.175,1.188.391a10.58,10.58,0,0,1,1.188.506,4.443,4.443,0,0,1,1.04.716,3.194,3.194,0,0,1,.736,1.033,3.5,3.5,0,0,1,.277,1.458,4.794,4.794,0,0,1-.378,1.917,4.071,4.071,0,0,1-1.127,1.512,5.331,5.331,0,0,1-1.85.985,8.331,8.331,0,0,1-2.531.351,7.7,7.7,0,0,1-1.431-.135,9.912,9.912,0,0,1-1.384-.364,7.538,7.538,0,0,1-1.235-.547,5.357,5.357,0,0,1-.972-.682l.972-1.539a1.4,1.4,0,0,1,.419-.425,1.162,1.162,0,0,1,.635-.155,1.32,1.32,0,0,1,.655.162l.628.351a5.233,5.233,0,0,0,.79.351,3.424,3.424,0,0,0,1.141.162,2.9,2.9,0,0,0,.824-.1,1.451,1.451,0,0,0,.54-.277,1.105,1.105,0,0,0,.3-.391,1.1,1.1,0,0,0,.094-.445.909.909,0,0,0-.283-.688,2.47,2.47,0,0,0-.743-.466,9.051,9.051,0,0,0-1.046-.365q-.587-.169-1.195-.385a9.6,9.6,0,0,1-1.195-.52,4.11,4.11,0,0,1-1.046-.77,3.575,3.575,0,0,1-.742-1.141,4.213,4.213,0,0,1-.284-1.634,4.256,4.256,0,0,1,.344-1.694,3.934,3.934,0,0,1,1.033-1.411,5.071,5.071,0,0,1,1.728-.965,7.471,7.471,0,0,1,2.43-.358,7.813,7.813,0,0,1,1.465.135,7.486,7.486,0,0,1,1.33.378,6.369,6.369,0,0,1,1.134.574,5.446,5.446,0,0,1,.9.722Z" transform="translate(167 193)" fill="#394049"/>
    <g id="Group_48" data-name="Group 48" transform="translate(167 241)">
      <g id="Group_19" data-name="Group 19" transform="translate(0 0)">
        <g id="Rectangle_175" data-name="Rectangle 175" transform="translate(0 0)" fill="#fafbff" stroke="rgba(234,235,237,0.39)" stroke-width="1">
          <rect width="366" height="106" rx="8" stroke="none"/>
          <rect x="0.5" y="0.5" width="365" height="105" rx="7.5" fill="none"/>
        </g>
        <g id="account_circle-24px" transform="translate(18 24.765)">
          <path id="Path_5" data-name="Path 5" d="M0,0H57.55V57.55H0Z" transform="translate(0.032 0.459)" fill="none"/>
          <g id="receipt-24px">
            <path id="Path_139" data-name="Path 139" d="M0,0H58.009V58.009H0Z" fill="none"/>
            <path id="Path_140" data-name="Path 140" d="M46.507,2.224a1.134,1.134,0,0,0-.846.363L43.751,4.5a1.2,1.2,0,0,1-1.716,0L40.126,2.587a1.2,1.2,0,0,0-1.716,0L36.5,4.5a1.2,1.2,0,0,1-1.716,0L32.875,2.587a1.2,1.2,0,0,0-1.716,0L29.249,4.5a1.2,1.2,0,0,1-1.716,0L25.623,2.587a1.2,1.2,0,0,0-1.716,0L22,4.5a1.2,1.2,0,0,1-1.716,0L18.348,2.563a1.2,1.2,0,0,0-1.716,0L14.723,4.5a1.2,1.2,0,0,1-1.716,0L11.1,2.563a1.2,1.2,0,0,0-1.716,0L7.472,4.5a1.2,1.2,0,0,1-1.716,0L3.846,2.563A1.208,1.208,0,0,0,3,2.224v47.35a1.134,1.134,0,0,0,.846-.363L5.755,47.3a1.2,1.2,0,0,1,1.716,0l1.909,1.909a1.2,1.2,0,0,0,1.716,0L13.007,47.3a1.2,1.2,0,0,1,1.716,0l1.909,1.909a1.2,1.2,0,0,0,1.716,0L20.258,47.3a1.2,1.2,0,0,1,1.716,0l1.909,1.909a1.2,1.2,0,0,0,1.716,0L27.509,47.3a1.2,1.2,0,0,1,1.716,0l1.909,1.909a1.2,1.2,0,0,0,1.716,0L34.76,47.3a1.2,1.2,0,0,1,1.716,0l1.909,1.909a1.2,1.2,0,0,0,1.716,0L42.011,47.3a1.2,1.2,0,0,1,1.716,0l1.909,1.909a1.214,1.214,0,0,0,.846.363V2.224ZM36.839,37.972H12.668a2.417,2.417,0,0,1,0-4.834h24.17a2.417,2.417,0,1,1,0,4.834Zm0-9.668H12.668a2.417,2.417,0,1,1,0-4.834h24.17a2.417,2.417,0,0,1,0,4.834Zm0-9.668H12.668a2.417,2.417,0,1,1,0-4.834h24.17a2.417,2.417,0,1,1,0,4.834Z" transform="translate(4.251 3.117)" fill="#2272e2"/>
          </g>
        </g>
      </g>
      <g id="Group_100" data-name="Group 100" transform="translate(0 122)">
        <g id="Rectangle_175-2" data-name="Rectangle 175" transform="translate(0 0)" fill="#fafbff" stroke="rgba(234,235,237,0.39)" stroke-width="1">
          <rect width="366" height="106" rx="8" stroke="none"/>
          <rect x="0.5" y="0.5" width="365" height="105" rx="7.5" fill="none"/>
        </g>
        <g id="account_circle-24px-2" data-name="account_circle-24px" transform="translate(18 24.765)">
          <path id="Path_5-2" data-name="Path 5" d="M0,0H57.55V57.55H0Z" transform="translate(0.032 0.459)" fill="none"/>
          <g id="receipt-24px-2" data-name="receipt-24px">
            <path id="Path_139-2" data-name="Path 139" d="M0,0H58.009V58.009H0Z" fill="none"/>
            <path id="Path_140-2" data-name="Path 140" d="M46.507,2.224a1.134,1.134,0,0,0-.846.363L43.751,4.5a1.2,1.2,0,0,1-1.716,0L40.126,2.587a1.2,1.2,0,0,0-1.716,0L36.5,4.5a1.2,1.2,0,0,1-1.716,0L32.875,2.587a1.2,1.2,0,0,0-1.716,0L29.249,4.5a1.2,1.2,0,0,1-1.716,0L25.623,2.587a1.2,1.2,0,0,0-1.716,0L22,4.5a1.2,1.2,0,0,1-1.716,0L18.348,2.563a1.2,1.2,0,0,0-1.716,0L14.723,4.5a1.2,1.2,0,0,1-1.716,0L11.1,2.563a1.2,1.2,0,0,0-1.716,0L7.472,4.5a1.2,1.2,0,0,1-1.716,0L3.846,2.563A1.208,1.208,0,0,0,3,2.224v47.35a1.134,1.134,0,0,0,.846-.363L5.755,47.3a1.2,1.2,0,0,1,1.716,0l1.909,1.909a1.2,1.2,0,0,0,1.716,0L13.007,47.3a1.2,1.2,0,0,1,1.716,0l1.909,1.909a1.2,1.2,0,0,0,1.716,0L20.258,47.3a1.2,1.2,0,0,1,1.716,0l1.909,1.909a1.2,1.2,0,0,0,1.716,0L27.509,47.3a1.2,1.2,0,0,1,1.716,0l1.909,1.909a1.2,1.2,0,0,0,1.716,0L34.76,47.3a1.2,1.2,0,0,1,1.716,0l1.909,1.909a1.2,1.2,0,0,0,1.716,0L42.011,47.3a1.2,1.2,0,0,1,1.716,0l1.909,1.909a1.214,1.214,0,0,0,.846.363V2.224ZM36.839,37.972H12.668a2.417,2.417,0,0,1,0-4.834h24.17a2.417,2.417,0,1,1,0,4.834Zm0-9.668H12.668a2.417,2.417,0,1,1,0-4.834h24.17a2.417,2.417,0,0,1,0,4.834Zm0-9.668H12.668a2.417,2.417,0,1,1,0-4.834h24.17a2.417,2.417,0,1,1,0,4.834Z" transform="translate(4.251 3.117)" fill="#2272e2"/>
          </g>
        </g>
      </g>
      <g id="Group_101" data-name="Group 101" transform="translate(0 244)">
        <g id="Rectangle_175-3" data-name="Rectangle 175" transform="translate(0 0)" fill="#fafbff" stroke="rgba(234,235,237,0.39)" stroke-width="1">
          <rect width="366" height="106" rx="8" stroke="none"/>
          <rect x="0.5" y="0.5" width="365" height="105" rx="7.5" fill="none"/>
        </g>
        <g id="account_circle-24px-3" data-name="account_circle-24px" transform="translate(18 24.765)">
          <path id="Path_5-3" data-name="Path 5" d="M0,0H57.55V57.55H0Z" transform="translate(0.032 0.459)" fill="none"/>
          <g id="receipt-24px-3" data-name="receipt-24px">
            <path id="Path_139-3" data-name="Path 139" d="M0,0H58.009V58.009H0Z" fill="none"/>
            <path id="Path_140-3" data-name="Path 140" d="M46.507,2.224a1.134,1.134,0,0,0-.846.363L43.751,4.5a1.2,1.2,0,0,1-1.716,0L40.126,2.587a1.2,1.2,0,0,0-1.716,0L36.5,4.5a1.2,1.2,0,0,1-1.716,0L32.875,2.587a1.2,1.2,0,0,0-1.716,0L29.249,4.5a1.2,1.2,0,0,1-1.716,0L25.623,2.587a1.2,1.2,0,0,0-1.716,0L22,4.5a1.2,1.2,0,0,1-1.716,0L18.348,2.563a1.2,1.2,0,0,0-1.716,0L14.723,4.5a1.2,1.2,0,0,1-1.716,0L11.1,2.563a1.2,1.2,0,0,0-1.716,0L7.472,4.5a1.2,1.2,0,0,1-1.716,0L3.846,2.563A1.208,1.208,0,0,0,3,2.224v47.35a1.134,1.134,0,0,0,.846-.363L5.755,47.3a1.2,1.2,0,0,1,1.716,0l1.909,1.909a1.2,1.2,0,0,0,1.716,0L13.007,47.3a1.2,1.2,0,0,1,1.716,0l1.909,1.909a1.2,1.2,0,0,0,1.716,0L20.258,47.3a1.2,1.2,0,0,1,1.716,0l1.909,1.909a1.2,1.2,0,0,0,1.716,0L27.509,47.3a1.2,1.2,0,0,1,1.716,0l1.909,1.909a1.2,1.2,0,0,0,1.716,0L34.76,47.3a1.2,1.2,0,0,1,1.716,0l1.909,1.909a1.2,1.2,0,0,0,1.716,0L42.011,47.3a1.2,1.2,0,0,1,1.716,0l1.909,1.909a1.214,1.214,0,0,0,.846.363V2.224ZM36.839,37.972H12.668a2.417,2.417,0,0,1,0-4.834h24.17a2.417,2.417,0,1,1,0,4.834Zm0-9.668H12.668a2.417,2.417,0,1,1,0-4.834h24.17a2.417,2.417,0,0,1,0,4.834Zm0-9.668H12.668a2.417,2.417,0,1,1,0-4.834h24.17a2.417,2.417,0,1,1,0,4.834Z" transform="translate(4.251 3.117)" fill="#2272e2"/>
          </g>
        </g>
      </g>
      <g id="Group_102" data-name="Group 102" transform="translate(0 366)">
        <g id="Rectangle_175-4" data-name="Rectangle 175" transform="translate(0 0)" fill="#fafbff" stroke="rgba(234,235,237,0.39)" stroke-width="1">
          <rect width="366" height="106" rx="8" stroke="none"/>
          <rect x="0.5" y="0.5" width="365" height="105" rx="7.5" fill="none"/>
        </g>
        <g id="account_circle-24px-4" data-name="account_circle-24px" transform="translate(18 24.765)">
          <path id="Path_5-4" data-name="Path 5" d="M0,0H57.55V57.55H0Z" transform="translate(0.032 0.459)" fill="none"/>
          <g id="receipt-24px-4" data-name="receipt-24px">
            <path id="Path_139-4" data-name="Path 139" d="M0,0H58.009V58.009H0Z" fill="none"/>
            <path id="Path_140-4" data-name="Path 140" d="M46.507,2.224a1.134,1.134,0,0,0-.846.363L43.751,4.5a1.2,1.2,0,0,1-1.716,0L40.126,2.587a1.2,1.2,0,0,0-1.716,0L36.5,4.5a1.2,1.2,0,0,1-1.716,0L32.875,2.587a1.2,1.2,0,0,0-1.716,0L29.249,4.5a1.2,1.2,0,0,1-1.716,0L25.623,2.587a1.2,1.2,0,0,0-1.716,0L22,4.5a1.2,1.2,0,0,1-1.716,0L18.348,2.563a1.2,1.2,0,0,0-1.716,0L14.723,4.5a1.2,1.2,0,0,1-1.716,0L11.1,2.563a1.2,1.2,0,0,0-1.716,0L7.472,4.5a1.2,1.2,0,0,1-1.716,0L3.846,2.563A1.208,1.208,0,0,0,3,2.224v47.35a1.134,1.134,0,0,0,.846-.363L5.755,47.3a1.2,1.2,0,0,1,1.716,0l1.909,1.909a1.2,1.2,0,0,0,1.716,0L13.007,47.3a1.2,1.2,0,0,1,1.716,0l1.909,1.909a1.2,1.2,0,0,0,1.716,0L20.258,47.3a1.2,1.2,0,0,1,1.716,0l1.909,1.909a1.2,1.2,0,0,0,1.716,0L27.509,47.3a1.2,1.2,0,0,1,1.716,0l1.909,1.909a1.2,1.2,0,0,0,1.716,0L34.76,47.3a1.2,1.2,0,0,1,1.716,0l1.909,1.909a1.2,1.2,0,0,0,1.716,0L42.011,47.3a1.2,1.2,0,0,1,1.716,0l1.909,1.909a1.214,1.214,0,0,0,.846.363V2.224ZM36.839,37.972H12.668a2.417,2.417,0,0,1,0-4.834h24.17a2.417,2.417,0,1,1,0,4.834Zm0-9.668H12.668a2.417,2.417,0,1,1,0-4.834h24.17a2.417,2.417,0,0,1,0,4.834Zm0-9.668H12.668a2.417,2.417,0,1,1,0-4.834h24.17a2.417,2.417,0,1,1,0,4.834Z" transform="translate(4.251 3.117)" fill="#2272e2"/>
          </g>
        </g>
      </g>
      <g id="Group_103" data-name="Group 103" transform="translate(0 488)">
        <g id="Rectangle_175-5" data-name="Rectangle 175" transform="translate(0 0)" fill="#fafbff" stroke="rgba(234,235,237,0.39)" stroke-width="1">
          <rect width="366" height="106" rx="8" stroke="none"/>
          <rect x="0.5" y="0.5" width="365" height="105" rx="7.5" fill="none"/>
        </g>
        <g id="account_circle-24px-5" data-name="account_circle-24px" transform="translate(18 24.765)">
          <path id="Path_5-5" data-name="Path 5" d="M0,0H57.55V57.55H0Z" transform="translate(0.032 0.459)" fill="none"/>
          <g id="receipt-24px-5" data-name="receipt-24px">
            <path id="Path_139-5" data-name="Path 139" d="M0,0H58.009V58.009H0Z" fill="none"/>
            <path id="Path_140-5" data-name="Path 140" d="M46.507,2.224a1.134,1.134,0,0,0-.846.363L43.751,4.5a1.2,1.2,0,0,1-1.716,0L40.126,2.587a1.2,1.2,0,0,0-1.716,0L36.5,4.5a1.2,1.2,0,0,1-1.716,0L32.875,2.587a1.2,1.2,0,0,0-1.716,0L29.249,4.5a1.2,1.2,0,0,1-1.716,0L25.623,2.587a1.2,1.2,0,0,0-1.716,0L22,4.5a1.2,1.2,0,0,1-1.716,0L18.348,2.563a1.2,1.2,0,0,0-1.716,0L14.723,4.5a1.2,1.2,0,0,1-1.716,0L11.1,2.563a1.2,1.2,0,0,0-1.716,0L7.472,4.5a1.2,1.2,0,0,1-1.716,0L3.846,2.563A1.208,1.208,0,0,0,3,2.224v47.35a1.134,1.134,0,0,0,.846-.363L5.755,47.3a1.2,1.2,0,0,1,1.716,0l1.909,1.909a1.2,1.2,0,0,0,1.716,0L13.007,47.3a1.2,1.2,0,0,1,1.716,0l1.909,1.909a1.2,1.2,0,0,0,1.716,0L20.258,47.3a1.2,1.2,0,0,1,1.716,0l1.909,1.909a1.2,1.2,0,0,0,1.716,0L27.509,47.3a1.2,1.2,0,0,1,1.716,0l1.909,1.909a1.2,1.2,0,0,0,1.716,0L34.76,47.3a1.2,1.2,0,0,1,1.716,0l1.909,1.909a1.2,1.2,0,0,0,1.716,0L42.011,47.3a1.2,1.2,0,0,1,1.716,0l1.909,1.909a1.214,1.214,0,0,0,.846.363V2.224ZM36.839,37.972H12.668a2.417,2.417,0,0,1,0-4.834h24.17a2.417,2.417,0,1,1,0,4.834Zm0-9.668H12.668a2.417,2.417,0,1,1,0-4.834h24.17a2.417,2.417,0,0,1,0,4.834Zm0-9.668H12.668a2.417,2.417,0,1,1,0-4.834h24.17a2.417,2.417,0,1,1,0,4.834Z" transform="translate(4.251 3.117)" fill="#2272e2"/>
          </g>
        </g>
      </g>
      <rect id="Rectangle_433" data-name="Rectangle 433" width="364.4" height="59" rx="29.5" transform="translate(0 640)" fill="#2272e2"/>
    </g>
    <path id="Path_150" data-name="Path 150" d="M5.038-5.929V0H1.32V-16.027H6.534A10.7,10.7,0,0,1,9.5-15.67a5.566,5.566,0,0,1,2,1,3.768,3.768,0,0,1,1.127,1.507,4.993,4.993,0,0,1,.352,1.892A5.079,5.079,0,0,1,12.771-9.8a4.463,4.463,0,0,1-.621,1.281,4.81,4.81,0,0,1-1.012,1.05,5.374,5.374,0,0,1-1.381.759,3.5,3.5,0,0,1,.7.462,2.749,2.749,0,0,1,.566.671L14.432,0H11.066A1.428,1.428,0,0,1,9.724-.7L7.062-5.357a1.121,1.121,0,0,0-.413-.44,1.38,1.38,0,0,0-.665-.132Zm0-2.563h1.5a3.825,3.825,0,0,0,1.293-.192A2.335,2.335,0,0,0,8.7-9.218a2.032,2.032,0,0,0,.495-.8A3.061,3.061,0,0,0,9.35-11a2.065,2.065,0,0,0-.687-1.65,3.2,3.2,0,0,0-2.129-.594h-1.5Zm15.8-3.091a5.873,5.873,0,0,1,2.074.352,4.508,4.508,0,0,1,1.617,1.023,4.669,4.669,0,0,1,1.056,1.644,6.035,6.035,0,0,1,.379,2.206,4.814,4.814,0,0,1-.033.627.992.992,0,0,1-.121.385.461.461,0,0,1-.236.2,1.108,1.108,0,0,1-.38.055H18.612a3.216,3.216,0,0,0,.869,2.073,2.586,2.586,0,0,0,1.815.644,3.249,3.249,0,0,0,1.023-.143,5.161,5.161,0,0,0,.764-.319q.336-.176.616-.319a1.279,1.279,0,0,1,.588-.143A.7.7,0,0,1,24.9-3l.99,1.221A5.069,5.069,0,0,1,24.756-.8,5.916,5.916,0,0,1,23.5-.2a6.8,6.8,0,0,1-1.287.3,9.658,9.658,0,0,1-1.226.083,6.4,6.4,0,0,1-2.25-.391A5.169,5.169,0,0,1,16.9-1.375a5.476,5.476,0,0,1-1.243-1.914A7.152,7.152,0,0,1,15.2-5.951a6.024,6.024,0,0,1,.391-2.167,5.337,5.337,0,0,1,1.122-1.793,5.342,5.342,0,0,1,1.771-1.221A5.845,5.845,0,0,1,20.834-11.583ZM20.9-9.229a2.055,2.055,0,0,0-1.529.556,2.894,2.894,0,0,0-.726,1.6H22.9a3.01,3.01,0,0,0-.1-.792,1.92,1.92,0,0,0-.341-.687,1.735,1.735,0,0,0-.622-.49A2.125,2.125,0,0,0,20.9-9.229ZM36.146-8.7a1.886,1.886,0,0,1-.3.3.656.656,0,0,1-.407.11.876.876,0,0,1-.457-.121l-.457-.269a3.463,3.463,0,0,0-.594-.27,2.557,2.557,0,0,0-.847-.121A2.373,2.373,0,0,0,32-8.844a2.007,2.007,0,0,0-.754.66,3.016,3.016,0,0,0-.44,1.05,6.275,6.275,0,0,0-.143,1.4A4.274,4.274,0,0,0,31.3-3.212a2.03,2.03,0,0,0,1.743.88,2.437,2.437,0,0,0,.941-.148,2.85,2.85,0,0,0,.588-.33l.446-.336A.824.824,0,0,1,35.53-3.3a.7.7,0,0,1,.616.3l.99,1.221A5.387,5.387,0,0,1,36.025-.8,5.573,5.573,0,0,1,34.831-.2a6.16,6.16,0,0,1-1.226.3,9.031,9.031,0,0,1-1.2.083,5.145,5.145,0,0,1-2-.4,4.891,4.891,0,0,1-1.672-1.15,5.505,5.505,0,0,1-1.144-1.854,6.943,6.943,0,0,1-.424-2.508,7.045,7.045,0,0,1,.368-2.3,5.232,5.232,0,0,1,1.089-1.859,5.063,5.063,0,0,1,1.782-1.238,6.244,6.244,0,0,1,2.458-.451,5.993,5.993,0,0,1,2.354.429A5.648,5.648,0,0,1,37.048-9.9Zm7.348-2.882a5.873,5.873,0,0,1,2.074.352,4.508,4.508,0,0,1,1.617,1.023,4.669,4.669,0,0,1,1.056,1.644,6.035,6.035,0,0,1,.38,2.206,4.813,4.813,0,0,1-.033.627.992.992,0,0,1-.121.385.461.461,0,0,1-.237.2,1.108,1.108,0,0,1-.38.055H41.272a3.216,3.216,0,0,0,.869,2.073,2.586,2.586,0,0,0,1.815.644,3.249,3.249,0,0,0,1.023-.143,5.161,5.161,0,0,0,.764-.319q.336-.176.616-.319a1.279,1.279,0,0,1,.589-.143.7.7,0,0,1,.616.3l.99,1.221A5.069,5.069,0,0,1,47.416-.8,5.916,5.916,0,0,1,46.161-.2a6.8,6.8,0,0,1-1.287.3,9.658,9.658,0,0,1-1.226.083A6.4,6.4,0,0,1,41.4-.215a5.169,5.169,0,0,1-1.837-1.16,5.476,5.476,0,0,1-1.243-1.914,7.152,7.152,0,0,1-.457-2.662,6.024,6.024,0,0,1,.391-2.167,5.337,5.337,0,0,1,1.122-1.793,5.342,5.342,0,0,1,1.771-1.221A5.845,5.845,0,0,1,43.494-11.583Zm.066,2.354a2.055,2.055,0,0,0-1.529.556,2.894,2.894,0,0,0-.726,1.6h4.257a3.01,3.01,0,0,0-.1-.792,1.92,1.92,0,0,0-.341-.687,1.735,1.735,0,0,0-.621-.49A2.125,2.125,0,0,0,43.56-9.229ZM54.1-11.407V0h-3.41V-11.407Zm.4-3.124a1.8,1.8,0,0,1-.165.764,2.012,2.012,0,0,1-.451.627,2.208,2.208,0,0,1-.666.429,2.065,2.065,0,0,1-.808.16,1.92,1.92,0,0,1-.781-.16,2.2,2.2,0,0,1-.644-.429,1.98,1.98,0,0,1-.44-.627,1.855,1.855,0,0,1-.16-.764,1.92,1.92,0,0,1,.16-.781,2.027,2.027,0,0,1,.44-.638,2.061,2.061,0,0,1,.644-.429,1.979,1.979,0,0,1,.781-.154,2.129,2.129,0,0,1,.808.154,2.076,2.076,0,0,1,.666.429,2.059,2.059,0,0,1,.451.638A1.865,1.865,0,0,1,54.494-14.531Zm2.354,18.15V-11.407H58.96a.941.941,0,0,1,.534.143.764.764,0,0,1,.3.429l.253.836a5.733,5.733,0,0,1,.709-.66,4.675,4.675,0,0,1,.814-.512,4.486,4.486,0,0,1,.935-.336,4.655,4.655,0,0,1,1.095-.121,3.513,3.513,0,0,1,1.65.4,3.8,3.8,0,0,1,1.309,1.144,5.773,5.773,0,0,1,.864,1.832A8.85,8.85,0,0,1,67.738-5.8a7.578,7.578,0,0,1-.357,2.376,5.97,5.97,0,0,1-1,1.892A4.611,4.611,0,0,1,64.84-.275a4.355,4.355,0,0,1-1.986.451,3.887,3.887,0,0,1-1.5-.253,4.061,4.061,0,0,1-1.1-.682V3.619ZM62.414-9.02a2.947,2.947,0,0,0-.677.071,2.486,2.486,0,0,0-.561.2,2.127,2.127,0,0,0-.479.335,4.97,4.97,0,0,0-.44.468V-3.1a2.156,2.156,0,0,0,.836.6,2.653,2.653,0,0,0,.946.171,2.009,2.009,0,0,0,.869-.187,1.771,1.771,0,0,0,.688-.6,3.193,3.193,0,0,0,.457-1.073A6.718,6.718,0,0,0,64.218-5.8a7.388,7.388,0,0,0-.132-1.518,3.127,3.127,0,0,0-.368-1,1.431,1.431,0,0,0-.566-.545A1.625,1.625,0,0,0,62.414-9.02ZM73.568.176A4.021,4.021,0,0,1,72.133-.06a2.851,2.851,0,0,1-1.045-.671,2.86,2.86,0,0,1-.644-1.051,4.067,4.067,0,0,1-.22-1.375v-5.9h-.968a.646.646,0,0,1-.451-.17.643.643,0,0,1-.187-.5v-1.331l1.815-.352L71.1-14.19a.678.678,0,0,1,.748-.528h1.782v3.333h2.772v2.332H73.634v5.665a1.066,1.066,0,0,0,.192.655.65.65,0,0,0,.556.259,1.092,1.092,0,0,0,.313-.039,1.248,1.248,0,0,0,.22-.088q.093-.049.176-.088a.451.451,0,0,1,.192-.039.4.4,0,0,1,.247.071.885.885,0,0,1,.193.226L76.758-.814a4.706,4.706,0,0,1-1.485.743A5.9,5.9,0,0,1,73.568.176Z" transform="translate(264 303)" fill="#394049"/>
    <path id="Path_149" data-name="Path 149" d="M5.038-5.929V0H1.32V-16.027H6.534A10.7,10.7,0,0,1,9.5-15.67a5.566,5.566,0,0,1,2,1,3.768,3.768,0,0,1,1.127,1.507,4.993,4.993,0,0,1,.352,1.892A5.079,5.079,0,0,1,12.771-9.8a4.463,4.463,0,0,1-.621,1.281,4.81,4.81,0,0,1-1.012,1.05,5.374,5.374,0,0,1-1.381.759,3.5,3.5,0,0,1,.7.462,2.749,2.749,0,0,1,.566.671L14.432,0H11.066A1.428,1.428,0,0,1,9.724-.7L7.062-5.357a1.121,1.121,0,0,0-.413-.44,1.38,1.38,0,0,0-.665-.132Zm0-2.563h1.5a3.825,3.825,0,0,0,1.293-.192A2.335,2.335,0,0,0,8.7-9.218a2.032,2.032,0,0,0,.495-.8A3.061,3.061,0,0,0,9.35-11a2.065,2.065,0,0,0-.687-1.65,3.2,3.2,0,0,0-2.129-.594h-1.5Zm15.8-3.091a5.873,5.873,0,0,1,2.074.352,4.508,4.508,0,0,1,1.617,1.023,4.669,4.669,0,0,1,1.056,1.644,6.035,6.035,0,0,1,.379,2.206,4.814,4.814,0,0,1-.033.627.992.992,0,0,1-.121.385.461.461,0,0,1-.236.2,1.108,1.108,0,0,1-.38.055H18.612a3.216,3.216,0,0,0,.869,2.073,2.586,2.586,0,0,0,1.815.644,3.249,3.249,0,0,0,1.023-.143,5.161,5.161,0,0,0,.764-.319q.336-.176.616-.319a1.279,1.279,0,0,1,.588-.143A.7.7,0,0,1,24.9-3l.99,1.221A5.069,5.069,0,0,1,24.756-.8,5.916,5.916,0,0,1,23.5-.2a6.8,6.8,0,0,1-1.287.3,9.658,9.658,0,0,1-1.226.083,6.4,6.4,0,0,1-2.25-.391A5.169,5.169,0,0,1,16.9-1.375a5.476,5.476,0,0,1-1.243-1.914A7.152,7.152,0,0,1,15.2-5.951a6.024,6.024,0,0,1,.391-2.167,5.337,5.337,0,0,1,1.122-1.793,5.342,5.342,0,0,1,1.771-1.221A5.845,5.845,0,0,1,20.834-11.583ZM20.9-9.229a2.055,2.055,0,0,0-1.529.556,2.894,2.894,0,0,0-.726,1.6H22.9a3.01,3.01,0,0,0-.1-.792,1.92,1.92,0,0,0-.341-.687,1.735,1.735,0,0,0-.622-.49A2.125,2.125,0,0,0,20.9-9.229ZM36.146-8.7a1.886,1.886,0,0,1-.3.3.656.656,0,0,1-.407.11.876.876,0,0,1-.457-.121l-.457-.269a3.463,3.463,0,0,0-.594-.27,2.557,2.557,0,0,0-.847-.121A2.373,2.373,0,0,0,32-8.844a2.007,2.007,0,0,0-.754.66,3.016,3.016,0,0,0-.44,1.05,6.275,6.275,0,0,0-.143,1.4A4.274,4.274,0,0,0,31.3-3.212a2.03,2.03,0,0,0,1.743.88,2.437,2.437,0,0,0,.941-.148,2.85,2.85,0,0,0,.588-.33l.446-.336A.824.824,0,0,1,35.53-3.3a.7.7,0,0,1,.616.3l.99,1.221A5.387,5.387,0,0,1,36.025-.8,5.573,5.573,0,0,1,34.831-.2a6.16,6.16,0,0,1-1.226.3,9.031,9.031,0,0,1-1.2.083,5.145,5.145,0,0,1-2-.4,4.891,4.891,0,0,1-1.672-1.15,5.505,5.505,0,0,1-1.144-1.854,6.943,6.943,0,0,1-.424-2.508,7.045,7.045,0,0,1,.368-2.3,5.232,5.232,0,0,1,1.089-1.859,5.063,5.063,0,0,1,1.782-1.238,6.244,6.244,0,0,1,2.458-.451,5.993,5.993,0,0,1,2.354.429A5.648,5.648,0,0,1,37.048-9.9Zm7.348-2.882a5.873,5.873,0,0,1,2.074.352,4.508,4.508,0,0,1,1.617,1.023,4.669,4.669,0,0,1,1.056,1.644,6.035,6.035,0,0,1,.38,2.206,4.813,4.813,0,0,1-.033.627.992.992,0,0,1-.121.385.461.461,0,0,1-.237.2,1.108,1.108,0,0,1-.38.055H41.272a3.216,3.216,0,0,0,.869,2.073,2.586,2.586,0,0,0,1.815.644,3.249,3.249,0,0,0,1.023-.143,5.161,5.161,0,0,0,.764-.319q.336-.176.616-.319a1.279,1.279,0,0,1,.589-.143.7.7,0,0,1,.616.3l.99,1.221A5.069,5.069,0,0,1,47.416-.8,5.916,5.916,0,0,1,46.161-.2a6.8,6.8,0,0,1-1.287.3,9.658,9.658,0,0,1-1.226.083A6.4,6.4,0,0,1,41.4-.215a5.169,5.169,0,0,1-1.837-1.16,5.476,5.476,0,0,1-1.243-1.914,7.152,7.152,0,0,1-.457-2.662,6.024,6.024,0,0,1,.391-2.167,5.337,5.337,0,0,1,1.122-1.793,5.342,5.342,0,0,1,1.771-1.221A5.845,5.845,0,0,1,43.494-11.583Zm.066,2.354a2.055,2.055,0,0,0-1.529.556,2.894,2.894,0,0,0-.726,1.6h4.257a3.01,3.01,0,0,0-.1-.792,1.92,1.92,0,0,0-.341-.687,1.735,1.735,0,0,0-.621-.49A2.125,2.125,0,0,0,43.56-9.229ZM54.1-11.407V0h-3.41V-11.407Zm.4-3.124a1.8,1.8,0,0,1-.165.764,2.012,2.012,0,0,1-.451.627,2.208,2.208,0,0,1-.666.429,2.065,2.065,0,0,1-.808.16,1.92,1.92,0,0,1-.781-.16,2.2,2.2,0,0,1-.644-.429,1.98,1.98,0,0,1-.44-.627,1.855,1.855,0,0,1-.16-.764,1.92,1.92,0,0,1,.16-.781,2.027,2.027,0,0,1,.44-.638,2.061,2.061,0,0,1,.644-.429,1.979,1.979,0,0,1,.781-.154,2.129,2.129,0,0,1,.808.154,2.076,2.076,0,0,1,.666.429,2.059,2.059,0,0,1,.451.638A1.865,1.865,0,0,1,54.494-14.531Zm2.354,18.15V-11.407H58.96a.941.941,0,0,1,.534.143.764.764,0,0,1,.3.429l.253.836a5.733,5.733,0,0,1,.709-.66,4.675,4.675,0,0,1,.814-.512,4.486,4.486,0,0,1,.935-.336,4.655,4.655,0,0,1,1.095-.121,3.513,3.513,0,0,1,1.65.4,3.8,3.8,0,0,1,1.309,1.144,5.773,5.773,0,0,1,.864,1.832A8.85,8.85,0,0,1,67.738-5.8a7.578,7.578,0,0,1-.357,2.376,5.97,5.97,0,0,1-1,1.892A4.611,4.611,0,0,1,64.84-.275a4.355,4.355,0,0,1-1.986.451,3.887,3.887,0,0,1-1.5-.253,4.061,4.061,0,0,1-1.1-.682V3.619ZM62.414-9.02a2.947,2.947,0,0,0-.677.071,2.486,2.486,0,0,0-.561.2,2.127,2.127,0,0,0-.479.335,4.97,4.97,0,0,0-.44.468V-3.1a2.156,2.156,0,0,0,.836.6,2.653,2.653,0,0,0,.946.171,2.009,2.009,0,0,0,.869-.187,1.771,1.771,0,0,0,.688-.6,3.193,3.193,0,0,0,.457-1.073A6.718,6.718,0,0,0,64.218-5.8a7.388,7.388,0,0,0-.132-1.518,3.127,3.127,0,0,0-.368-1,1.431,1.431,0,0,0-.566-.545A1.625,1.625,0,0,0,62.414-9.02ZM73.568.176A4.021,4.021,0,0,1,72.133-.06a2.851,2.851,0,0,1-1.045-.671,2.86,2.86,0,0,1-.644-1.051,4.067,4.067,0,0,1-.22-1.375v-5.9h-.968a.646.646,0,0,1-.451-.17.643.643,0,0,1-.187-.5v-1.331l1.815-.352L71.1-14.19a.678.678,0,0,1,.748-.528h1.782v3.333h2.772v2.332H73.634v5.665a1.066,1.066,0,0,0,.192.655.65.65,0,0,0,.556.259,1.092,1.092,0,0,0,.313-.039,1.248,1.248,0,0,0,.22-.088q.093-.049.176-.088a.451.451,0,0,1,.192-.039.4.4,0,0,1,.247.071.885.885,0,0,1,.193.226L76.758-.814a4.706,4.706,0,0,1-1.485.743A5.9,5.9,0,0,1,73.568.176Z" transform="translate(264 425)" fill="#394049"/>
    <path id="Path_148" data-name="Path 148" d="M5.038-5.929V0H1.32V-16.027H6.534A10.7,10.7,0,0,1,9.5-15.67a5.566,5.566,0,0,1,2,1,3.768,3.768,0,0,1,1.127,1.507,4.993,4.993,0,0,1,.352,1.892A5.079,5.079,0,0,1,12.771-9.8a4.463,4.463,0,0,1-.621,1.281,4.81,4.81,0,0,1-1.012,1.05,5.374,5.374,0,0,1-1.381.759,3.5,3.5,0,0,1,.7.462,2.749,2.749,0,0,1,.566.671L14.432,0H11.066A1.428,1.428,0,0,1,9.724-.7L7.062-5.357a1.121,1.121,0,0,0-.413-.44,1.38,1.38,0,0,0-.665-.132Zm0-2.563h1.5a3.825,3.825,0,0,0,1.293-.192A2.335,2.335,0,0,0,8.7-9.218a2.032,2.032,0,0,0,.495-.8A3.061,3.061,0,0,0,9.35-11a2.065,2.065,0,0,0-.687-1.65,3.2,3.2,0,0,0-2.129-.594h-1.5Zm15.8-3.091a5.873,5.873,0,0,1,2.074.352,4.508,4.508,0,0,1,1.617,1.023,4.669,4.669,0,0,1,1.056,1.644,6.035,6.035,0,0,1,.379,2.206,4.814,4.814,0,0,1-.033.627.992.992,0,0,1-.121.385.461.461,0,0,1-.236.2,1.108,1.108,0,0,1-.38.055H18.612a3.216,3.216,0,0,0,.869,2.073,2.586,2.586,0,0,0,1.815.644,3.249,3.249,0,0,0,1.023-.143,5.161,5.161,0,0,0,.764-.319q.336-.176.616-.319a1.279,1.279,0,0,1,.588-.143A.7.7,0,0,1,24.9-3l.99,1.221A5.069,5.069,0,0,1,24.756-.8,5.916,5.916,0,0,1,23.5-.2a6.8,6.8,0,0,1-1.287.3,9.658,9.658,0,0,1-1.226.083,6.4,6.4,0,0,1-2.25-.391A5.169,5.169,0,0,1,16.9-1.375a5.476,5.476,0,0,1-1.243-1.914A7.152,7.152,0,0,1,15.2-5.951a6.024,6.024,0,0,1,.391-2.167,5.337,5.337,0,0,1,1.122-1.793,5.342,5.342,0,0,1,1.771-1.221A5.845,5.845,0,0,1,20.834-11.583ZM20.9-9.229a2.055,2.055,0,0,0-1.529.556,2.894,2.894,0,0,0-.726,1.6H22.9a3.01,3.01,0,0,0-.1-.792,1.92,1.92,0,0,0-.341-.687,1.735,1.735,0,0,0-.622-.49A2.125,2.125,0,0,0,20.9-9.229ZM36.146-8.7a1.886,1.886,0,0,1-.3.3.656.656,0,0,1-.407.11.876.876,0,0,1-.457-.121l-.457-.269a3.463,3.463,0,0,0-.594-.27,2.557,2.557,0,0,0-.847-.121A2.373,2.373,0,0,0,32-8.844a2.007,2.007,0,0,0-.754.66,3.016,3.016,0,0,0-.44,1.05,6.275,6.275,0,0,0-.143,1.4A4.274,4.274,0,0,0,31.3-3.212a2.03,2.03,0,0,0,1.743.88,2.437,2.437,0,0,0,.941-.148,2.85,2.85,0,0,0,.588-.33l.446-.336A.824.824,0,0,1,35.53-3.3a.7.7,0,0,1,.616.3l.99,1.221A5.387,5.387,0,0,1,36.025-.8,5.573,5.573,0,0,1,34.831-.2a6.16,6.16,0,0,1-1.226.3,9.031,9.031,0,0,1-1.2.083,5.145,5.145,0,0,1-2-.4,4.891,4.891,0,0,1-1.672-1.15,5.505,5.505,0,0,1-1.144-1.854,6.943,6.943,0,0,1-.424-2.508,7.045,7.045,0,0,1,.368-2.3,5.232,5.232,0,0,1,1.089-1.859,5.063,5.063,0,0,1,1.782-1.238,6.244,6.244,0,0,1,2.458-.451,5.993,5.993,0,0,1,2.354.429A5.648,5.648,0,0,1,37.048-9.9Zm7.348-2.882a5.873,5.873,0,0,1,2.074.352,4.508,4.508,0,0,1,1.617,1.023,4.669,4.669,0,0,1,1.056,1.644,6.035,6.035,0,0,1,.38,2.206,4.813,4.813,0,0,1-.033.627.992.992,0,0,1-.121.385.461.461,0,0,1-.237.2,1.108,1.108,0,0,1-.38.055H41.272a3.216,3.216,0,0,0,.869,2.073,2.586,2.586,0,0,0,1.815.644,3.249,3.249,0,0,0,1.023-.143,5.161,5.161,0,0,0,.764-.319q.336-.176.616-.319a1.279,1.279,0,0,1,.589-.143.7.7,0,0,1,.616.3l.99,1.221A5.069,5.069,0,0,1,47.416-.8,5.916,5.916,0,0,1,46.161-.2a6.8,6.8,0,0,1-1.287.3,9.658,9.658,0,0,1-1.226.083A6.4,6.4,0,0,1,41.4-.215a5.169,5.169,0,0,1-1.837-1.16,5.476,5.476,0,0,1-1.243-1.914,7.152,7.152,0,0,1-.457-2.662,6.024,6.024,0,0,1,.391-2.167,5.337,5.337,0,0,1,1.122-1.793,5.342,5.342,0,0,1,1.771-1.221A5.845,5.845,0,0,1,43.494-11.583Zm.066,2.354a2.055,2.055,0,0,0-1.529.556,2.894,2.894,0,0,0-.726,1.6h4.257a3.01,3.01,0,0,0-.1-.792,1.92,1.92,0,0,0-.341-.687,1.735,1.735,0,0,0-.621-.49A2.125,2.125,0,0,0,43.56-9.229ZM54.1-11.407V0h-3.41V-11.407Zm.4-3.124a1.8,1.8,0,0,1-.165.764,2.012,2.012,0,0,1-.451.627,2.208,2.208,0,0,1-.666.429,2.065,2.065,0,0,1-.808.16,1.92,1.92,0,0,1-.781-.16,2.2,2.2,0,0,1-.644-.429,1.98,1.98,0,0,1-.44-.627,1.855,1.855,0,0,1-.16-.764,1.92,1.92,0,0,1,.16-.781,2.027,2.027,0,0,1,.44-.638,2.061,2.061,0,0,1,.644-.429,1.979,1.979,0,0,1,.781-.154,2.129,2.129,0,0,1,.808.154,2.076,2.076,0,0,1,.666.429,2.059,2.059,0,0,1,.451.638A1.865,1.865,0,0,1,54.494-14.531Zm2.354,18.15V-11.407H58.96a.941.941,0,0,1,.534.143.764.764,0,0,1,.3.429l.253.836a5.733,5.733,0,0,1,.709-.66,4.675,4.675,0,0,1,.814-.512,4.486,4.486,0,0,1,.935-.336,4.655,4.655,0,0,1,1.095-.121,3.513,3.513,0,0,1,1.65.4,3.8,3.8,0,0,1,1.309,1.144,5.773,5.773,0,0,1,.864,1.832A8.85,8.85,0,0,1,67.738-5.8a7.578,7.578,0,0,1-.357,2.376,5.97,5.97,0,0,1-1,1.892A4.611,4.611,0,0,1,64.84-.275a4.355,4.355,0,0,1-1.986.451,3.887,3.887,0,0,1-1.5-.253,4.061,4.061,0,0,1-1.1-.682V3.619ZM62.414-9.02a2.947,2.947,0,0,0-.677.071,2.486,2.486,0,0,0-.561.2,2.127,2.127,0,0,0-.479.335,4.97,4.97,0,0,0-.44.468V-3.1a2.156,2.156,0,0,0,.836.6,2.653,2.653,0,0,0,.946.171,2.009,2.009,0,0,0,.869-.187,1.771,1.771,0,0,0,.688-.6,3.193,3.193,0,0,0,.457-1.073A6.718,6.718,0,0,0,64.218-5.8a7.388,7.388,0,0,0-.132-1.518,3.127,3.127,0,0,0-.368-1,1.431,1.431,0,0,0-.566-.545A1.625,1.625,0,0,0,62.414-9.02ZM73.568.176A4.021,4.021,0,0,1,72.133-.06a2.851,2.851,0,0,1-1.045-.671,2.86,2.86,0,0,1-.644-1.051,4.067,4.067,0,0,1-.22-1.375v-5.9h-.968a.646.646,0,0,1-.451-.17.643.643,0,0,1-.187-.5v-1.331l1.815-.352L71.1-14.19a.678.678,0,0,1,.748-.528h1.782v3.333h2.772v2.332H73.634v5.665a1.066,1.066,0,0,0,.192.655.65.65,0,0,0,.556.259,1.092,1.092,0,0,0,.313-.039,1.248,1.248,0,0,0,.22-.088q.093-.049.176-.088a.451.451,0,0,1,.192-.039.4.4,0,0,1,.247.071.885.885,0,0,1,.193.226L76.758-.814a4.706,4.706,0,0,1-1.485.743A5.9,5.9,0,0,1,73.568.176Z" transform="translate(264 547)" fill="#394049"/>
    <path id="Path_147" data-name="Path 147" d="M5.038-5.929V0H1.32V-16.027H6.534A10.7,10.7,0,0,1,9.5-15.67a5.566,5.566,0,0,1,2,1,3.768,3.768,0,0,1,1.127,1.507,4.993,4.993,0,0,1,.352,1.892A5.079,5.079,0,0,1,12.771-9.8a4.463,4.463,0,0,1-.621,1.281,4.81,4.81,0,0,1-1.012,1.05,5.374,5.374,0,0,1-1.381.759,3.5,3.5,0,0,1,.7.462,2.749,2.749,0,0,1,.566.671L14.432,0H11.066A1.428,1.428,0,0,1,9.724-.7L7.062-5.357a1.121,1.121,0,0,0-.413-.44,1.38,1.38,0,0,0-.665-.132Zm0-2.563h1.5a3.825,3.825,0,0,0,1.293-.192A2.335,2.335,0,0,0,8.7-9.218a2.032,2.032,0,0,0,.495-.8A3.061,3.061,0,0,0,9.35-11a2.065,2.065,0,0,0-.687-1.65,3.2,3.2,0,0,0-2.129-.594h-1.5Zm15.8-3.091a5.873,5.873,0,0,1,2.074.352,4.508,4.508,0,0,1,1.617,1.023,4.669,4.669,0,0,1,1.056,1.644,6.035,6.035,0,0,1,.379,2.206,4.814,4.814,0,0,1-.033.627.992.992,0,0,1-.121.385.461.461,0,0,1-.236.2,1.108,1.108,0,0,1-.38.055H18.612a3.216,3.216,0,0,0,.869,2.073,2.586,2.586,0,0,0,1.815.644,3.249,3.249,0,0,0,1.023-.143,5.161,5.161,0,0,0,.764-.319q.336-.176.616-.319a1.279,1.279,0,0,1,.588-.143A.7.7,0,0,1,24.9-3l.99,1.221A5.069,5.069,0,0,1,24.756-.8,5.916,5.916,0,0,1,23.5-.2a6.8,6.8,0,0,1-1.287.3,9.658,9.658,0,0,1-1.226.083,6.4,6.4,0,0,1-2.25-.391A5.169,5.169,0,0,1,16.9-1.375a5.476,5.476,0,0,1-1.243-1.914A7.152,7.152,0,0,1,15.2-5.951a6.024,6.024,0,0,1,.391-2.167,5.337,5.337,0,0,1,1.122-1.793,5.342,5.342,0,0,1,1.771-1.221A5.845,5.845,0,0,1,20.834-11.583ZM20.9-9.229a2.055,2.055,0,0,0-1.529.556,2.894,2.894,0,0,0-.726,1.6H22.9a3.01,3.01,0,0,0-.1-.792,1.92,1.92,0,0,0-.341-.687,1.735,1.735,0,0,0-.622-.49A2.125,2.125,0,0,0,20.9-9.229ZM36.146-8.7a1.886,1.886,0,0,1-.3.3.656.656,0,0,1-.407.11.876.876,0,0,1-.457-.121l-.457-.269a3.463,3.463,0,0,0-.594-.27,2.557,2.557,0,0,0-.847-.121A2.373,2.373,0,0,0,32-8.844a2.007,2.007,0,0,0-.754.66,3.016,3.016,0,0,0-.44,1.05,6.275,6.275,0,0,0-.143,1.4A4.274,4.274,0,0,0,31.3-3.212a2.03,2.03,0,0,0,1.743.88,2.437,2.437,0,0,0,.941-.148,2.85,2.85,0,0,0,.588-.33l.446-.336A.824.824,0,0,1,35.53-3.3a.7.7,0,0,1,.616.3l.99,1.221A5.387,5.387,0,0,1,36.025-.8,5.573,5.573,0,0,1,34.831-.2a6.16,6.16,0,0,1-1.226.3,9.031,9.031,0,0,1-1.2.083,5.145,5.145,0,0,1-2-.4,4.891,4.891,0,0,1-1.672-1.15,5.505,5.505,0,0,1-1.144-1.854,6.943,6.943,0,0,1-.424-2.508,7.045,7.045,0,0,1,.368-2.3,5.232,5.232,0,0,1,1.089-1.859,5.063,5.063,0,0,1,1.782-1.238,6.244,6.244,0,0,1,2.458-.451,5.993,5.993,0,0,1,2.354.429A5.648,5.648,0,0,1,37.048-9.9Zm7.348-2.882a5.873,5.873,0,0,1,2.074.352,4.508,4.508,0,0,1,1.617,1.023,4.669,4.669,0,0,1,1.056,1.644,6.035,6.035,0,0,1,.38,2.206,4.813,4.813,0,0,1-.033.627.992.992,0,0,1-.121.385.461.461,0,0,1-.237.2,1.108,1.108,0,0,1-.38.055H41.272a3.216,3.216,0,0,0,.869,2.073,2.586,2.586,0,0,0,1.815.644,3.249,3.249,0,0,0,1.023-.143,5.161,5.161,0,0,0,.764-.319q.336-.176.616-.319a1.279,1.279,0,0,1,.589-.143.7.7,0,0,1,.616.3l.99,1.221A5.069,5.069,0,0,1,47.416-.8,5.916,5.916,0,0,1,46.161-.2a6.8,6.8,0,0,1-1.287.3,9.658,9.658,0,0,1-1.226.083A6.4,6.4,0,0,1,41.4-.215a5.169,5.169,0,0,1-1.837-1.16,5.476,5.476,0,0,1-1.243-1.914,7.152,7.152,0,0,1-.457-2.662,6.024,6.024,0,0,1,.391-2.167,5.337,5.337,0,0,1,1.122-1.793,5.342,5.342,0,0,1,1.771-1.221A5.845,5.845,0,0,1,43.494-11.583Zm.066,2.354a2.055,2.055,0,0,0-1.529.556,2.894,2.894,0,0,0-.726,1.6h4.257a3.01,3.01,0,0,0-.1-.792,1.92,1.92,0,0,0-.341-.687,1.735,1.735,0,0,0-.621-.49A2.125,2.125,0,0,0,43.56-9.229ZM54.1-11.407V0h-3.41V-11.407Zm.4-3.124a1.8,1.8,0,0,1-.165.764,2.012,2.012,0,0,1-.451.627,2.208,2.208,0,0,1-.666.429,2.065,2.065,0,0,1-.808.16,1.92,1.92,0,0,1-.781-.16,2.2,2.2,0,0,1-.644-.429,1.98,1.98,0,0,1-.44-.627,1.855,1.855,0,0,1-.16-.764,1.92,1.92,0,0,1,.16-.781,2.027,2.027,0,0,1,.44-.638,2.061,2.061,0,0,1,.644-.429,1.979,1.979,0,0,1,.781-.154,2.129,2.129,0,0,1,.808.154,2.076,2.076,0,0,1,.666.429,2.059,2.059,0,0,1,.451.638A1.865,1.865,0,0,1,54.494-14.531Zm2.354,18.15V-11.407H58.96a.941.941,0,0,1,.534.143.764.764,0,0,1,.3.429l.253.836a5.733,5.733,0,0,1,.709-.66,4.675,4.675,0,0,1,.814-.512,4.486,4.486,0,0,1,.935-.336,4.655,4.655,0,0,1,1.095-.121,3.513,3.513,0,0,1,1.65.4,3.8,3.8,0,0,1,1.309,1.144,5.773,5.773,0,0,1,.864,1.832A8.85,8.85,0,0,1,67.738-5.8a7.578,7.578,0,0,1-.357,2.376,5.97,5.97,0,0,1-1,1.892A4.611,4.611,0,0,1,64.84-.275a4.355,4.355,0,0,1-1.986.451,3.887,3.887,0,0,1-1.5-.253,4.061,4.061,0,0,1-1.1-.682V3.619ZM62.414-9.02a2.947,2.947,0,0,0-.677.071,2.486,2.486,0,0,0-.561.2,2.127,2.127,0,0,0-.479.335,4.97,4.97,0,0,0-.44.468V-3.1a2.156,2.156,0,0,0,.836.6,2.653,2.653,0,0,0,.946.171,2.009,2.009,0,0,0,.869-.187,1.771,1.771,0,0,0,.688-.6,3.193,3.193,0,0,0,.457-1.073A6.718,6.718,0,0,0,64.218-5.8a7.388,7.388,0,0,0-.132-1.518,3.127,3.127,0,0,0-.368-1,1.431,1.431,0,0,0-.566-.545A1.625,1.625,0,0,0,62.414-9.02ZM73.568.176A4.021,4.021,0,0,1,72.133-.06a2.851,2.851,0,0,1-1.045-.671,2.86,2.86,0,0,1-.644-1.051,4.067,4.067,0,0,1-.22-1.375v-5.9h-.968a.646.646,0,0,1-.451-.17.643.643,0,0,1-.187-.5v-1.331l1.815-.352L71.1-14.19a.678.678,0,0,1,.748-.528h1.782v3.333h2.772v2.332H73.634v5.665a1.066,1.066,0,0,0,.192.655.65.65,0,0,0,.556.259,1.092,1.092,0,0,0,.313-.039,1.248,1.248,0,0,0,.22-.088q.093-.049.176-.088a.451.451,0,0,1,.192-.039.4.4,0,0,1,.247.071.885.885,0,0,1,.193.226L76.758-.814a4.706,4.706,0,0,1-1.485.743A5.9,5.9,0,0,1,73.568.176Z" transform="translate(264 669)" fill="#394049"/>
    <path id="Path_146" data-name="Path 146" d="M5.038-5.929V0H1.32V-16.027H6.534A10.7,10.7,0,0,1,9.5-15.67a5.566,5.566,0,0,1,2,1,3.768,3.768,0,0,1,1.127,1.507,4.993,4.993,0,0,1,.352,1.892A5.079,5.079,0,0,1,12.771-9.8a4.463,4.463,0,0,1-.621,1.281,4.81,4.81,0,0,1-1.012,1.05,5.374,5.374,0,0,1-1.381.759,3.5,3.5,0,0,1,.7.462,2.749,2.749,0,0,1,.566.671L14.432,0H11.066A1.428,1.428,0,0,1,9.724-.7L7.062-5.357a1.121,1.121,0,0,0-.413-.44,1.38,1.38,0,0,0-.665-.132Zm0-2.563h1.5a3.825,3.825,0,0,0,1.293-.192A2.335,2.335,0,0,0,8.7-9.218a2.032,2.032,0,0,0,.495-.8A3.061,3.061,0,0,0,9.35-11a2.065,2.065,0,0,0-.687-1.65,3.2,3.2,0,0,0-2.129-.594h-1.5Zm15.8-3.091a5.873,5.873,0,0,1,2.074.352,4.508,4.508,0,0,1,1.617,1.023,4.669,4.669,0,0,1,1.056,1.644,6.035,6.035,0,0,1,.379,2.206,4.814,4.814,0,0,1-.033.627.992.992,0,0,1-.121.385.461.461,0,0,1-.236.2,1.108,1.108,0,0,1-.38.055H18.612a3.216,3.216,0,0,0,.869,2.073,2.586,2.586,0,0,0,1.815.644,3.249,3.249,0,0,0,1.023-.143,5.161,5.161,0,0,0,.764-.319q.336-.176.616-.319a1.279,1.279,0,0,1,.588-.143A.7.7,0,0,1,24.9-3l.99,1.221A5.069,5.069,0,0,1,24.756-.8,5.916,5.916,0,0,1,23.5-.2a6.8,6.8,0,0,1-1.287.3,9.658,9.658,0,0,1-1.226.083,6.4,6.4,0,0,1-2.25-.391A5.169,5.169,0,0,1,16.9-1.375a5.476,5.476,0,0,1-1.243-1.914A7.152,7.152,0,0,1,15.2-5.951a6.024,6.024,0,0,1,.391-2.167,5.337,5.337,0,0,1,1.122-1.793,5.342,5.342,0,0,1,1.771-1.221A5.845,5.845,0,0,1,20.834-11.583ZM20.9-9.229a2.055,2.055,0,0,0-1.529.556,2.894,2.894,0,0,0-.726,1.6H22.9a3.01,3.01,0,0,0-.1-.792,1.92,1.92,0,0,0-.341-.687,1.735,1.735,0,0,0-.622-.49A2.125,2.125,0,0,0,20.9-9.229ZM36.146-8.7a1.886,1.886,0,0,1-.3.3.656.656,0,0,1-.407.11.876.876,0,0,1-.457-.121l-.457-.269a3.463,3.463,0,0,0-.594-.27,2.557,2.557,0,0,0-.847-.121A2.373,2.373,0,0,0,32-8.844a2.007,2.007,0,0,0-.754.66,3.016,3.016,0,0,0-.44,1.05,6.275,6.275,0,0,0-.143,1.4A4.274,4.274,0,0,0,31.3-3.212a2.03,2.03,0,0,0,1.743.88,2.437,2.437,0,0,0,.941-.148,2.85,2.85,0,0,0,.588-.33l.446-.336A.824.824,0,0,1,35.53-3.3a.7.7,0,0,1,.616.3l.99,1.221A5.387,5.387,0,0,1,36.025-.8,5.573,5.573,0,0,1,34.831-.2a6.16,6.16,0,0,1-1.226.3,9.031,9.031,0,0,1-1.2.083,5.145,5.145,0,0,1-2-.4,4.891,4.891,0,0,1-1.672-1.15,5.505,5.505,0,0,1-1.144-1.854,6.943,6.943,0,0,1-.424-2.508,7.045,7.045,0,0,1,.368-2.3,5.232,5.232,0,0,1,1.089-1.859,5.063,5.063,0,0,1,1.782-1.238,6.244,6.244,0,0,1,2.458-.451,5.993,5.993,0,0,1,2.354.429A5.648,5.648,0,0,1,37.048-9.9Zm7.348-2.882a5.873,5.873,0,0,1,2.074.352,4.508,4.508,0,0,1,1.617,1.023,4.669,4.669,0,0,1,1.056,1.644,6.035,6.035,0,0,1,.38,2.206,4.813,4.813,0,0,1-.033.627.992.992,0,0,1-.121.385.461.461,0,0,1-.237.2,1.108,1.108,0,0,1-.38.055H41.272a3.216,3.216,0,0,0,.869,2.073,2.586,2.586,0,0,0,1.815.644,3.249,3.249,0,0,0,1.023-.143,5.161,5.161,0,0,0,.764-.319q.336-.176.616-.319a1.279,1.279,0,0,1,.589-.143.7.7,0,0,1,.616.3l.99,1.221A5.069,5.069,0,0,1,47.416-.8,5.916,5.916,0,0,1,46.161-.2a6.8,6.8,0,0,1-1.287.3,9.658,9.658,0,0,1-1.226.083A6.4,6.4,0,0,1,41.4-.215a5.169,5.169,0,0,1-1.837-1.16,5.476,5.476,0,0,1-1.243-1.914,7.152,7.152,0,0,1-.457-2.662,6.024,6.024,0,0,1,.391-2.167,5.337,5.337,0,0,1,1.122-1.793,5.342,5.342,0,0,1,1.771-1.221A5.845,5.845,0,0,1,43.494-11.583Zm.066,2.354a2.055,2.055,0,0,0-1.529.556,2.894,2.894,0,0,0-.726,1.6h4.257a3.01,3.01,0,0,0-.1-.792,1.92,1.92,0,0,0-.341-.687,1.735,1.735,0,0,0-.621-.49A2.125,2.125,0,0,0,43.56-9.229ZM54.1-11.407V0h-3.41V-11.407Zm.4-3.124a1.8,1.8,0,0,1-.165.764,2.012,2.012,0,0,1-.451.627,2.208,2.208,0,0,1-.666.429,2.065,2.065,0,0,1-.808.16,1.92,1.92,0,0,1-.781-.16,2.2,2.2,0,0,1-.644-.429,1.98,1.98,0,0,1-.44-.627,1.855,1.855,0,0,1-.16-.764,1.92,1.92,0,0,1,.16-.781,2.027,2.027,0,0,1,.44-.638,2.061,2.061,0,0,1,.644-.429,1.979,1.979,0,0,1,.781-.154,2.129,2.129,0,0,1,.808.154,2.076,2.076,0,0,1,.666.429,2.059,2.059,0,0,1,.451.638A1.865,1.865,0,0,1,54.494-14.531Zm2.354,18.15V-11.407H58.96a.941.941,0,0,1,.534.143.764.764,0,0,1,.3.429l.253.836a5.733,5.733,0,0,1,.709-.66,4.675,4.675,0,0,1,.814-.512,4.486,4.486,0,0,1,.935-.336,4.655,4.655,0,0,1,1.095-.121,3.513,3.513,0,0,1,1.65.4,3.8,3.8,0,0,1,1.309,1.144,5.773,5.773,0,0,1,.864,1.832A8.85,8.85,0,0,1,67.738-5.8a7.578,7.578,0,0,1-.357,2.376,5.97,5.97,0,0,1-1,1.892A4.611,4.611,0,0,1,64.84-.275a4.355,4.355,0,0,1-1.986.451,3.887,3.887,0,0,1-1.5-.253,4.061,4.061,0,0,1-1.1-.682V3.619ZM62.414-9.02a2.947,2.947,0,0,0-.677.071,2.486,2.486,0,0,0-.561.2,2.127,2.127,0,0,0-.479.335,4.97,4.97,0,0,0-.44.468V-3.1a2.156,2.156,0,0,0,.836.6,2.653,2.653,0,0,0,.946.171,2.009,2.009,0,0,0,.869-.187,1.771,1.771,0,0,0,.688-.6,3.193,3.193,0,0,0,.457-1.073A6.718,6.718,0,0,0,64.218-5.8a7.388,7.388,0,0,0-.132-1.518,3.127,3.127,0,0,0-.368-1,1.431,1.431,0,0,0-.566-.545A1.625,1.625,0,0,0,62.414-9.02ZM73.568.176A4.021,4.021,0,0,1,72.133-.06a2.851,2.851,0,0,1-1.045-.671,2.86,2.86,0,0,1-.644-1.051,4.067,4.067,0,0,1-.22-1.375v-5.9h-.968a.646.646,0,0,1-.451-.17.643.643,0,0,1-.187-.5v-1.331l1.815-.352L71.1-14.19a.678.678,0,0,1,.748-.528h1.782v3.333h2.772v2.332H73.634v5.665a1.066,1.066,0,0,0,.192.655.65.65,0,0,0,.556.259,1.092,1.092,0,0,0,.313-.039,1.248,1.248,0,0,0,.22-.088q.093-.049.176-.088a.451.451,0,0,1,.192-.039.4.4,0,0,1,.247.071.885.885,0,0,1,.193.226L76.758-.814a4.706,4.706,0,0,1-1.485.743A5.9,5.9,0,0,1,73.568.176Z" transform="translate(264 791)" fill="#394049"/>
    <path id="Path_145" data-name="Path 145" d="M16.236,0H13.354a1.332,1.332,0,0,1-.8-.226A1.165,1.165,0,0,1,12.122-.8L11.176-3.6H5.082L4.136-.8a1.239,1.239,0,0,1-.429.555A1.236,1.236,0,0,1,2.926,0H.022l6.2-16.027h3.806ZM5.94-6.127h4.378L8.844-10.516q-.143-.418-.335-.985t-.379-1.226q-.176.671-.363,1.243t-.352.99ZM25.542,0a.941.941,0,0,1-.533-.143.764.764,0,0,1-.3-.429l-.264-.869a6.687,6.687,0,0,1-.715.66,4.5,4.5,0,0,1-.809.512,4.276,4.276,0,0,1-.935.33A4.814,4.814,0,0,1,20.9.176a3.513,3.513,0,0,1-1.65-.4,3.8,3.8,0,0,1-1.309-1.144A5.773,5.773,0,0,1,17.078-3.2a8.9,8.9,0,0,1-.314-2.47,7.7,7.7,0,0,1,.352-2.37,5.812,5.812,0,0,1,1-1.892,4.623,4.623,0,0,1,1.546-1.249,4.389,4.389,0,0,1,1.991-.451,3.822,3.822,0,0,1,1.49.259,4.3,4.3,0,0,1,1.106.676v-5.775h3.41V0ZM22.088-2.442a2.946,2.946,0,0,0,.676-.072,2.378,2.378,0,0,0,.556-.2,2.423,2.423,0,0,0,.478-.33,4.139,4.139,0,0,0,.446-.462v-4.84a2.255,2.255,0,0,0-.842-.6,2.609,2.609,0,0,0-.94-.17,2.009,2.009,0,0,0-.869.187,1.771,1.771,0,0,0-.687.6,3.193,3.193,0,0,0-.456,1.072,6.663,6.663,0,0,0-.165,1.6,7.388,7.388,0,0,0,.132,1.518,3.127,3.127,0,0,0,.368,1,1.431,1.431,0,0,0,.567.544A1.625,1.625,0,0,0,22.088-2.442ZM38.3,0a.941.941,0,0,1-.534-.143.764.764,0,0,1-.3-.429L37.2-1.441a6.688,6.688,0,0,1-.715.66,4.5,4.5,0,0,1-.808.512,4.276,4.276,0,0,1-.935.33A4.814,4.814,0,0,1,33.66.176a3.513,3.513,0,0,1-1.65-.4A3.8,3.8,0,0,1,30.7-1.364,5.773,5.773,0,0,1,29.838-3.2a8.9,8.9,0,0,1-.314-2.47,7.7,7.7,0,0,1,.352-2.37,5.812,5.812,0,0,1,1-1.892,4.623,4.623,0,0,1,1.545-1.249,4.389,4.389,0,0,1,1.991-.451,3.822,3.822,0,0,1,1.49.259A4.3,4.3,0,0,1,37-10.692v-5.775h3.41V0ZM34.848-2.442a2.947,2.947,0,0,0,.677-.072,2.378,2.378,0,0,0,.556-.2,2.424,2.424,0,0,0,.479-.33A4.139,4.139,0,0,0,37-3.509v-4.84a2.255,2.255,0,0,0-.841-.6,2.609,2.609,0,0,0-.941-.17,2.009,2.009,0,0,0-.869.187,1.771,1.771,0,0,0-.687.6,3.193,3.193,0,0,0-.457,1.072,6.663,6.663,0,0,0-.165,1.6,7.388,7.388,0,0,0,.132,1.518,3.127,3.127,0,0,0,.368,1,1.431,1.431,0,0,0,.566.544A1.625,1.625,0,0,0,34.848-2.442Zm16.17-3.487V0H47.3V-16.027h5.214a10.7,10.7,0,0,1,2.965.358,5.566,5.566,0,0,1,2,1,3.768,3.768,0,0,1,1.128,1.507,4.993,4.993,0,0,1,.352,1.892A5.079,5.079,0,0,1,58.751-9.8a4.463,4.463,0,0,1-.621,1.281,4.81,4.81,0,0,1-1.012,1.05,5.374,5.374,0,0,1-1.381.759,3.5,3.5,0,0,1,.7.462A2.749,2.749,0,0,1,57-5.577L60.412,0H57.046A1.428,1.428,0,0,1,55.7-.7L53.042-5.357a1.121,1.121,0,0,0-.412-.44,1.38,1.38,0,0,0-.666-.132Zm0-2.563h1.5a3.825,3.825,0,0,0,1.292-.192,2.335,2.335,0,0,0,.875-.534,2.032,2.032,0,0,0,.495-.8A3.061,3.061,0,0,0,55.33-11a2.065,2.065,0,0,0-.687-1.65,3.2,3.2,0,0,0-2.129-.594h-1.5Zm15.8-3.091a5.873,5.873,0,0,1,2.073.352A4.507,4.507,0,0,1,70.5-10.208a4.669,4.669,0,0,1,1.056,1.644,6.035,6.035,0,0,1,.38,2.206,4.813,4.813,0,0,1-.033.627.992.992,0,0,1-.121.385.461.461,0,0,1-.237.2,1.108,1.108,0,0,1-.38.055H64.592a3.216,3.216,0,0,0,.869,2.073,2.586,2.586,0,0,0,1.815.644A3.249,3.249,0,0,0,68.3-2.519a5.161,5.161,0,0,0,.764-.319q.336-.176.616-.319a1.279,1.279,0,0,1,.588-.143.7.7,0,0,1,.616.3l.99,1.221A5.069,5.069,0,0,1,70.736-.8,5.916,5.916,0,0,1,69.481-.2a6.8,6.8,0,0,1-1.287.3,9.658,9.658,0,0,1-1.227.083,6.4,6.4,0,0,1-2.25-.391,5.169,5.169,0,0,1-1.837-1.16,5.476,5.476,0,0,1-1.243-1.914,7.152,7.152,0,0,1-.457-2.662,6.024,6.024,0,0,1,.391-2.167,5.337,5.337,0,0,1,1.122-1.793,5.342,5.342,0,0,1,1.771-1.221A5.845,5.845,0,0,1,66.814-11.583Zm.066,2.354a2.055,2.055,0,0,0-1.529.556,2.894,2.894,0,0,0-.726,1.6h4.257a3.01,3.01,0,0,0-.1-.792,1.92,1.92,0,0,0-.341-.687,1.735,1.735,0,0,0-.621-.49A2.125,2.125,0,0,0,66.88-9.229ZM82.126-8.7a1.886,1.886,0,0,1-.3.3.656.656,0,0,1-.407.11.876.876,0,0,1-.457-.121l-.456-.269a3.463,3.463,0,0,0-.594-.27,2.557,2.557,0,0,0-.847-.121,2.373,2.373,0,0,0-1.083.231,2.007,2.007,0,0,0-.754.66,3.016,3.016,0,0,0-.44,1.05,6.276,6.276,0,0,0-.143,1.4,4.274,4.274,0,0,0,.632,2.519,2.03,2.03,0,0,0,1.743.88,2.437,2.437,0,0,0,.94-.148,2.85,2.85,0,0,0,.589-.33L81-3.146A.824.824,0,0,1,81.51-3.3a.7.7,0,0,1,.616.3l.99,1.221A5.387,5.387,0,0,1,82.005-.8,5.573,5.573,0,0,1,80.812-.2a6.16,6.16,0,0,1-1.226.3,9.031,9.031,0,0,1-1.2.083,5.145,5.145,0,0,1-2-.4,4.891,4.891,0,0,1-1.672-1.15,5.505,5.505,0,0,1-1.144-1.854,6.943,6.943,0,0,1-.424-2.508,7.045,7.045,0,0,1,.368-2.3,5.232,5.232,0,0,1,1.089-1.859,5.063,5.063,0,0,1,1.782-1.238,6.244,6.244,0,0,1,2.458-.451,5.993,5.993,0,0,1,2.354.429A5.648,5.648,0,0,1,83.028-9.9Zm7.348-2.882a5.873,5.873,0,0,1,2.074.352,4.507,4.507,0,0,1,1.617,1.023A4.669,4.669,0,0,1,94.22-8.564a6.035,6.035,0,0,1,.38,2.206,4.813,4.813,0,0,1-.033.627.992.992,0,0,1-.121.385.461.461,0,0,1-.237.2,1.108,1.108,0,0,1-.38.055H87.252a3.216,3.216,0,0,0,.869,2.073,2.586,2.586,0,0,0,1.815.644,3.249,3.249,0,0,0,1.023-.143,5.16,5.16,0,0,0,.764-.319q.336-.176.616-.319a1.279,1.279,0,0,1,.589-.143.7.7,0,0,1,.616.3l.99,1.221A5.069,5.069,0,0,1,93.4-.8,5.916,5.916,0,0,1,92.141-.2a6.8,6.8,0,0,1-1.287.3,9.658,9.658,0,0,1-1.227.083,6.4,6.4,0,0,1-2.25-.391,5.169,5.169,0,0,1-1.837-1.16A5.476,5.476,0,0,1,84.3-3.289a7.152,7.152,0,0,1-.457-2.662,6.024,6.024,0,0,1,.391-2.167,5.337,5.337,0,0,1,1.122-1.793,5.342,5.342,0,0,1,1.771-1.221A5.845,5.845,0,0,1,89.474-11.583Zm.066,2.354a2.055,2.055,0,0,0-1.529.556,2.894,2.894,0,0,0-.726,1.6h4.257a3.01,3.01,0,0,0-.1-.792,1.92,1.92,0,0,0-.341-.687,1.735,1.735,0,0,0-.621-.49A2.125,2.125,0,0,0,89.54-9.229Zm10.538-2.178V0h-3.41V-11.407Zm.4-3.124a1.8,1.8,0,0,1-.165.764,2.012,2.012,0,0,1-.451.627,2.208,2.208,0,0,1-.666.429,2.065,2.065,0,0,1-.808.16,1.92,1.92,0,0,1-.781-.16,2.2,2.2,0,0,1-.644-.429,1.98,1.98,0,0,1-.44-.627,1.855,1.855,0,0,1-.16-.764,1.92,1.92,0,0,1,.16-.781,2.027,2.027,0,0,1,.44-.638,2.061,2.061,0,0,1,.644-.429,1.979,1.979,0,0,1,.781-.154,2.129,2.129,0,0,1,.808.154,2.076,2.076,0,0,1,.666.429,2.059,2.059,0,0,1,.451.638A1.865,1.865,0,0,1,100.474-14.531Zm2.354,18.15V-11.407h2.112a.941.941,0,0,1,.534.143.764.764,0,0,1,.3.429l.253.836a5.733,5.733,0,0,1,.709-.66,4.675,4.675,0,0,1,.814-.512,4.486,4.486,0,0,1,.935-.336,4.655,4.655,0,0,1,1.094-.121,3.513,3.513,0,0,1,1.65.4,3.8,3.8,0,0,1,1.309,1.144,5.773,5.773,0,0,1,.864,1.832,8.85,8.85,0,0,1,.313,2.458,7.578,7.578,0,0,1-.357,2.376,5.97,5.97,0,0,1-1,1.892,4.611,4.611,0,0,1-1.54,1.254,4.355,4.355,0,0,1-1.986.451,3.887,3.887,0,0,1-1.5-.253,4.061,4.061,0,0,1-1.1-.682V3.619ZM108.394-9.02a2.947,2.947,0,0,0-.676.071,2.486,2.486,0,0,0-.561.2,2.127,2.127,0,0,0-.479.335,4.968,4.968,0,0,0-.44.468V-3.1a2.156,2.156,0,0,0,.836.6,2.653,2.653,0,0,0,.946.171,2.009,2.009,0,0,0,.869-.187,1.771,1.771,0,0,0,.688-.6,3.193,3.193,0,0,0,.456-1.073A6.718,6.718,0,0,0,110.2-5.8a7.388,7.388,0,0,0-.132-1.518,3.127,3.127,0,0,0-.368-1,1.431,1.431,0,0,0-.566-.545A1.625,1.625,0,0,0,108.394-9.02Zm11.154,9.2a4.021,4.021,0,0,1-1.435-.237,2.851,2.851,0,0,1-1.045-.671,2.86,2.86,0,0,1-.644-1.051,4.067,4.067,0,0,1-.22-1.375v-5.9h-.968a.646.646,0,0,1-.451-.17.643.643,0,0,1-.187-.5v-1.331l1.815-.352.671-2.783a.678.678,0,0,1,.748-.528h1.782v3.333h2.772v2.332h-2.772v5.665a1.066,1.066,0,0,0,.192.655.65.65,0,0,0,.556.259,1.092,1.092,0,0,0,.313-.039,1.248,1.248,0,0,0,.22-.088q.093-.049.176-.088a.451.451,0,0,1,.192-.039.4.4,0,0,1,.247.071.885.885,0,0,1,.193.226l1.034,1.617a4.706,4.706,0,0,1-1.485.743A5.9,5.9,0,0,1,119.548.176Z" transform="translate(287 919)" fill="#fff"/>
    <g id="more_vert-24px" transform="translate(509 172)">
      <path id="Path_141" data-name="Path 141" d="M0,0H24V24H0Z" fill="none"/>
      <path id="Path_142" data-name="Path 142" d="M12,8a2,2,0,1,0-2-2A2.006,2.006,0,0,0,12,8Zm0,2a2,2,0,1,0,2,2A2.006,2.006,0,0,0,12,10Zm0,6a2,2,0,1,0,2,2A2.006,2.006,0,0,0,12,16Z"/>
    </g>
  </g>
</svg>
