<svg xmlns="http://www.w3.org/2000/svg" xmlns:xlink="http://www.w3.org/1999/xlink" width="701.26" height="1051.88" viewBox="0 0 701.26 1051.88">
  <defs>
    <clipPath id="clip-Image_08">
      <rect width="701.26" height="1051.88"/>
    </clipPath>
  </defs>
  <g id="Image_08" data-name="Image 08" clip-path="url(#clip-Image_08)">
    <rect width="701.26" height="1051.88" fill="rgba(255,255,255,0)"/>
    <g id="Rectangle_429" data-name="Rectangle 429" transform="translate(107 154)" fill="#eff0f2" stroke="#d8dbdf" stroke-width="1">
      <rect width="15" height="85" rx="6" stroke="none"/>
      <rect x="0.5" y="0.5" width="14" height="84" rx="5.5" fill="none"/>
    </g>
    <g id="Rectangle_431" data-name="Rectangle 431" transform="translate(107 294)" fill="#eff0f2" stroke="#d8dbdf" stroke-width="1">
      <rect width="15" height="85" rx="6" stroke="none"/>
      <rect x="0.5" y="0.5" width="14" height="84" rx="5.5" fill="none"/>
    </g>
    <g id="Rectangle_432" data-name="Rectangle 432" transform="translate(107 387)" fill="#eff0f2" stroke="#d8dbdf" stroke-width="1">
      <rect width="15" height="85" rx="6" stroke="none"/>
      <rect x="0.5" y="0.5" width="14" height="84" rx="5.5" fill="none"/>
    </g>
    <g id="Rectangle_430" data-name="Rectangle 430" transform="translate(581 154)" fill="#eff0f2" stroke="#d8dbdf" stroke-width="1">
      <rect width="15" height="155" rx="6" stroke="none"/>
      <rect x="0.5" y="0.5" width="14" height="154" rx="5.5" fill="none"/>
    </g>
    <g id="Group_96" data-name="Group 96">
      <g id="Group_91" data-name="Group 91" transform="translate(114.7 40)">
        <g id="Path_138" data-name="Path 138" transform="translate(0.3)" fill="#eff0f2">
          <path d="M64,0H409a64,64,0,0,1,64,64V909a64,64,0,0,1-64,64H64A64,64,0,0,1,0,909V64A64,64,0,0,1,64,0Z" stroke="none"/>
          <path d="M 64 1 C 55.49462890625 1 47.24411010742188 2.6656494140625 39.47787475585938 5.95050048828125 C 35.7449951171875 7.52923583984375 32.14474487304688 9.4835205078125 28.77676391601562 11.75872802734375 C 25.44061279296875 14.01263427734375 22.30337524414062 16.60113525390625 19.45223999023438 19.4522705078125 C 16.60113525390625 22.3033447265625 14.01263427734375 25.44061279296875 11.75875854492188 28.7767333984375 C 9.483489990234375 32.144775390625 7.52923583984375 35.7449951171875 5.95050048828125 39.4779052734375 C 2.665618896484375 47.244140625 1 55.49462890625 1 64 L 1 909 C 1 917.50537109375 2.665618896484375 925.755859375 5.95050048828125 933.5220947265625 C 7.52923583984375 937.2550048828125 9.483489990234375 940.855224609375 11.75875854492188 944.2232666015625 C 14.01263427734375 947.5593872070312 16.60113525390625 950.6966552734375 19.45223999023438 953.5477294921875 C 22.30337524414062 956.3988647460938 25.44061279296875 958.9873657226562 28.77676391601562 961.2412719726562 C 32.14474487304688 963.5164794921875 35.7449951171875 965.4707641601562 39.47787475585938 967.0494995117188 C 47.24411010742188 970.3343505859375 55.49462890625 972 64 972 L 409 972 C 417.50537109375 972 425.755859375 970.3343505859375 433.5221252441406 967.0494995117188 C 437.2550048828125 965.4707641601562 440.8552551269531 963.5164794921875 444.2232360839844 961.2412719726562 C 447.5593872070312 958.9873657226562 450.6966247558594 956.3988647460938 453.5477600097656 953.5477294921875 C 456.3988647460938 950.6966552734375 458.9873657226562 947.5593872070312 461.2412414550781 944.2232666015625 C 463.5165100097656 940.855224609375 465.4707641601562 937.2550048828125 467.0494995117188 933.5220947265625 C 470.3343811035156 925.755859375 472 917.50537109375 472 909 L 472 64 C 472 55.49462890625 470.3343811035156 47.244140625 467.0494995117188 39.4779052734375 C 465.4707641601562 35.7449951171875 463.5165100097656 32.144775390625 461.2412414550781 28.7767333984375 C 458.9873657226562 25.44061279296875 456.3988647460938 22.3033447265625 453.5477600097656 19.4522705078125 C 450.6966247558594 16.60113525390625 447.5593872070312 14.01263427734375 444.2232360839844 11.75872802734375 C 440.8552551269531 9.4835205078125 437.2550048828125 7.52923583984375 433.5221252441406 5.95050048828125 C 425.755859375 2.6656494140625 417.50537109375 1 409 1 L 64 1 M 64 0 L 409 0 C 444.3462524414062 0 473 28.65374755859375 473 64 L 473 909 C 473 944.3462524414062 444.3462524414062 973 409 973 L 64 973 C 28.65374755859375 973 0 944.3462524414062 0 909 L 0 64 C 0 28.65374755859375 28.65374755859375 0 64 0 Z" stroke="none" fill="rgba(207,211,215,0.7)"/>
        </g>
        <g id="Subtraction_2" data-name="Subtraction 2" transform="translate(20.3 20.879)" fill="#fff">
          <path d="M380.4,926.242H52a51.957,51.957,0,0,1-52-52V52A51.956,51.956,0,0,1,52,0H83.072V13.685a28.976,28.976,0,0,0,29,29H320.328a28.91,28.91,0,0,0,20.506-8.494,28.91,28.91,0,0,0,8.494-20.506V0H380.4a51.957,51.957,0,0,1,52,52V874.242a51.957,51.957,0,0,1-52,52Z" stroke="none"/>
          <path d="M 380.3995666503906 926.242431640625 L 380.3995666503906 925.242431640625 C 387.2852172851562 925.2423095703125 393.9640502929688 923.8939819335938 400.250732421875 921.2348022460938 C 406.3234558105469 918.6663208007812 411.7778015136719 914.9889526367188 416.4620361328125 910.3048095703125 C 421.1463928222656 905.6202392578125 424.8237915039062 900.1659545898438 427.3921508789062 894.0933837890625 C 430.0514526367188 887.8064575195312 431.3998107910156 881.1275024414062 431.3998107910156 874.2421264648438 L 431.3998107910156 52.00021743774414 C 431.3998107910156 45.11480712890625 430.0514526367188 38.43586349487305 427.3920288085938 32.14892578125 C 424.8236999511719 26.07621765136719 421.1462707519531 20.62198257446289 416.462158203125 15.93762969970703 C 411.7778015136719 11.25351238250732 406.3235778808594 7.57610034942627 400.250732421875 5.007512092590332 C 393.9636840820312 2.348335742950439 387.2847290039062 1.000100374221802 380.3995666503906 1.000218033790588 L 350.3280334472656 1.000104188919067 L 350.3280334472656 13.68457126617432 C 350.3280334472656 17.7337474822998 349.5346374511719 21.66257095336914 347.9699096679688 25.36186599731445 C 346.4588623046875 28.9344539642334 344.2959289550781 32.1426887512207 341.5412292480469 34.89751052856445 C 338.7860412597656 37.6524543762207 335.5777893066406 39.81539535522461 332.0056762695312 41.32621765136719 C 328.3072204589844 42.89080810546875 324.3782653808594 43.68421936035156 320.3281555175781 43.68445205688477 L 112.0715713500977 43.68445205688477 C 108.0215682983398 43.68421936035156 104.0926284790039 42.89080810546875 100.3940353393555 41.32633590698242 C 96.82157135009766 39.81527709960938 93.61344909667969 37.65233612060547 90.85862731933594 34.89739608764648 C 88.10391998291016 32.14280700683594 85.94086456298828 28.9345703125 84.4295654296875 25.36186599731445 C 82.86533355712891 21.66315841674805 82.07203674316406 17.73445320129395 82.07192230224609 13.68457126617432 L 82.07192230224609 1.000218033790588 L 51.99933242797852 1.000218033790588 C 45.1143913269043 1.000218033790588 38.43568420410156 2.348453283309937 32.14886093139648 5.007394313812256 C 26.07580375671387 7.576218128204346 20.62156677246094 11.25374698638916 15.93756771087646 15.93762969970703 C 11.25380325317383 20.62162971496582 7.576273441314697 26.07586479187012 5.007450103759766 32.14892578125 C 2.34839129447937 38.43598175048828 1.000155925750732 45.11492538452148 1.000273585319519 52.00021743774414 L 1.000273585319519 874.2421264648438 C 1.000155925750732 881.1273803710938 2.34839129447937 887.8063354492188 5.007332324981689 894.0933837890625 C 7.576273441314697 900.1664428710938 11.25368499755859 905.6206665039062 15.93756771087646 910.3048095703125 C 20.62168502807617 914.9888305664062 26.0760383605957 918.6661987304688 32.14886093139648 921.2348022460938 C 38.43568420410156 923.8939819335938 45.11462783813477 925.2423095703125 52.00027465820312 925.242431640625 L 380.3995666503906 925.242431640625 L 380.3995666503906 926.242431640625 M 380.3995666503906 926.242431640625 L 52.00027465820312 926.242431640625 C 44.98027420043945 926.2423095703125 38.17027282714844 924.8674926757812 31.75933265686035 922.1558837890625 C 25.56733322143555 919.5368041992188 20.00627326965332 915.7875366210938 15.23050880432129 911.0118408203125 C 10.45509719848633 906.236328125 6.705685138702393 900.67529296875 4.086391448974609 894.48291015625 C 1.374979496002197 888.0720825195312 0.0001559484080644324 881.2620849609375 0.0002735954767558724 874.2421264648438 L 0.0002735954767558724 52.00021743774414 C 0.0001559484080644324 44.98021697998047 1.374979496002197 38.17021942138672 4.086391448974609 31.7593936920166 C 6.705685138702393 25.56727600097656 10.45509719848633 20.00609970092773 15.23050880432129 15.23057079315186 C 20.00603866577148 10.45504188537598 25.56721496582031 6.705629825592041 31.75933265686035 4.086453437805176 C 38.17004013061523 1.375041604042053 44.97968673706055 0.0002180319424951449 51.99933242797852 0.0002180319424951449 L 83.07192230224609 0.0002180319424951449 L 83.07192230224609 13.68457126617432 C 83.07203674316406 17.59963035583496 83.838623046875 21.39739418029785 85.35062408447266 24.97233581542969 C 86.81144714355469 28.42574691772461 88.90238952636719 31.52704238891602 91.56568908691406 34.19033432006836 C 94.22898101806641 36.85363006591797 97.33039093017578 38.94468688964844 100.7835693359375 40.40527725219727 C 104.3586273193359 41.91751098632812 108.1565093994141 42.68421936035156 112.0716857910156 42.68445205688477 L 320.3281555175781 42.68445205688477 C 324.2433471679688 42.68421936035156 328.0412292480469 41.91751098632812 331.6161499023438 40.40527725219727 C 335.0693359375 38.94468688964844 338.1705017089844 36.8537483215332 340.8341674804688 34.19033432006836 C 343.4973449707031 31.52704238891602 345.5882873535156 28.42563056945801 347.0489807128906 24.97233581542969 C 348.5612182617188 21.39704132080078 349.3280334472656 17.59927749633789 349.3280334472656 13.68457126617432 L 349.3280334472656 0.0001003848810796626 L 380.3995666503906 0.0002180319424951449 C 387.4193420410156 0.0001003848810796626 394.2293395996094 1.374923944473267 400.6402587890625 4.086453437805176 C 406.8326416015625 6.705629825592041 412.3935546875 10.45504188537598 417.1692199707031 15.23057079315186 C 421.9449768066406 20.0064525604248 425.6942749023438 25.56751251220703 428.3131103515625 31.7593936920166 C 431.0248718261719 38.17033386230469 432.3998107910156 44.9803352355957 432.3998107910156 52.00021743774414 L 432.3998107910156 874.2421264648438 C 432.3998107910156 881.261962890625 431.0248718261719 888.0719604492188 428.3131103515625 894.48291015625 C 425.6942749023438 900.6749267578125 421.9447326660156 906.236083984375 417.1692199707031 911.0118408203125 C 412.3935546875 915.7874145507812 406.8326416015625 919.5368041992188 400.6402587890625 922.1558837890625 C 394.2294616699219 924.8674926757812 387.4194641113281 926.2423095703125 380.3995666503906 926.242431640625 Z" stroke="none" fill="rgba(207,211,215,0.47)"/>
        </g>
        <path id="Path_123" data-name="Path 123" d="M20.664,0H17a1.7,1.7,0,0,1-1.015-.287,1.482,1.482,0,0,1-.553-.735l-1.2-3.556H6.468l-1.2,3.556a1.576,1.576,0,0,1-.546.707A1.573,1.573,0,0,1,3.724,0H.028l7.9-20.4h4.844ZM7.56-7.8h5.572l-1.876-5.586q-.182-.532-.427-1.253T10.346-16.2q-.224.854-.462,1.582t-.448,1.26ZM32.508,0a1.2,1.2,0,0,1-.679-.182.972.972,0,0,1-.385-.546l-.336-1.106a8.511,8.511,0,0,1-.91.84,5.723,5.723,0,0,1-1.029.651,5.442,5.442,0,0,1-1.19.42A6.127,6.127,0,0,1,26.6.224a4.472,4.472,0,0,1-2.1-.5,4.839,4.839,0,0,1-1.666-1.456,7.347,7.347,0,0,1-1.1-2.331,11.321,11.321,0,0,1-.4-3.143,9.8,9.8,0,0,1,.448-3.017,7.4,7.4,0,0,1,1.267-2.408,5.884,5.884,0,0,1,1.967-1.589,5.586,5.586,0,0,1,2.534-.574,4.865,4.865,0,0,1,1.9.329,5.476,5.476,0,0,1,1.407.861v-7.35H35.2V0Zm-4.4-3.108a3.75,3.75,0,0,0,.861-.091,3.027,3.027,0,0,0,.707-.259,3.085,3.085,0,0,0,.609-.42,5.268,5.268,0,0,0,.567-.588v-6.16a2.87,2.87,0,0,0-1.071-.763,3.32,3.32,0,0,0-1.2-.217,2.557,2.557,0,0,0-1.106.238,2.254,2.254,0,0,0-.875.763,4.064,4.064,0,0,0-.581,1.365,8.48,8.48,0,0,0-.21,2.03,9.4,9.4,0,0,0,.168,1.932,3.98,3.98,0,0,0,.469,1.267,1.821,1.821,0,0,0,.721.693A2.068,2.068,0,0,0,28.112-3.108ZM48.748,0a1.2,1.2,0,0,1-.679-.182.972.972,0,0,1-.385-.546l-.336-1.106a8.511,8.511,0,0,1-.91.84,5.723,5.723,0,0,1-1.029.651,5.442,5.442,0,0,1-1.19.42A6.127,6.127,0,0,1,42.84.224a4.472,4.472,0,0,1-2.1-.5,4.839,4.839,0,0,1-1.666-1.456,7.348,7.348,0,0,1-1.1-2.331,11.321,11.321,0,0,1-.4-3.143,9.8,9.8,0,0,1,.448-3.017,7.4,7.4,0,0,1,1.267-2.408,5.884,5.884,0,0,1,1.967-1.589,5.586,5.586,0,0,1,2.534-.574,4.865,4.865,0,0,1,1.9.329,5.476,5.476,0,0,1,1.407.861v-7.35h4.34V0Zm-4.4-3.108a3.75,3.75,0,0,0,.861-.091,3.027,3.027,0,0,0,.707-.259,3.084,3.084,0,0,0,.609-.42,5.268,5.268,0,0,0,.567-.588v-6.16a2.87,2.87,0,0,0-1.071-.763,3.32,3.32,0,0,0-1.2-.217,2.557,2.557,0,0,0-1.106.238,2.254,2.254,0,0,0-.875.763,4.064,4.064,0,0,0-.581,1.365,8.48,8.48,0,0,0-.21,2.03,9.4,9.4,0,0,0,.168,1.932,3.98,3.98,0,0,0,.469,1.267,1.821,1.821,0,0,0,.721.693A2.068,2.068,0,0,0,44.352-3.108Zm20.58-.672h7.56V0H60.2V-20.4h4.732ZM80.388-14.742a7.475,7.475,0,0,1,2.639.448,5.737,5.737,0,0,1,2.058,1.3A5.943,5.943,0,0,1,86.429-10.9a7.68,7.68,0,0,1,.483,2.807,6.127,6.127,0,0,1-.042.8,1.263,1.263,0,0,1-.154.49.586.586,0,0,1-.3.252,1.41,1.41,0,0,1-.483.07H77.56a4.093,4.093,0,0,0,1.106,2.639,3.291,3.291,0,0,0,2.31.819,4.135,4.135,0,0,0,1.3-.182,6.568,6.568,0,0,0,.973-.406q.427-.224.784-.406a1.628,1.628,0,0,1,.749-.182.9.9,0,0,1,.784.378l1.26,1.554a6.451,6.451,0,0,1-1.449,1.253,7.53,7.53,0,0,1-1.6.756,8.651,8.651,0,0,1-1.638.378,12.292,12.292,0,0,1-1.561.105,8.151,8.151,0,0,1-2.863-.5A6.579,6.579,0,0,1,75.383-1.75,6.969,6.969,0,0,1,73.8-4.186a9.1,9.1,0,0,1-.581-3.388,7.667,7.667,0,0,1,.5-2.758,6.793,6.793,0,0,1,1.428-2.282A6.8,6.8,0,0,1,77.4-14.168,7.439,7.439,0,0,1,80.388-14.742Zm.084,3a2.615,2.615,0,0,0-1.946.707A3.684,3.684,0,0,0,77.6-9H83.02a3.831,3.831,0,0,0-.133-1.008,2.444,2.444,0,0,0-.434-.875,2.208,2.208,0,0,0-.791-.623A2.705,2.705,0,0,0,80.472-11.746ZM99.428,0A2.033,2.033,0,0,1,98.5-.168a1.283,1.283,0,0,1-.525-.7l-.308-.8q-.546.462-1.05.812a6.655,6.655,0,0,1-1.043.6A5.151,5.151,0,0,1,94.423.1a7.065,7.065,0,0,1-1.351.119,5.924,5.924,0,0,1-1.806-.259A3.768,3.768,0,0,1,89.887-.8a3.355,3.355,0,0,1-.875-1.253A4.519,4.519,0,0,1,88.7-3.78,3.626,3.626,0,0,1,89.1-5.362a3.9,3.9,0,0,1,1.358-1.477,8.631,8.631,0,0,1,2.6-1.113,17.472,17.472,0,0,1,4.13-.5v-.616a2.662,2.662,0,0,0-.525-1.841,1.931,1.931,0,0,0-1.491-.567,3.955,3.955,0,0,0-1.26.168,5.664,5.664,0,0,0-.875.378q-.385.21-.749.378a2.057,2.057,0,0,1-.868.168,1.312,1.312,0,0,1-.763-.217,1.612,1.612,0,0,1-.5-.539L89.376-12.5a8.825,8.825,0,0,1,2.919-1.729,10.233,10.233,0,0,1,3.437-.567,6.286,6.286,0,0,1,2.373.427,5.107,5.107,0,0,1,1.792,1.19,5.2,5.2,0,0,1,1.127,1.813,6.516,6.516,0,0,1,.392,2.3V0ZM94.444-2.646a3.444,3.444,0,0,0,1.47-.294,4.478,4.478,0,0,0,1.274-.952V-5.908a14.409,14.409,0,0,0-2.142.224,5.2,5.2,0,0,0-1.33.42,1.61,1.61,0,0,0-.679.574,1.359,1.359,0,0,0-.189.7,1.216,1.216,0,0,0,.406,1.043A1.981,1.981,0,0,0,94.444-2.646Zm18.928-8.694a1.123,1.123,0,0,1-.357.378.937.937,0,0,1-.483.112,1.543,1.543,0,0,1-.616-.133l-.665-.287a7.246,7.246,0,0,0-.805-.287,3.594,3.594,0,0,0-1.022-.133,2.162,2.162,0,0,0-1.267.315,1.015,1.015,0,0,0-.441.875.877.877,0,0,0,.287.672,2.633,2.633,0,0,0,.763.469,10.524,10.524,0,0,0,1.078.385q.6.182,1.232.406a10.971,10.971,0,0,1,1.232.525,4.608,4.608,0,0,1,1.078.742,3.312,3.312,0,0,1,.763,1.071,3.627,3.627,0,0,1,.287,1.512,4.972,4.972,0,0,1-.392,1.988,4.221,4.221,0,0,1-1.169,1.568A5.528,5.528,0,0,1,110.957-.14a8.639,8.639,0,0,1-2.625.364,7.988,7.988,0,0,1-1.484-.14,10.279,10.279,0,0,1-1.435-.378,7.818,7.818,0,0,1-1.281-.567,5.555,5.555,0,0,1-1.008-.707l1.008-1.6a1.451,1.451,0,0,1,.434-.441,1.205,1.205,0,0,1,.658-.161,1.369,1.369,0,0,1,.679.168l.651.364a5.427,5.427,0,0,0,.819.364,3.551,3.551,0,0,0,1.183.168,3,3,0,0,0,.854-.1,1.5,1.5,0,0,0,.56-.287,1.146,1.146,0,0,0,.308-.406,1.141,1.141,0,0,0,.1-.462.943.943,0,0,0-.294-.714,2.561,2.561,0,0,0-.77-.483,9.388,9.388,0,0,0-1.085-.378q-.609-.175-1.239-.4a9.952,9.952,0,0,1-1.239-.539,4.262,4.262,0,0,1-1.085-.8,3.708,3.708,0,0,1-.77-1.183,4.37,4.37,0,0,1-.294-1.694,4.414,4.414,0,0,1,.357-1.757,4.079,4.079,0,0,1,1.071-1.463,5.259,5.259,0,0,1,1.792-1,7.748,7.748,0,0,1,2.52-.371,8.1,8.1,0,0,1,1.519.14,7.763,7.763,0,0,1,1.379.392,6.6,6.6,0,0,1,1.176.595,5.647,5.647,0,0,1,.938.749Zm9.66-3.4a7.475,7.475,0,0,1,2.639.448,5.737,5.737,0,0,1,2.058,1.3,5.943,5.943,0,0,1,1.344,2.093,7.68,7.68,0,0,1,.483,2.807,6.127,6.127,0,0,1-.042.8,1.263,1.263,0,0,1-.154.49.586.586,0,0,1-.3.252,1.41,1.41,0,0,1-.483.07H120.2a4.093,4.093,0,0,0,1.106,2.639,3.291,3.291,0,0,0,2.31.819,4.135,4.135,0,0,0,1.3-.182,6.568,6.568,0,0,0,.973-.406q.427-.224.784-.406a1.628,1.628,0,0,1,.749-.182.9.9,0,0,1,.784.378l1.26,1.554a6.451,6.451,0,0,1-1.449,1.253,7.53,7.53,0,0,1-1.6.756,8.651,8.651,0,0,1-1.638.378,12.292,12.292,0,0,1-1.561.105,8.151,8.151,0,0,1-2.863-.5,6.579,6.579,0,0,1-2.338-1.477,6.969,6.969,0,0,1-1.582-2.436,9.1,9.1,0,0,1-.581-3.388,7.667,7.667,0,0,1,.5-2.758,6.793,6.793,0,0,1,1.428-2.282,6.8,6.8,0,0,1,2.254-1.554A7.439,7.439,0,0,1,123.032-14.742Zm.084,3a2.615,2.615,0,0,0-1.946.707A3.684,3.684,0,0,0,120.246-9h5.418a3.831,3.831,0,0,0-.133-1.008,2.444,2.444,0,0,0-.434-.875,2.208,2.208,0,0,0-.791-.623A2.705,2.705,0,0,0,123.116-11.746Z" transform="translate(52.3 182.879)" fill="#394049"/>
        <g id="Group_73" data-name="Group 73" transform="translate(53.374 98.479)">
          <line id="Line_3" data-name="Line 3" x2="19.545" y2="19.545" fill="none" stroke="#394049" stroke-linecap="round" stroke-width="3"/>
          <line id="Line_4" data-name="Line 4" x1="19.545" y2="19.545" fill="none" stroke="#394049" stroke-linecap="round" stroke-width="3"/>
        </g>
        <rect id="Rectangle_400" data-name="Rectangle 400" width="366.4" height="100" rx="7" transform="translate(52.3 227.942)" fill="#2272e2"/>
        <path id="Path_122" data-name="Path 122" d="M10.58-14.57v2.6H4.6v3.4H9.18v2.5H4.6V-2.6h5.98V0H1.2V-14.57ZM12.5,0V-10.37h1.92a.856.856,0,0,1,.485.13.694.694,0,0,1,.275.39l.18.6a7.532,7.532,0,0,1,.62-.52,3.631,3.631,0,0,1,.685-.4,4.066,4.066,0,0,1,.79-.26,4.239,4.239,0,0,1,.925-.1,3.631,3.631,0,0,1,1.5.3,3.123,3.123,0,0,1,1.1.82,3.539,3.539,0,0,1,.68,1.25A5.183,5.183,0,0,1,21.9-6.59V0H18.8V-6.59a1.813,1.813,0,0,0-.35-1.185A1.257,1.257,0,0,0,17.42-8.2a2.157,2.157,0,0,0-.96.22,3.733,3.733,0,0,0-.86.59V0ZM31.26,0a1.452,1.452,0,0,1-.665-.12.917.917,0,0,1-.375-.5L30-1.19q-.39.33-.75.58a4.753,4.753,0,0,1-.745.425,3.679,3.679,0,0,1-.82.26A5.046,5.046,0,0,1,26.72.16a4.231,4.231,0,0,1-1.29-.185,2.691,2.691,0,0,1-.985-.545,2.4,2.4,0,0,1-.625-.9A3.228,3.228,0,0,1,23.6-2.7a2.59,2.59,0,0,1,.28-1.13,2.788,2.788,0,0,1,.97-1.055,6.165,6.165,0,0,1,1.86-.8,12.48,12.48,0,0,1,2.95-.36v-.44A1.9,1.9,0,0,0,29.285-7.8a1.379,1.379,0,0,0-1.065-.4,2.825,2.825,0,0,0-.9.12,4.046,4.046,0,0,0-.625.27q-.275.15-.535.27a1.469,1.469,0,0,1-.62.12.937.937,0,0,1-.545-.155,1.151,1.151,0,0,1-.355-.385l-.56-.97a6.3,6.3,0,0,1,2.085-1.235,7.309,7.309,0,0,1,2.455-.405,4.49,4.49,0,0,1,1.695.305,3.648,3.648,0,0,1,1.28.85,3.714,3.714,0,0,1,.805,1.3,4.654,4.654,0,0,1,.28,1.64V0ZM27.7-1.89a2.46,2.46,0,0,0,1.05-.21,3.2,3.2,0,0,0,.91-.68V-4.22a10.292,10.292,0,0,0-1.53.16,3.716,3.716,0,0,0-.95.3,1.15,1.15,0,0,0-.485.41.97.97,0,0,0-.135.5.869.869,0,0,0,.29.745A1.415,1.415,0,0,0,27.7-1.89ZM34.88,0V-14.97h3.1v5.7a4.731,4.731,0,0,1,1.315-.915,4.023,4.023,0,0,1,1.725-.345,3.268,3.268,0,0,1,1.5.35,3.376,3.376,0,0,1,1.19,1.025A5.19,5.19,0,0,1,44.5-7.5a7.992,7.992,0,0,1,.285,2.23,6.89,6.89,0,0,1-.325,2.16,5.427,5.427,0,0,1-.91,1.72,4.192,4.192,0,0,1-1.4,1.14A3.959,3.959,0,0,1,40.34.16a3.455,3.455,0,0,1-.825-.09,2.821,2.821,0,0,1-.67-.255,2.876,2.876,0,0,1-.56-.395,6.382,6.382,0,0,1-.495-.5l-.11.52a.665.665,0,0,1-.255.44A.878.878,0,0,1,36.94,0Zm5.06-8.2a2.679,2.679,0,0,0-.615.065,2.26,2.26,0,0,0-.51.185,1.934,1.934,0,0,0-.435.3,4.518,4.518,0,0,0-.4.425v4.4a1.96,1.96,0,0,0,.76.545,2.412,2.412,0,0,0,.86.155,1.827,1.827,0,0,0,.79-.17,1.61,1.61,0,0,0,.625-.545,2.9,2.9,0,0,0,.415-.975,6.107,6.107,0,0,0,.15-1.46,6.716,6.716,0,0,0-.12-1.38,2.843,2.843,0,0,0-.335-.905,1.3,1.3,0,0,0-.515-.495A1.477,1.477,0,0,0,39.94-8.2Zm9.74-6.77V0h-3.1V-14.97Zm6.94,4.44a5.34,5.34,0,0,1,1.885.32,4.1,4.1,0,0,1,1.47.93,4.245,4.245,0,0,1,.96,1.495A5.486,5.486,0,0,1,61.28-5.78a4.376,4.376,0,0,1-.03.57.9.9,0,0,1-.11.35.419.419,0,0,1-.215.18,1.007,1.007,0,0,1-.345.05H54.6a2.923,2.923,0,0,0,.79,1.885,2.35,2.35,0,0,0,1.65.585,2.953,2.953,0,0,0,.93-.13,4.692,4.692,0,0,0,.695-.29q.305-.16.56-.29A1.163,1.163,0,0,1,59.76-3a.641.641,0,0,1,.56.27l.9,1.11a4.608,4.608,0,0,1-1.035.9,5.378,5.378,0,0,1-1.14.54,6.179,6.179,0,0,1-1.17.27A8.78,8.78,0,0,1,56.76.16,5.822,5.822,0,0,1,54.715-.2a4.7,4.7,0,0,1-1.67-1.055,4.978,4.978,0,0,1-1.13-1.74A6.5,6.5,0,0,1,51.5-5.41a5.477,5.477,0,0,1,.355-1.97,4.852,4.852,0,0,1,1.02-1.63,4.856,4.856,0,0,1,1.61-1.11A5.314,5.314,0,0,1,56.62-10.53Zm.06,2.14a1.868,1.868,0,0,0-1.39.5,2.631,2.631,0,0,0-.66,1.455H58.5a2.736,2.736,0,0,0-.1-.72,1.746,1.746,0,0,0-.31-.625,1.577,1.577,0,0,0-.565-.445A1.932,1.932,0,0,0,56.68-8.39Zm14.86-2.14a5.989,5.989,0,0,1,2.15.37A4.715,4.715,0,0,1,75.355-9.1a4.775,4.775,0,0,1,1.08,1.675A6.043,6.043,0,0,1,76.82-5.21a6.152,6.152,0,0,1-.385,2.235,4.808,4.808,0,0,1-1.08,1.69A4.738,4.738,0,0,1,73.69-.215,5.918,5.918,0,0,1,71.54.16a5.987,5.987,0,0,1-2.165-.375,4.831,4.831,0,0,1-1.68-1.07,4.738,4.738,0,0,1-1.09-1.69A6.152,6.152,0,0,1,66.22-5.21a6.043,6.043,0,0,1,.385-2.215A4.706,4.706,0,0,1,67.695-9.1a4.808,4.808,0,0,1,1.68-1.06A6.059,6.059,0,0,1,71.54-10.53Zm0,8.39a1.761,1.761,0,0,0,1.575-.755,4.176,4.176,0,0,0,.505-2.3,4.149,4.149,0,0,0-.505-2.29,1.765,1.765,0,0,0-1.575-.75,1.808,1.808,0,0,0-1.61.75,4.116,4.116,0,0,0-.51,2.29,4.142,4.142,0,0,0,.51,2.3A1.8,1.8,0,0,0,71.54-2.14ZM78.52,0V-10.37h1.92a.856.856,0,0,1,.485.13.694.694,0,0,1,.275.39l.18.6A7.533,7.533,0,0,1,82-9.77a3.631,3.631,0,0,1,.685-.4,4.066,4.066,0,0,1,.79-.26,4.239,4.239,0,0,1,.925-.1,3.631,3.631,0,0,1,1.5.3,3.123,3.123,0,0,1,1.105.82,3.539,3.539,0,0,1,.68,1.25,5.184,5.184,0,0,1,.23,1.575V0h-3.1V-6.59a1.813,1.813,0,0,0-.35-1.185A1.257,1.257,0,0,0,83.44-8.2a2.157,2.157,0,0,0-.96.22,3.733,3.733,0,0,0-.86.59V0Zm14.8-14.97V0h-3.1V-14.97Zm5.7,4.6V0h-3.1V-10.37Zm.36-2.84a1.638,1.638,0,0,1-.15.695,1.829,1.829,0,0,1-.41.57,2.007,2.007,0,0,1-.6.39,1.877,1.877,0,0,1-.735.145,1.745,1.745,0,0,1-.71-.145,2,2,0,0,1-.585-.39,1.8,1.8,0,0,1-.4-.57,1.686,1.686,0,0,1-.145-.695,1.745,1.745,0,0,1,.145-.71,1.842,1.842,0,0,1,.4-.58,1.873,1.873,0,0,1,.585-.39,1.8,1.8,0,0,1,.71-.14,1.936,1.936,0,0,1,.735.14,1.887,1.887,0,0,1,.6.39,1.872,1.872,0,0,1,.41.58A1.7,1.7,0,0,1,99.38-13.21ZM101.52,0V-10.37h1.92a.856.856,0,0,1,.485.13.694.694,0,0,1,.275.39l.18.6a7.533,7.533,0,0,1,.62-.52,3.631,3.631,0,0,1,.685-.4,4.066,4.066,0,0,1,.79-.26,4.239,4.239,0,0,1,.925-.1,3.631,3.631,0,0,1,1.5.3,3.123,3.123,0,0,1,1.105.82,3.539,3.539,0,0,1,.68,1.25,5.184,5.184,0,0,1,.23,1.575V0h-3.1V-6.59a1.813,1.813,0,0,0-.35-1.185,1.257,1.257,0,0,0-1.03-.425,2.157,2.157,0,0,0-.96.22,3.733,3.733,0,0,0-.86.59V0Zm16.04-10.53a5.34,5.34,0,0,1,1.885.32,4.1,4.1,0,0,1,1.47.93,4.245,4.245,0,0,1,.96,1.495,5.486,5.486,0,0,1,.345,2.005,4.376,4.376,0,0,1-.03.57.9.9,0,0,1-.11.35.419.419,0,0,1-.215.18,1.007,1.007,0,0,1-.345.05h-5.98a2.923,2.923,0,0,0,.79,1.885,2.35,2.35,0,0,0,1.65.585,2.954,2.954,0,0,0,.93-.13,4.691,4.691,0,0,0,.695-.29q.3-.16.56-.29A1.163,1.163,0,0,1,120.7-3a.641.641,0,0,1,.56.27l.9,1.11a4.608,4.608,0,0,1-1.035.9,5.379,5.379,0,0,1-1.14.54,6.179,6.179,0,0,1-1.17.27A8.78,8.78,0,0,1,117.7.16,5.822,5.822,0,0,1,115.655-.2a4.7,4.7,0,0,1-1.67-1.055,4.978,4.978,0,0,1-1.13-1.74,6.5,6.5,0,0,1-.415-2.42,5.477,5.477,0,0,1,.355-1.97,4.852,4.852,0,0,1,1.02-1.63,4.856,4.856,0,0,1,1.61-1.11A5.314,5.314,0,0,1,117.56-10.53Zm.06,2.14a1.868,1.868,0,0,0-1.39.5,2.631,2.631,0,0,0-.66,1.455h3.87a2.736,2.736,0,0,0-.095-.72,1.745,1.745,0,0,0-.31-.625,1.577,1.577,0,0,0-.565-.445A1.932,1.932,0,0,0,117.62-8.39ZM127.86,0V-10.37h1.84a1.569,1.569,0,0,1,.385.04.675.675,0,0,1,.26.125.534.534,0,0,1,.16.225,2.029,2.029,0,0,1,.1.34l.17.97a5.081,5.081,0,0,1,1.28-1.39,2.6,2.6,0,0,1,1.55-.51,1.786,1.786,0,0,1,1.14.34l-.4,2.28a.445.445,0,0,1-.16.3.543.543,0,0,1-.32.085,2.122,2.122,0,0,1-.4-.045,3.1,3.1,0,0,0-.58-.045,2.129,2.129,0,0,0-1.92,1.3V0Zm12.7-10.53a5.339,5.339,0,0,1,1.885.32,4.1,4.1,0,0,1,1.47.93,4.245,4.245,0,0,1,.96,1.495,5.486,5.486,0,0,1,.345,2.005,4.376,4.376,0,0,1-.03.57.9.9,0,0,1-.11.35.419.419,0,0,1-.215.18,1.007,1.007,0,0,1-.345.05h-5.98a2.923,2.923,0,0,0,.79,1.885,2.35,2.35,0,0,0,1.65.585,2.954,2.954,0,0,0,.93-.13,4.691,4.691,0,0,0,.695-.29q.305-.16.56-.29A1.163,1.163,0,0,1,143.7-3a.641.641,0,0,1,.56.27l.9,1.11a4.608,4.608,0,0,1-1.035.9,5.379,5.379,0,0,1-1.14.54,6.179,6.179,0,0,1-1.17.27A8.78,8.78,0,0,1,140.7.16,5.822,5.822,0,0,1,138.655-.2a4.7,4.7,0,0,1-1.67-1.055,4.978,4.978,0,0,1-1.13-1.74,6.5,6.5,0,0,1-.415-2.42,5.477,5.477,0,0,1,.355-1.97,4.852,4.852,0,0,1,1.02-1.63,4.856,4.856,0,0,1,1.61-1.11A5.314,5.314,0,0,1,140.56-10.53Zm.06,2.14a1.868,1.868,0,0,0-1.39.5,2.631,2.631,0,0,0-.66,1.455h3.87a2.736,2.736,0,0,0-.1-.72,1.746,1.746,0,0,0-.31-.625,1.578,1.578,0,0,0-.565-.445A1.932,1.932,0,0,0,140.62-8.39ZM147,0V-10.37h1.92a.856.856,0,0,1,.485.13.694.694,0,0,1,.275.39l.18.6a7.531,7.531,0,0,1,.62-.52,3.631,3.631,0,0,1,.685-.4,4.066,4.066,0,0,1,.79-.26,4.239,4.239,0,0,1,.925-.1,3.631,3.631,0,0,1,1.505.3,3.123,3.123,0,0,1,1.1.82,3.539,3.539,0,0,1,.68,1.25,5.183,5.183,0,0,1,.23,1.575V0h-3.1V-6.59a1.813,1.813,0,0,0-.35-1.185,1.257,1.257,0,0,0-1.03-.425,2.157,2.157,0,0,0-.96.22,3.733,3.733,0,0,0-.86.59V0Zm15.24.16a3.656,3.656,0,0,1-1.3-.215,2.592,2.592,0,0,1-.95-.61,2.6,2.6,0,0,1-.585-.955,3.7,3.7,0,0,1-.2-1.25V-8.23h-.88a.587.587,0,0,1-.41-.155.585.585,0,0,1-.17-.455v-1.21l1.65-.32L160-12.9a.616.616,0,0,1,.68-.48h1.62v3.03h2.52v2.12H162.3v5.15a.969.969,0,0,0,.175.595.591.591,0,0,0,.505.235.992.992,0,0,0,.285-.035,1.135,1.135,0,0,0,.2-.08q.085-.045.16-.08a.41.41,0,0,1,.175-.035.361.361,0,0,1,.225.065.8.8,0,0,1,.175.2l.94,1.47a4.278,4.278,0,0,1-1.35.675A5.365,5.365,0,0,1,162.24.16ZM8.68,16.09a1.714,1.714,0,0,1-.27.27.6.6,0,0,1-.37.1.8.8,0,0,1-.415-.11L7.21,16.1a3.148,3.148,0,0,0-.54-.245,2.325,2.325,0,0,0-.77-.11,2.157,2.157,0,0,0-.985.21,1.824,1.824,0,0,0-.685.6,2.742,2.742,0,0,0-.4.955A5.7,5.7,0,0,0,3.7,18.79a3.886,3.886,0,0,0,.575,2.29,1.845,1.845,0,0,0,1.585.8,2.216,2.216,0,0,0,.855-.135,2.591,2.591,0,0,0,.535-.3l.405-.305A.749.749,0,0,1,8.12,21a.641.641,0,0,1,.56.27l.9,1.11a4.9,4.9,0,0,1-1.01.9,5.066,5.066,0,0,1-1.085.54,5.6,5.6,0,0,1-1.115.27,8.21,8.21,0,0,1-1.09.075,4.677,4.677,0,0,1-1.815-.36,4.447,4.447,0,0,1-1.52-1.045A5,5,0,0,1,.9,21.07,6.312,6.312,0,0,1,.52,18.79a6.4,6.4,0,0,1,.335-2.1,4.756,4.756,0,0,1,.99-1.69,4.6,4.6,0,0,1,1.62-1.125A5.677,5.677,0,0,1,5.7,13.47a5.449,5.449,0,0,1,2.14.39A5.135,5.135,0,0,1,9.5,15Zm6.86-2.62a5.989,5.989,0,0,1,2.15.37,4.715,4.715,0,0,1,1.665,1.06,4.775,4.775,0,0,1,1.08,1.675,6.043,6.043,0,0,1,.385,2.215,6.152,6.152,0,0,1-.385,2.235,4.808,4.808,0,0,1-1.08,1.69,4.738,4.738,0,0,1-1.665,1.07,5.918,5.918,0,0,1-2.15.375,5.987,5.987,0,0,1-2.165-.375,4.831,4.831,0,0,1-1.68-1.07,4.738,4.738,0,0,1-1.09-1.69,6.152,6.152,0,0,1-.385-2.235,6.043,6.043,0,0,1,.385-2.215A4.706,4.706,0,0,1,11.7,14.9a4.808,4.808,0,0,1,1.68-1.06A6.059,6.059,0,0,1,15.54,13.47Zm0,8.39a1.761,1.761,0,0,0,1.575-.755,4.176,4.176,0,0,0,.505-2.3,4.149,4.149,0,0,0-.505-2.29,1.765,1.765,0,0,0-1.575-.75,1.808,1.808,0,0,0-1.61.75,4.116,4.116,0,0,0-.51,2.29,4.142,4.142,0,0,0,.51,2.3A1.8,1.8,0,0,0,15.54,21.86ZM25.72,9.03V24h-3.1V9.03Zm5.7,0V24h-3.1V9.03Zm6.94,4.44a5.34,5.34,0,0,1,1.885.32,4.1,4.1,0,0,1,1.47.93,4.245,4.245,0,0,1,.96,1.495,5.486,5.486,0,0,1,.345,2,4.377,4.377,0,0,1-.03.57.9.9,0,0,1-.11.35.419.419,0,0,1-.215.18,1.007,1.007,0,0,1-.345.05H36.34a2.923,2.923,0,0,0,.79,1.885,2.35,2.35,0,0,0,1.65.585,2.953,2.953,0,0,0,.93-.13,4.691,4.691,0,0,0,.695-.29q.305-.16.56-.29A1.163,1.163,0,0,1,41.5,21a.641.641,0,0,1,.56.27l.9,1.11a4.608,4.608,0,0,1-1.035.9,5.378,5.378,0,0,1-1.14.54,6.179,6.179,0,0,1-1.17.27,8.78,8.78,0,0,1-1.115.075,5.822,5.822,0,0,1-2.045-.355,4.7,4.7,0,0,1-1.67-1.055,4.978,4.978,0,0,1-1.13-1.74,6.5,6.5,0,0,1-.415-2.42,5.477,5.477,0,0,1,.355-1.97,4.786,4.786,0,0,1,2.63-2.74A5.314,5.314,0,0,1,38.36,13.47Zm.06,2.14a1.868,1.868,0,0,0-1.39.5,2.631,2.631,0,0,0-.66,1.455h3.87a2.736,2.736,0,0,0-.1-.72,1.745,1.745,0,0,0-.31-.625,1.577,1.577,0,0,0-.565-.445A1.932,1.932,0,0,0,38.42,15.61Zm13.86.48a1.714,1.714,0,0,1-.27.27.6.6,0,0,1-.37.1.8.8,0,0,1-.415-.11L50.81,16.1a3.148,3.148,0,0,0-.54-.245,2.325,2.325,0,0,0-.77-.11,2.157,2.157,0,0,0-.985.21,1.824,1.824,0,0,0-.685.6,2.742,2.742,0,0,0-.4.955,5.7,5.7,0,0,0-.13,1.275,3.886,3.886,0,0,0,.575,2.29,1.845,1.845,0,0,0,1.585.8,2.216,2.216,0,0,0,.855-.135,2.591,2.591,0,0,0,.535-.3l.4-.305A.749.749,0,0,1,51.72,21a.641.641,0,0,1,.56.27l.9,1.11a4.9,4.9,0,0,1-1.01.9,5.066,5.066,0,0,1-1.085.54,5.6,5.6,0,0,1-1.115.27,8.21,8.21,0,0,1-1.09.075,4.677,4.677,0,0,1-1.815-.36,4.447,4.447,0,0,1-1.52-1.045A5.005,5.005,0,0,1,44.5,21.07a6.312,6.312,0,0,1-.385-2.28,6.4,6.4,0,0,1,.335-2.1,4.756,4.756,0,0,1,.99-1.69,4.6,4.6,0,0,1,1.62-1.125,5.677,5.677,0,0,1,2.235-.41,5.449,5.449,0,0,1,2.14.39A5.135,5.135,0,0,1,53.1,15Zm5.88,8.07a3.656,3.656,0,0,1-1.305-.215A2.518,2.518,0,0,1,55.32,22.38a3.7,3.7,0,0,1-.2-1.25V15.77h-.88a.559.559,0,0,1-.58-.61V13.95l1.65-.32.61-2.53a.616.616,0,0,1,.68-.48h1.62v3.03h2.52v2.12H58.22v5.15a.969.969,0,0,0,.175.595.591.591,0,0,0,.505.235.992.992,0,0,0,.285-.035,1.135,1.135,0,0,0,.2-.08q.085-.045.16-.08a.41.41,0,0,1,.175-.035.361.361,0,0,1,.225.065.8.8,0,0,1,.175.205l.94,1.47a4.278,4.278,0,0,1-1.35.675A5.365,5.365,0,0,1,58.16,24.16Zm7.56-10.53V24h-3.1V13.63Zm.36-2.84a1.638,1.638,0,0,1-.15.695,1.829,1.829,0,0,1-.41.57,2.007,2.007,0,0,1-.6.39,1.877,1.877,0,0,1-.735.145,1.745,1.745,0,0,1-.71-.145,2,2,0,0,1-.585-.39,1.8,1.8,0,0,1-.4-.57,1.686,1.686,0,0,1-.145-.695,1.745,1.745,0,0,1,.145-.71,1.842,1.842,0,0,1,.4-.58,1.873,1.873,0,0,1,.585-.39,1.8,1.8,0,0,1,.71-.14,1.936,1.936,0,0,1,.735.14,1.879,1.879,0,0,1,1.015.97A1.7,1.7,0,0,1,66.08,10.79Zm6.76,2.68a5.989,5.989,0,0,1,2.15.37,4.715,4.715,0,0,1,1.665,1.06,4.775,4.775,0,0,1,1.08,1.675,6.043,6.043,0,0,1,.385,2.215,6.152,6.152,0,0,1-.385,2.235,4.808,4.808,0,0,1-1.08,1.69,4.738,4.738,0,0,1-1.665,1.07,5.918,5.918,0,0,1-2.15.375,5.987,5.987,0,0,1-2.165-.375,4.831,4.831,0,0,1-1.68-1.07,4.738,4.738,0,0,1-1.09-1.69,6.152,6.152,0,0,1-.385-2.235,6.043,6.043,0,0,1,.385-2.215,4.706,4.706,0,0,1,1.09-1.675,4.808,4.808,0,0,1,1.68-1.06A6.059,6.059,0,0,1,72.84,13.47Zm0,8.39a1.761,1.761,0,0,0,1.575-.755,4.176,4.176,0,0,0,.505-2.3,4.149,4.149,0,0,0-.505-2.29,1.765,1.765,0,0,0-1.575-.75,1.808,1.808,0,0,0-1.61.75,4.116,4.116,0,0,0-.51,2.29,4.142,4.142,0,0,0,.51,2.3A1.8,1.8,0,0,0,72.84,21.86ZM79.82,24V13.63h1.92a.856.856,0,0,1,.485.13.694.694,0,0,1,.275.39l.18.6a7.533,7.533,0,0,1,.62-.52,3.631,3.631,0,0,1,.685-.4,4.066,4.066,0,0,1,.79-.26,4.239,4.239,0,0,1,.925-.1,3.631,3.631,0,0,1,1.5.3,3.123,3.123,0,0,1,1.105.82,3.539,3.539,0,0,1,.68,1.25,5.184,5.184,0,0,1,.23,1.575V24h-3.1V17.41a1.813,1.813,0,0,0-.35-1.185,1.257,1.257,0,0,0-1.03-.425,2.157,2.157,0,0,0-.96.22,3.733,3.733,0,0,0-.86.59V24Z" transform="translate(78.146 272.945)" fill="#fff"/>
        <g id="check_box-24px" transform="translate(363.353 263.178)">
          <path id="Path_24" data-name="Path 24" d="M0,0H30.07V30.07H0Z" fill="none"/>
          <path id="Path_25" data-name="Path 25" d="M21.71,3H5.339A2.338,2.338,0,0,0,3,5.339V21.71a2.338,2.338,0,0,0,2.339,2.339H21.71a2.338,2.338,0,0,0,2.339-2.339V5.339A2.338,2.338,0,0,0,21.71,3ZM11.186,19.371,5.339,13.524l1.649-1.649,4.2,4.186,8.876-8.876L21.71,8.847Z" transform="translate(1.51 1.51)" fill="#fff"/>
        </g>
        <g id="Group_77" data-name="Group 77" transform="translate(54.3 363.978)">
          <g id="Rectangle_401" data-name="Rectangle 401" transform="translate(0 27)" fill="#fff" stroke="#afb5bd" stroke-width="1">
            <rect width="364.4" height="55" rx="4" stroke="none"/>
            <rect x="0.5" y="0.5" width="363.4" height="54" rx="3.5" fill="none"/>
          </g>
          <rect id="Rectangle_402" data-name="Rectangle 402" width="145" height="11" rx="5.5" transform="translate(0)" fill="#afb5bd"/>
        </g>
        <g id="Group_76" data-name="Group 76" transform="translate(54.3 475.008)">
          <g id="Rectangle_403" data-name="Rectangle 403" transform="translate(0 27)" fill="#fff" stroke="#afb5bd" stroke-width="1">
            <rect width="364.4" height="55" rx="4" stroke="none"/>
            <rect x="0.5" y="0.5" width="363.4" height="54" rx="3.5" fill="none"/>
          </g>
          <rect id="Rectangle_404" data-name="Rectangle 404" width="145" height="11" rx="5.5" transform="translate(0)" fill="#afb5bd"/>
        </g>
        <g id="Group_75" data-name="Group 75" transform="translate(54.3 588.039)">
          <g id="Rectangle_405" data-name="Rectangle 405" transform="translate(0 27)" fill="#fff" stroke="#afb5bd" stroke-width="1">
            <rect width="364.4" height="54" rx="4" stroke="none"/>
            <rect x="0.5" y="0.5" width="363.4" height="53" rx="3.5" fill="none"/>
          </g>
          <rect id="Rectangle_406" data-name="Rectangle 406" width="145" height="10" rx="5" transform="translate(0)" fill="#afb5bd"/>
        </g>
        <g id="Group_74" data-name="Group 74" transform="translate(54.3 699.069)">
          <g id="Rectangle_407" data-name="Rectangle 407" transform="translate(0 28)" fill="#fff" stroke="#afb5bd" stroke-width="1">
            <rect width="364.4" height="53" rx="4" stroke="none"/>
            <rect x="0.5" y="0.5" width="363.4" height="52" rx="3.5" fill="none"/>
          </g>
          <rect id="Rectangle_408" data-name="Rectangle 408" width="145" height="10" rx="5" transform="translate(0)" fill="#afb5bd"/>
        </g>
        <rect id="Rectangle_409" data-name="Rectangle 409" width="364.4" height="59" rx="29.5" transform="translate(54.3 841.121)" fill="#2272e2"/>
        <path id="Path_128" data-name="Path 128" d="M-48.323-16.756a3.3,3.3,0,0,1,.425.023,1.086,1.086,0,0,1,.311.086,1.036,1.036,0,0,1,.264.178,3.022,3.022,0,0,1,.288.311l7.958,10.062q-.046-.483-.069-.937t-.023-.857v-8.867h3.427V0h-2.024a1.865,1.865,0,0,1-.759-.138,1.624,1.624,0,0,1-.6-.506l-7.9-9.982q.034.437.057.857t.023.788V0H-50.37V-16.756Zm20.447,4.646a6.14,6.14,0,0,1,2.168.368,4.712,4.712,0,0,1,1.69,1.069,4.881,4.881,0,0,1,1.1,1.719,6.309,6.309,0,0,1,.4,2.306,5.033,5.033,0,0,1-.035.655,1.038,1.038,0,0,1-.126.4.482.482,0,0,1-.247.207,1.158,1.158,0,0,1-.4.057H-30.2a3.362,3.362,0,0,0,.909,2.168,2.7,2.7,0,0,0,1.9.673,3.4,3.4,0,0,0,1.069-.15,5.4,5.4,0,0,0,.8-.333q.351-.184.644-.334a1.337,1.337,0,0,1,.615-.15.737.737,0,0,1,.644.31l1.035,1.277a5.3,5.3,0,0,1-1.19,1.029,6.185,6.185,0,0,1-1.311.621A7.106,7.106,0,0,1-26.433.1a10.1,10.1,0,0,1-1.282.086,6.7,6.7,0,0,1-2.352-.408,5.4,5.4,0,0,1-1.92-1.213,5.725,5.725,0,0,1-1.3-2,7.477,7.477,0,0,1-.477-2.783,6.3,6.3,0,0,1,.408-2.265,5.58,5.58,0,0,1,1.173-1.875,5.585,5.585,0,0,1,1.852-1.276A6.111,6.111,0,0,1-27.876-12.109Zm.069,2.461a2.148,2.148,0,0,0-1.6.581,3.026,3.026,0,0,0-.759,1.673h4.45a3.147,3.147,0,0,0-.109-.828,2.007,2.007,0,0,0-.356-.719,1.814,1.814,0,0,0-.65-.512A2.222,2.222,0,0,0-27.807-9.648Zm9.5,3.484-3.841-5.761h3.427a1.209,1.209,0,0,1,.558.1.869.869,0,0,1,.316.328l2.128,3.53a2.65,2.65,0,0,1,.172-.4q.1-.2.23-.414l1.518-2.656a.98.98,0,0,1,.333-.374.864.864,0,0,1,.449-.109h3.266l-3.841,5.6,4,6.325h-3.427a.947.947,0,0,1-.61-.184,1.593,1.593,0,0,1-.379-.437l-2.127-3.657a2.611,2.611,0,0,1-.138.368,3.179,3.179,0,0,1-.173.322L-18.193-.621a1.564,1.564,0,0,1-.368.431.873.873,0,0,1-.575.19H-22.31ZM-3.8.184A4.2,4.2,0,0,1-5.3-.063a2.981,2.981,0,0,1-1.092-.7,2.99,2.99,0,0,1-.673-1.1A4.252,4.252,0,0,1-7.291-3.3V-9.465H-8.3a.675.675,0,0,1-.471-.178.673.673,0,0,1-.2-.523v-1.391l1.9-.368.7-2.91a.708.708,0,0,1,.782-.552h1.863V-11.9h2.9v2.438h-2.9v5.923a1.115,1.115,0,0,0,.2.684.68.68,0,0,0,.581.27,1.141,1.141,0,0,0,.328-.04,1.305,1.305,0,0,0,.23-.092q.1-.052.184-.092a.471.471,0,0,1,.2-.04.415.415,0,0,1,.259.075.926.926,0,0,1,.2.236L-.46-.851a4.92,4.92,0,0,1-1.553.776A6.17,6.17,0,0,1-3.8.184ZM15-13.352a1.46,1.46,0,0,1-.362.414.811.811,0,0,1-.489.138,1.2,1.2,0,0,1-.569-.167q-.3-.167-.69-.374a5.726,5.726,0,0,0-.88-.374,3.52,3.52,0,0,0-1.127-.167,2.425,2.425,0,0,0-1.627.466,1.585,1.585,0,0,0-.535,1.259,1.16,1.16,0,0,0,.322.84,2.776,2.776,0,0,0,.845.575,9.06,9.06,0,0,0,1.2.443q.673.2,1.374.448a12.29,12.29,0,0,1,1.374.581,4.583,4.583,0,0,1,1.2.851,3.972,3.972,0,0,1,.845,1.259,4.477,4.477,0,0,1,.322,1.788,5.827,5.827,0,0,1-.4,2.174,5.089,5.089,0,0,1-1.167,1.765A5.418,5.418,0,0,1,12.736-.247a7.056,7.056,0,0,1-2.547.431A8.165,8.165,0,0,1,8.6.023a9.459,9.459,0,0,1-1.57-.454,9.1,9.1,0,0,1-1.426-.7,6.059,6.059,0,0,1-1.162-.9l1.15-1.817a.936.936,0,0,1,.357-.334A1.01,1.01,0,0,1,6.44-4.3a1.309,1.309,0,0,1,.7.219q.351.219.793.483a6.458,6.458,0,0,0,1.018.483A3.816,3.816,0,0,0,10.3-2.9a2.583,2.583,0,0,0,1.644-.466,1.773,1.773,0,0,0,.587-1.478,1.4,1.4,0,0,0-.322-.954,2.488,2.488,0,0,0-.845-.609,7.788,7.788,0,0,0-1.19-.425q-.667-.184-1.368-.408a10.012,10.012,0,0,1-1.368-.552,4.319,4.319,0,0,1-1.19-.863A4.036,4.036,0,0,1,5.4-9.988a5.3,5.3,0,0,1-.322-1.972,4.68,4.68,0,0,1,.379-1.84,4.75,4.75,0,0,1,1.116-1.6A5.485,5.485,0,0,1,8.383-16.52a6.668,6.668,0,0,1,2.45-.42,9.185,9.185,0,0,1,1.5.121,7.889,7.889,0,0,1,1.386.357,7.61,7.61,0,0,1,1.225.563,5.647,5.647,0,0,1,1.018.742ZM22.31.184a4.2,4.2,0,0,1-1.5-.247,2.981,2.981,0,0,1-1.093-.7,2.99,2.99,0,0,1-.673-1.1,4.252,4.252,0,0,1-.23-1.437V-9.465H17.8a.675.675,0,0,1-.472-.178.673.673,0,0,1-.2-.523v-1.391l1.9-.368.7-2.91a.708.708,0,0,1,.782-.552h1.863V-11.9h2.9v2.438h-2.9v5.923a1.115,1.115,0,0,0,.2.684.68.68,0,0,0,.581.27,1.141,1.141,0,0,0,.328-.04,1.305,1.305,0,0,0,.23-.092q.1-.052.184-.092a.471.471,0,0,1,.2-.04.415.415,0,0,1,.259.075.926.926,0,0,1,.2.236L25.645-.851a4.92,4.92,0,0,1-1.553.776A6.17,6.17,0,0,1,22.31.184ZM32.43-12.109a6.14,6.14,0,0,1,2.168.368,4.712,4.712,0,0,1,1.69,1.069,4.881,4.881,0,0,1,1.1,1.719,6.309,6.309,0,0,1,.4,2.306,5.033,5.033,0,0,1-.035.655,1.037,1.037,0,0,1-.127.4.482.482,0,0,1-.247.207,1.158,1.158,0,0,1-.4.057H30.107a3.362,3.362,0,0,0,.909,2.168,2.7,2.7,0,0,0,1.9.673,3.4,3.4,0,0,0,1.069-.15,5.4,5.4,0,0,0,.8-.333q.351-.184.644-.334a1.337,1.337,0,0,1,.615-.15.737.737,0,0,1,.644.31L37.72-1.863A5.3,5.3,0,0,1,36.53-.834a6.185,6.185,0,0,1-1.311.621A7.106,7.106,0,0,1,33.873.1a10.1,10.1,0,0,1-1.282.086,6.7,6.7,0,0,1-2.352-.408,5.4,5.4,0,0,1-1.92-1.213,5.725,5.725,0,0,1-1.3-2,7.477,7.477,0,0,1-.477-2.783,6.3,6.3,0,0,1,.408-2.265,5.58,5.58,0,0,1,1.173-1.875,5.585,5.585,0,0,1,1.851-1.276A6.111,6.111,0,0,1,32.43-12.109ZM32.5-9.648a2.148,2.148,0,0,0-1.6.581,3.026,3.026,0,0,0-.759,1.673h4.45a3.147,3.147,0,0,0-.109-.828,2.007,2.007,0,0,0-.356-.719,1.814,1.814,0,0,0-.65-.512A2.222,2.222,0,0,0,32.5-9.648ZM39.836,3.783V-11.925h2.208a.984.984,0,0,1,.558.149.8.8,0,0,1,.316.449l.265.874a5.994,5.994,0,0,1,.742-.69,4.887,4.887,0,0,1,.851-.535,4.69,4.69,0,0,1,.977-.351,4.866,4.866,0,0,1,1.144-.127,3.673,3.673,0,0,1,1.725.414,3.975,3.975,0,0,1,1.368,1.2,6.035,6.035,0,0,1,.9,1.915,9.253,9.253,0,0,1,.328,2.57,7.923,7.923,0,0,1-.374,2.484A6.242,6.242,0,0,1,49.8-1.6a4.821,4.821,0,0,1-1.61,1.311,4.553,4.553,0,0,1-2.076.472A4.064,4.064,0,0,1,44.551-.08,4.246,4.246,0,0,1,43.4-.794V3.783ZM45.655-9.43a3.08,3.08,0,0,0-.707.075,2.6,2.6,0,0,0-.586.213,2.224,2.224,0,0,0-.5.351,5.2,5.2,0,0,0-.46.489v5.06a2.254,2.254,0,0,0,.874.627,2.773,2.773,0,0,0,.989.178,2.1,2.1,0,0,0,.909-.2,1.851,1.851,0,0,0,.719-.627,3.338,3.338,0,0,0,.477-1.121,7.023,7.023,0,0,0,.173-1.679A7.724,7.724,0,0,0,47.4-7.648a3.269,3.269,0,0,0-.385-1.041,1.5,1.5,0,0,0-.592-.569A1.7,1.7,0,0,0,45.655-9.43Z" transform="translate(235.002 877.121)" fill="#fff"/>
      </g>
      <g id="Rectangle_418" data-name="Rectangle 418" transform="translate(287 71)" fill="rgba(207,211,216,0.27)" stroke="#cfd3d7" stroke-width="1">
        <rect width="129" height="17" rx="8.5" stroke="none"/>
        <rect x="0.5" y="0.5" width="128" height="16" rx="8" fill="none"/>
      </g>
    </g>
  </g>
</svg>
