<svg xmlns="http://www.w3.org/2000/svg" xmlns:xlink="http://www.w3.org/1999/xlink" width="1090" height="903.12" viewBox="0 0 1090 903.12">
  <defs>
    <linearGradient id="linear-gradient" x1="-0.124" y1="1" x2="1.556" y2="0.829" gradientUnits="objectBoundingBox">
      <stop offset="0" stop-color="#94e6cf"/>
      <stop offset="1" stop-color="#fff"/>
      <stop offset="1"/>
    </linearGradient>
    <filter id="Rectangle_305" x="347" y="285" width="352" height="465" filterUnits="userSpaceOnUse">
      <feOffset dy="3" input="SourceAlpha"/>
      <feGaussianBlur stdDeviation="8" result="blur"/>
      <feFlood flood-opacity="0.129"/>
      <feComposite operator="in" in2="blur"/>
      <feComposite in="SourceGraphic"/>
    </filter>
    <filter id="Rectangle_322" x="400" y="482" width="258" height="50" filterUnits="userSpaceOnUse">
      <feOffset dy="2" input="SourceAlpha"/>
      <feGaussianBlur stdDeviation="2" result="blur-2"/>
      <feFlood flood-opacity="0.043"/>
      <feComposite operator="in" in2="blur-2"/>
      <feComposite in="SourceGraphic"/>
    </filter>
    <filter id="Rectangle_322-2" x="400" y="534" width="258" height="49" filterUnits="userSpaceOnUse">
      <feOffset dy="2" input="SourceAlpha"/>
      <feGaussianBlur stdDeviation="2" result="blur-3"/>
      <feFlood flood-opacity="0.043"/>
      <feComposite operator="in" in2="blur-3"/>
      <feComposite in="SourceGraphic"/>
    </filter>
    <filter id="Rectangle_322-3" x="400" y="583" width="258" height="50" filterUnits="userSpaceOnUse">
      <feOffset dy="2" input="SourceAlpha"/>
      <feGaussianBlur stdDeviation="2" result="blur-4"/>
      <feFlood flood-opacity="0.043"/>
      <feComposite operator="in" in2="blur-4"/>
      <feComposite in="SourceGraphic"/>
    </filter>
    <filter id="Rectangle_322-4" x="400" y="634" width="258" height="48" filterUnits="userSpaceOnUse">
      <feOffset dy="2" input="SourceAlpha"/>
      <feGaussianBlur stdDeviation="2" result="blur-5"/>
      <feFlood flood-opacity="0.043"/>
      <feComposite operator="in" in2="blur-5"/>
      <feComposite in="SourceGraphic"/>
    </filter>
    <filter id="Rectangle_305-2" x="437" y="112" width="417" height="594" filterUnits="userSpaceOnUse">
      <feOffset dy="3" input="SourceAlpha"/>
      <feGaussianBlur stdDeviation="8" result="blur-6"/>
      <feFlood flood-opacity="0.129"/>
      <feComposite operator="in" in2="blur-6"/>
      <feComposite in="SourceGraphic"/>
    </filter>
    <filter id="Rectangle_322-5" x="491" y="318" width="319" height="51" filterUnits="userSpaceOnUse">
      <feOffset dy="2" input="SourceAlpha"/>
      <feGaussianBlur stdDeviation="2" result="blur-7"/>
      <feFlood flood-opacity="0.043"/>
      <feComposite operator="in" in2="blur-7"/>
      <feComposite in="SourceGraphic"/>
    </filter>
    <filter id="Rectangle_322-6" x="491" y="371" width="319" height="53" filterUnits="userSpaceOnUse">
      <feOffset dy="2" input="SourceAlpha"/>
      <feGaussianBlur stdDeviation="2" result="blur-8"/>
      <feFlood flood-opacity="0.043"/>
      <feComposite operator="in" in2="blur-8"/>
      <feComposite in="SourceGraphic"/>
    </filter>
    <filter id="Rectangle_322-7" x="491" y="581" width="319" height="51" filterUnits="userSpaceOnUse">
      <feOffset dy="2" input="SourceAlpha"/>
      <feGaussianBlur stdDeviation="2" result="blur-9"/>
      <feFlood flood-opacity="0.043"/>
      <feComposite operator="in" in2="blur-9"/>
      <feComposite in="SourceGraphic"/>
    </filter>
    <filter id="Rectangle_322-8" x="491" y="424" width="319" height="51" filterUnits="userSpaceOnUse">
      <feOffset dy="2" input="SourceAlpha"/>
      <feGaussianBlur stdDeviation="2" result="blur-10"/>
      <feFlood flood-opacity="0.043"/>
      <feComposite operator="in" in2="blur-10"/>
      <feComposite in="SourceGraphic"/>
    </filter>
    <filter id="Rectangle_322-9" x="491" y="476" width="319" height="52" filterUnits="userSpaceOnUse">
      <feOffset dy="2" input="SourceAlpha"/>
      <feGaussianBlur stdDeviation="2" result="blur-11"/>
      <feFlood flood-opacity="0.043"/>
      <feComposite operator="in" in2="blur-11"/>
      <feComposite in="SourceGraphic"/>
    </filter>
    <filter id="Rectangle_322-10" x="491" y="530" width="319" height="49" filterUnits="userSpaceOnUse">
      <feOffset dy="2" input="SourceAlpha"/>
      <feGaussianBlur stdDeviation="2" result="blur-12"/>
      <feFlood flood-opacity="0.043"/>
      <feComposite operator="in" in2="blur-12"/>
      <feComposite in="SourceGraphic"/>
    </filter>
    <clipPath id="clip-Image_12">
      <rect width="1090" height="903.12"/>
    </clipPath>
  </defs>
  <g id="Image_12" data-name="Image 12" clip-path="url(#clip-Image_12)">
    <rect width="1090" height="903.12" fill="rgba(255,255,255,0)"/>
    <g id="Group_25" data-name="Group 25" transform="translate(341.541 -45.441) rotate(30)" opacity="0.149">
      <ellipse id="Ellipse_2" data-name="Ellipse 2" cx="173.862" cy="173.862" rx="173.862" ry="173.862" fill="url(#linear-gradient)"/>
      <ellipse id="Ellipse_3" data-name="Ellipse 3" cx="153.363" cy="153.363" rx="153.363" ry="153.363" transform="translate(297.422 480.079)" fill="url(#linear-gradient)"/>
      <ellipse id="Ellipse_4" data-name="Ellipse 4" cx="53.905" cy="53.905" rx="53.905" ry="53.905" transform="translate(90.666 464.154)" fill="url(#linear-gradient)"/>
      <ellipse id="Ellipse_21" data-name="Ellipse 21" cx="71.367" cy="71.367" rx="71.367" ry="71.367" transform="translate(692.794 129.306)" fill="url(#linear-gradient)"/>
    </g>
    <g id="Group_99" data-name="Group 99" transform="translate(371.116 305.72)">
      <g transform="matrix(1, 0, 0, 1, -371.12, -305.72)" filter="url(#Rectangle_305)">
        <rect id="Rectangle_305-3" data-name="Rectangle 305" width="304" height="417" rx="10" transform="translate(371 306)" fill="#fff"/>
      </g>
      <g id="Group_58" data-name="Group 58" transform="translate(0 24.236)">
        <rect id="Rectangle_306" data-name="Rectangle 306" width="63" height="11" rx="4" transform="translate(34.884 0.044)" fill="#afb5bd"/>
        <rect id="Rectangle_310" data-name="Rectangle 310" width="62" height="11" rx="4" transform="translate(194.884 0.044)" fill="#a4c5f2"/>
        <rect id="Rectangle_307" data-name="Rectangle 307" width="77" height="6" rx="3" transform="translate(34.884 18.044)" fill="#afb5bd"/>
        <rect id="Rectangle_311" data-name="Rectangle 311" width="76" height="6" rx="3" transform="translate(181.884 18.044)" fill="#a5c6f3"/>
        <rect id="Rectangle_308" data-name="Rectangle 308" width="77" height="6" rx="3" transform="translate(34.884 32.044)" fill="#afb5bd"/>
        <rect id="Rectangle_312" data-name="Rectangle 312" width="54" height="6" rx="3" transform="translate(195.884 32.044)" fill="#a5c6f3"/>
        <rect id="Rectangle_313" data-name="Rectangle 313" width="67" height="6" rx="3" transform="translate(181.884 43.044)" fill="#a5c6f3"/>
        <rect id="Rectangle_309" data-name="Rectangle 309" width="56" height="6" rx="3" transform="translate(34.884 43.044)" fill="#afb5bd"/>
        <rect id="Rectangle_314" data-name="Rectangle 314" width="304" height="49" transform="translate(-0.116 84.044)" fill="#e9f1fc"/>
        <g id="Group_54" data-name="Group 54" transform="translate(35.344 156.523)">
          <g transform="matrix(1, 0, 0, 1, -406.46, -486.48)" filter="url(#Rectangle_322)">
            <path id="Rectangle_322-11" data-name="Rectangle 322" d="M2,0H242a4,4,0,0,1,4,4V34a4,4,0,0,1-4,4H2a2,2,0,0,1-2-2V2A2,2,0,0,1,2,0Z" transform="translate(406 486)" fill="#fff"/>
          </g>
          <rect id="Rectangle_317" data-name="Rectangle 317" width="111" height="6" rx="3" transform="translate(20.54 11.52)" fill="#afb5bd"/>
          <rect id="Rectangle_318" data-name="Rectangle 318" width="88" height="6" rx="3" transform="translate(20.54 22.52)" fill="#afb5bd"/>
        </g>
        <g id="Group_56" data-name="Group 56" transform="translate(35.344 208.024)">
          <g transform="matrix(1, 0, 0, 1, -406.46, -537.98)" filter="url(#Rectangle_322-2)">
            <path id="Rectangle_322-12" data-name="Rectangle 322" d="M2,0H242a4,4,0,0,1,4,4V33a4,4,0,0,1-4,4H2a2,2,0,0,1-2-2V2A2,2,0,0,1,2,0Z" transform="translate(406 538)" fill="#fff"/>
          </g>
          <rect id="Rectangle_317-2" data-name="Rectangle 317" width="216" height="7" rx="3.5" transform="translate(20.54 9.02)" fill="#afb5bd"/>
          <rect id="Rectangle_318-2" data-name="Rectangle 318" width="142" height="7" rx="3.5" transform="translate(20.54 20.02)" fill="#afb5bd"/>
        </g>
        <g id="Group_57" data-name="Group 57" transform="translate(35.344 257.506)">
          <g transform="matrix(1, 0, 0, 1, -406.46, -587.46)" filter="url(#Rectangle_322-3)">
            <path id="Rectangle_322-13" data-name="Rectangle 322" d="M2,0H242a4,4,0,0,1,4,4V34a4,4,0,0,1-4,4H2a2,2,0,0,1-2-2V2A2,2,0,0,1,2,0Z" transform="translate(406 587)" fill="#fff"/>
          </g>
          <rect id="Rectangle_317-3" data-name="Rectangle 317" width="105" height="6" rx="3" transform="translate(20.54 10.538)" fill="#afb5bd"/>
          <rect id="Rectangle_318-3" data-name="Rectangle 318" width="61" height="6" rx="3" transform="translate(20.54 21.538)" fill="#afb5bd"/>
        </g>
        <g id="Group_62" data-name="Group 62" transform="translate(35.344 307.998)">
          <g transform="matrix(1, 0, 0, 1, -406.46, -637.95)" filter="url(#Rectangle_322-4)">
            <path id="Rectangle_322-14" data-name="Rectangle 322" d="M2,0H242a4,4,0,0,1,4,4V32a4,4,0,0,1-4,4H2a2,2,0,0,1-2-2V2A2,2,0,0,1,2,0Z" transform="translate(406 638)" fill="#fff"/>
          </g>
          <rect id="Rectangle_317-4" data-name="Rectangle 317" width="172" height="6" rx="3" transform="translate(20.54 10.046)" fill="#aeb4bc"/>
          <rect id="Rectangle_318-4" data-name="Rectangle 318" width="182" height="6" rx="3" transform="translate(20.54 21.046)" fill="#afb5bd"/>
        </g>
        <path id="Path_100" data-name="Path 100" d="M4.476-14.481a8.464,8.464,0,0,1-2.133-.646A6.347,6.347,0,0,1,.629-16.239l.933-1.35a.943.943,0,0,1,.316-.277.851.851,0,0,1,.423-.112,1.06,1.06,0,0,1,.476.121q.243.121.529.3t.627.355a3.7,3.7,0,0,0,.777.3l.359-3.672q-.7-.194-1.389-.457a4.528,4.528,0,0,1-1.244-.709,3.376,3.376,0,0,1-.9-1.137,3.852,3.852,0,0,1-.345-1.729,3.778,3.778,0,0,1,.311-1.5,4.034,4.034,0,0,1,.908-1.312,4.762,4.762,0,0,1,1.472-.957,5.825,5.825,0,0,1,2-.432l.107-1.078a.815.815,0,0,1,.243-.491.74.74,0,0,1,.554-.219H7.9L7.7-28.685a5.734,5.734,0,0,1,1.807.627,6.677,6.677,0,0,1,1.282.928l-.738,1.078a1.272,1.272,0,0,1-.335.355.717.717,0,0,1-.4.112,1.072,1.072,0,0,1-.35-.068q-.194-.068-.427-.17l-.5-.219a4.687,4.687,0,0,0-.568-.2L7.129-22.8q.466.136.933.3a8.165,8.165,0,0,1,.9.369,5.251,5.251,0,0,1,.806.481,3.055,3.055,0,0,1,.651.641,2.881,2.881,0,0,1,.432.85,3.549,3.549,0,0,1,.155,1.093,4.8,4.8,0,0,1-.311,1.734A4.2,4.2,0,0,1,9.781-15.9,4.731,4.731,0,0,1,8.3-14.884a5.975,5.975,0,0,1-2,.481l-.117,1.214a.815.815,0,0,1-.243.491.74.74,0,0,1-.554.219H4.282ZM8.149-18.62a1.15,1.15,0,0,0-.355-.884,2.862,2.862,0,0,0-.938-.554l-.311,3.206A1.674,1.674,0,0,0,8.149-18.62ZM4.029-24.906a1.237,1.237,0,0,0,.364.928,2.967,2.967,0,0,0,.957.6l.291-2.934a3.118,3.118,0,0,0-.753.2,1.61,1.61,0,0,0-.5.316,1.146,1.146,0,0,0-.277.413A1.333,1.333,0,0,0,4.029-24.906ZM18.253-23.5a4.709,4.709,0,0,1,1.516.253,3.872,3.872,0,0,1,1.341.777,3.892,3.892,0,0,1,.957,1.326,4.533,4.533,0,0,1,.364,1.89,4.853,4.853,0,0,1-.369,1.88,4.679,4.679,0,0,1-1.044,1.554,4.955,4.955,0,0,1-1.627,1.054,5.53,5.53,0,0,1-2.108.389,5.727,5.727,0,0,1-2.128-.374,4.551,4.551,0,0,1-1.6-1.044,4.484,4.484,0,0,1-1-1.6,5.869,5.869,0,0,1-.345-2.05,5.778,5.778,0,0,1,.408-2.108,9.442,9.442,0,0,1,1.2-2.137L17.009-28a1.622,1.622,0,0,1,.641-.491,2.275,2.275,0,0,1,.972-.2H21.3l-4.2,5.013q-.1.107-.189.219l-.18.219a4.209,4.209,0,0,1,.714-.194A4.481,4.481,0,0,1,18.253-23.5Zm-3.148,4.459a3.254,3.254,0,0,0,.126.942,1.928,1.928,0,0,0,.389.719,1.7,1.7,0,0,0,.661.461,2.518,2.518,0,0,0,.942.16,2.161,2.161,0,0,0,.87-.175,2.1,2.1,0,0,0,.695-.481,2.3,2.3,0,0,0,.461-.719,2.337,2.337,0,0,0,.17-.9,2.753,2.753,0,0,0-.16-.972,1.987,1.987,0,0,0-.452-.719,1.956,1.956,0,0,0-.7-.447,2.588,2.588,0,0,0-.918-.155,2.123,2.123,0,0,0-.836.16,1.87,1.87,0,0,0-.656.461,2.163,2.163,0,0,0-.432.719A2.688,2.688,0,0,0,15.105-19.037Zm8.394,2.8a1.429,1.429,0,0,1,.117-.578,1.361,1.361,0,0,1,.335-.466,1.656,1.656,0,0,1,.515-.316,1.8,1.8,0,0,1,.666-.117,1.767,1.767,0,0,1,.758.151,1.527,1.527,0,0,1,.534.408,1.685,1.685,0,0,1,.316.593,2.406,2.406,0,0,1,.1.7,3.8,3.8,0,0,1-.155,1.035,5.227,5.227,0,0,1-.461,1.1,6.577,6.577,0,0,1-.763,1.088,6.265,6.265,0,0,1-1.049.972l-.525-.466a1,1,0,0,1-.16-.2.449.449,0,0,1-.053-.228.406.406,0,0,1,.068-.209.887.887,0,0,1,.165-.2q.117-.117.272-.282a4.652,4.652,0,0,0,.311-.369,3.407,3.407,0,0,0,.287-.447,2.2,2.2,0,0,0,.2-.515,1.676,1.676,0,0,1-.612-.165A1.444,1.444,0,0,1,23.9-15.1a1.7,1.7,0,0,1-.3-.51A1.78,1.78,0,0,1,23.5-16.239Zm13.621-11.2a1.559,1.559,0,0,1-.1.564,1.147,1.147,0,0,1-.306.442,1.4,1.4,0,0,1-.549.291,2.863,2.863,0,0,1-.816.1H31.971l-.4,2.341q.4-.068.768-.1t.719-.034a5.309,5.309,0,0,1,1.972.34,4.158,4.158,0,0,1,1.438.928,3.853,3.853,0,0,1,.879,1.38,4.8,4.8,0,0,1,.3,1.7,5.2,5.2,0,0,1-.4,2.074A4.822,4.822,0,0,1,36.12-15.8a5.042,5.042,0,0,1-1.715,1.054,6.157,6.157,0,0,1-2.181.374,5.8,5.8,0,0,1-1.316-.146,6.343,6.343,0,0,1-1.176-.393,6.289,6.289,0,0,1-1.015-.573,6.712,6.712,0,0,1-.845-.695l.933-1.244a1.014,1.014,0,0,1,.34-.3.885.885,0,0,1,.418-.1,1.021,1.021,0,0,1,.549.16l.564.35a4.193,4.193,0,0,0,.714.345,2.856,2.856,0,0,0,1.01.155,2.424,2.424,0,0,0,1.03-.2,1.849,1.849,0,0,0,.695-.544,2.224,2.224,0,0,0,.389-.806,3.862,3.862,0,0,0,.121-.986,2.032,2.032,0,0,0-.583-1.569,2.343,2.343,0,0,0-1.652-.539,5.052,5.052,0,0,0-1.865.359L28.668-21.6l1.2-7.083h7.248Zm12.455,5.829a11.512,11.512,0,0,1-.4,3.216,6.6,6.6,0,0,1-1.1,2.254A4.447,4.447,0,0,1,46.4-14.811a5.021,5.021,0,0,1-2.094.437,4.955,4.955,0,0,1-2.084-.437,4.428,4.428,0,0,1-1.656-1.331A6.591,6.591,0,0,1,39.477-18.4a11.646,11.646,0,0,1-.393-3.216,11.646,11.646,0,0,1,.393-3.216,6.591,6.591,0,0,1,1.093-2.254,4.383,4.383,0,0,1,1.656-1.326,5,5,0,0,1,2.084-.432,5.069,5.069,0,0,1,2.094.432,4.4,4.4,0,0,1,1.671,1.326,6.6,6.6,0,0,1,1.1,2.254A11.512,11.512,0,0,1,49.576-21.612Zm-3.109,0a12.83,12.83,0,0,0-.185-2.4,4.929,4.929,0,0,0-.491-1.472,1.779,1.779,0,0,0-.695-.734,1.709,1.709,0,0,0-.787-.2,1.68,1.68,0,0,0-.782.2,1.735,1.735,0,0,0-.68.734,5.058,5.058,0,0,0-.476,1.472,13.169,13.169,0,0,0-.18,2.4,13.154,13.154,0,0,0,.18,2.409,5.125,5.125,0,0,0,.476,1.472,1.732,1.732,0,0,0,.68.738,1.68,1.68,0,0,0,.782.2,1.709,1.709,0,0,0,.787-.2,1.775,1.775,0,0,0,.695-.738,5,5,0,0,0,.491-1.472A12.815,12.815,0,0,0,46.467-21.612Zm14.379,0a11.512,11.512,0,0,1-.4,3.216,6.6,6.6,0,0,1-1.1,2.254,4.447,4.447,0,0,1-1.671,1.331,5.021,5.021,0,0,1-2.094.437,4.955,4.955,0,0,1-2.084-.437,4.428,4.428,0,0,1-1.657-1.331A6.591,6.591,0,0,1,50.747-18.4a11.646,11.646,0,0,1-.393-3.216,11.646,11.646,0,0,1,.393-3.216,6.591,6.591,0,0,1,1.093-2.254A4.383,4.383,0,0,1,53.5-28.408a5,5,0,0,1,2.084-.432,5.069,5.069,0,0,1,2.094.432,4.4,4.4,0,0,1,1.671,1.326,6.6,6.6,0,0,1,1.1,2.254A11.512,11.512,0,0,1,60.846-21.612Zm-3.109,0a12.83,12.83,0,0,0-.185-2.4,4.929,4.929,0,0,0-.491-1.472,1.779,1.779,0,0,0-.695-.734,1.709,1.709,0,0,0-.787-.2,1.68,1.68,0,0,0-.782.2,1.735,1.735,0,0,0-.68.734,5.058,5.058,0,0,0-.476,1.472,13.17,13.17,0,0,0-.18,2.4,13.155,13.155,0,0,0,.18,2.409,5.125,5.125,0,0,0,.476,1.472,1.732,1.732,0,0,0,.68.738,1.68,1.68,0,0,0,.782.2,1.709,1.709,0,0,0,.787-.2,1.775,1.775,0,0,0,.695-.738,5,5,0,0,0,.491-1.472A12.815,12.815,0,0,0,57.737-21.612ZM61.9-16.239a1.429,1.429,0,0,1,.117-.578,1.361,1.361,0,0,1,.335-.466,1.656,1.656,0,0,1,.515-.316,1.8,1.8,0,0,1,.666-.117,1.768,1.768,0,0,1,.758.151,1.527,1.527,0,0,1,.534.408,1.685,1.685,0,0,1,.316.593,2.406,2.406,0,0,1,.1.7,3.8,3.8,0,0,1-.155,1.035,5.228,5.228,0,0,1-.461,1.1,6.578,6.578,0,0,1-.763,1.088,6.265,6.265,0,0,1-1.049.972l-.525-.466a1,1,0,0,1-.16-.2.449.449,0,0,1-.053-.228.406.406,0,0,1,.068-.209.887.887,0,0,1,.165-.2q.117-.117.272-.282a4.651,4.651,0,0,0,.311-.369,3.407,3.407,0,0,0,.287-.447,2.2,2.2,0,0,0,.2-.515,1.676,1.676,0,0,1-.612-.165A1.444,1.444,0,0,1,62.3-15.1a1.7,1.7,0,0,1-.3-.51A1.78,1.78,0,0,1,61.9-16.239ZM75.3-20.028H76.76v1.691a.558.558,0,0,1-.151.389.555.555,0,0,1-.432.165H75.3v3.255H72.68v-3.255H66.986a.818.818,0,0,1-.51-.175.742.742,0,0,1-.287-.437l-.311-1.486,6.548-8.8H75.3ZM72.68-23.72q0-.34.024-.734t.073-.811l-3.74,5.237H72.68Zm10.26-5.12a5.494,5.494,0,0,1,1.89.306,4.23,4.23,0,0,1,1.433.85,3.66,3.66,0,0,1,.908,1.3,4.241,4.241,0,0,1,.316,1.656,4.552,4.552,0,0,1-.219,1.438,5.664,5.664,0,0,1-.6,1.258,8.791,8.791,0,0,1-.879,1.156q-.5.559-1.064,1.132L81.958-16.91a10.089,10.089,0,0,1,1.054-.248,5.6,5.6,0,0,1,.976-.092h2.643a1.07,1.07,0,0,1,.768.267.926.926,0,0,1,.282.7v1.749H77.732V-15.5a1.767,1.767,0,0,1,.117-.6,1.453,1.453,0,0,1,.408-.583l4.081-4.11a13.533,13.533,0,0,0,.913-1,6.2,6.2,0,0,0,.641-.938,4.272,4.272,0,0,0,.379-.923,3.684,3.684,0,0,0,.126-.976,1.886,1.886,0,0,0-.4-1.3,1.564,1.564,0,0,0-1.229-.452,1.9,1.9,0,0,0-.622.1,1.868,1.868,0,0,0-.505.262,1.747,1.747,0,0,0-.384.389,2.051,2.051,0,0,0-.257.486,1.4,1.4,0,0,1-.393.632.992.992,0,0,1-.646.194q-.1,0-.209-.01t-.228-.029l-1.593-.282a5.315,5.315,0,0,1,.6-1.846,4.442,4.442,0,0,1,1.1-1.312,4.454,4.454,0,0,1,1.5-.782A6.205,6.205,0,0,1,82.939-28.84Zm11.542,0a5.446,5.446,0,0,1,1.865.3,4.172,4.172,0,0,1,1.38.8,3.383,3.383,0,0,1,.855,1.171,3.462,3.462,0,0,1,.291,1.4,4.6,4.6,0,0,1-.136,1.18,2.7,2.7,0,0,1-.4.884,2.524,2.524,0,0,1-.661.636,3.929,3.929,0,0,1-.9.437,3.143,3.143,0,0,1,2.351,3.2,4.425,4.425,0,0,1-.408,1.963,4.036,4.036,0,0,1-1.093,1.389,4.677,4.677,0,0,1-1.588.831,6.4,6.4,0,0,1-1.885.277,6.73,6.73,0,0,1-1.8-.219,4.139,4.139,0,0,1-1.4-.68,4.5,4.5,0,0,1-1.074-1.18,7.917,7.917,0,0,1-.8-1.71l1.341-.544a1.454,1.454,0,0,1,.345-.107,1.981,1.981,0,0,1,.335-.029,1.253,1.253,0,0,1,.559.121.827.827,0,0,1,.374.355,3.528,3.528,0,0,0,.928,1.171,1.878,1.878,0,0,0,1.151.364,2.108,2.108,0,0,0,.879-.17,1.916,1.916,0,0,0,.622-.437,1.814,1.814,0,0,0,.374-.607,1.967,1.967,0,0,0,.126-.69,4.835,4.835,0,0,0-.063-.821,1.072,1.072,0,0,0-.355-.627,2,2,0,0,0-.879-.4,7.387,7.387,0,0,0-1.637-.141v-2.079a6.081,6.081,0,0,0,1.428-.136,2.184,2.184,0,0,0,.84-.374,1.129,1.129,0,0,0,.393-.578,2.717,2.717,0,0,0,.1-.748,1.87,1.87,0,0,0-.4-1.287,1.564,1.564,0,0,0-1.229-.452,1.9,1.9,0,0,0-.622.1,1.868,1.868,0,0,0-.505.262,1.747,1.747,0,0,0-.384.389,2.051,2.051,0,0,0-.257.486,1.4,1.4,0,0,1-.393.632.992.992,0,0,1-.646.194q-.1,0-.209-.01t-.228-.029l-1.593-.282a5.315,5.315,0,0,1,.6-1.846,4.442,4.442,0,0,1,1.1-1.312,4.454,4.454,0,0,1,1.5-.782A6.205,6.205,0,0,1,94.481-28.84Z" transform="translate(101.116 130.958)" fill="#fff"/>
      </g>
    </g>
    <g id="Group_61" data-name="Group 61" transform="translate(460.991 133.039)">
      <g transform="matrix(1, 0, 0, 1, -460.99, -133.04)" filter="url(#Rectangle_305-2)">
        <rect id="Rectangle_305-4" data-name="Rectangle 305" width="369" height="546" rx="10" transform="translate(461 133)" fill="#fff"/>
      </g>
      <g id="Group_58-2" data-name="Group 58" transform="translate(0 25.246)">
        <rect id="Rectangle_306-2" data-name="Rectangle 306" width="66" height="11" rx="4" transform="translate(36.009 -0.285)" fill="#6f7a87"/>
        <rect id="Rectangle_310-2" data-name="Rectangle 310" width="64" height="11" rx="4" transform="translate(271.009 -0.285)" fill="#a4c5f2"/>
        <rect id="Rectangle_307-2" data-name="Rectangle 307" width="80" height="7" rx="3.5" transform="translate(36.009 19.715)" fill="#6f7a87"/>
        <rect id="Rectangle_311-2" data-name="Rectangle 311" width="79" height="7" rx="3.5" transform="translate(271.009 19.715)" fill="#a5c6f3"/>
        <rect id="Rectangle_308-2" data-name="Rectangle 308" width="80" height="7" rx="3.5" transform="translate(36.009 33.715)" fill="#6f7a87"/>
        <rect id="Rectangle_312-2" data-name="Rectangle 312" width="55" height="7" rx="3.5" transform="translate(271.009 33.715)" fill="#a5c6f3"/>
        <rect id="Rectangle_313-2" data-name="Rectangle 313" width="68" height="6" rx="3" transform="translate(271.009 45.715)" fill="#a5c6f3"/>
        <rect id="Rectangle_309-2" data-name="Rectangle 309" width="58" height="6" rx="3" transform="translate(36.009 45.715)" fill="#6f7a87"/>
        <rect id="Rectangle_314-2" data-name="Rectangle 314" width="369" height="52" transform="translate(0.009 87.715)" fill="#e9f1fc"/>
        <path id="Path_47" data-name="Path 47" d="M3.489,0H197.726L164.237,50.944H-30Z" transform="translate(100.523 88.324)" fill="#2272e2"/>
        <g id="Group_54-2" data-name="Group 54" transform="translate(36.354 163.592)">
          <g transform="matrix(1, 0, 0, 1, -497.35, -321.88)" filter="url(#Rectangle_322-5)">
            <path id="Rectangle_322-15" data-name="Rectangle 322" d="M2,0H303a4,4,0,0,1,4,4V35a4,4,0,0,1-4,4H2a2,2,0,0,1-2-2V2A2,2,0,0,1,2,0Z" transform="translate(497 322)" fill="#fff"/>
          </g>
          <rect id="Rectangle_321" data-name="Rectangle 321" width="6" height="39" rx="2" transform="translate(-0.345 0.122)" fill="#2272e2"/>
          <rect id="Rectangle_317-5" data-name="Rectangle 317" width="117" height="7" rx="3.5" transform="translate(20.655 11.122)" fill="#6f7a87"/>
          <rect id="Rectangle_318-5" data-name="Rectangle 318" width="94" height="7" rx="3.5" transform="translate(20.655 22.122)" fill="#afb5bd"/>
        </g>
        <g id="Group_56-2" data-name="Group 56" transform="translate(36.354 217.113)">
          <g transform="matrix(1, 0, 0, 1, -497.35, -375.4)" filter="url(#Rectangle_322-6)">
            <path id="Rectangle_322-16" data-name="Rectangle 322" d="M2,0H303a4,4,0,0,1,4,4V37a4,4,0,0,1-4,4H2a2,2,0,0,1-2-2V2A2,2,0,0,1,2,0Z" transform="translate(497 375)" fill="#fff"/>
          </g>
          <rect id="Rectangle_321-2" data-name="Rectangle 321" width="6" height="41" rx="2" transform="translate(-0.345 -0.398)" fill="#f2627c"/>
          <rect id="Rectangle_317-6" data-name="Rectangle 317" width="264" height="7" rx="3.5" transform="translate(20.655 11.602)" fill="#6f7a87"/>
          <rect id="Rectangle_318-6" data-name="Rectangle 318" width="151" height="7" rx="3.5" transform="translate(20.655 22.602)" fill="#afb5bd"/>
        </g>
        <g id="Group_64" data-name="Group 64" transform="translate(36.354 427.157)">
          <g transform="matrix(1, 0, 0, 1, -497.35, -585.44)" filter="url(#Rectangle_322-7)">
            <path id="Rectangle_322-17" data-name="Rectangle 322" d="M2,0H303a4,4,0,0,1,4,4V35a4,4,0,0,1-4,4H2a2,2,0,0,1-2-2V2A2,2,0,0,1,2,0Z" transform="translate(497 585)" fill="#fff"/>
          </g>
          <rect id="Rectangle_321-3" data-name="Rectangle 321" width="6" height="39" rx="2" transform="translate(-0.345 -0.442)" fill="#f2627c"/>
          <rect id="Rectangle_317-7" data-name="Rectangle 317" width="118" height="6" rx="3" transform="translate(20.655 10.558)" fill="#6f7a87"/>
          <rect id="Rectangle_318-7" data-name="Rectangle 318" width="34" height="6" rx="3" transform="translate(20.655 22.558)" fill="#afb5bd"/>
        </g>
        <g id="Group_57-2" data-name="Group 57" transform="translate(36.354 269.624)">
          <g transform="matrix(1, 0, 0, 1, -497.35, -427.91)" filter="url(#Rectangle_322-8)">
            <path id="Rectangle_322-18" data-name="Rectangle 322" d="M2,0H303a4,4,0,0,1,4,4V35a4,4,0,0,1-4,4H2a2,2,0,0,1-2-2V2A2,2,0,0,1,2,0Z" transform="translate(497 428)" fill="#fff"/>
          </g>
          <rect id="Rectangle_321-4" data-name="Rectangle 321" width="6" height="39" rx="2" transform="translate(-0.345 0.092)" fill="#2272e2"/>
          <rect id="Rectangle_317-8" data-name="Rectangle 317" width="112" height="7" rx="3.5" transform="translate(20.655 10.092)" fill="#6f7a87"/>
          <rect id="Rectangle_318-8" data-name="Rectangle 318" width="65" height="7" rx="3.5" transform="translate(20.655 22.092)" fill="#afb5bd"/>
        </g>
        <g id="Group_62-2" data-name="Group 62" transform="translate(36.354 322.135)">
          <g transform="matrix(1, 0, 0, 1, -497.35, -480.42)" filter="url(#Rectangle_322-9)">
            <path id="Rectangle_322-19" data-name="Rectangle 322" d="M2,0H303a4,4,0,0,1,4,4V36a4,4,0,0,1-4,4H2a2,2,0,0,1-2-2V2A2,2,0,0,1,2,0Z" transform="translate(497 480)" fill="#fff"/>
          </g>
          <rect id="Rectangle_321-5" data-name="Rectangle 321" width="6" height="40" rx="2" transform="translate(-0.345 -0.42)" fill="#2272e2"/>
          <rect id="Rectangle_317-9" data-name="Rectangle 317" width="182" height="7" rx="3.5" transform="translate(20.655 10.58)" fill="#6f7a87"/>
          <rect id="Rectangle_318-9" data-name="Rectangle 318" width="207" height="7" rx="3.5" transform="translate(20.655 22.58)" fill="#afb5bd"/>
        </g>
        <g id="Group_63" data-name="Group 63" transform="translate(36.354 375.656)">
          <g transform="matrix(1, 0, 0, 1, -497.35, -533.94)" filter="url(#Rectangle_322-10)">
            <path id="Rectangle_322-20" data-name="Rectangle 322" d="M2,0H303a4,4,0,0,1,4,4V33a4,4,0,0,1-4,4H2a2,2,0,0,1-2-2V2A2,2,0,0,1,2,0Z" transform="translate(497 534)" fill="#fff"/>
          </g>
          <rect id="Rectangle_321-6" data-name="Rectangle 321" width="6" height="37" rx="2" transform="translate(-0.345 0.059)" fill="#2272e2"/>
          <rect id="Rectangle_317-10" data-name="Rectangle 317" width="48" height="6" rx="3" transform="translate(20.655 9.059)" fill="#6f7a87"/>
          <rect id="Rectangle_318-10" data-name="Rectangle 318" width="94" height="6" rx="3" transform="translate(20.655 21.059)" fill="#afb5bd"/>
        </g>
        <path id="Path_100-2" data-name="Path 100" d="M4.665-13.69a8.88,8.88,0,0,1-2.237-.678,6.658,6.658,0,0,1-1.8-1.167l.978-1.417a.989.989,0,0,1,.331-.29.892.892,0,0,1,.443-.117,1.112,1.112,0,0,1,.5.127q.255.127.555.311t.657.372a3.882,3.882,0,0,0,.815.311l.377-3.853q-.734-.2-1.457-.479a4.75,4.75,0,0,1-1.3-.744,3.542,3.542,0,0,1-.943-1.192,4.041,4.041,0,0,1-.362-1.814,3.963,3.963,0,0,1,.326-1.57A4.232,4.232,0,0,1,2.5-27.266a5,5,0,0,1,1.544-1,6.111,6.111,0,0,1,2.1-.454l.112-1.131a.855.855,0,0,1,.255-.515.777.777,0,0,1,.581-.229H8.253l-.2,2.008a6.016,6.016,0,0,1,1.9.657,7.005,7.005,0,0,1,1.345.973l-.775,1.131a1.335,1.335,0,0,1-.352.372.753.753,0,0,1-.423.117,1.124,1.124,0,0,1-.367-.071q-.2-.071-.448-.178L8.4-25.819a4.918,4.918,0,0,0-.6-.214l-.357,3.618q.489.143.978.311a8.566,8.566,0,0,1,.943.387,5.509,5.509,0,0,1,.846.5,3.205,3.205,0,0,1,.683.673,3.022,3.022,0,0,1,.454.892,3.723,3.723,0,0,1,.163,1.147,5.04,5.04,0,0,1-.326,1.819,4.4,4.4,0,0,1-.958,1.5,4.963,4.963,0,0,1-1.549,1.065,6.268,6.268,0,0,1-2.1.5l-.122,1.274a.855.855,0,0,1-.255.515.777.777,0,0,1-.581.229H4.461Zm3.853-4.342a1.207,1.207,0,0,0-.372-.927,3,3,0,0,0-.984-.581l-.326,3.363A1.757,1.757,0,0,0,8.518-18.032ZM4.2-24.626a1.3,1.3,0,0,0,.382.973,3.113,3.113,0,0,0,1,.627L5.888-26.1a3.271,3.271,0,0,0-.79.209,1.689,1.689,0,0,0-.52.331,1.2,1.2,0,0,0-.29.433A1.4,1.4,0,0,0,4.2-24.626Zm14.921,1.478a4.94,4.94,0,0,1,1.59.265,4.062,4.062,0,0,1,1.407.815,4.083,4.083,0,0,1,1,1.391,4.755,4.755,0,0,1,.382,1.982,5.091,5.091,0,0,1-.387,1.972,4.908,4.908,0,0,1-1.1,1.631,5.2,5.2,0,0,1-1.707,1.106,5.8,5.8,0,0,1-2.212.408,6.008,6.008,0,0,1-2.232-.392,4.774,4.774,0,0,1-1.677-1.1,4.7,4.7,0,0,1-1.05-1.682,6.157,6.157,0,0,1-.362-2.151,6.061,6.061,0,0,1,.428-2.212,9.9,9.9,0,0,1,1.264-2.242l3.343-4.515a1.7,1.7,0,0,1,.673-.515,2.386,2.386,0,0,1,1.019-.209h2.813l-4.4,5.259q-.1.112-.2.229l-.189.229a4.416,4.416,0,0,1,.749-.2A4.7,4.7,0,0,1,19.118-23.149Zm-3.3,4.678a3.413,3.413,0,0,0,.132.989,2.023,2.023,0,0,0,.408.754,1.786,1.786,0,0,0,.693.484,2.641,2.641,0,0,0,.989.168,2.267,2.267,0,0,0,.912-.183,2.206,2.206,0,0,0,.729-.5,2.414,2.414,0,0,0,.484-.754,2.452,2.452,0,0,0,.178-.943,2.888,2.888,0,0,0-.168-1.019,2.084,2.084,0,0,0-.474-.754,2.052,2.052,0,0,0-.739-.469A2.715,2.715,0,0,0,18-20.865a2.227,2.227,0,0,0-.877.168,1.962,1.962,0,0,0-.688.484,2.269,2.269,0,0,0-.454.754A2.82,2.82,0,0,0,15.815-18.47Zm8.806,2.935a1.5,1.5,0,0,1,.122-.606,1.428,1.428,0,0,1,.352-.489,1.738,1.738,0,0,1,.54-.331,1.893,1.893,0,0,1,.7-.122,1.854,1.854,0,0,1,.795.158,1.6,1.6,0,0,1,.561.428,1.767,1.767,0,0,1,.331.622,2.524,2.524,0,0,1,.107.739,3.991,3.991,0,0,1-.163,1.085A5.484,5.484,0,0,1,27.48-12.9a6.9,6.9,0,0,1-.8,1.142,6.573,6.573,0,0,1-1.1,1.019l-.55-.489a1.052,1.052,0,0,1-.168-.209.471.471,0,0,1-.056-.24.426.426,0,0,1,.071-.219.931.931,0,0,1,.173-.209q.122-.122.285-.3a4.88,4.88,0,0,0,.326-.387,3.573,3.573,0,0,0,.3-.469,2.313,2.313,0,0,0,.209-.54,1.758,1.758,0,0,1-.642-.173,1.515,1.515,0,0,1-.484-.377,1.783,1.783,0,0,1-.311-.535A1.868,1.868,0,0,1,24.621-15.535ZM38.911-27.287a1.635,1.635,0,0,1-.1.591,1.2,1.2,0,0,1-.321.464,1.473,1.473,0,0,1-.576.306,3,3,0,0,1-.856.107H33.509l-.418,2.456q.418-.071.805-.107t.754-.036a5.57,5.57,0,0,1,2.069.357,4.362,4.362,0,0,1,1.508.973,4.042,4.042,0,0,1,.922,1.447,5.033,5.033,0,0,1,.311,1.779,5.452,5.452,0,0,1-.423,2.176,5.058,5.058,0,0,1-1.177,1.7,5.289,5.289,0,0,1-1.8,1.106,6.458,6.458,0,0,1-2.288.392,6.08,6.08,0,0,1-1.381-.153,6.654,6.654,0,0,1-1.233-.413,6.6,6.6,0,0,1-1.065-.6,7.04,7.04,0,0,1-.887-.729l.978-1.3a1.064,1.064,0,0,1,.357-.311.929.929,0,0,1,.438-.107,1.071,1.071,0,0,1,.576.168l.591.367a4.4,4.4,0,0,0,.749.362,3,3,0,0,0,1.06.163,2.543,2.543,0,0,0,1.08-.209,1.939,1.939,0,0,0,.729-.571,2.333,2.333,0,0,0,.408-.846A4.052,4.052,0,0,0,36.3-18.8a2.132,2.132,0,0,0-.612-1.646,2.458,2.458,0,0,0-1.733-.566A5.3,5.3,0,0,0,32-20.631l-1.957-.53,1.264-7.43h7.6Zm13.066,6.115a12.076,12.076,0,0,1-.418,3.374A6.924,6.924,0,0,1,50.4-15.433a4.665,4.665,0,0,1-1.753,1.4,5.267,5.267,0,0,1-2.2.459,5.2,5.2,0,0,1-2.186-.459,4.645,4.645,0,0,1-1.738-1.4A6.915,6.915,0,0,1,41.383-17.8a12.217,12.217,0,0,1-.413-3.374,12.217,12.217,0,0,1,.413-3.374,6.915,6.915,0,0,1,1.147-2.365A4.6,4.6,0,0,1,44.267-28.3a5.248,5.248,0,0,1,2.186-.454,5.318,5.318,0,0,1,2.2.454A4.618,4.618,0,0,1,50.4-26.909a6.924,6.924,0,0,1,1.157,2.365A12.076,12.076,0,0,1,51.977-21.171Zm-3.262,0a13.46,13.46,0,0,0-.194-2.523,5.171,5.171,0,0,0-.515-1.544,1.866,1.866,0,0,0-.729-.77,1.793,1.793,0,0,0-.826-.209,1.763,1.763,0,0,0-.82.209,1.821,1.821,0,0,0-.713.77,5.305,5.305,0,0,0-.5,1.544,13.815,13.815,0,0,0-.189,2.523,13.8,13.8,0,0,0,.189,2.528,5.376,5.376,0,0,0,.5,1.544,1.817,1.817,0,0,0,.713.775,1.763,1.763,0,0,0,.82.209,1.793,1.793,0,0,0,.826-.209,1.862,1.862,0,0,0,.729-.775,5.24,5.24,0,0,0,.515-1.544A13.444,13.444,0,0,0,48.716-21.171Zm15.084,0a12.076,12.076,0,0,1-.418,3.374,6.924,6.924,0,0,1-1.157,2.365,4.665,4.665,0,0,1-1.753,1.4,5.267,5.267,0,0,1-2.2.459,5.2,5.2,0,0,1-2.186-.459,4.645,4.645,0,0,1-1.738-1.4A6.915,6.915,0,0,1,53.205-17.8a12.217,12.217,0,0,1-.413-3.374,12.217,12.217,0,0,1,.413-3.374,6.915,6.915,0,0,1,1.147-2.365A4.6,4.6,0,0,1,56.09-28.3a5.248,5.248,0,0,1,2.186-.454,5.318,5.318,0,0,1,2.2.454,4.618,4.618,0,0,1,1.753,1.391,6.924,6.924,0,0,1,1.157,2.365A12.076,12.076,0,0,1,63.8-21.171Zm-3.261,0a13.459,13.459,0,0,0-.194-2.523,5.171,5.171,0,0,0-.515-1.544,1.866,1.866,0,0,0-.729-.77,1.793,1.793,0,0,0-.826-.209,1.763,1.763,0,0,0-.82.209,1.821,1.821,0,0,0-.713.77,5.306,5.306,0,0,0-.5,1.544,13.815,13.815,0,0,0-.189,2.523,13.8,13.8,0,0,0,.189,2.528,5.377,5.377,0,0,0,.5,1.544,1.817,1.817,0,0,0,.713.775,1.763,1.763,0,0,0,.82.209,1.793,1.793,0,0,0,.826-.209,1.862,1.862,0,0,0,.729-.775,5.24,5.24,0,0,0,.515-1.544A13.444,13.444,0,0,0,60.539-21.171ZM64.9-15.535a1.5,1.5,0,0,1,.122-.606,1.428,1.428,0,0,1,.352-.489,1.738,1.738,0,0,1,.54-.331,1.893,1.893,0,0,1,.7-.122,1.854,1.854,0,0,1,.795.158,1.6,1.6,0,0,1,.561.428,1.767,1.767,0,0,1,.331.622,2.524,2.524,0,0,1,.107.739,3.99,3.99,0,0,1-.163,1.085A5.483,5.483,0,0,1,67.76-12.9a6.9,6.9,0,0,1-.8,1.142,6.573,6.573,0,0,1-1.1,1.019l-.55-.489a1.052,1.052,0,0,1-.168-.209.471.471,0,0,1-.056-.24.426.426,0,0,1,.071-.219.931.931,0,0,1,.173-.209q.122-.122.285-.3a4.88,4.88,0,0,0,.326-.387,3.574,3.574,0,0,0,.3-.469,2.313,2.313,0,0,0,.209-.54,1.758,1.758,0,0,1-.642-.173,1.515,1.515,0,0,1-.484-.377,1.783,1.783,0,0,1-.311-.535A1.868,1.868,0,0,1,64.9-15.535ZM78.966-19.51H80.5v1.773a.585.585,0,0,1-.158.408.583.583,0,0,1-.454.173h-.917v3.414H76.214v-3.414H70.242a.858.858,0,0,1-.535-.183.779.779,0,0,1-.3-.459l-.326-1.559,6.87-9.234h3.017Zm-2.752-3.873q0-.357.025-.77T76.316-25L72.392-19.51h3.822Zm10.763-5.371a5.764,5.764,0,0,1,1.982.321,4.438,4.438,0,0,1,1.5.892,3.84,3.84,0,0,1,.953,1.361,4.45,4.45,0,0,1,.331,1.738,4.776,4.776,0,0,1-.229,1.508,5.942,5.942,0,0,1-.627,1.32,9.221,9.221,0,0,1-.922,1.213q-.525.586-1.116,1.187l-2.9,2.976a10.585,10.585,0,0,1,1.106-.26,5.874,5.874,0,0,1,1.024-.1H90.85a1.122,1.122,0,0,1,.805.28.971.971,0,0,1,.3.739v1.835H81.514V-14.76a1.854,1.854,0,0,1,.122-.632A1.524,1.524,0,0,1,82.065-16l4.281-4.311a14.191,14.191,0,0,0,.958-1.05,6.508,6.508,0,0,0,.673-.984,4.482,4.482,0,0,0,.4-.968,3.865,3.865,0,0,0,.132-1.024,1.978,1.978,0,0,0-.423-1.361,1.641,1.641,0,0,0-1.289-.474,1.99,1.99,0,0,0-.652.1,1.959,1.959,0,0,0-.53.275,1.833,1.833,0,0,0-.4.408,2.153,2.153,0,0,0-.27.51,1.472,1.472,0,0,1-.413.662,1.041,1.041,0,0,1-.678.2q-.1,0-.219-.01t-.24-.031l-1.672-.3a5.576,5.576,0,0,1,.627-1.937A4.66,4.66,0,0,1,83.5-27.664a4.673,4.673,0,0,1,1.575-.82A6.51,6.51,0,0,1,86.977-28.754Zm12.108,0a5.713,5.713,0,0,1,1.957.311,4.377,4.377,0,0,1,1.447.841,3.549,3.549,0,0,1,.9,1.228,3.631,3.631,0,0,1,.306,1.473,4.828,4.828,0,0,1-.143,1.238,2.837,2.837,0,0,1-.423.927,2.648,2.648,0,0,1-.693.668,4.122,4.122,0,0,1-.943.459,3.3,3.3,0,0,1,2.467,3.353,4.642,4.642,0,0,1-.428,2.059,4.234,4.234,0,0,1-1.147,1.457,4.906,4.906,0,0,1-1.666.871,6.71,6.71,0,0,1-1.977.29,7.06,7.06,0,0,1-1.886-.229,4.342,4.342,0,0,1-1.468-.713,4.726,4.726,0,0,1-1.126-1.238,8.306,8.306,0,0,1-.841-1.794l1.407-.571a1.526,1.526,0,0,1,.362-.112,2.079,2.079,0,0,1,.352-.031,1.314,1.314,0,0,1,.586.127.868.868,0,0,1,.392.372,3.7,3.7,0,0,0,.973,1.228,1.97,1.97,0,0,0,1.208.382,2.212,2.212,0,0,0,.922-.178,2.01,2.01,0,0,0,.652-.459,1.9,1.9,0,0,0,.392-.637,2.064,2.064,0,0,0,.132-.724,5.072,5.072,0,0,0-.066-.861,1.125,1.125,0,0,0-.372-.657,2.1,2.1,0,0,0-.922-.423,7.749,7.749,0,0,0-1.717-.148v-2.181a6.379,6.379,0,0,0,1.5-.143,2.291,2.291,0,0,0,.882-.392,1.184,1.184,0,0,0,.413-.606,2.85,2.85,0,0,0,.1-.785,1.962,1.962,0,0,0-.423-1.35,1.641,1.641,0,0,0-1.289-.474,1.99,1.99,0,0,0-.652.1,1.96,1.96,0,0,0-.53.275,1.833,1.833,0,0,0-.4.408,2.153,2.153,0,0,0-.27.51,1.472,1.472,0,0,1-.413.662,1.041,1.041,0,0,1-.678.2q-.1,0-.219-.01t-.24-.031l-1.672-.3a5.576,5.576,0,0,1,.627-1.937,4.66,4.66,0,0,1,1.152-1.376,4.673,4.673,0,0,1,1.575-.82A6.51,6.51,0,0,1,99.086-28.754Z" transform="translate(130.273 135.519)" fill="#fff"/>
      </g>
    </g>
  </g>
</svg>
