<svg xmlns="http://www.w3.org/2000/svg" xmlns:xlink="http://www.w3.org/1999/xlink" width="701.26" height="1051.88" viewBox="0 0 701.26 1051.88">
  <defs>
    <filter id="Rectangle_322" x="178" y="331" width="357" height="57" filterUnits="userSpaceOnUse">
      <feOffset dy="2" input="SourceAlpha"/>
      <feGaussianBlur stdDeviation="2" result="blur"/>
      <feFlood flood-opacity="0.043"/>
      <feComposite operator="in" in2="blur"/>
      <feComposite in="SourceGraphic"/>
    </filter>
    <filter id="Rectangle_322-2" x="178" y="391" width="357" height="59" filterUnits="userSpaceOnUse">
      <feOffset dy="2" input="SourceAlpha"/>
      <feGaussianBlur stdDeviation="2" result="blur-2"/>
      <feFlood flood-opacity="0.043"/>
      <feComposite operator="in" in2="blur-2"/>
      <feComposite in="SourceGraphic"/>
    </filter>
    <filter id="Rectangle_322-3" x="178" y="688" width="357" height="59" filterUnits="userSpaceOnUse">
      <feOffset dy="2" input="SourceAlpha"/>
      <feGaussianBlur stdDeviation="2" result="blur-3"/>
      <feFlood flood-opacity="0.043"/>
      <feComposite operator="in" in2="blur-3"/>
      <feComposite in="SourceGraphic"/>
    </filter>
    <filter id="Rectangle_322-4" x="178" y="628" width="357" height="56" filterUnits="userSpaceOnUse">
      <feOffset dy="2" input="SourceAlpha"/>
      <feGaussianBlur stdDeviation="2" result="blur-4"/>
      <feFlood flood-opacity="0.043"/>
      <feComposite operator="in" in2="blur-4"/>
      <feComposite in="SourceGraphic"/>
    </filter>
    <filter id="Rectangle_322-5" x="178" y="751" width="357" height="56" filterUnits="userSpaceOnUse">
      <feOffset dy="2" input="SourceAlpha"/>
      <feGaussianBlur stdDeviation="2" result="blur-5"/>
      <feFlood flood-opacity="0.043"/>
      <feComposite operator="in" in2="blur-5"/>
      <feComposite in="SourceGraphic"/>
    </filter>
    <filter id="Rectangle_322-6" x="178" y="451" width="357" height="56" filterUnits="userSpaceOnUse">
      <feOffset dy="2" input="SourceAlpha"/>
      <feGaussianBlur stdDeviation="2" result="blur-6"/>
      <feFlood flood-opacity="0.043"/>
      <feComposite operator="in" in2="blur-6"/>
      <feComposite in="SourceGraphic"/>
    </filter>
    <filter id="Rectangle_322-7" x="178" y="510" width="357" height="57" filterUnits="userSpaceOnUse">
      <feOffset dy="2" input="SourceAlpha"/>
      <feGaussianBlur stdDeviation="2" result="blur-7"/>
      <feFlood flood-opacity="0.043"/>
      <feComposite operator="in" in2="blur-7"/>
      <feComposite in="SourceGraphic"/>
    </filter>
    <filter id="Rectangle_322-8" x="178" y="811" width="357" height="57" filterUnits="userSpaceOnUse">
      <feOffset dy="2" input="SourceAlpha"/>
      <feGaussianBlur stdDeviation="2" result="blur-8"/>
      <feFlood flood-opacity="0.043"/>
      <feComposite operator="in" in2="blur-8"/>
      <feComposite in="SourceGraphic"/>
    </filter>
    <filter id="Rectangle_322-9" x="178" y="571" width="357" height="53" filterUnits="userSpaceOnUse">
      <feOffset dy="2" input="SourceAlpha"/>
      <feGaussianBlur stdDeviation="2" result="blur-9"/>
      <feFlood flood-opacity="0.043"/>
      <feComposite operator="in" in2="blur-9"/>
      <feComposite in="SourceGraphic"/>
    </filter>
    <filter id="Rectangle_322-10" x="178" y="872" width="357" height="53" filterUnits="userSpaceOnUse">
      <feOffset dy="2" input="SourceAlpha"/>
      <feGaussianBlur stdDeviation="2" result="blur-10"/>
      <feFlood flood-opacity="0.043"/>
      <feComposite operator="in" in2="blur-10"/>
      <feComposite in="SourceGraphic"/>
    </filter>
    <clipPath id="clip-Image_12_-_1">
      <rect width="701.26" height="1051.88"/>
    </clipPath>
  </defs>
  <g id="Image_12_-_1" data-name="Image 12 - 1" clip-path="url(#clip-Image_12_-_1)">
    <rect width="701.26" height="1051.88" fill="rgba(255,255,255,0)"/>
    <g id="Group_111" data-name="Group 111" transform="translate(0 52)">
      <g id="Group_95" data-name="Group 95" transform="translate(114.488 -12)">
        <g id="Path_138" data-name="Path 138" fill="#eff0f2">
          <path d="M64,0H409a64,64,0,0,1,64,64V909a64,64,0,0,1-64,64H64A64,64,0,0,1,0,909V64A64,64,0,0,1,64,0Z" stroke="none"/>
          <path d="M 64 1 C 55.49462890625 1 47.24411010742188 2.6656494140625 39.47787475585938 5.95050048828125 C 35.7449951171875 7.52923583984375 32.14474487304688 9.4835205078125 28.77676391601562 11.75872802734375 C 25.44061279296875 14.01263427734375 22.30337524414062 16.60113525390625 19.45223999023438 19.4522705078125 C 16.60113525390625 22.3033447265625 14.01263427734375 25.44061279296875 11.75875854492188 28.7767333984375 C 9.483489990234375 32.144775390625 7.52923583984375 35.7449951171875 5.95050048828125 39.4779052734375 C 2.665618896484375 47.244140625 1 55.49462890625 1 64 L 1 909 C 1 917.50537109375 2.665618896484375 925.755859375 5.95050048828125 933.5220947265625 C 7.52923583984375 937.2550048828125 9.483489990234375 940.855224609375 11.75875854492188 944.2232666015625 C 14.01263427734375 947.5593872070312 16.60113525390625 950.6966552734375 19.45223999023438 953.5477294921875 C 22.30337524414062 956.3988647460938 25.44061279296875 958.9873657226562 28.77676391601562 961.2412719726562 C 32.14474487304688 963.5164794921875 35.7449951171875 965.4707641601562 39.47787475585938 967.0494995117188 C 47.24411010742188 970.3343505859375 55.49462890625 972 64 972 L 409 972 C 417.50537109375 972 425.755859375 970.3343505859375 433.5221252441406 967.0494995117188 C 437.2550048828125 965.4707641601562 440.8552551269531 963.5164794921875 444.2232360839844 961.2412719726562 C 447.5593872070312 958.9873657226562 450.6966247558594 956.3988647460938 453.5477600097656 953.5477294921875 C 456.3988647460938 950.6966552734375 458.9873657226562 947.5593872070312 461.2412414550781 944.2232666015625 C 463.5165100097656 940.855224609375 465.4707641601562 937.2550048828125 467.0494995117188 933.5220947265625 C 470.3343811035156 925.755859375 472 917.50537109375 472 909 L 472 64 C 472 55.49462890625 470.3343811035156 47.244140625 467.0494995117188 39.4779052734375 C 465.4707641601562 35.7449951171875 463.5165100097656 32.144775390625 461.2412414550781 28.7767333984375 C 458.9873657226562 25.44061279296875 456.3988647460938 22.3033447265625 453.5477600097656 19.4522705078125 C 450.6966247558594 16.60113525390625 447.5593872070312 14.01263427734375 444.2232360839844 11.75872802734375 C 440.8552551269531 9.4835205078125 437.2550048828125 7.52923583984375 433.5221252441406 5.95050048828125 C 425.755859375 2.6656494140625 417.50537109375 1 409 1 L 64 1 M 64 0 L 409 0 C 444.3462524414062 0 473 28.65374755859375 473 64 L 473 909 C 473 944.3462524414062 444.3462524414062 973 409 973 L 64 973 C 28.65374755859375 973 0 944.3462524414062 0 909 L 0 64 C 0 28.65374755859375 28.65374755859375 0 64 0 Z" stroke="none" fill="rgba(207,211,215,0.7)"/>
        </g>
        <g id="Group_91" data-name="Group 91" transform="translate(20 20.879)">
          <g id="Subtraction_2" data-name="Subtraction 2" transform="translate(0 0)" fill="#fff">
            <path d="M380.4,926.241H52a51.956,51.956,0,0,1-52-52V52A51.956,51.956,0,0,1,52,0H83.072V13.685a28.976,28.976,0,0,0,29,29H320.327a28.912,28.912,0,0,0,20.507-8.494,28.91,28.91,0,0,0,8.494-20.506V0H380.4a51.957,51.957,0,0,1,52,52V874.242a51.957,51.957,0,0,1-52,52Z" stroke="none"/>
            <path d="M 380.3994445800781 925.2415161132812 C 387.2845153808594 925.2415161132812 393.9634399414062 923.8931884765625 400.250732421875 921.2340087890625 C 406.3235778808594 918.6654052734375 411.7778015136719 914.9879760742188 416.4620361328125 910.3040161132812 C 421.1461486816406 905.619873046875 424.8235778808594 900.1656494140625 427.3921508789062 894.0928344726562 C 430.0513305664062 887.8056640625 431.3996887207031 881.126953125 431.3996887207031 874.2420043945312 L 431.3996887207031 52.00022506713867 C 431.3996887207031 45.11516571044922 430.0513305664062 38.43622589111328 427.3921508789062 32.14893341064453 C 424.8234558105469 26.07587432861328 421.1460266113281 20.62163734436035 416.4620361328125 15.93752098083496 C 411.7778015136719 11.25340270996094 406.3235778808594 7.575991153717041 400.250732421875 5.00752067565918 C 393.9640197753906 2.348344087600708 387.2850952148438 1.00010883808136 380.3994445800781 1.00010883808136 L 350.3279113769531 0.9999949336051941 L 350.3279113769531 13.68457984924316 C 350.3279113769531 17.7339916229248 349.5345153808594 21.66281509399414 347.9696960449219 25.36187362670898 C 346.458740234375 28.93422698974609 344.2956848144531 32.1423454284668 341.5407409667969 34.89752197265625 C 338.7857971191406 37.65234375 335.5775756835938 39.81528472900391 332.0049743652344 41.32622528076172 C 328.3056945800781 42.89104843139648 324.3766174316406 43.68446350097656 320.3270874023438 43.68446350097656 L 112.0715637207031 43.68446350097656 C 108.0220336914062 43.68446350097656 104.0930938720703 42.89104843139648 100.393913269043 41.32634353637695 C 96.82144927978516 39.81528472900391 93.61332702636719 37.65234375 90.85850524902344 34.89740371704102 C 88.10368347167969 32.14269638061523 85.94074249267578 28.93446159362793 84.42967987060547 25.36187362670898 C 82.86521148681641 21.66304969787598 82.07191467285156 17.73422622680664 82.07180023193359 13.68457984924316 L 82.07180023193359 1.00010883808136 L 51.99932861328125 1.00010883808136 C 45.11368179321289 1.00010883808136 38.43473815917969 2.348344087600708 32.14815139770508 5.00752067565918 C 26.07521057128906 7.576108932495117 20.62109184265137 11.25352096557617 15.93709278106689 15.93752098083496 C 11.25321006774902 20.62163734436035 7.575916290283203 26.07587432861328 5.007328033447266 32.14893341064453 C 2.348151445388794 38.43610763549805 0.9999162554740906 45.11505126953125 1.000151515007019 52.00022506713867 L 1.000151515007019 874.2420043945312 C 1.000151515007019 881.1276245117188 2.348386764526367 887.8063354492188 5.007328033447266 894.0928344726562 C 7.575916290283203 900.1658935546875 11.25321006774902 905.6201171875 15.93709278106689 910.3040161132812 C 20.62109184265137 914.9878540039062 26.07521057128906 918.665283203125 32.14815139770508 921.2340087890625 C 38.43544387817383 923.8931884765625 45.1142692565918 925.2415161132812 51.99932861328125 925.2415161132812 L 380.3994445800781 925.2415161132812 M 380.3994445800781 926.2415161132812 L 51.99932861328125 926.2415161132812 C 44.97956466674805 926.2415161132812 38.16968154907227 924.8665771484375 31.75862121582031 922.155029296875 C 25.56650352478027 919.535888671875 20.00544548034668 915.7864379882812 15.23003387451172 911.0110473632812 C 10.45462226867676 906.2356567382812 6.705327987670898 900.674560546875 4.086269378662109 894.4823608398438 C 1.374857425689697 888.0718994140625 0.0001515251642558724 881.261962890625 0.0001515251642558724 874.2420043945312 L 0.0001515251642558724 52.00022506713867 C -8.376895857509226e-05 44.98034286499023 1.374739766120911 38.17034530639648 4.086269378662109 31.75940322875977 C 6.705327987670898 25.56704902648926 10.45462226867676 20.00599098205566 15.23003387451172 15.23046207427979 C 20.00544548034668 10.45493221282959 25.56650352478027 6.705520629882812 31.75862121582031 4.086461544036865 C 38.16920852661133 1.374932289123535 44.97920989990234 0.0001087861892301589 51.99932861328125 0.0001087861892301589 L 83.07180023193359 0.0001087861892301589 L 83.07180023193359 13.68457984924316 C 83.07191467285156 17.59951972961426 83.838623046875 21.39728546142578 85.35073852539062 24.97234344482422 C 86.81132507324219 28.42563819885254 88.90226745605469 31.52705001831055 91.56556701660156 34.19034576416016 C 94.22885894775391 36.8536376953125 97.33026885986328 38.94469833374023 100.783447265625 40.4052848815918 C 104.3587417602539 41.91763687133789 108.156623840332 42.68446350097656 112.0715637207031 42.68446350097656 L 320.3270874023438 42.68446350097656 C 324.2420349121094 42.68446350097656 328.0400390625 41.91763687133789 331.6154479980469 40.4052848815918 C 335.0687255859375 38.94469833374023 338.1702575683594 36.8536376953125 340.8336791992188 34.19034576416016 C 343.4972229003906 31.52669715881348 345.5881652832031 28.4254035949707 347.0487365722656 24.97234344482422 C 348.5610961914062 21.39716720581055 349.3279113769531 17.59940338134766 349.3279113769531 13.68457984924316 L 349.3279113769531 -8.86086854734458e-06 L 380.3994445800781 0.0001087861892301589 C 387.4195556640625 0.0001087861892301589 394.2295532226562 1.374932289123535 400.6402587890625 4.086461544036865 C 406.8323974609375 6.705402851104736 412.3934326171875 10.45481491088867 417.1690979003906 15.23046207427979 C 421.9446105957031 20.00599098205566 425.6940307617188 25.56704902648926 428.3132019042969 31.75940322875977 C 431.0247497558594 38.17046356201172 432.3996887207031 44.98046112060547 432.3996887207031 52.00022506713867 L 432.3996887207031 874.2420043945312 C 432.3996887207031 881.2616577148438 431.0247497558594 888.0714111328125 428.3132019042969 894.4823608398438 C 425.6941528320312 900.67431640625 421.9447326660156 906.2354125976562 417.1690979003906 911.0110473632812 C 412.3934326171875 915.7865600585938 406.8323974609375 919.5360107421875 400.6402587890625 922.155029296875 C 394.2292175292969 924.8665771484375 387.4192199707031 926.2415161132812 380.3994445800781 926.2415161132812 Z" stroke="none" fill="rgba(207,211,215,0.47)"/>
          </g>
          <g id="check_box-24px" transform="translate(343.053 242.299)">
            <path id="Path_24" data-name="Path 24" d="M0,0H30.07V30.07H0Z" fill="none"/>
            <path id="Path_25" data-name="Path 25" d="M21.71,3H5.339A2.338,2.338,0,0,0,3,5.339V21.71a2.338,2.338,0,0,0,2.339,2.339H21.71a2.338,2.338,0,0,0,2.339-2.339V5.339A2.338,2.338,0,0,0,21.71,3ZM11.186,19.371,5.339,13.524l1.649-1.649,4.2,4.186,8.876-8.876L21.71,8.847Z" transform="translate(1.51 1.51)" fill="#fff"/>
          </g>
          <text id="Recipts" transform="translate(50.511 96.121)" fill="#fff" font-size="14" font-family="Lato-Black, Lato" font-weight="800"><tspan x="0" y="0">Recipts</tspan></text>
        </g>
        <g id="Rectangle_418" data-name="Rectangle 418" transform="translate(171.512 31)" fill="rgba(207,211,216,0.27)" stroke="#cfd3d7" stroke-width="1">
          <rect width="129" height="17" rx="8.5" stroke="none"/>
          <rect x="0.5" y="0.5" width="128" height="16" rx="8" fill="none"/>
        </g>
      </g>
      <g id="Group_61" data-name="Group 61" transform="translate(142.991 71.039)">
        <g id="Group_58" data-name="Group 58" transform="translate(0.009 27.869)">
          <rect id="Rectangle_306" data-name="Rectangle 306" width="74" height="13" rx="4" transform="translate(41 0.092)" fill="#6f7a87"/>
          <rect id="Rectangle_310" data-name="Rectangle 310" width="72" height="13" rx="4" transform="translate(305 0.092)" fill="#a4c5f2"/>
          <rect id="Rectangle_307" data-name="Rectangle 307" width="90" height="8" rx="4" transform="translate(41 23.092)" fill="#6f7a87"/>
          <rect id="Rectangle_311" data-name="Rectangle 311" width="89" height="8" rx="4" transform="translate(305 23.092)" fill="#a5c6f3"/>
          <rect id="Rectangle_308" data-name="Rectangle 308" width="90" height="8" rx="4" transform="translate(41 39.092)" fill="#6f7a87"/>
          <rect id="Rectangle_312" data-name="Rectangle 312" width="62" height="8" rx="4" transform="translate(305 39.092)" fill="#a5c6f3"/>
          <rect id="Rectangle_313" data-name="Rectangle 313" width="77" height="7" rx="3.5" transform="translate(305 52.092)" fill="#a5c6f3"/>
          <rect id="Rectangle_309" data-name="Rectangle 309" width="65" height="7" rx="3.5" transform="translate(41 52.092)" fill="#6f7a87"/>
          <rect id="Rectangle_314" data-name="Rectangle 314" width="416" height="57" transform="translate(0 100.092)" fill="#e9f1fc"/>
          <path id="Path_47" data-name="Path 47" d="M7.7,0H226.356l-37.7,57.349H-30Z" transform="translate(109.38 99.984)" fill="#2272e2"/>
          <g id="Group_54" data-name="Group 54" transform="translate(40.865 184.391)">
            <g transform="matrix(1, 0, 0, 1, -183.86, -335.3)" filter="url(#Rectangle_322)">
              <path id="Rectangle_322-11" data-name="Rectangle 322" d="M2,0H341a4,4,0,0,1,4,4V41a4,4,0,0,1-4,4H2a2,2,0,0,1-2-2V2A2,2,0,0,1,2,0Z" transform="translate(184 335)" fill="#fff"/>
            </g>
            <rect id="Rectangle_321" data-name="Rectangle 321" width="6" height="45" rx="2" transform="translate(0.136 -0.299)" fill="#2272e2"/>
            <rect id="Rectangle_317" data-name="Rectangle 317" width="132" height="8" rx="4" transform="translate(23.136 12.701)" fill="#6f7a87"/>
            <rect id="Rectangle_318" data-name="Rectangle 318" width="106" height="8" rx="4" transform="translate(23.136 24.701)" fill="#afb5bd"/>
          </g>
          <g id="Group_56" data-name="Group 56" transform="translate(40.865 244.193)">
            <g transform="matrix(1, 0, 0, 1, -183.86, -395.1)" filter="url(#Rectangle_322-2)">
              <path id="Rectangle_322-12" data-name="Rectangle 322" d="M2,0H341a4,4,0,0,1,4,4V43a4,4,0,0,1-4,4H2a2,2,0,0,1-2-2V2A2,2,0,0,1,2,0Z" transform="translate(184 395)" fill="#fff"/>
            </g>
            <rect id="Rectangle_321-2" data-name="Rectangle 321" width="6" height="47" rx="2" transform="translate(0.136 -0.101)" fill="#f2627c"/>
            <rect id="Rectangle_317-2" data-name="Rectangle 317" width="298" height="8" rx="4" transform="translate(23.136 13.899)" fill="#6f7a87"/>
            <rect id="Rectangle_318-2" data-name="Rectangle 318" width="170" height="8" rx="4" transform="translate(23.136 25.899)" fill="#afb5bd"/>
          </g>
          <g id="Group_109" data-name="Group 109" transform="translate(40.865 541.193)">
            <g transform="matrix(1, 0, 0, 1, -183.86, -692.1)" filter="url(#Rectangle_322-3)">
              <path id="Rectangle_322-13" data-name="Rectangle 322" d="M2,0H341a4,4,0,0,1,4,4V43a4,4,0,0,1-4,4H2a2,2,0,0,1-2-2V2A2,2,0,0,1,2,0Z" transform="translate(184 692)" fill="#fff"/>
            </g>
            <rect id="Rectangle_321-3" data-name="Rectangle 321" width="6" height="47" rx="2" transform="translate(0.136 -0.101)" fill="#f2627c"/>
            <rect id="Rectangle_317-3" data-name="Rectangle 317" width="298" height="8" rx="4" transform="translate(23.136 13.899)" fill="#6f7a87"/>
            <rect id="Rectangle_318-3" data-name="Rectangle 318" width="170" height="8" rx="4" transform="translate(23.136 25.899)" fill="#afb5bd"/>
          </g>
          <g id="Group_64" data-name="Group 64" transform="translate(40.865 481.41)">
            <g transform="matrix(1, 0, 0, 1, -183.86, -632.32)" filter="url(#Rectangle_322-4)">
              <path id="Rectangle_322-14" data-name="Rectangle 322" d="M2,0H341a4,4,0,0,1,4,4V40a4,4,0,0,1-4,4H2a2,2,0,0,1-2-2V2A2,2,0,0,1,2,0Z" transform="translate(184 632)" fill="#fff"/>
            </g>
            <rect id="Rectangle_321-4" data-name="Rectangle 321" width="6" height="44" rx="2" transform="translate(0.136 -0.318)" fill="#f2627c"/>
            <rect id="Rectangle_317-4" data-name="Rectangle 317" width="133" height="7" rx="3.5" transform="translate(23.136 11.682)" fill="#6f7a87"/>
            <rect id="Rectangle_318-4" data-name="Rectangle 318" width="39" height="7" rx="3.5" transform="translate(23.136 24.682)" fill="#afb5bd"/>
          </g>
          <g id="Group_107" data-name="Group 107" transform="translate(40.865 604.41)">
            <g transform="matrix(1, 0, 0, 1, -183.86, -755.32)" filter="url(#Rectangle_322-5)">
              <path id="Rectangle_322-15" data-name="Rectangle 322" d="M2,0H341a4,4,0,0,1,4,4V40a4,4,0,0,1-4,4H2a2,2,0,0,1-2-2V2A2,2,0,0,1,2,0Z" transform="translate(184 755)" fill="#fff"/>
            </g>
            <rect id="Rectangle_321-5" data-name="Rectangle 321" width="6" height="44" rx="2" transform="translate(0.136 -0.318)" fill="#f2627c"/>
            <rect id="Rectangle_317-5" data-name="Rectangle 317" width="133" height="7" rx="3.5" transform="translate(23.136 11.682)" fill="#6f7a87"/>
            <rect id="Rectangle_318-5" data-name="Rectangle 318" width="39" height="7" rx="3.5" transform="translate(23.136 24.682)" fill="#afb5bd"/>
          </g>
          <g id="Group_57" data-name="Group 57" transform="translate(40.865 303.996)">
            <g transform="matrix(1, 0, 0, 1, -183.86, -454.9)" filter="url(#Rectangle_322-6)">
              <path id="Rectangle_322-16" data-name="Rectangle 322" d="M2,0H341a4,4,0,0,1,4,4V40a4,4,0,0,1-4,4H2a2,2,0,0,1-2-2V2A2,2,0,0,1,2,0Z" transform="translate(184 455)" fill="#fff"/>
            </g>
            <rect id="Rectangle_321-6" data-name="Rectangle 321" width="6" height="44" rx="2" transform="translate(0.136 0.096)" fill="#2272e2"/>
            <rect id="Rectangle_317-6" data-name="Rectangle 317" width="126" height="8" rx="4" transform="translate(23.136 11.096)" fill="#6f7a87"/>
            <rect id="Rectangle_318-6" data-name="Rectangle 318" width="74" height="8" rx="4" transform="translate(23.136 25.096)" fill="#afb5bd"/>
          </g>
          <g id="Group_62" data-name="Group 62" transform="translate(40.865 362.802)">
            <g transform="matrix(1, 0, 0, 1, -183.86, -513.71)" filter="url(#Rectangle_322-7)">
              <path id="Rectangle_322-17" data-name="Rectangle 322" d="M2,0H341a4,4,0,0,1,4,4V41a4,4,0,0,1-4,4H2a2,2,0,0,1-2-2V2A2,2,0,0,1,2,0Z" transform="translate(184 514)" fill="#fff"/>
            </g>
            <rect id="Rectangle_321-7" data-name="Rectangle 321" width="6" height="45" rx="2" transform="translate(0.136 0.29)" fill="#2272e2"/>
            <rect id="Rectangle_317-7" data-name="Rectangle 317" width="205" height="8" rx="4" transform="translate(23.136 12.29)" fill="#6f7a87"/>
            <rect id="Rectangle_318-7" data-name="Rectangle 318" width="233" height="8" rx="4" transform="translate(23.136 26.29)" fill="#afb5bd"/>
          </g>
          <g id="Group_108" data-name="Group 108" transform="translate(40.865 663.802)">
            <g transform="matrix(1, 0, 0, 1, -183.86, -814.71)" filter="url(#Rectangle_322-8)">
              <path id="Rectangle_322-18" data-name="Rectangle 322" d="M2,0H341a4,4,0,0,1,4,4V41a4,4,0,0,1-4,4H2a2,2,0,0,1-2-2V2A2,2,0,0,1,2,0Z" transform="translate(184 815)" fill="#fff"/>
            </g>
            <rect id="Rectangle_321-8" data-name="Rectangle 321" width="6" height="45" rx="2" transform="translate(0.136 0.29)" fill="#2272e2"/>
            <rect id="Rectangle_317-8" data-name="Rectangle 317" width="205" height="8" rx="4" transform="translate(23.136 12.29)" fill="#6f7a87"/>
            <rect id="Rectangle_318-8" data-name="Rectangle 318" width="233" height="8" rx="4" transform="translate(23.136 26.29)" fill="#afb5bd"/>
          </g>
          <g id="Group_63" data-name="Group 63" transform="translate(40.865 423.601)">
            <g transform="matrix(1, 0, 0, 1, -183.86, -574.51)" filter="url(#Rectangle_322-9)">
              <path id="Rectangle_322-19" data-name="Rectangle 322" d="M2,0H341a4,4,0,0,1,4,4V37a4,4,0,0,1-4,4H2a2,2,0,0,1-2-2V2A2,2,0,0,1,2,0Z" transform="translate(184 575)" fill="#fff"/>
            </g>
            <rect id="Rectangle_321-9" data-name="Rectangle 321" width="6" height="41" rx="2" transform="translate(0.136 0.492)" fill="#2272e2"/>
            <rect id="Rectangle_317-9" data-name="Rectangle 317" width="55" height="7" rx="3.5" transform="translate(23.136 9.492)" fill="#6f7a87"/>
            <rect id="Rectangle_318-9" data-name="Rectangle 318" width="106" height="6" rx="3" transform="translate(23.136 23.492)" fill="#afb5bd"/>
          </g>
          <g id="Group_110" data-name="Group 110" transform="translate(40.865 724.601)">
            <g transform="matrix(1, 0, 0, 1, -183.86, -875.51)" filter="url(#Rectangle_322-10)">
              <path id="Rectangle_322-20" data-name="Rectangle 322" d="M2,0H341a4,4,0,0,1,4,4V37a4,4,0,0,1-4,4H2a2,2,0,0,1-2-2V2A2,2,0,0,1,2,0Z" transform="translate(184 876)" fill="#fff"/>
            </g>
            <rect id="Rectangle_321-10" data-name="Rectangle 321" width="6" height="41" rx="2" transform="translate(0.136 0.492)" fill="#2272e2"/>
            <rect id="Rectangle_317-10" data-name="Rectangle 317" width="55" height="7" rx="3.5" transform="translate(23.136 9.492)" fill="#6f7a87"/>
            <rect id="Rectangle_318-10" data-name="Rectangle 318" width="106" height="6" rx="3" transform="translate(23.136 23.492)" fill="#afb5bd"/>
          </g>
          <path id="Path_100" data-name="Path 100" d="M5.173-11.564a10,10,0,0,1-2.518-.763A7.5,7.5,0,0,1,.629-13.641l1.1-1.595a1.114,1.114,0,0,1,.373-.327,1,1,0,0,1,.5-.132,1.252,1.252,0,0,1,.562.143q.287.143.625.35t.74.419a4.371,4.371,0,0,0,.918.35l.425-4.337Q5.046-19,4.232-19.309a5.347,5.347,0,0,1-1.469-.838A3.987,3.987,0,0,1,1.7-21.489a4.549,4.549,0,0,1-.407-2.042A4.461,4.461,0,0,1,1.662-25.3a4.764,4.764,0,0,1,1.073-1.549,5.624,5.624,0,0,1,1.738-1.13,6.88,6.88,0,0,1,2.364-.511l.126-1.274a.963.963,0,0,1,.287-.579A.874.874,0,0,1,7.9-30.6H9.211l-.229,2.26a6.772,6.772,0,0,1,2.134.74,7.886,7.886,0,0,1,1.515,1.1l-.872,1.274a1.5,1.5,0,0,1-.4.419.847.847,0,0,1-.476.132,1.266,1.266,0,0,1-.413-.08q-.229-.08-.5-.2l-.591-.258a5.536,5.536,0,0,0-.671-.241l-.4,4.073q.551.161,1.1.35a9.643,9.643,0,0,1,1.061.436,6.2,6.2,0,0,1,.952.568,3.608,3.608,0,0,1,.769.757,3.4,3.4,0,0,1,.511,1,4.191,4.191,0,0,1,.184,1.291,5.674,5.674,0,0,1-.367,2.048,4.956,4.956,0,0,1-1.079,1.692,5.587,5.587,0,0,1-1.744,1.2,7.056,7.056,0,0,1-2.364.568l-.138,1.434a.963.963,0,0,1-.287.579.874.874,0,0,1-.654.258H4.943ZM9.51-16.452A1.359,1.359,0,0,0,9.091-17.5a3.38,3.38,0,0,0-1.107-.654l-.367,3.786A1.977,1.977,0,0,0,9.51-16.452ZM4.645-23.876a1.46,1.46,0,0,0,.43,1.1,3.5,3.5,0,0,0,1.13.706l.344-3.465a3.682,3.682,0,0,0-.889.235,1.9,1.9,0,0,0-.585.373,1.353,1.353,0,0,0-.327.488A1.574,1.574,0,0,0,4.645-23.876Zm16.8,1.664a5.561,5.561,0,0,1,1.79.3A4.572,4.572,0,0,1,24.815-21a4.6,4.6,0,0,1,1.13,1.566,5.353,5.353,0,0,1,.43,2.232,5.731,5.731,0,0,1-.436,2.22,5.525,5.525,0,0,1-1.233,1.836A5.851,5.851,0,0,1,22.784-11.9a6.53,6.53,0,0,1-2.49.459,6.764,6.764,0,0,1-2.513-.442,5.374,5.374,0,0,1-1.887-1.233,5.3,5.3,0,0,1-1.182-1.893,6.931,6.931,0,0,1-.407-2.421,6.823,6.823,0,0,1,.482-2.49,11.151,11.151,0,0,1,1.423-2.524l3.763-5.083a1.915,1.915,0,0,1,.757-.579,2.686,2.686,0,0,1,1.147-.235h3.167l-4.957,5.92q-.115.126-.224.258l-.212.258a4.971,4.971,0,0,1,.843-.229A5.292,5.292,0,0,1,21.442-22.212Zm-3.717,5.266a3.842,3.842,0,0,0,.149,1.113,2.277,2.277,0,0,0,.459.849,2.011,2.011,0,0,0,.78.545,2.973,2.973,0,0,0,1.113.189,2.553,2.553,0,0,0,1.027-.207,2.484,2.484,0,0,0,.82-.568,2.718,2.718,0,0,0,.545-.849,2.76,2.76,0,0,0,.2-1.061,3.252,3.252,0,0,0-.189-1.147,2.346,2.346,0,0,0-.534-.849,2.31,2.31,0,0,0-.832-.528,3.057,3.057,0,0,0-1.084-.184,2.507,2.507,0,0,0-.987.189,2.209,2.209,0,0,0-.774.545,2.555,2.555,0,0,0-.511.849A3.174,3.174,0,0,0,17.725-16.945Zm9.913,3.3a1.688,1.688,0,0,1,.138-.683,1.608,1.608,0,0,1,.4-.551,1.956,1.956,0,0,1,.608-.373,2.131,2.131,0,0,1,.786-.138,2.087,2.087,0,0,1,.895.178,1.8,1.8,0,0,1,.631.482,1.99,1.99,0,0,1,.373.7,2.841,2.841,0,0,1,.12.832,4.492,4.492,0,0,1-.184,1.222,6.173,6.173,0,0,1-.545,1.3,7.768,7.768,0,0,1-.9,1.285,7.4,7.4,0,0,1-1.239,1.147l-.62-.551a1.184,1.184,0,0,1-.189-.235.531.531,0,0,1-.063-.27.48.48,0,0,1,.08-.247,1.048,1.048,0,0,1,.2-.235q.138-.138.321-.333a5.494,5.494,0,0,0,.367-.436,4.022,4.022,0,0,0,.338-.528,2.6,2.6,0,0,0,.235-.608,1.979,1.979,0,0,1-.723-.2,1.705,1.705,0,0,1-.545-.425,2.007,2.007,0,0,1-.35-.6A2.1,2.1,0,0,1,27.638-13.641ZM43.724-26.87a1.841,1.841,0,0,1-.115.665,1.354,1.354,0,0,1-.361.522,1.659,1.659,0,0,1-.648.344,3.381,3.381,0,0,1-.964.12H37.643l-.47,2.765q.47-.08.906-.12t.849-.04a6.27,6.27,0,0,1,2.329.4,4.911,4.911,0,0,1,1.7,1.1,4.55,4.55,0,0,1,1.038,1.629,5.666,5.666,0,0,1,.35,2,6.137,6.137,0,0,1-.476,2.45,5.694,5.694,0,0,1-1.325,1.91,5.954,5.954,0,0,1-2.025,1.245,7.27,7.27,0,0,1-2.576.442,6.844,6.844,0,0,1-1.555-.172A7.49,7.49,0,0,1,35-12.075a7.427,7.427,0,0,1-1.2-.677,7.926,7.926,0,0,1-1-.82l1.1-1.469a1.2,1.2,0,0,1,.4-.35,1.046,1.046,0,0,1,.493-.12,1.206,1.206,0,0,1,.648.189l.665.413a4.951,4.951,0,0,0,.843.407,3.373,3.373,0,0,0,1.193.184,2.863,2.863,0,0,0,1.216-.235,2.183,2.183,0,0,0,.82-.643,2.626,2.626,0,0,0,.459-.952,4.561,4.561,0,0,0,.143-1.165,2.4,2.4,0,0,0-.688-1.853,2.767,2.767,0,0,0-1.95-.637,5.967,5.967,0,0,0-2.2.425l-2.2-.6,1.423-8.364h8.559Zm14.709,6.884a13.6,13.6,0,0,1-.47,3.8,7.8,7.8,0,0,1-1.3,2.662,5.252,5.252,0,0,1-1.973,1.572,5.929,5.929,0,0,1-2.473.516,5.852,5.852,0,0,1-2.461-.516A5.23,5.23,0,0,1,47.8-13.526a7.784,7.784,0,0,1-1.291-2.662,13.753,13.753,0,0,1-.465-3.8,13.753,13.753,0,0,1,.465-3.8A7.784,7.784,0,0,1,47.8-26.446a5.176,5.176,0,0,1,1.956-1.566,5.908,5.908,0,0,1,2.461-.511,5.986,5.986,0,0,1,2.473.511,5.2,5.2,0,0,1,1.973,1.566,7.794,7.794,0,0,1,1.3,2.662A13.6,13.6,0,0,1,58.433-19.986Zm-3.672,0a15.152,15.152,0,0,0-.218-2.84,5.821,5.821,0,0,0-.579-1.738,2.1,2.1,0,0,0-.82-.866,2.018,2.018,0,0,0-.929-.235,1.984,1.984,0,0,0-.924.235,2.05,2.05,0,0,0-.8.866,5.972,5.972,0,0,0-.562,1.738,15.552,15.552,0,0,0-.212,2.84,15.534,15.534,0,0,0,.212,2.845,6.052,6.052,0,0,0,.562,1.738,2.045,2.045,0,0,0,.8.872,1.984,1.984,0,0,0,.924.235,2.018,2.018,0,0,0,.929-.235,2.1,2.1,0,0,0,.82-.872,5.9,5.9,0,0,0,.579-1.738A15.134,15.134,0,0,0,54.761-19.986Zm16.981,0a13.6,13.6,0,0,1-.47,3.8,7.8,7.8,0,0,1-1.3,2.662A5.252,5.252,0,0,1,68-11.955a5.929,5.929,0,0,1-2.473.516,5.852,5.852,0,0,1-2.461-.516,5.229,5.229,0,0,1-1.956-1.572,7.784,7.784,0,0,1-1.291-2.662,13.753,13.753,0,0,1-.465-3.8,13.753,13.753,0,0,1,.465-3.8,7.784,7.784,0,0,1,1.291-2.662,5.176,5.176,0,0,1,1.956-1.566,5.907,5.907,0,0,1,2.461-.511A5.986,5.986,0,0,1,68-28.012a5.2,5.2,0,0,1,1.973,1.566,7.8,7.8,0,0,1,1.3,2.662A13.6,13.6,0,0,1,71.742-19.986Zm-3.672,0a15.152,15.152,0,0,0-.218-2.84,5.821,5.821,0,0,0-.579-1.738,2.1,2.1,0,0,0-.82-.866,2.019,2.019,0,0,0-.929-.235,1.984,1.984,0,0,0-.924.235,2.05,2.05,0,0,0-.8.866,5.973,5.973,0,0,0-.562,1.738,15.552,15.552,0,0,0-.212,2.84,15.534,15.534,0,0,0,.212,2.845A6.053,6.053,0,0,0,63.8-15.4a2.045,2.045,0,0,0,.8.872,1.984,1.984,0,0,0,.924.235,2.019,2.019,0,0,0,.929-.235,2.1,2.1,0,0,0,.82-.872,5.9,5.9,0,0,0,.579-1.738A15.134,15.134,0,0,0,68.07-19.986Zm4.911,6.345a1.688,1.688,0,0,1,.138-.683,1.608,1.608,0,0,1,.4-.551,1.956,1.956,0,0,1,.608-.373,2.131,2.131,0,0,1,.786-.138,2.087,2.087,0,0,1,.895.178,1.8,1.8,0,0,1,.631.482,1.99,1.99,0,0,1,.373.7,2.841,2.841,0,0,1,.12.832,4.492,4.492,0,0,1-.184,1.222,6.173,6.173,0,0,1-.545,1.3,7.767,7.767,0,0,1-.9,1.285A7.4,7.4,0,0,1,74.06-8.237l-.62-.551a1.184,1.184,0,0,1-.189-.235.531.531,0,0,1-.063-.27.48.48,0,0,1,.08-.247,1.048,1.048,0,0,1,.2-.235q.138-.138.321-.333a5.493,5.493,0,0,0,.367-.436,4.024,4.024,0,0,0,.338-.528,2.6,2.6,0,0,0,.235-.608,1.979,1.979,0,0,1-.723-.2,1.705,1.705,0,0,1-.545-.425,2.007,2.007,0,0,1-.35-.6A2.1,2.1,0,0,1,72.981-13.641Zm15.833-4.475h1.721v2a.659.659,0,0,1-.178.459.656.656,0,0,1-.511.2H88.815v3.844h-3.1v-3.844H78.993a.966.966,0,0,1-.6-.207.876.876,0,0,1-.338-.516l-.367-1.755,7.733-10.4h3.4Zm-3.1-4.36q0-.4.029-.866t.086-.958l-4.417,6.184h4.3Zm12.116-6.047a6.488,6.488,0,0,1,2.232.361,5,5,0,0,1,1.692,1,4.322,4.322,0,0,1,1.073,1.532,5.009,5.009,0,0,1,.373,1.956,5.377,5.377,0,0,1-.258,1.7,6.689,6.689,0,0,1-.706,1.486A10.381,10.381,0,0,1,101.2-19.12q-.591.66-1.256,1.337l-3.27,3.35a11.916,11.916,0,0,1,1.245-.293,6.612,6.612,0,0,1,1.153-.109h3.121a1.263,1.263,0,0,1,.906.316,1.093,1.093,0,0,1,.333.832v2.065H91.683v-1.147a2.086,2.086,0,0,1,.138-.711,1.716,1.716,0,0,1,.482-.688l4.819-4.853A15.977,15.977,0,0,0,98.2-20.2a7.327,7.327,0,0,0,.757-1.107A5.045,5.045,0,0,0,99.4-22.4a4.351,4.351,0,0,0,.149-1.153,2.227,2.227,0,0,0-.476-1.532,1.847,1.847,0,0,0-1.451-.534,2.24,2.24,0,0,0-.734.115,2.206,2.206,0,0,0-.6.31,2.063,2.063,0,0,0-.453.459,2.423,2.423,0,0,0-.3.574,1.657,1.657,0,0,1-.465.746,1.171,1.171,0,0,1-.763.229q-.115,0-.247-.011t-.27-.034l-1.882-.333a6.277,6.277,0,0,1,.706-2.18,5.246,5.246,0,0,1,1.3-1.549,5.26,5.26,0,0,1,1.773-.924A7.328,7.328,0,0,1,97.833-28.522Zm13.631,0a6.432,6.432,0,0,1,2.2.35,4.928,4.928,0,0,1,1.629.947,4,4,0,0,1,1.01,1.383,4.088,4.088,0,0,1,.344,1.658,5.435,5.435,0,0,1-.161,1.394,3.194,3.194,0,0,1-.476,1.044,2.98,2.98,0,0,1-.78.752,4.64,4.64,0,0,1-1.061.516,3.712,3.712,0,0,1,2.777,3.775,5.226,5.226,0,0,1-.482,2.318,4.766,4.766,0,0,1-1.291,1.641,5.523,5.523,0,0,1-1.876.981,7.554,7.554,0,0,1-2.226.327,7.947,7.947,0,0,1-2.123-.258,4.887,4.887,0,0,1-1.652-.8,5.32,5.32,0,0,1-1.268-1.394,9.35,9.35,0,0,1-.947-2.019l1.583-.643a1.718,1.718,0,0,1,.407-.126,2.34,2.34,0,0,1,.4-.034,1.479,1.479,0,0,1,.66.143.977.977,0,0,1,.442.419,4.166,4.166,0,0,0,1.1,1.383,2.218,2.218,0,0,0,1.36.43,2.49,2.49,0,0,0,1.038-.2,2.263,2.263,0,0,0,.734-.516,2.142,2.142,0,0,0,.442-.717,2.324,2.324,0,0,0,.149-.815,5.71,5.71,0,0,0-.075-.97,1.266,1.266,0,0,0-.419-.74,2.367,2.367,0,0,0-1.038-.476,8.724,8.724,0,0,0-1.933-.166V-21.4a7.182,7.182,0,0,0,1.687-.161A2.579,2.579,0,0,0,112.6-22a1.333,1.333,0,0,0,.465-.683,3.208,3.208,0,0,0,.115-.883,2.208,2.208,0,0,0-.476-1.52,1.847,1.847,0,0,0-1.451-.534,2.241,2.241,0,0,0-.734.115,2.206,2.206,0,0,0-.6.31,2.064,2.064,0,0,0-.453.459,2.423,2.423,0,0,0-.3.574,1.657,1.657,0,0,1-.465.746,1.171,1.171,0,0,1-.763.229q-.115,0-.247-.011t-.27-.034l-1.882-.333a6.277,6.277,0,0,1,.706-2.18,5.246,5.246,0,0,1,1.3-1.549,5.26,5.26,0,0,1,1.773-.924A7.328,7.328,0,0,1,111.463-28.522Z" transform="translate(146.72 149.265)" fill="#fff"/>
        </g>
      </g>
      <rect id="Rectangle_476" data-name="Rectangle 476" width="132" height="8" rx="4" transform="translate(207 296)" fill="#6f7a87"/>
    </g>
  </g>
</svg>
