<svg xmlns="http://www.w3.org/2000/svg" xmlns:xlink="http://www.w3.org/1999/xlink" width="701.26" height="1051.88" viewBox="0 0 701.26 1051.88">
  <defs>
    <filter id="Rectangle_466" x="152.5" y="600.5" width="397" height="222" filterUnits="userSpaceOnUse">
      <feOffset dy="2" input="SourceAlpha"/>
      <feGaussianBlur stdDeviation="5.5" result="blur"/>
      <feFlood flood-opacity="0.082"/>
      <feComposite operator="in" in2="blur"/>
      <feComposite in="SourceGraphic"/>
    </filter>
    <filter id="Rectangle_474" x="152.5" y="805.5" width="397" height="168" filterUnits="userSpaceOnUse">
      <feOffset dy="2" input="SourceAlpha"/>
      <feGaussianBlur stdDeviation="5.5" result="blur-2"/>
      <feFlood flood-opacity="0.082"/>
      <feComposite operator="in" in2="blur-2"/>
      <feComposite in="SourceGraphic"/>
    </filter>
    <linearGradient id="linear-gradient" x1="0.5" x2="0.5" y2="1" gradientUnits="objectBoundingBox">
      <stop offset="0" stop-color="#a2a8b7"/>
      <stop offset="1" stop-color="#878d98"/>
    </linearGradient>
    <linearGradient id="linear-gradient-4" x1="0.5" x2="0.5" y2="1" gradientUnits="objectBoundingBox">
      <stop offset="0" stop-color="#00bfff"/>
      <stop offset="1" stop-color="#007afb"/>
    </linearGradient>
    <filter id="Rectangle_462" x="276" y="424" width="151" height="151" filterUnits="userSpaceOnUse">
      <feOffset input="SourceAlpha"/>
      <feGaussianBlur stdDeviation="8" result="blur-3"/>
      <feFlood flood-opacity="0.133"/>
      <feComposite operator="in" in2="blur-3"/>
      <feComposite in="SourceGraphic"/>
    </filter>
    <filter id="Rectangle_475" x="408" y="424" width="151" height="151" filterUnits="userSpaceOnUse">
      <feOffset input="SourceAlpha"/>
      <feGaussianBlur stdDeviation="8" result="blur-4"/>
      <feFlood flood-opacity="0.133"/>
      <feComposite operator="in" in2="blur-4"/>
      <feComposite in="SourceGraphic"/>
    </filter>
    <linearGradient id="linear-gradient-5" x1="0.5" x2="0.5" y2="1" gradientUnits="objectBoundingBox">
      <stop offset="0" stop-color="#00f85d"/>
      <stop offset="1" stop-color="#00c500"/>
    </linearGradient>
    <filter id="Rectangle_463" x="143" y="424" width="151" height="151" filterUnits="userSpaceOnUse">
      <feOffset input="SourceAlpha"/>
      <feGaussianBlur stdDeviation="8" result="blur-5"/>
      <feFlood flood-opacity="0.133"/>
      <feComposite operator="in" in2="blur-5"/>
      <feComposite in="SourceGraphic"/>
    </filter>
    <clipPath id="clip-Image_12_-_2">
      <rect width="701.26" height="1051.88"/>
    </clipPath>
  </defs>
  <g id="Image_12_-_2" data-name="Image 12 - 2" clip-path="url(#clip-Image_12_-_2)">
    <rect width="701.26" height="1051.88" fill="rgba(255,255,255,0)"/>
    <g id="Group_105" data-name="Group 105" transform="translate(114.488 40)">
      <g id="Path_138" data-name="Path 138" fill="#eff0f2">
        <path d="M64,0H409a64,64,0,0,1,64,64V909a64,64,0,0,1-64,64H64A64,64,0,0,1,0,909V64A64,64,0,0,1,64,0Z" stroke="none"/>
        <path d="M 64 1 C 55.49462890625 1 47.24411010742188 2.6656494140625 39.47787475585938 5.95050048828125 C 35.7449951171875 7.52923583984375 32.14474487304688 9.4835205078125 28.77676391601562 11.75872802734375 C 25.44061279296875 14.01263427734375 22.30337524414062 16.60113525390625 19.45223999023438 19.4522705078125 C 16.60113525390625 22.3033447265625 14.01263427734375 25.44061279296875 11.75875854492188 28.7767333984375 C 9.483489990234375 32.144775390625 7.52923583984375 35.7449951171875 5.95050048828125 39.4779052734375 C 2.665618896484375 47.244140625 1 55.49462890625 1 64 L 1 909 C 1 917.50537109375 2.665618896484375 925.755859375 5.95050048828125 933.5220947265625 C 7.52923583984375 937.2550048828125 9.483489990234375 940.855224609375 11.75875854492188 944.2232666015625 C 14.01263427734375 947.5593872070312 16.60113525390625 950.6966552734375 19.45223999023438 953.5477294921875 C 22.30337524414062 956.3988647460938 25.44061279296875 958.9873657226562 28.77676391601562 961.2412719726562 C 32.14474487304688 963.5164794921875 35.7449951171875 965.4707641601562 39.47787475585938 967.0494995117188 C 47.24411010742188 970.3343505859375 55.49462890625 972 64 972 L 409 972 C 417.50537109375 972 425.755859375 970.3343505859375 433.5221252441406 967.0494995117188 C 437.2550048828125 965.4707641601562 440.8552551269531 963.5164794921875 444.2232360839844 961.2412719726562 C 447.5593872070312 958.9873657226562 450.6966247558594 956.3988647460938 453.5477600097656 953.5477294921875 C 456.3988647460938 950.6966552734375 458.9873657226562 947.5593872070312 461.2412414550781 944.2232666015625 C 463.5165100097656 940.855224609375 465.4707641601562 937.2550048828125 467.0494995117188 933.5220947265625 C 470.3343811035156 925.755859375 472 917.50537109375 472 909 L 472 64 C 472 55.49462890625 470.3343811035156 47.244140625 467.0494995117188 39.4779052734375 C 465.4707641601562 35.7449951171875 463.5165100097656 32.144775390625 461.2412414550781 28.7767333984375 C 458.9873657226562 25.44061279296875 456.3988647460938 22.3033447265625 453.5477600097656 19.4522705078125 C 450.6966247558594 16.60113525390625 447.5593872070312 14.01263427734375 444.2232360839844 11.75872802734375 C 440.8552551269531 9.4835205078125 437.2550048828125 7.52923583984375 433.5221252441406 5.95050048828125 C 425.755859375 2.6656494140625 417.50537109375 1 409 1 L 64 1 M 64 0 L 409 0 C 444.3462524414062 0 473 28.65374755859375 473 64 L 473 909 C 473 944.3462524414062 444.3462524414062 973 409 973 L 64 973 C 28.65374755859375 973 0 944.3462524414062 0 909 L 0 64 C 0 28.65374755859375 28.65374755859375 0 64 0 Z" stroke="none" fill="rgba(207,211,215,0.7)"/>
      </g>
      <g id="Group_91" data-name="Group 91" transform="translate(20 20.879)">
        <g id="Subtraction_2" data-name="Subtraction 2" transform="translate(0 0)" fill="#fff">
          <path d="M380.4,926.241H52a51.956,51.956,0,0,1-52-52V52A51.956,51.956,0,0,1,52,0H83.072V13.685a28.976,28.976,0,0,0,29,29H320.327a28.912,28.912,0,0,0,20.507-8.494,28.91,28.91,0,0,0,8.494-20.506V0H380.4a51.957,51.957,0,0,1,52,52V874.242a51.957,51.957,0,0,1-52,52Z" stroke="none"/>
          <path d="M 380.3994445800781 925.2415161132812 C 387.2845153808594 925.2415161132812 393.9634399414062 923.8931884765625 400.250732421875 921.2340087890625 C 406.3235778808594 918.6654052734375 411.7778015136719 914.9879760742188 416.4620361328125 910.3040161132812 C 421.1461486816406 905.619873046875 424.8235778808594 900.1656494140625 427.3921508789062 894.0928344726562 C 430.0513305664062 887.8056640625 431.3996887207031 881.126953125 431.3996887207031 874.2420043945312 L 431.3996887207031 52.00022506713867 C 431.3996887207031 45.11516571044922 430.0513305664062 38.43622589111328 427.3921508789062 32.14893341064453 C 424.8234558105469 26.07587432861328 421.1460266113281 20.62163734436035 416.4620361328125 15.93752098083496 C 411.7778015136719 11.25340270996094 406.3235778808594 7.575991153717041 400.250732421875 5.00752067565918 C 393.9640197753906 2.348344087600708 387.2850952148438 1.00010883808136 380.3994445800781 1.00010883808136 L 350.3279113769531 0.9999949336051941 L 350.3279113769531 13.68457984924316 C 350.3279113769531 17.7339916229248 349.5345153808594 21.66281509399414 347.9696960449219 25.36187362670898 C 346.458740234375 28.93422698974609 344.2956848144531 32.1423454284668 341.5407409667969 34.89752197265625 C 338.7857971191406 37.65234375 335.5775756835938 39.81528472900391 332.0049743652344 41.32622528076172 C 328.3056945800781 42.89104843139648 324.3766174316406 43.68446350097656 320.3270874023438 43.68446350097656 L 112.0715637207031 43.68446350097656 C 108.0220336914062 43.68446350097656 104.0930938720703 42.89104843139648 100.393913269043 41.32634353637695 C 96.82144927978516 39.81528472900391 93.61332702636719 37.65234375 90.85850524902344 34.89740371704102 C 88.10368347167969 32.14269638061523 85.94074249267578 28.93446159362793 84.42967987060547 25.36187362670898 C 82.86521148681641 21.66304969787598 82.07191467285156 17.73422622680664 82.07180023193359 13.68457984924316 L 82.07180023193359 1.00010883808136 L 51.99932861328125 1.00010883808136 C 45.11368179321289 1.00010883808136 38.43473815917969 2.348344087600708 32.14815139770508 5.00752067565918 C 26.07521057128906 7.576108932495117 20.62109184265137 11.25352096557617 15.93709278106689 15.93752098083496 C 11.25321006774902 20.62163734436035 7.575916290283203 26.07587432861328 5.007328033447266 32.14893341064453 C 2.348151445388794 38.43610763549805 0.9999162554740906 45.11505126953125 1.000151515007019 52.00022506713867 L 1.000151515007019 874.2420043945312 C 1.000151515007019 881.1276245117188 2.348386764526367 887.8063354492188 5.007328033447266 894.0928344726562 C 7.575916290283203 900.1658935546875 11.25321006774902 905.6201171875 15.93709278106689 910.3040161132812 C 20.62109184265137 914.9878540039062 26.07521057128906 918.665283203125 32.14815139770508 921.2340087890625 C 38.43544387817383 923.8931884765625 45.1142692565918 925.2415161132812 51.99932861328125 925.2415161132812 L 380.3994445800781 925.2415161132812 M 380.3994445800781 926.2415161132812 L 51.99932861328125 926.2415161132812 C 44.97956466674805 926.2415161132812 38.16968154907227 924.8665771484375 31.75862121582031 922.155029296875 C 25.56650352478027 919.535888671875 20.00544548034668 915.7864379882812 15.23003387451172 911.0110473632812 C 10.45462226867676 906.2356567382812 6.705327987670898 900.674560546875 4.086269378662109 894.4823608398438 C 1.374857425689697 888.0718994140625 0.0001515251642558724 881.261962890625 0.0001515251642558724 874.2420043945312 L 0.0001515251642558724 52.00022506713867 C -8.376895857509226e-05 44.98034286499023 1.374739766120911 38.17034530639648 4.086269378662109 31.75940322875977 C 6.705327987670898 25.56704902648926 10.45462226867676 20.00599098205566 15.23003387451172 15.23046207427979 C 20.00544548034668 10.45493221282959 25.56650352478027 6.705520629882812 31.75862121582031 4.086461544036865 C 38.16920852661133 1.374932289123535 44.97920989990234 0.0001087861892301589 51.99932861328125 0.0001087861892301589 L 83.07180023193359 0.0001087861892301589 L 83.07180023193359 13.68457984924316 C 83.07191467285156 17.59951972961426 83.838623046875 21.39728546142578 85.35073852539062 24.97234344482422 C 86.81132507324219 28.42563819885254 88.90226745605469 31.52705001831055 91.56556701660156 34.19034576416016 C 94.22885894775391 36.8536376953125 97.33026885986328 38.94469833374023 100.783447265625 40.4052848815918 C 104.3587417602539 41.91763687133789 108.156623840332 42.68446350097656 112.0715637207031 42.68446350097656 L 320.3270874023438 42.68446350097656 C 324.2420349121094 42.68446350097656 328.0400390625 41.91763687133789 331.6154479980469 40.4052848815918 C 335.0687255859375 38.94469833374023 338.1702575683594 36.8536376953125 340.8336791992188 34.19034576416016 C 343.4972229003906 31.52669715881348 345.5881652832031 28.4254035949707 347.0487365722656 24.97234344482422 C 348.5610961914062 21.39716720581055 349.3279113769531 17.59940338134766 349.3279113769531 13.68457984924316 L 349.3279113769531 -8.86086854734458e-06 L 380.3994445800781 0.0001087861892301589 C 387.4195556640625 0.0001087861892301589 394.2295532226562 1.374932289123535 400.6402587890625 4.086461544036865 C 406.8323974609375 6.705402851104736 412.3934326171875 10.45481491088867 417.1690979003906 15.23046207427979 C 421.9446105957031 20.00599098205566 425.6940307617188 25.56704902648926 428.3132019042969 31.75940322875977 C 431.0247497558594 38.17046356201172 432.3996887207031 44.98046112060547 432.3996887207031 52.00022506713867 L 432.3996887207031 874.2420043945312 C 432.3996887207031 881.2616577148438 431.0247497558594 888.0714111328125 428.3132019042969 894.4823608398438 C 425.6941528320312 900.67431640625 421.9447326660156 906.2354125976562 417.1690979003906 911.0110473632812 C 412.3934326171875 915.7865600585938 406.8323974609375 919.5360107421875 400.6402587890625 922.155029296875 C 394.2292175292969 924.8665771484375 387.4192199707031 926.2415161132812 380.3994445800781 926.2415161132812 Z" stroke="none" fill="rgba(207,211,215,0.47)"/>
        </g>
        <g id="check_box-24px" transform="translate(343.053 242.299)">
          <path id="Path_24" data-name="Path 24" d="M0,0H30.07V30.07H0Z" fill="none"/>
          <path id="Path_25" data-name="Path 25" d="M21.71,3H5.339A2.338,2.338,0,0,0,3,5.339V21.71a2.338,2.338,0,0,0,2.339,2.339H21.71a2.338,2.338,0,0,0,2.339-2.339V5.339A2.338,2.338,0,0,0,21.71,3ZM11.186,19.371,5.339,13.524l1.649-1.649,4.2,4.186,8.876-8.876L21.71,8.847Z" transform="translate(1.51 1.51)" fill="#fff"/>
        </g>
        <text id="Recipts" transform="translate(50.511 96.121)" fill="#fff" font-size="14" font-family="Lato-Black, Lato" font-weight="800"><tspan x="0" y="0">Recipts</tspan></text>
      </g>
      <g id="Rectangle_418" data-name="Rectangle 418" transform="translate(171.512 31)" fill="rgba(207,211,216,0.27)" stroke="#cfd3d7" stroke-width="1">
        <rect width="129" height="17" rx="8.5" stroke="none"/>
        <rect x="0.5" y="0.5" width="128" height="16" rx="8" fill="none"/>
      </g>
    </g>
    <path id="Path_160" data-name="Path 160" d="M12.582-15.674a1.714,1.714,0,0,1-.425.486.952.952,0,0,1-.574.162,1.4,1.4,0,0,1-.668-.2q-.358-.2-.81-.439A6.722,6.722,0,0,0,9.072-16.1a4.132,4.132,0,0,0-1.323-.2,2.847,2.847,0,0,0-1.91.547,1.86,1.86,0,0,0-.628,1.478,1.362,1.362,0,0,0,.378.986,3.259,3.259,0,0,0,.992.675,10.636,10.636,0,0,0,1.4.52q.79.236,1.613.526a14.427,14.427,0,0,1,1.613.682,5.38,5.38,0,0,1,1.4,1A4.663,4.663,0,0,1,13.608-8.4a5.256,5.256,0,0,1,.378,2.1,6.84,6.84,0,0,1-.472,2.552,5.974,5.974,0,0,1-1.37,2.072A6.36,6.36,0,0,1,9.929-.29a8.283,8.283,0,0,1-2.99.506A9.585,9.585,0,0,1,5.069.027,11.1,11.1,0,0,1,3.226-.506a10.686,10.686,0,0,1-1.674-.817A7.113,7.113,0,0,1,.189-2.376l1.35-2.133A1.1,1.1,0,0,1,1.957-4.9a1.186,1.186,0,0,1,.58-.148,1.537,1.537,0,0,1,.817.257q.412.257.931.567a7.581,7.581,0,0,0,1.195.567A4.48,4.48,0,0,0,7.074-3.4,3.033,3.033,0,0,0,9-3.949a2.082,2.082,0,0,0,.688-1.735A1.64,1.64,0,0,0,9.315-6.8a2.92,2.92,0,0,0-.992-.715,9.142,9.142,0,0,0-1.4-.5Q6.143-8.235,5.319-8.5a11.753,11.753,0,0,1-1.606-.648,5.07,5.07,0,0,1-1.4-1.012,4.738,4.738,0,0,1-.992-1.566A6.218,6.218,0,0,1,.945-14.04,5.494,5.494,0,0,1,1.39-16.2,5.576,5.576,0,0,1,2.7-18.076a6.439,6.439,0,0,1,2.119-1.316,7.828,7.828,0,0,1,2.875-.493,10.783,10.783,0,0,1,1.762.142,9.261,9.261,0,0,1,1.627.419,8.933,8.933,0,0,1,1.438.661,6.629,6.629,0,0,1,1.195.871ZM16.254,0V-20.209h4.185v7.438a6.8,6.8,0,0,1,1.64-1.046,5.116,5.116,0,0,1,2.113-.4,4.9,4.9,0,0,1,2.032.4,4.216,4.216,0,0,1,1.492,1.107,4.778,4.778,0,0,1,.918,1.688A7,7,0,0,1,28.944-8.9V0H24.759V-8.9a2.448,2.448,0,0,0-.472-1.6,1.7,1.7,0,0,0-1.39-.574,2.912,2.912,0,0,0-1.3.3,5.039,5.039,0,0,0-1.161.8V0ZM41.58,0a1.961,1.961,0,0,1-.9-.162,1.238,1.238,0,0,1-.506-.675l-.3-.77q-.527.446-1.013.783a6.417,6.417,0,0,1-1.006.574A4.967,4.967,0,0,1,36.754.1a6.813,6.813,0,0,1-1.3.115,5.712,5.712,0,0,1-1.742-.25A3.633,3.633,0,0,1,32.38-.77a3.235,3.235,0,0,1-.844-1.208,4.357,4.357,0,0,1-.3-1.667,3.5,3.5,0,0,1,.378-1.525,3.763,3.763,0,0,1,1.31-1.424,8.323,8.323,0,0,1,2.511-1.073,16.848,16.848,0,0,1,3.983-.486v-.594a2.567,2.567,0,0,0-.506-1.775,1.862,1.862,0,0,0-1.438-.547,3.814,3.814,0,0,0-1.215.162,5.462,5.462,0,0,0-.844.365q-.371.2-.722.365a1.984,1.984,0,0,1-.837.162,1.265,1.265,0,0,1-.736-.209,1.554,1.554,0,0,1-.479-.52l-.756-1.309A8.51,8.51,0,0,1,34.7-13.723a9.868,9.868,0,0,1,3.314-.547,6.061,6.061,0,0,1,2.288.412,4.924,4.924,0,0,1,1.728,1.148,5.014,5.014,0,0,1,1.087,1.748A6.283,6.283,0,0,1,43.5-8.748V0ZM36.774-2.551a3.321,3.321,0,0,0,1.417-.283,4.318,4.318,0,0,0,1.229-.918V-5.7a13.894,13.894,0,0,0-2.066.216,5.017,5.017,0,0,0-1.283.405,1.552,1.552,0,0,0-.655.553,1.31,1.31,0,0,0-.182.675,1.173,1.173,0,0,0,.391,1.006A1.91,1.91,0,0,0,36.774-2.551ZM46.467,0V-14h2.484a2.118,2.118,0,0,1,.52.054.912.912,0,0,1,.351.169.72.72,0,0,1,.216.3,2.739,2.739,0,0,1,.128.459L50.4-11.7a6.86,6.86,0,0,1,1.728-1.877,3.511,3.511,0,0,1,2.092-.689,2.411,2.411,0,0,1,1.539.459l-.54,3.078a.6.6,0,0,1-.216.4.733.733,0,0,1-.432.115,2.865,2.865,0,0,1-.54-.061,4.186,4.186,0,0,0-.783-.061,2.874,2.874,0,0,0-2.592,1.755V0ZM63.612-14.215a7.208,7.208,0,0,1,2.545.432,5.532,5.532,0,0,1,1.984,1.256,5.73,5.73,0,0,1,1.3,2.018A7.406,7.406,0,0,1,69.9-7.8a5.908,5.908,0,0,1-.04.769,1.218,1.218,0,0,1-.148.473.565.565,0,0,1-.29.243,1.359,1.359,0,0,1-.466.067H60.885a3.947,3.947,0,0,0,1.066,2.545,3.173,3.173,0,0,0,2.228.79,3.987,3.987,0,0,0,1.256-.175,6.334,6.334,0,0,0,.938-.391q.412-.216.756-.392a1.57,1.57,0,0,1,.722-.176.865.865,0,0,1,.756.365l1.215,1.5a6.221,6.221,0,0,1-1.4,1.208,7.261,7.261,0,0,1-1.539.729,8.342,8.342,0,0,1-1.579.365,11.853,11.853,0,0,1-1.505.1A7.86,7.86,0,0,1,61.04-.263a6.344,6.344,0,0,1-2.255-1.424A6.72,6.72,0,0,1,57.26-4.036,8.777,8.777,0,0,1,56.7-7.3a7.393,7.393,0,0,1,.479-2.659,6.55,6.55,0,0,1,1.377-2.2,6.556,6.556,0,0,1,2.174-1.5A7.174,7.174,0,0,1,63.612-14.215Zm.081,2.889a2.522,2.522,0,0,0-1.876.682,3.552,3.552,0,0,0-.891,1.964H66.15a3.694,3.694,0,0,0-.128-.972A2.356,2.356,0,0,0,65.6-10.5a2.129,2.129,0,0,0-.763-.6A2.608,2.608,0,0,0,63.693-11.326ZM77.517,0V-14H80a2.118,2.118,0,0,1,.52.054.912.912,0,0,1,.351.169.72.72,0,0,1,.216.3,2.739,2.739,0,0,1,.128.459l.229,1.309a6.86,6.86,0,0,1,1.728-1.877,3.511,3.511,0,0,1,2.093-.689,2.411,2.411,0,0,1,1.539.459l-.54,3.078a.6.6,0,0,1-.216.4.733.733,0,0,1-.432.115,2.865,2.865,0,0,1-.54-.061,4.186,4.186,0,0,0-.783-.061A2.874,2.874,0,0,0,81.7-8.586V0ZM94.662-14.215a7.208,7.208,0,0,1,2.545.432,5.532,5.532,0,0,1,1.984,1.256,5.73,5.73,0,0,1,1.3,2.018,7.406,7.406,0,0,1,.466,2.707,5.908,5.908,0,0,1-.04.769,1.218,1.218,0,0,1-.148.473.565.565,0,0,1-.29.243,1.359,1.359,0,0,1-.466.067H91.935A3.947,3.947,0,0,0,93-3.706a3.173,3.173,0,0,0,2.228.79,3.987,3.987,0,0,0,1.256-.175,6.334,6.334,0,0,0,.938-.391q.412-.216.756-.392A1.57,1.57,0,0,1,98.9-4.05a.865.865,0,0,1,.756.365l1.215,1.5a6.221,6.221,0,0,1-1.4,1.208,7.261,7.261,0,0,1-1.539.729,8.342,8.342,0,0,1-1.579.365,11.853,11.853,0,0,1-1.505.1A7.86,7.86,0,0,1,92.09-.263a6.344,6.344,0,0,1-2.255-1.424A6.72,6.72,0,0,1,88.31-4.036,8.777,8.777,0,0,1,87.75-7.3a7.394,7.394,0,0,1,.479-2.659,6.55,6.55,0,0,1,1.377-2.2,6.556,6.556,0,0,1,2.174-1.5A7.174,7.174,0,0,1,94.662-14.215Zm.081,2.889a2.522,2.522,0,0,0-1.877.682,3.552,3.552,0,0,0-.891,1.964H97.2a3.694,3.694,0,0,0-.128-.972,2.356,2.356,0,0,0-.419-.844,2.129,2.129,0,0,0-.763-.6A2.608,2.608,0,0,0,94.743-11.326Zm8.613,15.768V-14h2.592a1.155,1.155,0,0,1,.655.175.937.937,0,0,1,.371.526l.311,1.026a7.036,7.036,0,0,1,.871-.81,5.737,5.737,0,0,1,1-.628,5.506,5.506,0,0,1,1.147-.412,5.713,5.713,0,0,1,1.343-.149,4.312,4.312,0,0,1,2.025.486,4.666,4.666,0,0,1,1.607,1.4,7.085,7.085,0,0,1,1.06,2.248,10.862,10.862,0,0,1,.385,3.017,9.3,9.3,0,0,1-.439,2.916,7.327,7.327,0,0,1-1.229,2.322,5.659,5.659,0,0,1-1.89,1.539,5.345,5.345,0,0,1-2.437.554,4.77,4.77,0,0,1-1.836-.311,4.984,4.984,0,0,1-1.35-.837V4.441Zm6.831-15.511a3.616,3.616,0,0,0-.83.088,3.05,3.05,0,0,0-.688.25,2.611,2.611,0,0,0-.587.412,6.1,6.1,0,0,0-.54.574v5.94a2.646,2.646,0,0,0,1.026.736,3.256,3.256,0,0,0,1.161.209,2.466,2.466,0,0,0,1.067-.23,2.173,2.173,0,0,0,.844-.736,3.918,3.918,0,0,0,.56-1.316,8.245,8.245,0,0,0,.2-1.971,9.067,9.067,0,0,0-.162-1.863,3.838,3.838,0,0,0-.452-1.222,1.756,1.756,0,0,0-.7-.668A1.994,1.994,0,0,0,110.187-11.07ZM125.2-14.215a8.085,8.085,0,0,1,2.9.5,6.366,6.366,0,0,1,2.248,1.431,6.446,6.446,0,0,1,1.458,2.261,8.158,8.158,0,0,1,.52,2.99,8.305,8.305,0,0,1-.52,3.017,6.491,6.491,0,0,1-1.458,2.282A6.4,6.4,0,0,1,128.1-.29a7.989,7.989,0,0,1-2.9.506,8.082,8.082,0,0,1-2.923-.506,6.522,6.522,0,0,1-2.268-1.445,6.4,6.4,0,0,1-1.472-2.282,8.305,8.305,0,0,1-.52-3.017,8.158,8.158,0,0,1,.52-2.99,6.353,6.353,0,0,1,1.472-2.261,6.491,6.491,0,0,1,2.268-1.431A8.18,8.18,0,0,1,125.2-14.215Zm0,11.326a2.377,2.377,0,0,0,2.126-1.019,5.637,5.637,0,0,0,.682-3.1,5.6,5.6,0,0,0-.682-3.092,2.382,2.382,0,0,0-2.126-1.012,2.441,2.441,0,0,0-2.174,1.012,5.557,5.557,0,0,0-.688,3.092,5.592,5.592,0,0,0,.688,3.1A2.436,2.436,0,0,0,125.2-2.889ZM134.622,0V-14h2.484a2.118,2.118,0,0,1,.52.054.912.912,0,0,1,.351.169.72.72,0,0,1,.216.3,2.739,2.739,0,0,1,.128.459l.23,1.309a6.86,6.86,0,0,1,1.728-1.877,3.511,3.511,0,0,1,2.092-.689,2.411,2.411,0,0,1,1.539.459l-.54,3.078a.6.6,0,0,1-.216.4.733.733,0,0,1-.432.115,2.865,2.865,0,0,1-.54-.061,4.186,4.186,0,0,0-.783-.061,2.874,2.874,0,0,0-2.592,1.755V0Zm16.065.216a4.935,4.935,0,0,1-1.762-.29A3.5,3.5,0,0,1,147.643-.9a3.511,3.511,0,0,1-.79-1.289,4.991,4.991,0,0,1-.27-1.687v-7.236H145.4a.793.793,0,0,1-.553-.209.79.79,0,0,1-.23-.614v-1.634L146.839-14l.824-3.415a.832.832,0,0,1,.918-.648h2.187v4.091h3.4v2.862h-3.4v6.953a1.308,1.308,0,0,0,.236.8.8.8,0,0,0,.682.317,1.34,1.34,0,0,0,.385-.047,1.532,1.532,0,0,0,.27-.108q.115-.061.216-.108a.553.553,0,0,1,.236-.047.487.487,0,0,1,.3.088,1.087,1.087,0,0,1,.236.277L154.6-1a5.775,5.775,0,0,1-1.823.911A7.243,7.243,0,0,1,150.687.216Z" transform="translate(167 193)" fill="#394049"/>
    <g transform="matrix(1, 0, 0, 1, 0, 0)" filter="url(#Rectangle_466)">
      <g id="Rectangle_466-2" data-name="Rectangle 466" transform="translate(169 615)" fill="#fff" stroke="rgba(175,181,189,0.19)" stroke-width="1">
        <rect width="364" height="189" rx="8" stroke="none"/>
        <rect x="0.5" y="0.5" width="363" height="188" rx="7.5" fill="none"/>
      </g>
    </g>
    <g transform="matrix(1, 0, 0, 1, 0, 0)" filter="url(#Rectangle_474)">
      <g id="Rectangle_474-2" data-name="Rectangle 474" transform="translate(169 820)" fill="#fff" stroke="rgba(175,181,189,0.19)" stroke-width="1">
        <rect width="364" height="135" rx="8" stroke="none"/>
        <rect x="0.5" y="0.5" width="363" height="134" rx="7.5" fill="none"/>
      </g>
    </g>
    <rect id="Rectangle_465" data-name="Rectangle 465" width="145" height="11" rx="5.5" transform="translate(199 647)" fill="#afb5bd"/>
    <rect id="Rectangle_473" data-name="Rectangle 473" width="145" height="11" rx="5.5" transform="translate(199 852)" fill="#afb5bd"/>
    <rect id="Rectangle_471" data-name="Rectangle 471" width="145" height="11" rx="5.5" transform="translate(199 749)" fill="#afb5bd"/>
    <rect id="Rectangle_467" data-name="Rectangle 467" width="105" height="11" rx="5.5" transform="translate(199 698)" fill="#afb5bd"/>
    <rect id="Rectangle_472" data-name="Rectangle 472" width="105" height="11" rx="5.5" transform="translate(199 903)" fill="#afb5bd"/>
    <circle id="Ellipse_40" data-name="Ellipse 40" cx="51.5" cy="51.5" r="51.5" transform="translate(167 253)" fill="url(#linear-gradient)"/>
    <circle id="Ellipse_41" data-name="Ellipse 41" cx="51.5" cy="51.5" r="51.5" transform="translate(300 253)" fill="url(#linear-gradient)"/>
    <circle id="Ellipse_42" data-name="Ellipse 42" cx="51.5" cy="51.5" r="51.5" transform="translate(432 253)" fill="url(#linear-gradient)"/>
    <g transform="matrix(1, 0, 0, 1, 0, 0)" filter="url(#Rectangle_462)">
      <rect id="Rectangle_462-2" data-name="Rectangle 462" width="103" height="103" rx="20" transform="translate(300 448)" fill="url(#linear-gradient-4)"/>
    </g>
    <g transform="matrix(1, 0, 0, 1, 0, 0)" filter="url(#Rectangle_475)">
      <rect id="Rectangle_475-2" data-name="Rectangle 475" width="103" height="103" rx="20" transform="translate(432 448)" fill="#00bd00"/>
    </g>
    <g transform="matrix(1, 0, 0, 1, 0, 0)" filter="url(#Rectangle_463)">
      <rect id="Rectangle_463-2" data-name="Rectangle 463" width="103" height="103" rx="20" transform="translate(167 448)" fill="url(#linear-gradient-5)"/>
    </g>
    <line id="Line_5" data-name="Line 5" x2="377" transform="translate(162.5 417.5)" fill="none" stroke="#afb5bd" stroke-width="1"/>
    <path id="Path_159" data-name="Path 159" d="M1.785,0H-3.848A2.6,2.6,0,0,1-5.407-.441a2.276,2.276,0,0,1-.849-1.129L-8.105-7.03H-20.016l-1.849,5.461A2.421,2.421,0,0,1-22.7-.484,2.415,2.415,0,0,1-24.23,0h-5.676L-17.78-31.326h7.439ZM-18.339-11.975h8.557l-2.881-8.578q-.28-.817-.656-1.924t-.742-2.4q-.344,1.312-.71,2.429t-.688,1.935ZM4.322,0V-31.326H15.846a21.911,21.911,0,0,1,5.525.6,10.526,10.526,0,0,1,3.719,1.7,6.437,6.437,0,0,1,2.1,2.666,9.008,9.008,0,0,1,.656,3.5,6.869,6.869,0,0,1-.3,2.032,5.981,5.981,0,0,1-.946,1.838,7.064,7.064,0,0,1-1.656,1.559,10.672,10.672,0,0,1-2.429,1.215,8.626,8.626,0,0,1,4.58,2.44,6.321,6.321,0,0,1,1.483,4.332,8.958,8.958,0,0,1-.774,3.72,8.518,8.518,0,0,1-2.268,3,10.755,10.755,0,0,1-3.687,2,16.035,16.035,0,0,1-5.01.72Zm7.267-13.287v7.8h5.117a6.416,6.416,0,0,0,2.354-.366,3.721,3.721,0,0,0,1.43-.946A3.174,3.174,0,0,0,21.2-8.106a5.774,5.774,0,0,0,.194-1.483,4.952,4.952,0,0,0-.226-1.548,2.56,2.56,0,0,0-.774-1.161,3.782,3.782,0,0,0-1.451-.731,8.457,8.457,0,0,0-2.279-.258Zm0-4.859h3.784a12.469,12.469,0,0,0,2.172-.172,4.515,4.515,0,0,0,1.645-.6A2.763,2.763,0,0,0,20.221-20.1a4.435,4.435,0,0,0,.355-1.892,5.323,5.323,0,0,0-.28-1.86,2.664,2.664,0,0,0-.86-1.193,3.61,3.61,0,0,0-1.473-.645,10.112,10.112,0,0,0-2.118-.193H11.589Z" transform="translate(219 321)" fill="#fff"/>
    <path id="Path_157" data-name="Path 157" d="M-25.649,0V-31.326h11.524a21.911,21.911,0,0,1,5.525.6,10.526,10.526,0,0,1,3.719,1.7,6.437,6.437,0,0,1,2.1,2.666,9.008,9.008,0,0,1,.656,3.5,6.869,6.869,0,0,1-.3,2.032,5.981,5.981,0,0,1-.946,1.838,7.064,7.064,0,0,1-1.656,1.559A10.672,10.672,0,0,1-7.46-16.211a8.626,8.626,0,0,1,4.58,2.44A6.321,6.321,0,0,1-1.4-9.439a8.958,8.958,0,0,1-.774,3.72,8.518,8.518,0,0,1-2.268,3,10.755,10.755,0,0,1-3.687,2,16.035,16.035,0,0,1-5.01.72Zm7.267-13.287v7.8h5.117a6.416,6.416,0,0,0,2.354-.366,3.721,3.721,0,0,0,1.43-.946,3.173,3.173,0,0,0,.709-1.312,5.773,5.773,0,0,0,.194-1.483A4.952,4.952,0,0,0-8.8-11.137,2.56,2.56,0,0,0-9.578-12.3a3.782,3.782,0,0,0-1.451-.731,8.457,8.457,0,0,0-2.279-.258Zm0-4.859H-14.6a12.469,12.469,0,0,0,2.172-.172,4.515,4.515,0,0,0,1.645-.6A2.763,2.763,0,0,0-9.75-20.1,4.435,4.435,0,0,0-9.4-21.994a5.323,5.323,0,0,0-.28-1.86,2.664,2.664,0,0,0-.86-1.193,3.61,3.61,0,0,0-1.473-.645,10.112,10.112,0,0,0-2.118-.193h-4.257Zm41.99,10.04a1.461,1.461,0,0,1,.516.1,1.4,1.4,0,0,1,.494.333L27.5-4.644a11.96,11.96,0,0,1-4.741,3.73A16.589,16.589,0,0,1,16.017.344a16.057,16.057,0,0,1-6.4-1.215A13.842,13.842,0,0,1,4.827-4.225,14.77,14.77,0,0,1,1.806-9.3,18.736,18.736,0,0,1,.753-15.673a16.806,16.806,0,0,1,1.2-6.439,15.019,15.019,0,0,1,3.365-5.063,15.177,15.177,0,0,1,5.171-3.311,18.021,18.021,0,0,1,6.643-1.183,16.922,16.922,0,0,1,3.322.312,16.235,16.235,0,0,1,2.913.86,13.705,13.705,0,0,1,2.494,1.312A12.021,12.021,0,0,1,27.885-27.5l-2.451,3.289a3.121,3.121,0,0,1-.559.548,1.455,1.455,0,0,1-.9.247,1.613,1.613,0,0,1-.731-.172A8.08,8.08,0,0,1,22.51-24q-.387-.247-.849-.537a6.517,6.517,0,0,0-1.1-.538,9.062,9.062,0,0,0-1.484-.419,10.123,10.123,0,0,0-1.989-.172,9.094,9.094,0,0,0-3.612.7,7.919,7.919,0,0,0-2.806,2,9.273,9.273,0,0,0-1.828,3.15,12.356,12.356,0,0,0-.656,4.15,12.9,12.9,0,0,0,.656,4.278,9.4,9.4,0,0,0,1.785,3.15A7.572,7.572,0,0,0,13.266-6.3a7.874,7.874,0,0,0,3.225.667,15.437,15.437,0,0,0,1.806-.1,7.454,7.454,0,0,0,1.516-.333,7.011,7.011,0,0,0,1.333-.613,8.9,8.9,0,0,0,1.279-.935,2.542,2.542,0,0,1,.559-.355A1.465,1.465,0,0,1,23.607-8.106Z" transform="translate(351 321)" fill="#fff"/>
    <path id="Path_158" data-name="Path 158" d="M-6.45-8.106a1.461,1.461,0,0,1,.516.1,1.4,1.4,0,0,1,.494.333l2.881,3.031A11.96,11.96,0,0,1-7.3-.914,16.589,16.589,0,0,1-14.039.344a16.057,16.057,0,0,1-6.4-1.215A13.842,13.842,0,0,1-25.23-4.225,14.77,14.77,0,0,1-28.251-9.3,18.736,18.736,0,0,1-29.3-15.673a16.806,16.806,0,0,1,1.2-6.439,15.019,15.019,0,0,1,3.365-5.063,15.177,15.177,0,0,1,5.171-3.311,18.021,18.021,0,0,1,6.643-1.183,16.922,16.922,0,0,1,3.322.312,16.235,16.235,0,0,1,2.913.86,13.705,13.705,0,0,1,2.494,1.312A12.021,12.021,0,0,1-2.171-27.5l-2.451,3.289a3.121,3.121,0,0,1-.559.548,1.455,1.455,0,0,1-.9.247,1.613,1.613,0,0,1-.731-.172A8.08,8.08,0,0,1-7.546-24q-.387-.247-.849-.537a6.517,6.517,0,0,0-1.1-.538,9.062,9.062,0,0,0-1.484-.419,10.123,10.123,0,0,0-1.989-.172,9.094,9.094,0,0,0-3.612.7,7.919,7.919,0,0,0-2.806,2,9.272,9.272,0,0,0-1.828,3.15,12.356,12.356,0,0,0-.656,4.15,12.9,12.9,0,0,0,.656,4.278,9.4,9.4,0,0,0,1.785,3.15A7.572,7.572,0,0,0-16.792-6.3a7.874,7.874,0,0,0,3.225.667,15.437,15.437,0,0,0,1.806-.1,7.454,7.454,0,0,0,1.516-.333,7.011,7.011,0,0,0,1.333-.613,8.9,8.9,0,0,0,1.279-.935,2.542,2.542,0,0,1,.559-.355A1.465,1.465,0,0,1-6.45-8.106Zm35.625-7.568A16.426,16.426,0,0,1,28-9.406,14.663,14.663,0,0,1,24.7-4.44a14.968,14.968,0,0,1-5.128,3.268A18.145,18.145,0,0,1,12.922,0H.753V-31.326H12.922a18,18,0,0,1,6.654,1.183A15.184,15.184,0,0,1,24.7-26.875,14.548,14.548,0,0,1,28-21.919,16.368,16.368,0,0,1,29.176-15.673Zm-7.439,0a13.647,13.647,0,0,0-.6-4.193A8.957,8.957,0,0,0,19.4-23.037a7.516,7.516,0,0,0-2.763-2,9.38,9.38,0,0,0-3.72-.7H8.063V-5.59h4.859a9.38,9.38,0,0,0,3.72-.7,7.516,7.516,0,0,0,2.763-2,8.957,8.957,0,0,0,1.731-3.171A13.724,13.724,0,0,0,21.736-15.673Z" transform="translate(484 321)" fill="#fff"/>
    <rect id="Rectangle_477" data-name="Rectangle 477" width="72" height="8" rx="4" transform="translate(183 376)" fill="#6f7a87"/>
    <rect id="Rectangle_480" data-name="Rectangle 480" width="72" height="8" rx="4" transform="translate(183 571)" fill="#6f7a87"/>
    <rect id="Rectangle_478" data-name="Rectangle 478" width="72" height="8" rx="4" transform="translate(316 376)" fill="#6f7a87"/>
    <rect id="Rectangle_481" data-name="Rectangle 481" width="72" height="8" rx="4" transform="translate(316 571)" fill="#6f7a87"/>
    <rect id="Rectangle_482" data-name="Rectangle 482" width="72" height="8" rx="4" transform="translate(448 571)" fill="#6f7a87"/>
    <rect id="Rectangle_479" data-name="Rectangle 479" width="72" height="8" rx="4" transform="translate(448 376)" fill="#6f7a87"/>
  </g>
</svg>
