<svg xmlns="http://www.w3.org/2000/svg" xmlns:xlink="http://www.w3.org/1999/xlink" width="701.26" height="1051.88" viewBox="0 0 701.26 1051.88">
  <defs>
    <clipPath id="clip-Image_08_-_1">
      <rect width="701.26" height="1051.88"/>
    </clipPath>
  </defs>
  <g id="Image_08_-_1" data-name="Image 08 - 1" clip-path="url(#clip-Image_08_-_1)">
    <rect width="701.26" height="1051.88" fill="rgba(255,255,255,0)"/>
    <g id="Rectangle_429" data-name="Rectangle 429" transform="translate(107 154)" fill="#eff0f2" stroke="#d8dbdf" stroke-width="1">
      <rect width="15" height="85" rx="6" stroke="none"/>
      <rect x="0.5" y="0.5" width="14" height="84" rx="5.5" fill="none"/>
    </g>
    <g id="Rectangle_431" data-name="Rectangle 431" transform="translate(107 294)" fill="#eff0f2" stroke="#d8dbdf" stroke-width="1">
      <rect width="15" height="85" rx="6" stroke="none"/>
      <rect x="0.5" y="0.5" width="14" height="84" rx="5.5" fill="none"/>
    </g>
    <g id="Rectangle_432" data-name="Rectangle 432" transform="translate(107 387)" fill="#eff0f2" stroke="#d8dbdf" stroke-width="1">
      <rect width="15" height="85" rx="6" stroke="none"/>
      <rect x="0.5" y="0.5" width="14" height="84" rx="5.5" fill="none"/>
    </g>
    <g id="Rectangle_430" data-name="Rectangle 430" transform="translate(581 154)" fill="#eff0f2" stroke="#d8dbdf" stroke-width="1">
      <rect width="15" height="155" rx="6" stroke="none"/>
      <rect x="0.5" y="0.5" width="14" height="154" rx="5.5" fill="none"/>
    </g>
    <g id="Group_95" data-name="Group 95">
      <g id="Path_138" data-name="Path 138" transform="translate(115 40)" fill="#eff0f2">
        <path d="M64,0H409a64,64,0,0,1,64,64V909a64,64,0,0,1-64,64H64A64,64,0,0,1,0,909V64A64,64,0,0,1,64,0Z" stroke="none"/>
        <path d="M 64 1 C 55.49462890625 1 47.24411010742188 2.6656494140625 39.47787475585938 5.95050048828125 C 35.7449951171875 7.52923583984375 32.14474487304688 9.4835205078125 28.77676391601562 11.75872802734375 C 25.44061279296875 14.01263427734375 22.30337524414062 16.60113525390625 19.45223999023438 19.4522705078125 C 16.60113525390625 22.3033447265625 14.01263427734375 25.44061279296875 11.75875854492188 28.7767333984375 C 9.483489990234375 32.144775390625 7.52923583984375 35.7449951171875 5.95050048828125 39.4779052734375 C 2.665618896484375 47.244140625 1 55.49462890625 1 64 L 1 909 C 1 917.50537109375 2.665618896484375 925.755859375 5.95050048828125 933.5220947265625 C 7.52923583984375 937.2550048828125 9.483489990234375 940.855224609375 11.75875854492188 944.2232666015625 C 14.01263427734375 947.5593872070312 16.60113525390625 950.6966552734375 19.45223999023438 953.5477294921875 C 22.30337524414062 956.3988647460938 25.44061279296875 958.9873657226562 28.77676391601562 961.2412719726562 C 32.14474487304688 963.5164794921875 35.7449951171875 965.4707641601562 39.47787475585938 967.0494995117188 C 47.24411010742188 970.3343505859375 55.49462890625 972 64 972 L 409 972 C 417.50537109375 972 425.755859375 970.3343505859375 433.5221252441406 967.0494995117188 C 437.2550048828125 965.4707641601562 440.8552551269531 963.5164794921875 444.2232360839844 961.2412719726562 C 447.5593872070312 958.9873657226562 450.6966247558594 956.3988647460938 453.5477600097656 953.5477294921875 C 456.3988647460938 950.6966552734375 458.9873657226562 947.5593872070312 461.2412414550781 944.2232666015625 C 463.5165100097656 940.855224609375 465.4707641601562 937.2550048828125 467.0494995117188 933.5220947265625 C 470.3343811035156 925.755859375 472 917.50537109375 472 909 L 472 64 C 472 55.49462890625 470.3343811035156 47.244140625 467.0494995117188 39.4779052734375 C 465.4707641601562 35.7449951171875 463.5165100097656 32.144775390625 461.2412414550781 28.7767333984375 C 458.9873657226562 25.44061279296875 456.3988647460938 22.3033447265625 453.5477600097656 19.4522705078125 C 450.6966247558594 16.60113525390625 447.5593872070312 14.01263427734375 444.2232360839844 11.75872802734375 C 440.8552551269531 9.4835205078125 437.2550048828125 7.52923583984375 433.5221252441406 5.95050048828125 C 425.755859375 2.6656494140625 417.50537109375 1 409 1 L 64 1 M 64 0 L 409 0 C 444.3462524414062 0 473 28.65374755859375 473 64 L 473 909 C 473 944.3462524414062 444.3462524414062 973 409 973 L 64 973 C 28.65374755859375 973 0 944.3462524414062 0 909 L 0 64 C 0 28.65374755859375 28.65374755859375 0 64 0 Z" stroke="none" fill="rgba(207,211,215,0.7)"/>
      </g>
      <g id="Group_91" data-name="Group 91" transform="translate(114.7 40)">
        <g id="Subtraction_2" data-name="Subtraction 2" transform="translate(20.3 20.879)" fill="#fff">
          <path d="M380.4,926.242H52a51.957,51.957,0,0,1-52-52V52A51.956,51.956,0,0,1,52,0H83.072V13.685a28.976,28.976,0,0,0,29,29H320.328a28.91,28.91,0,0,0,20.506-8.494,28.91,28.91,0,0,0,8.494-20.506V0H380.4a51.957,51.957,0,0,1,52,52V874.242a51.957,51.957,0,0,1-52,52Z" stroke="none"/>
          <path d="M 380.3995666503906 926.242431640625 L 380.3995666503906 925.242431640625 C 387.2852172851562 925.2423095703125 393.9640502929688 923.8939819335938 400.250732421875 921.2348022460938 C 406.3234558105469 918.6663208007812 411.7778015136719 914.9889526367188 416.4620361328125 910.3048095703125 C 421.1463928222656 905.6202392578125 424.8237915039062 900.1659545898438 427.3921508789062 894.0933837890625 C 430.0514526367188 887.8064575195312 431.3998107910156 881.1275024414062 431.3998107910156 874.2421264648438 L 431.3998107910156 52.00021743774414 C 431.3998107910156 45.11480712890625 430.0514526367188 38.43586349487305 427.3920288085938 32.14892578125 C 424.8236999511719 26.07621765136719 421.1462707519531 20.62198257446289 416.462158203125 15.93762969970703 C 411.7778015136719 11.25351238250732 406.3235778808594 7.57610034942627 400.250732421875 5.007512092590332 C 393.9636840820312 2.348335742950439 387.2847290039062 1.000100374221802 380.3995666503906 1.000218033790588 L 350.3280334472656 1.000104188919067 L 350.3280334472656 13.68457126617432 C 350.3280334472656 17.7337474822998 349.5346374511719 21.66257095336914 347.9699096679688 25.36186599731445 C 346.4588623046875 28.9344539642334 344.2959289550781 32.1426887512207 341.5412292480469 34.89751052856445 C 338.7860412597656 37.6524543762207 335.5777893066406 39.81539535522461 332.0056762695312 41.32621765136719 C 328.3072204589844 42.89080810546875 324.3782653808594 43.68421936035156 320.3281555175781 43.68445205688477 L 112.0715713500977 43.68445205688477 C 108.0215682983398 43.68421936035156 104.0926284790039 42.89080810546875 100.3940353393555 41.32633590698242 C 96.82157135009766 39.81527709960938 93.61344909667969 37.65233612060547 90.85862731933594 34.89739608764648 C 88.10391998291016 32.14280700683594 85.94086456298828 28.9345703125 84.4295654296875 25.36186599731445 C 82.86533355712891 21.66315841674805 82.07203674316406 17.73445320129395 82.07192230224609 13.68457126617432 L 82.07192230224609 1.000218033790588 L 51.99933242797852 1.000218033790588 C 45.1143913269043 1.000218033790588 38.43568420410156 2.348453283309937 32.14886093139648 5.007394313812256 C 26.07580375671387 7.576218128204346 20.62156677246094 11.25374698638916 15.93756771087646 15.93762969970703 C 11.25380325317383 20.62162971496582 7.576273441314697 26.07586479187012 5.007450103759766 32.14892578125 C 2.34839129447937 38.43598175048828 1.000155925750732 45.11492538452148 1.000273585319519 52.00021743774414 L 1.000273585319519 874.2421264648438 C 1.000155925750732 881.1273803710938 2.34839129447937 887.8063354492188 5.007332324981689 894.0933837890625 C 7.576273441314697 900.1664428710938 11.25368499755859 905.6206665039062 15.93756771087646 910.3048095703125 C 20.62168502807617 914.9888305664062 26.0760383605957 918.6661987304688 32.14886093139648 921.2348022460938 C 38.43568420410156 923.8939819335938 45.11462783813477 925.2423095703125 52.00027465820312 925.242431640625 L 380.3995666503906 925.242431640625 L 380.3995666503906 926.242431640625 M 380.3995666503906 926.242431640625 L 52.00027465820312 926.242431640625 C 44.98027420043945 926.2423095703125 38.17027282714844 924.8674926757812 31.75933265686035 922.1558837890625 C 25.56733322143555 919.5368041992188 20.00627326965332 915.7875366210938 15.23050880432129 911.0118408203125 C 10.45509719848633 906.236328125 6.705685138702393 900.67529296875 4.086391448974609 894.48291015625 C 1.374979496002197 888.0720825195312 0.0001559484080644324 881.2620849609375 0.0002735954767558724 874.2421264648438 L 0.0002735954767558724 52.00021743774414 C 0.0001559484080644324 44.98021697998047 1.374979496002197 38.17021942138672 4.086391448974609 31.7593936920166 C 6.705685138702393 25.56727600097656 10.45509719848633 20.00609970092773 15.23050880432129 15.23057079315186 C 20.00603866577148 10.45504188537598 25.56721496582031 6.705629825592041 31.75933265686035 4.086453437805176 C 38.17004013061523 1.375041604042053 44.97968673706055 0.0002180319424951449 51.99933242797852 0.0002180319424951449 L 83.07192230224609 0.0002180319424951449 L 83.07192230224609 13.68457126617432 C 83.07203674316406 17.59963035583496 83.838623046875 21.39739418029785 85.35062408447266 24.97233581542969 C 86.81144714355469 28.42574691772461 88.90238952636719 31.52704238891602 91.56568908691406 34.19033432006836 C 94.22898101806641 36.85363006591797 97.33039093017578 38.94468688964844 100.7835693359375 40.40527725219727 C 104.3586273193359 41.91751098632812 108.1565093994141 42.68421936035156 112.0716857910156 42.68445205688477 L 320.3281555175781 42.68445205688477 C 324.2433471679688 42.68421936035156 328.0412292480469 41.91751098632812 331.6161499023438 40.40527725219727 C 335.0693359375 38.94468688964844 338.1705017089844 36.8537483215332 340.8341674804688 34.19033432006836 C 343.4973449707031 31.52704238891602 345.5882873535156 28.42563056945801 347.0489807128906 24.97233581542969 C 348.5612182617188 21.39704132080078 349.3280334472656 17.59927749633789 349.3280334472656 13.68457126617432 L 349.3280334472656 0.0001003848810796626 L 380.3995666503906 0.0002180319424951449 C 387.4193420410156 0.0001003848810796626 394.2293395996094 1.374923944473267 400.6402587890625 4.086453437805176 C 406.8326416015625 6.705629825592041 412.3935546875 10.45504188537598 417.1692199707031 15.23057079315186 C 421.9449768066406 20.0064525604248 425.6942749023438 25.56751251220703 428.3131103515625 31.7593936920166 C 431.0248718261719 38.17033386230469 432.3998107910156 44.9803352355957 432.3998107910156 52.00021743774414 L 432.3998107910156 874.2421264648438 C 432.3998107910156 881.261962890625 431.0248718261719 888.0719604492188 428.3131103515625 894.48291015625 C 425.6942749023438 900.6749267578125 421.9447326660156 906.236083984375 417.1692199707031 911.0118408203125 C 412.3935546875 915.7874145507812 406.8326416015625 919.5368041992188 400.6402587890625 922.1558837890625 C 394.2294616699219 924.8674926757812 387.4194641113281 926.2423095703125 380.3995666503906 926.242431640625 Z" stroke="none" fill="rgba(207,211,215,0.47)"/>
        </g>
        <path id="Path_126" data-name="Path 126" d="M13.048-16.254a1.777,1.777,0,0,1-.441.5.987.987,0,0,1-.6.168,1.456,1.456,0,0,1-.693-.2q-.371-.2-.84-.455a6.971,6.971,0,0,0-1.071-.455,4.285,4.285,0,0,0-1.372-.2,2.952,2.952,0,0,0-1.981.567A1.929,1.929,0,0,0,5.4-14.8,1.412,1.412,0,0,0,5.8-13.776a3.379,3.379,0,0,0,1.029.7,11.03,11.03,0,0,0,1.456.539q.819.245,1.673.546a14.962,14.962,0,0,1,1.673.707,5.579,5.579,0,0,1,1.456,1.036,4.835,4.835,0,0,1,1.029,1.533A5.451,5.451,0,0,1,14.5-6.538a7.094,7.094,0,0,1-.49,2.646,6.2,6.2,0,0,1-1.421,2.149A6.6,6.6,0,0,1,10.3-.3,8.59,8.59,0,0,1,7.2.224a9.94,9.94,0,0,1-1.939-.2A11.515,11.515,0,0,1,3.346-.525,11.082,11.082,0,0,1,1.61-1.372,7.376,7.376,0,0,1,.2-2.464L1.6-4.676a1.139,1.139,0,0,1,.434-.406,1.23,1.23,0,0,1,.6-.154,1.594,1.594,0,0,1,.847.266q.427.266.966.588a7.861,7.861,0,0,0,1.239.588,4.646,4.646,0,0,0,1.652.266,3.145,3.145,0,0,0,2-.567,2.159,2.159,0,0,0,.714-1.8A1.7,1.7,0,0,0,9.66-7.056,3.028,3.028,0,0,0,8.631-7.8a9.481,9.481,0,0,0-1.449-.518q-.812-.224-1.666-.5A12.189,12.189,0,0,1,3.85-9.485,5.258,5.258,0,0,1,2.4-10.535a4.913,4.913,0,0,1-1.029-1.624,6.448,6.448,0,0,1-.392-2.4,5.7,5.7,0,0,1,.462-2.24A5.782,5.782,0,0,1,2.8-18.746,6.677,6.677,0,0,1,5-20.111a8.118,8.118,0,0,1,2.982-.511,11.182,11.182,0,0,1,1.827.147,9.6,9.6,0,0,1,1.687.434,9.264,9.264,0,0,1,1.491.686,6.875,6.875,0,0,1,1.239.9Zm10.024,1.512a7.475,7.475,0,0,1,2.639.448,5.737,5.737,0,0,1,2.058,1.3A5.943,5.943,0,0,1,29.113-10.9,7.68,7.68,0,0,1,29.6-8.092a6.127,6.127,0,0,1-.042.8,1.263,1.263,0,0,1-.154.49.586.586,0,0,1-.3.252,1.41,1.41,0,0,1-.483.07H20.244A4.093,4.093,0,0,0,21.35-3.843a3.291,3.291,0,0,0,2.31.819,4.135,4.135,0,0,0,1.3-.182,6.568,6.568,0,0,0,.973-.406q.427-.224.784-.406a1.628,1.628,0,0,1,.749-.182.9.9,0,0,1,.784.378l1.26,1.554a6.451,6.451,0,0,1-1.449,1.253,7.53,7.53,0,0,1-1.6.756,8.651,8.651,0,0,1-1.638.378,12.292,12.292,0,0,1-1.561.105,8.151,8.151,0,0,1-2.863-.5A6.579,6.579,0,0,1,18.067-1.75a6.969,6.969,0,0,1-1.582-2.436A9.1,9.1,0,0,1,15.9-7.574a7.667,7.667,0,0,1,.5-2.758,6.793,6.793,0,0,1,1.428-2.282,6.8,6.8,0,0,1,2.254-1.554A7.439,7.439,0,0,1,23.072-14.742Zm.084,3a2.615,2.615,0,0,0-1.946.707A3.684,3.684,0,0,0,20.286-9H25.7a3.831,3.831,0,0,0-.133-1.008,2.444,2.444,0,0,0-.434-.875,2.208,2.208,0,0,0-.791-.623A2.705,2.705,0,0,0,23.156-11.746Zm19.4.672a2.4,2.4,0,0,1-.378.378.835.835,0,0,1-.518.14,1.115,1.115,0,0,1-.581-.154l-.581-.343a4.407,4.407,0,0,0-.756-.343,3.254,3.254,0,0,0-1.078-.154,3.02,3.02,0,0,0-1.379.294,2.554,2.554,0,0,0-.959.84,3.839,3.839,0,0,0-.56,1.337,7.987,7.987,0,0,0-.182,1.785,5.44,5.44,0,0,0,.805,3.206,2.583,2.583,0,0,0,2.219,1.12,3.1,3.1,0,0,0,1.2-.189,3.628,3.628,0,0,0,.749-.42L41.125-4a1.048,1.048,0,0,1,.651-.2.9.9,0,0,1,.784.378l1.26,1.554a6.856,6.856,0,0,1-1.414,1.253,7.093,7.093,0,0,1-1.519.756,7.84,7.84,0,0,1-1.561.378A11.494,11.494,0,0,1,37.8.224a6.548,6.548,0,0,1-2.541-.5,6.225,6.225,0,0,1-2.128-1.463A7.007,7.007,0,0,1,31.675-4.1a8.837,8.837,0,0,1-.539-3.192,8.966,8.966,0,0,1,.469-2.933,6.659,6.659,0,0,1,1.386-2.366,6.444,6.444,0,0,1,2.268-1.575,7.947,7.947,0,0,1,3.129-.574,7.628,7.628,0,0,1,3,.546,7.189,7.189,0,0,1,2.324,1.6Zm7.2-3.444v9.212a2.533,2.533,0,0,0,.49,1.666,1.77,1.77,0,0,0,1.442.588,3.093,3.093,0,0,0,1.337-.294,4.987,4.987,0,0,0,1.211-.826V-14.518h4.34V0H55.888a1.021,1.021,0,0,1-1.064-.728l-.266-.84a8.424,8.424,0,0,1-.868.735,5.312,5.312,0,0,1-.959.56,5.729,5.729,0,0,1-1.1.364,5.839,5.839,0,0,1-1.288.133,5.083,5.083,0,0,1-2.107-.413A4.335,4.335,0,0,1,46.69-1.344a5.037,5.037,0,0,1-.952-1.75,7.238,7.238,0,0,1-.322-2.212v-9.212ZM61.936,0V-14.518h2.576a2.2,2.2,0,0,1,.539.056.945.945,0,0,1,.364.175.747.747,0,0,1,.224.315,2.84,2.84,0,0,1,.133.476l.238,1.358A7.114,7.114,0,0,1,67.8-14.084a3.641,3.641,0,0,1,2.17-.714,2.5,2.5,0,0,1,1.6.476l-.56,3.192a.623.623,0,0,1-.224.413.76.76,0,0,1-.448.119,2.971,2.971,0,0,1-.56-.063,4.341,4.341,0,0,0-.812-.063A2.981,2.981,0,0,0,66.276-8.9V0ZM77.98-14.518V0H73.64V-14.518Zm.5-3.976a2.294,2.294,0,0,1-.21.973,2.561,2.561,0,0,1-.574.8,2.81,2.81,0,0,1-.847.546,2.628,2.628,0,0,1-1.029.2,2.443,2.443,0,0,1-.994-.2,2.794,2.794,0,0,1-.819-.546,2.52,2.52,0,0,1-.56-.8,2.361,2.361,0,0,1-.2-.973,2.443,2.443,0,0,1,.2-.994,2.579,2.579,0,0,1,.56-.812,2.622,2.622,0,0,1,.819-.546,2.518,2.518,0,0,1,.994-.2,2.71,2.71,0,0,1,1.029.2,2.643,2.643,0,0,1,.847.546,2.62,2.62,0,0,1,.574.812A2.374,2.374,0,0,1,78.484-18.494ZM86.576.224a5.118,5.118,0,0,1-1.827-.3,3.629,3.629,0,0,1-1.33-.854A3.64,3.64,0,0,1,82.6-2.268a5.176,5.176,0,0,1-.28-1.75v-7.5H81.088a.822.822,0,0,1-.574-.217.819.819,0,0,1-.238-.637V-14.07l2.31-.448.854-3.542a.863.863,0,0,1,.952-.672H86.66v4.242h3.528v2.968H86.66v7.21a1.357,1.357,0,0,0,.245.833.828.828,0,0,0,.707.329,1.389,1.389,0,0,0,.4-.049,1.588,1.588,0,0,0,.28-.112q.119-.063.224-.112a.574.574,0,0,1,.245-.049.505.505,0,0,1,.315.091,1.127,1.127,0,0,1,.245.287l1.316,2.058a5.989,5.989,0,0,1-1.89.945A7.511,7.511,0,0,1,86.576.224Zm12.04,3.542a1.553,1.553,0,0,1-.476.637,1.549,1.549,0,0,1-.9.2H94l2.8-5.88L91-14.518h3.836a1.225,1.225,0,0,1,.784.224,1.2,1.2,0,0,1,.392.532L98.392-7.5a13.792,13.792,0,0,1,.546,1.736q.14-.448.308-.882t.322-.882l2.156-6.23a1.062,1.062,0,0,1,.441-.539,1.26,1.26,0,0,1,.707-.217h3.5ZM111.888-20.4H115.7a1.694,1.694,0,0,1,1.008.28,1.534,1.534,0,0,1,.56.742l3.948,10.92q.266.714.539,1.554t.511,1.764q.2-.924.455-1.764t.511-1.554l3.92-10.92a1.576,1.576,0,0,1,.546-.707,1.573,1.573,0,0,1,.994-.315h3.836L124.348,0h-4.284ZM138.6-14.742a7.475,7.475,0,0,1,2.639.448,5.737,5.737,0,0,1,2.058,1.3,5.943,5.943,0,0,1,1.344,2.093,7.68,7.68,0,0,1,.483,2.807,6.127,6.127,0,0,1-.042.8,1.263,1.263,0,0,1-.154.49.586.586,0,0,1-.3.252,1.41,1.41,0,0,1-.483.07h-8.372a4.093,4.093,0,0,0,1.106,2.639,3.291,3.291,0,0,0,2.31.819,4.135,4.135,0,0,0,1.3-.182,6.568,6.568,0,0,0,.973-.406q.427-.224.784-.406A1.628,1.628,0,0,1,143-4.2a.9.9,0,0,1,.784.378l1.26,1.554a6.451,6.451,0,0,1-1.449,1.253,7.529,7.529,0,0,1-1.6.756,8.651,8.651,0,0,1-1.638.378A12.292,12.292,0,0,1,138.8.224a8.151,8.151,0,0,1-2.863-.5A6.579,6.579,0,0,1,133.6-1.75a6.969,6.969,0,0,1-1.582-2.436,9.1,9.1,0,0,1-.581-3.388,7.667,7.667,0,0,1,.5-2.758,6.793,6.793,0,0,1,1.428-2.282,6.8,6.8,0,0,1,2.254-1.554A7.439,7.439,0,0,1,138.6-14.742Zm.084,3a2.615,2.615,0,0,0-1.946.707A3.684,3.684,0,0,0,135.814-9h5.418a3.831,3.831,0,0,0-.133-1.008,2.444,2.444,0,0,0-.434-.875,2.208,2.208,0,0,0-.791-.623A2.705,2.705,0,0,0,138.684-11.746ZM147.616,0V-14.518h2.576a2.2,2.2,0,0,1,.539.056.945.945,0,0,1,.364.175.747.747,0,0,1,.224.315,2.84,2.84,0,0,1,.133.476l.238,1.358a7.114,7.114,0,0,1,1.792-1.946,3.641,3.641,0,0,1,2.17-.714,2.5,2.5,0,0,1,1.6.476l-.56,3.192a.623.623,0,0,1-.224.413.76.76,0,0,1-.448.119,2.971,2.971,0,0,1-.56-.063,4.341,4.341,0,0,0-.812-.063,2.981,2.981,0,0,0-2.688,1.82V0ZM163.66-14.518V0h-4.34V-14.518Zm.5-3.976a2.294,2.294,0,0,1-.21.973,2.561,2.561,0,0,1-.574.8,2.81,2.81,0,0,1-.847.546,2.629,2.629,0,0,1-1.029.2,2.443,2.443,0,0,1-.994-.2,2.794,2.794,0,0,1-.819-.546,2.52,2.52,0,0,1-.56-.8,2.361,2.361,0,0,1-.2-.973,2.443,2.443,0,0,1,.2-.994,2.579,2.579,0,0,1,.56-.812,2.623,2.623,0,0,1,.819-.546,2.519,2.519,0,0,1,.994-.2,2.71,2.71,0,0,1,1.029.2,2.642,2.642,0,0,1,.847.546,2.621,2.621,0,0,1,.574.812A2.374,2.374,0,0,1,164.164-18.494ZM167.8,0V-11.536l-.952-.2a1.966,1.966,0,0,1-.791-.35.839.839,0,0,1-.3-.7V-14.49H167.8v-.21a6.79,6.79,0,0,1,.455-2.485,5.3,5.3,0,0,1,1.407-2.03A6.883,6.883,0,0,1,172.1-20.58a10.942,10.942,0,0,1,3.521-.5q.63,0,1.3.063a7.554,7.554,0,0,1,1.162.189l-.14,2.2a.492.492,0,0,1-.35.462,2.074,2.074,0,0,1-.686.112,10.769,10.769,0,0,0-2.408.224,3.782,3.782,0,0,0-1.505.665,2.3,2.3,0,0,0-.77,1.1A4.825,4.825,0,0,0,172-14.56v.07h9.212V0h-4.34V-11.522h-4.732V0Zm27.44-11.074a2.4,2.4,0,0,1-.378.378.835.835,0,0,1-.518.14,1.115,1.115,0,0,1-.581-.154l-.581-.343a4.407,4.407,0,0,0-.756-.343,3.254,3.254,0,0,0-1.078-.154,3.02,3.02,0,0,0-1.379.294,2.554,2.554,0,0,0-.959.84,3.839,3.839,0,0,0-.56,1.337,7.988,7.988,0,0,0-.182,1.785,5.44,5.44,0,0,0,.8,3.206,2.583,2.583,0,0,0,2.219,1.12,3.1,3.1,0,0,0,1.2-.189,3.628,3.628,0,0,0,.749-.42L193.809-4a1.048,1.048,0,0,1,.651-.2.9.9,0,0,1,.784.378l1.26,1.554a6.855,6.855,0,0,1-1.414,1.253,7.094,7.094,0,0,1-1.519.756,7.84,7.84,0,0,1-1.561.378,11.493,11.493,0,0,1-1.526.105,6.548,6.548,0,0,1-2.541-.5,6.225,6.225,0,0,1-2.128-1.463A7.007,7.007,0,0,1,184.359-4.1a8.837,8.837,0,0,1-.539-3.192,8.966,8.966,0,0,1,.469-2.933,6.659,6.659,0,0,1,1.386-2.366,6.444,6.444,0,0,1,2.268-1.575,7.947,7.947,0,0,1,3.129-.574,7.628,7.628,0,0,1,3,.546,7.189,7.189,0,0,1,2.324,1.6ZM208.4,0a2.033,2.033,0,0,1-.931-.168,1.283,1.283,0,0,1-.525-.7l-.308-.8q-.546.462-1.05.812a6.655,6.655,0,0,1-1.043.6A5.151,5.151,0,0,1,203.4.1a7.065,7.065,0,0,1-1.351.119,5.924,5.924,0,0,1-1.806-.259A3.768,3.768,0,0,1,198.863-.8a3.355,3.355,0,0,1-.875-1.253,4.519,4.519,0,0,1-.308-1.729,3.626,3.626,0,0,1,.392-1.582,3.9,3.9,0,0,1,1.358-1.477,8.631,8.631,0,0,1,2.6-1.113,17.472,17.472,0,0,1,4.13-.5v-.616a2.662,2.662,0,0,0-.525-1.841,1.931,1.931,0,0,0-1.491-.567,3.955,3.955,0,0,0-1.26.168,5.664,5.664,0,0,0-.875.378q-.385.21-.749.378a2.057,2.057,0,0,1-.868.168,1.312,1.312,0,0,1-.763-.217,1.612,1.612,0,0,1-.5-.539l-.784-1.358a8.825,8.825,0,0,1,2.919-1.729,10.233,10.233,0,0,1,3.437-.567,6.286,6.286,0,0,1,2.373.427,5.107,5.107,0,0,1,1.792,1.19A5.2,5.2,0,0,1,210-11.368a6.516,6.516,0,0,1,.392,2.3V0ZM203.42-2.646a3.444,3.444,0,0,0,1.47-.294,4.478,4.478,0,0,0,1.274-.952V-5.908a14.408,14.408,0,0,0-2.142.224,5.2,5.2,0,0,0-1.33.42,1.61,1.61,0,0,0-.679.574,1.358,1.358,0,0,0-.189.7,1.216,1.216,0,0,0,.406,1.043A1.981,1.981,0,0,0,203.42-2.646ZM218.568.224a5.118,5.118,0,0,1-1.827-.3,3.629,3.629,0,0,1-1.33-.854,3.64,3.64,0,0,1-.819-1.337,5.176,5.176,0,0,1-.28-1.75v-7.5H213.08a.822.822,0,0,1-.574-.217.819.819,0,0,1-.238-.637V-14.07l2.31-.448.854-3.542a.863.863,0,0,1,.952-.672h2.268v4.242h3.528v2.968h-3.528v7.21a1.357,1.357,0,0,0,.245.833.828.828,0,0,0,.707.329A1.389,1.389,0,0,0,220-3.2a1.589,1.589,0,0,0,.28-.112q.119-.063.224-.112a.574.574,0,0,1,.245-.049.505.505,0,0,1,.315.091,1.127,1.127,0,0,1,.245.287l1.316,2.058a5.989,5.989,0,0,1-1.89.945A7.511,7.511,0,0,1,218.568.224Zm10.584-14.742V0h-4.34V-14.518Zm.5-3.976a2.294,2.294,0,0,1-.21.973,2.561,2.561,0,0,1-.574.8,2.81,2.81,0,0,1-.847.546,2.629,2.629,0,0,1-1.029.2,2.443,2.443,0,0,1-.994-.2,2.794,2.794,0,0,1-.819-.546,2.52,2.52,0,0,1-.56-.8,2.361,2.361,0,0,1-.2-.973,2.443,2.443,0,0,1,.2-.994,2.579,2.579,0,0,1,.56-.812,2.623,2.623,0,0,1,.819-.546,2.519,2.519,0,0,1,.994-.2,2.71,2.71,0,0,1,1.029.2,2.642,2.642,0,0,1,.847.546,2.621,2.621,0,0,1,.574.812A2.374,2.374,0,0,1,229.656-18.494Zm9.464,3.752a8.385,8.385,0,0,1,3.01.518,6.6,6.6,0,0,1,2.331,1.484,6.685,6.685,0,0,1,1.512,2.345,8.46,8.46,0,0,1,.539,3.1,8.613,8.613,0,0,1-.539,3.129A6.731,6.731,0,0,1,244.461-1.8,6.633,6.633,0,0,1,242.13-.3a8.285,8.285,0,0,1-3.01.525A8.382,8.382,0,0,1,236.089-.3a6.764,6.764,0,0,1-2.352-1.5,6.633,6.633,0,0,1-1.526-2.366,8.613,8.613,0,0,1-.539-3.129,8.46,8.46,0,0,1,.539-3.1,6.588,6.588,0,0,1,1.526-2.345,6.732,6.732,0,0,1,2.352-1.484A8.483,8.483,0,0,1,239.12-14.742ZM239.12-3a2.465,2.465,0,0,0,2.205-1.057,5.846,5.846,0,0,0,.707-3.213,5.808,5.808,0,0,0-.707-3.206,2.47,2.47,0,0,0-2.205-1.05,2.532,2.532,0,0,0-2.254,1.05,5.763,5.763,0,0,0-.714,3.206,5.8,5.8,0,0,0,.714,3.213A2.526,2.526,0,0,0,239.12-3Zm9.772,3V-14.518h2.688a1.2,1.2,0,0,1,.679.182.972.972,0,0,1,.385.546l.252.84a10.545,10.545,0,0,1,.868-.728,5.083,5.083,0,0,1,.959-.567,5.692,5.692,0,0,1,1.106-.364,5.935,5.935,0,0,1,1.295-.133,5.083,5.083,0,0,1,2.107.413,4.373,4.373,0,0,1,1.547,1.148,4.955,4.955,0,0,1,.952,1.75,7.257,7.257,0,0,1,.322,2.2V0h-4.34V-9.226a2.539,2.539,0,0,0-.49-1.659,1.76,1.76,0,0,0-1.442-.6,3.02,3.02,0,0,0-1.344.308,5.226,5.226,0,0,0-1.2.826V0Z" transform="translate(52.3 182.879)" fill="#394049"/>
        <g id="Group_73" data-name="Group 73" transform="translate(53.374 98.479)">
          <line id="Line_3" data-name="Line 3" x2="19.545" y2="19.545" fill="none" stroke="#394049" stroke-linecap="round" stroke-width="3"/>
          <line id="Line_4" data-name="Line 4" x1="19.545" y2="19.545" fill="none" stroke="#394049" stroke-linecap="round" stroke-width="3"/>
        </g>
        <g id="check_box-24px" transform="translate(363.353 263.178)">
          <path id="Path_24" data-name="Path 24" d="M0,0H30.07V30.07H0Z" fill="none"/>
          <path id="Path_25" data-name="Path 25" d="M21.71,3H5.339A2.338,2.338,0,0,0,3,5.339V21.71a2.338,2.338,0,0,0,2.339,2.339H21.71a2.338,2.338,0,0,0,2.339-2.339V5.339A2.338,2.338,0,0,0,21.71,3ZM11.186,19.371,5.339,13.524l1.649-1.649,4.2,4.186,8.876-8.876L21.71,8.847Z" transform="translate(1.51 1.51)" fill="#fff"/>
        </g>
        <g id="Group_77" data-name="Group 77" transform="translate(54.3 315.978)">
          <g id="Rectangle_401" data-name="Rectangle 401" transform="translate(0 27)" fill="#fff" stroke="#afb5bd" stroke-width="1">
            <rect width="364.4" height="55" rx="4" stroke="none"/>
            <rect x="0.5" y="0.5" width="363.4" height="54" rx="3.5" fill="none"/>
          </g>
          <rect id="Rectangle_402" data-name="Rectangle 402" width="145" height="11" rx="5.5" transform="translate(0)" fill="#afb5bd"/>
        </g>
        <g id="Group_76" data-name="Group 76" transform="translate(54.3 427.008)">
          <g id="Rectangle_403" data-name="Rectangle 403" transform="translate(0 27)" fill="#fff" stroke="#afb5bd" stroke-width="1">
            <rect width="364.4" height="55" rx="4" stroke="none"/>
            <rect x="0.5" y="0.5" width="363.4" height="54" rx="3.5" fill="none"/>
          </g>
          <rect id="Rectangle_404" data-name="Rectangle 404" width="145" height="11" rx="5.5" transform="translate(0)" fill="#afb5bd"/>
        </g>
        <g id="Group_75" data-name="Group 75" transform="translate(54.3 540.039)">
          <g id="Rectangle_405" data-name="Rectangle 405" transform="translate(0 27)" fill="#fff" stroke="#afb5bd" stroke-width="1">
            <rect width="364.4" height="54" rx="4" stroke="none"/>
            <rect x="0.5" y="0.5" width="363.4" height="53" rx="3.5" fill="none"/>
          </g>
          <rect id="Rectangle_406" data-name="Rectangle 406" width="145" height="10" rx="5" transform="translate(0)" fill="#afb5bd"/>
        </g>
        <g id="Group_74" data-name="Group 74" transform="translate(54.3 651.069)">
          <g id="Rectangle_407" data-name="Rectangle 407" transform="translate(0 28)" fill="#fff" stroke="#afb5bd" stroke-width="1">
            <rect width="364.4" height="53" rx="4" stroke="none"/>
            <rect x="0.5" y="0.5" width="363.4" height="52" rx="3.5" fill="none"/>
          </g>
          <rect id="Rectangle_408" data-name="Rectangle 408" width="145" height="10" rx="5" transform="translate(0)" fill="#afb5bd"/>
        </g>
        <rect id="Rectangle_409" data-name="Rectangle 409" width="364.4" height="59" rx="29.5" transform="translate(54.3 841.121)" fill="#2272e2"/>
        <path id="Path_127" data-name="Path 127" d="M-48.323-16.756a3.3,3.3,0,0,1,.425.023,1.086,1.086,0,0,1,.311.086,1.036,1.036,0,0,1,.264.178,3.022,3.022,0,0,1,.288.311l7.958,10.062q-.046-.483-.069-.937t-.023-.857v-8.867h3.427V0h-2.024a1.865,1.865,0,0,1-.759-.138,1.624,1.624,0,0,1-.6-.506l-7.9-9.982q.034.437.057.857t.023.788V0H-50.37V-16.756Zm20.447,4.646a6.14,6.14,0,0,1,2.168.368,4.712,4.712,0,0,1,1.69,1.069,4.881,4.881,0,0,1,1.1,1.719,6.309,6.309,0,0,1,.4,2.306,5.033,5.033,0,0,1-.035.655,1.038,1.038,0,0,1-.126.4.482.482,0,0,1-.247.207,1.158,1.158,0,0,1-.4.057H-30.2a3.362,3.362,0,0,0,.909,2.168,2.7,2.7,0,0,0,1.9.673,3.4,3.4,0,0,0,1.069-.15,5.4,5.4,0,0,0,.8-.333q.351-.184.644-.334a1.337,1.337,0,0,1,.615-.15.737.737,0,0,1,.644.31l1.035,1.277a5.3,5.3,0,0,1-1.19,1.029,6.185,6.185,0,0,1-1.311.621A7.106,7.106,0,0,1-26.433.1a10.1,10.1,0,0,1-1.282.086,6.7,6.7,0,0,1-2.352-.408,5.4,5.4,0,0,1-1.92-1.213,5.725,5.725,0,0,1-1.3-2,7.477,7.477,0,0,1-.477-2.783,6.3,6.3,0,0,1,.408-2.265,5.58,5.58,0,0,1,1.173-1.875,5.585,5.585,0,0,1,1.852-1.276A6.111,6.111,0,0,1-27.876-12.109Zm.069,2.461a2.148,2.148,0,0,0-1.6.581,3.026,3.026,0,0,0-.759,1.673h4.45a3.147,3.147,0,0,0-.109-.828,2.007,2.007,0,0,0-.356-.719,1.814,1.814,0,0,0-.65-.512A2.222,2.222,0,0,0-27.807-9.648Zm9.5,3.484-3.841-5.761h3.427a1.209,1.209,0,0,1,.558.1.869.869,0,0,1,.316.328l2.128,3.53a2.65,2.65,0,0,1,.172-.4q.1-.2.23-.414l1.518-2.656a.98.98,0,0,1,.333-.374.864.864,0,0,1,.449-.109h3.266l-3.841,5.6,4,6.325h-3.427a.947.947,0,0,1-.61-.184,1.593,1.593,0,0,1-.379-.437l-2.127-3.657a2.611,2.611,0,0,1-.138.368,3.179,3.179,0,0,1-.173.322L-18.193-.621a1.564,1.564,0,0,1-.368.431.873.873,0,0,1-.575.19H-22.31ZM-3.8.184A4.2,4.2,0,0,1-5.3-.063a2.981,2.981,0,0,1-1.092-.7,2.99,2.99,0,0,1-.673-1.1A4.252,4.252,0,0,1-7.291-3.3V-9.465H-8.3a.675.675,0,0,1-.471-.178.673.673,0,0,1-.2-.523v-1.391l1.9-.368.7-2.91a.708.708,0,0,1,.782-.552h1.863V-11.9h2.9v2.438h-2.9v5.923a1.115,1.115,0,0,0,.2.684.68.68,0,0,0,.581.27,1.141,1.141,0,0,0,.328-.04,1.305,1.305,0,0,0,.23-.092q.1-.052.184-.092a.471.471,0,0,1,.2-.04.415.415,0,0,1,.259.075.926.926,0,0,1,.2.236L-.46-.851a4.92,4.92,0,0,1-1.553.776A6.17,6.17,0,0,1-3.8.184ZM15-13.352a1.46,1.46,0,0,1-.362.414.811.811,0,0,1-.489.138,1.2,1.2,0,0,1-.569-.167q-.3-.167-.69-.374a5.726,5.726,0,0,0-.88-.374,3.52,3.52,0,0,0-1.127-.167,2.425,2.425,0,0,0-1.627.466,1.585,1.585,0,0,0-.535,1.259,1.16,1.16,0,0,0,.322.84,2.776,2.776,0,0,0,.845.575,9.06,9.06,0,0,0,1.2.443q.673.2,1.374.448a12.29,12.29,0,0,1,1.374.581,4.583,4.583,0,0,1,1.2.851,3.972,3.972,0,0,1,.845,1.259,4.477,4.477,0,0,1,.322,1.788,5.827,5.827,0,0,1-.4,2.174,5.089,5.089,0,0,1-1.167,1.765A5.418,5.418,0,0,1,12.736-.247a7.056,7.056,0,0,1-2.547.431A8.165,8.165,0,0,1,8.6.023a9.459,9.459,0,0,1-1.57-.454,9.1,9.1,0,0,1-1.426-.7,6.059,6.059,0,0,1-1.162-.9l1.15-1.817a.936.936,0,0,1,.357-.334A1.01,1.01,0,0,1,6.44-4.3a1.309,1.309,0,0,1,.7.219q.351.219.793.483a6.458,6.458,0,0,0,1.018.483A3.816,3.816,0,0,0,10.3-2.9a2.583,2.583,0,0,0,1.644-.466,1.773,1.773,0,0,0,.587-1.478,1.4,1.4,0,0,0-.322-.954,2.488,2.488,0,0,0-.845-.609,7.788,7.788,0,0,0-1.19-.425q-.667-.184-1.368-.408a10.012,10.012,0,0,1-1.368-.552,4.319,4.319,0,0,1-1.19-.863A4.036,4.036,0,0,1,5.4-9.988a5.3,5.3,0,0,1-.322-1.972,4.68,4.68,0,0,1,.379-1.84,4.75,4.75,0,0,1,1.116-1.6A5.485,5.485,0,0,1,8.383-16.52a6.668,6.668,0,0,1,2.45-.42,9.185,9.185,0,0,1,1.5.121,7.889,7.889,0,0,1,1.386.357,7.61,7.61,0,0,1,1.225.563,5.647,5.647,0,0,1,1.018.742ZM22.31.184a4.2,4.2,0,0,1-1.5-.247,2.981,2.981,0,0,1-1.093-.7,2.99,2.99,0,0,1-.673-1.1,4.252,4.252,0,0,1-.23-1.437V-9.465H17.8a.675.675,0,0,1-.472-.178.673.673,0,0,1-.2-.523v-1.391l1.9-.368.7-2.91a.708.708,0,0,1,.782-.552h1.863V-11.9h2.9v2.438h-2.9v5.923a1.115,1.115,0,0,0,.2.684.68.68,0,0,0,.581.27,1.141,1.141,0,0,0,.328-.04,1.305,1.305,0,0,0,.23-.092q.1-.052.184-.092a.471.471,0,0,1,.2-.04.415.415,0,0,1,.259.075.926.926,0,0,1,.2.236L25.645-.851a4.92,4.92,0,0,1-1.553.776A6.17,6.17,0,0,1,22.31.184ZM32.43-12.109a6.14,6.14,0,0,1,2.168.368,4.712,4.712,0,0,1,1.69,1.069,4.881,4.881,0,0,1,1.1,1.719,6.309,6.309,0,0,1,.4,2.306,5.033,5.033,0,0,1-.035.655,1.037,1.037,0,0,1-.127.4.482.482,0,0,1-.247.207,1.158,1.158,0,0,1-.4.057H30.107a3.362,3.362,0,0,0,.909,2.168,2.7,2.7,0,0,0,1.9.673,3.4,3.4,0,0,0,1.069-.15,5.4,5.4,0,0,0,.8-.333q.351-.184.644-.334a1.337,1.337,0,0,1,.615-.15.737.737,0,0,1,.644.31L37.72-1.863A5.3,5.3,0,0,1,36.53-.834a6.185,6.185,0,0,1-1.311.621A7.106,7.106,0,0,1,33.873.1a10.1,10.1,0,0,1-1.282.086,6.7,6.7,0,0,1-2.352-.408,5.4,5.4,0,0,1-1.92-1.213,5.725,5.725,0,0,1-1.3-2,7.477,7.477,0,0,1-.477-2.783,6.3,6.3,0,0,1,.408-2.265,5.58,5.58,0,0,1,1.173-1.875,5.585,5.585,0,0,1,1.851-1.276A6.111,6.111,0,0,1,32.43-12.109ZM32.5-9.648a2.148,2.148,0,0,0-1.6.581,3.026,3.026,0,0,0-.759,1.673h4.45a3.147,3.147,0,0,0-.109-.828,2.007,2.007,0,0,0-.356-.719,1.814,1.814,0,0,0-.65-.512A2.222,2.222,0,0,0,32.5-9.648ZM39.836,3.783V-11.925h2.208a.984.984,0,0,1,.558.149.8.8,0,0,1,.316.449l.265.874a5.994,5.994,0,0,1,.742-.69,4.887,4.887,0,0,1,.851-.535,4.69,4.69,0,0,1,.977-.351,4.866,4.866,0,0,1,1.144-.127,3.673,3.673,0,0,1,1.725.414,3.975,3.975,0,0,1,1.368,1.2,6.035,6.035,0,0,1,.9,1.915,9.253,9.253,0,0,1,.328,2.57,7.923,7.923,0,0,1-.374,2.484A6.242,6.242,0,0,1,49.8-1.6a4.821,4.821,0,0,1-1.61,1.311,4.553,4.553,0,0,1-2.076.472A4.064,4.064,0,0,1,44.551-.08,4.246,4.246,0,0,1,43.4-.794V3.783ZM45.655-9.43a3.08,3.08,0,0,0-.707.075,2.6,2.6,0,0,0-.586.213,2.224,2.224,0,0,0-.5.351,5.2,5.2,0,0,0-.46.489v5.06a2.254,2.254,0,0,0,.874.627,2.773,2.773,0,0,0,.989.178,2.1,2.1,0,0,0,.909-.2,1.851,1.851,0,0,0,.719-.627,3.338,3.338,0,0,0,.477-1.121,7.023,7.023,0,0,0,.173-1.679A7.724,7.724,0,0,0,47.4-7.648a3.269,3.269,0,0,0-.385-1.041,1.5,1.5,0,0,0-.592-.569A1.7,1.7,0,0,0,45.655-9.43Z" transform="translate(235.002 877.121)" fill="#fff"/>
        <g id="Rectangle_413" data-name="Rectangle 413" transform="translate(52.3 222)" fill="#e9f1fc" stroke="#cfd3d7" stroke-width="1">
          <rect width="366" height="57" rx="7" stroke="none"/>
          <rect x="0.5" y="0.5" width="365" height="56" rx="6.5" fill="none"/>
        </g>
        <rect id="Rectangle_415" data-name="Rectangle 415" width="185" height="57" rx="7" transform="translate(52.3 222)" fill="#2272e2"/>
        <path id="Path_124" data-name="Path 124" d="M4.809-5.113V0H1.26V-15.3h5.4a8.9,8.9,0,0,1,2.777.383,5.33,5.33,0,0,1,1.911,1.055,4.114,4.114,0,0,1,1.108,1.586A5.376,5.376,0,0,1,12.81-10.3a5.8,5.8,0,0,1-.368,2.1,4.214,4.214,0,0,1-1.123,1.638A5.294,5.294,0,0,1,9.4-5.5a8.783,8.783,0,0,1-2.746.383Zm0-2.678H6.657a2.6,2.6,0,0,0,2-.662A2.627,2.627,0,0,0,9.261-10.3a2.764,2.764,0,0,0-.158-.956A1.944,1.944,0,0,0,8.626-12a2.148,2.148,0,0,0-.808-.478,3.576,3.576,0,0,0-1.16-.168H4.809Zm14.2-3.265a5.606,5.606,0,0,1,1.979.336,4.3,4.3,0,0,1,1.544.977,4.457,4.457,0,0,1,1.008,1.57A5.76,5.76,0,0,1,23.9-6.069a4.6,4.6,0,0,1-.031.6.947.947,0,0,1-.116.368.44.44,0,0,1-.226.189,1.057,1.057,0,0,1-.362.053H16.884a3.07,3.07,0,0,0,.83,1.979,2.468,2.468,0,0,0,1.732.614,3.1,3.1,0,0,0,.977-.136,4.926,4.926,0,0,0,.73-.3q.32-.168.588-.3A1.221,1.221,0,0,1,22.3-3.15a.673.673,0,0,1,.588.284L23.835-1.7a4.838,4.838,0,0,1-1.087.94,5.647,5.647,0,0,1-1.2.567,6.488,6.488,0,0,1-1.229.284,9.219,9.219,0,0,1-1.171.079A6.113,6.113,0,0,1,17-.2a4.934,4.934,0,0,1-1.753-1.108,5.227,5.227,0,0,1-1.186-1.827,6.826,6.826,0,0,1-.436-2.541A5.75,5.75,0,0,1,14-7.749a5.1,5.1,0,0,1,1.071-1.712,5.1,5.1,0,0,1,1.691-1.165A5.579,5.579,0,0,1,19.005-11.056Zm.063,2.247a1.961,1.961,0,0,0-1.46.53,2.763,2.763,0,0,0-.693,1.528h4.063a2.873,2.873,0,0,0-.1-.756,1.833,1.833,0,0,0-.326-.656,1.656,1.656,0,0,0-.593-.467A2.029,2.029,0,0,0,19.068-8.809ZM25.767,0V-10.888H27.7a1.647,1.647,0,0,1,.4.042.709.709,0,0,1,.273.131.56.56,0,0,1,.168.236,2.131,2.131,0,0,1,.1.357L28.823-9.1a5.336,5.336,0,0,1,1.344-1.46,2.731,2.731,0,0,1,1.628-.535,1.875,1.875,0,0,1,1.2.357l-.42,2.394a.467.467,0,0,1-.168.31.57.57,0,0,1-.336.089A2.229,2.229,0,0,1,31.647-8a3.256,3.256,0,0,0-.609-.047,2.236,2.236,0,0,0-2.016,1.365V0ZM41.1-8.505a.842.842,0,0,1-.268.283.7.7,0,0,1-.362.084,1.157,1.157,0,0,1-.462-.1l-.5-.215a5.434,5.434,0,0,0-.6-.215,2.7,2.7,0,0,0-.766-.1,1.621,1.621,0,0,0-.95.236.761.761,0,0,0-.331.656.658.658,0,0,0,.215.5,1.975,1.975,0,0,0,.572.352,7.893,7.893,0,0,0,.808.289q.451.136.924.3a8.228,8.228,0,0,1,.924.394,3.456,3.456,0,0,1,.808.557,2.484,2.484,0,0,1,.572.8A2.72,2.72,0,0,1,41.9-3.539,3.729,3.729,0,0,1,41.6-2.047a3.166,3.166,0,0,1-.877,1.176A4.146,4.146,0,0,1,39.286-.1a6.48,6.48,0,0,1-1.969.273A5.991,5.991,0,0,1,36.2.063,7.709,7.709,0,0,1,35.128-.22a5.863,5.863,0,0,1-.961-.425,4.167,4.167,0,0,1-.756-.53l.756-1.2a1.088,1.088,0,0,1,.326-.331.9.9,0,0,1,.493-.121A1.027,1.027,0,0,1,35.5-2.7l.488.273a4.07,4.07,0,0,0,.614.273,2.663,2.663,0,0,0,.887.126,2.254,2.254,0,0,0,.64-.079,1.129,1.129,0,0,0,.42-.215.86.86,0,0,0,.231-.3.856.856,0,0,0,.073-.346.707.707,0,0,0-.22-.536,1.921,1.921,0,0,0-.577-.362,7.041,7.041,0,0,0-.814-.284q-.457-.131-.929-.3a7.464,7.464,0,0,1-.929-.4,3.2,3.2,0,0,1-.814-.6,2.781,2.781,0,0,1-.578-.887,3.277,3.277,0,0,1-.22-1.271,3.31,3.31,0,0,1,.268-1.318,3.059,3.059,0,0,1,.8-1.1,3.944,3.944,0,0,1,1.344-.751,5.811,5.811,0,0,1,1.89-.278,6.076,6.076,0,0,1,1.139.1,5.822,5.822,0,0,1,1.034.294,4.954,4.954,0,0,1,.882.446,4.236,4.236,0,0,1,.7.562Zm7.434-2.551a6.289,6.289,0,0,1,2.257.388,4.951,4.951,0,0,1,1.748,1.113A5.014,5.014,0,0,1,53.671-7.8a6.345,6.345,0,0,1,.4,2.326,6.46,6.46,0,0,1-.4,2.347,5.048,5.048,0,0,1-1.134,1.775A4.975,4.975,0,0,1,50.788-.226a6.213,6.213,0,0,1-2.257.394,6.286,6.286,0,0,1-2.273-.394,5.073,5.073,0,0,1-1.764-1.123,4.975,4.975,0,0,1-1.145-1.775,6.46,6.46,0,0,1-.4-2.347,6.345,6.345,0,0,1,.4-2.326,4.941,4.941,0,0,1,1.145-1.759,5.049,5.049,0,0,1,1.764-1.113A6.362,6.362,0,0,1,48.531-11.056Zm0,8.809a1.849,1.849,0,0,0,1.654-.793,4.384,4.384,0,0,0,.53-2.41,4.356,4.356,0,0,0-.53-2.4,1.853,1.853,0,0,0-1.654-.788,1.9,1.9,0,0,0-1.69.788,4.322,4.322,0,0,0-.536,2.4,4.35,4.35,0,0,0,.536,2.41A1.894,1.894,0,0,0,48.531-2.247ZM55.86,0V-10.888h2.016a.9.9,0,0,1,.509.136.729.729,0,0,1,.289.41l.189.63a7.908,7.908,0,0,1,.651-.546,3.813,3.813,0,0,1,.719-.425,4.269,4.269,0,0,1,.829-.273,4.451,4.451,0,0,1,.971-.1,3.812,3.812,0,0,1,1.58.31,3.279,3.279,0,0,1,1.16.861,3.716,3.716,0,0,1,.714,1.313,5.442,5.442,0,0,1,.242,1.654V0H62.475V-6.919a1.9,1.9,0,0,0-.368-1.244,1.32,1.32,0,0,0-1.082-.446,2.265,2.265,0,0,0-1.008.231,3.92,3.92,0,0,0-.9.619V0Zm19.7,0a1.525,1.525,0,0,1-.7-.126.963.963,0,0,1-.394-.525l-.231-.6q-.41.346-.787.609a4.992,4.992,0,0,1-.782.446A3.863,3.863,0,0,1,71.8.079a5.3,5.3,0,0,1-1.013.089,4.443,4.443,0,0,1-1.354-.194A2.826,2.826,0,0,1,68.4-.6a2.516,2.516,0,0,1-.656-.94,3.389,3.389,0,0,1-.231-1.3,2.72,2.72,0,0,1,.294-1.186,2.927,2.927,0,0,1,1.019-1.108,6.473,6.473,0,0,1,1.953-.835,13.1,13.1,0,0,1,3.1-.378V-6.8a2,2,0,0,0-.394-1.381,1.448,1.448,0,0,0-1.118-.425,2.967,2.967,0,0,0-.945.126,4.248,4.248,0,0,0-.656.283q-.289.158-.562.284a1.543,1.543,0,0,1-.651.126.984.984,0,0,1-.572-.163,1.209,1.209,0,0,1-.373-.4l-.588-1.019a6.619,6.619,0,0,1,2.189-1.3,7.675,7.675,0,0,1,2.578-.425,4.714,4.714,0,0,1,1.78.32,3.83,3.83,0,0,1,1.344.892,3.9,3.9,0,0,1,.845,1.36A4.887,4.887,0,0,1,77.049-6.8V0ZM71.82-1.984a2.583,2.583,0,0,0,1.1-.22,3.359,3.359,0,0,0,.955-.714V-4.431a10.806,10.806,0,0,0-1.606.168,3.9,3.9,0,0,0-1,.315,1.207,1.207,0,0,0-.509.43,1.019,1.019,0,0,0-.142.525.912.912,0,0,0,.3.782A1.486,1.486,0,0,0,71.82-1.984Zm10.9-13.734V0H79.464V-15.719Z" transform="translate(103.3 260)" fill="#fff"/>
        <path id="Path_125" data-name="Path 125" d="M1.26,0V-15.3H6.888a10.7,10.7,0,0,1,2.7.294,5.141,5.141,0,0,1,1.816.83,3.144,3.144,0,0,1,1.024,1.3,4.4,4.4,0,0,1,.32,1.711,3.355,3.355,0,0,1-.147.992,2.921,2.921,0,0,1-.462.9,3.45,3.45,0,0,1-.809.761,5.212,5.212,0,0,1-1.186.593A4.213,4.213,0,0,1,12.38-6.725,3.087,3.087,0,0,1,13.1-4.609a4.375,4.375,0,0,1-.378,1.816,4.16,4.16,0,0,1-1.108,1.465,5.252,5.252,0,0,1-1.8.976A7.831,7.831,0,0,1,7.371,0ZM4.809-6.489v3.811h2.5a3.134,3.134,0,0,0,1.15-.179,1.817,1.817,0,0,0,.7-.462A1.55,1.55,0,0,0,9.5-3.959,2.82,2.82,0,0,0,9.6-4.683a2.418,2.418,0,0,0-.11-.756,1.25,1.25,0,0,0-.378-.567A1.847,1.847,0,0,0,8.4-6.363a4.13,4.13,0,0,0-1.113-.126Zm0-2.373H6.657a6.09,6.09,0,0,0,1.061-.084,2.2,2.2,0,0,0,.8-.294,1.35,1.35,0,0,0,.5-.578,2.166,2.166,0,0,0,.173-.924,2.6,2.6,0,0,0-.137-.908,1.3,1.3,0,0,0-.42-.583,1.763,1.763,0,0,0-.719-.315,4.938,4.938,0,0,0-1.034-.094H4.809Zm13.272-2.026V-3.98a1.9,1.9,0,0,0,.368,1.25,1.327,1.327,0,0,0,1.081.441,2.32,2.32,0,0,0,1-.22,3.74,3.74,0,0,0,.908-.62v-7.759H24.7V0H22.68a.765.765,0,0,1-.8-.546l-.2-.63a6.318,6.318,0,0,1-.651.551,3.984,3.984,0,0,1-.719.42,4.3,4.3,0,0,1-.824.273,4.38,4.38,0,0,1-.966.1,3.812,3.812,0,0,1-1.58-.31,3.251,3.251,0,0,1-1.16-.866,3.778,3.778,0,0,1-.714-1.312,5.428,5.428,0,0,1-.241-1.659v-6.909ZM33.873-8.505a.842.842,0,0,1-.268.283.7.7,0,0,1-.362.084,1.157,1.157,0,0,1-.462-.1l-.5-.215a5.434,5.434,0,0,0-.6-.215,2.7,2.7,0,0,0-.767-.1,1.621,1.621,0,0,0-.95.236.761.761,0,0,0-.331.656.658.658,0,0,0,.215.5,1.975,1.975,0,0,0,.572.352,7.893,7.893,0,0,0,.809.289q.452.136.924.3a8.228,8.228,0,0,1,.924.394,3.456,3.456,0,0,1,.809.557,2.484,2.484,0,0,1,.572.8,2.72,2.72,0,0,1,.215,1.134,3.729,3.729,0,0,1-.294,1.491A3.166,3.166,0,0,1,33.5-.871,4.146,4.146,0,0,1,32.062-.1a6.48,6.48,0,0,1-1.969.273A5.991,5.991,0,0,1,28.98.063,7.709,7.709,0,0,1,27.9-.22a5.863,5.863,0,0,1-.961-.425,4.167,4.167,0,0,1-.756-.53l.756-1.2a1.088,1.088,0,0,1,.326-.331.9.9,0,0,1,.493-.121,1.027,1.027,0,0,1,.509.126l.488.273a4.07,4.07,0,0,0,.614.273,2.663,2.663,0,0,0,.887.126,2.254,2.254,0,0,0,.64-.079,1.129,1.129,0,0,0,.42-.215.859.859,0,0,0,.231-.3.856.856,0,0,0,.073-.346.707.707,0,0,0-.221-.536,1.921,1.921,0,0,0-.577-.362,7.041,7.041,0,0,0-.814-.284q-.457-.131-.929-.3a7.464,7.464,0,0,1-.929-.4,3.2,3.2,0,0,1-.814-.6,2.781,2.781,0,0,1-.577-.887,3.277,3.277,0,0,1-.221-1.271,3.31,3.31,0,0,1,.268-1.318,3.059,3.059,0,0,1,.8-1.1,3.944,3.944,0,0,1,1.344-.751,5.811,5.811,0,0,1,1.89-.278,6.076,6.076,0,0,1,1.139.1,5.822,5.822,0,0,1,1.034.294,4.953,4.953,0,0,1,.882.446,4.236,4.236,0,0,1,.7.562Zm5.943-2.383V0H36.561V-10.888Zm.378-2.982a1.72,1.72,0,0,1-.158.73,1.921,1.921,0,0,1-.431.6,2.108,2.108,0,0,1-.635.409,1.971,1.971,0,0,1-.772.152,1.832,1.832,0,0,1-.745-.152,2.1,2.1,0,0,1-.614-.409,1.89,1.89,0,0,1-.42-.6,1.771,1.771,0,0,1-.152-.73,1.832,1.832,0,0,1,.152-.745,1.934,1.934,0,0,1,.42-.609,1.967,1.967,0,0,1,.614-.409,1.889,1.889,0,0,1,.745-.147,2.033,2.033,0,0,1,.772.147,1.982,1.982,0,0,1,.635.409,1.965,1.965,0,0,1,.431.609A1.78,1.78,0,0,1,40.194-13.87ZM42.441,0V-10.888h2.016a.9.9,0,0,1,.509.136.729.729,0,0,1,.289.41l.189.63a7.908,7.908,0,0,1,.651-.546,3.813,3.813,0,0,1,.719-.425,4.269,4.269,0,0,1,.829-.273,4.451,4.451,0,0,1,.971-.1,3.812,3.812,0,0,1,1.58.31,3.279,3.279,0,0,1,1.16.861,3.716,3.716,0,0,1,.714,1.313,5.443,5.443,0,0,1,.241,1.654V0H49.056V-6.919a1.9,1.9,0,0,0-.368-1.244,1.32,1.32,0,0,0-1.082-.446,2.265,2.265,0,0,0-1.008.231,3.92,3.92,0,0,0-.9.619V0ZM59.283-11.056a5.606,5.606,0,0,1,1.979.336,4.3,4.3,0,0,1,1.543.977,4.457,4.457,0,0,1,1.008,1.57,5.76,5.76,0,0,1,.362,2.105,4.6,4.6,0,0,1-.032.6.947.947,0,0,1-.116.368.44.44,0,0,1-.226.189,1.057,1.057,0,0,1-.362.053H57.162a3.07,3.07,0,0,0,.83,1.979,2.468,2.468,0,0,0,1.732.614A3.1,3.1,0,0,0,60.7-2.4a4.926,4.926,0,0,0,.73-.3q.32-.168.588-.3a1.221,1.221,0,0,1,.562-.137.673.673,0,0,1,.588.284L64.113-1.7a4.838,4.838,0,0,1-1.087.94,5.647,5.647,0,0,1-1.2.567A6.488,6.488,0,0,1,60.6.089,9.219,9.219,0,0,1,59.43.168,6.113,6.113,0,0,1,57.283-.2a4.934,4.934,0,0,1-1.753-1.108,5.227,5.227,0,0,1-1.187-1.827,6.827,6.827,0,0,1-.436-2.541,5.75,5.75,0,0,1,.373-2.068,5.1,5.1,0,0,1,1.071-1.712,5.1,5.1,0,0,1,1.69-1.165A5.58,5.58,0,0,1,59.283-11.056Zm.063,2.247a1.961,1.961,0,0,0-1.459.53,2.763,2.763,0,0,0-.693,1.528h4.063a2.873,2.873,0,0,0-.1-.756,1.833,1.833,0,0,0-.326-.656,1.656,1.656,0,0,0-.593-.467A2.029,2.029,0,0,0,59.346-8.809Zm13.356.3a.842.842,0,0,1-.268.283.7.7,0,0,1-.362.084,1.157,1.157,0,0,1-.462-.1l-.5-.215a5.434,5.434,0,0,0-.6-.215,2.7,2.7,0,0,0-.767-.1,1.621,1.621,0,0,0-.95.236.761.761,0,0,0-.331.656.658.658,0,0,0,.215.5,1.975,1.975,0,0,0,.572.352,7.893,7.893,0,0,0,.808.289q.452.136.924.3a8.228,8.228,0,0,1,.924.394,3.456,3.456,0,0,1,.808.557,2.484,2.484,0,0,1,.572.8A2.72,2.72,0,0,1,73.5-3.539a3.729,3.729,0,0,1-.294,1.491,3.166,3.166,0,0,1-.877,1.176A4.146,4.146,0,0,1,70.891-.1a6.48,6.48,0,0,1-1.969.273A5.991,5.991,0,0,1,67.809.063,7.71,7.71,0,0,1,66.733-.22a5.863,5.863,0,0,1-.961-.425,4.167,4.167,0,0,1-.756-.53l.756-1.2A1.088,1.088,0,0,1,66.1-2.7a.9.9,0,0,1,.493-.121A1.027,1.027,0,0,1,67.1-2.7l.488.273a4.07,4.07,0,0,0,.614.273,2.663,2.663,0,0,0,.887.126,2.254,2.254,0,0,0,.641-.079,1.129,1.129,0,0,0,.42-.215.859.859,0,0,0,.231-.3.856.856,0,0,0,.074-.346.707.707,0,0,0-.22-.536,1.921,1.921,0,0,0-.577-.362,7.041,7.041,0,0,0-.814-.284q-.457-.131-.929-.3a7.464,7.464,0,0,1-.929-.4,3.2,3.2,0,0,1-.814-.6,2.781,2.781,0,0,1-.577-.887,3.277,3.277,0,0,1-.221-1.271,3.31,3.31,0,0,1,.268-1.318,3.059,3.059,0,0,1,.8-1.1,3.944,3.944,0,0,1,1.344-.751,5.811,5.811,0,0,1,1.89-.278,6.076,6.076,0,0,1,1.139.1,5.822,5.822,0,0,1,1.034.294,4.954,4.954,0,0,1,.882.446,4.235,4.235,0,0,1,.7.562Zm9.24,0a.842.842,0,0,1-.268.283.7.7,0,0,1-.362.084,1.157,1.157,0,0,1-.462-.1l-.5-.215a5.434,5.434,0,0,0-.6-.215,2.7,2.7,0,0,0-.767-.1,1.621,1.621,0,0,0-.95.236.761.761,0,0,0-.331.656.658.658,0,0,0,.215.5,1.975,1.975,0,0,0,.572.352,7.892,7.892,0,0,0,.809.289q.452.136.924.3a8.227,8.227,0,0,1,.924.394,3.456,3.456,0,0,1,.809.557,2.484,2.484,0,0,1,.572.8,2.72,2.72,0,0,1,.215,1.134,3.729,3.729,0,0,1-.294,1.491,3.166,3.166,0,0,1-.877,1.176A4.146,4.146,0,0,1,80.131-.1a6.48,6.48,0,0,1-1.969.273A5.991,5.991,0,0,1,77.049.063,7.71,7.71,0,0,1,75.973-.22a5.863,5.863,0,0,1-.961-.425,4.167,4.167,0,0,1-.756-.53l.756-1.2a1.088,1.088,0,0,1,.326-.331.9.9,0,0,1,.493-.121,1.027,1.027,0,0,1,.509.126l.488.273a4.07,4.07,0,0,0,.614.273,2.663,2.663,0,0,0,.887.126,2.254,2.254,0,0,0,.641-.079,1.129,1.129,0,0,0,.42-.215.859.859,0,0,0,.231-.3.856.856,0,0,0,.074-.346.707.707,0,0,0-.22-.536,1.921,1.921,0,0,0-.577-.362,7.041,7.041,0,0,0-.814-.284q-.457-.131-.929-.3a7.464,7.464,0,0,1-.929-.4,3.2,3.2,0,0,1-.814-.6,2.781,2.781,0,0,1-.577-.887,3.277,3.277,0,0,1-.221-1.271,3.31,3.31,0,0,1,.268-1.318,3.059,3.059,0,0,1,.8-1.1,3.944,3.944,0,0,1,1.344-.751,5.811,5.811,0,0,1,1.89-.278,6.076,6.076,0,0,1,1.139.1,5.822,5.822,0,0,1,1.034.294,4.954,4.954,0,0,1,.882.446,4.236,4.236,0,0,1,.7.562Z" transform="translate(285.3 260)" fill="#2272e2"/>
      </g>
      <g id="Rectangle_418" data-name="Rectangle 418" transform="translate(287 71)" fill="rgba(207,211,216,0.27)" stroke="#cfd3d7" stroke-width="1">
        <rect width="129" height="17" rx="8.5" stroke="none"/>
        <rect x="0.5" y="0.5" width="128" height="16" rx="8" fill="none"/>
      </g>
    </g>
  </g>
</svg>
