<svg xmlns="http://www.w3.org/2000/svg" xmlns:xlink="http://www.w3.org/1999/xlink" width="701.26" height="1051.88" viewBox="0 0 701.26 1051.88">
  <defs>
    <filter id="Rectangle_452" x="152.5" y="452.5" width="397" height="255" filterUnits="userSpaceOnUse">
      <feOffset dy="2" input="SourceAlpha"/>
      <feGaussianBlur stdDeviation="5.5" result="blur"/>
      <feFlood flood-opacity="0.082"/>
      <feComposite operator="in" in2="blur"/>
      <feComposite in="SourceGraphic"/>
    </filter>
    <filter id="Rectangle_459" x="152.5" y="698.5" width="397" height="157" filterUnits="userSpaceOnUse">
      <feOffset dy="2" input="SourceAlpha"/>
      <feGaussianBlur stdDeviation="5.5" result="blur-2"/>
      <feFlood flood-opacity="0.082"/>
      <feComposite operator="in" in2="blur-2"/>
      <feComposite in="SourceGraphic"/>
    </filter>
    <clipPath id="clip-Image_12">
      <rect width="701.26" height="1051.88"/>
    </clipPath>
  </defs>
  <g id="Image_12" data-name="Image 12" clip-path="url(#clip-Image_12)">
    <rect width="701.26" height="1051.88" fill="rgba(255,255,255,0)"/>
    <g id="Group_104" data-name="Group 104" transform="translate(114.488 40)">
      <g id="Path_138" data-name="Path 138" fill="#eff0f2">
        <path d="M64,0H409a64,64,0,0,1,64,64V909a64,64,0,0,1-64,64H64A64,64,0,0,1,0,909V64A64,64,0,0,1,64,0Z" stroke="none"/>
        <path d="M 64 1 C 55.49462890625 1 47.24411010742188 2.6656494140625 39.47787475585938 5.95050048828125 C 35.7449951171875 7.52923583984375 32.14474487304688 9.4835205078125 28.77676391601562 11.75872802734375 C 25.44061279296875 14.01263427734375 22.30337524414062 16.60113525390625 19.45223999023438 19.4522705078125 C 16.60113525390625 22.3033447265625 14.01263427734375 25.44061279296875 11.75875854492188 28.7767333984375 C 9.483489990234375 32.144775390625 7.52923583984375 35.7449951171875 5.95050048828125 39.4779052734375 C 2.665618896484375 47.244140625 1 55.49462890625 1 64 L 1 909 C 1 917.50537109375 2.665618896484375 925.755859375 5.95050048828125 933.5220947265625 C 7.52923583984375 937.2550048828125 9.483489990234375 940.855224609375 11.75875854492188 944.2232666015625 C 14.01263427734375 947.5593872070312 16.60113525390625 950.6966552734375 19.45223999023438 953.5477294921875 C 22.30337524414062 956.3988647460938 25.44061279296875 958.9873657226562 28.77676391601562 961.2412719726562 C 32.14474487304688 963.5164794921875 35.7449951171875 965.4707641601562 39.47787475585938 967.0494995117188 C 47.24411010742188 970.3343505859375 55.49462890625 972 64 972 L 409 972 C 417.50537109375 972 425.755859375 970.3343505859375 433.5221252441406 967.0494995117188 C 437.2550048828125 965.4707641601562 440.8552551269531 963.5164794921875 444.2232360839844 961.2412719726562 C 447.5593872070312 958.9873657226562 450.6966247558594 956.3988647460938 453.5477600097656 953.5477294921875 C 456.3988647460938 950.6966552734375 458.9873657226562 947.5593872070312 461.2412414550781 944.2232666015625 C 463.5165100097656 940.855224609375 465.4707641601562 937.2550048828125 467.0494995117188 933.5220947265625 C 470.3343811035156 925.755859375 472 917.50537109375 472 909 L 472 64 C 472 55.49462890625 470.3343811035156 47.244140625 467.0494995117188 39.4779052734375 C 465.4707641601562 35.7449951171875 463.5165100097656 32.144775390625 461.2412414550781 28.7767333984375 C 458.9873657226562 25.44061279296875 456.3988647460938 22.3033447265625 453.5477600097656 19.4522705078125 C 450.6966247558594 16.60113525390625 447.5593872070312 14.01263427734375 444.2232360839844 11.75872802734375 C 440.8552551269531 9.4835205078125 437.2550048828125 7.52923583984375 433.5221252441406 5.95050048828125 C 425.755859375 2.6656494140625 417.50537109375 1 409 1 L 64 1 M 64 0 L 409 0 C 444.3462524414062 0 473 28.65374755859375 473 64 L 473 909 C 473 944.3462524414062 444.3462524414062 973 409 973 L 64 973 C 28.65374755859375 973 0 944.3462524414062 0 909 L 0 64 C 0 28.65374755859375 28.65374755859375 0 64 0 Z" stroke="none" fill="rgba(207,211,215,0.7)"/>
      </g>
      <g id="Group_91" data-name="Group 91" transform="translate(20 20.879)">
        <g id="Subtraction_2" data-name="Subtraction 2" transform="translate(0 0)" fill="#fff">
          <path d="M380.4,926.241H52a51.956,51.956,0,0,1-52-52V52A51.956,51.956,0,0,1,52,0H83.072V13.685a28.976,28.976,0,0,0,29,29H320.327a28.912,28.912,0,0,0,20.507-8.494,28.91,28.91,0,0,0,8.494-20.506V0H380.4a51.957,51.957,0,0,1,52,52V874.242a51.957,51.957,0,0,1-52,52Z" stroke="none"/>
          <path d="M 380.3994445800781 925.2415161132812 C 387.2845153808594 925.2415161132812 393.9634399414062 923.8931884765625 400.250732421875 921.2340087890625 C 406.3235778808594 918.6654052734375 411.7778015136719 914.9879760742188 416.4620361328125 910.3040161132812 C 421.1461486816406 905.619873046875 424.8235778808594 900.1656494140625 427.3921508789062 894.0928344726562 C 430.0513305664062 887.8056640625 431.3996887207031 881.126953125 431.3996887207031 874.2420043945312 L 431.3996887207031 52.00022506713867 C 431.3996887207031 45.11516571044922 430.0513305664062 38.43622589111328 427.3921508789062 32.14893341064453 C 424.8234558105469 26.07587432861328 421.1460266113281 20.62163734436035 416.4620361328125 15.93752098083496 C 411.7778015136719 11.25340270996094 406.3235778808594 7.575991153717041 400.250732421875 5.00752067565918 C 393.9640197753906 2.348344087600708 387.2850952148438 1.00010883808136 380.3994445800781 1.00010883808136 L 350.3279113769531 0.9999949336051941 L 350.3279113769531 13.68457984924316 C 350.3279113769531 17.7339916229248 349.5345153808594 21.66281509399414 347.9696960449219 25.36187362670898 C 346.458740234375 28.93422698974609 344.2956848144531 32.1423454284668 341.5407409667969 34.89752197265625 C 338.7857971191406 37.65234375 335.5775756835938 39.81528472900391 332.0049743652344 41.32622528076172 C 328.3056945800781 42.89104843139648 324.3766174316406 43.68446350097656 320.3270874023438 43.68446350097656 L 112.0715637207031 43.68446350097656 C 108.0220336914062 43.68446350097656 104.0930938720703 42.89104843139648 100.393913269043 41.32634353637695 C 96.82144927978516 39.81528472900391 93.61332702636719 37.65234375 90.85850524902344 34.89740371704102 C 88.10368347167969 32.14269638061523 85.94074249267578 28.93446159362793 84.42967987060547 25.36187362670898 C 82.86521148681641 21.66304969787598 82.07191467285156 17.73422622680664 82.07180023193359 13.68457984924316 L 82.07180023193359 1.00010883808136 L 51.99932861328125 1.00010883808136 C 45.11368179321289 1.00010883808136 38.43473815917969 2.348344087600708 32.14815139770508 5.00752067565918 C 26.07521057128906 7.576108932495117 20.62109184265137 11.25352096557617 15.93709278106689 15.93752098083496 C 11.25321006774902 20.62163734436035 7.575916290283203 26.07587432861328 5.007328033447266 32.14893341064453 C 2.348151445388794 38.43610763549805 0.9999162554740906 45.11505126953125 1.000151515007019 52.00022506713867 L 1.000151515007019 874.2420043945312 C 1.000151515007019 881.1276245117188 2.348386764526367 887.8063354492188 5.007328033447266 894.0928344726562 C 7.575916290283203 900.1658935546875 11.25321006774902 905.6201171875 15.93709278106689 910.3040161132812 C 20.62109184265137 914.9878540039062 26.07521057128906 918.665283203125 32.14815139770508 921.2340087890625 C 38.43544387817383 923.8931884765625 45.1142692565918 925.2415161132812 51.99932861328125 925.2415161132812 L 380.3994445800781 925.2415161132812 M 380.3994445800781 926.2415161132812 L 51.99932861328125 926.2415161132812 C 44.97956466674805 926.2415161132812 38.16968154907227 924.8665771484375 31.75862121582031 922.155029296875 C 25.56650352478027 919.535888671875 20.00544548034668 915.7864379882812 15.23003387451172 911.0110473632812 C 10.45462226867676 906.2356567382812 6.705327987670898 900.674560546875 4.086269378662109 894.4823608398438 C 1.374857425689697 888.0718994140625 0.0001515251642558724 881.261962890625 0.0001515251642558724 874.2420043945312 L 0.0001515251642558724 52.00022506713867 C -8.376895857509226e-05 44.98034286499023 1.374739766120911 38.17034530639648 4.086269378662109 31.75940322875977 C 6.705327987670898 25.56704902648926 10.45462226867676 20.00599098205566 15.23003387451172 15.23046207427979 C 20.00544548034668 10.45493221282959 25.56650352478027 6.705520629882812 31.75862121582031 4.086461544036865 C 38.16920852661133 1.374932289123535 44.97920989990234 0.0001087861892301589 51.99932861328125 0.0001087861892301589 L 83.07180023193359 0.0001087861892301589 L 83.07180023193359 13.68457984924316 C 83.07191467285156 17.59951972961426 83.838623046875 21.39728546142578 85.35073852539062 24.97234344482422 C 86.81132507324219 28.42563819885254 88.90226745605469 31.52705001831055 91.56556701660156 34.19034576416016 C 94.22885894775391 36.8536376953125 97.33026885986328 38.94469833374023 100.783447265625 40.4052848815918 C 104.3587417602539 41.91763687133789 108.156623840332 42.68446350097656 112.0715637207031 42.68446350097656 L 320.3270874023438 42.68446350097656 C 324.2420349121094 42.68446350097656 328.0400390625 41.91763687133789 331.6154479980469 40.4052848815918 C 335.0687255859375 38.94469833374023 338.1702575683594 36.8536376953125 340.8336791992188 34.19034576416016 C 343.4972229003906 31.52669715881348 345.5881652832031 28.4254035949707 347.0487365722656 24.97234344482422 C 348.5610961914062 21.39716720581055 349.3279113769531 17.59940338134766 349.3279113769531 13.68457984924316 L 349.3279113769531 -8.86086854734458e-06 L 380.3994445800781 0.0001087861892301589 C 387.4195556640625 0.0001087861892301589 394.2295532226562 1.374932289123535 400.6402587890625 4.086461544036865 C 406.8323974609375 6.705402851104736 412.3934326171875 10.45481491088867 417.1690979003906 15.23046207427979 C 421.9446105957031 20.00599098205566 425.6940307617188 25.56704902648926 428.3132019042969 31.75940322875977 C 431.0247497558594 38.17046356201172 432.3996887207031 44.98046112060547 432.3996887207031 52.00022506713867 L 432.3996887207031 874.2420043945312 C 432.3996887207031 881.2616577148438 431.0247497558594 888.0714111328125 428.3132019042969 894.4823608398438 C 425.6941528320312 900.67431640625 421.9447326660156 906.2354125976562 417.1690979003906 911.0110473632812 C 412.3934326171875 915.7865600585938 406.8323974609375 919.5360107421875 400.6402587890625 922.155029296875 C 394.2292175292969 924.8665771484375 387.4192199707031 926.2415161132812 380.3994445800781 926.2415161132812 Z" stroke="none" fill="rgba(207,211,215,0.47)"/>
        </g>
        <g id="check_box-24px" transform="translate(343.053 242.299)">
          <path id="Path_24" data-name="Path 24" d="M0,0H30.07V30.07H0Z" fill="none"/>
          <path id="Path_25" data-name="Path 25" d="M21.71,3H5.339A2.338,2.338,0,0,0,3,5.339V21.71a2.338,2.338,0,0,0,2.339,2.339H21.71a2.338,2.338,0,0,0,2.339-2.339V5.339A2.338,2.338,0,0,0,21.71,3ZM11.186,19.371,5.339,13.524l1.649-1.649,4.2,4.186,8.876-8.876L21.71,8.847Z" transform="translate(1.51 1.51)" fill="#fff"/>
        </g>
        <text id="Recipts" transform="translate(50.511 96.121)" fill="#fff" font-size="14" font-family="Lato-Black, Lato" font-weight="800"><tspan x="0" y="0">Recipts</tspan></text>
      </g>
      <g id="Rectangle_418" data-name="Rectangle 418" transform="translate(171.512 31)" fill="rgba(207,211,216,0.27)" stroke="#cfd3d7" stroke-width="1">
        <rect width="129" height="17" rx="8.5" stroke="none"/>
        <rect x="0.5" y="0.5" width="128" height="16" rx="8" fill="none"/>
      </g>
    </g>
    <path id="Path_155" data-name="Path 155" d="M6.183-7.276V0H1.62V-19.67h6.4a13.132,13.132,0,0,1,3.638.439,6.831,6.831,0,0,1,2.457,1.222A4.624,4.624,0,0,1,15.5-16.16a6.127,6.127,0,0,1,.432,2.322,6.234,6.234,0,0,1-.256,1.809,5.478,5.478,0,0,1-.763,1.573,5.9,5.9,0,0,1-1.242,1.289,6.6,6.6,0,0,1-1.694.931,4.289,4.289,0,0,1,.857.567,3.374,3.374,0,0,1,.7.823L17.712,0H13.581a1.753,1.753,0,0,1-1.647-.864L8.667-6.575a1.375,1.375,0,0,0-.506-.54,1.694,1.694,0,0,0-.817-.162Zm0-3.146H8.019a4.7,4.7,0,0,0,1.586-.236,2.866,2.866,0,0,0,1.073-.655,2.493,2.493,0,0,0,.608-.979,3.757,3.757,0,0,0,.189-1.208,2.534,2.534,0,0,0-.844-2.025,3.927,3.927,0,0,0-2.612-.729H6.183Zm19.386-3.793a7.208,7.208,0,0,1,2.545.432A5.532,5.532,0,0,1,30.1-12.528a5.73,5.73,0,0,1,1.3,2.018A7.406,7.406,0,0,1,31.86-7.8a5.908,5.908,0,0,1-.041.769,1.218,1.218,0,0,1-.148.473.565.565,0,0,1-.29.243,1.359,1.359,0,0,1-.466.067H22.842a3.947,3.947,0,0,0,1.067,2.545,3.173,3.173,0,0,0,2.227.79,3.987,3.987,0,0,0,1.255-.175,6.334,6.334,0,0,0,.938-.391q.412-.216.756-.392a1.57,1.57,0,0,1,.722-.176.865.865,0,0,1,.756.365l1.215,1.5a6.221,6.221,0,0,1-1.4,1.208,7.261,7.261,0,0,1-1.539.729,8.342,8.342,0,0,1-1.58.365,11.853,11.853,0,0,1-1.505.1A7.86,7.86,0,0,1,23-.263a6.344,6.344,0,0,1-2.254-1.424,6.72,6.72,0,0,1-1.525-2.349,8.777,8.777,0,0,1-.56-3.267,7.393,7.393,0,0,1,.479-2.659,6.55,6.55,0,0,1,1.377-2.2,6.556,6.556,0,0,1,2.174-1.5A7.174,7.174,0,0,1,25.569-14.215Zm.081,2.889a2.522,2.522,0,0,0-1.876.682,3.552,3.552,0,0,0-.891,1.964h5.224a3.694,3.694,0,0,0-.128-.972,2.356,2.356,0,0,0-.419-.844,2.129,2.129,0,0,0-.763-.6A2.608,2.608,0,0,0,25.65-11.326ZM34.263,4.441V-14h2.592a1.155,1.155,0,0,1,.655.175.937.937,0,0,1,.371.526l.311,1.026a7.036,7.036,0,0,1,.871-.81,5.737,5.737,0,0,1,1-.628,5.506,5.506,0,0,1,1.147-.412,5.713,5.713,0,0,1,1.343-.149,4.312,4.312,0,0,1,2.025.486,4.666,4.666,0,0,1,1.606,1.4,7.085,7.085,0,0,1,1.06,2.248,10.862,10.862,0,0,1,.385,3.017A9.3,9.3,0,0,1,47.189-4.2a7.327,7.327,0,0,1-1.229,2.322,5.659,5.659,0,0,1-1.89,1.539,5.345,5.345,0,0,1-2.437.554A4.77,4.77,0,0,1,39.8-.095a4.985,4.985,0,0,1-1.35-.837V4.441ZM41.094-11.07a3.616,3.616,0,0,0-.83.088,3.05,3.05,0,0,0-.688.25,2.611,2.611,0,0,0-.587.412,6.1,6.1,0,0,0-.54.574v5.94a2.645,2.645,0,0,0,1.026.736,3.256,3.256,0,0,0,1.161.209,2.466,2.466,0,0,0,1.066-.23,2.173,2.173,0,0,0,.844-.736,3.918,3.918,0,0,0,.56-1.316,8.245,8.245,0,0,0,.2-1.971,9.067,9.067,0,0,0-.162-1.863,3.838,3.838,0,0,0-.452-1.222,1.756,1.756,0,0,0-.7-.668A1.994,1.994,0,0,0,41.094-11.07Zm15.012-3.146a8.085,8.085,0,0,1,2.9.5,6.366,6.366,0,0,1,2.248,1.431,6.446,6.446,0,0,1,1.458,2.261,8.158,8.158,0,0,1,.52,2.99,8.305,8.305,0,0,1-.52,3.017,6.491,6.491,0,0,1-1.458,2.282A6.4,6.4,0,0,1,59.008-.29a7.989,7.989,0,0,1-2.9.506A8.082,8.082,0,0,1,53.183-.29a6.522,6.522,0,0,1-2.268-1.445,6.4,6.4,0,0,1-1.471-2.282,8.305,8.305,0,0,1-.52-3.017,8.158,8.158,0,0,1,.52-2.99,6.353,6.353,0,0,1,1.471-2.261,6.491,6.491,0,0,1,2.268-1.431A8.18,8.18,0,0,1,56.106-14.215Zm0,11.326a2.377,2.377,0,0,0,2.126-1.019,5.637,5.637,0,0,0,.682-3.1,5.6,5.6,0,0,0-.682-3.092,2.382,2.382,0,0,0-2.126-1.012A2.441,2.441,0,0,0,53.933-10.1a5.557,5.557,0,0,0-.689,3.092,5.592,5.592,0,0,0,.689,3.1A2.436,2.436,0,0,0,56.106-2.889ZM65.529,0V-14h2.484a2.118,2.118,0,0,1,.52.054.912.912,0,0,1,.351.169.72.72,0,0,1,.216.3,2.738,2.738,0,0,1,.128.459l.23,1.309a6.86,6.86,0,0,1,1.728-1.877,3.511,3.511,0,0,1,2.092-.689,2.411,2.411,0,0,1,1.539.459l-.54,3.078a.6.6,0,0,1-.216.4.733.733,0,0,1-.432.115,2.865,2.865,0,0,1-.54-.061,4.186,4.186,0,0,0-.783-.061,2.874,2.874,0,0,0-2.592,1.755V0ZM81.594.216a4.935,4.935,0,0,1-1.762-.29A3.5,3.5,0,0,1,78.55-.9a3.51,3.51,0,0,1-.79-1.289,4.991,4.991,0,0,1-.27-1.687v-7.236H76.3a.793.793,0,0,1-.553-.209.79.79,0,0,1-.229-.614v-1.634L77.746-14l.824-3.415a.832.832,0,0,1,.918-.648h2.187v4.091h3.4v2.862h-3.4v6.953a1.308,1.308,0,0,0,.236.8.8.8,0,0,0,.682.317,1.34,1.34,0,0,0,.385-.047,1.532,1.532,0,0,0,.27-.108q.115-.061.216-.108a.553.553,0,0,1,.236-.047.487.487,0,0,1,.3.088,1.087,1.087,0,0,1,.236.277L85.509-1a5.775,5.775,0,0,1-1.822.911A7.243,7.243,0,0,1,81.594.216ZM96.039-10.935a1.083,1.083,0,0,1-.344.365.9.9,0,0,1-.466.108,1.488,1.488,0,0,1-.594-.128l-.641-.277a6.987,6.987,0,0,0-.776-.277,3.465,3.465,0,0,0-.985-.128,2.084,2.084,0,0,0-1.222.3.979.979,0,0,0-.425.844.846.846,0,0,0,.277.648,2.539,2.539,0,0,0,.736.452,10.147,10.147,0,0,0,1.039.371q.581.175,1.188.391a10.579,10.579,0,0,1,1.188.506,4.443,4.443,0,0,1,1.039.716,3.194,3.194,0,0,1,.736,1.033,3.5,3.5,0,0,1,.277,1.458,4.794,4.794,0,0,1-.378,1.917A4.071,4.071,0,0,1,95.56-1.12a5.331,5.331,0,0,1-1.85.985,8.331,8.331,0,0,1-2.531.351A7.7,7.7,0,0,1,89.748.081a9.912,9.912,0,0,1-1.384-.364A7.538,7.538,0,0,1,87.129-.83a5.357,5.357,0,0,1-.972-.682l.972-1.539a1.4,1.4,0,0,1,.419-.425,1.162,1.162,0,0,1,.634-.155,1.32,1.32,0,0,1,.655.162l.628.351a5.233,5.233,0,0,0,.79.351,3.424,3.424,0,0,0,1.141.162,2.9,2.9,0,0,0,.823-.1,1.451,1.451,0,0,0,.54-.277,1.105,1.105,0,0,0,.3-.391,1.1,1.1,0,0,0,.094-.445.909.909,0,0,0-.284-.688,2.47,2.47,0,0,0-.743-.466,9.052,9.052,0,0,0-1.046-.365q-.587-.169-1.195-.385a9.6,9.6,0,0,1-1.195-.52,4.11,4.11,0,0,1-1.046-.77A3.576,3.576,0,0,1,86.9-8.154a4.214,4.214,0,0,1-.284-1.634,4.256,4.256,0,0,1,.344-1.694,3.934,3.934,0,0,1,1.033-1.411,5.071,5.071,0,0,1,1.728-.965,7.471,7.471,0,0,1,2.43-.358,7.813,7.813,0,0,1,1.465.135,7.486,7.486,0,0,1,1.33.378,6.369,6.369,0,0,1,1.134.574,5.446,5.446,0,0,1,.9.722Z" transform="translate(167 193)" fill="#394049"/>
    <g id="Group_48" data-name="Group 48" transform="translate(167 241)">
      <rect id="Rectangle_433" data-name="Rectangle 433" width="364.4" height="59" rx="29.5" transform="translate(0 640)" fill="#2272e2"/>
    </g>
    <path id="Path_156" data-name="Path 156" d="M-34.177-4.147a.747.747,0,0,1,.264.049.718.718,0,0,1,.253.17l1.474,1.551A6.119,6.119,0,0,1-34.612-.468,8.487,8.487,0,0,1-38.06.176a8.215,8.215,0,0,1-3.273-.622,7.082,7.082,0,0,1-2.453-1.716,7.557,7.557,0,0,1-1.545-2.6,9.586,9.586,0,0,1-.539-3.261,8.6,8.6,0,0,1,.616-3.294A7.684,7.684,0,0,1-43.533-13.9,7.765,7.765,0,0,1-40.887-15.6a9.22,9.22,0,0,1,3.4-.605,8.658,8.658,0,0,1,1.7.16,8.306,8.306,0,0,1,1.49.44,7.012,7.012,0,0,1,1.276.671,6.15,6.15,0,0,1,1.034.863l-1.254,1.683a1.6,1.6,0,0,1-.286.281.744.744,0,0,1-.462.127.825.825,0,0,1-.374-.088,4.135,4.135,0,0,1-.374-.214l-.434-.275a3.334,3.334,0,0,0-.561-.275,4.636,4.636,0,0,0-.759-.214,5.179,5.179,0,0,0-1.017-.088,4.653,4.653,0,0,0-1.848.358,4.052,4.052,0,0,0-1.436,1.023,4.744,4.744,0,0,0-.935,1.611,6.322,6.322,0,0,0-.335,2.123,6.6,6.6,0,0,0,.335,2.189,4.807,4.807,0,0,0,.913,1.611,3.874,3.874,0,0,0,1.347,1,4.029,4.029,0,0,0,1.65.341,7.9,7.9,0,0,0,.924-.049,3.814,3.814,0,0,0,.776-.171,3.587,3.587,0,0,0,.682-.313,4.553,4.553,0,0,0,.654-.479,1.3,1.3,0,0,1,.286-.181A.749.749,0,0,1-34.177-4.147Zm8.767-7.436a6.588,6.588,0,0,1,2.365.407,5.187,5.187,0,0,1,1.832,1.166,5.252,5.252,0,0,1,1.188,1.842A6.647,6.647,0,0,1-19.6-5.731a6.767,6.767,0,0,1-.424,2.459,5.289,5.289,0,0,1-1.188,1.859A5.212,5.212,0,0,1-23.045-.237,6.509,6.509,0,0,1-25.41.176a6.586,6.586,0,0,1-2.382-.413A5.315,5.315,0,0,1-29.64-1.413a5.212,5.212,0,0,1-1.2-1.859,6.767,6.767,0,0,1-.424-2.459,6.647,6.647,0,0,1,.424-2.437,5.176,5.176,0,0,1,1.2-1.842,5.289,5.289,0,0,1,1.848-1.166A6.665,6.665,0,0,1-25.41-11.583Zm0,9.229a1.937,1.937,0,0,0,1.733-.83,4.593,4.593,0,0,0,.556-2.525,4.564,4.564,0,0,0-.556-2.519,1.941,1.941,0,0,0-1.733-.825,1.989,1.989,0,0,0-1.771.825,4.528,4.528,0,0,0-.561,2.519,4.557,4.557,0,0,0,.561,2.525A1.985,1.985,0,0,0-25.41-2.354ZM-17.732,0V-11.407h2.112a.941.941,0,0,1,.533.143.764.764,0,0,1,.3.429l.2.66a8.285,8.285,0,0,1,.682-.572,3.994,3.994,0,0,1,.753-.446,4.472,4.472,0,0,1,.869-.286,4.663,4.663,0,0,1,1.017-.1,3.994,3.994,0,0,1,1.656.325,3.435,3.435,0,0,1,1.215.9,3.893,3.893,0,0,1,.748,1.375,5.7,5.7,0,0,1,.253,1.733V0H-10.8V-7.249a2,2,0,0,0-.385-1.3A1.383,1.383,0,0,0-12.32-9.02a2.373,2.373,0,0,0-1.056.242,4.106,4.106,0,0,0-.946.649V0ZM-.968.176A4.021,4.021,0,0,1-2.4-.06,2.851,2.851,0,0,1-3.449-.732a2.86,2.86,0,0,1-.644-1.051,4.067,4.067,0,0,1-.22-1.375v-5.9H-5.28a.646.646,0,0,1-.451-.17.643.643,0,0,1-.187-.5v-1.331l1.815-.352.671-2.783a.678.678,0,0,1,.748-.528H-.9v3.333H1.87v2.332H-.9v5.665a1.066,1.066,0,0,0,.192.655.65.65,0,0,0,.556.259,1.092,1.092,0,0,0,.313-.039A1.248,1.248,0,0,0,.379-2.6q.094-.049.176-.088a.451.451,0,0,1,.193-.039A.4.4,0,0,1,1-2.657a.885.885,0,0,1,.192.226L2.222-.814A4.706,4.706,0,0,1,.737-.072,5.9,5.9,0,0,1-.968.176ZM7.348-11.407V0H3.938V-11.407Zm.4-3.124a1.8,1.8,0,0,1-.165.764,2.012,2.012,0,0,1-.451.627,2.208,2.208,0,0,1-.665.429,2.065,2.065,0,0,1-.809.16,1.92,1.92,0,0,1-.781-.16,2.2,2.2,0,0,1-.643-.429,1.98,1.98,0,0,1-.44-.627,1.855,1.855,0,0,1-.159-.764,1.92,1.92,0,0,1,.159-.781,2.027,2.027,0,0,1,.44-.638,2.061,2.061,0,0,1,.643-.429,1.979,1.979,0,0,1,.781-.154,2.129,2.129,0,0,1,.809.154,2.076,2.076,0,0,1,.665.429,2.059,2.059,0,0,1,.451.638A1.865,1.865,0,0,1,7.744-14.531ZM10.1,0V-11.407H12.21a.941.941,0,0,1,.533.143.764.764,0,0,1,.3.429l.2.66a8.285,8.285,0,0,1,.682-.572,3.994,3.994,0,0,1,.753-.446,4.472,4.472,0,0,1,.869-.286,4.663,4.663,0,0,1,1.017-.1,3.994,3.994,0,0,1,1.656.325,3.435,3.435,0,0,1,1.215.9,3.893,3.893,0,0,1,.748,1.375,5.7,5.7,0,0,1,.253,1.733V0h-3.41V-7.249a2,2,0,0,0-.385-1.3A1.383,1.383,0,0,0,15.51-9.02a2.373,2.373,0,0,0-1.056.242,4.106,4.106,0,0,0-.946.649V0Zm15.95-11.407v7.238a1.99,1.99,0,0,0,.385,1.309,1.391,1.391,0,0,0,1.133.462,2.43,2.43,0,0,0,1.05-.231,3.918,3.918,0,0,0,.952-.649v-8.129h3.41V0H30.866a.8.8,0,0,1-.836-.572l-.209-.66a6.619,6.619,0,0,1-.682.577,4.174,4.174,0,0,1-.753.44,4.5,4.5,0,0,1-.863.286,4.588,4.588,0,0,1-1.012.1,3.994,3.994,0,0,1-1.656-.325,3.406,3.406,0,0,1-1.215-.907,3.958,3.958,0,0,1-.748-1.375,5.687,5.687,0,0,1-.253-1.738v-7.238ZM40.5-11.583a5.873,5.873,0,0,1,2.074.352,4.508,4.508,0,0,1,1.617,1.023,4.669,4.669,0,0,1,1.056,1.644,6.035,6.035,0,0,1,.379,2.206,4.814,4.814,0,0,1-.033.627.992.992,0,0,1-.121.385.461.461,0,0,1-.236.2,1.108,1.108,0,0,1-.379.055H38.28a3.216,3.216,0,0,0,.869,2.073,2.586,2.586,0,0,0,1.815.644,3.249,3.249,0,0,0,1.023-.143,5.161,5.161,0,0,0,.764-.319q.336-.176.616-.319a1.279,1.279,0,0,1,.589-.143.7.7,0,0,1,.616.3l.99,1.221A5.069,5.069,0,0,1,44.424-.8,5.916,5.916,0,0,1,43.17-.2a6.8,6.8,0,0,1-1.287.3,9.658,9.658,0,0,1-1.226.083,6.4,6.4,0,0,1-2.25-.391,5.169,5.169,0,0,1-1.837-1.16,5.476,5.476,0,0,1-1.243-1.914,7.152,7.152,0,0,1-.457-2.662,6.024,6.024,0,0,1,.391-2.167,5.337,5.337,0,0,1,1.122-1.793,5.342,5.342,0,0,1,1.771-1.221A5.845,5.845,0,0,1,40.5-11.583Zm.066,2.354a2.055,2.055,0,0,0-1.529.556,2.894,2.894,0,0,0-.726,1.6H42.57a3.01,3.01,0,0,0-.1-.792,1.92,1.92,0,0,0-.341-.687,1.735,1.735,0,0,0-.622-.49A2.125,2.125,0,0,0,40.568-9.229Z" transform="translate(349 919)" fill="#fff"/>
    <g id="Group_77" data-name="Group 77" transform="translate(168.718 249.978)">
      <g id="Rectangle_401" data-name="Rectangle 401" transform="translate(0 27)" fill="#fff" stroke="#afb5bd" stroke-width="1">
        <rect width="364.4" height="55" rx="4" stroke="none"/>
        <rect x="0.5" y="0.5" width="363.4" height="54" rx="3.5" fill="none"/>
      </g>
      <rect id="Rectangle_402" data-name="Rectangle 402" width="145" height="11" rx="5.5" transform="translate(0)" fill="#afb5bd"/>
    </g>
    <g id="Group_76" data-name="Group 76" transform="translate(168.718 361.008)">
      <g id="Rectangle_403" data-name="Rectangle 403" transform="translate(0 27)" fill="#fff" stroke="#afb5bd" stroke-width="1">
        <rect width="364.4" height="55" rx="4" stroke="none"/>
        <rect x="0.5" y="0.5" width="363.4" height="54" rx="3.5" fill="none"/>
      </g>
      <rect id="Rectangle_404" data-name="Rectangle 404" width="145" height="11" rx="5.5" transform="translate(0.282 -0.008)" fill="#afb5bd"/>
    </g>
    <g transform="matrix(1, 0, 0, 1, 0, 0)" filter="url(#Rectangle_452)">
      <g id="Rectangle_452-2" data-name="Rectangle 452" transform="translate(169 467)" fill="#fff" stroke="rgba(175,181,189,0.19)" stroke-width="1">
        <rect width="364" height="222" rx="8" stroke="none"/>
        <rect x="0.5" y="0.5" width="363" height="221" rx="7.5" fill="none"/>
      </g>
    </g>
    <g transform="matrix(1, 0, 0, 1, 0, 0)" filter="url(#Rectangle_459)">
      <g id="Rectangle_459-2" data-name="Rectangle 459" transform="translate(169 713)" fill="#fff" stroke="rgba(175,181,189,0.19)" stroke-width="1">
        <rect width="364" height="124" rx="8" stroke="none"/>
        <rect x="0.5" y="0.5" width="363" height="123" rx="7.5" fill="none"/>
      </g>
    </g>
    <rect id="Rectangle_453" data-name="Rectangle 453" width="145" height="11" rx="5.5" transform="translate(199 499)" fill="#afb5bd"/>
    <rect id="Rectangle_458" data-name="Rectangle 458" width="145" height="11" rx="5.5" transform="translate(199 745)" fill="#afb5bd"/>
    <rect id="Rectangle_460" data-name="Rectangle 460" width="215" height="6" rx="3" transform="translate(199 769)" fill="#afb5bd"/>
    <rect id="Rectangle_461" data-name="Rectangle 461" width="165" height="6" rx="3" transform="translate(199 788)" fill="#afb5bd"/>
    <rect id="Rectangle_454" data-name="Rectangle 454" width="105" height="11" rx="5.5" transform="translate(199 550)" fill="#afb5bd"/>
    <rect id="Rectangle_455" data-name="Rectangle 455" width="145" height="11" rx="5.5" transform="translate(199 601)" fill="#afb5bd"/>
    <rect id="Rectangle_456" data-name="Rectangle 456" width="175" height="11" rx="5.5" transform="translate(199 652)" fill="#afb5bd"/>
    <g id="done-24px" transform="translate(473 484)">
      <path id="Path_153" data-name="Path 153" d="M0,0H40.43V40.43H0Z" fill="none"/>
      <path id="Path_154" data-name="Path 154" d="M12.555,23.177l-5.9-5.9A1.668,1.668,0,0,0,4.3,19.64L11.359,26.7a1.678,1.678,0,0,0,2.375,0L31.59,8.859A1.668,1.668,0,1,0,29.232,6.5Z" transform="translate(2.607 4.113)" fill="#2272e2"/>
    </g>
    <g id="done-24px-2" data-name="done-24px" transform="translate(473 535)">
      <path id="Path_153-2" data-name="Path 153" d="M0,0H40.43V40.43H0Z" fill="none"/>
      <path id="Path_154-2" data-name="Path 154" d="M12.555,23.177l-5.9-5.9A1.668,1.668,0,0,0,4.3,19.64L11.359,26.7a1.678,1.678,0,0,0,2.375,0L31.59,8.859A1.668,1.668,0,1,0,29.232,6.5Z" transform="translate(2.607 4.113)" fill="#2272e2"/>
    </g>
    <g id="done-24px-3" data-name="done-24px" transform="translate(473 586)">
      <path id="Path_153-3" data-name="Path 153" d="M0,0H40.43V40.43H0Z" fill="none"/>
      <path id="Path_154-3" data-name="Path 154" d="M12.555,23.177l-5.9-5.9A1.668,1.668,0,0,0,4.3,19.64L11.359,26.7a1.678,1.678,0,0,0,2.375,0L31.59,8.859A1.668,1.668,0,1,0,29.232,6.5Z" transform="translate(2.607 4.113)" fill="#2272e2"/>
    </g>
    <g id="done-24px-4" data-name="done-24px" transform="translate(473 730)">
      <path id="Path_153-4" data-name="Path 153" d="M0,0H40.43V40.43H0Z" fill="none"/>
      <path id="Path_154-4" data-name="Path 154" d="M12.555,23.177l-5.9-5.9A1.668,1.668,0,0,0,4.3,19.64L11.359,26.7a1.678,1.678,0,0,0,2.375,0L31.59,8.859A1.668,1.668,0,1,0,29.232,6.5Z" transform="translate(2.607 4.113)" fill="#2272e2"/>
    </g>
  </g>
</svg>
