<svg xmlns="http://www.w3.org/2000/svg" xmlns:xlink="http://www.w3.org/1999/xlink" width="701.26" height="1051.88" viewBox="0 0 701.26 1051.88">
  <defs>
    <clipPath id="clip-Image_11_1">
      <rect width="701.26" height="1051.88"/>
    </clipPath>
  </defs>
  <g id="Image_11_1" data-name="Image 11 – 1" clip-path="url(#clip-Image_11_1)">
    <rect width="701.26" height="1051.88" fill="rgba(255,255,255,0)"/>
    <g id="Group_104" data-name="Group 104" transform="translate(114.488 40)">
      <g id="Path_138" data-name="Path 138" fill="#eff0f2">
        <path d="M64,0H409a64,64,0,0,1,64,64V909a64,64,0,0,1-64,64H64A64,64,0,0,1,0,909V64A64,64,0,0,1,64,0Z" stroke="none"/>
        <path d="M 64 1 C 55.49462890625 1 47.24411010742188 2.6656494140625 39.47787475585938 5.95050048828125 C 35.7449951171875 7.52923583984375 32.14474487304688 9.4835205078125 28.77676391601562 11.75872802734375 C 25.44061279296875 14.01263427734375 22.30337524414062 16.60113525390625 19.45223999023438 19.4522705078125 C 16.60113525390625 22.3033447265625 14.01263427734375 25.44061279296875 11.75875854492188 28.7767333984375 C 9.483489990234375 32.144775390625 7.52923583984375 35.7449951171875 5.95050048828125 39.4779052734375 C 2.665618896484375 47.244140625 1 55.49462890625 1 64 L 1 909 C 1 917.50537109375 2.665618896484375 925.755859375 5.95050048828125 933.5220947265625 C 7.52923583984375 937.2550048828125 9.483489990234375 940.855224609375 11.75875854492188 944.2232666015625 C 14.01263427734375 947.5593872070312 16.60113525390625 950.6966552734375 19.45223999023438 953.5477294921875 C 22.30337524414062 956.3988647460938 25.44061279296875 958.9873657226562 28.77676391601562 961.2412719726562 C 32.14474487304688 963.5164794921875 35.7449951171875 965.4707641601562 39.47787475585938 967.0494995117188 C 47.24411010742188 970.3343505859375 55.49462890625 972 64 972 L 409 972 C 417.50537109375 972 425.755859375 970.3343505859375 433.5221252441406 967.0494995117188 C 437.2550048828125 965.4707641601562 440.8552551269531 963.5164794921875 444.2232360839844 961.2412719726562 C 447.5593872070312 958.9873657226562 450.6966247558594 956.3988647460938 453.5477600097656 953.5477294921875 C 456.3988647460938 950.6966552734375 458.9873657226562 947.5593872070312 461.2412414550781 944.2232666015625 C 463.5165100097656 940.855224609375 465.4707641601562 937.2550048828125 467.0494995117188 933.5220947265625 C 470.3343811035156 925.755859375 472 917.50537109375 472 909 L 472 64 C 472 55.49462890625 470.3343811035156 47.244140625 467.0494995117188 39.4779052734375 C 465.4707641601562 35.7449951171875 463.5165100097656 32.144775390625 461.2412414550781 28.7767333984375 C 458.9873657226562 25.44061279296875 456.3988647460938 22.3033447265625 453.5477600097656 19.4522705078125 C 450.6966247558594 16.60113525390625 447.5593872070312 14.01263427734375 444.2232360839844 11.75872802734375 C 440.8552551269531 9.4835205078125 437.2550048828125 7.52923583984375 433.5221252441406 5.95050048828125 C 425.755859375 2.6656494140625 417.50537109375 1 409 1 L 64 1 M 64 0 L 409 0 C 444.3462524414062 0 473 28.65374755859375 473 64 L 473 909 C 473 944.3462524414062 444.3462524414062 973 409 973 L 64 973 C 28.65374755859375 973 0 944.3462524414062 0 909 L 0 64 C 0 28.65374755859375 28.65374755859375 0 64 0 Z" stroke="none" fill="rgba(207,211,215,0.7)"/>
      </g>
      <g id="Group_91" data-name="Group 91" transform="translate(20 20.879)">
        <g id="Subtraction_2" data-name="Subtraction 2" transform="translate(0 0)" fill="#fff">
          <path d="M380.4,926.241H52a51.956,51.956,0,0,1-52-52V52A51.956,51.956,0,0,1,52,0H83.072V13.685a28.976,28.976,0,0,0,29,29H320.327a28.912,28.912,0,0,0,20.507-8.494,28.91,28.91,0,0,0,8.494-20.506V0H380.4a51.957,51.957,0,0,1,52,52V874.242a51.957,51.957,0,0,1-52,52Z" stroke="none"/>
          <path d="M 380.3994445800781 925.2415161132812 C 387.2845153808594 925.2415161132812 393.9634399414062 923.8931884765625 400.250732421875 921.2340087890625 C 406.3235778808594 918.6654052734375 411.7778015136719 914.9879760742188 416.4620361328125 910.3040161132812 C 421.1461486816406 905.619873046875 424.8235778808594 900.1656494140625 427.3921508789062 894.0928344726562 C 430.0513305664062 887.8056640625 431.3996887207031 881.126953125 431.3996887207031 874.2420043945312 L 431.3996887207031 52.00022506713867 C 431.3996887207031 45.11516571044922 430.0513305664062 38.43622589111328 427.3921508789062 32.14893341064453 C 424.8234558105469 26.07587432861328 421.1460266113281 20.62163734436035 416.4620361328125 15.93752098083496 C 411.7778015136719 11.25340270996094 406.3235778808594 7.575991153717041 400.250732421875 5.00752067565918 C 393.9640197753906 2.348344087600708 387.2850952148438 1.00010883808136 380.3994445800781 1.00010883808136 L 350.3279113769531 0.9999949336051941 L 350.3279113769531 13.68457984924316 C 350.3279113769531 17.7339916229248 349.5345153808594 21.66281509399414 347.9696960449219 25.36187362670898 C 346.458740234375 28.93422698974609 344.2956848144531 32.1423454284668 341.5407409667969 34.89752197265625 C 338.7857971191406 37.65234375 335.5775756835938 39.81528472900391 332.0049743652344 41.32622528076172 C 328.3056945800781 42.89104843139648 324.3766174316406 43.68446350097656 320.3270874023438 43.68446350097656 L 112.0715637207031 43.68446350097656 C 108.0220336914062 43.68446350097656 104.0930938720703 42.89104843139648 100.393913269043 41.32634353637695 C 96.82144927978516 39.81528472900391 93.61332702636719 37.65234375 90.85850524902344 34.89740371704102 C 88.10368347167969 32.14269638061523 85.94074249267578 28.93446159362793 84.42967987060547 25.36187362670898 C 82.86521148681641 21.66304969787598 82.07191467285156 17.73422622680664 82.07180023193359 13.68457984924316 L 82.07180023193359 1.00010883808136 L 51.99932861328125 1.00010883808136 C 45.11368179321289 1.00010883808136 38.43473815917969 2.348344087600708 32.14815139770508 5.00752067565918 C 26.07521057128906 7.576108932495117 20.62109184265137 11.25352096557617 15.93709278106689 15.93752098083496 C 11.25321006774902 20.62163734436035 7.575916290283203 26.07587432861328 5.007328033447266 32.14893341064453 C 2.348151445388794 38.43610763549805 0.9999162554740906 45.11505126953125 1.000151515007019 52.00022506713867 L 1.000151515007019 874.2420043945312 C 1.000151515007019 881.1276245117188 2.348386764526367 887.8063354492188 5.007328033447266 894.0928344726562 C 7.575916290283203 900.1658935546875 11.25321006774902 905.6201171875 15.93709278106689 910.3040161132812 C 20.62109184265137 914.9878540039062 26.07521057128906 918.665283203125 32.14815139770508 921.2340087890625 C 38.43544387817383 923.8931884765625 45.1142692565918 925.2415161132812 51.99932861328125 925.2415161132812 L 380.3994445800781 925.2415161132812 M 380.3994445800781 926.2415161132812 L 51.99932861328125 926.2415161132812 C 44.97956466674805 926.2415161132812 38.16968154907227 924.8665771484375 31.75862121582031 922.155029296875 C 25.56650352478027 919.535888671875 20.00544548034668 915.7864379882812 15.23003387451172 911.0110473632812 C 10.45462226867676 906.2356567382812 6.705327987670898 900.674560546875 4.086269378662109 894.4823608398438 C 1.374857425689697 888.0718994140625 0.0001515251642558724 881.261962890625 0.0001515251642558724 874.2420043945312 L 0.0001515251642558724 52.00022506713867 C -8.376895857509226e-05 44.98034286499023 1.374739766120911 38.17034530639648 4.086269378662109 31.75940322875977 C 6.705327987670898 25.56704902648926 10.45462226867676 20.00599098205566 15.23003387451172 15.23046207427979 C 20.00544548034668 10.45493221282959 25.56650352478027 6.705520629882812 31.75862121582031 4.086461544036865 C 38.16920852661133 1.374932289123535 44.97920989990234 0.0001087861892301589 51.99932861328125 0.0001087861892301589 L 83.07180023193359 0.0001087861892301589 L 83.07180023193359 13.68457984924316 C 83.07191467285156 17.59951972961426 83.838623046875 21.39728546142578 85.35073852539062 24.97234344482422 C 86.81132507324219 28.42563819885254 88.90226745605469 31.52705001831055 91.56556701660156 34.19034576416016 C 94.22885894775391 36.8536376953125 97.33026885986328 38.94469833374023 100.783447265625 40.4052848815918 C 104.3587417602539 41.91763687133789 108.156623840332 42.68446350097656 112.0715637207031 42.68446350097656 L 320.3270874023438 42.68446350097656 C 324.2420349121094 42.68446350097656 328.0400390625 41.91763687133789 331.6154479980469 40.4052848815918 C 335.0687255859375 38.94469833374023 338.1702575683594 36.8536376953125 340.8336791992188 34.19034576416016 C 343.4972229003906 31.52669715881348 345.5881652832031 28.4254035949707 347.0487365722656 24.97234344482422 C 348.5610961914062 21.39716720581055 349.3279113769531 17.59940338134766 349.3279113769531 13.68457984924316 L 349.3279113769531 -8.86086854734458e-06 L 380.3994445800781 0.0001087861892301589 C 387.4195556640625 0.0001087861892301589 394.2295532226562 1.374932289123535 400.6402587890625 4.086461544036865 C 406.8323974609375 6.705402851104736 412.3934326171875 10.45481491088867 417.1690979003906 15.23046207427979 C 421.9446105957031 20.00599098205566 425.6940307617188 25.56704902648926 428.3132019042969 31.75940322875977 C 431.0247497558594 38.17046356201172 432.3996887207031 44.98046112060547 432.3996887207031 52.00022506713867 L 432.3996887207031 874.2420043945312 C 432.3996887207031 881.2616577148438 431.0247497558594 888.0714111328125 428.3132019042969 894.4823608398438 C 425.6941528320312 900.67431640625 421.9447326660156 906.2354125976562 417.1690979003906 911.0110473632812 C 412.3934326171875 915.7865600585938 406.8323974609375 919.5360107421875 400.6402587890625 922.155029296875 C 394.2292175292969 924.8665771484375 387.4192199707031 926.2415161132812 380.3994445800781 926.2415161132812 Z" stroke="none" fill="rgba(207,211,215,0.47)"/>
        </g>
        <g id="check_box-24px" transform="translate(343.053 242.299)">
          <path id="Path_24" data-name="Path 24" d="M0,0H30.07V30.07H0Z" fill="none"/>
          <path id="Path_25" data-name="Path 25" d="M21.71,3H5.339A2.338,2.338,0,0,0,3,5.339V21.71a2.338,2.338,0,0,0,2.339,2.339H21.71a2.338,2.338,0,0,0,2.339-2.339V5.339A2.338,2.338,0,0,0,21.71,3ZM11.186,19.371,5.339,13.524l1.649-1.649,4.2,4.186,8.876-8.876L21.71,8.847Z" transform="translate(1.51 1.51)" fill="#fff"/>
        </g>
        <text id="Recipts" transform="translate(50.511 96.121)" fill="#fff" font-size="14" font-family="Lato-Black, Lato" font-weight="800"><tspan x="0" y="0">Recipts</tspan></text>
      </g>
      <g id="Rectangle_418" data-name="Rectangle 418" transform="translate(171.512 31)" fill="rgba(207,211,216,0.27)" stroke="#cfd3d7" stroke-width="1">
        <rect width="129" height="17" rx="8.5" stroke="none"/>
        <rect x="0.5" y="0.5" width="128" height="16" rx="8" fill="none"/>
      </g>
    </g>
    <path id="Path_144" data-name="Path 144" d="M11.677-8.991q.27.513.52,1.067t.479,1.134q.229-.594.486-1.154t.527-1.087l5.049-9.936a1.65,1.65,0,0,1,.277-.4.906.906,0,0,1,.317-.209,1.33,1.33,0,0,1,.4-.081q.223-.014.52-.014h3.483V0H19.71V-11.313q0-.823.081-1.782L14.58-2.984a1.717,1.717,0,0,1-.655.716,1.811,1.811,0,0,1-.938.243h-.621a1.811,1.811,0,0,1-.938-.243,1.717,1.717,0,0,1-.655-.716L5.535-13.109q.054.473.081.938t.027.857V0H1.62V-19.67H5.1q.3,0,.52.014a1.33,1.33,0,0,1,.4.081.906.906,0,0,1,.317.209,1.65,1.65,0,0,1,.277.4ZM36.639,0a1.961,1.961,0,0,1-.9-.162,1.238,1.238,0,0,1-.506-.675l-.3-.77q-.527.446-1.013.783A6.417,6.417,0,0,1,32.92-.25,4.967,4.967,0,0,1,31.813.1a6.813,6.813,0,0,1-1.3.115,5.712,5.712,0,0,1-1.741-.25,3.633,3.633,0,0,1-1.33-.736A3.235,3.235,0,0,1,26.6-1.978a4.357,4.357,0,0,1-.3-1.667,3.5,3.5,0,0,1,.378-1.525,3.763,3.763,0,0,1,1.309-1.424A8.323,8.323,0,0,1,30.5-7.668a16.848,16.848,0,0,1,3.982-.486v-.594a2.567,2.567,0,0,0-.506-1.775,1.862,1.862,0,0,0-1.438-.547,3.814,3.814,0,0,0-1.215.162,5.462,5.462,0,0,0-.844.365q-.371.2-.722.365a1.984,1.984,0,0,1-.837.162,1.265,1.265,0,0,1-.736-.209,1.554,1.554,0,0,1-.479-.52l-.756-1.309a8.51,8.51,0,0,1,2.815-1.667,9.868,9.868,0,0,1,3.314-.547,6.061,6.061,0,0,1,2.288.412,4.924,4.924,0,0,1,1.728,1.148,5.014,5.014,0,0,1,1.087,1.748,6.283,6.283,0,0,1,.378,2.214V0ZM31.833-2.551a3.321,3.321,0,0,0,1.417-.283,4.318,4.318,0,0,0,1.229-.918V-5.7a13.894,13.894,0,0,0-2.065.216,5.017,5.017,0,0,0-1.283.405,1.552,1.552,0,0,0-.655.553,1.31,1.31,0,0,0-.182.675,1.173,1.173,0,0,0,.392,1.006A1.91,1.91,0,0,0,31.833-2.551ZM41.526,0V-14h2.592a1.155,1.155,0,0,1,.655.175.937.937,0,0,1,.371.526l.243.81a10.168,10.168,0,0,1,.837-.7,4.9,4.9,0,0,1,.925-.547,5.489,5.489,0,0,1,1.067-.351,5.723,5.723,0,0,1,1.249-.128,4.9,4.9,0,0,1,2.032.4,4.216,4.216,0,0,1,1.492,1.107,4.778,4.778,0,0,1,.918,1.688,7,7,0,0,1,.31,2.126V0H50.031V-8.9a2.448,2.448,0,0,0-.472-1.6,1.7,1.7,0,0,0-1.39-.574,2.912,2.912,0,0,0-1.3.3,5.039,5.039,0,0,0-1.161.8V0ZM66.852,0a1.961,1.961,0,0,1-.9-.162,1.238,1.238,0,0,1-.506-.675l-.3-.77q-.526.446-1.012.783a6.417,6.417,0,0,1-1.006.574A4.967,4.967,0,0,1,62.026.1a6.813,6.813,0,0,1-1.3.115,5.712,5.712,0,0,1-1.742-.25,3.633,3.633,0,0,1-1.33-.736,3.235,3.235,0,0,1-.844-1.208,4.357,4.357,0,0,1-.3-1.667,3.5,3.5,0,0,1,.378-1.525A3.763,3.763,0,0,1,58.2-6.595,8.323,8.323,0,0,1,60.71-7.668a16.848,16.848,0,0,1,3.982-.486v-.594a2.567,2.567,0,0,0-.506-1.775,1.862,1.862,0,0,0-1.438-.547,3.814,3.814,0,0,0-1.215.162,5.462,5.462,0,0,0-.844.365q-.371.2-.722.365a1.984,1.984,0,0,1-.837.162,1.265,1.265,0,0,1-.736-.209,1.554,1.554,0,0,1-.479-.52l-.756-1.309a8.51,8.51,0,0,1,2.815-1.667,9.868,9.868,0,0,1,3.314-.547,6.061,6.061,0,0,1,2.288.412A4.924,4.924,0,0,1,67.3-12.71a5.014,5.014,0,0,1,1.087,1.748,6.283,6.283,0,0,1,.378,2.214V0ZM62.046-2.551a3.321,3.321,0,0,0,1.417-.283,4.318,4.318,0,0,0,1.229-.918V-5.7a13.894,13.894,0,0,0-2.065.216,5.017,5.017,0,0,0-1.283.405,1.552,1.552,0,0,0-.655.553,1.31,1.31,0,0,0-.182.675A1.173,1.173,0,0,0,60.9-2.842,1.91,1.91,0,0,0,62.046-2.551ZM76.68-14.242a7.734,7.734,0,0,1,1.681.175,6.763,6.763,0,0,1,1.465.5h4.226v1.526a.763.763,0,0,1-.2.553,1.341,1.341,0,0,1-.668.311l-1.026.23a4.2,4.2,0,0,1,.189,1.255,4.009,4.009,0,0,1-.439,1.89,4.3,4.3,0,0,1-1.2,1.424,5.6,5.6,0,0,1-1.8.9,7.593,7.593,0,0,1-2.228.317,9,9,0,0,1-1.242-.081.756.756,0,0,0-.459.621.526.526,0,0,0,.371.506,3.488,3.488,0,0,0,.979.216q.607.061,1.391.081t1.593.095a12.488,12.488,0,0,1,1.593.25A4.265,4.265,0,0,1,82.3-2.9a2.956,2.956,0,0,1,.979,1.046,3.35,3.35,0,0,1,.371,1.667,4.044,4.044,0,0,1-.459,1.85,4.829,4.829,0,0,1-1.35,1.606A7.052,7.052,0,0,1,79.65,4.394a9.518,9.518,0,0,1-2.97.425,11.4,11.4,0,0,1-2.842-.311,6.879,6.879,0,0,1-1.985-.817,3.441,3.441,0,0,1-1.168-1.168,2.738,2.738,0,0,1-.378-1.377,2.29,2.29,0,0,1,.567-1.573,3.768,3.768,0,0,1,1.553-1.006,2.37,2.37,0,0,1-.756-.8,2.409,2.409,0,0,1-.284-1.228,2.188,2.188,0,0,1,.108-.655,2.4,2.4,0,0,1,.338-.668,3.379,3.379,0,0,1,.58-.621,3.8,3.8,0,0,1,.837-.527A4.573,4.573,0,0,1,71.53-7.465,3.973,3.973,0,0,1,70.9-9.693a4,4,0,0,1,.446-1.9,4.286,4.286,0,0,1,1.222-1.431,5.749,5.749,0,0,1,1.829-.9A7.876,7.876,0,0,1,76.68-14.242ZM79.785.513a.717.717,0,0,0-.209-.54,1.492,1.492,0,0,0-.567-.324,4.015,4.015,0,0,0-.837-.175q-.479-.054-1.033-.081T75.992-.655q-.594-.02-1.174-.088a2.748,2.748,0,0,0-.641.6,1.211,1.211,0,0,0-.25.749,1.139,1.139,0,0,0,.128.54,1.057,1.057,0,0,0,.452.418,3,3,0,0,0,.871.277,7.813,7.813,0,0,0,1.384.1,8.369,8.369,0,0,0,1.485-.108,3.144,3.144,0,0,0,.925-.3,1.117,1.117,0,0,0,.479-.452A1.239,1.239,0,0,0,79.785.513ZM76.68-7.736a1.93,1.93,0,0,0,1.505-.52A1.937,1.937,0,0,0,78.651-9.6a1.852,1.852,0,0,0-.466-1.337,2.01,2.01,0,0,0-1.505-.486,2.01,2.01,0,0,0-1.505.486A1.852,1.852,0,0,0,74.709-9.6a2.294,2.294,0,0,0,.115.743,1.543,1.543,0,0,0,.358.587,1.676,1.676,0,0,0,.614.391A2.479,2.479,0,0,0,76.68-7.736Zm15.174-6.48a7.208,7.208,0,0,1,2.545.432,5.532,5.532,0,0,1,1.984,1.256,5.73,5.73,0,0,1,1.3,2.018A7.406,7.406,0,0,1,98.145-7.8a5.908,5.908,0,0,1-.04.769,1.218,1.218,0,0,1-.148.473.565.565,0,0,1-.29.243,1.359,1.359,0,0,1-.466.067H89.127a3.947,3.947,0,0,0,1.066,2.545,3.173,3.173,0,0,0,2.228.79,3.987,3.987,0,0,0,1.256-.175,6.334,6.334,0,0,0,.938-.391q.412-.216.756-.392a1.57,1.57,0,0,1,.722-.176.865.865,0,0,1,.756.365l1.215,1.5a6.221,6.221,0,0,1-1.4,1.208,7.261,7.261,0,0,1-1.539.729,8.342,8.342,0,0,1-1.579.365,11.853,11.853,0,0,1-1.505.1,7.86,7.86,0,0,1-2.761-.479,6.344,6.344,0,0,1-2.255-1.424A6.72,6.72,0,0,1,85.5-4.036a8.777,8.777,0,0,1-.56-3.267,7.394,7.394,0,0,1,.479-2.659,6.55,6.55,0,0,1,1.377-2.2,6.556,6.556,0,0,1,2.174-1.5A7.174,7.174,0,0,1,91.854-14.215Zm.081,2.889a2.522,2.522,0,0,0-1.877.682,3.552,3.552,0,0,0-.891,1.964h5.225a3.694,3.694,0,0,0-.128-.972,2.356,2.356,0,0,0-.419-.844,2.129,2.129,0,0,0-.763-.6A2.608,2.608,0,0,0,91.935-11.326ZM124.065,0h-3.537a1.635,1.635,0,0,1-.979-.277,1.429,1.429,0,0,1-.533-.709l-1.161-3.429h-7.479L109.215-.985a1.52,1.52,0,0,1-.526.682,1.516,1.516,0,0,1-.958.3h-3.564l7.614-19.67h4.671ZM111.429-7.519H116.8l-1.809-5.386q-.175-.513-.412-1.208t-.466-1.505q-.216.823-.446,1.525t-.432,1.215Zm24.327-3.159a2.314,2.314,0,0,1-.364.365.8.8,0,0,1-.5.135,1.075,1.075,0,0,1-.56-.148l-.56-.331a4.25,4.25,0,0,0-.729-.331A3.138,3.138,0,0,0,132-11.137a2.912,2.912,0,0,0-1.33.283,2.463,2.463,0,0,0-.925.81,3.7,3.7,0,0,0-.54,1.289,7.7,7.7,0,0,0-.175,1.721,5.245,5.245,0,0,0,.776,3.092,2.491,2.491,0,0,0,2.14,1.08,2.991,2.991,0,0,0,1.154-.182,3.5,3.5,0,0,0,.722-.4l.547-.412A1.011,1.011,0,0,1,135-4.05a.865.865,0,0,1,.756.365l1.215,1.5a6.611,6.611,0,0,1-1.364,1.208,6.84,6.84,0,0,1-1.465.729,7.56,7.56,0,0,1-1.505.365,11.083,11.083,0,0,1-1.471.1,6.314,6.314,0,0,1-2.45-.486,6,6,0,0,1-2.052-1.411,6.757,6.757,0,0,1-1.4-2.275,8.521,8.521,0,0,1-.52-3.078,8.646,8.646,0,0,1,.452-2.828,6.421,6.421,0,0,1,1.337-2.282,6.214,6.214,0,0,1,2.187-1.519,7.664,7.664,0,0,1,3.017-.554,7.356,7.356,0,0,1,2.889.526,6.932,6.932,0,0,1,2.241,1.539Zm13.122,0a2.315,2.315,0,0,1-.365.365.8.8,0,0,1-.5.135,1.075,1.075,0,0,1-.56-.148l-.56-.331a4.25,4.25,0,0,0-.729-.331,3.138,3.138,0,0,0-1.04-.148,2.912,2.912,0,0,0-1.33.283,2.463,2.463,0,0,0-.925.81,3.7,3.7,0,0,0-.54,1.289,7.7,7.7,0,0,0-.176,1.721,5.245,5.245,0,0,0,.776,3.092,2.491,2.491,0,0,0,2.14,1.08,2.991,2.991,0,0,0,1.154-.182,3.5,3.5,0,0,0,.722-.4l.547-.412a1.011,1.011,0,0,1,.628-.189.865.865,0,0,1,.756.365l1.215,1.5A6.61,6.61,0,0,1,148.73-.979a6.84,6.84,0,0,1-1.465.729,7.56,7.56,0,0,1-1.505.365,11.083,11.083,0,0,1-1.471.1,6.314,6.314,0,0,1-2.45-.486,6,6,0,0,1-2.052-1.411,6.757,6.757,0,0,1-1.4-2.275,8.521,8.521,0,0,1-.52-3.078,8.646,8.646,0,0,1,.452-2.828,6.421,6.421,0,0,1,1.337-2.282,6.214,6.214,0,0,1,2.187-1.519,7.664,7.664,0,0,1,3.017-.554,7.356,7.356,0,0,1,2.889.526,6.932,6.932,0,0,1,2.241,1.539Zm9.261-3.537a8.085,8.085,0,0,1,2.9.5,6.366,6.366,0,0,1,2.248,1.431,6.446,6.446,0,0,1,1.458,2.261,8.158,8.158,0,0,1,.52,2.99,8.305,8.305,0,0,1-.52,3.017,6.491,6.491,0,0,1-1.458,2.282A6.4,6.4,0,0,1,161.042-.29a7.989,7.989,0,0,1-2.9.506,8.082,8.082,0,0,1-2.923-.506,6.522,6.522,0,0,1-2.268-1.445,6.4,6.4,0,0,1-1.471-2.282,8.305,8.305,0,0,1-.52-3.017,8.158,8.158,0,0,1,.52-2.99,6.352,6.352,0,0,1,1.471-2.261,6.491,6.491,0,0,1,2.268-1.431A8.18,8.18,0,0,1,158.139-14.215Zm0,11.326a2.377,2.377,0,0,0,2.126-1.019,5.637,5.637,0,0,0,.682-3.1,5.6,5.6,0,0,0-.682-3.092,2.382,2.382,0,0,0-2.126-1.012,2.441,2.441,0,0,0-2.173,1.012,5.557,5.557,0,0,0-.689,3.092,5.592,5.592,0,0,0,.689,3.1A2.436,2.436,0,0,0,158.139-2.889ZM171.477-14v8.883a2.443,2.443,0,0,0,.472,1.607,1.707,1.707,0,0,0,1.391.567,2.983,2.983,0,0,0,1.289-.283,4.809,4.809,0,0,0,1.168-.8V-14h4.185V0H177.39a.984.984,0,0,1-1.026-.7l-.257-.81a8.124,8.124,0,0,1-.837.709,5.123,5.123,0,0,1-.925.54,5.524,5.524,0,0,1-1.06.351,5.631,5.631,0,0,1-1.242.128,4.9,4.9,0,0,1-2.032-.4A4.18,4.18,0,0,1,168.521-1.3a4.857,4.857,0,0,1-.918-1.687,6.979,6.979,0,0,1-.311-2.133V-14ZM183.222,0V-14h2.592a1.155,1.155,0,0,1,.655.175.937.937,0,0,1,.371.526l.243.81a10.169,10.169,0,0,1,.837-.7,4.9,4.9,0,0,1,.925-.547,5.489,5.489,0,0,1,1.066-.351,5.723,5.723,0,0,1,1.249-.128,4.9,4.9,0,0,1,2.032.4,4.216,4.216,0,0,1,1.492,1.107,4.778,4.778,0,0,1,.918,1.688,7,7,0,0,1,.311,2.126V0h-4.185V-8.9a2.448,2.448,0,0,0-.473-1.6,1.7,1.7,0,0,0-1.391-.574,2.912,2.912,0,0,0-1.3.3,5.04,5.04,0,0,0-1.161.8V0ZM203.8.216a4.935,4.935,0,0,1-1.762-.29A3.5,3.5,0,0,1,200.752-.9a3.511,3.511,0,0,1-.79-1.289,4.991,4.991,0,0,1-.27-1.687v-7.236H198.5a.793.793,0,0,1-.553-.209.79.79,0,0,1-.23-.614v-1.634L199.948-14l.824-3.415a.832.832,0,0,1,.918-.648h2.187v4.091h3.4v2.862h-3.4v6.953a1.308,1.308,0,0,0,.236.8.8.8,0,0,0,.682.317,1.34,1.34,0,0,0,.385-.047,1.532,1.532,0,0,0,.27-.108q.115-.061.216-.108a.553.553,0,0,1,.236-.047.487.487,0,0,1,.3.088,1.086,1.086,0,0,1,.236.277L207.711-1a5.775,5.775,0,0,1-1.823.911A7.243,7.243,0,0,1,203.8.216Z" transform="translate(167 193)" fill="#394049"/>
    <path id="Path_143" data-name="Path 143" d="M8,0H358a8,8,0,0,1,8,8V252a8,8,0,0,1-8,8H8a8,8,0,0,1-8-8V8A8,8,0,0,1,8,0Z" transform="translate(167 236)" fill="#2272e2"/>
    <rect id="Rectangle_92" data-name="Rectangle 92" width="306" height="42" rx="21" transform="translate(196 417)" fill="#fff"/>
    <g id="home-24px" transform="translate(196.861 273.874)">
      <path id="Path_1" data-name="Path 1" d="M0,0H56.486V56.486H0Z" transform="translate(0)" fill="none"/>
      <path id="Path_2" data-name="Path 2" d="M19.727,40.307V28.5h9.405V40.307a2.363,2.363,0,0,0,2.351,2.361h7.054a2.363,2.363,0,0,0,2.351-2.361V23.78h4a1.172,1.172,0,0,0,.776-2.054L26,3.947a2.362,2.362,0,0,0-3.151,0L3.2,21.726a1.176,1.176,0,0,0,.776,2.054h4V40.307a2.363,2.363,0,0,0,2.351,2.361h7.054A2.363,2.363,0,0,0,19.727,40.307Z" transform="translate(3.814 4.553)" fill="#fff"/>
    </g>
    <rect id="Rectangle_113" data-name="Rectangle 113" width="185" height="19" rx="4" transform="translate(277 288)" fill="#fff"/>
    <rect id="Rectangle_108" data-name="Rectangle 108" width="129" height="11" rx="4" transform="translate(277 316)" fill="#fff"/>
    <rect id="Rectangle_366" data-name="Rectangle 366" width="120" height="10" rx="4" transform="translate(277 336)" fill="#fff"/>
    <rect id="Rectangle_364" data-name="Rectangle 364" width="103" height="10" rx="4" transform="translate(298 433)" fill="#2272e2"/>
    <rect id="Rectangle_365" data-name="Rectangle 365" width="44" height="10" rx="4" transform="translate(277 358)" fill="#fff"/>
    <rect id="Rectangle_2" data-name="Rectangle 2" width="366" height="90" rx="8" transform="translate(167 519)" fill="#f9ecea"/>
    <path id="error-24px" d="M13.17,2a11.17,11.17,0,1,0,11.17,11.17A11.174,11.174,0,0,0,13.17,2Zm0,12.287a1.12,1.12,0,0,1-1.117-1.117V8.7a1.117,1.117,0,1,1,2.234,0V13.17A1.12,1.12,0,0,1,13.17,14.287Zm1.117,4.468H12.053V16.52h2.234Z" transform="translate(192.508 549.555)" fill="#c03d30"/>
    <rect id="Rectangle_93" data-name="Rectangle 93" width="142" height="14" rx="4" transform="translate(242 549)" fill="#c03d30"/>
    <rect id="Rectangle_94" data-name="Rectangle 94" width="99" height="8" rx="4" transform="translate(242 571)" fill="#c03d30"/>
    <rect id="Rectangle_301" data-name="Rectangle 301" width="168" height="15" rx="4" transform="translate(259 667)" fill="#afb5bd"/>
    <rect id="Rectangle_447" data-name="Rectangle 447" width="198" height="15" rx="4" transform="translate(259 768)" fill="#afb5bd"/>
    <rect id="Rectangle_449" data-name="Rectangle 449" width="198" height="15" rx="4" transform="translate(259 869)" fill="#afb5bd"/>
    <rect id="Rectangle_303" data-name="Rectangle 303" width="248" height="9" rx="4" transform="translate(259 691)" fill="#afb5bd"/>
    <rect id="Rectangle_448" data-name="Rectangle 448" width="158" height="9" rx="4" transform="translate(259 792)" fill="#afb5bd"/>
    <rect id="Rectangle_450" data-name="Rectangle 450" width="158" height="9" rx="4" transform="translate(259 893)" fill="#afb5bd"/>
    <g id="home-24px-2" data-name="home-24px" transform="translate(185.3 664.301)">
      <path id="Path_32" data-name="Path 32" d="M0,0H39.826V39.826H0Z" fill="none"/>
      <path id="Path_33" data-name="Path 33" d="M16.4,34.531V24.57h7.556v9.96a1.948,1.948,0,0,0,1.889,1.992H31.51A1.948,1.948,0,0,0,33.4,34.531V20.586h3.211a1,1,0,0,0,.623-1.733l-15.792-15a1.831,1.831,0,0,0-2.531,0l-15.792,15a1,1,0,0,0,.623,1.733H6.954V34.531a1.948,1.948,0,0,0,1.889,1.992H14.51A1.948,1.948,0,0,0,16.4,34.531Z" transform="translate(-0.266 -0.317)" fill="#afb5bd"/>
    </g>
    <g id="home-24px-3" data-name="home-24px" transform="translate(185.3 765.301)">
      <path id="Path_32-2" data-name="Path 32" d="M0,0H39.826V39.826H0Z" fill="none"/>
      <path id="Path_33-2" data-name="Path 33" d="M16.4,34.531V24.57h7.556v9.96a1.948,1.948,0,0,0,1.889,1.992H31.51A1.948,1.948,0,0,0,33.4,34.531V20.586h3.211a1,1,0,0,0,.623-1.733l-15.792-15a1.831,1.831,0,0,0-2.531,0l-15.792,15a1,1,0,0,0,.623,1.733H6.954V34.531a1.948,1.948,0,0,0,1.889,1.992H14.51A1.948,1.948,0,0,0,16.4,34.531Z" transform="translate(-0.266 -0.317)" fill="#afb5bd"/>
    </g>
    <g id="home-24px-4" data-name="home-24px" transform="translate(185.3 866.301)">
      <path id="Path_32-3" data-name="Path 32" d="M0,0H39.826V39.826H0Z" fill="none"/>
      <path id="Path_33-3" data-name="Path 33" d="M16.4,34.531V24.57h7.556v9.96a1.948,1.948,0,0,0,1.889,1.992H31.51A1.948,1.948,0,0,0,33.4,34.531V20.586h3.211a1,1,0,0,0,.623-1.733l-15.792-15a1.831,1.831,0,0,0-2.531,0l-15.792,15a1,1,0,0,0,.623,1.733H6.954V34.531a1.948,1.948,0,0,0,1.889,1.992H14.51A1.948,1.948,0,0,0,16.4,34.531Z" transform="translate(-0.266 -0.317)" fill="#afb5bd"/>
    </g>
  </g>
</svg>
