<svg xmlns="http://www.w3.org/2000/svg" xmlns:xlink="http://www.w3.org/1999/xlink" width="1090" height="903.12" viewBox="0 0 1090 903.12">
  <defs>
    <linearGradient id="linear-gradient" x1="0.5" x2="1.139" y2="0.795" gradientUnits="objectBoundingBox">
      <stop offset="0" stop-color="#ffcbbb"/>
      <stop offset="1" stop-color="#fff"/>
    </linearGradient>
    <filter id="Path_9" x="204.925" y="116.313" width="788.173" height="637.539" filterUnits="userSpaceOnUse">
      <feOffset dx="3" dy="3" input="SourceAlpha"/>
      <feGaussianBlur stdDeviation="9.5" result="blur"/>
      <feFlood flood-color="#03060d" flood-opacity="0.141"/>
      <feComposite operator="in" in2="blur"/>
      <feComposite in="SourceGraphic"/>
    </filter>
    <filter id="Path_20" x="246.489" y="267.016" width="362.099" height="219.975" filterUnits="userSpaceOnUse">
      <feOffset dy="3" input="SourceAlpha"/>
      <feGaussianBlur stdDeviation="7" result="blur-2"/>
      <feFlood flood-opacity="0.059"/>
      <feComposite operator="in" in2="blur-2"/>
      <feComposite in="SourceGraphic"/>
    </filter>
    <filter id="Path_21" x="583.436" y="267.016" width="362.099" height="91.936" filterUnits="userSpaceOnUse">
      <feOffset dy="3" input="SourceAlpha"/>
      <feGaussianBlur stdDeviation="7" result="blur-3"/>
      <feFlood flood-opacity="0.059"/>
      <feComposite operator="in" in2="blur-3"/>
      <feComposite in="SourceGraphic"/>
    </filter>
    <filter id="Path_22" x="583.436" y="331.035" width="362.099" height="91.936" filterUnits="userSpaceOnUse">
      <feOffset dy="3" input="SourceAlpha"/>
      <feGaussianBlur stdDeviation="7" result="blur-4"/>
      <feFlood flood-opacity="0.059"/>
      <feComposite operator="in" in2="blur-4"/>
      <feComposite in="SourceGraphic"/>
    </filter>
    <filter id="Path_23" x="583.436" y="395.055" width="362.099" height="91.936" filterUnits="userSpaceOnUse">
      <feOffset dy="3" input="SourceAlpha"/>
      <feGaussianBlur stdDeviation="7" result="blur-5"/>
      <feFlood flood-opacity="0.059"/>
      <feComposite operator="in" in2="blur-5"/>
      <feComposite in="SourceGraphic"/>
    </filter>
    <clipPath id="clip-path">
      <ellipse id="Ellipse_19" data-name="Ellipse 19" cx="30" cy="30.5" rx="30" ry="30.5" transform="translate(-0.033 0.492)" fill="#29cc9e"/>
    </clipPath>
    <clipPath id="clip-path-2">
      <circle id="Ellipse_20" data-name="Ellipse 20" cx="30" cy="30" r="30" transform="translate(-0.033 0.392)" fill="#2272e2"/>
    </clipPath>
    <filter id="Path_52" x="750.224" y="334.404" width="348.621" height="215.527" filterUnits="userSpaceOnUse">
      <feOffset dy="3" input="SourceAlpha"/>
      <feGaussianBlur stdDeviation="7" result="blur-6"/>
      <feFlood flood-opacity="0.161"/>
      <feComposite operator="in" in2="blur-6"/>
      <feComposite in="SourceGraphic"/>
    </filter>
    <clipPath id="clip-Image_02">
      <rect width="1090" height="903.12"/>
    </clipPath>
  </defs>
  <g id="Image_02" data-name="Image 02" clip-path="url(#clip-Image_02)">
    <rect width="1090" height="903.12" fill="rgba(255,255,255,0)"/>
    <g id="Group_66" data-name="Group 66" transform="translate(-281.575 -1016.834)">
      <circle id="Ellipse_2" data-name="Ellipse 2" cx="192.902" cy="192.902" r="192.902" transform="translate(403.1 1019.271) rotate(22)" opacity="0.206" fill="url(#linear-gradient)"/>
      <circle id="Ellipse_3" data-name="Ellipse 3" cx="170.158" cy="170.158" r="170.158" transform="translate(522.854 1510.741) rotate(22)" opacity="0.21" fill="url(#linear-gradient)"/>
      <circle id="Ellipse_4" data-name="Ellipse 4" cx="59.808" cy="59.808" r="59.808" transform="translate(315.189 1470.719) rotate(22)" opacity="0.21" fill="url(#linear-gradient)"/>
      <circle id="Ellipse_21" data-name="Ellipse 21" cx="59.808" cy="59.808" r="59.808" transform="translate(1192.933 1081.546) rotate(22)" opacity="0.21" fill="url(#linear-gradient)"/>
      <g transform="matrix(1, 0, 0, 1, 281.58, 1016.83)" filter="url(#Path_9)">
        <g id="Path_9-2" data-name="Path 9" transform="translate(230.43 141.81)" fill="#fafbff">
          <path d="M 707.5867309570312 580.0388793945312 L 23.58621406555176 580.0388793945312 C 20.47285079956055 580.0388793945312 17.45266914367676 579.3943481445312 14.60948657989502 578.1232299804688 C 11.86112308502197 576.8944091796875 9.392213821411133 575.1348266601562 7.271486759185791 572.89306640625 C 5.148850440979004 570.6494140625 3.482213973999023 568.036376953125 2.31775951385498 565.1263427734375 C 1.111577749252319 562.112060546875 0.5000322461128235 558.9095458984375 0.5000322461128235 555.6077880859375 L 0.5000322461128235 24.93116760253906 C 0.5000322461128235 21.62944030761719 1.111577749252319 18.42689514160156 2.31775951385498 15.41262149810791 C 3.482213973999023 12.50253105163574 5.148850440979004 9.889439582824707 7.271486759185791 7.645803451538086 C 9.392213821411133 5.404076099395752 11.86112308502197 3.644439697265625 14.60948657989502 2.415621519088745 C 17.45266914367676 1.144530653953552 20.47285079956055 0.4999851584434509 23.58621406555176 0.4999851584434509 L 707.5867309570312 0.4999851584434509 C 710.7001342773438 0.4999851584434509 713.7202758789062 1.144530653953552 716.5634765625 2.415621519088745 C 719.3119506835938 3.644439697265625 721.78076171875 5.404076099395752 723.9014892578125 7.645803451538086 C 726.0241088867188 9.889439582824707 727.6907348632812 12.50253105163574 728.855224609375 15.41262149810791 C 730.0614013671875 18.42689514160156 730.6729125976562 21.62944030761719 730.6729125976562 24.93116760253906 L 730.6729125976562 555.6077880859375 C 730.6729125976562 558.9095458984375 730.0614013671875 562.112060546875 728.855224609375 565.1263427734375 C 727.6907348632812 568.036376953125 726.0241088867188 570.6494140625 723.9014892578125 572.89306640625 C 721.78076171875 575.1348266601562 719.3119506835938 576.8944091796875 716.5634765625 578.1232299804688 C 713.7202758789062 579.3943481445312 710.7001342773438 580.0388793945312 707.5867309570312 580.0388793945312 Z" stroke="none"/>
          <path d="M 23.58624267578125 1 C 20.54364013671875 1 17.59210205078125 1.6298828125 14.8135986328125 2.8720703125 C 12.1253662109375 4.07391357421875 9.71014404296875 5.79559326171875 7.6346435546875 7.98944091796875 C 5.55560302734375 10.18707275390625 3.92291259765625 12.7470703125 2.78192138671875 15.59832763671875 C 1.59954833984375 18.55328369140625 1.00006103515625 21.6932373046875 1.00006103515625 24.93109130859375 L 1.00006103515625 555.6077880859375 C 1.00006103515625 558.8456420898438 1.59954833984375 561.985595703125 2.78192138671875 564.9405517578125 C 3.92291259765625 567.7918090820312 5.55560302734375 570.351806640625 7.6346435546875 572.5494384765625 C 9.71014404296875 574.7432861328125 12.1253662109375 576.4649658203125 14.8135986328125 577.6668090820312 C 17.59210205078125 578.9089965820312 20.54364013671875 579.5388793945312 23.58624267578125 579.5388793945312 L 707.5867309570312 579.5388793945312 C 710.6293334960938 579.5388793945312 713.5808715820312 578.9089965820312 716.3594970703125 577.6668090820312 C 719.047607421875 576.4649658203125 721.4629516601562 574.7432861328125 723.538330078125 572.5494384765625 C 725.6173706054688 570.351806640625 727.2501220703125 567.7918090820312 728.3910522460938 564.9405517578125 C 729.5734252929688 561.985595703125 730.1729125976562 558.8456420898438 730.1729125976562 555.6077880859375 L 730.1729125976562 24.93109130859375 C 730.1729125976562 21.6932373046875 729.5734252929688 18.55328369140625 728.3910522460938 15.59832763671875 C 727.2501220703125 12.7470703125 725.6173706054688 10.18707275390625 723.538330078125 7.98944091796875 C 721.4629516601562 5.79559326171875 719.047607421875 4.07391357421875 716.3594970703125 2.8720703125 C 713.5808715820312 1.6298828125 710.6293334960938 1 707.5867309570312 1 L 23.58624267578125 1 M 23.58624267578125 0 L 707.5867309570312 0 C 720.6130981445312 0 731.1729125976562 11.16204833984375 731.1729125976562 24.93109130859375 L 731.1729125976562 555.6077880859375 C 731.1729125976562 569.3768310546875 720.6130981445312 580.5388793945312 707.5867309570312 580.5388793945312 L 23.58624267578125 580.5388793945312 C 10.5599365234375 580.5388793945312 6.103515625e-05 569.3768310546875 6.103515625e-05 555.6077880859375 L 6.103515625e-05 24.93109130859375 C 6.103515625e-05 11.16204833984375 10.5599365234375 0 23.58624267578125 0 Z" stroke="none" fill="#fafbff"/>
        </g>
      </g>
      <rect id="Rectangle_192" data-name="Rectangle 192" width="160" height="49" rx="24.5" transform="translate(1027.575 1212.834)" fill="#2272e2"/>
      <g transform="matrix(1, 0, 0, 1, 281.58, 1016.83)" filter="url(#Path_20)">
        <path id="Path_20-2" data-name="Path 20" d="M13.478,0H306.621C314.065,0,320.1,5.592,320.1,12.489v153c0,6.9-6.034,12.489-13.478,12.489H13.478C6.034,177.975,0,172.383,0,165.485v-153C0,5.592,6.034,0,13.478,0Z" transform="translate(267.49 285.02)" fill="#fff"/>
      </g>
      <g transform="matrix(1, 0, 0, 1, 281.58, 1016.83)" filter="url(#Path_21)">
        <path id="Path_21-2" data-name="Path 21" d="M13.478,0H306.621C314.065,0,320.1,1.569,320.1,3.5V46.431c0,1.935-6.034,3.5-13.478,3.5H13.478C6.034,49.935,0,48.367,0,46.431V3.5C0,1.569,6.034,0,13.478,0Z" transform="translate(604.44 285.02)" fill="#fff"/>
      </g>
      <g transform="matrix(1, 0, 0, 1, 281.58, 1016.83)" filter="url(#Path_22)">
        <path id="Path_22-2" data-name="Path 22" d="M13.478,0H306.621C314.065,0,320.1,1.569,320.1,3.5V46.431c0,1.935-6.034,3.5-13.478,3.5H13.478C6.034,49.935,0,48.367,0,46.431V3.5C0,1.569,6.034,0,13.478,0Z" transform="translate(604.44 349.04)" fill="#fff"/>
      </g>
      <g transform="matrix(1, 0, 0, 1, 281.58, 1016.83)" filter="url(#Path_23)">
        <path id="Path_23-2" data-name="Path 23" d="M13.478,0H306.621C314.065,0,320.1,1.569,320.1,3.5V46.431c0,1.935-6.034,3.5-13.478,3.5H13.478C6.034,49.935,0,48.367,0,46.431V3.5C0,1.569,6.034,0,13.478,0Z" transform="translate(604.44 413.05)" fill="#fff"/>
      </g>
      <rect id="Rectangle_206" data-name="Rectangle 206" width="661" height="94" rx="8" transform="translate(544.575 1500.834)" fill="#fff"/>
      <rect id="Rectangle_213" data-name="Rectangle 213" width="661" height="95" rx="8" transform="translate(544.575 1609.834)" fill="#fff"/>
      <rect id="Rectangle_197" data-name="Rectangle 197" width="6" height="51" rx="2" transform="translate(886.575 1300.834)" fill="#2272e2"/>
      <rect id="Rectangle_198" data-name="Rectangle 198" width="6" height="50" rx="2" transform="translate(886.575 1366.834)" fill="#29cc9e"/>
      <rect id="Rectangle_199" data-name="Rectangle 199" width="6" height="51" rx="2" transform="translate(886.575 1429.834)" fill="#f5647e"/>
      <g id="check_box-24px" transform="translate(906.227 1310.273)">
        <path id="Path_24" data-name="Path 24" d="M0,0H33.695V33.695H0Z" fill="none"/>
        <path id="Path_25" data-name="Path 25" d="M23.966,3H5.621A2.62,2.62,0,0,0,3,5.621V23.966a2.62,2.62,0,0,0,2.621,2.621H23.966a2.62,2.62,0,0,0,2.621-2.621V5.621A2.62,2.62,0,0,0,23.966,3ZM12.172,21.345,5.621,14.793l1.848-1.848,4.7,4.691,9.946-9.946,1.848,1.861Z" transform="translate(2.054 2.054)" fill="#2272e2"/>
      </g>
      <g id="check_box-24px-2" data-name="check_box-24px" transform="translate(906.227 1374.293)">
        <path id="Path_24-2" data-name="Path 24" d="M0,0H33.695V33.695H0Z" fill="none"/>
        <path id="Path_25-2" data-name="Path 25" d="M23.966,3H5.621A2.62,2.62,0,0,0,3,5.621V23.966a2.62,2.62,0,0,0,2.621,2.621H23.966a2.62,2.62,0,0,0,2.621-2.621V5.621A2.62,2.62,0,0,0,23.966,3ZM12.172,21.345,5.621,14.793l1.848-1.848,4.7,4.691,9.946-9.946,1.848,1.861Z" transform="translate(2.054 2.054)" fill="#29cc9e"/>
      </g>
      <g id="check_box-24px-3" data-name="check_box-24px" transform="translate(906.227 1438.313)">
        <path id="Path_24-3" data-name="Path 24" d="M0,0H33.695V33.695H0Z" fill="none"/>
        <path id="Path_25-3" data-name="Path 25" d="M23.966,3H5.621A2.62,2.62,0,0,0,3,5.621V23.966a2.62,2.62,0,0,0,2.621,2.621H23.966a2.62,2.62,0,0,0,2.621-2.621V5.621A2.62,2.62,0,0,0,23.966,3ZM12.172,21.345,5.621,14.793l1.848-1.848,4.7,4.691,9.946-9.946,1.848,1.861Z" transform="translate(2.054 2.054)" fill="#f5647e"/>
      </g>
      <g id="Mask_Group_2" data-name="Mask Group 2" transform="translate(574.608 1517.342)" clip-path="url(#clip-path)">
        <g id="account_circle-24px" transform="translate(-0.009 0.302)">
          <path id="Path_26" data-name="Path 26" d="M0,0H60.789V60.789H0Z" fill="none"/>
          <path id="Path_27" data-name="Path 27" d="M32.412,7.083A25.329,25.329,0,1,0,57.741,32.412,25.338,25.338,0,0,0,32.412,7.083Zm0,7.6a7.6,7.6,0,1,1-7.6,7.6A7.588,7.588,0,0,1,32.412,14.682Zm0,35.967a18.238,18.238,0,0,1-15.2-8.156c.076-5.04,10.132-7.8,15.2-7.8,5.04,0,15.121,2.761,15.2,7.8A18.238,18.238,0,0,1,32.412,50.649Z" transform="translate(-2.018 -2.018)" fill="#29cc9e"/>
        </g>
      </g>
      <rect id="Rectangle_368" data-name="Rectangle 368" width="141" height="8" rx="4" transform="translate(952.575 1450.834)" fill="#afb5bd"/>
      <g id="Mask_Group_3" data-name="Mask Group 3" transform="translate(574.608 1627.443)" clip-path="url(#clip-path-2)">
        <g id="account_circle-24px-2" data-name="account_circle-24px" transform="translate(-0.009 -0.292)">
          <path id="Path_28" data-name="Path 28" d="M0,0H60.789V60.789H0Z" fill="none"/>
          <path id="Path_29" data-name="Path 29" d="M32.412,7.083A25.329,25.329,0,1,0,57.741,32.412,25.338,25.338,0,0,0,32.412,7.083Zm0,7.6a7.6,7.6,0,1,1-7.6,7.6A7.588,7.588,0,0,1,32.412,14.682Zm0,35.967a18.238,18.238,0,0,1-15.2-8.156c.076-5.04,10.132-7.8,15.2-7.8,5.04,0,15.121,2.761,15.2,7.8A18.238,18.238,0,0,1,32.412,50.649Z" transform="translate(-2.018 -2.018)" fill="#29cc9e"/>
        </g>
      </g>
      <g id="notifications-24px" transform="translate(680.473 1359.13)">
        <path id="Path_3" data-name="Path 3" d="M0,0H57.623V63.025H0Z" fill="none"/>
        <path id="Path_4" data-name="Path 4" d="M29.254,61.474A6.332,6.332,0,0,0,35.8,55.425h-13.1A6.311,6.311,0,0,0,29.254,61.474ZM48.9,43.328V28.206c0-9.285-5.37-17.057-14.735-19.114V7.036A4.729,4.729,0,0,0,29.254,2.5a4.729,4.729,0,0,0-4.912,4.536V9.093c-9.4,2.057-14.735,9.8-14.735,19.114V43.328l-4.224,3.9A3,3,0,0,0,7.676,52.4H50.8c2.914,0,4.388-3.266,2.325-5.172Z" transform="translate(-0.44 -0.249)" fill="#2272e2"/>
      </g>
      <rect id="Rectangle_367" data-name="Rectangle 367" width="141" height="6" rx="3" transform="translate(952.575 1387.834)" fill="#afb5bd"/>
      <g id="Group_23" data-name="Group 23" transform="translate(1052.799 1369.238)">
        <g transform="matrix(1, 0, 0, 1, -771.22, -352.4)" filter="url(#Path_52)">
          <path id="Path_52-2" data-name="Path 52" d="M13.478,0H293.143a13.478,13.478,0,0,1,13.478,13.478V160.049a13.478,13.478,0,0,1-13.478,13.478H13.478A13.478,13.478,0,0,1,0,160.049V13.478A13.478,13.478,0,0,1,13.478,0Z" transform="translate(771.22 352.4)" fill="#2272e2"/>
        </g>
        <g id="notifications-24px-2" data-name="notifications-24px" transform="translate(32.058 43.803)">
          <path id="Path_3-2" data-name="Path 3" d="M0,0H37.309V40.806H0Z" fill="none"/>
          <path id="Path_4-2" data-name="Path 4" d="M20.5,40.683a4.1,4.1,0,0,0,4.24-3.916h-8.48A4.086,4.086,0,0,0,20.5,40.683Zm12.72-11.749v-9.79c0-6.011-3.477-11.044-9.54-12.375V5.437A3.062,3.062,0,0,0,20.5,2.5a3.062,3.062,0,0,0-3.18,2.937V6.769c-6.084,1.332-9.54,6.344-9.54,12.375v9.79L5.042,31.46a1.943,1.943,0,0,0,1.484,3.348h27.92a1.949,1.949,0,0,0,1.505-3.348Z" transform="translate(-1.841 -1.043)" fill="#fff"/>
        </g>
      </g>
      <path id="Path_66" data-name="Path 66" d="M11.245-8.658q.26.494.5,1.027t.461,1.092q.221-.572.468-1.111T13.182-8.7l4.862-9.568a1.589,1.589,0,0,1,.266-.384.873.873,0,0,1,.306-.2A1.281,1.281,0,0,1,19-18.928q.214-.013.5-.013h3.354V0H18.98V-10.894q0-.793.078-1.716L14.04-2.873a1.653,1.653,0,0,1-.631.689,1.744,1.744,0,0,1-.9.234h-.6a1.744,1.744,0,0,1-.9-.234,1.653,1.653,0,0,1-.63-.689L5.33-12.623q.052.455.078.9t.026.825V0H1.56V-18.941H4.914q.286,0,.5.013a1.281,1.281,0,0,1,.384.078.873.873,0,0,1,.305.2,1.589,1.589,0,0,1,.266.384Zm20.5-5.031a6.941,6.941,0,0,1,2.45.416,5.327,5.327,0,0,1,1.911,1.209,5.518,5.518,0,0,1,1.248,1.943A7.132,7.132,0,0,1,37.8-7.514a5.689,5.689,0,0,1-.039.741,1.173,1.173,0,0,1-.143.455.544.544,0,0,1-.28.234,1.309,1.309,0,0,1-.449.065H29.12a3.8,3.8,0,0,0,1.027,2.451,3.056,3.056,0,0,0,2.145.76A3.84,3.84,0,0,0,33.5-2.977a6.1,6.1,0,0,0,.9-.377q.4-.208.728-.377a1.512,1.512,0,0,1,.7-.169.833.833,0,0,1,.728.351l1.17,1.443A5.99,5.99,0,0,1,36.381-.942a6.992,6.992,0,0,1-1.482.7,8.033,8.033,0,0,1-1.521.351,11.414,11.414,0,0,1-1.449.1,7.569,7.569,0,0,1-2.659-.462A6.109,6.109,0,0,1,27.1-1.625a6.471,6.471,0,0,1-1.469-2.262,8.452,8.452,0,0,1-.539-3.146,7.12,7.12,0,0,1,.462-2.561,6.308,6.308,0,0,1,1.326-2.119,6.313,6.313,0,0,1,2.093-1.443A6.908,6.908,0,0,1,31.746-13.689Zm.078,2.782a2.428,2.428,0,0,0-1.807.656,3.421,3.421,0,0,0-.858,1.891H34.19a3.557,3.557,0,0,0-.124-.936,2.269,2.269,0,0,0-.4-.813,2.051,2.051,0,0,0-.734-.579A2.512,2.512,0,0,0,31.824-10.907Zm12.454-8.554V0h-4.03V-19.461Zm7.41,5.98V0h-4.03V-13.481Zm.468-3.692a2.13,2.13,0,0,1-.195.9,2.378,2.378,0,0,1-.533.741,2.609,2.609,0,0,1-.786.507,2.441,2.441,0,0,1-.956.189,2.269,2.269,0,0,1-.923-.189A2.6,2.6,0,0,1,48-15.528a2.34,2.34,0,0,1-.52-.741,2.192,2.192,0,0,1-.188-.9,2.269,2.269,0,0,1,.188-.923A2.4,2.4,0,0,1,48-18.85a2.435,2.435,0,0,1,.761-.507,2.339,2.339,0,0,1,.923-.182,2.517,2.517,0,0,1,.956.182,2.454,2.454,0,0,1,.786.507,2.433,2.433,0,0,1,.533.754A2.2,2.2,0,0,1,52.156-17.173ZM63.18-10.53a1.042,1.042,0,0,1-.332.351.87.87,0,0,1-.449.1,1.433,1.433,0,0,1-.572-.123l-.618-.267a6.728,6.728,0,0,0-.748-.267,3.337,3.337,0,0,0-.949-.123,2.007,2.007,0,0,0-1.177.292.943.943,0,0,0-.41.813.814.814,0,0,0,.267.624,2.445,2.445,0,0,0,.708.436,9.772,9.772,0,0,0,1,.358q.559.169,1.144.377a10.187,10.187,0,0,1,1.144.487,4.279,4.279,0,0,1,1,.689,3.076,3.076,0,0,1,.708.995,3.368,3.368,0,0,1,.267,1.4A4.617,4.617,0,0,1,63.8-2.535a3.92,3.92,0,0,1-1.085,1.456,5.133,5.133,0,0,1-1.781.949A8.022,8.022,0,0,1,58.5.208a7.417,7.417,0,0,1-1.378-.13,9.545,9.545,0,0,1-1.333-.351A7.259,7.259,0,0,1,54.6-.8a5.159,5.159,0,0,1-.936-.657L54.6-2.938a1.347,1.347,0,0,1,.4-.409,1.119,1.119,0,0,1,.611-.15,1.271,1.271,0,0,1,.631.156l.6.338a5.039,5.039,0,0,0,.76.338,3.3,3.3,0,0,0,1.1.156,2.79,2.79,0,0,0,.793-.1,1.4,1.4,0,0,0,.52-.266,1.064,1.064,0,0,0,.286-.377,1.06,1.06,0,0,0,.091-.429.876.876,0,0,0-.273-.663,2.378,2.378,0,0,0-.715-.448A8.717,8.717,0,0,0,58.4-5.141q-.565-.162-1.15-.371a9.241,9.241,0,0,1-1.151-.5,3.958,3.958,0,0,1-1.007-.741,3.443,3.443,0,0,1-.715-1.1,4.058,4.058,0,0,1-.273-1.573,4.1,4.1,0,0,1,.332-1.631,3.788,3.788,0,0,1,.994-1.359,4.883,4.883,0,0,1,1.664-.929,7.194,7.194,0,0,1,2.34-.344,7.523,7.523,0,0,1,1.41.13,7.208,7.208,0,0,1,1.281.364,6.133,6.133,0,0,1,1.092.552,5.244,5.244,0,0,1,.871.7Zm11.44,0a1.042,1.042,0,0,1-.332.351.87.87,0,0,1-.448.1,1.433,1.433,0,0,1-.572-.123l-.618-.267a6.728,6.728,0,0,0-.747-.267,3.337,3.337,0,0,0-.949-.123,2.007,2.007,0,0,0-1.176.292.943.943,0,0,0-.41.813.814.814,0,0,0,.266.624,2.445,2.445,0,0,0,.709.436,9.772,9.772,0,0,0,1,.358q.559.169,1.144.377a10.188,10.188,0,0,1,1.144.487,4.279,4.279,0,0,1,1,.689,3.076,3.076,0,0,1,.708.995,3.368,3.368,0,0,1,.267,1.4,4.617,4.617,0,0,1-.364,1.846,3.92,3.92,0,0,1-1.086,1.456,5.133,5.133,0,0,1-1.781.949A8.022,8.022,0,0,1,69.94.208a7.417,7.417,0,0,1-1.378-.13,9.545,9.545,0,0,1-1.333-.351A7.259,7.259,0,0,1,66.04-.8a5.159,5.159,0,0,1-.936-.657l.936-1.482a1.347,1.347,0,0,1,.4-.409,1.119,1.119,0,0,1,.611-.15,1.271,1.271,0,0,1,.631.156l.6.338a5.039,5.039,0,0,0,.76.338,3.3,3.3,0,0,0,1.1.156,2.79,2.79,0,0,0,.793-.1,1.4,1.4,0,0,0,.52-.266,1.064,1.064,0,0,0,.286-.377,1.06,1.06,0,0,0,.091-.429.876.876,0,0,0-.273-.663,2.378,2.378,0,0,0-.715-.448,8.716,8.716,0,0,0-1.007-.351q-.565-.162-1.15-.371a9.241,9.241,0,0,1-1.15-.5,3.958,3.958,0,0,1-1.007-.741,3.443,3.443,0,0,1-.715-1.1,4.058,4.058,0,0,1-.273-1.573,4.1,4.1,0,0,1,.332-1.631,3.788,3.788,0,0,1,.994-1.359,4.883,4.883,0,0,1,1.664-.929,7.194,7.194,0,0,1,2.34-.344,7.523,7.523,0,0,1,1.41.13,7.208,7.208,0,0,1,1.281.364,6.133,6.133,0,0,1,1.092.552,5.244,5.244,0,0,1,.871.7ZM87.126,0a1.888,1.888,0,0,1-.865-.156,1.192,1.192,0,0,1-.488-.65l-.286-.741q-.507.429-.975.754a6.179,6.179,0,0,1-.968.552A4.783,4.783,0,0,1,82.479.1a6.56,6.56,0,0,1-1.254.111,5.5,5.5,0,0,1-1.677-.241,3.5,3.5,0,0,1-1.281-.708A3.115,3.115,0,0,1,77.454-1.9a4.2,4.2,0,0,1-.286-1.606,3.367,3.367,0,0,1,.364-1.469,3.624,3.624,0,0,1,1.261-1.372,8.014,8.014,0,0,1,2.418-1.034,16.224,16.224,0,0,1,3.835-.468v-.572a2.472,2.472,0,0,0-.488-1.71,1.793,1.793,0,0,0-1.384-.526A3.673,3.673,0,0,0,82-10.5a5.26,5.26,0,0,0-.812.351q-.358.2-.7.351a1.91,1.91,0,0,1-.806.156,1.218,1.218,0,0,1-.708-.2,1.5,1.5,0,0,1-.462-.5l-.728-1.261A8.2,8.2,0,0,1,80.5-13.215a9.5,9.5,0,0,1,3.191-.526,5.837,5.837,0,0,1,2.2.4,4.742,4.742,0,0,1,1.664,1.1,4.828,4.828,0,0,1,1.047,1.684,6.05,6.05,0,0,1,.364,2.132V0ZM82.5-2.457a3.2,3.2,0,0,0,1.365-.273,4.158,4.158,0,0,0,1.183-.884V-5.486a13.379,13.379,0,0,0-1.989.208,4.831,4.831,0,0,0-1.235.39,1.5,1.5,0,0,0-.631.533,1.262,1.262,0,0,0-.175.65,1.13,1.13,0,0,0,.377.968A1.839,1.839,0,0,0,82.5-2.457ZM114.478,0h-3.406a1.574,1.574,0,0,1-.942-.266,1.376,1.376,0,0,1-.514-.683l-1.118-3.3h-7.2l-1.118,3.3a1.464,1.464,0,0,1-.507.656A1.46,1.46,0,0,1,98.748,0H95.316l7.332-18.941h4.5ZM102.31-7.241h5.174l-1.742-5.187q-.169-.494-.4-1.164t-.449-1.449q-.208.793-.429,1.469t-.416,1.17ZM116.012,0V-13.481h2.5a1.112,1.112,0,0,1,.631.169.9.9,0,0,1,.357.507l.234.78a9.791,9.791,0,0,1,.806-.676,4.72,4.72,0,0,1,.891-.527,5.285,5.285,0,0,1,1.027-.338,5.511,5.511,0,0,1,1.2-.123,4.72,4.72,0,0,1,1.956.383,4.06,4.06,0,0,1,1.437,1.066,4.6,4.6,0,0,1,.884,1.625,6.739,6.739,0,0,1,.3,2.048V0H124.2V-8.567a2.357,2.357,0,0,0-.455-1.541,1.634,1.634,0,0,0-1.339-.552,2.8,2.8,0,0,0-1.248.286,4.853,4.853,0,0,0-1.118.767V0Zm24.544,0a1.112,1.112,0,0,1-.631-.169.9.9,0,0,1-.357-.507L139.256-1.7a7.9,7.9,0,0,1-.845.78,5.314,5.314,0,0,1-.955.6,5.054,5.054,0,0,1-1.105.39,5.689,5.689,0,0,1-1.281.137,4.152,4.152,0,0,1-1.95-.468,4.493,4.493,0,0,1-1.547-1.352,6.823,6.823,0,0,1-1.021-2.164,10.512,10.512,0,0,1-.37-2.918,9.1,9.1,0,0,1,.416-2.8,6.868,6.868,0,0,1,1.176-2.236,5.463,5.463,0,0,1,1.827-1.476,5.187,5.187,0,0,1,2.353-.533,4.517,4.517,0,0,1,1.762.306,5.084,5.084,0,0,1,1.307.8v-6.825h4.03V0Zm-4.082-2.886a3.482,3.482,0,0,0,.8-.084,2.811,2.811,0,0,0,.656-.24,2.864,2.864,0,0,0,.566-.39,4.893,4.893,0,0,0,.527-.546v-5.72a2.665,2.665,0,0,0-.995-.708,3.083,3.083,0,0,0-1.111-.2,2.375,2.375,0,0,0-1.027.221,2.093,2.093,0,0,0-.812.708,3.773,3.773,0,0,0-.539,1.267,7.874,7.874,0,0,0-.2,1.885A8.731,8.731,0,0,0,134.5-4.9a3.7,3.7,0,0,0,.436,1.176,1.691,1.691,0,0,0,.669.644A1.92,1.92,0,0,0,136.474-2.886ZM146.172,0V-13.481h2.392a2.04,2.04,0,0,1,.5.052.878.878,0,0,1,.338.163.694.694,0,0,1,.208.292,2.636,2.636,0,0,1,.123.442l.221,1.261a6.606,6.606,0,0,1,1.664-1.807,3.381,3.381,0,0,1,2.015-.663,2.321,2.321,0,0,1,1.482.442l-.52,2.964a.579.579,0,0,1-.208.384.706.706,0,0,1-.416.11,2.759,2.759,0,0,1-.52-.058,4.031,4.031,0,0,0-.754-.058,2.768,2.768,0,0,0-2.5,1.69V0Zm16.51-13.689a6.941,6.941,0,0,1,2.451.416,5.327,5.327,0,0,1,1.911,1.209,5.518,5.518,0,0,1,1.248,1.943,7.132,7.132,0,0,1,.449,2.607,5.689,5.689,0,0,1-.039.741,1.173,1.173,0,0,1-.143.455.544.544,0,0,1-.28.234,1.309,1.309,0,0,1-.449.065h-7.774a3.8,3.8,0,0,0,1.027,2.451,3.056,3.056,0,0,0,2.145.76,3.84,3.84,0,0,0,1.209-.169,6.1,6.1,0,0,0,.9-.377q.4-.208.728-.377a1.512,1.512,0,0,1,.7-.169.833.833,0,0,1,.728.351l1.17,1.443a5.99,5.99,0,0,1-1.346,1.163,6.992,6.992,0,0,1-1.482.7,8.033,8.033,0,0,1-1.521.351,11.414,11.414,0,0,1-1.449.1,7.569,7.569,0,0,1-2.659-.462,6.109,6.109,0,0,1-2.171-1.371,6.471,6.471,0,0,1-1.469-2.262,8.452,8.452,0,0,1-.54-3.146,7.12,7.12,0,0,1,.462-2.561,6.308,6.308,0,0,1,1.326-2.119,6.313,6.313,0,0,1,2.093-1.443A6.908,6.908,0,0,1,162.682-13.689Zm.078,2.782a2.428,2.428,0,0,0-1.807.656,3.421,3.421,0,0,0-.858,1.891h5.031A3.557,3.557,0,0,0,165-9.3a2.269,2.269,0,0,0-.4-.813,2.05,2.05,0,0,0-.734-.579A2.512,2.512,0,0,0,162.76-10.907Zm6.734-2.574h3.224a1.369,1.369,0,0,1,.741.195.777.777,0,0,1,.377.507l1.352,6.045q.156.689.286,1.339t.234,1.287q.182-.637.383-1.28t.4-1.345l1.69-6.058a.863.863,0,0,1,.377-.5,1.2,1.2,0,0,1,.689-.2h1.794a1.3,1.3,0,0,1,.734.2.857.857,0,0,1,.383.5l1.612,6.058q.182.689.37,1.339t.357,1.313q.1-.65.253-1.293t.319-1.359l1.43-6.045a.781.781,0,0,1,.37-.507,1.265,1.265,0,0,1,.7-.195h3.068L186.446,0H183.17a.656.656,0,0,1-.442-.156,1.051,1.051,0,0,1-.286-.52L180.518-7.4q-.13-.455-.247-.9t-.208-.884q-.091.455-.2.9t-.254.9l-1.95,6.695A.829.829,0,0,1,176.8,0h-3.12Zm30.94,2.951a1.043,1.043,0,0,1-.331.351.87.87,0,0,1-.449.1,1.433,1.433,0,0,1-.572-.123l-.617-.267a6.728,6.728,0,0,0-.747-.267,3.337,3.337,0,0,0-.949-.123,2.007,2.007,0,0,0-1.176.292.943.943,0,0,0-.41.813.814.814,0,0,0,.266.624,2.445,2.445,0,0,0,.708.436,9.772,9.772,0,0,0,1,.358q.559.169,1.144.377a10.187,10.187,0,0,1,1.144.487,4.279,4.279,0,0,1,1,.689,3.075,3.075,0,0,1,.708.995,3.368,3.368,0,0,1,.266,1.4,4.617,4.617,0,0,1-.364,1.846,3.92,3.92,0,0,1-1.085,1.456,5.133,5.133,0,0,1-1.781.949,8.022,8.022,0,0,1-2.437.338,7.417,7.417,0,0,1-1.378-.13,9.545,9.545,0,0,1-1.333-.351A7.259,7.259,0,0,1,191.854-.8a5.159,5.159,0,0,1-.936-.657l.936-1.482a1.347,1.347,0,0,1,.4-.409,1.119,1.119,0,0,1,.611-.15,1.271,1.271,0,0,1,.63.156l.6.338a5.04,5.04,0,0,0,.761.338,3.3,3.3,0,0,0,1.1.156,2.79,2.79,0,0,0,.793-.1,1.4,1.4,0,0,0,.52-.266,1.064,1.064,0,0,0,.286-.377,1.06,1.06,0,0,0,.091-.429.876.876,0,0,0-.273-.663,2.378,2.378,0,0,0-.715-.448,8.717,8.717,0,0,0-1.007-.351q-.565-.162-1.151-.371a9.241,9.241,0,0,1-1.15-.5,3.958,3.958,0,0,1-1.007-.741,3.443,3.443,0,0,1-.715-1.1,4.057,4.057,0,0,1-.273-1.573,4.1,4.1,0,0,1,.331-1.631,3.788,3.788,0,0,1,.995-1.359,4.883,4.883,0,0,1,1.664-.929,7.194,7.194,0,0,1,2.34-.344,7.523,7.523,0,0,1,1.411.13,7.208,7.208,0,0,1,1.28.364,6.133,6.133,0,0,1,1.092.552,5.244,5.244,0,0,1,.871.7Z" transform="translate(652.575 1558.834)" fill="#394049"/>
      <path id="Path_67" data-name="Path 67" d="M11.245-8.658q.26.494.5,1.027t.461,1.092q.221-.572.468-1.111T13.182-8.7l4.862-9.568a1.589,1.589,0,0,1,.266-.384.873.873,0,0,1,.306-.2A1.281,1.281,0,0,1,19-18.928q.214-.013.5-.013h3.354V0H18.98V-10.894q0-.793.078-1.716L14.04-2.873a1.653,1.653,0,0,1-.631.689,1.744,1.744,0,0,1-.9.234h-.6a1.744,1.744,0,0,1-.9-.234,1.653,1.653,0,0,1-.63-.689L5.33-12.623q.052.455.078.9t.026.825V0H1.56V-18.941H4.914q.286,0,.5.013a1.281,1.281,0,0,1,.384.078.873.873,0,0,1,.305.2,1.589,1.589,0,0,1,.266.384ZM35.282,0a1.888,1.888,0,0,1-.864-.156,1.192,1.192,0,0,1-.487-.65l-.286-.741q-.507.429-.975.754a6.179,6.179,0,0,1-.968.552A4.783,4.783,0,0,1,30.634.1,6.56,6.56,0,0,1,29.38.208,5.5,5.5,0,0,1,27.7-.032a3.5,3.5,0,0,1-1.281-.708A3.115,3.115,0,0,1,25.61-1.9a4.2,4.2,0,0,1-.286-1.606,3.367,3.367,0,0,1,.364-1.469,3.624,3.624,0,0,1,1.261-1.372,8.014,8.014,0,0,1,2.418-1.034A16.224,16.224,0,0,1,33.2-7.852v-.572a2.472,2.472,0,0,0-.487-1.71,1.793,1.793,0,0,0-1.385-.526,3.673,3.673,0,0,0-1.17.156,5.26,5.26,0,0,0-.812.351q-.357.2-.7.351a1.91,1.91,0,0,1-.806.156,1.218,1.218,0,0,1-.708-.2,1.5,1.5,0,0,1-.462-.5l-.728-1.261a8.2,8.2,0,0,1,2.711-1.606,9.5,9.5,0,0,1,3.191-.526,5.837,5.837,0,0,1,2.2.4,4.742,4.742,0,0,1,1.664,1.1,4.828,4.828,0,0,1,1.047,1.684,6.05,6.05,0,0,1,.364,2.132V0ZM30.654-2.457a3.2,3.2,0,0,0,1.365-.273A4.158,4.158,0,0,0,33.2-3.614V-5.486a13.379,13.379,0,0,0-1.989.208,4.831,4.831,0,0,0-1.235.39,1.5,1.5,0,0,0-.631.533,1.261,1.261,0,0,0-.176.65,1.13,1.13,0,0,0,.377.968A1.839,1.839,0,0,0,30.654-2.457ZM44.72.208a4.752,4.752,0,0,1-1.7-.28,3.37,3.37,0,0,1-1.235-.793,3.38,3.38,0,0,1-.761-1.241,4.806,4.806,0,0,1-.26-1.625V-10.7H39.624a.763.763,0,0,1-.533-.2.76.76,0,0,1-.221-.591v-1.573l2.145-.416.793-3.289a.8.8,0,0,1,.884-.624H44.8v3.939h3.276V-10.7H44.8V-4a1.26,1.26,0,0,0,.228.774.769.769,0,0,0,.657.306,1.29,1.29,0,0,0,.37-.046,1.475,1.475,0,0,0,.26-.1q.11-.059.208-.1a.533.533,0,0,1,.228-.046.469.469,0,0,1,.292.084,1.046,1.046,0,0,1,.228.267L48.49-.962a5.562,5.562,0,0,1-1.755.878A6.974,6.974,0,0,1,44.72.208Zm10.4,0a4.752,4.752,0,0,1-1.7-.28,3.37,3.37,0,0,1-1.235-.793,3.38,3.38,0,0,1-.761-1.241,4.806,4.806,0,0,1-.26-1.625V-10.7H50.024a.763.763,0,0,1-.533-.2.76.76,0,0,1-.221-.591v-1.573l2.145-.416.793-3.289a.8.8,0,0,1,.884-.624H55.2v3.939h3.276V-10.7H55.2V-4a1.26,1.26,0,0,0,.228.774.769.769,0,0,0,.657.306,1.29,1.29,0,0,0,.37-.046,1.475,1.475,0,0,0,.26-.1q.11-.059.208-.1a.533.533,0,0,1,.228-.046.469.469,0,0,1,.292.084,1.046,1.046,0,0,1,.228.267L58.89-.962a5.561,5.561,0,0,1-1.755.878A6.974,6.974,0,0,1,55.12.208ZM60.788,0V-19.461h4.03V-12.3A6.553,6.553,0,0,1,66.4-13.306a4.927,4.927,0,0,1,2.035-.383,4.72,4.72,0,0,1,1.957.383,4.06,4.06,0,0,1,1.436,1.066,4.6,4.6,0,0,1,.884,1.625,6.738,6.738,0,0,1,.3,2.048V0h-4.03V-8.567a2.357,2.357,0,0,0-.455-1.541,1.634,1.634,0,0,0-1.339-.552,2.8,2.8,0,0,0-1.248.286,4.853,4.853,0,0,0-1.118.767V0ZM81.64-13.689a6.941,6.941,0,0,1,2.451.416A5.327,5.327,0,0,1,86-12.064a5.518,5.518,0,0,1,1.248,1.943A7.132,7.132,0,0,1,87.7-7.514a5.689,5.689,0,0,1-.039.741,1.173,1.173,0,0,1-.143.455.544.544,0,0,1-.28.234,1.309,1.309,0,0,1-.449.065H79.014a3.8,3.8,0,0,0,1.027,2.451,3.056,3.056,0,0,0,2.145.76,3.84,3.84,0,0,0,1.209-.169,6.1,6.1,0,0,0,.9-.377q.4-.208.728-.377a1.512,1.512,0,0,1,.7-.169.833.833,0,0,1,.728.351l1.17,1.443A5.99,5.99,0,0,1,86.274-.942a6.992,6.992,0,0,1-1.482.7,8.033,8.033,0,0,1-1.521.351,11.414,11.414,0,0,1-1.45.1,7.569,7.569,0,0,1-2.659-.462,6.109,6.109,0,0,1-2.171-1.371,6.471,6.471,0,0,1-1.469-2.262,8.452,8.452,0,0,1-.539-3.146,7.12,7.12,0,0,1,.461-2.561,6.308,6.308,0,0,1,1.326-2.119,6.313,6.313,0,0,1,2.093-1.443A6.908,6.908,0,0,1,81.64-13.689Zm.078,2.782a2.428,2.428,0,0,0-1.807.656,3.421,3.421,0,0,0-.858,1.891h5.031A3.557,3.557,0,0,0,83.96-9.3a2.269,2.269,0,0,0-.4-.813,2.05,2.05,0,0,0-.734-.579A2.512,2.512,0,0,0,81.718-10.907Zm6.734-2.574h3.224a1.369,1.369,0,0,1,.741.195.777.777,0,0,1,.377.507l1.352,6.045q.156.689.286,1.339t.234,1.287q.182-.637.383-1.28t.4-1.345l1.69-6.058a.863.863,0,0,1,.377-.5,1.2,1.2,0,0,1,.689-.2H100a1.3,1.3,0,0,1,.735.2.857.857,0,0,1,.383.5l1.612,6.058q.182.689.37,1.339t.357,1.313q.1-.65.254-1.293t.318-1.359l1.43-6.045a.781.781,0,0,1,.371-.507,1.265,1.265,0,0,1,.7-.195h3.068L105.4,0h-3.276a.656.656,0,0,1-.442-.156,1.051,1.051,0,0,1-.286-.52L99.476-7.4q-.13-.455-.247-.9t-.208-.884q-.091.455-.2.9t-.254.9L96.616-.676A.829.829,0,0,1,95.758,0h-3.12ZM132.7,0h-4.42V-8.008h-7.7V0h-4.42V-18.941h4.42v7.917h7.7v-7.917h4.42Zm12.428,0a1.888,1.888,0,0,1-.865-.156,1.192,1.192,0,0,1-.487-.65l-.286-.741q-.507.429-.975.754a6.179,6.179,0,0,1-.969.552A4.783,4.783,0,0,1,140.485.1a6.56,6.56,0,0,1-1.255.111,5.5,5.5,0,0,1-1.677-.241,3.5,3.5,0,0,1-1.281-.708A3.115,3.115,0,0,1,135.46-1.9a4.2,4.2,0,0,1-.286-1.606,3.367,3.367,0,0,1,.364-1.469A3.624,3.624,0,0,1,136.8-6.351a8.014,8.014,0,0,1,2.418-1.034,16.224,16.224,0,0,1,3.835-.468v-.572a2.472,2.472,0,0,0-.487-1.71,1.793,1.793,0,0,0-1.385-.526,3.673,3.673,0,0,0-1.17.156,5.26,5.26,0,0,0-.812.351q-.357.2-.7.351a1.91,1.91,0,0,1-.806.156,1.218,1.218,0,0,1-.709-.2,1.5,1.5,0,0,1-.462-.5l-.728-1.261a8.2,8.2,0,0,1,2.711-1.606,9.5,9.5,0,0,1,3.191-.526,5.837,5.837,0,0,1,2.2.4,4.742,4.742,0,0,1,1.664,1.1,4.828,4.828,0,0,1,1.047,1.684,6.05,6.05,0,0,1,.364,2.132V0ZM140.5-2.457a3.2,3.2,0,0,0,1.365-.273,4.158,4.158,0,0,0,1.183-.884V-5.486a13.379,13.379,0,0,0-1.989.208,4.831,4.831,0,0,0-1.235.39,1.5,1.5,0,0,0-.63.533,1.261,1.261,0,0,0-.176.65,1.13,1.13,0,0,0,.377.968A1.839,1.839,0,0,0,140.5-2.457ZM154.83,3.5a1.442,1.442,0,0,1-.442.592,1.439,1.439,0,0,1-.832.188H150.54l2.6-5.46-5.382-12.3h3.562a1.137,1.137,0,0,1,.728.208,1.116,1.116,0,0,1,.364.494l2.21,5.811a12.807,12.807,0,0,1,.507,1.612q.13-.416.286-.819t.3-.819l2-5.785a.986.986,0,0,1,.41-.5,1.17,1.17,0,0,1,.657-.2h3.25Z" transform="translate(652.575 1665.834)" fill="#394049"/>
      <rect id="Rectangle_200" data-name="Rectangle 200" width="141" height="7" rx="3.5" transform="translate(952.575 1323.834)" fill="#afb5bd"/>
      <rect id="Rectangle_369" data-name="Rectangle 369" width="139" height="7" rx="3.5" transform="translate(1144.575 1461.834)" fill="#fff"/>
      <rect id="Rectangle_370" data-name="Rectangle 370" width="88" height="6" rx="3" transform="translate(1144.575 1482.834)" fill="#fff"/>
      <path id="Path_68" data-name="Path 68" d="M5.725-3.375h6.75V0H1.5V-18.212H5.725Zm13.8-9.787a6.674,6.674,0,0,1,2.356.4A5.122,5.122,0,0,1,23.719-11.6a5.306,5.306,0,0,1,1.2,1.869,6.857,6.857,0,0,1,.431,2.506,5.471,5.471,0,0,1-.038.712,1.128,1.128,0,0,1-.137.438.523.523,0,0,1-.269.225,1.259,1.259,0,0,1-.431.063H17a3.654,3.654,0,0,0,.988,2.356A2.938,2.938,0,0,0,20.05-2.7a3.692,3.692,0,0,0,1.163-.162,5.864,5.864,0,0,0,.869-.362q.381-.2.7-.363a1.453,1.453,0,0,1,.669-.163.8.8,0,0,1,.7.338l1.125,1.387A5.76,5.76,0,0,1,23.981-.906a6.723,6.723,0,0,1-1.425.675,7.724,7.724,0,0,1-1.463.338A10.975,10.975,0,0,1,19.7.2a7.277,7.277,0,0,1-2.556-.444,5.874,5.874,0,0,1-2.087-1.319,6.222,6.222,0,0,1-1.413-2.175,8.127,8.127,0,0,1-.519-3.025,6.846,6.846,0,0,1,.444-2.462,6.065,6.065,0,0,1,1.275-2.038,6.071,6.071,0,0,1,2.013-1.387A6.642,6.642,0,0,1,19.525-13.162Zm.075,2.675a2.335,2.335,0,0,0-1.738.631,3.289,3.289,0,0,0-.825,1.819h4.837a3.42,3.42,0,0,0-.119-.9,2.182,2.182,0,0,0-.387-.781,1.972,1.972,0,0,0-.706-.556A2.415,2.415,0,0,0,19.6-10.488ZM36.525,0a1.815,1.815,0,0,1-.831-.15,1.146,1.146,0,0,1-.469-.625l-.275-.713q-.488.412-.937.725a5.942,5.942,0,0,1-.931.531,4.6,4.6,0,0,1-1.025.325A6.308,6.308,0,0,1,30.85.2a5.289,5.289,0,0,1-1.612-.231,3.364,3.364,0,0,1-1.231-.681,3,3,0,0,1-.781-1.119,4.035,4.035,0,0,1-.275-1.544,3.238,3.238,0,0,1,.35-1.412,3.485,3.485,0,0,1,1.212-1.319A7.706,7.706,0,0,1,30.838-7.1a15.6,15.6,0,0,1,3.688-.45V-8.1a2.377,2.377,0,0,0-.469-1.644,1.724,1.724,0,0,0-1.331-.506,3.532,3.532,0,0,0-1.125.15,5.058,5.058,0,0,0-.781.338q-.344.188-.669.337a1.837,1.837,0,0,1-.775.15,1.171,1.171,0,0,1-.681-.194,1.439,1.439,0,0,1-.444-.481l-.7-1.213a7.88,7.88,0,0,1,2.606-1.544,9.137,9.137,0,0,1,3.069-.506,5.612,5.612,0,0,1,2.119.381,4.56,4.56,0,0,1,1.6,1.063A4.643,4.643,0,0,1,37.95-10.15,5.818,5.818,0,0,1,38.3-8.1V0Zm-4.45-2.362a3.075,3.075,0,0,0,1.313-.263,4,4,0,0,0,1.138-.85v-1.8a12.865,12.865,0,0,0-1.913.2,4.646,4.646,0,0,0-1.187.375,1.437,1.437,0,0,0-.606.512,1.213,1.213,0,0,0-.169.625,1.086,1.086,0,0,0,.362.931A1.769,1.769,0,0,0,32.075-2.362Zm16.9-7.763a1,1,0,0,1-.319.337.836.836,0,0,1-.431.1,1.378,1.378,0,0,1-.55-.119l-.594-.256a6.469,6.469,0,0,0-.719-.256,3.209,3.209,0,0,0-.912-.119,1.93,1.93,0,0,0-1.131.281.906.906,0,0,0-.394.781.783.783,0,0,0,.256.6,2.351,2.351,0,0,0,.681.419,9.4,9.4,0,0,0,.962.344q.538.162,1.1.363a9.8,9.8,0,0,1,1.1.469,4.114,4.114,0,0,1,.963.663,2.957,2.957,0,0,1,.681.956,3.239,3.239,0,0,1,.256,1.35,4.439,4.439,0,0,1-.35,1.775,3.769,3.769,0,0,1-1.044,1.4,4.936,4.936,0,0,1-1.713.912A7.714,7.714,0,0,1,44.475.2,7.132,7.132,0,0,1,43.15.075a9.178,9.178,0,0,1-1.281-.337,6.98,6.98,0,0,1-1.144-.506,4.96,4.96,0,0,1-.9-.631l.9-1.425a1.3,1.3,0,0,1,.388-.394,1.076,1.076,0,0,1,.588-.144,1.222,1.222,0,0,1,.606.15l.581.325a4.845,4.845,0,0,0,.731.325,3.171,3.171,0,0,0,1.056.15,2.683,2.683,0,0,0,.763-.094,1.344,1.344,0,0,0,.5-.256,1.023,1.023,0,0,0,.275-.362,1.019,1.019,0,0,0,.088-.412.842.842,0,0,0-.263-.637,2.287,2.287,0,0,0-.687-.431,8.382,8.382,0,0,0-.969-.338Q43.837-5.1,43.275-5.3a8.886,8.886,0,0,1-1.106-.481,3.806,3.806,0,0,1-.969-.713,3.311,3.311,0,0,1-.687-1.056,3.9,3.9,0,0,1-.263-1.513,3.941,3.941,0,0,1,.319-1.569,3.642,3.642,0,0,1,.956-1.306,4.7,4.7,0,0,1,1.6-.894,6.918,6.918,0,0,1,2.25-.331,7.234,7.234,0,0,1,1.356.125,6.931,6.931,0,0,1,1.231.35,5.9,5.9,0,0,1,1.05.531,5.042,5.042,0,0,1,.837.669ZM57.6-13.162a6.674,6.674,0,0,1,2.356.4A5.122,5.122,0,0,1,61.794-11.6a5.306,5.306,0,0,1,1.2,1.869,6.858,6.858,0,0,1,.431,2.506,5.47,5.47,0,0,1-.038.712,1.128,1.128,0,0,1-.137.438.523.523,0,0,1-.269.225,1.259,1.259,0,0,1-.431.063H55.075a3.654,3.654,0,0,0,.988,2.356,2.938,2.938,0,0,0,2.063.731,3.692,3.692,0,0,0,1.162-.162,5.865,5.865,0,0,0,.869-.362q.381-.2.7-.363a1.453,1.453,0,0,1,.669-.163.8.8,0,0,1,.7.338L63.35-2.025A5.76,5.76,0,0,1,62.056-.906a6.723,6.723,0,0,1-1.425.675,7.724,7.724,0,0,1-1.463.338A10.975,10.975,0,0,1,57.775.2a7.277,7.277,0,0,1-2.556-.444,5.874,5.874,0,0,1-2.088-1.319,6.222,6.222,0,0,1-1.412-2.175A8.127,8.127,0,0,1,51.2-6.763a6.846,6.846,0,0,1,.444-2.462,6.065,6.065,0,0,1,1.275-2.038,6.071,6.071,0,0,1,2.012-1.387A6.642,6.642,0,0,1,57.6-13.162Zm.075,2.675a2.335,2.335,0,0,0-1.737.631,3.289,3.289,0,0,0-.825,1.819H59.95a3.42,3.42,0,0,0-.119-.9,2.182,2.182,0,0,0-.388-.781,1.972,1.972,0,0,0-.706-.556A2.415,2.415,0,0,0,57.675-10.488ZM79.787-8.325q.25.475.481.987t.444,1.05q.212-.55.45-1.069t.488-1.006l4.675-9.2a1.528,1.528,0,0,1,.256-.369.839.839,0,0,1,.294-.194,1.232,1.232,0,0,1,.369-.075q.206-.012.481-.013H90.95V0H87.225V-10.475q0-.762.075-1.65L82.475-2.763a1.59,1.59,0,0,1-.606.663A1.677,1.677,0,0,1,81-1.875h-.575a1.677,1.677,0,0,1-.869-.225,1.59,1.59,0,0,1-.606-.663L74.1-12.137q.05.438.075.869t.025.794V0H70.475V-18.212H73.7q.275,0,.481.013a1.232,1.232,0,0,1,.369.075.839.839,0,0,1,.294.194,1.528,1.528,0,0,1,.256.369ZM102.9,0a1.815,1.815,0,0,1-.831-.15,1.146,1.146,0,0,1-.469-.625l-.275-.713q-.488.412-.937.725a5.941,5.941,0,0,1-.931.531,4.6,4.6,0,0,1-1.025.325A6.308,6.308,0,0,1,97.225.2a5.289,5.289,0,0,1-1.613-.231,3.364,3.364,0,0,1-1.231-.681A3,3,0,0,1,93.6-1.831a4.034,4.034,0,0,1-.275-1.544,3.238,3.238,0,0,1,.35-1.412,3.485,3.485,0,0,1,1.213-1.319A7.706,7.706,0,0,1,97.212-7.1a15.6,15.6,0,0,1,3.688-.45V-8.1a2.377,2.377,0,0,0-.469-1.644A1.724,1.724,0,0,0,99.1-10.25a3.532,3.532,0,0,0-1.125.15,5.058,5.058,0,0,0-.781.338q-.344.188-.669.337a1.837,1.837,0,0,1-.775.15,1.171,1.171,0,0,1-.681-.194,1.439,1.439,0,0,1-.444-.481l-.7-1.213a7.88,7.88,0,0,1,2.606-1.544,9.137,9.137,0,0,1,3.069-.506,5.612,5.612,0,0,1,2.119.381,4.56,4.56,0,0,1,1.6,1.063,4.643,4.643,0,0,1,1.006,1.619,5.818,5.818,0,0,1,.35,2.05V0ZM98.45-2.362a3.075,3.075,0,0,0,1.313-.263,4,4,0,0,0,1.137-.85v-1.8a12.865,12.865,0,0,0-1.912.2A4.646,4.646,0,0,0,97.8-4.7a1.437,1.437,0,0,0-.606.512,1.213,1.213,0,0,0-.169.625,1.086,1.086,0,0,0,.363.931A1.769,1.769,0,0,0,98.45-2.362ZM107.425,0V-12.962h2.4a1.069,1.069,0,0,1,.606.162.868.868,0,0,1,.344.488l.225.75a9.414,9.414,0,0,1,.775-.65,4.539,4.539,0,0,1,.856-.506,5.082,5.082,0,0,1,.987-.325,5.3,5.3,0,0,1,1.156-.119,4.538,4.538,0,0,1,1.881.369,3.9,3.9,0,0,1,1.381,1.025,4.424,4.424,0,0,1,.85,1.563,6.479,6.479,0,0,1,.287,1.969V0H115.3V-8.238a2.267,2.267,0,0,0-.437-1.481,1.571,1.571,0,0,0-1.287-.531,2.7,2.7,0,0,0-1.2.275,4.666,4.666,0,0,0-1.075.737V0Zm23.45,0a1.815,1.815,0,0,1-.831-.15,1.146,1.146,0,0,1-.469-.625l-.275-.713q-.487.412-.937.725a5.942,5.942,0,0,1-.931.531,4.6,4.6,0,0,1-1.025.325A6.308,6.308,0,0,1,125.2.2a5.289,5.289,0,0,1-1.613-.231,3.364,3.364,0,0,1-1.231-.681,3,3,0,0,1-.781-1.119,4.034,4.034,0,0,1-.275-1.544,3.238,3.238,0,0,1,.35-1.412,3.485,3.485,0,0,1,1.213-1.319,7.706,7.706,0,0,1,2.325-.994,15.6,15.6,0,0,1,3.688-.45V-8.1a2.377,2.377,0,0,0-.469-1.644,1.724,1.724,0,0,0-1.331-.506,3.532,3.532,0,0,0-1.125.15,5.058,5.058,0,0,0-.781.338q-.344.188-.669.337a1.837,1.837,0,0,1-.775.15,1.171,1.171,0,0,1-.681-.194,1.439,1.439,0,0,1-.444-.481l-.7-1.213a7.88,7.88,0,0,1,2.606-1.544,9.137,9.137,0,0,1,3.069-.506,5.612,5.612,0,0,1,2.119.381,4.56,4.56,0,0,1,1.6,1.063A4.643,4.643,0,0,1,132.3-10.15a5.817,5.817,0,0,1,.35,2.05V0Zm-4.45-2.362a3.075,3.075,0,0,0,1.313-.263,4,4,0,0,0,1.137-.85v-1.8a12.865,12.865,0,0,0-1.912.2,4.646,4.646,0,0,0-1.187.375,1.437,1.437,0,0,0-.606.512,1.213,1.213,0,0,0-.169.625,1.086,1.086,0,0,0,.363.931A1.769,1.769,0,0,0,126.425-2.362Zm13.55-10.825a7.161,7.161,0,0,1,1.556.162,6.262,6.262,0,0,1,1.356.463H146.8v1.412a.706.706,0,0,1-.181.513,1.241,1.241,0,0,1-.619.287l-.95.213a3.891,3.891,0,0,1,.175,1.162,3.712,3.712,0,0,1-.406,1.75,3.98,3.98,0,0,1-1.113,1.319,5.188,5.188,0,0,1-1.669.838,7.031,7.031,0,0,1-2.062.294,8.332,8.332,0,0,1-1.15-.075.7.7,0,0,0-.425.575.487.487,0,0,0,.344.469,3.229,3.229,0,0,0,.906.2q.563.056,1.288.075t1.475.088a11.563,11.563,0,0,1,1.475.231,3.949,3.949,0,0,1,1.287.525,2.737,2.737,0,0,1,.906.969,3.1,3.1,0,0,1,.344,1.544A3.744,3.744,0,0,1,146,1.538a4.472,4.472,0,0,1-1.25,1.488,6.53,6.53,0,0,1-2.025,1.044,8.813,8.813,0,0,1-2.75.394,10.56,10.56,0,0,1-2.631-.288,6.37,6.37,0,0,1-1.838-.756,3.186,3.186,0,0,1-1.081-1.081,2.535,2.535,0,0,1-.35-1.275A2.12,2.12,0,0,1,134.6-.394a3.489,3.489,0,0,1,1.438-.931,2.195,2.195,0,0,1-.7-.738,2.231,2.231,0,0,1-.262-1.138,2.026,2.026,0,0,1,.1-.606,2.219,2.219,0,0,1,.313-.619A3.13,3.13,0,0,1,136.025-5a3.518,3.518,0,0,1,.775-.488,4.234,4.234,0,0,1-1.594-1.425,3.679,3.679,0,0,1-.581-2.063,3.7,3.7,0,0,1,.412-1.756,3.969,3.969,0,0,1,1.131-1.325,5.323,5.323,0,0,1,1.694-.837A7.293,7.293,0,0,1,139.975-13.187ZM142.85.475a.664.664,0,0,0-.194-.5,1.382,1.382,0,0,0-.525-.3,3.718,3.718,0,0,0-.775-.162q-.444-.05-.956-.075t-1.062-.044q-.55-.019-1.087-.081a2.544,2.544,0,0,0-.594.556,1.122,1.122,0,0,0-.231.694,1.054,1.054,0,0,0,.119.5.978.978,0,0,0,.419.387,2.782,2.782,0,0,0,.806.256,7.235,7.235,0,0,0,1.281.094,7.749,7.749,0,0,0,1.375-.1,2.911,2.911,0,0,0,.856-.275,1.034,1.034,0,0,0,.444-.419A1.147,1.147,0,0,0,142.85.475Zm-2.875-7.638a1.787,1.787,0,0,0,1.394-.481,1.793,1.793,0,0,0,.431-1.244,1.715,1.715,0,0,0-.431-1.237,1.861,1.861,0,0,0-1.394-.45,1.861,1.861,0,0,0-1.394.45,1.715,1.715,0,0,0-.431,1.237,2.125,2.125,0,0,0,.106.688,1.428,1.428,0,0,0,.331.544,1.552,1.552,0,0,0,.569.362A2.3,2.3,0,0,0,139.975-7.163Zm14.05-6a6.674,6.674,0,0,1,2.356.4,5.122,5.122,0,0,1,1.837,1.163,5.306,5.306,0,0,1,1.2,1.869,6.858,6.858,0,0,1,.431,2.506,5.469,5.469,0,0,1-.038.712,1.128,1.128,0,0,1-.137.438.523.523,0,0,1-.269.225,1.259,1.259,0,0,1-.431.063H151.5a3.654,3.654,0,0,0,.988,2.356,2.938,2.938,0,0,0,2.063.731,3.692,3.692,0,0,0,1.163-.162,5.865,5.865,0,0,0,.869-.362q.381-.2.7-.363a1.453,1.453,0,0,1,.669-.163.8.8,0,0,1,.7.338l1.125,1.387a5.76,5.76,0,0,1-1.294,1.119,6.723,6.723,0,0,1-1.425.675,7.724,7.724,0,0,1-1.463.338A10.975,10.975,0,0,1,154.2.2a7.277,7.277,0,0,1-2.556-.444,5.874,5.874,0,0,1-2.087-1.319,6.222,6.222,0,0,1-1.413-2.175,8.127,8.127,0,0,1-.519-3.025,6.846,6.846,0,0,1,.444-2.462,6.065,6.065,0,0,1,1.275-2.038,6.071,6.071,0,0,1,2.013-1.387A6.642,6.642,0,0,1,154.025-13.162Zm.075,2.675a2.335,2.335,0,0,0-1.738.631,3.289,3.289,0,0,0-.825,1.819h4.837a3.421,3.421,0,0,0-.119-.9,2.182,2.182,0,0,0-.387-.781,1.972,1.972,0,0,0-.706-.556A2.415,2.415,0,0,0,154.1-10.488ZM162.075,0V-12.962h2.3a1.961,1.961,0,0,1,.481.05.844.844,0,0,1,.325.156.667.667,0,0,1,.2.281,2.536,2.536,0,0,1,.119.425l.212,1.213a6.352,6.352,0,0,1,1.6-1.738,3.251,3.251,0,0,1,1.938-.637,2.232,2.232,0,0,1,1.425.425l-.5,2.85a.556.556,0,0,1-.2.369.679.679,0,0,1-.4.106,2.653,2.653,0,0,1-.5-.056,3.876,3.876,0,0,0-.725-.056,2.662,2.662,0,0,0-2.4,1.625V0Z" transform="translate(563.575 1245.834)" fill="#394049"/>
      <path id="Path_69" data-name="Path 69" d="M11.539-3.959a.713.713,0,0,1,.252.047.685.685,0,0,1,.241.163l1.407,1.48A5.841,5.841,0,0,1,11.125-.446,8.1,8.1,0,0,1,7.833.168,7.842,7.842,0,0,1,4.709-.425,6.76,6.76,0,0,1,2.368-2.063,7.213,7.213,0,0,1,.892-4.541,9.15,9.15,0,0,1,.378-7.654,8.208,8.208,0,0,1,.966-10.8a7.335,7.335,0,0,1,1.643-2.473,7.412,7.412,0,0,1,2.525-1.617,8.8,8.8,0,0,1,3.244-.578A8.264,8.264,0,0,1,10-15.314a7.929,7.929,0,0,1,1.423.42,6.693,6.693,0,0,1,1.218.64,5.871,5.871,0,0,1,.987.824l-1.2,1.606a1.524,1.524,0,0,1-.273.268.71.71,0,0,1-.441.121.788.788,0,0,1-.357-.084,3.946,3.946,0,0,1-.357-.2l-.415-.262a3.183,3.183,0,0,0-.535-.262,4.426,4.426,0,0,0-.725-.2,4.944,4.944,0,0,0-.971-.084,4.441,4.441,0,0,0-1.764.341,3.868,3.868,0,0,0-1.37.976,4.528,4.528,0,0,0-.893,1.538,6.034,6.034,0,0,0-.32,2.027,6.3,6.3,0,0,0,.32,2.089A4.588,4.588,0,0,0,5.2-4.027a3.7,3.7,0,0,0,1.286.95,3.846,3.846,0,0,0,1.575.326A7.539,7.539,0,0,0,8.946-2.8a3.64,3.64,0,0,0,.74-.163,3.424,3.424,0,0,0,.651-.3,4.346,4.346,0,0,0,.625-.457,1.242,1.242,0,0,1,.273-.173A.715.715,0,0,1,11.539-3.959ZM15.057,0V-10.888h1.932a1.647,1.647,0,0,1,.4.042.709.709,0,0,1,.273.131.56.56,0,0,1,.168.236,2.13,2.13,0,0,1,.1.357L18.112-9.1a5.336,5.336,0,0,1,1.344-1.46,2.731,2.731,0,0,1,1.628-.535,1.875,1.875,0,0,1,1.2.357l-.42,2.394a.467.467,0,0,1-.168.31.57.57,0,0,1-.336.089A2.229,2.229,0,0,1,20.937-8a3.256,3.256,0,0,0-.609-.047,2.236,2.236,0,0,0-2.016,1.365V0ZM28.392-11.056a5.606,5.606,0,0,1,1.979.336,4.3,4.3,0,0,1,1.543.977,4.457,4.457,0,0,1,1.008,1.57,5.76,5.76,0,0,1,.362,2.105,4.6,4.6,0,0,1-.032.6.947.947,0,0,1-.115.368.44.44,0,0,1-.226.189,1.057,1.057,0,0,1-.362.053H26.271a3.07,3.07,0,0,0,.83,1.979,2.468,2.468,0,0,0,1.733.614,3.1,3.1,0,0,0,.976-.136,4.926,4.926,0,0,0,.73-.3q.32-.168.588-.3a1.221,1.221,0,0,1,.562-.137.673.673,0,0,1,.588.284L33.222-1.7a4.838,4.838,0,0,1-1.087.94,5.647,5.647,0,0,1-1.2.567A6.488,6.488,0,0,1,29.71.089a9.219,9.219,0,0,1-1.171.079A6.113,6.113,0,0,1,26.392-.2a4.934,4.934,0,0,1-1.753-1.108,5.227,5.227,0,0,1-1.186-1.827,6.826,6.826,0,0,1-.436-2.541,5.75,5.75,0,0,1,.373-2.068A5.1,5.1,0,0,1,24.46-9.461a5.1,5.1,0,0,1,1.691-1.165A5.579,5.579,0,0,1,28.392-11.056Zm.063,2.247a1.961,1.961,0,0,0-1.46.53A2.763,2.763,0,0,0,26.3-6.752h4.063a2.873,2.873,0,0,0-.1-.756,1.833,1.833,0,0,0-.325-.656,1.656,1.656,0,0,0-.593-.467A2.029,2.029,0,0,0,28.455-8.809ZM42.672,0a1.525,1.525,0,0,1-.7-.126.963.963,0,0,1-.394-.525l-.231-.6q-.409.346-.787.609a4.991,4.991,0,0,1-.782.446,3.863,3.863,0,0,1-.861.273,5.3,5.3,0,0,1-1.013.089A4.443,4.443,0,0,1,36.55-.026,2.826,2.826,0,0,1,35.516-.6a2.516,2.516,0,0,1-.656-.94,3.389,3.389,0,0,1-.231-1.3,2.72,2.72,0,0,1,.294-1.186,2.927,2.927,0,0,1,1.019-1.108,6.473,6.473,0,0,1,1.953-.835,13.1,13.1,0,0,1,3.1-.378V-6.8A2,2,0,0,0,40.6-8.185,1.448,1.448,0,0,0,39.48-8.61a2.967,2.967,0,0,0-.945.126,4.248,4.248,0,0,0-.656.283q-.289.158-.562.284a1.543,1.543,0,0,1-.651.126.984.984,0,0,1-.572-.163,1.209,1.209,0,0,1-.373-.4l-.588-1.019a6.619,6.619,0,0,1,2.189-1.3A7.675,7.675,0,0,1,39.9-11.1a4.714,4.714,0,0,1,1.78.32,3.83,3.83,0,0,1,1.344.892,3.9,3.9,0,0,1,.845,1.36A4.887,4.887,0,0,1,44.163-6.8V0ZM38.934-1.984a2.583,2.583,0,0,0,1.1-.22,3.359,3.359,0,0,0,.956-.714V-4.431a10.806,10.806,0,0,0-1.606.168,3.9,3.9,0,0,0-1,.315,1.207,1.207,0,0,0-.509.43,1.019,1.019,0,0,0-.142.525.912.912,0,0,0,.3.782A1.486,1.486,0,0,0,38.934-1.984ZM50.3.168a3.839,3.839,0,0,1-1.37-.226,2.722,2.722,0,0,1-1-.64,2.73,2.73,0,0,1-.614-1,3.882,3.882,0,0,1-.21-1.313V-8.642h-.924a.616.616,0,0,1-.431-.163.614.614,0,0,1-.179-.478v-1.271l1.733-.336.64-2.657a.647.647,0,0,1,.714-.5h1.7v3.182H53v2.226H50.358v5.408a1.018,1.018,0,0,0,.184.625.621.621,0,0,0,.53.247,1.042,1.042,0,0,0,.3-.037,1.192,1.192,0,0,0,.21-.084q.089-.047.168-.084a.43.43,0,0,1,.184-.037.379.379,0,0,1,.236.068.845.845,0,0,1,.184.215L53.34-.777a4.492,4.492,0,0,1-1.417.709A5.633,5.633,0,0,1,50.3.168Zm9.24-11.224a5.606,5.606,0,0,1,1.979.336,4.3,4.3,0,0,1,1.543.977,4.457,4.457,0,0,1,1.008,1.57,5.76,5.76,0,0,1,.362,2.105,4.6,4.6,0,0,1-.032.6.947.947,0,0,1-.116.368.44.44,0,0,1-.226.189,1.057,1.057,0,0,1-.362.053H57.414a3.07,3.07,0,0,0,.83,1.979,2.468,2.468,0,0,0,1.732.614,3.1,3.1,0,0,0,.977-.136,4.926,4.926,0,0,0,.73-.3q.32-.168.588-.3a1.221,1.221,0,0,1,.562-.137.673.673,0,0,1,.588.284L64.365-1.7a4.838,4.838,0,0,1-1.087.94,5.647,5.647,0,0,1-1.2.567,6.488,6.488,0,0,1-1.229.284,9.219,9.219,0,0,1-1.171.079A6.113,6.113,0,0,1,57.535-.2a4.934,4.934,0,0,1-1.753-1.108,5.227,5.227,0,0,1-1.187-1.827,6.827,6.827,0,0,1-.436-2.541,5.75,5.75,0,0,1,.373-2.068A5.1,5.1,0,0,1,55.6-9.461a5.1,5.1,0,0,1,1.69-1.165A5.58,5.58,0,0,1,59.535-11.056ZM59.6-8.809a1.961,1.961,0,0,0-1.459.53,2.763,2.763,0,0,0-.693,1.528h4.063a2.873,2.873,0,0,0-.1-.756,1.833,1.833,0,0,0-.326-.656,1.656,1.656,0,0,0-.593-.467A2.029,2.029,0,0,0,59.6-8.809Z" transform="translate(1071.575 1243.834)" fill="#fff"/>
      <path id="Path_65" data-name="Path 65" d="M3.129-15.3a3.012,3.012,0,0,1,.388.021A.992.992,0,0,1,3.8-15.2a.946.946,0,0,1,.242.163,2.76,2.76,0,0,1,.262.284l7.266,9.188q-.042-.441-.063-.856T11.487-7.2v-8.1h3.129V0H12.768a1.7,1.7,0,0,1-.693-.126,1.483,1.483,0,0,1-.546-.462L4.316-9.7q.031.4.052.782t.021.719V0H1.26V-15.3Zm18.858,4.242a6.289,6.289,0,0,1,2.257.388,4.951,4.951,0,0,1,1.748,1.113A5.014,5.014,0,0,1,27.127-7.8a6.345,6.345,0,0,1,.4,2.326,6.46,6.46,0,0,1-.4,2.347,5.049,5.049,0,0,1-1.134,1.775A4.975,4.975,0,0,1,24.244-.226a6.213,6.213,0,0,1-2.257.394,6.286,6.286,0,0,1-2.273-.394A5.073,5.073,0,0,1,17.95-1.349a4.975,4.975,0,0,1-1.145-1.775,6.46,6.46,0,0,1-.4-2.347,6.345,6.345,0,0,1,.4-2.326A4.941,4.941,0,0,1,17.95-9.555a5.049,5.049,0,0,1,1.764-1.113A6.362,6.362,0,0,1,21.987-11.056Zm0,8.809a1.849,1.849,0,0,0,1.654-.793,4.384,4.384,0,0,0,.53-2.41,4.356,4.356,0,0,0-.53-2.4,1.853,1.853,0,0,0-1.654-.788,1.9,1.9,0,0,0-1.69.788,4.322,4.322,0,0,0-.536,2.4A4.35,4.35,0,0,0,20.3-3.04,1.894,1.894,0,0,0,21.987-2.247ZM33.138.168a3.839,3.839,0,0,1-1.37-.226,2.722,2.722,0,0,1-1-.64,2.73,2.73,0,0,1-.614-1,3.882,3.882,0,0,1-.21-1.313V-8.642h-.924a.616.616,0,0,1-.431-.163.614.614,0,0,1-.178-.478v-1.271l1.733-.336.64-2.657a.647.647,0,0,1,.714-.5h1.7v3.182h2.646v2.226H33.2v5.408a1.018,1.018,0,0,0,.184.625.621.621,0,0,0,.53.247,1.042,1.042,0,0,0,.3-.037,1.192,1.192,0,0,0,.21-.084q.089-.047.168-.084a.43.43,0,0,1,.184-.037.379.379,0,0,1,.236.068.845.845,0,0,1,.184.215l.987,1.543a4.492,4.492,0,0,1-1.417.709A5.633,5.633,0,0,1,33.138.168Zm7.938-11.056V0H37.821V-10.888Zm.378-2.982a1.72,1.72,0,0,1-.158.73,1.921,1.921,0,0,1-.431.6,2.108,2.108,0,0,1-.635.409,1.971,1.971,0,0,1-.772.152,1.832,1.832,0,0,1-.745-.152,2.1,2.1,0,0,1-.614-.409,1.89,1.89,0,0,1-.42-.6,1.771,1.771,0,0,1-.152-.73,1.832,1.832,0,0,1,.152-.745,1.934,1.934,0,0,1,.42-.609,1.967,1.967,0,0,1,.614-.409,1.889,1.889,0,0,1,.745-.147,2.033,2.033,0,0,1,.772.147,1.982,1.982,0,0,1,.635.409,1.965,1.965,0,0,1,.431.609A1.78,1.78,0,0,1,41.454-13.87ZM44.184,0V-8.652L43.47-8.8a1.474,1.474,0,0,1-.593-.262.629.629,0,0,1-.226-.525v-1.281h1.533v-.158a5.093,5.093,0,0,1,.341-1.864,3.972,3.972,0,0,1,1.055-1.522A5.162,5.162,0,0,1,47.4-15.435a8.206,8.206,0,0,1,2.641-.378q.472,0,.976.047a5.665,5.665,0,0,1,.872.142l-.1,1.649a.369.369,0,0,1-.263.347,1.555,1.555,0,0,1-.514.084,8.077,8.077,0,0,0-1.806.168,2.836,2.836,0,0,0-1.129.5,1.727,1.727,0,0,0-.578.824,3.619,3.619,0,0,0-.163,1.134v.053h6.909V0H50.988V-8.642H47.439V0Zm20.58-8.306a1.8,1.8,0,0,1-.284.283.626.626,0,0,1-.388.105.836.836,0,0,1-.436-.115l-.436-.257a3.305,3.305,0,0,0-.567-.257,2.441,2.441,0,0,0-.809-.115,2.265,2.265,0,0,0-1.034.22,1.915,1.915,0,0,0-.719.63,2.879,2.879,0,0,0-.42,1,5.99,5.99,0,0,0-.137,1.339,4.08,4.08,0,0,0,.6,2.4,1.938,1.938,0,0,0,1.664.84,2.326,2.326,0,0,0,.9-.142,2.721,2.721,0,0,0,.562-.315L63.688-3a.786.786,0,0,1,.488-.147.673.673,0,0,1,.588.284L65.709-1.7a5.142,5.142,0,0,1-1.061.94,5.32,5.32,0,0,1-1.139.567,5.88,5.88,0,0,1-1.171.284,8.62,8.62,0,0,1-1.145.079A4.911,4.911,0,0,1,59.288-.21a4.669,4.669,0,0,1-1.6-1.1A5.255,5.255,0,0,1,56.6-3.077a6.628,6.628,0,0,1-.4-2.394,6.725,6.725,0,0,1,.352-2.2,4.994,4.994,0,0,1,1.039-1.774,4.833,4.833,0,0,1,1.7-1.181,5.961,5.961,0,0,1,2.347-.431,5.721,5.721,0,0,1,2.247.409,5.392,5.392,0,0,1,1.743,1.2ZM74.634,0a1.525,1.525,0,0,1-.7-.126.963.963,0,0,1-.394-.525l-.231-.6q-.41.346-.787.609a4.992,4.992,0,0,1-.782.446,3.863,3.863,0,0,1-.861.273,5.3,5.3,0,0,1-1.013.089,4.443,4.443,0,0,1-1.354-.194A2.826,2.826,0,0,1,67.478-.6a2.516,2.516,0,0,1-.656-.94,3.389,3.389,0,0,1-.231-1.3,2.72,2.72,0,0,1,.294-1.186A2.927,2.927,0,0,1,67.9-5.129a6.473,6.473,0,0,1,1.953-.835,13.1,13.1,0,0,1,3.1-.378V-6.8a2,2,0,0,0-.394-1.381,1.448,1.448,0,0,0-1.118-.425,2.967,2.967,0,0,0-.945.126,4.248,4.248,0,0,0-.656.283q-.289.158-.562.284a1.543,1.543,0,0,1-.651.126.984.984,0,0,1-.572-.163,1.209,1.209,0,0,1-.373-.4L67.1-9.377a6.619,6.619,0,0,1,2.189-1.3,7.675,7.675,0,0,1,2.578-.425,4.714,4.714,0,0,1,1.78.32,3.83,3.83,0,0,1,1.344.892,3.9,3.9,0,0,1,.845,1.36A4.887,4.887,0,0,1,76.125-6.8V0ZM70.9-1.984A2.583,2.583,0,0,0,72-2.2a3.359,3.359,0,0,0,.955-.714V-4.431a10.806,10.806,0,0,0-1.606.168,3.9,3.9,0,0,0-1,.315,1.207,1.207,0,0,0-.509.43,1.019,1.019,0,0,0-.142.525.912.912,0,0,0,.3.782A1.486,1.486,0,0,0,70.9-1.984ZM82.257.168a3.839,3.839,0,0,1-1.37-.226,2.722,2.722,0,0,1-1-.64,2.73,2.73,0,0,1-.614-1,3.882,3.882,0,0,1-.21-1.313V-8.642h-.924a.616.616,0,0,1-.431-.163.614.614,0,0,1-.178-.478v-1.271l1.732-.336.641-2.657a.647.647,0,0,1,.714-.5h1.7v3.182h2.646v2.226H82.32v5.408a1.018,1.018,0,0,0,.184.625.621.621,0,0,0,.53.247,1.042,1.042,0,0,0,.3-.037,1.192,1.192,0,0,0,.21-.084q.089-.047.168-.084A.43.43,0,0,1,83.9-2.6a.379.379,0,0,1,.236.068.845.845,0,0,1,.184.215L85.3-.777a4.492,4.492,0,0,1-1.417.709A5.633,5.633,0,0,1,82.257.168Zm7.938-11.056V0H86.94V-10.888Zm.378-2.982a1.72,1.72,0,0,1-.158.73,1.921,1.921,0,0,1-.43.6,2.108,2.108,0,0,1-.635.409,1.971,1.971,0,0,1-.772.152,1.832,1.832,0,0,1-.745-.152,2.1,2.1,0,0,1-.614-.409,1.89,1.89,0,0,1-.42-.6,1.771,1.771,0,0,1-.152-.73,1.832,1.832,0,0,1,.152-.745,1.935,1.935,0,0,1,.42-.609,1.967,1.967,0,0,1,.614-.409,1.889,1.889,0,0,1,.745-.147,2.033,2.033,0,0,1,.772.147,1.982,1.982,0,0,1,.635.409,1.965,1.965,0,0,1,.43.609A1.78,1.78,0,0,1,90.573-13.87Zm7.1,2.814a6.289,6.289,0,0,1,2.257.388,4.951,4.951,0,0,1,1.748,1.113A5.014,5.014,0,0,1,102.811-7.8a6.345,6.345,0,0,1,.4,2.326,6.46,6.46,0,0,1-.4,2.347,5.049,5.049,0,0,1-1.134,1.775A4.975,4.975,0,0,1,99.928-.226a6.213,6.213,0,0,1-2.257.394A6.286,6.286,0,0,1,95.4-.226a5.073,5.073,0,0,1-1.764-1.123,4.975,4.975,0,0,1-1.145-1.775,6.46,6.46,0,0,1-.4-2.347,6.345,6.345,0,0,1,.4-2.326,4.941,4.941,0,0,1,1.145-1.759A5.049,5.049,0,0,1,95.4-10.668,6.362,6.362,0,0,1,97.671-11.056Zm0,8.809a1.849,1.849,0,0,0,1.654-.793,4.384,4.384,0,0,0,.53-2.41,4.356,4.356,0,0,0-.53-2.4,1.853,1.853,0,0,0-1.654-.788,1.9,1.9,0,0,0-1.69.788,4.322,4.322,0,0,0-.535,2.4,4.35,4.35,0,0,0,.535,2.41A1.894,1.894,0,0,0,97.671-2.247ZM105,0V-10.888h2.016a.9.9,0,0,1,.509.136.729.729,0,0,1,.289.41l.189.63a7.908,7.908,0,0,1,.651-.546,3.812,3.812,0,0,1,.719-.425,4.269,4.269,0,0,1,.829-.273,4.451,4.451,0,0,1,.971-.1,3.812,3.812,0,0,1,1.58.31,3.279,3.279,0,0,1,1.16.861,3.716,3.716,0,0,1,.714,1.313,5.442,5.442,0,0,1,.242,1.654V0h-3.255V-6.919a1.9,1.9,0,0,0-.368-1.244,1.32,1.32,0,0,0-1.081-.446,2.265,2.265,0,0,0-1.008.231,3.92,3.92,0,0,0-.9.619V0Z" transform="translate(1144.575 1437.834)" fill="#fff"/>
    </g>
  </g>
</svg>
