<svg xmlns="http://www.w3.org/2000/svg" xmlns:xlink="http://www.w3.org/1999/xlink" width="706.56" height="991.381" viewBox="0 0 706.56 991.381">
  <defs>
    <filter id="Rectangle_322" x="60" y="340" width="608" height="83" filterUnits="userSpaceOnUse">
      <feOffset dy="2" input="SourceAlpha"/>
      <feGaussianBlur stdDeviation="2" result="blur"/>
      <feFlood flood-opacity="0.043"/>
      <feComposite operator="in" in2="blur"/>
      <feComposite in="SourceGraphic"/>
    </filter>
    <filter id="Rectangle_322-2" x="60" y="726" width="608" height="83" filterUnits="userSpaceOnUse">
      <feOffset dy="2" input="SourceAlpha"/>
      <feGaussianBlur stdDeviation="2" result="blur-2"/>
      <feFlood flood-opacity="0.043"/>
      <feComposite operator="in" in2="blur-2"/>
      <feComposite in="SourceGraphic"/>
    </filter>
    <filter id="Rectangle_322-3" x="60" y="826" width="608" height="83" filterUnits="userSpaceOnUse">
      <feOffset dy="2" input="SourceAlpha"/>
      <feGaussianBlur stdDeviation="2" result="blur-3"/>
      <feFlood flood-opacity="0.043"/>
      <feComposite operator="in" in2="blur-3"/>
      <feComposite in="SourceGraphic"/>
    </filter>
    <clipPath id="clip-Image_07_5">
      <rect width="706.56" height="991.38"/>
    </clipPath>
  </defs>
  <g id="Image_07_5" data-name="Image 07 – 5" clip-path="url(#clip-Image_07_5)">
    <rect width="706.56" height="991.38" fill="rgba(255,255,255,0)"/>
    <g id="Group_60" data-name="Group 60" transform="translate(-772 -2739)">
      <rect id="Rectangle_305" data-name="Rectangle 305" width="707" height="991" rx="10" transform="translate(772 2739)" fill="#fff"/>
      <g id="Group_58" data-name="Group 58" transform="translate(772 2784.049)">
        <rect id="Rectangle_306" data-name="Rectangle 306" width="119" height="21" rx="4" transform="translate(66 -0.049)" fill="#6f7a87"/>
        <rect id="Rectangle_310" data-name="Rectangle 310" width="119" height="21" rx="4" transform="translate(474 -0.049)" fill="#a4c5f2"/>
        <rect id="Rectangle_307" data-name="Rectangle 307" width="145" height="11" rx="4" transform="translate(66 35.951)" fill="#6f7a87"/>
        <rect id="Rectangle_311" data-name="Rectangle 311" width="145" height="11" rx="4" transform="translate(474 35.951)" fill="#a5c6f3"/>
        <rect id="Rectangle_308" data-name="Rectangle 308" width="145" height="12" rx="4" transform="translate(66 61.951)" fill="#6f7a87"/>
        <rect id="Rectangle_312" data-name="Rectangle 312" width="102" height="12" rx="4" transform="translate(474 61.951)" fill="#a5c6f3"/>
        <rect id="Rectangle_313" data-name="Rectangle 313" width="126" height="12" rx="4" transform="translate(474 82.951)" fill="#a5c6f3"/>
        <rect id="Rectangle_309" data-name="Rectangle 309" width="105" height="12" rx="4" transform="translate(66 82.951)" fill="#6f7a87"/>
        <rect id="Rectangle_314" data-name="Rectangle 314" width="707" height="93" transform="translate(0 160.951)" fill="#e9f1fc"/>
        <path id="Path_47" data-name="Path 47" d="M21.165,0H317.923L266.758,92.469H-30Z" transform="translate(51.339 161.228)" fill="#91b9f1" opacity="0.183"/>
        <path id="Path_55" data-name="Path 55" d="M21.165,0H317.923L266.758,92.469H-30Z" transform="translate(366.683 161.228)" fill="#91b9f1" opacity="0.183"/>
        <g id="Group_54" data-name="Group 54" transform="translate(66.388 298.747)">
          <g transform="matrix(1, 0, 0, 1, -66.39, -343.8)" filter="url(#Rectangle_322)">
            <path id="Rectangle_322-4" data-name="Rectangle 322" d="M2,0H592a4,4,0,0,1,4,4V67a4,4,0,0,1-4,4H2a2,2,0,0,1-2-2V2A2,2,0,0,1,2,0Z" transform="translate(66 344)" fill="#fff"/>
          </g>
          <rect id="Rectangle_321" data-name="Rectangle 321" width="5" height="71" rx="2" transform="translate(-0.388 0.203)" fill="#2272e2"/>
          <rect id="Rectangle_317" data-name="Rectangle 317" width="375" height="12" rx="4" transform="translate(37.612 19.203)" fill="#6f7a87"/>
          <rect id="Rectangle_318" data-name="Rectangle 318" width="169" height="12" rx="4" transform="translate(37.612 40.203)" fill="#afb5bd"/>
        </g>
        <g id="Group_56" data-name="Group 56" transform="translate(66.388 685.221)">
          <g transform="matrix(1, 0, 0, 1, -66.39, -730.27)" filter="url(#Rectangle_322-2)">
            <path id="Rectangle_322-5" data-name="Rectangle 322" d="M2,0H592a4,4,0,0,1,4,4V67a4,4,0,0,1-4,4H2a2,2,0,0,1-2-2V2A2,2,0,0,1,2,0Z" transform="translate(66 730)" fill="#fff"/>
          </g>
          <rect id="Rectangle_321-2" data-name="Rectangle 321" width="5" height="71" rx="2" transform="translate(-0.388 -0.27)" fill="#f2627c"/>
          <rect id="Rectangle_317-2" data-name="Rectangle 317" width="375" height="12" rx="4" transform="translate(37.612 18.73)" fill="#6f7a87"/>
          <rect id="Rectangle_318-2" data-name="Rectangle 318" width="169" height="11" rx="4" transform="translate(37.612 40.73)" fill="#afb5bd"/>
        </g>
        <g id="Group_57" data-name="Group 57" transform="translate(66.388 784.803)">
          <g transform="matrix(1, 0, 0, 1, -66.39, -829.85)" filter="url(#Rectangle_322-3)">
            <path id="Rectangle_322-6" data-name="Rectangle 322" d="M2,0H592a4,4,0,0,1,4,4V67a4,4,0,0,1-4,4H2a2,2,0,0,1-2-2V2A2,2,0,0,1,2,0Z" transform="translate(66 830)" fill="#fff"/>
          </g>
          <rect id="Rectangle_321-3" data-name="Rectangle 321" width="5" height="71" rx="2" transform="translate(-0.388 0.148)" fill="#2272e2"/>
          <rect id="Rectangle_317-3" data-name="Rectangle 317" width="375" height="12" rx="4" transform="translate(37.612 19.148)" fill="#6f7a87"/>
          <rect id="Rectangle_318-3" data-name="Rectangle 318" width="169" height="12" rx="4" transform="translate(37.612 40.148)" fill="#afb5bd"/>
        </g>
        <g id="Group_55" data-name="Group 55" transform="translate(66.388 305.86)">
          <rect id="Rectangle_321-4" data-name="Rectangle 321" width="5" height="259" rx="2" transform="translate(-0.388 92.092)" fill="#29cc9e"/>
          <rect id="Rectangle_317-4" data-name="Rectangle 317" width="375" height="12" rx="4" transform="translate(37.612 111.092)" fill="#6f7a87"/>
          <rect id="Rectangle_318-4" data-name="Rectangle 318" width="169" height="12" rx="4" transform="translate(37.612 133.092)" fill="#afb5bd"/>
          <rect id="Rectangle_323" data-name="Rectangle 323" width="168.341" height="11.855" rx="4" transform="translate(37.936 175.36)" fill="#afb5bd"/>
          <rect id="Rectangle_334" data-name="Rectangle 334" width="168.341" height="11.855" rx="4" transform="translate(37.936 264.794)" fill="#afb5bd"/>
          <rect id="Rectangle_326" data-name="Rectangle 326" width="120.921" height="11.855" rx="4" transform="translate(37.936 197.173)" fill="#afb5bd"/>
          <rect id="Rectangle_333" data-name="Rectangle 333" width="120.921" height="11.855" rx="4" transform="translate(37.936 286.607)" fill="#afb5bd"/>
          <rect id="Rectangle_329" data-name="Rectangle 329" width="132.776" height="11.855" rx="4" transform="translate(37.936 218.986)" fill="#afb5bd"/>
          <rect id="Rectangle_332" data-name="Rectangle 332" width="132.776" height="11.855" rx="4" transform="translate(37.936 308.421)" fill="#afb5bd"/>
          <rect id="Rectangle_324" data-name="Rectangle 324" width="109.066" height="11.855" rx="4" transform="translate(256.069 175.36)" fill="#afb5bd"/>
          <rect id="Rectangle_327" data-name="Rectangle 327" width="85.356" height="11.855" rx="4" transform="translate(256.069 197.173)" fill="#afb5bd"/>
          <rect id="Rectangle_330" data-name="Rectangle 330" width="156.486" height="11.855" rx="4" transform="translate(256.069 218.986)" fill="#afb5bd"/>
          <path id="Path_90" data-name="Path 90" d="M-87.416-9.59a1.44,1.44,0,0,1,.357-.973,1.339,1.339,0,0,1,1.071-.413h1.176V-14a7.814,7.814,0,0,1,.406-2.527,5.881,5.881,0,0,1,1.239-2.107,5.99,5.99,0,0,1,2.086-1.449,7.455,7.455,0,0,1,2.961-.539,6.85,6.85,0,0,1,2.051.287,5.813,5.813,0,0,1,1.638.8,6.081,6.081,0,0,1,1.267,1.2,8.988,8.988,0,0,1,.952,1.491l-1.736,1.092a2.092,2.092,0,0,1-.994.28A1.588,1.588,0,0,1-76.1-16a5.229,5.229,0,0,0-.966-.812,1.972,1.972,0,0,0-1.05-.266,1.919,1.919,0,0,0-1.687.791,3.947,3.947,0,0,0-.553,2.275v3.038h5.32v1.652a.908.908,0,0,1-.091.4,1.184,1.184,0,0,1-.252.343,1.228,1.228,0,0,1-.378.245,1.237,1.237,0,0,1-.483.091H-80.36v2.184a3.567,3.567,0,0,1-.315,1.519,5.056,5.056,0,0,1-.847,1.267q.63-.14,1.26-.217a10.492,10.492,0,0,1,1.274-.077h7.028v1.778a1.643,1.643,0,0,1-.133.63,1.956,1.956,0,0,1-.371.581,1.84,1.84,0,0,1-.581.42A1.774,1.774,0,0,1-73.808,0H-87.164V-2.6a4.156,4.156,0,0,0,.889-.266,2.811,2.811,0,0,0,.749-.462A2.161,2.161,0,0,0-85.008-4a2.01,2.01,0,0,0,.2-.91V-8.246h-2.6ZM-63.448.224A9.619,9.619,0,0,1-66.416-.21a6.914,6.914,0,0,1-2.3-1.225A5.443,5.443,0,0,1-70.2-3.346a5.8,5.8,0,0,1-.525-2.492A6.248,6.248,0,0,1-70.539-7.4a4.269,4.269,0,0,1,.6-1.344,4.42,4.42,0,0,1,1.064-1.085,6,6,0,0,1,1.575-.8,4.5,4.5,0,0,1-2.079-1.75,5.089,5.089,0,0,1-.679-2.688,5,5,0,0,1,.49-2.205,5.269,5.269,0,0,1,1.372-1.757A6.649,6.649,0,0,1-66.1-20.195a7.928,7.928,0,0,1,2.653-.427,7.928,7.928,0,0,1,2.653.427A6.649,6.649,0,0,1-58.7-19.026a5.269,5.269,0,0,1,1.372,1.757,5,5,0,0,1,.49,2.205,5.048,5.048,0,0,1-.686,2.688,4.549,4.549,0,0,1-2.072,1.75,6.046,6.046,0,0,1,1.561.8,4.42,4.42,0,0,1,1.064,1.085A4.391,4.391,0,0,1-56.364-7.4a6.036,6.036,0,0,1,.2,1.561,5.8,5.8,0,0,1-.525,2.492,5.443,5.443,0,0,1-1.484,1.911A6.914,6.914,0,0,1-60.48-.21,9.619,9.619,0,0,1-63.448.224Zm0-3.276a3.234,3.234,0,0,0,1.26-.224,2.4,2.4,0,0,0,.875-.609,2.411,2.411,0,0,0,.5-.91,3.825,3.825,0,0,0,.161-1.127,4.845,4.845,0,0,0-.14-1.2,2.33,2.33,0,0,0-.462-.931,2.136,2.136,0,0,0-.861-.6,3.6,3.6,0,0,0-1.337-.217,3.6,3.6,0,0,0-1.337.217,2.136,2.136,0,0,0-.861.6,2.329,2.329,0,0,0-.462.931,4.845,4.845,0,0,0-.14,1.2A3.825,3.825,0,0,0-66.087-4.8a2.411,2.411,0,0,0,.5.91,2.407,2.407,0,0,0,.868.609A3.222,3.222,0,0,0-63.448-3.052Zm0-9.128a2.6,2.6,0,0,0,1.19-.238,1.923,1.923,0,0,0,.728-.63,2.388,2.388,0,0,0,.364-.9,5.416,5.416,0,0,0,.1-1.036,3.4,3.4,0,0,0-.126-.924,2.1,2.1,0,0,0-.413-.791,2.092,2.092,0,0,0-.742-.553,2.609,2.609,0,0,0-1.1-.21,2.6,2.6,0,0,0-1.106.21,2.107,2.107,0,0,0-.735.553,2.1,2.1,0,0,0-.413.791,3.4,3.4,0,0,0-.126.924,5.416,5.416,0,0,0,.1,1.036,2.388,2.388,0,0,0,.364.9,1.923,1.923,0,0,0,.728.63A2.6,2.6,0,0,0-63.448-12.18ZM-46.9-20.622a7.917,7.917,0,0,1,2.723.441,6.1,6.1,0,0,1,2.065,1.225A5.274,5.274,0,0,1-40.8-17.087a6.112,6.112,0,0,1,.455,2.387,6.56,6.56,0,0,1-.315,2.072,8.162,8.162,0,0,1-.861,1.813,12.666,12.666,0,0,1-1.267,1.666q-.721.805-1.533,1.631l-3.99,4.088a14.539,14.539,0,0,1,1.519-.357,8.069,8.069,0,0,1,1.407-.133h3.808a1.542,1.542,0,0,1,1.106.385,1.334,1.334,0,0,1,.406,1.015V0H-54.4V-1.4a2.546,2.546,0,0,1,.168-.868,2.094,2.094,0,0,1,.588-.84l5.88-5.922a19.5,19.5,0,0,0,1.316-1.442,8.939,8.939,0,0,0,.924-1.351,6.156,6.156,0,0,0,.546-1.33A5.308,5.308,0,0,0-44.8-14.56a2.717,2.717,0,0,0-.581-1.869,2.254,2.254,0,0,0-1.771-.651,2.734,2.734,0,0,0-.9.14,2.692,2.692,0,0,0-.728.378,2.518,2.518,0,0,0-.553.56,2.956,2.956,0,0,0-.371.7,2.022,2.022,0,0,1-.567.91,1.429,1.429,0,0,1-.931.28q-.14,0-.3-.014t-.329-.042l-2.3-.406a7.659,7.659,0,0,1,.861-2.66,6.4,6.4,0,0,1,1.582-1.89,6.419,6.419,0,0,1,2.163-1.127A8.942,8.942,0,0,1-46.9-20.622ZM-38.248-2.2a2.324,2.324,0,0,1,.189-.938,2.371,2.371,0,0,1,.518-.756,2.471,2.471,0,0,1,.777-.511,2.5,2.5,0,0,1,.98-.189,2.46,2.46,0,0,1,.966.189,2.559,2.559,0,0,1,.784.511,2.317,2.317,0,0,1,.525.756,2.323,2.323,0,0,1,.189.938,2.373,2.373,0,0,1-.189.945,2.3,2.3,0,0,1-.525.763,2.458,2.458,0,0,1-.784.5A2.542,2.542,0,0,1-35.784.2a2.58,2.58,0,0,1-.98-.182,2.376,2.376,0,0,1-.777-.5,2.351,2.351,0,0,1-.518-.763A2.373,2.373,0,0,1-38.248-2.2ZM-16.8-10.206a16.588,16.588,0,0,1-.574,4.634,9.511,9.511,0,0,1-1.589,3.248A6.408,6.408,0,0,1-21.371-.406a7.235,7.235,0,0,1-3.017.63,7.14,7.14,0,0,1-3-.63,6.381,6.381,0,0,1-2.387-1.918,9.5,9.5,0,0,1-1.575-3.248,16.781,16.781,0,0,1-.567-4.634,16.781,16.781,0,0,1,.567-4.634,9.5,9.5,0,0,1,1.575-3.248A6.316,6.316,0,0,1-27.391-20a7.208,7.208,0,0,1,3-.623A7.3,7.3,0,0,1-21.371-20a6.344,6.344,0,0,1,2.408,1.911,9.511,9.511,0,0,1,1.589,3.248A16.588,16.588,0,0,1-16.8-10.206Zm-4.48,0a18.489,18.489,0,0,0-.266-3.465,7.1,7.1,0,0,0-.707-2.121,2.563,2.563,0,0,0-1-1.057,2.463,2.463,0,0,0-1.134-.287,2.421,2.421,0,0,0-1.127.287,2.5,2.5,0,0,0-.98,1.057,7.288,7.288,0,0,0-.686,2.121,18.977,18.977,0,0,0-.259,3.465,18.955,18.955,0,0,0,.259,3.472,7.385,7.385,0,0,0,.686,2.121,2.5,2.5,0,0,0,.98,1.064,2.421,2.421,0,0,0,1.127.287,2.463,2.463,0,0,0,1.134-.287,2.557,2.557,0,0,0,1-1.064,7.2,7.2,0,0,0,.707-2.121A18.467,18.467,0,0,0-21.28-10.206ZM-7.812-20.622a7.917,7.917,0,0,1,2.723.441,6.1,6.1,0,0,1,2.065,1.225,5.274,5.274,0,0,1,1.309,1.869A6.112,6.112,0,0,1-1.26-14.7a6.56,6.56,0,0,1-.315,2.072,8.162,8.162,0,0,1-.861,1.813A12.666,12.666,0,0,1-3.7-9.149q-.721.805-1.533,1.631L-9.226-3.43a14.539,14.539,0,0,1,1.519-.357A8.069,8.069,0,0,1-6.3-3.92h3.808a1.542,1.542,0,0,1,1.106.385A1.334,1.334,0,0,1-.98-2.52V0H-15.316V-1.4a2.546,2.546,0,0,1,.168-.868,2.094,2.094,0,0,1,.588-.84L-8.68-9.03a19.5,19.5,0,0,0,1.316-1.442,8.939,8.939,0,0,0,.924-1.351,6.156,6.156,0,0,0,.546-1.33,5.308,5.308,0,0,0,.182-1.407,2.717,2.717,0,0,0-.581-1.869,2.254,2.254,0,0,0-1.771-.651,2.734,2.734,0,0,0-.9.14,2.692,2.692,0,0,0-.728.378,2.518,2.518,0,0,0-.553.56,2.956,2.956,0,0,0-.371.7,2.022,2.022,0,0,1-.567.91,1.429,1.429,0,0,1-.931.28q-.14,0-.3-.014t-.329-.042l-2.3-.406a7.659,7.659,0,0,1,.861-2.66,6.4,6.4,0,0,1,1.582-1.89,6.419,6.419,0,0,1,2.163-1.127A8.942,8.942,0,0,1-7.812-20.622Z" transform="translate(562.612 127.09)" fill="#394049"/>
          <path id="Path_89" data-name="Path 89" d="M-73.718-9.932a1.492,1.492,0,0,1,.37-1.008,1.387,1.387,0,0,1,1.109-.428h1.218V-14.5a8.093,8.093,0,0,1,.421-2.617A6.091,6.091,0,0,1-69.317-19.3a6.2,6.2,0,0,1,2.16-1.5,7.721,7.721,0,0,1,3.067-.558,7.1,7.1,0,0,1,2.124.3,6.02,6.02,0,0,1,1.7.827,6.3,6.3,0,0,1,1.312,1.247,9.309,9.309,0,0,1,.986,1.544l-1.8,1.131a2.166,2.166,0,0,1-1.029.29,1.644,1.644,0,0,1-1.2-.551,5.416,5.416,0,0,0-1-.841,2.042,2.042,0,0,0-1.088-.276,1.988,1.988,0,0,0-1.747.819,4.088,4.088,0,0,0-.573,2.356v3.147h5.51v1.711a.941.941,0,0,1-.094.413,1.226,1.226,0,0,1-.261.355,1.272,1.272,0,0,1-.392.254,1.282,1.282,0,0,1-.5.094H-66.41v2.262a3.694,3.694,0,0,1-.326,1.573,5.236,5.236,0,0,1-.877,1.312q.653-.145,1.305-.225a10.867,10.867,0,0,1,1.32-.08h7.279v1.841a1.7,1.7,0,0,1-.138.653,2.026,2.026,0,0,1-.384.6,1.906,1.906,0,0,1-.6.435,1.837,1.837,0,0,1-.79.167H-73.457V-2.7a4.3,4.3,0,0,0,.921-.276,2.912,2.912,0,0,0,.776-.478,2.239,2.239,0,0,0,.536-.7,2.082,2.082,0,0,0,.2-.942V-8.54h-2.7Zm25.143-11.426a8.2,8.2,0,0,1,2.82.457,6.314,6.314,0,0,1,2.139,1.269A5.463,5.463,0,0,1-42.26-17.7a6.33,6.33,0,0,1,.471,2.472,6.8,6.8,0,0,1-.326,2.146,8.454,8.454,0,0,1-.892,1.878,13.119,13.119,0,0,1-1.312,1.726q-.747.834-1.588,1.689L-50.04-3.553a15.058,15.058,0,0,1,1.573-.37,8.357,8.357,0,0,1,1.457-.138h3.944a1.6,1.6,0,0,1,1.146.4A1.382,1.382,0,0,1-41.5-2.61V0H-56.347V-1.45a2.637,2.637,0,0,1,.174-.9,2.168,2.168,0,0,1,.609-.87l6.09-6.133a20.193,20.193,0,0,0,1.363-1.494,9.258,9.258,0,0,0,.957-1.4,6.376,6.376,0,0,0,.565-1.377A5.5,5.5,0,0,0-46.4-15.08a2.814,2.814,0,0,0-.6-1.936,2.334,2.334,0,0,0-1.834-.674,2.831,2.831,0,0,0-.928.145,2.788,2.788,0,0,0-.754.392,2.608,2.608,0,0,0-.573.58,3.062,3.062,0,0,0-.384.725,2.094,2.094,0,0,1-.587.943,1.48,1.48,0,0,1-.964.29q-.145,0-.312-.014t-.341-.044l-2.378-.421a7.933,7.933,0,0,1,.892-2.755,6.63,6.63,0,0,1,1.639-1.958,6.648,6.648,0,0,1,2.24-1.167A9.261,9.261,0,0,1-48.575-21.359Zm8.961,19.082a2.406,2.406,0,0,1,.2-.972,2.456,2.456,0,0,1,.536-.783,2.56,2.56,0,0,1,.8-.529,2.585,2.585,0,0,1,1.015-.2,2.547,2.547,0,0,1,1,.2,2.65,2.65,0,0,1,.812.529,2.4,2.4,0,0,1,.544.783,2.407,2.407,0,0,1,.2.972,2.458,2.458,0,0,1-.2.979,2.38,2.38,0,0,1-.544.79,2.545,2.545,0,0,1-.812.522,2.633,2.633,0,0,1-1,.189A2.672,2.672,0,0,1-38.077.015a2.461,2.461,0,0,1-.8-.522,2.435,2.435,0,0,1-.536-.79A2.458,2.458,0,0,1-39.614-2.276Zm9.628-.972h4.06V-13.905q0-.783.043-1.639l-2.392,1.987a1.533,1.533,0,0,1-.464.268,1.38,1.38,0,0,1-.45.08,1.354,1.354,0,0,1-.674-.167,1.435,1.435,0,0,1-.442-.355l-1.421-1.885,6.583-5.524h3.712V-3.248h3.48V0H-29.986Zm16.82,0h4.06V-13.905q0-.783.043-1.639l-2.392,1.987a1.533,1.533,0,0,1-.464.268,1.379,1.379,0,0,1-.45.08,1.354,1.354,0,0,1-.674-.167,1.435,1.435,0,0,1-.442-.355l-1.421-1.885,6.583-5.524h3.712V-3.248h3.48V0H-13.166Z" transform="translate(564.612 29.09)" fill="#394049"/>
          <path id="Path_91" data-name="Path 91" d="M-103.656-9.59a1.44,1.44,0,0,1,.357-.973,1.339,1.339,0,0,1,1.071-.413h1.176V-14a7.814,7.814,0,0,1,.406-2.527,5.881,5.881,0,0,1,1.239-2.107,5.99,5.99,0,0,1,2.086-1.449,7.455,7.455,0,0,1,2.961-.539,6.85,6.85,0,0,1,2.051.287,5.813,5.813,0,0,1,1.638.8,6.081,6.081,0,0,1,1.267,1.2,8.988,8.988,0,0,1,.952,1.491l-1.736,1.092a2.092,2.092,0,0,1-.994.28A1.588,1.588,0,0,1-92.344-16a5.229,5.229,0,0,0-.966-.812,1.972,1.972,0,0,0-1.05-.266,1.919,1.919,0,0,0-1.687.791,3.947,3.947,0,0,0-.553,2.275v3.038h5.32v1.652a.908.908,0,0,1-.091.4,1.184,1.184,0,0,1-.252.343A1.228,1.228,0,0,1-92-8.337a1.237,1.237,0,0,1-.483.091H-96.6v2.184a3.567,3.567,0,0,1-.315,1.519,5.056,5.056,0,0,1-.847,1.267q.63-.14,1.26-.217a10.492,10.492,0,0,1,1.274-.077H-88.2v1.778a1.643,1.643,0,0,1-.133.63,1.956,1.956,0,0,1-.371.581,1.84,1.84,0,0,1-.581.42A1.774,1.774,0,0,1-90.048,0H-103.4V-2.6a4.156,4.156,0,0,0,.889-.266,2.811,2.811,0,0,0,.749-.462A2.161,2.161,0,0,0-101.248-4a2.01,2.01,0,0,0,.2-.91V-8.246h-2.6ZM-84.28-3.136h3.92v-10.29q0-.756.042-1.582l-2.31,1.918a1.481,1.481,0,0,1-.448.259,1.332,1.332,0,0,1-.434.077,1.307,1.307,0,0,1-.651-.161,1.385,1.385,0,0,1-.427-.343l-1.372-1.82,6.356-5.334h3.584V-3.136h3.36V0H-84.28Zm28.392-7.07a16.588,16.588,0,0,1-.574,4.634,9.511,9.511,0,0,1-1.589,3.248A6.408,6.408,0,0,1-60.459-.406a7.235,7.235,0,0,1-3.017.63,7.14,7.14,0,0,1-3-.63,6.381,6.381,0,0,1-2.387-1.918,9.5,9.5,0,0,1-1.575-3.248,16.781,16.781,0,0,1-.567-4.634,16.781,16.781,0,0,1,.567-4.634,9.5,9.5,0,0,1,1.575-3.248A6.316,6.316,0,0,1-66.479-20a7.208,7.208,0,0,1,3-.623A7.3,7.3,0,0,1-60.459-20a6.344,6.344,0,0,1,2.408,1.911,9.511,9.511,0,0,1,1.589,3.248A16.588,16.588,0,0,1-55.888-10.206Zm-4.48,0a18.489,18.489,0,0,0-.266-3.465,7.1,7.1,0,0,0-.707-2.121,2.563,2.563,0,0,0-1-1.057,2.463,2.463,0,0,0-1.134-.287,2.421,2.421,0,0,0-1.127.287,2.5,2.5,0,0,0-.98,1.057,7.288,7.288,0,0,0-.686,2.121,18.977,18.977,0,0,0-.259,3.465,18.954,18.954,0,0,0,.259,3.472,7.385,7.385,0,0,0,.686,2.121,2.5,2.5,0,0,0,.98,1.064,2.421,2.421,0,0,0,1.127.287,2.463,2.463,0,0,0,1.134-.287,2.557,2.557,0,0,0,1-1.064,7.2,7.2,0,0,0,.707-2.121A18.467,18.467,0,0,0-60.368-10.206ZM-46.9-20.622a7.917,7.917,0,0,1,2.723.441,6.1,6.1,0,0,1,2.065,1.225A5.274,5.274,0,0,1-40.8-17.087a6.112,6.112,0,0,1,.455,2.387,6.56,6.56,0,0,1-.315,2.072,8.162,8.162,0,0,1-.861,1.813,12.666,12.666,0,0,1-1.267,1.666q-.721.805-1.533,1.631l-3.99,4.088a14.539,14.539,0,0,1,1.519-.357,8.069,8.069,0,0,1,1.407-.133h3.808a1.542,1.542,0,0,1,1.106.385,1.334,1.334,0,0,1,.406,1.015V0H-54.4V-1.4a2.546,2.546,0,0,1,.168-.868,2.094,2.094,0,0,1,.588-.84l5.88-5.922a19.5,19.5,0,0,0,1.316-1.442,8.939,8.939,0,0,0,.924-1.351,6.156,6.156,0,0,0,.546-1.33A5.308,5.308,0,0,0-44.8-14.56a2.717,2.717,0,0,0-.581-1.869,2.254,2.254,0,0,0-1.771-.651,2.734,2.734,0,0,0-.9.14,2.692,2.692,0,0,0-.728.378,2.518,2.518,0,0,0-.553.56,2.956,2.956,0,0,0-.371.7,2.022,2.022,0,0,1-.567.91,1.429,1.429,0,0,1-.931.28q-.14,0-.3-.014t-.329-.042l-2.3-.406a7.659,7.659,0,0,1,.861-2.66,6.4,6.4,0,0,1,1.582-1.89,6.419,6.419,0,0,1,2.163-1.127A8.942,8.942,0,0,1-46.9-20.622ZM-38.248-2.2a2.324,2.324,0,0,1,.189-.938,2.371,2.371,0,0,1,.518-.756,2.471,2.471,0,0,1,.777-.511,2.5,2.5,0,0,1,.98-.189,2.46,2.46,0,0,1,.966.189,2.559,2.559,0,0,1,.784.511,2.317,2.317,0,0,1,.525.756,2.323,2.323,0,0,1,.189.938,2.373,2.373,0,0,1-.189.945,2.3,2.3,0,0,1-.525.763,2.458,2.458,0,0,1-.784.5A2.542,2.542,0,0,1-35.784.2a2.58,2.58,0,0,1-.98-.182,2.376,2.376,0,0,1-.777-.5,2.351,2.351,0,0,1-.518-.763A2.373,2.373,0,0,1-38.248-2.2Zm12.936-5.754A5.848,5.848,0,0,1-27.3-8.309a5.365,5.365,0,0,1-1.8-1.085,5.517,5.517,0,0,1-1.309-1.834,6.269,6.269,0,0,1-.5-2.618,6.765,6.765,0,0,1,.511-2.618,6.427,6.427,0,0,1,1.456-2.156,6.973,6.973,0,0,1,2.261-1.463,7.691,7.691,0,0,1,2.94-.539,8.135,8.135,0,0,1,2.954.5A6.224,6.224,0,0,1-18.585-18.7,6.192,6.192,0,0,1-17.2-16.541a7.628,7.628,0,0,1,.483,2.765,10.526,10.526,0,0,1-.161,1.89,10.778,10.778,0,0,1-.448,1.687,10.407,10.407,0,0,1-.693,1.54,15.556,15.556,0,0,1-.91,1.449l-4.4,6.244a2.125,2.125,0,0,1-.882.686A3.183,3.183,0,0,1-25.564,0h-4L-23.1-7.728q.2-.238.371-.455t.343-.441a5.464,5.464,0,0,1-1.372.5A7.018,7.018,0,0,1-25.312-7.952Zm4.452-6.216a3.648,3.648,0,0,0-.217-1.309,2.609,2.609,0,0,0-.6-.945A2.527,2.527,0,0,0-22.61-17a3.5,3.5,0,0,0-1.19-.2,2.81,2.81,0,0,0-1.169.231,2.525,2.525,0,0,0-.868.637,2.81,2.81,0,0,0-.546.959,3.678,3.678,0,0,0-.189,1.2q0,3.052,2.828,3.052a2.723,2.723,0,0,0,2.135-.833A3.194,3.194,0,0,0-20.86-14.168ZM-9.072-7.952a5.848,5.848,0,0,1-1.988-.357,5.365,5.365,0,0,1-1.8-1.085,5.517,5.517,0,0,1-1.309-1.834,6.269,6.269,0,0,1-.5-2.618,6.765,6.765,0,0,1,.511-2.618A6.427,6.427,0,0,1-12.7-18.62a6.973,6.973,0,0,1,2.261-1.463,7.691,7.691,0,0,1,2.94-.539,8.135,8.135,0,0,1,2.954.5A6.224,6.224,0,0,1-2.345-18.7,6.192,6.192,0,0,1-.959-16.541a7.628,7.628,0,0,1,.483,2.765,10.526,10.526,0,0,1-.161,1.89A10.778,10.778,0,0,1-1.085-10.2a10.407,10.407,0,0,1-.693,1.54,15.557,15.557,0,0,1-.91,1.449l-4.4,6.244a2.125,2.125,0,0,1-.882.686A3.183,3.183,0,0,1-9.324,0h-4L-6.86-7.728q.2-.238.371-.455t.343-.441a5.464,5.464,0,0,1-1.372.5A7.018,7.018,0,0,1-9.072-7.952Zm4.452-6.216a3.648,3.648,0,0,0-.217-1.309,2.609,2.609,0,0,0-.6-.945A2.527,2.527,0,0,0-6.37-17a3.5,3.5,0,0,0-1.19-.2,2.81,2.81,0,0,0-1.169.231,2.525,2.525,0,0,0-.868.637,2.81,2.81,0,0,0-.546.959,3.678,3.678,0,0,0-.189,1.2q0,3.052,2.828,3.052a2.723,2.723,0,0,0,2.135-.833A3.194,3.194,0,0,0-4.62-14.168Z" transform="translate(561.612 414.09)" fill="#394049"/>
          <path id="Path_92" data-name="Path 92" d="M-87.416-9.59a1.44,1.44,0,0,1,.357-.973,1.339,1.339,0,0,1,1.071-.413h1.176V-14a7.814,7.814,0,0,1,.406-2.527,5.881,5.881,0,0,1,1.239-2.107,5.99,5.99,0,0,1,2.086-1.449,7.455,7.455,0,0,1,2.961-.539,6.85,6.85,0,0,1,2.051.287,5.813,5.813,0,0,1,1.638.8,6.081,6.081,0,0,1,1.267,1.2,8.988,8.988,0,0,1,.952,1.491l-1.736,1.092a2.092,2.092,0,0,1-.994.28A1.588,1.588,0,0,1-76.1-16a5.229,5.229,0,0,0-.966-.812,1.972,1.972,0,0,0-1.05-.266,1.919,1.919,0,0,0-1.687.791,3.947,3.947,0,0,0-.553,2.275v3.038h5.32v1.652a.908.908,0,0,1-.091.4,1.184,1.184,0,0,1-.252.343,1.228,1.228,0,0,1-.378.245,1.237,1.237,0,0,1-.483.091H-80.36v2.184a3.567,3.567,0,0,1-.315,1.519,5.056,5.056,0,0,1-.847,1.267q.63-.14,1.26-.217a10.492,10.492,0,0,1,1.274-.077h7.028v1.778a1.643,1.643,0,0,1-.133.63,1.956,1.956,0,0,1-.371.581,1.84,1.84,0,0,1-.581.42A1.774,1.774,0,0,1-73.808,0H-87.164V-2.6a4.156,4.156,0,0,0,.889-.266,2.811,2.811,0,0,0,.749-.462A2.161,2.161,0,0,0-85.008-4a2.01,2.01,0,0,0,.2-.91V-8.246h-2.6ZM-57.9-7.924h2.1v2.436a.8.8,0,0,1-.217.56.8.8,0,0,1-.623.238H-57.9V0h-3.78V-4.69h-8.2a1.179,1.179,0,0,1-.735-.252,1.069,1.069,0,0,1-.413-.63l-.448-2.142L-62.048-20.4H-57.9Zm-3.78-5.32q0-.49.035-1.057t.105-1.169l-5.39,7.546h5.25Zm15.176-7.378a7.848,7.848,0,0,1,2.688.427,6.013,6.013,0,0,1,1.988,1.155A4.875,4.875,0,0,1-40.6-17.353a4.988,4.988,0,0,1,.42,2.023,6.632,6.632,0,0,1-.2,1.7,3.9,3.9,0,0,1-.581,1.274,3.637,3.637,0,0,1-.952.917,5.661,5.661,0,0,1-1.3.63A4.529,4.529,0,0,1-39.816-6.2,6.376,6.376,0,0,1-40.4-3.374a5.815,5.815,0,0,1-1.575,2,6.739,6.739,0,0,1-2.289,1.2,9.217,9.217,0,0,1-2.716.4,9.7,9.7,0,0,1-2.59-.315,5.964,5.964,0,0,1-2.016-.98,6.491,6.491,0,0,1-1.547-1.7,11.409,11.409,0,0,1-1.155-2.464l1.932-.784a2.1,2.1,0,0,1,.5-.154,2.855,2.855,0,0,1,.483-.042,1.8,1.8,0,0,1,.805.175,1.192,1.192,0,0,1,.539.511A5.083,5.083,0,0,0-48.7-3.843a2.706,2.706,0,0,0,1.659.525,3.038,3.038,0,0,0,1.267-.245,2.761,2.761,0,0,0,.9-.63,2.613,2.613,0,0,0,.539-.875,2.835,2.835,0,0,0,.182-.994,6.967,6.967,0,0,0-.091-1.183,1.545,1.545,0,0,0-.511-.9,2.888,2.888,0,0,0-1.267-.581,10.644,10.644,0,0,0-2.359-.2v-3a8.763,8.763,0,0,0,2.058-.2,3.147,3.147,0,0,0,1.211-.539,1.626,1.626,0,0,0,.567-.833,3.915,3.915,0,0,0,.14-1.078,2.7,2.7,0,0,0-.581-1.855,2.254,2.254,0,0,0-1.771-.651,2.734,2.734,0,0,0-.9.14,2.692,2.692,0,0,0-.728.378,2.518,2.518,0,0,0-.553.56,2.956,2.956,0,0,0-.371.7,2.022,2.022,0,0,1-.567.91,1.429,1.429,0,0,1-.931.28q-.14,0-.3-.014t-.329-.042l-2.3-.406a7.659,7.659,0,0,1,.861-2.66,6.4,6.4,0,0,1,1.582-1.89,6.419,6.419,0,0,1,2.163-1.127A8.942,8.942,0,0,1-46.508-20.622ZM-38.248-2.2a2.324,2.324,0,0,1,.189-.938,2.371,2.371,0,0,1,.518-.756,2.471,2.471,0,0,1,.777-.511,2.5,2.5,0,0,1,.98-.189,2.46,2.46,0,0,1,.966.189,2.559,2.559,0,0,1,.784.511,2.317,2.317,0,0,1,.525.756,2.323,2.323,0,0,1,.189.938,2.373,2.373,0,0,1-.189.945,2.3,2.3,0,0,1-.525.763,2.458,2.458,0,0,1-.784.5A2.542,2.542,0,0,1-35.784.2a2.58,2.58,0,0,1-.98-.182,2.376,2.376,0,0,1-.777-.5,2.351,2.351,0,0,1-.518-.763A2.373,2.373,0,0,1-38.248-2.2Zm12.936-5.754A5.848,5.848,0,0,1-27.3-8.309a5.365,5.365,0,0,1-1.8-1.085,5.517,5.517,0,0,1-1.309-1.834,6.269,6.269,0,0,1-.5-2.618,6.765,6.765,0,0,1,.511-2.618,6.427,6.427,0,0,1,1.456-2.156,6.973,6.973,0,0,1,2.261-1.463,7.691,7.691,0,0,1,2.94-.539,8.135,8.135,0,0,1,2.954.5A6.224,6.224,0,0,1-18.585-18.7,6.192,6.192,0,0,1-17.2-16.541a7.628,7.628,0,0,1,.483,2.765,10.526,10.526,0,0,1-.161,1.89,10.778,10.778,0,0,1-.448,1.687,10.407,10.407,0,0,1-.693,1.54,15.556,15.556,0,0,1-.91,1.449l-4.4,6.244a2.125,2.125,0,0,1-.882.686A3.183,3.183,0,0,1-25.564,0h-4L-23.1-7.728q.2-.238.371-.455t.343-.441a5.464,5.464,0,0,1-1.372.5A7.018,7.018,0,0,1-25.312-7.952Zm4.452-6.216a3.648,3.648,0,0,0-.217-1.309,2.609,2.609,0,0,0-.6-.945A2.527,2.527,0,0,0-22.61-17a3.5,3.5,0,0,0-1.19-.2,2.81,2.81,0,0,0-1.169.231,2.525,2.525,0,0,0-.868.637,2.81,2.81,0,0,0-.546.959,3.678,3.678,0,0,0-.189,1.2q0,3.052,2.828,3.052a2.723,2.723,0,0,0,2.135-.833A3.194,3.194,0,0,0-20.86-14.168Zm20.3,3.962a16.588,16.588,0,0,1-.574,4.634A9.511,9.511,0,0,1-2.723-2.324,6.408,6.408,0,0,1-5.131-.406a7.235,7.235,0,0,1-3.017.63,7.14,7.14,0,0,1-3-.63,6.381,6.381,0,0,1-2.387-1.918,9.5,9.5,0,0,1-1.575-3.248,16.781,16.781,0,0,1-.567-4.634,16.781,16.781,0,0,1,.567-4.634,9.5,9.5,0,0,1,1.575-3.248A6.316,6.316,0,0,1-11.151-20a7.208,7.208,0,0,1,3-.623A7.3,7.3,0,0,1-5.131-20a6.344,6.344,0,0,1,2.408,1.911A9.511,9.511,0,0,1-1.134-14.84,16.588,16.588,0,0,1-.56-10.206Zm-4.48,0a18.489,18.489,0,0,0-.266-3.465,7.1,7.1,0,0,0-.707-2.121,2.563,2.563,0,0,0-1-1.057,2.463,2.463,0,0,0-1.134-.287,2.421,2.421,0,0,0-1.127.287,2.5,2.5,0,0,0-.98,1.057,7.288,7.288,0,0,0-.686,2.121,18.977,18.977,0,0,0-.259,3.465,18.955,18.955,0,0,0,.259,3.472,7.385,7.385,0,0,0,.686,2.121,2.5,2.5,0,0,0,.98,1.064,2.421,2.421,0,0,0,1.127.287,2.463,2.463,0,0,0,1.134-.287,2.557,2.557,0,0,0,1-1.064,7.2,7.2,0,0,0,.707-2.121A18.467,18.467,0,0,0-5.04-10.206Z" transform="translate(562.612 514.09)" fill="#394049"/>
        </g>
        <path id="Path_88" data-name="Path 88" d="M.518-12.672A1.9,1.9,0,0,1,.99-13.958,1.769,1.769,0,0,1,2.4-14.5H3.959v-4A10.325,10.325,0,0,1,4.5-21.839a7.771,7.771,0,0,1,1.637-2.784,7.915,7.915,0,0,1,2.756-1.915,9.851,9.851,0,0,1,3.913-.712,9.052,9.052,0,0,1,2.71.379,7.681,7.681,0,0,1,2.164,1.055,8.036,8.036,0,0,1,1.674,1.591,11.877,11.877,0,0,1,1.258,1.97l-2.294,1.443a2.764,2.764,0,0,1-1.313.37,2.1,2.1,0,0,1-1.536-.7,6.91,6.91,0,0,0-1.276-1.073A2.606,2.606,0,0,0,12.8-22.57a2.536,2.536,0,0,0-2.229,1.045,5.216,5.216,0,0,0-.731,3.006V-14.5h7.03v2.183a1.2,1.2,0,0,1-.12.527,1.564,1.564,0,0,1-.333.453,1.622,1.622,0,0,1-.5.324,1.635,1.635,0,0,1-.638.12H9.842V-8.01A4.713,4.713,0,0,1,9.426-6,6.681,6.681,0,0,1,8.307-4.329q.832-.185,1.665-.287a13.864,13.864,0,0,1,1.684-.1h9.287v2.349a2.172,2.172,0,0,1-.176.833,2.585,2.585,0,0,1-.49.768,2.432,2.432,0,0,1-.768.555A2.344,2.344,0,0,1,18.5,0H.851V-3.441a5.492,5.492,0,0,0,1.175-.352,3.715,3.715,0,0,0,.99-.61A2.856,2.856,0,0,0,3.7-5.291a2.656,2.656,0,0,0,.259-1.2v-4.4H.518Zm39,2.2h2.775v3.219a1.063,1.063,0,0,1-.287.74,1.058,1.058,0,0,1-.823.314H39.516V0H34.521V-6.2H23.68a1.558,1.558,0,0,1-.971-.333,1.413,1.413,0,0,1-.546-.832l-.592-2.83L34.04-26.955h5.476ZM34.521-17.5q0-.648.046-1.4t.139-1.545l-7.123,9.972h6.938ZM44.178-3.256a2.722,2.722,0,0,1,.222-1.1,2.592,2.592,0,0,1,.638-.888,3.154,3.154,0,0,1,.98-.6,3.437,3.437,0,0,1,1.267-.222,3.366,3.366,0,0,1,1.443.287A2.908,2.908,0,0,1,49.746-5a3.208,3.208,0,0,1,.6,1.128,4.581,4.581,0,0,1,.194,1.341,7.244,7.244,0,0,1-.3,1.97,9.953,9.953,0,0,1-.879,2.1,12.525,12.525,0,0,1-1.452,2.072,11.931,11.931,0,0,1-2,1.85l-1-.888a1.909,1.909,0,0,1-.305-.379.856.856,0,0,1-.1-.435.773.773,0,0,1,.13-.4,1.689,1.689,0,0,1,.314-.379q.222-.222.518-.536a8.859,8.859,0,0,0,.592-.7,6.486,6.486,0,0,0,.546-.851,4.2,4.2,0,0,0,.379-.981,3.191,3.191,0,0,1-1.166-.315,2.749,2.749,0,0,1-.879-.685,3.237,3.237,0,0,1-.564-.971A3.39,3.39,0,0,1,44.178-3.256Zm20.2-13.82a8.967,8.967,0,0,1,2.886.481,7.373,7.373,0,0,1,2.553,1.48,7.412,7.412,0,0,1,1.822,2.525,8.631,8.631,0,0,1,.694,3.6,9.24,9.24,0,0,1-.7,3.58,8.909,8.909,0,0,1-1.989,2.96,9.434,9.434,0,0,1-3.1,2.007A10.529,10.529,0,0,1,62.53.3a10.906,10.906,0,0,1-4.051-.712A8.665,8.665,0,0,1,55.435-2.4,8.538,8.538,0,0,1,53.53-5.457a11.176,11.176,0,0,1-.657-3.9,11,11,0,0,1,.777-4.014,17.98,17.98,0,0,1,2.294-4.07l6.068-8.2a3.088,3.088,0,0,1,1.221-.934,4.331,4.331,0,0,1,1.85-.379h5.106L62.2-17.409q-.185.2-.361.416l-.342.416a8.015,8.015,0,0,1,1.36-.37A8.533,8.533,0,0,1,64.38-17.076ZM58.386-8.584a6.2,6.2,0,0,0,.24,1.794,3.672,3.672,0,0,0,.74,1.369,3.242,3.242,0,0,0,1.258.879,4.794,4.794,0,0,0,1.794.305,4.116,4.116,0,0,0,1.656-.333A4,4,0,0,0,65.4-5.485a4.382,4.382,0,0,0,.879-1.369A4.451,4.451,0,0,0,66.6-8.566a5.243,5.243,0,0,0-.305-1.85,3.783,3.783,0,0,0-.86-1.369,3.724,3.724,0,0,0-1.341-.851,4.929,4.929,0,0,0-1.748-.3,4.043,4.043,0,0,0-1.591.305,3.562,3.562,0,0,0-1.249.879,4.119,4.119,0,0,0-.823,1.369A5.118,5.118,0,0,0,58.386-8.584Zm35.446-4.9a21.92,21.92,0,0,1-.758,6.123,12.568,12.568,0,0,1-2.1,4.292A8.468,8.468,0,0,1,87.792-.536,9.561,9.561,0,0,1,83.805.3a9.435,9.435,0,0,1-3.968-.832,8.432,8.432,0,0,1-3.154-2.534A12.551,12.551,0,0,1,74.6-7.363a22.175,22.175,0,0,1-.749-6.123A22.175,22.175,0,0,1,74.6-19.61,12.551,12.551,0,0,1,76.683-23.9a8.346,8.346,0,0,1,3.154-2.525,9.525,9.525,0,0,1,3.968-.823,9.652,9.652,0,0,1,3.987.823A8.383,8.383,0,0,1,90.974-23.9a12.568,12.568,0,0,1,2.1,4.292A21.92,21.92,0,0,1,93.832-13.486Zm-5.92,0a24.431,24.431,0,0,0-.352-4.579,9.386,9.386,0,0,0-.934-2.8,3.387,3.387,0,0,0-1.323-1.4,3.254,3.254,0,0,0-1.5-.379,3.2,3.2,0,0,0-1.489.379,3.3,3.3,0,0,0-1.295,1.4,9.63,9.63,0,0,0-.907,2.8,25.077,25.077,0,0,0-.342,4.579A25.047,25.047,0,0,0,80.114-8.9a9.759,9.759,0,0,0,.907,2.8A3.3,3.3,0,0,0,82.316-4.69a3.2,3.2,0,0,0,1.489.379,3.254,3.254,0,0,0,1.5-.379A3.379,3.379,0,0,0,86.626-6.1a9.511,9.511,0,0,0,.934-2.8A24.4,24.4,0,0,0,87.912-13.486Zm27.38,0a21.92,21.92,0,0,1-.758,6.123,12.568,12.568,0,0,1-2.1,4.292,8.468,8.468,0,0,1-3.182,2.534A9.561,9.561,0,0,1,105.265.3,9.435,9.435,0,0,1,101.3-.536a8.432,8.432,0,0,1-3.154-2.534,12.551,12.551,0,0,1-2.081-4.292,22.175,22.175,0,0,1-.749-6.123,22.175,22.175,0,0,1,.749-6.123A12.551,12.551,0,0,1,98.143-23.9a8.346,8.346,0,0,1,3.154-2.525,9.525,9.525,0,0,1,3.968-.823,9.652,9.652,0,0,1,3.987.823,8.383,8.383,0,0,1,3.182,2.525,12.568,12.568,0,0,1,2.1,4.292A21.92,21.92,0,0,1,115.292-13.486Zm-5.92,0a24.431,24.431,0,0,0-.352-4.579,9.386,9.386,0,0,0-.934-2.8,3.387,3.387,0,0,0-1.323-1.4,3.254,3.254,0,0,0-1.5-.379,3.2,3.2,0,0,0-1.489.379,3.3,3.3,0,0,0-1.295,1.4,9.63,9.63,0,0,0-.907,2.8,25.077,25.077,0,0,0-.342,4.579,25.047,25.047,0,0,0,.342,4.588,9.759,9.759,0,0,0,.907,2.8,3.3,3.3,0,0,0,1.295,1.406,3.2,3.2,0,0,0,1.489.379,3.254,3.254,0,0,0,1.5-.379A3.379,3.379,0,0,0,108.086-6.1a9.511,9.511,0,0,0,.934-2.8A24.4,24.4,0,0,0,109.372-13.486ZM117.142-2.9a3.07,3.07,0,0,1,.25-1.24,3.133,3.133,0,0,1,.685-1,3.266,3.266,0,0,1,1.027-.675,3.3,3.3,0,0,1,1.295-.25,3.25,3.25,0,0,1,1.277.25,3.381,3.381,0,0,1,1.036.675,3.062,3.062,0,0,1,.694,1,3.07,3.07,0,0,1,.25,1.24,3.136,3.136,0,0,1-.25,1.249,3.037,3.037,0,0,1-.694,1.008,3.248,3.248,0,0,1-1.036.666A3.359,3.359,0,0,1,120.4.259,3.409,3.409,0,0,1,119.1.019a3.14,3.14,0,0,1-1.027-.666,3.106,3.106,0,0,1-.685-1.008A3.136,3.136,0,0,1,117.142-2.9ZM135.9-27.251a10.462,10.462,0,0,1,3.6.583,8.056,8.056,0,0,1,2.729,1.619,6.97,6.97,0,0,1,1.73,2.47,8.077,8.077,0,0,1,.6,3.154,8.668,8.668,0,0,1-.416,2.738,10.785,10.785,0,0,1-1.138,2.4,16.737,16.737,0,0,1-1.674,2.2q-.953,1.064-2.026,2.155l-5.272,5.4A19.211,19.211,0,0,1,136.04-5,10.662,10.662,0,0,1,137.9-5.18h5.032a2.037,2.037,0,0,1,1.462.509,1.763,1.763,0,0,1,.536,1.341V0H125.985V-1.85A3.365,3.365,0,0,1,126.207-3a2.767,2.767,0,0,1,.777-1.11l7.77-7.826a25.763,25.763,0,0,0,1.739-1.906,11.813,11.813,0,0,0,1.221-1.785,8.134,8.134,0,0,0,.721-1.757,7.015,7.015,0,0,0,.24-1.859,3.591,3.591,0,0,0-.768-2.47,2.978,2.978,0,0,0-2.34-.86,3.613,3.613,0,0,0-1.184.185,3.557,3.557,0,0,0-.962.5,3.327,3.327,0,0,0-.731.74,3.907,3.907,0,0,0-.49.925,2.672,2.672,0,0,1-.749,1.2,1.889,1.889,0,0,1-1.23.37q-.185,0-.4-.018t-.435-.056l-3.034-.537a10.121,10.121,0,0,1,1.138-3.515,8.459,8.459,0,0,1,2.09-2.5,8.482,8.482,0,0,1,2.858-1.489A11.816,11.816,0,0,1,135.9-27.251Zm31.043,13.764a21.92,21.92,0,0,1-.758,6.123,12.568,12.568,0,0,1-2.1,4.292A8.468,8.468,0,0,1,160.9-.536,9.561,9.561,0,0,1,156.917.3a9.435,9.435,0,0,1-3.968-.832,8.432,8.432,0,0,1-3.154-2.534,12.551,12.551,0,0,1-2.081-4.292,22.175,22.175,0,0,1-.749-6.123,22.175,22.175,0,0,1,.749-6.123,12.551,12.551,0,0,1,2.081-4.292,8.346,8.346,0,0,1,3.154-2.525,9.525,9.525,0,0,1,3.968-.823,9.652,9.652,0,0,1,3.987.823,8.383,8.383,0,0,1,3.182,2.525,12.568,12.568,0,0,1,2.1,4.292A21.92,21.92,0,0,1,166.944-13.486Zm-5.92,0a24.432,24.432,0,0,0-.352-4.579,9.386,9.386,0,0,0-.934-2.8,3.387,3.387,0,0,0-1.323-1.4,3.254,3.254,0,0,0-1.5-.379,3.2,3.2,0,0,0-1.489.379,3.3,3.3,0,0,0-1.295,1.4,9.63,9.63,0,0,0-.907,2.8,25.077,25.077,0,0,0-.342,4.579,25.047,25.047,0,0,0,.342,4.588,9.759,9.759,0,0,0,.907,2.8,3.3,3.3,0,0,0,1.295,1.406,3.2,3.2,0,0,0,1.489.379,3.254,3.254,0,0,0,1.5-.379A3.379,3.379,0,0,0,159.738-6.1a9.511,9.511,0,0,0,.934-2.8A24.4,24.4,0,0,0,161.024-13.486Z" transform="translate(109 221.951)" fill="#394049"/>
        <path id="Path_87" data-name="Path 87" d="M.518-12.672A1.9,1.9,0,0,1,.99-13.958,1.769,1.769,0,0,1,2.4-14.5H3.959v-4A10.325,10.325,0,0,1,4.5-21.839a7.771,7.771,0,0,1,1.637-2.784,7.915,7.915,0,0,1,2.756-1.915,9.851,9.851,0,0,1,3.913-.712,9.052,9.052,0,0,1,2.71.379,7.681,7.681,0,0,1,2.164,1.055,8.036,8.036,0,0,1,1.674,1.591,11.877,11.877,0,0,1,1.258,1.97l-2.294,1.443a2.764,2.764,0,0,1-1.313.37,2.1,2.1,0,0,1-1.536-.7,6.91,6.91,0,0,0-1.276-1.073A2.606,2.606,0,0,0,12.8-22.57a2.536,2.536,0,0,0-2.229,1.045,5.216,5.216,0,0,0-.731,3.006V-14.5h7.03v2.183a1.2,1.2,0,0,1-.12.527,1.564,1.564,0,0,1-.333.453,1.622,1.622,0,0,1-.5.324,1.635,1.635,0,0,1-.638.12H9.842V-8.01A4.713,4.713,0,0,1,9.426-6,6.681,6.681,0,0,1,8.307-4.329q.832-.185,1.665-.287a13.864,13.864,0,0,1,1.684-.1h9.287v2.349a2.172,2.172,0,0,1-.176.833,2.585,2.585,0,0,1-.49.768,2.432,2.432,0,0,1-.768.555A2.344,2.344,0,0,1,18.5,0H.851V-3.441a5.492,5.492,0,0,0,1.175-.352,3.715,3.715,0,0,0,.99-.61A2.856,2.856,0,0,0,3.7-5.291a2.656,2.656,0,0,0,.259-1.2v-4.4H.518ZM32.6-27.251a10.462,10.462,0,0,1,3.6.583,8.056,8.056,0,0,1,2.729,1.619,6.97,6.97,0,0,1,1.73,2.47,8.077,8.077,0,0,1,.6,3.154,8.669,8.669,0,0,1-.416,2.738,10.786,10.786,0,0,1-1.138,2.4,16.737,16.737,0,0,1-1.674,2.2Q37.074-11.026,36-9.934l-5.273,5.4A19.212,19.212,0,0,1,32.736-5a10.662,10.662,0,0,1,1.859-.176h5.032a2.037,2.037,0,0,1,1.462.509,1.763,1.763,0,0,1,.536,1.341V0H22.681V-1.85A3.365,3.365,0,0,1,22.9-3a2.767,2.767,0,0,1,.777-1.11l7.77-7.826a25.764,25.764,0,0,0,1.739-1.906,11.813,11.813,0,0,0,1.221-1.785,8.135,8.135,0,0,0,.722-1.757,7.015,7.015,0,0,0,.24-1.859,3.591,3.591,0,0,0-.768-2.47,2.978,2.978,0,0,0-2.34-.86,3.613,3.613,0,0,0-1.184.185,3.557,3.557,0,0,0-.962.5,3.327,3.327,0,0,0-.731.74,3.907,3.907,0,0,0-.49.925,2.672,2.672,0,0,1-.749,1.2,1.889,1.889,0,0,1-1.23.37q-.185,0-.4-.018t-.435-.056l-3.034-.537a10.121,10.121,0,0,1,1.138-3.515,8.459,8.459,0,0,1,2.09-2.5,8.482,8.482,0,0,1,2.858-1.489A11.816,11.816,0,0,1,32.6-27.251ZM44.178-3.256a2.722,2.722,0,0,1,.222-1.1,2.592,2.592,0,0,1,.638-.888,3.154,3.154,0,0,1,.98-.6,3.437,3.437,0,0,1,1.267-.222,3.366,3.366,0,0,1,1.443.287A2.908,2.908,0,0,1,49.746-5a3.208,3.208,0,0,1,.6,1.128,4.581,4.581,0,0,1,.194,1.341,7.244,7.244,0,0,1-.3,1.97,9.953,9.953,0,0,1-.879,2.1,12.525,12.525,0,0,1-1.452,2.072,11.931,11.931,0,0,1-2,1.85l-1-.888a1.909,1.909,0,0,1-.305-.379.856.856,0,0,1-.1-.435.773.773,0,0,1,.13-.4,1.689,1.689,0,0,1,.314-.379q.222-.222.518-.536a8.859,8.859,0,0,0,.592-.7,6.486,6.486,0,0,0,.546-.851,4.2,4.2,0,0,0,.379-.981,3.191,3.191,0,0,1-1.166-.315,2.749,2.749,0,0,1-.879-.685,3.237,3.237,0,0,1-.564-.971A3.39,3.39,0,0,1,44.178-3.256Zm12.136-.888h5.18v-13.6q0-1,.056-2.091L58.5-17.3a1.956,1.956,0,0,1-.592.342,1.76,1.76,0,0,1-.573.1,1.728,1.728,0,0,1-.86-.213,1.83,1.83,0,0,1-.564-.453l-1.813-2.4,8.4-7.049h4.736V-4.144h4.44V0H56.314Zm37.518-9.342a21.92,21.92,0,0,1-.758,6.123,12.568,12.568,0,0,1-2.1,4.292A8.468,8.468,0,0,1,87.792-.536,9.561,9.561,0,0,1,83.805.3a9.435,9.435,0,0,1-3.968-.832,8.432,8.432,0,0,1-3.154-2.534A12.551,12.551,0,0,1,74.6-7.363a22.175,22.175,0,0,1-.749-6.123A22.175,22.175,0,0,1,74.6-19.61,12.551,12.551,0,0,1,76.683-23.9a8.346,8.346,0,0,1,3.154-2.525,9.525,9.525,0,0,1,3.968-.823,9.652,9.652,0,0,1,3.987.823A8.383,8.383,0,0,1,90.974-23.9a12.568,12.568,0,0,1,2.1,4.292A21.92,21.92,0,0,1,93.832-13.486Zm-5.92,0a24.431,24.431,0,0,0-.352-4.579,9.386,9.386,0,0,0-.934-2.8,3.387,3.387,0,0,0-1.323-1.4,3.254,3.254,0,0,0-1.5-.379,3.2,3.2,0,0,0-1.489.379,3.3,3.3,0,0,0-1.295,1.4,9.63,9.63,0,0,0-.907,2.8,25.077,25.077,0,0,0-.342,4.579A25.047,25.047,0,0,0,80.114-8.9a9.759,9.759,0,0,0,.907,2.8A3.3,3.3,0,0,0,82.316-4.69a3.2,3.2,0,0,0,1.489.379,3.254,3.254,0,0,0,1.5-.379A3.379,3.379,0,0,0,86.626-6.1a9.511,9.511,0,0,0,.934-2.8A24.4,24.4,0,0,0,87.912-13.486Zm27.38,0a21.92,21.92,0,0,1-.758,6.123,12.568,12.568,0,0,1-2.1,4.292,8.468,8.468,0,0,1-3.182,2.534A9.561,9.561,0,0,1,105.265.3,9.435,9.435,0,0,1,101.3-.536a8.432,8.432,0,0,1-3.154-2.534,12.551,12.551,0,0,1-2.081-4.292,22.175,22.175,0,0,1-.749-6.123,22.175,22.175,0,0,1,.749-6.123A12.551,12.551,0,0,1,98.143-23.9a8.346,8.346,0,0,1,3.154-2.525,9.525,9.525,0,0,1,3.968-.823,9.652,9.652,0,0,1,3.987.823,8.383,8.383,0,0,1,3.182,2.525,12.568,12.568,0,0,1,2.1,4.292A21.92,21.92,0,0,1,115.292-13.486Zm-5.92,0a24.431,24.431,0,0,0-.352-4.579,9.386,9.386,0,0,0-.934-2.8,3.387,3.387,0,0,0-1.323-1.4,3.254,3.254,0,0,0-1.5-.379,3.2,3.2,0,0,0-1.489.379,3.3,3.3,0,0,0-1.295,1.4,9.63,9.63,0,0,0-.907,2.8,25.077,25.077,0,0,0-.342,4.579,25.047,25.047,0,0,0,.342,4.588,9.759,9.759,0,0,0,.907,2.8,3.3,3.3,0,0,0,1.295,1.406,3.2,3.2,0,0,0,1.489.379,3.254,3.254,0,0,0,1.5-.379A3.379,3.379,0,0,0,108.086-6.1a9.511,9.511,0,0,0,.934-2.8A24.4,24.4,0,0,0,109.372-13.486ZM117.142-2.9a3.07,3.07,0,0,1,.25-1.24,3.133,3.133,0,0,1,.685-1,3.266,3.266,0,0,1,1.027-.675,3.3,3.3,0,0,1,1.295-.25,3.25,3.25,0,0,1,1.277.25,3.381,3.381,0,0,1,1.036.675,3.062,3.062,0,0,1,.694,1,3.07,3.07,0,0,1,.25,1.24,3.136,3.136,0,0,1-.25,1.249,3.037,3.037,0,0,1-.694,1.008,3.248,3.248,0,0,1-1.036.666A3.359,3.359,0,0,1,120.4.259,3.409,3.409,0,0,1,119.1.019a3.14,3.14,0,0,1-1.027-.666,3.106,3.106,0,0,1-.685-1.008A3.136,3.136,0,0,1,117.142-2.9Zm17.094-7.6a7.727,7.727,0,0,1-2.627-.472,7.09,7.09,0,0,1-2.377-1.434,7.291,7.291,0,0,1-1.73-2.424,8.284,8.284,0,0,1-.666-3.46,8.939,8.939,0,0,1,.675-3.459,8.493,8.493,0,0,1,1.924-2.849,9.215,9.215,0,0,1,2.988-1.933,10.163,10.163,0,0,1,3.885-.712,10.749,10.749,0,0,1,3.9.666,8.225,8.225,0,0,1,2.914,1.869,8.182,8.182,0,0,1,1.832,2.858A10.08,10.08,0,0,1,145.6-18.2a13.909,13.909,0,0,1-.213,2.5,14.244,14.244,0,0,1-.592,2.229,13.752,13.752,0,0,1-.916,2.035,20.557,20.557,0,0,1-1.2,1.915l-5.809,8.251A2.809,2.809,0,0,1,135.7-.37,4.206,4.206,0,0,1,133.9,0h-5.291l8.547-10.212q.259-.314.49-.6t.453-.583a7.22,7.22,0,0,1-1.813.666A9.274,9.274,0,0,1,134.236-10.508Zm5.883-8.214a4.82,4.82,0,0,0-.287-1.73,3.447,3.447,0,0,0-.8-1.249,3.339,3.339,0,0,0-1.23-.758,4.622,4.622,0,0,0-1.573-.259,3.713,3.713,0,0,0-1.545.305,3.337,3.337,0,0,0-1.147.842,3.713,3.713,0,0,0-.721,1.267,4.86,4.86,0,0,0-.25,1.582q0,4.033,3.737,4.033a3.6,3.6,0,0,0,2.821-1.1A4.22,4.22,0,0,0,140.119-18.722ZM155.7-10.508a7.727,7.727,0,0,1-2.627-.472,7.09,7.09,0,0,1-2.377-1.434,7.291,7.291,0,0,1-1.73-2.424,8.284,8.284,0,0,1-.666-3.46,8.939,8.939,0,0,1,.675-3.459,8.493,8.493,0,0,1,1.924-2.849,9.215,9.215,0,0,1,2.988-1.933,10.163,10.163,0,0,1,3.885-.712,10.749,10.749,0,0,1,3.9.666,8.225,8.225,0,0,1,2.914,1.869,8.182,8.182,0,0,1,1.831,2.858,10.08,10.08,0,0,1,.638,3.654,13.909,13.909,0,0,1-.213,2.5,14.242,14.242,0,0,1-.592,2.229,13.751,13.751,0,0,1-.916,2.035,20.557,20.557,0,0,1-1.2,1.915l-5.809,8.251a2.808,2.808,0,0,1-1.165.906,4.206,4.206,0,0,1-1.794.37h-5.291l8.547-10.212q.259-.314.49-.6t.453-.583a7.221,7.221,0,0,1-1.813.666A9.274,9.274,0,0,1,155.7-10.508Zm5.883-8.214a4.821,4.821,0,0,0-.287-1.73,3.447,3.447,0,0,0-.8-1.249,3.34,3.34,0,0,0-1.23-.758,4.622,4.622,0,0,0-1.572-.259,3.713,3.713,0,0,0-1.545.305,3.337,3.337,0,0,0-1.147.842,3.713,3.713,0,0,0-.721,1.267,4.861,4.861,0,0,0-.25,1.582q0,4.033,3.737,4.033a3.6,3.6,0,0,0,2.821-1.1A4.22,4.22,0,0,0,161.579-18.722Z" transform="translate(424 221.951)" fill="#394049"/>
      </g>
    </g>
  </g>
</svg>
