<svg xmlns="http://www.w3.org/2000/svg" xmlns:xlink="http://www.w3.org/1999/xlink" width="1090" height="903.12" viewBox="0 0 1090 903.12">
  <defs>
    <linearGradient id="linear-gradient" x1="-0.456" y1="0.085" x2="1.053" y2="-0.114" gradientUnits="objectBoundingBox">
      <stop offset="0" stop-color="#2272e2"/>
      <stop offset="1" stop-color="#fff"/>
    </linearGradient>
    <filter id="Rectangle_298" x="129" y="148" width="809" height="593" filterUnits="userSpaceOnUse">
      <feOffset dy="3" input="SourceAlpha"/>
      <feGaussianBlur stdDeviation="7" result="blur"/>
      <feFlood flood-opacity="0.114"/>
      <feComposite operator="in" in2="blur"/>
      <feComposite in="SourceGraphic"/>
    </filter>
    <filter id="Path_31" x="236.611" y="245.13" width="270.076" height="190.216" filterUnits="userSpaceOnUse">
      <feOffset dy="3" input="SourceAlpha"/>
      <feGaussianBlur stdDeviation="6.5" result="blur-2"/>
      <feFlood flood-opacity="0.149"/>
      <feComposite operator="in" in2="blur-2"/>
      <feComposite in="SourceGraphic"/>
    </filter>
    <filter id="Rectangle_175" x="546" y="414" width="406" height="121" filterUnits="userSpaceOnUse">
      <feOffset input="SourceAlpha"/>
      <feGaussianBlur stdDeviation="3" result="blur-3"/>
      <feFlood flood-opacity="0.071"/>
      <feComposite operator="in" in2="blur-3"/>
      <feComposite in="SourceGraphic"/>
    </filter>
    <filter id="Path_39" x="631.386" y="532.216" width="320.699" height="121.629" filterUnits="userSpaceOnUse">
      <feOffset input="SourceAlpha"/>
      <feGaussianBlur stdDeviation="3" result="blur-4"/>
      <feFlood flood-opacity="0.071"/>
      <feComposite operator="in" in2="blur-4"/>
      <feComposite in="SourceGraphic"/>
    </filter>
    <filter id="Path_41" x="583.242" y="230.777" width="432.898" height="183.714" filterUnits="userSpaceOnUse">
      <feOffset input="SourceAlpha"/>
      <feGaussianBlur stdDeviation="3" result="blur-5"/>
      <feFlood flood-opacity="0.071"/>
      <feComposite operator="in" in2="blur-5"/>
      <feComposite in="SourceGraphic"/>
    </filter>
    <clipPath id="clip-Image_09">
      <rect width="1090" height="903.12"/>
    </clipPath>
  </defs>
  <g id="Image_09" data-name="Image 09" clip-path="url(#clip-Image_09)">
    <rect width="1090" height="903.12" fill="rgba(255,255,255,0)"/>
    <g id="Group_32" data-name="Group 32" transform="matrix(0.951, 0.309, -0.309, 0.951, 91.524, -4.048)" opacity="0.07">
      <path id="Path_116" data-name="Path 116" d="M175.625.031c98.856,1.879,180.519,87.736,182.4,191.765s-76.736,186.839-175.592,184.96S1.912,289.021.033,184.991,76.769-1.848,175.625.031Z" transform="translate(0)" fill="url(#linear-gradient)"/>
      <path id="Path_117" data-name="Path 117" d="M154.918.028c87.2,1.658,159.235,77.391,160.893,169.155s-67.688,164.81-154.889,163.152S1.687,254.944.029,163.18,67.718-1.63,154.918.028Z" transform="translate(280.715 405.965)" fill="url(#linear-gradient)"/>
      <path id="Path_118" data-name="Path 118" d="M54.451.01C85.1.592,110.42,27.212,111,59.465s-23.791,57.928-54.441,57.346S.593,89.609.01,57.355,23.8-.573,54.451.01Z" transform="translate(86.93 440.103)" fill="url(#linear-gradient)"/>
      <path id="Path_119" data-name="Path 119" d="M159.926.025c86.821-1.491,155.994,64.1,154.5,146.5s-73.082,150.405-159.9,151.9S-1.468,234.32.024,151.921,73.106,1.516,159.926.025Z" transform="matrix(0.017, 1, -1, 0.017, 1085.724, 26.963)" fill="url(#linear-gradient)"/>
      <path id="Path_120" data-name="Path 120" d="M72.091.013c40.579.771,74.1,36.014,74.871,78.716s-31.5,76.694-72.077,75.922S.785,118.637.014,75.935,31.512-.759,72.091.013Z" transform="translate(807.281 25.979)" fill="url(#linear-gradient)"/>
    </g>
    <g id="Group_53" data-name="Group 53" transform="translate(149.542 165.587)">
      <g transform="matrix(1, 0, 0, 1, -149.54, -165.59)" filter="url(#Rectangle_298)">
        <rect id="Rectangle_298-2" data-name="Rectangle 298" width="767" height="551" rx="8" transform="translate(150 166)" fill="#fafbff"/>
      </g>
      <path id="Path_40" data-name="Path 40" d="M4.661,0H762.827a4.82,4.82,0,0,1,4.661,4.964V59.571H0V4.964A4.82,4.82,0,0,1,4.661,0Z" transform="translate(0 0)" fill="#2272e2"/>
      <circle id="Ellipse_34" data-name="Ellipse 34" cx="9.5" cy="9.5" r="9.5" transform="translate(21.458 19.413)" fill="#fafbff"/>
      <circle id="Ellipse_35" data-name="Ellipse 35" cx="10" cy="10" r="10" transform="translate(50.458 19.413)" fill="#fafbff"/>
      <ellipse id="Ellipse_36" data-name="Ellipse 36" cx="9" cy="9.5" rx="9" ry="9.5" transform="translate(79.458 19.413)" fill="#fafbff"/>
    </g>
    <g id="Group_52" data-name="Group 52" transform="translate(197.235 239.777)">
      <rect id="Rectangle_299" data-name="Rectangle 299" width="610" height="95" rx="8" transform="translate(-0.235 216.223)" fill="#fff"/>
      <rect id="Rectangle_300" data-name="Rectangle 300" width="610" height="95" rx="8" transform="translate(-0.235 323.223)" fill="#fff"/>
      <rect id="Rectangle_301" data-name="Rectangle 301" width="157" height="15" rx="4" transform="translate(97.765 247.223)" fill="#afb5bd"/>
      <rect id="Rectangle_302" data-name="Rectangle 302" width="157" height="15" rx="4" transform="translate(97.765 354.223)" fill="#afb5bd"/>
      <rect id="Rectangle_303" data-name="Rectangle 303" width="288" height="9" rx="4" transform="translate(97.765 271.223)" fill="#afb5bd"/>
      <rect id="Rectangle_304" data-name="Rectangle 304" width="260" height="8" rx="4" transform="translate(97.765 379.223)" fill="#afb5bd"/>
      <g id="Group_45" data-name="Group 45" transform="translate(58.876 21.852)">
        <g transform="matrix(1, 0, 0, 1, -256.11, -261.63)" filter="url(#Path_31)">
          <path id="Path_31-2" data-name="Path 31" d="M9.791,0H221.285c5.408,0,9.791,4.669,9.791,10.429V140.787c0,5.76-4.384,10.429-9.791,10.429H9.791C4.384,151.216,0,146.547,0,140.787V10.429C0,4.669,4.384,0,9.791,0Z" transform="translate(256.11 261.63)" fill="#2272e2"/>
        </g>
        <ellipse id="Ellipse_32" data-name="Ellipse 32" cx="15" cy="14" rx="15" ry="14" transform="translate(20.889 24.37)" fill="#fff" opacity="0.796"/>
        <ellipse id="Ellipse_33" data-name="Ellipse 33" cx="15" cy="14" rx="15" ry="14" transform="translate(38.889 24.37)" fill="#fff" opacity="0.797"/>
        <rect id="Rectangle_283" data-name="Rectangle 283" width="98" height="8" rx="3" transform="translate(20.889 122.37)" fill="#fff"/>
        <rect id="Rectangle_284" data-name="Rectangle 284" width="41" height="15" rx="3" transform="translate(167.889 117.37)" fill="#fff"/>
      </g>
      <g id="Group_48" data-name="Group 48" transform="translate(357.779 183.184)">
        <g id="Group_19" data-name="Group 19" transform="translate(0 0)">
          <g transform="matrix(1, 0, 0, 1, -555.01, -422.96)" filter="url(#Rectangle_175)">
            <g id="Rectangle_175-2" data-name="Rectangle 175" transform="translate(555 423)" fill="#fff" stroke="#eaebed" stroke-width="1">
              <rect width="388" height="103" rx="8" stroke="none"/>
              <rect x="0.5" y="0.5" width="387" height="102" rx="7.5" fill="none"/>
            </g>
          </g>
          <g id="account_circle-24px" transform="translate(19.142 20.482)">
            <path id="Path_5" data-name="Path 5" d="M0,0H61.018V64.99H0Z" fill="none"/>
            <g id="Group_47" data-name="Group 47" transform="translate(0.001 0.001)">
              <g id="monetization_on-24px">
                <path id="Path_34" data-name="Path 34" d="M0,0H61.017V64.989H0Z" fill="none"/>
                <path id="Path_35" data-name="Path 35" d="M27.813,2.389C13.779,2.389,2.389,14.52,2.389,29.468s11.39,27.079,25.424,27.079S53.237,44.415,53.237,29.468,41.847,2.389,27.813,2.389ZM31.4,45.958v5.172H24.609V45.9c-4.347-.975-8.034-3.953-8.314-9.207h4.983c.254,2.843,2.085,5.064,6.737,5.064,4.983,0,6.1-2.654,6.1-4.306,0-2.248-1.119-4.36-6.788-5.795C21.025,30.036,16.7,27.274,16.7,21.723c0-4.658,3.534-7.69,7.907-8.692V7.8H31.4v5.28a9.441,9.441,0,0,1,7.246,9.18H33.66c-.127-3.006-1.627-5.064-5.644-5.064-3.814,0-6.1,1.841-6.1,4.441,0,2.275,1.653,3.764,6.788,5.172S39.33,30.578,39.33,37.4C39.3,42.357,35.821,45.065,31.4,45.958Z" transform="translate(2.696 3.027)" fill="#2272e2"/>
              </g>
            </g>
          </g>
        </g>
      </g>
      <g id="Group_49" data-name="Group 49" transform="translate(443.152 301.438)">
        <g id="Group_19-2" data-name="Group 19" transform="translate(0 0)">
          <g transform="matrix(1, 0, 0, 1, -640.39, -541.22)" filter="url(#Path_39)">
            <g id="Path_39-2" data-name="Path 39" transform="translate(640.39 541.22)" fill="#fff">
              <path d="M 288.2845458984375 103.1289901733398 L 14.41422653198242 103.1289901733398 C 10.70361137390137 103.1289901733398 7.213342189788818 101.5880661010742 4.586341857910156 98.79010772705078 C 1.951226592063904 95.98348999023438 0.4999958872795105 92.24968719482422 0.4999958872795105 88.27656555175781 L 0.4999958872795105 15.35245323181152 C 0.4999958872795105 11.37929916381836 1.951226592063904 7.645529747009277 4.586341857910156 4.838875770568848 C 7.213342189788818 2.040914297103882 10.70361137390137 0.4999912679195404 14.41422653198242 0.4999912679195404 L 288.2845458984375 0.4999912679195404 C 291.9951477050781 0.4999912679195404 295.4854125976562 2.040914297103882 298.1124267578125 4.838875770568848 C 300.7475280761719 7.645529747009277 302.1987609863281 11.37929916381836 302.1987609863281 15.35245323181152 L 302.1987609863281 88.27656555175781 C 302.1987609863281 92.24968719482422 300.7475280761719 95.98348999023438 298.1124267578125 98.79010772705078 C 295.4854125976562 101.5880661010742 291.9951477050781 103.1289901733398 288.2845458984375 103.1289901733398 Z" stroke="none"/>
              <path d="M 14.41421508789062 0.9999923706054688 C 10.8431396484375 0.9999923706054688 7.4822998046875 2.484878540039062 4.950836181640625 5.181106567382812 C 2.403106689453125 7.894683837890625 1 11.50695037841797 1 15.35245513916016 L 1 88.27656555175781 C 1 92.1220703125 2.403106689453125 95.73429870605469 4.950836181640625 98.4478759765625 C 7.4822998046875 101.1441040039062 10.8431396484375 102.6289901733398 14.41421508789062 102.6289901733398 L 288.2845458984375 102.6289901733398 C 291.8556213378906 102.6289901733398 295.2164306640625 101.1441040039062 297.7478942871094 98.4478759765625 C 300.295654296875 95.73429870605469 301.6987609863281 92.1220703125 301.6987609863281 88.27656555175781 L 301.6987609863281 15.35245513916016 C 301.6987609863281 11.50695037841797 300.295654296875 7.894683837890625 297.7478942871094 5.181106567382812 C 295.2164306640625 2.484878540039062 291.8556213378906 0.9999923706054688 288.2845458984375 0.9999923706054688 L 14.41421508789062 0.9999923706054688 M 14.41421508789062 -7.62939453125e-06 L 288.2845458984375 -7.62939453125e-06 C 296.2452697753906 -7.62939453125e-06 302.6987609863281 6.873527526855469 302.6987609863281 15.35245513916016 L 302.6987609863281 88.27656555175781 C 302.6987609863281 96.75545501708984 296.2452697753906 103.6289901733398 288.2845458984375 103.6289901733398 L 14.41421508789062 103.6289901733398 C 6.453460693359375 103.6289901733398 0 96.75545501708984 0 88.27656555175781 L 0 15.35245513916016 C 0 6.873527526855469 6.453460693359375 -7.62939453125e-06 14.41421508789062 -7.62939453125e-06 Z" stroke="none" fill="#e9eaec"/>
            </g>
          </g>
          <g id="account_circle-24px-2" data-name="account_circle-24px" transform="translate(18.464 19.478)">
            <path id="Path_5-2" data-name="Path 5" d="M0,0H61.1V65.079H0Z" fill="none"/>
            <g id="Group_47-2" data-name="Group 47" transform="translate(0.001 0.001)">
              <g id="monetization_on-24px-2" data-name="monetization_on-24px">
                <path id="Path_34-2" data-name="Path 34" d="M0,0H61.1V65.078H0Z" fill="none"/>
                <path id="Path_35-2" data-name="Path 35" d="M27.848,2.389C13.794,2.389,2.389,14.537,2.389,29.5S13.794,56.621,27.848,56.621,53.306,44.473,53.306,29.5,41.9,2.389,27.848,2.389Zm3.59,43.629V51.2h-6.8V45.964c-4.353-.976-8.045-3.959-8.325-9.219H21.3c.255,2.847,2.088,5.071,6.747,5.071,4.99,0,6.11-2.657,6.11-4.311,0-2.251-1.12-4.366-6.8-5.8-6.314-1.627-10.642-4.393-10.642-9.952,0-4.664,3.539-7.7,7.918-8.7V7.812h6.8V13.1a9.454,9.454,0,0,1,7.256,9.192H33.7c-.127-3.01-1.629-5.071-5.652-5.071-3.819,0-6.11,1.844-6.11,4.447,0,2.278,1.655,3.769,6.8,5.179S39.38,30.616,39.38,37.45C39.355,42.412,35.867,45.123,31.437,46.018Z" transform="translate(2.703 3.034)" fill="#f2627c"/>
              </g>
            </g>
          </g>
        </g>
      </g>
      <g id="Group_50" data-name="Group 50" transform="translate(395.007 0)">
        <g id="Group_19-3" data-name="Group 19" transform="translate(0 0)">
          <g transform="matrix(1, 0, 0, 1, -592.24, -239.78)" filter="url(#Path_41)">
            <g id="Path_41-2" data-name="Path 41" transform="translate(592.24 239.78)" fill="#fff">
              <path d="M 398.3025512695312 165.2140045166016 L 16.59591865539551 165.2140045166016 C 12.30254936218262 165.2140045166016 8.264391899108887 163.4313659667969 5.225339412689209 160.1945343017578 C 2.178181409835815 156.9490509033203 0.5000234842300415 152.6316833496094 0.5000234842300415 148.037841796875 L 0.5000234842300415 17.67616081237793 C 0.5000234842300415 13.08231830596924 2.178181409835815 8.765002250671387 5.225339412689209 5.519475936889648 C 8.264391899108887 2.282633781433105 12.30254936218262 0.5000022649765015 16.59591865539551 0.5000022649765015 L 398.3025512695312 0.5000022649765015 C 402.5959167480469 0.5000022649765015 406.6340637207031 2.282633781433105 409.6731262207031 5.519475936889648 C 412.7203369140625 8.765002250671387 414.3984985351562 13.08231830596924 414.3984985351562 17.67616081237793 L 414.3984985351562 148.037841796875 C 414.3984985351562 152.6316833496094 412.7203369140625 156.9490051269531 409.6731262207031 160.1945343017578 C 406.6340637207031 163.4313659667969 402.5959777832031 165.2140045166016 398.3025512695312 165.2140045166016 Z" stroke="none"/>
              <path d="M 16.59591674804688 1 C 12.44207763671875 1 8.53338623046875 2.726577758789062 5.589874267578125 5.861740112304688 C 2.630035400390625 9.014205932617188 0.999969482421875 13.21000671386719 0.999969482421875 17.67616271972656 L 0.999969482421875 148.037841796875 C 0.999969482421875 152.5040588378906 2.630035400390625 156.6998443603516 5.589874267578125 159.8523254394531 C 8.53338623046875 162.9874267578125 12.44207763671875 164.7140045166016 16.59591674804688 164.7140045166016 L 398.302490234375 164.7140045166016 C 402.4563903808594 164.7140045166016 406.3650817871094 162.9874267578125 409.30859375 159.8523254394531 C 412.2684020996094 156.6998443603516 413.8984375 152.5040588378906 413.8984375 148.037841796875 L 413.8984375 17.67616271972656 C 413.8984375 13.20994567871094 412.2684020996094 9.01416015625 409.30859375 5.861679077148438 C 406.3650817871094 2.726577758789062 402.4563293457031 1 398.302490234375 1 L 16.59591674804688 1 M 16.59591674804688 0 L 398.302490234375 0 C 407.4682312011719 0 414.8984375 7.913894653320312 414.8984375 17.67616271972656 L 414.8984375 148.037841796875 C 414.8984375 157.8001556396484 407.4682312011719 165.7140045166016 398.302490234375 165.7140045166016 L 16.59591674804688 165.7140045166016 C 7.4302978515625 165.7140045166016 -3.0517578125e-05 157.8001556396484 -3.0517578125e-05 148.037841796875 L -3.0517578125e-05 17.67616271972656 C -3.0517578125e-05 7.913894653320312 7.4302978515625 0 16.59591674804688 0 Z" stroke="none" fill="#eaebed"/>
            </g>
          </g>
          <g id="account_circle-24px-3" data-name="account_circle-24px" transform="translate(28.774 30.435)">
            <path id="Path_5-3" data-name="Path 5" d="M0,0H98.49V104.9H0Z" fill="none"/>
            <g id="Group_47-3" data-name="Group 47" transform="translate(0.001 0.001)">
              <g id="monetization_on-24px-3" data-name="monetization_on-24px">
                <path id="Path_34-3" data-name="Path 34" d="M0,0H98.489V104.9H0Z" fill="none"/>
                <path id="Path_35-3" data-name="Path 35" d="M43.426,2.389C20.773,2.389,2.389,21.97,2.389,46.1S20.773,89.805,43.426,89.805,84.463,70.224,84.463,46.1,66.078,2.389,43.426,2.389Zm5.786,70.326v8.348H38.255V72.628c-7.017-1.573-12.968-6.381-13.419-14.861h8.043c.41,4.589,3.365,8.173,10.875,8.173,8.043,0,9.849-4.283,9.849-6.95,0-3.628-1.806-7.037-10.957-9.354C32.469,47.015,25.493,42.557,25.493,33.6c0-7.518,5.7-12.413,12.763-14.03V11.13H49.212v8.523c7.633,1.967,11.449,8.13,11.7,14.817H52.864c-.205-4.852-2.626-8.173-9.11-8.173-6.156,0-9.849,2.972-9.849,7.168,0,3.671,2.667,6.075,10.957,8.348S62.016,47.889,62.016,58.9C61.975,66.9,56.352,71.273,49.212,72.715Z" transform="translate(5.819 6.353)" fill="#29cc9e"/>
              </g>
            </g>
          </g>
        </g>
      </g>
      <g id="home-24px" transform="translate(26.644 244.095)">
        <path id="Path_32" data-name="Path 32" d="M0,0H37.525V37.525H0Z" fill="none"/>
        <path id="Path_33" data-name="Path 33" d="M15.613,32.729V23.344h7.119v9.385a1.836,1.836,0,0,0,1.78,1.877h5.339a1.836,1.836,0,0,0,1.78-1.877V19.59h3.026a.939.939,0,0,0,.587-1.633L20.365,3.824a1.725,1.725,0,0,0-2.385,0L3.1,17.957a.943.943,0,0,0,.587,1.633H6.714V32.729a1.836,1.836,0,0,0,1.78,1.877h5.339A1.836,1.836,0,0,0,15.613,32.729Z" transform="translate(-0.412 -0.492)" fill="#afb5bd"/>
      </g>
      <g id="home-24px-2" data-name="home-24px" transform="translate(26.644 354.963)">
        <path id="Path_32-2" data-name="Path 32" d="M0,0H37.525V37.525H0Z" fill="none"/>
        <path id="Path_33-2" data-name="Path 33" d="M15.613,32.729V23.344h7.119v9.385a1.836,1.836,0,0,0,1.78,1.877h5.339a1.836,1.836,0,0,0,1.78-1.877V19.59h3.026a.939.939,0,0,0,.587-1.633L20.365,3.824a1.725,1.725,0,0,0-2.385,0L3.1,17.957a.943.943,0,0,0,.587,1.633H6.714V32.729a1.836,1.836,0,0,0,1.78,1.877h5.339A1.836,1.836,0,0,0,15.613,32.729Z" transform="translate(-0.412 -0.492)" fill="#afb5bd"/>
      </g>
      <path id="Path_121" data-name="Path 121" d="M13.547-16.756v3.082H8.832V0H4.945V-13.674H.23v-3.082ZM13.317,0V-11.925h2.116a1.8,1.8,0,0,1,.443.046.777.777,0,0,1,.3.144.613.613,0,0,1,.184.259,2.333,2.333,0,0,1,.109.391l.2,1.115a5.844,5.844,0,0,1,1.472-1.6,2.991,2.991,0,0,1,1.782-.587,2.054,2.054,0,0,1,1.311.391l-.46,2.622a.512.512,0,0,1-.184.339.624.624,0,0,1-.368.1,2.441,2.441,0,0,1-.46-.052,3.566,3.566,0,0,0-.667-.052,2.449,2.449,0,0,0-2.208,1.5V0Zm17.5,0a1.67,1.67,0,0,1-.765-.138,1.054,1.054,0,0,1-.431-.575l-.253-.655q-.448.38-.862.667a5.466,5.466,0,0,1-.857.489,4.231,4.231,0,0,1-.943.3,5.8,5.8,0,0,1-1.11.1,4.866,4.866,0,0,1-1.483-.213,3.1,3.1,0,0,1-1.133-.627,2.756,2.756,0,0,1-.719-1.029,3.712,3.712,0,0,1-.253-1.42,2.979,2.979,0,0,1,.322-1.3,3.206,3.206,0,0,1,1.115-1.213,7.09,7.09,0,0,1,2.139-.914,14.352,14.352,0,0,1,3.392-.414v-.506a2.186,2.186,0,0,0-.431-1.512,1.586,1.586,0,0,0-1.225-.466,3.249,3.249,0,0,0-1.035.138,4.653,4.653,0,0,0-.719.311q-.316.173-.615.311a1.69,1.69,0,0,1-.713.138,1.078,1.078,0,0,1-.627-.178,1.324,1.324,0,0,1-.408-.443l-.644-1.115a7.249,7.249,0,0,1,2.4-1.42,8.406,8.406,0,0,1,2.823-.466,5.163,5.163,0,0,1,1.949.351,4.2,4.2,0,0,1,1.472.977,4.271,4.271,0,0,1,.926,1.489,5.352,5.352,0,0,1,.322,1.886V0ZM26.726-2.174a2.829,2.829,0,0,0,1.207-.241A3.679,3.679,0,0,0,28.98-3.2V-4.853a11.835,11.835,0,0,0-1.76.184,4.274,4.274,0,0,0-1.093.345,1.322,1.322,0,0,0-.558.471,1.116,1.116,0,0,0-.155.575,1,1,0,0,0,.333.857A1.627,1.627,0,0,0,26.726-2.174ZM34.983,0V-11.925h2.208a.984.984,0,0,1,.558.149.8.8,0,0,1,.316.449l.207.69a8.661,8.661,0,0,1,.713-.6,4.176,4.176,0,0,1,.788-.466,4.676,4.676,0,0,1,.909-.3,4.875,4.875,0,0,1,1.064-.109,4.175,4.175,0,0,1,1.731.339,3.592,3.592,0,0,1,1.271.943,4.07,4.07,0,0,1,.782,1.438,5.961,5.961,0,0,1,.264,1.811V0H42.228V-7.578a2.085,2.085,0,0,0-.4-1.363,1.446,1.446,0,0,0-1.185-.489,2.481,2.481,0,0,0-1.1.253,4.293,4.293,0,0,0-.989.679V0ZM55.614-9.315A.922.922,0,0,1,55.321-9a.769.769,0,0,1-.4.092,1.267,1.267,0,0,1-.506-.109l-.546-.236a5.951,5.951,0,0,0-.661-.236,2.952,2.952,0,0,0-.84-.109,1.776,1.776,0,0,0-1.041.259.834.834,0,0,0-.362.719.72.72,0,0,0,.236.552,2.163,2.163,0,0,0,.627.385,8.644,8.644,0,0,0,.885.316q.495.149,1.012.333a9.012,9.012,0,0,1,1.012.431,3.785,3.785,0,0,1,.885.61,2.721,2.721,0,0,1,.627.88,2.979,2.979,0,0,1,.236,1.242,4.084,4.084,0,0,1-.322,1.633,3.468,3.468,0,0,1-.96,1.288,4.541,4.541,0,0,1-1.576.839,7.1,7.1,0,0,1-2.156.3A6.561,6.561,0,0,1,50.255.069a8.443,8.443,0,0,1-1.179-.31,6.422,6.422,0,0,1-1.052-.466,4.563,4.563,0,0,1-.828-.581L48.024-2.6a1.192,1.192,0,0,1,.356-.362.99.99,0,0,1,.541-.132,1.125,1.125,0,0,1,.558.138l.535.3a4.458,4.458,0,0,0,.673.3,2.917,2.917,0,0,0,.972.138,2.468,2.468,0,0,0,.7-.086,1.236,1.236,0,0,0,.46-.236.941.941,0,0,0,.253-.333.938.938,0,0,0,.08-.379.775.775,0,0,0-.242-.586,2.1,2.1,0,0,0-.632-.4,7.711,7.711,0,0,0-.891-.311q-.5-.144-1.018-.328a8.175,8.175,0,0,1-1.018-.443,3.5,3.5,0,0,1-.891-.656,3.046,3.046,0,0,1-.632-.972,3.589,3.589,0,0,1-.242-1.392,3.626,3.626,0,0,1,.293-1.443,3.351,3.351,0,0,1,.88-1.2,4.32,4.32,0,0,1,1.472-.822,6.364,6.364,0,0,1,2.07-.3,6.655,6.655,0,0,1,1.248.115,6.377,6.377,0,0,1,1.133.322,5.425,5.425,0,0,1,.966.489,4.639,4.639,0,0,1,.77.615ZM58.972,0V-9.476l-.782-.161a1.615,1.615,0,0,1-.65-.287.689.689,0,0,1-.247-.575v-1.4h1.679v-.679a4.993,4.993,0,0,1,.328-1.852,3.918,3.918,0,0,1,.943-1.415,4.245,4.245,0,0,1,1.5-.909,5.865,5.865,0,0,1,2.013-.322,5.926,5.926,0,0,1,.811.052,5.652,5.652,0,0,1,.776.167l-.069,1.736a.575.575,0,0,1-.1.3.691.691,0,0,1-.213.2.958.958,0,0,1-.282.109,1.4,1.4,0,0,1-.3.035,3.474,3.474,0,0,0-.84.092,1.345,1.345,0,0,0-.615.328,1.474,1.474,0,0,0-.374.621,3.163,3.163,0,0,0-.126.972v.564h2.806v2.438H62.537V0Zm12.9-12.109a6.14,6.14,0,0,1,2.168.368,4.712,4.712,0,0,1,1.69,1.069,4.881,4.881,0,0,1,1.1,1.719,6.309,6.309,0,0,1,.4,2.306,5.033,5.033,0,0,1-.035.655,1.038,1.038,0,0,1-.127.4.482.482,0,0,1-.247.207,1.158,1.158,0,0,1-.4.057H69.552a3.362,3.362,0,0,0,.909,2.168,2.7,2.7,0,0,0,1.9.673,3.4,3.4,0,0,0,1.069-.15,5.4,5.4,0,0,0,.8-.333q.351-.184.644-.334a1.337,1.337,0,0,1,.615-.15.737.737,0,0,1,.644.31l1.035,1.277a5.3,5.3,0,0,1-1.19,1.029,6.185,6.185,0,0,1-1.311.621A7.106,7.106,0,0,1,73.318.1a10.1,10.1,0,0,1-1.282.086,6.7,6.7,0,0,1-2.352-.408,5.4,5.4,0,0,1-1.921-1.213,5.725,5.725,0,0,1-1.3-2,7.477,7.477,0,0,1-.477-2.783A6.3,6.3,0,0,1,66.4-8.487a5.58,5.58,0,0,1,1.173-1.875,5.585,5.585,0,0,1,1.851-1.276A6.111,6.111,0,0,1,71.875-12.109Zm.069,2.461a2.148,2.148,0,0,0-1.6.581,3.026,3.026,0,0,0-.759,1.673h4.451a3.147,3.147,0,0,0-.109-.828,2.007,2.007,0,0,0-.356-.719,1.814,1.814,0,0,0-.65-.512A2.222,2.222,0,0,0,71.944-9.648ZM79.281,0V-11.925H81.4a1.8,1.8,0,0,1,.443.046.777.777,0,0,1,.3.144.614.614,0,0,1,.184.259,2.333,2.333,0,0,1,.109.391l.2,1.115a5.844,5.844,0,0,1,1.472-1.6,2.991,2.991,0,0,1,1.783-.587,2.054,2.054,0,0,1,1.311.391l-.46,2.622a.512.512,0,0,1-.184.339.625.625,0,0,1-.368.1,2.441,2.441,0,0,1-.46-.052,3.566,3.566,0,0,0-.667-.052,2.449,2.449,0,0,0-2.208,1.5V0ZM97.4.184a4.2,4.2,0,0,1-1.5-.247,2.981,2.981,0,0,1-1.092-.7,2.99,2.99,0,0,1-.673-1.1,4.251,4.251,0,0,1-.23-1.437V-9.465H92.9a.675.675,0,0,1-.471-.178.673.673,0,0,1-.2-.523v-1.391l1.9-.368.7-2.91a.708.708,0,0,1,.782-.552h1.863V-11.9h2.9v2.438h-2.9v5.923a1.115,1.115,0,0,0,.2.684.68.68,0,0,0,.581.27,1.141,1.141,0,0,0,.328-.04,1.305,1.305,0,0,0,.23-.092q.1-.052.184-.092a.471.471,0,0,1,.2-.04.415.415,0,0,1,.259.075.926.926,0,0,1,.2.236L100.74-.851a4.92,4.92,0,0,1-1.552.776A6.17,6.17,0,0,1,97.4.184Zm10.327-12.293a6.887,6.887,0,0,1,2.472.425,5.423,5.423,0,0,1,1.915,1.219,5.491,5.491,0,0,1,1.242,1.926,6.949,6.949,0,0,1,.443,2.547,7.075,7.075,0,0,1-.443,2.57,5.529,5.529,0,0,1-1.242,1.944A5.449,5.449,0,0,1,110.2-.247a6.805,6.805,0,0,1-2.472.431,6.885,6.885,0,0,1-2.49-.431,5.556,5.556,0,0,1-1.932-1.23,5.449,5.449,0,0,1-1.253-1.944,7.075,7.075,0,0,1-.443-2.57,6.949,6.949,0,0,1,.443-2.547,5.411,5.411,0,0,1,1.253-1.926,5.53,5.53,0,0,1,1.932-1.219A6.968,6.968,0,0,1,107.732-12.109Zm0,9.648a2.025,2.025,0,0,0,1.811-.868,4.8,4.8,0,0,0,.581-2.639,4.771,4.771,0,0,0-.581-2.634,2.029,2.029,0,0,0-1.811-.863,2.08,2.08,0,0,0-1.852.863,4.734,4.734,0,0,0-.587,2.634,4.764,4.764,0,0,0,.587,2.639A2.075,2.075,0,0,0,107.732-2.461ZM12.88,19.617a13.626,13.626,0,0,1-.472,3.806A7.813,7.813,0,0,1,11.1,26.091a5.264,5.264,0,0,1-1.978,1.576,5.943,5.943,0,0,1-2.478.517,5.865,5.865,0,0,1-2.467-.517A5.242,5.242,0,0,1,2.22,26.091,7.8,7.8,0,0,1,.926,23.423,13.785,13.785,0,0,1,.46,19.617,13.785,13.785,0,0,1,.926,15.81,7.8,7.8,0,0,1,2.22,13.142a5.188,5.188,0,0,1,1.961-1.57,5.921,5.921,0,0,1,2.467-.512,6,6,0,0,1,2.478.512,5.211,5.211,0,0,1,1.978,1.57,7.813,7.813,0,0,1,1.305,2.668A13.626,13.626,0,0,1,12.88,19.617Zm-3.68,0a15.187,15.187,0,0,0-.218-2.846A5.834,5.834,0,0,0,8.4,15.028a2.106,2.106,0,0,0-.822-.868,2.023,2.023,0,0,0-.931-.236,1.989,1.989,0,0,0-.926.236,2.054,2.054,0,0,0-.8.868,5.986,5.986,0,0,0-.563,1.742,15.588,15.588,0,0,0-.213,2.846,15.57,15.57,0,0,0,.213,2.852,6.067,6.067,0,0,0,.563,1.742,2.05,2.05,0,0,0,.8.874,1.989,1.989,0,0,0,.926.236,2.023,2.023,0,0,0,.931-.236,2.1,2.1,0,0,0,.822-.874,5.912,5.912,0,0,0,.581-1.742A15.169,15.169,0,0,0,9.2,19.617Zm17.02,0a13.626,13.626,0,0,1-.472,3.806,7.813,7.813,0,0,1-1.305,2.668,5.264,5.264,0,0,1-1.978,1.576,5.943,5.943,0,0,1-2.478.517,5.865,5.865,0,0,1-2.467-.517,5.242,5.242,0,0,1-1.961-1.576,7.8,7.8,0,0,1-1.294-2.668,13.785,13.785,0,0,1-.466-3.806,13.785,13.785,0,0,1,.466-3.807,7.8,7.8,0,0,1,1.294-2.668,5.188,5.188,0,0,1,1.961-1.57,5.921,5.921,0,0,1,2.467-.512,6,6,0,0,1,2.478.512,5.211,5.211,0,0,1,1.978,1.57,7.813,7.813,0,0,1,1.305,2.668A13.626,13.626,0,0,1,26.22,19.617Zm-3.68,0a15.187,15.187,0,0,0-.219-2.846,5.834,5.834,0,0,0-.581-1.742,2.106,2.106,0,0,0-.822-.868,2.023,2.023,0,0,0-.931-.236,1.989,1.989,0,0,0-.926.236,2.054,2.054,0,0,0-.805.868,5.986,5.986,0,0,0-.563,1.742,15.588,15.588,0,0,0-.213,2.846,15.57,15.57,0,0,0,.213,2.852,6.067,6.067,0,0,0,.563,1.742,2.05,2.05,0,0,0,.805.874,1.989,1.989,0,0,0,.926.236,2.023,2.023,0,0,0,.931-.236,2.1,2.1,0,0,0,.822-.874,5.912,5.912,0,0,0,.581-1.742A15.169,15.169,0,0,0,22.54,19.617Zm17.02,0a13.626,13.626,0,0,1-.472,3.806,7.813,7.813,0,0,1-1.305,2.668,5.264,5.264,0,0,1-1.978,1.576,5.943,5.943,0,0,1-2.478.517,5.865,5.865,0,0,1-2.467-.517A5.242,5.242,0,0,1,28.9,26.091a7.8,7.8,0,0,1-1.294-2.668,13.785,13.785,0,0,1-.466-3.806,13.785,13.785,0,0,1,.466-3.807A7.8,7.8,0,0,1,28.9,13.142a5.188,5.188,0,0,1,1.961-1.57,5.921,5.921,0,0,1,2.467-.512,6,6,0,0,1,2.478.512,5.211,5.211,0,0,1,1.978,1.57,7.813,7.813,0,0,1,1.305,2.668A13.626,13.626,0,0,1,39.56,19.617Zm-3.68,0a15.187,15.187,0,0,0-.219-2.846,5.834,5.834,0,0,0-.581-1.742,2.106,2.106,0,0,0-.822-.868,2.023,2.023,0,0,0-.931-.236,1.989,1.989,0,0,0-.926.236,2.054,2.054,0,0,0-.8.868,5.986,5.986,0,0,0-.563,1.742,15.588,15.588,0,0,0-.213,2.846,15.57,15.57,0,0,0,.213,2.852,6.067,6.067,0,0,0,.563,1.742,2.05,2.05,0,0,0,.8.874,1.989,1.989,0,0,0,.926.236,2.023,2.023,0,0,0,.931-.236,2.1,2.1,0,0,0,.822-.874,5.912,5.912,0,0,0,.581-1.742A15.169,15.169,0,0,0,35.88,19.617Zm21.459,0a13.626,13.626,0,0,1-.472,3.806,7.813,7.813,0,0,1-1.305,2.668,5.264,5.264,0,0,1-1.978,1.576,5.943,5.943,0,0,1-2.478.517,5.865,5.865,0,0,1-2.467-.517,5.242,5.242,0,0,1-1.961-1.576,7.8,7.8,0,0,1-1.294-2.668,13.785,13.785,0,0,1-.466-3.806,13.785,13.785,0,0,1,.466-3.807,7.8,7.8,0,0,1,1.294-2.668,5.188,5.188,0,0,1,1.961-1.57,5.921,5.921,0,0,1,2.467-.512,6,6,0,0,1,2.478.512,5.211,5.211,0,0,1,1.978,1.57,7.813,7.813,0,0,1,1.305,2.668A13.626,13.626,0,0,1,57.339,19.617Zm-3.68,0a15.187,15.187,0,0,0-.219-2.846,5.834,5.834,0,0,0-.581-1.742,2.106,2.106,0,0,0-.822-.868,2.023,2.023,0,0,0-.931-.236,1.989,1.989,0,0,0-.926.236,2.054,2.054,0,0,0-.8.868,5.986,5.986,0,0,0-.564,1.742,15.588,15.588,0,0,0-.213,2.846,15.57,15.57,0,0,0,.213,2.852,6.066,6.066,0,0,0,.564,1.742,2.05,2.05,0,0,0,.8.874,1.989,1.989,0,0,0,.926.236,2.023,2.023,0,0,0,.931-.236,2.1,2.1,0,0,0,.822-.874,5.912,5.912,0,0,0,.581-1.742A15.169,15.169,0,0,0,53.659,19.617Zm17.02,0a13.626,13.626,0,0,1-.472,3.806A7.813,7.813,0,0,1,68.9,26.091a5.264,5.264,0,0,1-1.978,1.576,5.943,5.943,0,0,1-2.478.517,5.865,5.865,0,0,1-2.467-.517,5.242,5.242,0,0,1-1.961-1.576,7.8,7.8,0,0,1-1.294-2.668,13.785,13.785,0,0,1-.466-3.806,13.785,13.785,0,0,1,.466-3.807,7.8,7.8,0,0,1,1.294-2.668,5.188,5.188,0,0,1,1.961-1.57,5.921,5.921,0,0,1,2.467-.512,6,6,0,0,1,2.478.512,5.211,5.211,0,0,1,1.978,1.57,7.813,7.813,0,0,1,1.305,2.668A13.626,13.626,0,0,1,70.679,19.617Zm-3.68,0a15.187,15.187,0,0,0-.218-2.846,5.835,5.835,0,0,0-.581-1.742,2.106,2.106,0,0,0-.822-.868,2.023,2.023,0,0,0-.932-.236,1.989,1.989,0,0,0-.926.236,2.054,2.054,0,0,0-.805.868,5.986,5.986,0,0,0-.563,1.742,15.588,15.588,0,0,0-.213,2.846,15.57,15.57,0,0,0,.213,2.852,6.067,6.067,0,0,0,.563,1.742,2.05,2.05,0,0,0,.805.874,1.989,1.989,0,0,0,.926.236,2.023,2.023,0,0,0,.932-.236,2.1,2.1,0,0,0,.822-.874,5.912,5.912,0,0,0,.581-1.742A15.169,15.169,0,0,0,67,19.617Zm17.02,0a13.626,13.626,0,0,1-.471,3.806,7.812,7.812,0,0,1-1.305,2.668,5.264,5.264,0,0,1-1.978,1.576,5.943,5.943,0,0,1-2.478.517,5.865,5.865,0,0,1-2.467-.517,5.242,5.242,0,0,1-1.961-1.576,7.8,7.8,0,0,1-1.294-2.668,13.785,13.785,0,0,1-.466-3.806,13.785,13.785,0,0,1,.466-3.807,7.8,7.8,0,0,1,1.294-2.668,5.188,5.188,0,0,1,1.961-1.57,5.921,5.921,0,0,1,2.467-.512,6,6,0,0,1,2.478.512,5.211,5.211,0,0,1,1.978,1.57,7.812,7.812,0,0,1,1.305,2.668A13.626,13.626,0,0,1,84.019,19.617Zm-3.68,0a15.187,15.187,0,0,0-.218-2.846,5.834,5.834,0,0,0-.581-1.742,2.106,2.106,0,0,0-.822-.868,2.023,2.023,0,0,0-.931-.236,1.989,1.989,0,0,0-.926.236,2.054,2.054,0,0,0-.805.868,5.986,5.986,0,0,0-.563,1.742,15.588,15.588,0,0,0-.213,2.846,15.569,15.569,0,0,0,.213,2.852,6.066,6.066,0,0,0,.563,1.742,2.05,2.05,0,0,0,.805.874,1.989,1.989,0,0,0,.926.236,2.023,2.023,0,0,0,.931-.236,2.1,2.1,0,0,0,.822-.874,5.912,5.912,0,0,0,.581-1.742A15.169,15.169,0,0,0,80.339,19.617Zm21.459,0a13.626,13.626,0,0,1-.471,3.806,7.813,7.813,0,0,1-1.305,2.668,5.264,5.264,0,0,1-1.978,1.576,5.943,5.943,0,0,1-2.478.517,5.865,5.865,0,0,1-2.467-.517,5.242,5.242,0,0,1-1.961-1.576,7.8,7.8,0,0,1-1.294-2.668,13.785,13.785,0,0,1-.466-3.806,13.785,13.785,0,0,1,.466-3.807,7.8,7.8,0,0,1,1.294-2.668,5.188,5.188,0,0,1,1.961-1.57,5.921,5.921,0,0,1,2.467-.512,6,6,0,0,1,2.478.512,5.211,5.211,0,0,1,1.978,1.57,7.813,7.813,0,0,1,1.305,2.668A13.626,13.626,0,0,1,101.8,19.617Zm-3.68,0A15.187,15.187,0,0,0,97.9,16.77a5.834,5.834,0,0,0-.581-1.742,2.106,2.106,0,0,0-.822-.868,2.023,2.023,0,0,0-.931-.236,1.989,1.989,0,0,0-.926.236,2.054,2.054,0,0,0-.805.868,5.986,5.986,0,0,0-.563,1.742,15.588,15.588,0,0,0-.213,2.846,15.569,15.569,0,0,0,.213,2.852,6.066,6.066,0,0,0,.563,1.742,2.05,2.05,0,0,0,.805.874,1.989,1.989,0,0,0,.926.236,2.023,2.023,0,0,0,.931-.236,2.1,2.1,0,0,0,.822-.874,5.912,5.912,0,0,0,.581-1.742A15.169,15.169,0,0,0,98.118,19.617Zm17.02,0a13.626,13.626,0,0,1-.471,3.806,7.812,7.812,0,0,1-1.305,2.668,5.264,5.264,0,0,1-1.978,1.576,5.943,5.943,0,0,1-2.478.517,5.865,5.865,0,0,1-2.467-.517,5.242,5.242,0,0,1-1.961-1.576,7.8,7.8,0,0,1-1.294-2.668,13.785,13.785,0,0,1-.466-3.806,13.785,13.785,0,0,1,.466-3.807,7.8,7.8,0,0,1,1.294-2.668,5.188,5.188,0,0,1,1.961-1.57,5.921,5.921,0,0,1,2.467-.512,6,6,0,0,1,2.478.512,5.211,5.211,0,0,1,1.978,1.57,7.812,7.812,0,0,1,1.305,2.668A13.626,13.626,0,0,1,115.138,19.617Zm-3.68,0a15.187,15.187,0,0,0-.218-2.846,5.834,5.834,0,0,0-.581-1.742,2.106,2.106,0,0,0-.822-.868,2.023,2.023,0,0,0-.931-.236,1.989,1.989,0,0,0-.926.236,2.054,2.054,0,0,0-.805.868,5.986,5.986,0,0,0-.563,1.742,15.588,15.588,0,0,0-.213,2.846,15.569,15.569,0,0,0,.213,2.852,6.066,6.066,0,0,0,.563,1.742,2.05,2.05,0,0,0,.805.874,1.989,1.989,0,0,0,.926.236,2.023,2.023,0,0,0,.931-.236,2.1,2.1,0,0,0,.822-.874,5.912,5.912,0,0,0,.581-1.742A15.169,15.169,0,0,0,111.458,19.617Zm17.02,0a13.626,13.626,0,0,1-.471,3.806,7.812,7.812,0,0,1-1.305,2.668,5.264,5.264,0,0,1-1.978,1.576,5.943,5.943,0,0,1-2.478.517,5.865,5.865,0,0,1-2.467-.517,5.242,5.242,0,0,1-1.961-1.576,7.8,7.8,0,0,1-1.294-2.668,13.785,13.785,0,0,1-.466-3.806,13.785,13.785,0,0,1,.466-3.807,7.8,7.8,0,0,1,1.294-2.668,5.188,5.188,0,0,1,1.961-1.57,5.921,5.921,0,0,1,2.467-.512,6,6,0,0,1,2.478.512,5.211,5.211,0,0,1,1.978,1.57,7.812,7.812,0,0,1,1.305,2.668A13.626,13.626,0,0,1,128.478,19.617Zm-3.68,0a15.187,15.187,0,0,0-.218-2.846A5.834,5.834,0,0,0,124,15.028a2.106,2.106,0,0,0-.822-.868,2.023,2.023,0,0,0-.931-.236,1.989,1.989,0,0,0-.926.236,2.054,2.054,0,0,0-.805.868,5.986,5.986,0,0,0-.563,1.742,15.588,15.588,0,0,0-.213,2.846,15.569,15.569,0,0,0,.213,2.852,6.066,6.066,0,0,0,.563,1.742,2.05,2.05,0,0,0,.805.874,1.989,1.989,0,0,0,.926.236,2.023,2.023,0,0,0,.931-.236,2.1,2.1,0,0,0,.822-.874,5.912,5.912,0,0,0,.581-1.742A15.169,15.169,0,0,0,124.8,19.617Zm21.459,0a13.626,13.626,0,0,1-.472,3.806,7.813,7.813,0,0,1-1.305,2.668,5.264,5.264,0,0,1-1.978,1.576,5.943,5.943,0,0,1-2.478.517,5.865,5.865,0,0,1-2.467-.517,5.242,5.242,0,0,1-1.961-1.576,7.8,7.8,0,0,1-1.294-2.668,13.785,13.785,0,0,1-.466-3.806,13.785,13.785,0,0,1,.466-3.807,7.8,7.8,0,0,1,1.294-2.668,5.188,5.188,0,0,1,1.961-1.57,5.921,5.921,0,0,1,2.467-.512,6,6,0,0,1,2.478.512,5.211,5.211,0,0,1,1.978,1.57,7.813,7.813,0,0,1,1.305,2.668A13.626,13.626,0,0,1,146.257,19.617Zm-3.68,0a15.188,15.188,0,0,0-.218-2.846,5.835,5.835,0,0,0-.581-1.742,2.106,2.106,0,0,0-.822-.868,2.023,2.023,0,0,0-.932-.236,1.989,1.989,0,0,0-.926.236,2.054,2.054,0,0,0-.805.868,5.987,5.987,0,0,0-.563,1.742,15.588,15.588,0,0,0-.213,2.846,15.57,15.57,0,0,0,.213,2.852,6.067,6.067,0,0,0,.563,1.742,2.05,2.05,0,0,0,.805.874,1.989,1.989,0,0,0,.926.236,2.023,2.023,0,0,0,.932-.236,2.1,2.1,0,0,0,.822-.874,5.912,5.912,0,0,0,.581-1.742A15.17,15.17,0,0,0,142.577,19.617Zm17.02,0a13.626,13.626,0,0,1-.472,3.806,7.813,7.813,0,0,1-1.305,2.668,5.264,5.264,0,0,1-1.978,1.576,5.943,5.943,0,0,1-2.478.517,5.865,5.865,0,0,1-2.467-.517,5.242,5.242,0,0,1-1.961-1.576,7.8,7.8,0,0,1-1.294-2.668,13.785,13.785,0,0,1-.466-3.806,13.785,13.785,0,0,1,.466-3.807,7.8,7.8,0,0,1,1.294-2.668,5.188,5.188,0,0,1,1.961-1.57,5.921,5.921,0,0,1,2.467-.512,6,6,0,0,1,2.478.512,5.211,5.211,0,0,1,1.978,1.57,7.813,7.813,0,0,1,1.305,2.668A13.626,13.626,0,0,1,159.6,19.617Zm-3.68,0a15.188,15.188,0,0,0-.218-2.846,5.835,5.835,0,0,0-.581-1.742,2.106,2.106,0,0,0-.822-.868,2.023,2.023,0,0,0-.932-.236,1.989,1.989,0,0,0-.926.236,2.054,2.054,0,0,0-.805.868,5.987,5.987,0,0,0-.563,1.742,15.588,15.588,0,0,0-.213,2.846,15.57,15.57,0,0,0,.213,2.852,6.067,6.067,0,0,0,.563,1.742,2.05,2.05,0,0,0,.805.874,1.989,1.989,0,0,0,.926.236,2.023,2.023,0,0,0,.932-.236,2.1,2.1,0,0,0,.822-.874,5.912,5.912,0,0,0,.581-1.742A15.17,15.17,0,0,0,155.917,19.617Z" transform="translate(545.765 74.223)" fill="#394049"/>
      <path id="Path_131" data-name="Path 131" d="M11.76-7.654a12.441,12.441,0,0,1-.431,3.475,7.133,7.133,0,0,1-1.192,2.436A4.806,4.806,0,0,1,8.332-.3,5.426,5.426,0,0,1,6.069.168,5.355,5.355,0,0,1,3.817-.3a4.786,4.786,0,0,1-1.79-1.438A7.123,7.123,0,0,1,.845-4.179,12.586,12.586,0,0,1,.42-7.654,12.586,12.586,0,0,1,.845-11.13a7.123,7.123,0,0,1,1.181-2.436A4.737,4.737,0,0,1,3.817-15a5.406,5.406,0,0,1,2.252-.467A5.478,5.478,0,0,1,8.332-15a4.758,4.758,0,0,1,1.806,1.433A7.133,7.133,0,0,1,11.33-11.13,12.441,12.441,0,0,1,11.76-7.654Zm-3.36,0a13.867,13.867,0,0,0-.2-2.6,5.327,5.327,0,0,0-.53-1.591,1.923,1.923,0,0,0-.751-.793,1.847,1.847,0,0,0-.85-.215,1.816,1.816,0,0,0-.845.215,1.876,1.876,0,0,0-.735.793,5.466,5.466,0,0,0-.514,1.591,14.233,14.233,0,0,0-.194,2.6,14.216,14.216,0,0,0,.194,2.6A5.539,5.539,0,0,0,4.489-3.46a1.872,1.872,0,0,0,.735.8,1.816,1.816,0,0,0,.845.215,1.847,1.847,0,0,0,.85-.215,1.918,1.918,0,0,0,.751-.8A5.4,5.4,0,0,0,8.2-5.05,13.85,13.85,0,0,0,8.4-7.654Zm16.947,0a12.441,12.441,0,0,1-.431,3.475,7.133,7.133,0,0,1-1.192,2.436A4.806,4.806,0,0,1,21.919-.3a5.426,5.426,0,0,1-2.263.472A5.355,5.355,0,0,1,17.4-.3a4.786,4.786,0,0,1-1.79-1.438,7.123,7.123,0,0,1-1.181-2.436,12.586,12.586,0,0,1-.425-3.475,12.586,12.586,0,0,1,.425-3.475,7.123,7.123,0,0,1,1.181-2.436A4.737,4.737,0,0,1,17.4-15a5.406,5.406,0,0,1,2.252-.467A5.478,5.478,0,0,1,21.919-15a4.758,4.758,0,0,1,1.806,1.433,7.133,7.133,0,0,1,1.192,2.436A12.441,12.441,0,0,1,25.347-7.654Zm-3.36,0a13.867,13.867,0,0,0-.2-2.6,5.327,5.327,0,0,0-.53-1.591,1.923,1.923,0,0,0-.751-.793,1.847,1.847,0,0,0-.851-.215,1.816,1.816,0,0,0-.845.215,1.876,1.876,0,0,0-.735.793,5.466,5.466,0,0,0-.514,1.591,14.233,14.233,0,0,0-.194,2.6,14.216,14.216,0,0,0,.194,2.6,5.539,5.539,0,0,0,.514,1.591,1.872,1.872,0,0,0,.735.8,1.816,1.816,0,0,0,.845.215,1.847,1.847,0,0,0,.851-.215,1.918,1.918,0,0,0,.751-.8,5.4,5.4,0,0,0,.53-1.591A13.85,13.85,0,0,0,21.987-7.654Zm16.947,0a12.441,12.441,0,0,1-.43,3.475,7.133,7.133,0,0,1-1.192,2.436A4.806,4.806,0,0,1,35.506-.3a5.426,5.426,0,0,1-2.263.472A5.355,5.355,0,0,1,30.991-.3,4.786,4.786,0,0,1,29.2-1.743a7.123,7.123,0,0,1-1.181-2.436,12.586,12.586,0,0,1-.425-3.475,12.586,12.586,0,0,1,.425-3.475A7.123,7.123,0,0,1,29.2-13.566,4.737,4.737,0,0,1,30.991-15a5.406,5.406,0,0,1,2.252-.467A5.478,5.478,0,0,1,35.506-15a4.758,4.758,0,0,1,1.806,1.433A7.133,7.133,0,0,1,38.5-11.13,12.441,12.441,0,0,1,38.934-7.654Zm-3.36,0a13.867,13.867,0,0,0-.2-2.6,5.327,5.327,0,0,0-.53-1.591,1.923,1.923,0,0,0-.751-.793,1.847,1.847,0,0,0-.85-.215,1.816,1.816,0,0,0-.845.215,1.876,1.876,0,0,0-.735.793,5.466,5.466,0,0,0-.514,1.591,14.233,14.233,0,0,0-.194,2.6,14.216,14.216,0,0,0,.194,2.6,5.539,5.539,0,0,0,.514,1.591,1.872,1.872,0,0,0,.735.8,1.816,1.816,0,0,0,.845.215,1.847,1.847,0,0,0,.85-.215,1.918,1.918,0,0,0,.751-.8,5.4,5.4,0,0,0,.53-1.591A13.85,13.85,0,0,0,35.574-7.654Zm22.407,0a12.441,12.441,0,0,1-.431,3.475,7.133,7.133,0,0,1-1.192,2.436A4.806,4.806,0,0,1,54.553-.3,5.426,5.426,0,0,1,52.29.168,5.355,5.355,0,0,1,50.038-.3a4.786,4.786,0,0,1-1.79-1.438,7.123,7.123,0,0,1-1.181-2.436,12.586,12.586,0,0,1-.425-3.475,12.586,12.586,0,0,1,.425-3.475,7.123,7.123,0,0,1,1.181-2.436A4.737,4.737,0,0,1,50.038-15a5.406,5.406,0,0,1,2.252-.467A5.478,5.478,0,0,1,54.553-15a4.758,4.758,0,0,1,1.806,1.433A7.133,7.133,0,0,1,57.55-11.13,12.441,12.441,0,0,1,57.981-7.654Zm-3.36,0a13.867,13.867,0,0,0-.2-2.6,5.327,5.327,0,0,0-.53-1.591,1.923,1.923,0,0,0-.751-.793,1.847,1.847,0,0,0-.85-.215,1.816,1.816,0,0,0-.845.215,1.876,1.876,0,0,0-.735.793,5.466,5.466,0,0,0-.514,1.591A14.232,14.232,0,0,0,50-7.654a14.216,14.216,0,0,0,.194,2.6A5.539,5.539,0,0,0,50.71-3.46a1.872,1.872,0,0,0,.735.8,1.816,1.816,0,0,0,.845.215,1.847,1.847,0,0,0,.85-.215,1.918,1.918,0,0,0,.751-.8,5.4,5.4,0,0,0,.53-1.591A13.85,13.85,0,0,0,54.621-7.654Zm16.947,0a12.441,12.441,0,0,1-.431,3.475,7.133,7.133,0,0,1-1.192,2.436A4.806,4.806,0,0,1,68.14-.3a5.426,5.426,0,0,1-2.263.472A5.355,5.355,0,0,1,63.625-.3a4.786,4.786,0,0,1-1.79-1.438,7.123,7.123,0,0,1-1.181-2.436,12.586,12.586,0,0,1-.425-3.475,12.586,12.586,0,0,1,.425-3.475,7.123,7.123,0,0,1,1.181-2.436A4.737,4.737,0,0,1,63.625-15a5.406,5.406,0,0,1,2.252-.467A5.478,5.478,0,0,1,68.14-15a4.758,4.758,0,0,1,1.806,1.433,7.133,7.133,0,0,1,1.192,2.436A12.441,12.441,0,0,1,71.568-7.654Zm-3.36,0a13.866,13.866,0,0,0-.2-2.6,5.327,5.327,0,0,0-.53-1.591,1.923,1.923,0,0,0-.751-.793,1.847,1.847,0,0,0-.851-.215,1.816,1.816,0,0,0-.845.215,1.876,1.876,0,0,0-.735.793,5.466,5.466,0,0,0-.514,1.591,14.232,14.232,0,0,0-.194,2.6,14.216,14.216,0,0,0,.194,2.6A5.539,5.539,0,0,0,64.3-3.46a1.872,1.872,0,0,0,.735.8,1.816,1.816,0,0,0,.845.215,1.847,1.847,0,0,0,.851-.215,1.918,1.918,0,0,0,.751-.8,5.4,5.4,0,0,0,.53-1.591A13.85,13.85,0,0,0,68.208-7.654Zm16.947,0a12.441,12.441,0,0,1-.431,3.475,7.133,7.133,0,0,1-1.192,2.436A4.806,4.806,0,0,1,81.727-.3a5.426,5.426,0,0,1-2.263.472A5.355,5.355,0,0,1,77.212-.3a4.786,4.786,0,0,1-1.79-1.438A7.123,7.123,0,0,1,74.24-4.179a12.586,12.586,0,0,1-.425-3.475,12.586,12.586,0,0,1,.425-3.475,7.124,7.124,0,0,1,1.181-2.436A4.737,4.737,0,0,1,77.212-15a5.406,5.406,0,0,1,2.252-.467A5.478,5.478,0,0,1,81.727-15a4.758,4.758,0,0,1,1.806,1.433,7.133,7.133,0,0,1,1.192,2.436A12.441,12.441,0,0,1,85.155-7.654Zm-3.36,0a13.866,13.866,0,0,0-.2-2.6,5.327,5.327,0,0,0-.53-1.591,1.923,1.923,0,0,0-.751-.793,1.847,1.847,0,0,0-.851-.215,1.816,1.816,0,0,0-.845.215,1.876,1.876,0,0,0-.735.793,5.466,5.466,0,0,0-.514,1.591,14.232,14.232,0,0,0-.194,2.6,14.216,14.216,0,0,0,.194,2.6,5.539,5.539,0,0,0,.514,1.591,1.872,1.872,0,0,0,.735.8,1.816,1.816,0,0,0,.845.215,1.847,1.847,0,0,0,.851-.215,1.918,1.918,0,0,0,.751-.8A5.4,5.4,0,0,0,81.6-5.05,13.85,13.85,0,0,0,81.795-7.654Zm22.407,0a12.441,12.441,0,0,1-.431,3.475,7.133,7.133,0,0,1-1.192,2.436A4.806,4.806,0,0,1,100.774-.3a5.426,5.426,0,0,1-2.263.472A5.355,5.355,0,0,1,96.259-.3a4.786,4.786,0,0,1-1.79-1.438,7.123,7.123,0,0,1-1.181-2.436,12.586,12.586,0,0,1-.425-3.475,12.586,12.586,0,0,1,.425-3.475,7.124,7.124,0,0,1,1.181-2.436A4.737,4.737,0,0,1,96.259-15a5.406,5.406,0,0,1,2.252-.467,5.478,5.478,0,0,1,2.263.467,4.758,4.758,0,0,1,1.806,1.433,7.133,7.133,0,0,1,1.192,2.436A12.441,12.441,0,0,1,104.2-7.654Zm-3.36,0a13.866,13.866,0,0,0-.2-2.6,5.327,5.327,0,0,0-.53-1.591,1.923,1.923,0,0,0-.751-.793,1.847,1.847,0,0,0-.851-.215,1.816,1.816,0,0,0-.845.215,1.876,1.876,0,0,0-.735.793,5.466,5.466,0,0,0-.514,1.591,14.232,14.232,0,0,0-.194,2.6,14.216,14.216,0,0,0,.194,2.6,5.539,5.539,0,0,0,.514,1.591,1.872,1.872,0,0,0,.735.8,1.816,1.816,0,0,0,.845.215,1.847,1.847,0,0,0,.851-.215,1.918,1.918,0,0,0,.751-.8,5.4,5.4,0,0,0,.53-1.591A13.85,13.85,0,0,0,100.842-7.654Zm16.947,0a12.441,12.441,0,0,1-.431,3.475,7.133,7.133,0,0,1-1.192,2.436A4.806,4.806,0,0,1,114.361-.3,5.426,5.426,0,0,1,112.1.168,5.355,5.355,0,0,1,109.846-.3a4.786,4.786,0,0,1-1.79-1.438,7.123,7.123,0,0,1-1.181-2.436,12.586,12.586,0,0,1-.425-3.475,12.586,12.586,0,0,1,.425-3.475,7.124,7.124,0,0,1,1.181-2.436A4.737,4.737,0,0,1,109.846-15a5.406,5.406,0,0,1,2.252-.467,5.478,5.478,0,0,1,2.263.467,4.758,4.758,0,0,1,1.806,1.433,7.133,7.133,0,0,1,1.192,2.436A12.441,12.441,0,0,1,117.789-7.654Zm-3.36,0a13.866,13.866,0,0,0-.2-2.6,5.327,5.327,0,0,0-.53-1.591,1.923,1.923,0,0,0-.751-.793,1.847,1.847,0,0,0-.851-.215,1.816,1.816,0,0,0-.845.215,1.876,1.876,0,0,0-.735.793A5.466,5.466,0,0,0,110-10.253a14.232,14.232,0,0,0-.194,2.6A14.216,14.216,0,0,0,110-5.05a5.539,5.539,0,0,0,.514,1.591,1.872,1.872,0,0,0,.735.8,1.816,1.816,0,0,0,.845.215,1.847,1.847,0,0,0,.851-.215,1.918,1.918,0,0,0,.751-.8,5.4,5.4,0,0,0,.53-1.591A13.85,13.85,0,0,0,114.429-7.654Zm16.947,0a12.441,12.441,0,0,1-.43,3.475,7.133,7.133,0,0,1-1.192,2.436A4.806,4.806,0,0,1,127.948-.3a5.426,5.426,0,0,1-2.263.472A5.355,5.355,0,0,1,123.433-.3a4.786,4.786,0,0,1-1.79-1.438,7.123,7.123,0,0,1-1.181-2.436,12.586,12.586,0,0,1-.425-3.475,12.586,12.586,0,0,1,.425-3.475,7.124,7.124,0,0,1,1.181-2.436A4.737,4.737,0,0,1,123.433-15a5.406,5.406,0,0,1,2.252-.467,5.478,5.478,0,0,1,2.263.467,4.758,4.758,0,0,1,1.806,1.433,7.133,7.133,0,0,1,1.192,2.436A12.441,12.441,0,0,1,131.376-7.654Zm-3.36,0a13.867,13.867,0,0,0-.2-2.6,5.327,5.327,0,0,0-.53-1.591,1.923,1.923,0,0,0-.751-.793,1.847,1.847,0,0,0-.851-.215,1.816,1.816,0,0,0-.845.215,1.876,1.876,0,0,0-.735.793,5.466,5.466,0,0,0-.514,1.591,14.232,14.232,0,0,0-.194,2.6,14.216,14.216,0,0,0,.194,2.6A5.539,5.539,0,0,0,124.1-3.46a1.872,1.872,0,0,0,.735.8,1.816,1.816,0,0,0,.845.215,1.847,1.847,0,0,0,.851-.215,1.918,1.918,0,0,0,.751-.8,5.4,5.4,0,0,0,.53-1.591A13.851,13.851,0,0,0,128.016-7.654Zm16.947,0a12.441,12.441,0,0,1-.43,3.475,7.133,7.133,0,0,1-1.192,2.436A4.806,4.806,0,0,1,141.535-.3a5.426,5.426,0,0,1-2.263.472A5.355,5.355,0,0,1,137.02-.3a4.786,4.786,0,0,1-1.79-1.438,7.123,7.123,0,0,1-1.181-2.436,12.586,12.586,0,0,1-.425-3.475,12.586,12.586,0,0,1,.425-3.475,7.123,7.123,0,0,1,1.181-2.436A4.737,4.737,0,0,1,137.02-15a5.406,5.406,0,0,1,2.252-.467,5.478,5.478,0,0,1,2.263.467,4.758,4.758,0,0,1,1.806,1.433,7.133,7.133,0,0,1,1.192,2.436A12.441,12.441,0,0,1,144.963-7.654Zm-3.36,0a13.867,13.867,0,0,0-.2-2.6,5.327,5.327,0,0,0-.53-1.591,1.923,1.923,0,0,0-.751-.793,1.847,1.847,0,0,0-.85-.215,1.816,1.816,0,0,0-.845.215,1.876,1.876,0,0,0-.735.793,5.466,5.466,0,0,0-.515,1.591,14.233,14.233,0,0,0-.194,2.6,14.216,14.216,0,0,0,.194,2.6,5.539,5.539,0,0,0,.515,1.591,1.872,1.872,0,0,0,.735.8,1.816,1.816,0,0,0,.845.215,1.847,1.847,0,0,0,.85-.215,1.918,1.918,0,0,0,.751-.8,5.4,5.4,0,0,0,.53-1.591A13.851,13.851,0,0,0,141.6-7.654Zm22.407,0a12.441,12.441,0,0,1-.43,3.475,7.133,7.133,0,0,1-1.192,2.436A4.806,4.806,0,0,1,160.582-.3a5.426,5.426,0,0,1-2.263.472A5.355,5.355,0,0,1,156.067-.3a4.786,4.786,0,0,1-1.79-1.438A7.123,7.123,0,0,1,153.1-4.179a12.586,12.586,0,0,1-.425-3.475,12.586,12.586,0,0,1,.425-3.475,7.123,7.123,0,0,1,1.181-2.436A4.737,4.737,0,0,1,156.067-15a5.406,5.406,0,0,1,2.252-.467,5.478,5.478,0,0,1,2.263.467,4.758,4.758,0,0,1,1.806,1.433,7.133,7.133,0,0,1,1.192,2.436A12.441,12.441,0,0,1,164.01-7.654Zm-3.36,0a13.867,13.867,0,0,0-.2-2.6,5.327,5.327,0,0,0-.53-1.591,1.923,1.923,0,0,0-.751-.793,1.847,1.847,0,0,0-.85-.215,1.816,1.816,0,0,0-.845.215,1.876,1.876,0,0,0-.735.793,5.466,5.466,0,0,0-.515,1.591,14.233,14.233,0,0,0-.194,2.6,14.216,14.216,0,0,0,.194,2.6,5.539,5.539,0,0,0,.515,1.591,1.872,1.872,0,0,0,.735.8,1.816,1.816,0,0,0,.845.215,1.847,1.847,0,0,0,.85-.215,1.918,1.918,0,0,0,.751-.8,5.4,5.4,0,0,0,.53-1.591A13.851,13.851,0,0,0,160.65-7.654Zm16.947,0a12.441,12.441,0,0,1-.43,3.475,7.133,7.133,0,0,1-1.192,2.436A4.806,4.806,0,0,1,174.169-.3a5.426,5.426,0,0,1-2.263.472A5.355,5.355,0,0,1,169.654-.3a4.786,4.786,0,0,1-1.79-1.438,7.123,7.123,0,0,1-1.181-2.436,12.586,12.586,0,0,1-.425-3.475,12.586,12.586,0,0,1,.425-3.475,7.123,7.123,0,0,1,1.181-2.436A4.737,4.737,0,0,1,169.654-15a5.406,5.406,0,0,1,2.252-.467,5.478,5.478,0,0,1,2.263.467,4.758,4.758,0,0,1,1.806,1.433,7.133,7.133,0,0,1,1.192,2.436A12.441,12.441,0,0,1,177.6-7.654Zm-3.36,0a13.867,13.867,0,0,0-.2-2.6,5.327,5.327,0,0,0-.53-1.591,1.923,1.923,0,0,0-.751-.793,1.847,1.847,0,0,0-.85-.215,1.816,1.816,0,0,0-.845.215,1.876,1.876,0,0,0-.735.793,5.466,5.466,0,0,0-.515,1.591,14.233,14.233,0,0,0-.194,2.6,14.216,14.216,0,0,0,.194,2.6,5.539,5.539,0,0,0,.515,1.591,1.872,1.872,0,0,0,.735.8,1.816,1.816,0,0,0,.845.215,1.847,1.847,0,0,0,.85-.215,1.918,1.918,0,0,0,.751-.8,5.4,5.4,0,0,0,.53-1.591A13.851,13.851,0,0,0,174.237-7.654Z" transform="translate(80.765 112.223)" fill="#fff"/>
      <rect id="Rectangle_422" data-name="Rectangle 422" width="159" height="15" rx="4" transform="translate(545.765 348.223)" fill="#afb5bd"/>
      <rect id="Rectangle_423" data-name="Rectangle 423" width="158" height="15" rx="4" transform="translate(466.765 227.223)" fill="#afb5bd"/>
    </g>
  </g>
</svg>
